%TF.GenerationSoftware,KiCad,Pcbnew,(5.0.1)-4*%
%TF.CreationDate,2019-11-11T16:36:49-05:00*%
%TF.ProjectId,new_synth_transistor,6E65775F73796E74685F7472616E7369,rev?*%
%TF.SameCoordinates,Original*%
%TF.FileFunction,Copper,L2,Bot,Signal*%
%TF.FilePolarity,Positive*%
%FSLAX46Y46*%
G04 Gerber Fmt 4.6, Leading zero omitted, Abs format (unit mm)*
G04 Created by KiCad (PCBNEW (5.0.1)-4) date 11/11/2019 4:36:49 PM*
%MOMM*%
%LPD*%
G01*
G04 APERTURE LIST*
%ADD10R,1.700000X1.700000*%
%ADD11O,1.700000X1.700000*%
%ADD12R,1.428000X1.428000*%
%ADD13C,1.428000*%
%ADD14C,3.316000*%
%ADD15C,0.609600*%
%ADD16C,0.152400*%
%ADD17C,0.304800*%
%ADD18C,0.254000*%
G04 APERTURE END LIST*
D10*
X202336400Y-85852000D03*
D11*
X204876400Y-85852000D03*
X207416400Y-85852000D03*
X209956400Y-85852000D03*
X212496400Y-85852000D03*
X215036400Y-85852000D03*
X217576400Y-85852000D03*
D10*
X154127200Y-52527200D03*
D11*
X156667200Y-52527200D03*
X159207200Y-52527200D03*
X161747200Y-52527200D03*
X164287200Y-52527200D03*
X166827200Y-52527200D03*
X169367200Y-52527200D03*
X154178000Y-98806000D03*
X151638000Y-98806000D03*
X149098000Y-98806000D03*
X146558000Y-98806000D03*
X144018000Y-98806000D03*
X141478000Y-98806000D03*
D10*
X138938000Y-98806000D03*
X131876800Y-75793600D03*
D11*
X131876800Y-73253600D03*
X131876800Y-70713600D03*
X131876800Y-68173600D03*
X131876800Y-65633600D03*
X131876800Y-63093600D03*
X131876800Y-60553600D03*
D12*
X127577600Y-55789200D03*
D13*
X127577600Y-53289200D03*
X125577600Y-53289200D03*
X125577600Y-55789200D03*
D14*
X122867600Y-48479200D03*
X122867600Y-60519200D03*
D10*
X202628500Y-95661480D03*
D11*
X202628500Y-98201480D03*
D12*
X209487980Y-95511940D03*
D13*
X209487980Y-98011940D03*
X211487980Y-98011940D03*
X211487980Y-95511940D03*
D14*
X214197980Y-102821940D03*
X214197980Y-90781940D03*
D15*
X204774800Y-73863200D03*
X186740800Y-61417200D03*
X201726800Y-70002400D03*
X202844400Y-74625200D03*
X147218400Y-74320400D03*
X134264400Y-76657200D03*
X204419200Y-67411600D03*
X196646800Y-66040000D03*
X196646800Y-63246000D03*
X215493600Y-75641200D03*
X215239600Y-73050400D03*
X204724000Y-72542400D03*
X205079600Y-80772000D03*
X191922400Y-74269600D03*
X197815200Y-74320400D03*
X192379600Y-71120000D03*
X205943200Y-75895200D03*
X207721200Y-79603600D03*
X209296000Y-82499200D03*
X217932000Y-79756000D03*
X219506800Y-78181200D03*
X221640400Y-75946000D03*
X200202800Y-63906400D03*
X214630000Y-69088000D03*
X174701200Y-64566800D03*
X174650400Y-67767200D03*
X176580800Y-63550800D03*
X176530000Y-68072000D03*
X178257200Y-64465200D03*
X177342800Y-74777600D03*
X182372000Y-76962000D03*
X192379600Y-79146400D03*
X168097200Y-89916000D03*
X181559200Y-79146400D03*
X129133600Y-83566000D03*
X157835600Y-80111600D03*
X160832800Y-84124800D03*
X159207200Y-85344000D03*
X153365200Y-85445600D03*
X146050000Y-83718400D03*
X154940000Y-81635600D03*
X147574000Y-86918800D03*
X156972000Y-87020400D03*
X153111200Y-78435200D03*
X148336000Y-95453200D03*
X158140400Y-97840800D03*
X185318400Y-83870800D03*
X191973200Y-94030800D03*
X173278800Y-83972400D03*
X166674800Y-70510400D03*
X192989200Y-58318400D03*
X170942000Y-76098400D03*
X155600400Y-54914800D03*
X157988000Y-54864000D03*
X160680400Y-54864000D03*
X163220400Y-54813200D03*
X165811200Y-54813200D03*
X168249600Y-54813200D03*
X147980400Y-68427600D03*
X158902400Y-69342000D03*
X177698400Y-97586800D03*
X183642000Y-96164400D03*
X186486800Y-92100400D03*
X187401200Y-81940400D03*
X131419600Y-80975200D03*
X163880800Y-81838800D03*
X137312400Y-61620400D03*
X143662400Y-61976000D03*
X126644400Y-80721200D03*
X128524000Y-87528400D03*
X148590000Y-72694800D03*
X160985200Y-96570800D03*
X171450000Y-91948000D03*
X125323600Y-89154000D03*
X143357600Y-89204800D03*
X148082000Y-65735200D03*
X145389600Y-71983600D03*
X151028400Y-68732400D03*
X138379200Y-78333600D03*
X134467600Y-74879200D03*
X134467600Y-72288400D03*
X134467600Y-66294000D03*
X134366000Y-69189600D03*
X123291600Y-91033600D03*
X128320800Y-71932800D03*
X147624800Y-79095600D03*
X153365200Y-63906400D03*
X149910800Y-63754000D03*
X153162000Y-73101200D03*
X179374800Y-70967600D03*
X159359010Y-77013390D03*
X159461200Y-78943200D03*
X185369200Y-65430400D03*
X174345600Y-73558400D03*
X165252400Y-89712800D03*
X167284400Y-94894400D03*
X179628800Y-76758800D03*
X196545200Y-92557600D03*
X170180000Y-82854800D03*
X165963600Y-86360000D03*
X205902560Y-97259140D03*
X147167600Y-71678800D03*
X147167600Y-69850000D03*
X191516000Y-80975200D03*
X142392400Y-84023200D03*
X148640800Y-76504800D03*
X147828000Y-91287600D03*
X184200800Y-82753200D03*
X153212800Y-76059600D03*
X131013200Y-56997600D03*
X175564800Y-80568800D03*
X165404800Y-68783200D03*
X178816000Y-68275200D03*
X179628800Y-96926400D03*
X194208400Y-86614000D03*
X201168000Y-90779600D03*
X157937200Y-76708000D03*
X132181600Y-54610000D03*
X163423600Y-73660000D03*
X159308800Y-74168000D03*
X172313600Y-95148400D03*
X143306800Y-76098400D03*
X167284400Y-93472000D03*
X210261200Y-72936800D03*
X210718400Y-69392800D03*
X200456800Y-77368400D03*
X210921600Y-74710000D03*
X136499600Y-80568800D03*
X132943600Y-80568800D03*
X161899600Y-81026000D03*
X150012400Y-67868800D03*
X145084800Y-65532000D03*
X157073600Y-79400400D03*
X148793200Y-69748400D03*
X151657000Y-80822800D03*
X142849600Y-66700400D03*
X138226800Y-70967600D03*
X164947600Y-80314800D03*
X150672800Y-70256400D03*
X152095200Y-67970400D03*
X139649200Y-63703200D03*
X138785600Y-64973200D03*
X135940800Y-67462400D03*
X135940800Y-70358000D03*
X142798800Y-67919600D03*
X138938000Y-69494400D03*
X135940800Y-68884800D03*
X163677600Y-84785200D03*
X155397200Y-70967600D03*
X148793200Y-68021200D03*
X148234400Y-85090000D03*
X164084000Y-99263200D03*
X157022800Y-101498400D03*
X133908800Y-81889600D03*
X148691600Y-93421200D03*
X161290000Y-92710000D03*
X159485200Y-94056200D03*
X177393600Y-90728800D03*
X180289200Y-87985600D03*
X185521600Y-88747600D03*
X126644400Y-87408003D03*
X133604000Y-88950800D03*
X157022800Y-99669600D03*
X169824400Y-100888800D03*
X133248400Y-95381400D03*
X192989200Y-68465700D03*
X202031600Y-67157600D03*
X215036400Y-77520800D03*
X171094400Y-77216000D03*
X166370000Y-73456800D03*
X166951001Y-72666201D03*
X167589200Y-72034400D03*
X168198800Y-71374000D03*
X169113200Y-78740000D03*
X170180000Y-78028800D03*
X172110400Y-76301600D03*
X178132500Y-75996800D03*
X135585200Y-96824800D03*
X173634400Y-77114400D03*
X132842000Y-97637600D03*
X174143600Y-78180000D03*
X134166518Y-97383600D03*
X169367200Y-99161600D03*
X176326800Y-88036400D03*
X167697181Y-100831619D03*
X150368000Y-89662000D03*
X145694400Y-89255600D03*
X139700000Y-85039200D03*
X146913600Y-77774800D03*
X141274800Y-67564000D03*
X193954400Y-56438800D03*
X216966800Y-75234800D03*
X221792800Y-73558400D03*
X190652400Y-62636400D03*
X192481200Y-59893200D03*
X141224000Y-62992000D03*
X152552400Y-74625200D03*
X165658800Y-74066400D03*
X150977600Y-65532000D03*
X206756000Y-80873600D03*
X207111600Y-82651600D03*
X188417200Y-74625200D03*
X185369200Y-67614800D03*
X185166000Y-70154800D03*
X188417200Y-68935600D03*
D16*
X186740800Y-64105882D02*
X198530118Y-75895200D01*
X186740800Y-61417200D02*
X186740800Y-64105882D01*
X202742800Y-75895200D02*
X204774800Y-73863200D01*
X198530118Y-75895200D02*
X202742800Y-75895200D01*
X202844400Y-71120000D02*
X201726800Y-70002400D01*
X202844400Y-74625200D02*
X202844400Y-71120000D01*
X173709852Y-83972400D02*
X175843452Y-81838800D01*
X173278800Y-83972400D02*
X173709852Y-83972400D01*
X175843452Y-81838800D02*
X184505600Y-81838800D01*
X185013601Y-83566001D02*
X185318400Y-83870800D01*
X185013600Y-82346800D02*
X185013601Y-83566001D01*
X184505600Y-81838800D02*
X185013600Y-82346800D01*
D17*
X170129200Y-91948000D02*
X168097200Y-89916000D01*
X171450000Y-91948000D02*
X170129200Y-91948000D01*
X128524000Y-84175600D02*
X129133600Y-83566000D01*
X128524000Y-87528400D02*
X128524000Y-84175600D01*
X126644400Y-81076800D02*
X126644400Y-80721200D01*
X129133600Y-83566000D02*
X126644400Y-81076800D01*
X126644400Y-80721200D02*
X126644400Y-85191600D01*
D16*
X145389600Y-71552548D02*
X145389600Y-71983600D01*
X145389600Y-70587348D02*
X145389600Y-71552548D01*
X147549348Y-68427600D02*
X145389600Y-70587348D01*
X147980400Y-68427600D02*
X147549348Y-68427600D01*
X148158948Y-72694800D02*
X148590000Y-72694800D01*
X145669748Y-72694800D02*
X148158948Y-72694800D01*
X145389600Y-72414652D02*
X145669748Y-72694800D01*
X145389600Y-71983600D02*
X145389600Y-72414652D01*
X134366000Y-66395600D02*
X134467600Y-66294000D01*
X134366000Y-69189600D02*
X134366000Y-66395600D01*
X134467600Y-74879200D02*
X134467600Y-72288400D01*
D17*
X137312400Y-63449200D02*
X137312400Y-61620400D01*
X134467600Y-66294000D02*
X137312400Y-63449200D01*
X123444000Y-91033600D02*
X125323600Y-89154000D01*
X123291600Y-91033600D02*
X123444000Y-91033600D01*
X150063200Y-63906400D02*
X149910800Y-63754000D01*
X153365200Y-63906400D02*
X150063200Y-63906400D01*
X152806401Y-78130401D02*
X153111200Y-78435200D01*
X152555599Y-77879599D02*
X152806401Y-78130401D01*
X152555599Y-75744143D02*
X152555599Y-77879599D01*
X153209601Y-75090141D02*
X152555599Y-75744143D01*
X153209601Y-73148801D02*
X153209601Y-75090141D01*
X153162000Y-73101200D02*
X153209601Y-73148801D01*
X159461200Y-77115580D02*
X159359010Y-77013390D01*
X159461200Y-78943200D02*
X159461200Y-77115580D01*
X184912000Y-65430400D02*
X185369200Y-65430400D01*
X179374800Y-70967600D02*
X184912000Y-65430400D01*
X176936400Y-70967600D02*
X174345600Y-73558400D01*
X179374800Y-70967600D02*
X176936400Y-70967600D01*
D16*
X147167600Y-71678800D02*
X147167600Y-69850000D01*
X191516000Y-80975200D02*
X191516000Y-81406252D01*
X191516000Y-90576400D02*
X191516000Y-80975200D01*
X142697199Y-84327999D02*
X145893881Y-84327999D01*
X142392400Y-84023200D02*
X142697199Y-84327999D01*
X145893881Y-84327999D02*
X157295283Y-95729401D01*
X157295283Y-95729401D02*
X157299001Y-95729401D01*
X157299001Y-95729401D02*
X161696400Y-100126800D01*
X182067200Y-100025200D02*
X191516000Y-90576400D01*
X182067200Y-100025200D02*
X181965600Y-100126800D01*
X161696400Y-100126800D02*
X181965600Y-100126800D01*
X143027919Y-75517399D02*
X144910199Y-75517399D01*
X141811399Y-76733919D02*
X143027919Y-75517399D01*
X141811399Y-84484347D02*
X141811399Y-76733919D01*
X145897600Y-76504800D02*
X144910199Y-75517399D01*
X148640800Y-76504800D02*
X145897600Y-76504800D01*
X149101718Y-89306400D02*
X144732918Y-84937600D01*
X142264652Y-84937600D02*
X141811399Y-84484347D01*
X144732918Y-84937600D02*
X142264652Y-84937600D01*
X148132799Y-90982801D02*
X148386799Y-90982801D01*
X147828000Y-91287600D02*
X148132799Y-90982801D01*
X149101718Y-90267882D02*
X149101718Y-89306400D01*
X148386799Y-90982801D02*
X149101718Y-90267882D01*
X183896001Y-83057999D02*
X184200800Y-82753200D01*
X181587799Y-85366201D02*
X183896001Y-83057999D01*
X160902083Y-85366201D02*
X181587799Y-85366201D01*
X153212800Y-77676918D02*
X160902083Y-85366201D01*
X153212800Y-76059600D02*
X153212800Y-77676918D01*
D17*
X178308000Y-68783200D02*
X178816000Y-68275200D01*
X165404800Y-68783200D02*
X178308000Y-68783200D01*
X175564800Y-80568800D02*
X180289200Y-80568800D01*
X180543208Y-80822808D02*
X184095754Y-80822808D01*
X180289200Y-80568800D02*
X180543208Y-80822808D01*
X184095754Y-80822808D02*
X184683137Y-81410191D01*
X184683137Y-81410191D02*
X185773873Y-82500927D01*
X186991601Y-83352143D02*
X186991601Y-89563599D01*
X185773873Y-82500927D02*
X186140385Y-82500927D01*
X186140385Y-82500927D02*
X186991601Y-83352143D01*
X186991601Y-89563599D02*
X179628800Y-96926400D01*
X179628800Y-96926400D02*
X179628800Y-96926400D01*
X194208400Y-87045052D02*
X197942948Y-90779600D01*
X194208400Y-86614000D02*
X194208400Y-87045052D01*
X197942948Y-90779600D02*
X201168000Y-90779600D01*
X131013200Y-55778400D02*
X132181600Y-54610000D01*
X131013200Y-56997600D02*
X131013200Y-55778400D01*
D16*
X162915600Y-74168000D02*
X163423600Y-73660000D01*
X159308800Y-74168000D02*
X162915600Y-74168000D01*
X170586400Y-93421200D02*
X172313600Y-95148400D01*
X166471600Y-93421200D02*
X167284400Y-93421200D01*
X167284400Y-93421200D02*
X170586400Y-93421200D01*
X167284400Y-93421200D02*
X164541200Y-93421200D01*
X143306800Y-76529452D02*
X156794948Y-90017600D01*
X143306800Y-76098400D02*
X143306800Y-76529452D01*
X161137600Y-90017600D02*
X163169600Y-92049600D01*
X156794948Y-90017600D02*
X161137600Y-90017600D01*
X163169600Y-92049600D02*
X164541200Y-93421200D01*
D17*
X210261200Y-69850000D02*
X210718400Y-69392800D01*
X210261200Y-72936800D02*
X210261200Y-69850000D01*
D16*
X208263200Y-77368400D02*
X210921600Y-74710000D01*
X200456800Y-77368400D02*
X208263200Y-77368400D01*
X131876800Y-79502000D02*
X132943600Y-80568800D01*
X131876800Y-75793600D02*
X131876800Y-79502000D01*
X160416782Y-81026000D02*
X161899600Y-81026000D01*
X156362400Y-76971618D02*
X160416782Y-81026000D01*
X150012400Y-67868800D02*
X150012400Y-70455882D01*
X156362400Y-71072918D02*
X156362400Y-76971618D01*
X150012400Y-70455882D02*
X150393919Y-70837401D01*
X150393919Y-70837401D02*
X151310999Y-70837401D01*
X151310999Y-70837401D02*
X151761801Y-70386599D01*
X151761801Y-70386599D02*
X155676081Y-70386599D01*
X155676081Y-70386599D02*
X156362400Y-71072918D01*
X145084800Y-67462400D02*
X145084800Y-65532000D01*
X145084800Y-68275200D02*
X145084800Y-67462400D01*
X137566400Y-75793600D02*
X145084800Y-68275200D01*
X131876800Y-75793600D02*
X137566400Y-75793600D01*
X157073600Y-78969348D02*
X155041600Y-76937348D01*
X157073600Y-79400400D02*
X157073600Y-78969348D01*
X155041600Y-72288400D02*
X154295421Y-71542221D01*
X155041600Y-76937348D02*
X155041600Y-72288400D01*
X148793200Y-70179452D02*
X148793200Y-69748400D01*
X148793200Y-70233448D02*
X148793200Y-70179452D01*
X150101973Y-71542221D02*
X148793200Y-70233448D01*
X154295421Y-71542221D02*
X150101973Y-71542221D01*
X132130800Y-70967600D02*
X131876800Y-70713600D01*
X138226800Y-70967600D02*
X132130800Y-70967600D01*
X164516548Y-80314800D02*
X164947600Y-80314800D01*
X158496000Y-74294252D02*
X164516548Y-80314800D01*
X158496000Y-70205600D02*
X158496000Y-74294252D01*
X157327600Y-69037200D02*
X158496000Y-70205600D01*
X151892000Y-69037200D02*
X157327600Y-69037200D01*
X150672800Y-70256400D02*
X151892000Y-69037200D01*
X152095200Y-68834000D02*
X152095200Y-67970400D01*
X151892000Y-69037200D02*
X152095200Y-68834000D01*
X139649200Y-64109600D02*
X139649200Y-63703200D01*
X138785600Y-64973200D02*
X139649200Y-64109600D01*
X138074400Y-70358000D02*
X138938000Y-69494400D01*
X135940800Y-70358000D02*
X138074400Y-70358000D01*
X135940800Y-68884800D02*
X135940800Y-67462400D01*
X155397200Y-76504800D02*
X156464000Y-77571600D01*
X155397200Y-70967600D02*
X155397200Y-76504800D01*
X156108400Y-77216000D02*
X156464000Y-77571600D01*
X156464000Y-77571600D02*
X163677600Y-84785200D01*
X150247946Y-71189811D02*
X149656800Y-70598665D01*
X154743937Y-71189811D02*
X150247946Y-71189811D01*
X155397200Y-70967600D02*
X154966148Y-70967600D01*
X154966148Y-70967600D02*
X154743937Y-71189811D01*
X149656800Y-68884800D02*
X148793200Y-68021200D01*
X149656800Y-70598665D02*
X149656800Y-68884800D01*
X148234400Y-85090000D02*
X148234400Y-86170136D01*
X148234400Y-86170136D02*
X150361332Y-88297068D01*
X150361332Y-88297068D02*
X153231532Y-91167268D01*
X153231532Y-91167268D02*
X155314332Y-93250068D01*
X155318050Y-93250068D02*
X157444974Y-95376992D01*
X155314332Y-93250068D02*
X155318050Y-93250068D01*
X157444974Y-95376992D02*
X161818591Y-99750609D01*
X161818591Y-99750609D02*
X161839182Y-99771200D01*
X161839182Y-99771200D02*
X163576000Y-99771200D01*
X163576000Y-99771200D02*
X164084000Y-99263200D01*
D17*
X159943800Y-94056200D02*
X161290000Y-92710000D01*
X159485200Y-94056200D02*
X159943800Y-94056200D01*
X180136800Y-87985600D02*
X180289200Y-87985600D01*
X177393600Y-90728800D02*
X180136800Y-87985600D01*
X184759600Y-87985600D02*
X185521600Y-88747600D01*
X180289200Y-87985600D02*
X184759600Y-87985600D01*
X148386801Y-93116401D02*
X148386801Y-92747727D01*
X148691600Y-93421200D02*
X148386801Y-93116401D01*
X148386801Y-92747727D02*
X149570718Y-91563810D01*
X149831410Y-91563810D02*
X153873200Y-95605600D01*
X149570718Y-91563810D02*
X149831410Y-91563810D01*
X153416000Y-95148400D02*
X153873200Y-95605600D01*
X133908799Y-88646001D02*
X133604000Y-88950800D01*
X133908800Y-81889600D02*
X133908799Y-88646001D01*
X128187197Y-88950800D02*
X126644400Y-87408003D01*
X133604000Y-88950800D02*
X128187197Y-88950800D01*
X157022800Y-101498400D02*
X157022800Y-99669600D01*
X157022800Y-98755200D02*
X156362400Y-98094800D01*
X157022800Y-99669600D02*
X157022800Y-98755200D01*
X153873200Y-95605600D02*
X156362400Y-98094800D01*
X156362400Y-98094800D02*
X156565600Y-98298000D01*
X169214800Y-101498400D02*
X157226000Y-101498400D01*
X169824400Y-100888800D02*
X169214800Y-101498400D01*
X157226000Y-101498400D02*
X157022800Y-101498400D01*
X157022800Y-101498400D02*
X135585200Y-101498400D01*
X132943601Y-95686199D02*
X133248400Y-95381400D01*
X132184799Y-96445001D02*
X132943601Y-95686199D01*
X132184799Y-98097999D02*
X132184799Y-96445001D01*
X135585200Y-101498400D02*
X132184799Y-98097999D01*
X133604000Y-95025800D02*
X133248400Y-95381400D01*
X133604000Y-88950800D02*
X133604000Y-95025800D01*
D16*
X200723500Y-68465700D02*
X202031600Y-67157600D01*
X192989200Y-68465700D02*
X200723500Y-68465700D01*
X210806399Y-85002001D02*
X209956400Y-85852000D01*
X211502601Y-84305799D02*
X210806399Y-85002001D01*
X211502601Y-69317119D02*
X211502601Y-84305799D01*
X209016081Y-66830599D02*
X211502601Y-69317119D01*
X202358601Y-66830599D02*
X209016081Y-66830599D01*
X202031600Y-67157600D02*
X202358601Y-66830599D01*
X212496400Y-80060800D02*
X212496400Y-85852000D01*
X215036400Y-77520800D02*
X212496400Y-80060800D01*
X184690317Y-80394199D02*
X192763799Y-80394199D01*
X181512118Y-77216000D02*
X184690317Y-80394199D01*
X211646401Y-86701999D02*
X212496400Y-85852000D01*
X211370199Y-86978201D02*
X211646401Y-86701999D01*
X192763799Y-80394199D02*
X199347801Y-86978201D01*
X199347801Y-86978201D02*
X199347801Y-87283001D01*
X199347801Y-87283001D02*
X200609200Y-88544400D01*
X209804000Y-88544400D02*
X212496400Y-85852000D01*
X200609200Y-88544400D02*
X209804000Y-88544400D01*
X172055882Y-77216000D02*
X177186682Y-72085200D01*
X171094400Y-77216000D02*
X172055882Y-77216000D01*
X177186682Y-72085200D02*
X179425600Y-72085200D01*
X181512118Y-74171718D02*
X181512118Y-77216000D01*
X179425600Y-72085200D02*
X181512118Y-74171718D01*
X166065201Y-73139671D02*
X158406730Y-65481200D01*
X166370000Y-73456800D02*
X166065201Y-73152001D01*
X166065201Y-73152001D02*
X166065201Y-73139671D01*
X158406730Y-65481200D02*
X155854400Y-65481200D01*
X154127200Y-63754000D02*
X154127200Y-52527200D01*
X155854400Y-65481200D02*
X154127200Y-63754000D01*
X166646202Y-72361402D02*
X165785314Y-72361402D01*
X166951001Y-72666201D02*
X166646202Y-72361402D01*
X165785314Y-72361402D02*
X158498712Y-65074800D01*
X158496000Y-65074800D02*
X156667200Y-63246000D01*
X158498712Y-65074800D02*
X158496000Y-65074800D01*
X156667200Y-63246000D02*
X156667200Y-52527200D01*
X159207200Y-65284906D02*
X159207200Y-52527200D01*
X165905894Y-71983600D02*
X159207200Y-65284906D01*
X167107348Y-71983600D02*
X165905894Y-71983600D01*
X167589200Y-72034400D02*
X167158148Y-72034400D01*
X167158148Y-72034400D02*
X167107348Y-71983600D01*
X168198800Y-71374000D02*
X166116000Y-71374000D01*
X161747200Y-67005200D02*
X161747200Y-52527200D01*
X166116000Y-71374000D02*
X161747200Y-67005200D01*
X178739272Y-69211810D02*
X179578000Y-68373082D01*
X176300872Y-69211810D02*
X178739272Y-69211810D01*
X169113200Y-78740000D02*
X169113200Y-76399482D01*
X169113200Y-76399482D02*
X176300872Y-69211810D01*
X179578000Y-68373082D02*
X179578000Y-68021200D01*
X178054000Y-66497200D02*
X166878000Y-66497200D01*
X179578000Y-68021200D02*
X178054000Y-66497200D01*
X164287200Y-63906400D02*
X164287200Y-52527200D01*
X166878000Y-66497200D02*
X164287200Y-63906400D01*
X178885245Y-69564220D02*
X179930410Y-68519055D01*
X170180000Y-75831064D02*
X176446844Y-69564220D01*
X176446844Y-69564220D02*
X178885245Y-69564220D01*
X170180000Y-78028800D02*
X169465610Y-77314410D01*
X169465610Y-77314410D02*
X169465610Y-76545454D01*
X169465610Y-76545454D02*
X170249532Y-75761532D01*
X179930410Y-67875227D02*
X178145983Y-66090800D01*
X179930410Y-68519055D02*
X179930410Y-67875227D01*
X178145983Y-66090800D02*
X168249600Y-66090800D01*
X166827200Y-64668400D02*
X166827200Y-52527200D01*
X168249600Y-66090800D02*
X166827200Y-64668400D01*
X176615770Y-69916630D02*
X179031217Y-69916630D01*
X179031217Y-69916630D02*
X179031218Y-69916629D01*
X172110400Y-76301600D02*
X172110400Y-74399046D01*
X172110400Y-74399046D02*
X176592816Y-69916630D01*
X180282820Y-67729255D02*
X178136365Y-65582800D01*
X180282820Y-68665028D02*
X180282820Y-67729255D01*
X179031217Y-69916630D02*
X179031218Y-69916630D01*
X179031218Y-69916630D02*
X180282820Y-68665028D01*
X169367200Y-53729281D02*
X169367200Y-52527200D01*
X169367200Y-60092682D02*
X169367200Y-53729281D01*
X174857318Y-65582800D02*
X169367200Y-60092682D01*
X178136365Y-65582800D02*
X174857318Y-65582800D01*
X164004601Y-73072601D02*
X158140400Y-67208400D01*
X164004601Y-75488048D02*
X164004601Y-73072601D01*
X135585200Y-79302518D02*
X135585200Y-96824800D01*
X168726563Y-80210010D02*
X164004601Y-75488048D01*
X172973472Y-80210010D02*
X168726563Y-80210010D01*
X178132500Y-75996800D02*
X177186682Y-75996800D01*
X177186682Y-75996800D02*
X172973472Y-80210010D01*
X158140400Y-67208400D02*
X147679318Y-67208400D01*
X147679318Y-67208400D02*
X135585200Y-79302518D01*
X168834319Y-79321001D02*
X168148000Y-78634682D01*
X173634400Y-77114400D02*
X171427799Y-79321001D01*
X171427799Y-79321001D02*
X168834319Y-79321001D01*
X168148000Y-78634682D02*
X167735172Y-78221855D01*
X167735172Y-78221855D02*
X164709421Y-75196104D01*
X147387372Y-66503580D02*
X134874000Y-79016952D01*
X158432346Y-66503580D02*
X147387372Y-66503580D01*
X164709421Y-75196104D02*
X164709421Y-72780655D01*
X164709421Y-72780655D02*
X158432346Y-66503580D01*
X134874000Y-79016952D02*
X134874000Y-95402400D01*
X134874000Y-95402400D02*
X134874000Y-95605600D01*
X134874000Y-95605600D02*
X132842000Y-97637600D01*
X168872536Y-79857600D02*
X167589200Y-78574264D01*
X174143600Y-78180000D02*
X172466000Y-79857600D01*
X172466000Y-79857600D02*
X168872536Y-79857600D01*
X167589200Y-78574264D02*
X167589199Y-78574264D01*
X164357011Y-75342076D02*
X164357011Y-72926628D01*
X167589199Y-78574264D02*
X164357011Y-75342076D01*
X147533345Y-66855990D02*
X135229600Y-79159735D01*
X164357011Y-72926628D02*
X158286373Y-66855990D01*
X158286373Y-66855990D02*
X147533345Y-66855990D01*
X135229600Y-79159735D02*
X135229600Y-95046800D01*
X135229600Y-96320518D02*
X134166518Y-97383600D01*
X135229600Y-95046800D02*
X135229600Y-96320518D01*
X176326800Y-92202000D02*
X169367200Y-99161600D01*
X176326800Y-88036400D02*
X176326800Y-92202000D01*
X167697181Y-100831619D02*
X159708819Y-100831619D01*
X146558000Y-93970382D02*
X146558000Y-98806000D01*
X149393182Y-91135200D02*
X146558000Y-93970382D01*
X150012400Y-91135200D02*
X149393182Y-91135200D01*
X159708819Y-100831619D02*
X150012400Y-91135200D01*
X144018000Y-96012000D02*
X150368000Y-89662000D01*
X144018000Y-98806000D02*
X144018000Y-96012000D01*
X141478000Y-93472000D02*
X141478000Y-98806000D01*
X145694400Y-89255600D02*
X141478000Y-93472000D01*
X139700000Y-98044000D02*
X138938000Y-98806000D01*
X139700000Y-85039200D02*
X139700000Y-98044000D01*
D17*
X220116400Y-75234800D02*
X221792800Y-73558400D01*
X216966800Y-75234800D02*
X220116400Y-75234800D01*
X190957199Y-62331601D02*
X190652400Y-62636400D01*
X210566001Y-62331601D02*
X190957199Y-62331601D01*
X221792800Y-73558400D02*
X210566001Y-62331601D01*
X141274800Y-63042800D02*
X141224000Y-62992000D01*
X141274800Y-67564000D02*
X141274800Y-63042800D01*
X128596400Y-55789200D02*
X133060801Y-51324799D01*
X127577600Y-55789200D02*
X128596400Y-55789200D01*
X193954400Y-58420000D02*
X193954400Y-56438800D01*
X192481200Y-59893200D02*
X193954400Y-58420000D01*
X188840399Y-51324799D02*
X188468000Y-51324799D01*
X193954400Y-56438800D02*
X188840399Y-51324799D01*
X133060801Y-51324799D02*
X188468000Y-51324799D01*
X188468000Y-51324799D02*
X188738799Y-51324799D01*
X149402800Y-77774800D02*
X152552400Y-74625200D01*
X146913600Y-77774800D02*
X149402800Y-77774800D01*
D16*
X165658800Y-74066400D02*
X165658800Y-73231652D01*
X158578318Y-66151170D02*
X158670348Y-66243200D01*
X151596770Y-66151170D02*
X158578318Y-66151170D01*
X150977600Y-65532000D02*
X151596770Y-66151170D01*
X165658800Y-73231652D02*
X158670348Y-66243200D01*
X206756000Y-82296000D02*
X207111600Y-82651600D01*
X206756000Y-80873600D02*
X206756000Y-82296000D01*
X188112401Y-74320401D02*
X188417200Y-74625200D01*
X184584999Y-70792999D02*
X188112401Y-74320401D01*
X184584999Y-68399001D02*
X184584999Y-70792999D01*
X185369200Y-67614800D02*
X184584999Y-68399001D01*
X186385200Y-68935600D02*
X185166000Y-70154800D01*
X188417200Y-68935600D02*
X186385200Y-68935600D01*
D18*
G36*
X221973615Y-43989027D02*
X222946413Y-44203801D01*
X223878018Y-44556754D01*
X224748916Y-45040495D01*
X225540857Y-45644885D01*
X226237257Y-46357267D01*
X226823529Y-47162722D01*
X227287388Y-48044373D01*
X227619115Y-48983743D01*
X227812573Y-49965274D01*
X227865001Y-50822471D01*
X227865000Y-99033368D01*
X227790973Y-100053615D01*
X227576199Y-101026413D01*
X227223246Y-101958018D01*
X226739507Y-102828913D01*
X226135115Y-103620858D01*
X225422729Y-104317260D01*
X224617274Y-104903530D01*
X223735628Y-105367388D01*
X222796255Y-105699115D01*
X221814727Y-105892573D01*
X220957546Y-105945000D01*
X119406632Y-105945000D01*
X118386385Y-105870973D01*
X117413587Y-105656199D01*
X116481982Y-105303246D01*
X115611087Y-104819507D01*
X114819142Y-104215115D01*
X114122740Y-103502729D01*
X113536470Y-102697274D01*
X113072612Y-101815628D01*
X112740885Y-100876255D01*
X112547427Y-99894727D01*
X112495000Y-99037546D01*
X112495000Y-60063094D01*
X120574600Y-60063094D01*
X120574600Y-60975306D01*
X120923688Y-61818080D01*
X121568720Y-62463112D01*
X122411494Y-62812200D01*
X123323706Y-62812200D01*
X124166480Y-62463112D01*
X124811512Y-61818080D01*
X125160600Y-60975306D01*
X125160600Y-60063094D01*
X124811512Y-59220320D01*
X124166480Y-58575288D01*
X123323706Y-58226200D01*
X122411494Y-58226200D01*
X121568720Y-58575288D01*
X120923688Y-59220320D01*
X120574600Y-60063094D01*
X112495000Y-60063094D01*
X112495000Y-55592976D01*
X124216241Y-55592976D01*
X124244777Y-56128883D01*
X124394960Y-56491457D01*
X124632176Y-56555019D01*
X125397995Y-55789200D01*
X124632176Y-55023381D01*
X124394960Y-55086943D01*
X124216241Y-55592976D01*
X112495000Y-55592976D01*
X112495000Y-53020867D01*
X124228600Y-53020867D01*
X124228600Y-53557533D01*
X124433973Y-54053347D01*
X124813453Y-54432827D01*
X125054112Y-54532511D01*
X124875343Y-54606560D01*
X124811781Y-54843776D01*
X125577600Y-55609595D01*
X125591743Y-55595453D01*
X125771348Y-55775058D01*
X125757205Y-55789200D01*
X125771348Y-55803343D01*
X125591743Y-55982948D01*
X125577600Y-55968805D01*
X124811781Y-56734624D01*
X124875343Y-56971840D01*
X125381376Y-57150559D01*
X125917283Y-57122023D01*
X126279857Y-56971840D01*
X126317975Y-56829584D01*
X126405791Y-56961009D01*
X126615835Y-57101357D01*
X126863600Y-57150640D01*
X128291600Y-57150640D01*
X128539365Y-57101357D01*
X128749409Y-56961009D01*
X128889757Y-56750965D01*
X128938110Y-56507875D01*
X129164084Y-56356884D01*
X129208016Y-56291135D01*
X131358975Y-54140176D01*
X131241800Y-54423062D01*
X131241800Y-54436248D01*
X130511263Y-55166786D01*
X130445517Y-55210716D01*
X130401587Y-55276462D01*
X130271486Y-55471172D01*
X130210374Y-55778400D01*
X130225801Y-55855955D01*
X130225800Y-56455922D01*
X130216476Y-56465246D01*
X130073400Y-56810662D01*
X130073400Y-57184538D01*
X130216476Y-57529954D01*
X130480846Y-57794324D01*
X130826262Y-57937400D01*
X131200138Y-57937400D01*
X131545554Y-57794324D01*
X131809924Y-57529954D01*
X131953000Y-57184538D01*
X131953000Y-56810662D01*
X131809924Y-56465246D01*
X131800600Y-56455922D01*
X131800600Y-56104551D01*
X132355352Y-55549800D01*
X132368538Y-55549800D01*
X132713954Y-55406724D01*
X132978324Y-55142354D01*
X133121400Y-54796938D01*
X133121400Y-54423062D01*
X132978324Y-54077646D01*
X132713954Y-53813276D01*
X132368538Y-53670200D01*
X131994662Y-53670200D01*
X131711777Y-53787375D01*
X133386953Y-52112199D01*
X152629760Y-52112199D01*
X152629760Y-53377200D01*
X152679043Y-53624965D01*
X152819391Y-53835009D01*
X153029435Y-53975357D01*
X153277200Y-54024640D01*
X153416001Y-54024640D01*
X153416000Y-63683959D01*
X153402068Y-63754000D01*
X153416000Y-63824041D01*
X153416000Y-63824045D01*
X153457264Y-64031495D01*
X153457265Y-64031496D01*
X153574776Y-64207364D01*
X153574778Y-64207366D01*
X153614454Y-64266745D01*
X153673834Y-64306422D01*
X154807381Y-65439970D01*
X151917400Y-65439970D01*
X151917400Y-65345062D01*
X151774324Y-64999646D01*
X151509954Y-64735276D01*
X151164538Y-64592200D01*
X150790662Y-64592200D01*
X150445246Y-64735276D01*
X150180876Y-64999646D01*
X150037800Y-65345062D01*
X150037800Y-65718938D01*
X150068221Y-65792380D01*
X147457413Y-65792380D01*
X147387371Y-65778448D01*
X147317329Y-65792380D01*
X147317326Y-65792380D01*
X147109876Y-65833644D01*
X147109875Y-65833645D01*
X147109874Y-65833645D01*
X146934007Y-65951156D01*
X146934005Y-65951158D01*
X146874626Y-65990834D01*
X146834950Y-66050213D01*
X145796000Y-67089163D01*
X145796000Y-66149878D01*
X145881524Y-66064354D01*
X146024600Y-65718938D01*
X146024600Y-65345062D01*
X145881524Y-64999646D01*
X145617154Y-64735276D01*
X145271738Y-64592200D01*
X144897862Y-64592200D01*
X144552446Y-64735276D01*
X144288076Y-64999646D01*
X144145000Y-65345062D01*
X144145000Y-65718938D01*
X144288076Y-66064354D01*
X144373601Y-66149879D01*
X144373600Y-67392354D01*
X144373600Y-67980611D01*
X137271812Y-75082400D01*
X133374240Y-75082400D01*
X133374240Y-74943600D01*
X133324957Y-74695835D01*
X133184609Y-74485791D01*
X132974565Y-74345443D01*
X132929181Y-74336416D01*
X132947425Y-74324225D01*
X133275639Y-73833018D01*
X133390892Y-73253600D01*
X133275639Y-72674182D01*
X132947425Y-72182975D01*
X132649039Y-71983600D01*
X132947425Y-71784225D01*
X133017868Y-71678800D01*
X137608922Y-71678800D01*
X137694446Y-71764324D01*
X138039862Y-71907400D01*
X138413738Y-71907400D01*
X138759154Y-71764324D01*
X139023524Y-71499954D01*
X139166600Y-71154538D01*
X139166600Y-70780662D01*
X139023524Y-70435246D01*
X139022478Y-70434200D01*
X139124938Y-70434200D01*
X139470354Y-70291124D01*
X139734724Y-70026754D01*
X139877800Y-69681338D01*
X139877800Y-69307462D01*
X139734724Y-68962046D01*
X139470354Y-68697676D01*
X139124938Y-68554600D01*
X138751062Y-68554600D01*
X138405646Y-68697676D01*
X138141276Y-68962046D01*
X137998200Y-69307462D01*
X137998200Y-69428412D01*
X137779812Y-69646800D01*
X136558678Y-69646800D01*
X136533278Y-69621400D01*
X136737524Y-69417154D01*
X136880600Y-69071738D01*
X136880600Y-68697862D01*
X136737524Y-68352446D01*
X136652000Y-68266922D01*
X136652000Y-68080278D01*
X136737524Y-67994754D01*
X136880600Y-67649338D01*
X136880600Y-67275462D01*
X136737524Y-66930046D01*
X136473154Y-66665676D01*
X136127738Y-66522600D01*
X135753862Y-66522600D01*
X135408446Y-66665676D01*
X135144076Y-66930046D01*
X135001000Y-67275462D01*
X135001000Y-67649338D01*
X135144076Y-67994754D01*
X135229601Y-68080279D01*
X135229600Y-68266922D01*
X135144076Y-68352446D01*
X135001000Y-68697862D01*
X135001000Y-69071738D01*
X135144076Y-69417154D01*
X135348322Y-69621400D01*
X135144076Y-69825646D01*
X135001000Y-70171062D01*
X135001000Y-70256400D01*
X133299950Y-70256400D01*
X133275639Y-70134182D01*
X132947425Y-69642975D01*
X132649039Y-69443600D01*
X132947425Y-69244225D01*
X133275639Y-68753018D01*
X133390892Y-68173600D01*
X133275639Y-67594182D01*
X132947425Y-67102975D01*
X132649039Y-66903600D01*
X132947425Y-66704225D01*
X133275639Y-66213018D01*
X133390892Y-65633600D01*
X133275639Y-65054182D01*
X133096621Y-64786262D01*
X137845800Y-64786262D01*
X137845800Y-65160138D01*
X137988876Y-65505554D01*
X138253246Y-65769924D01*
X138598662Y-65913000D01*
X138972538Y-65913000D01*
X139317954Y-65769924D01*
X139582324Y-65505554D01*
X139725400Y-65160138D01*
X139725400Y-65039189D01*
X140102569Y-64662020D01*
X140161945Y-64622346D01*
X140201620Y-64562969D01*
X140201624Y-64562965D01*
X140307263Y-64404865D01*
X140319136Y-64387096D01*
X140325282Y-64356196D01*
X140445924Y-64235554D01*
X140487401Y-64135420D01*
X140487400Y-67022322D01*
X140478076Y-67031646D01*
X140335000Y-67377062D01*
X140335000Y-67750938D01*
X140478076Y-68096354D01*
X140742446Y-68360724D01*
X141087862Y-68503800D01*
X141461738Y-68503800D01*
X141807154Y-68360724D01*
X141918264Y-68249614D01*
X142002076Y-68451954D01*
X142266446Y-68716324D01*
X142611862Y-68859400D01*
X142985738Y-68859400D01*
X143331154Y-68716324D01*
X143595524Y-68451954D01*
X143738600Y-68106538D01*
X143738600Y-67732662D01*
X143595524Y-67387246D01*
X143543678Y-67335400D01*
X143646324Y-67232754D01*
X143789400Y-66887338D01*
X143789400Y-66513462D01*
X143646324Y-66168046D01*
X143381954Y-65903676D01*
X143036538Y-65760600D01*
X142662662Y-65760600D01*
X142317246Y-65903676D01*
X142062200Y-66158722D01*
X142062200Y-63424222D01*
X142163800Y-63178938D01*
X142163800Y-62805062D01*
X142020724Y-62459646D01*
X141756354Y-62195276D01*
X141410938Y-62052200D01*
X141037062Y-62052200D01*
X140691646Y-62195276D01*
X140427276Y-62459646D01*
X140284200Y-62805062D01*
X140284200Y-63009122D01*
X140181554Y-62906476D01*
X139836138Y-62763400D01*
X139462262Y-62763400D01*
X139116846Y-62906476D01*
X138852476Y-63170846D01*
X138709400Y-63516262D01*
X138709400Y-63890138D01*
X138754351Y-63998660D01*
X138719611Y-64033400D01*
X138598662Y-64033400D01*
X138253246Y-64176476D01*
X137988876Y-64440846D01*
X137845800Y-64786262D01*
X133096621Y-64786262D01*
X132947425Y-64562975D01*
X132649039Y-64363600D01*
X132947425Y-64164225D01*
X133275639Y-63673018D01*
X133390892Y-63093600D01*
X133275639Y-62514182D01*
X132947425Y-62022975D01*
X132649039Y-61823600D01*
X132947425Y-61624225D01*
X133275639Y-61133018D01*
X133390892Y-60553600D01*
X133275639Y-59974182D01*
X132947425Y-59482975D01*
X132456218Y-59154761D01*
X132023056Y-59068600D01*
X131730544Y-59068600D01*
X131297382Y-59154761D01*
X130806175Y-59482975D01*
X130477961Y-59974182D01*
X130362708Y-60553600D01*
X130477961Y-61133018D01*
X130806175Y-61624225D01*
X131104561Y-61823600D01*
X130806175Y-62022975D01*
X130477961Y-62514182D01*
X130362708Y-63093600D01*
X130477961Y-63673018D01*
X130806175Y-64164225D01*
X131104561Y-64363600D01*
X130806175Y-64562975D01*
X130477961Y-65054182D01*
X130362708Y-65633600D01*
X130477961Y-66213018D01*
X130806175Y-66704225D01*
X131104561Y-66903600D01*
X130806175Y-67102975D01*
X130477961Y-67594182D01*
X130362708Y-68173600D01*
X130477961Y-68753018D01*
X130806175Y-69244225D01*
X131104561Y-69443600D01*
X130806175Y-69642975D01*
X130477961Y-70134182D01*
X130362708Y-70713600D01*
X130477961Y-71293018D01*
X130806175Y-71784225D01*
X131104561Y-71983600D01*
X130806175Y-72182975D01*
X130477961Y-72674182D01*
X130362708Y-73253600D01*
X130477961Y-73833018D01*
X130806175Y-74324225D01*
X130824419Y-74336416D01*
X130779035Y-74345443D01*
X130568991Y-74485791D01*
X130428643Y-74695835D01*
X130379360Y-74943600D01*
X130379360Y-76643600D01*
X130428643Y-76891365D01*
X130568991Y-77101409D01*
X130779035Y-77241757D01*
X131026800Y-77291040D01*
X131165600Y-77291040D01*
X131165601Y-79431954D01*
X131151668Y-79502000D01*
X131206865Y-79779496D01*
X131324376Y-79955364D01*
X131324379Y-79955367D01*
X131364055Y-80014746D01*
X131423434Y-80054422D01*
X132003800Y-80634789D01*
X132003800Y-80755738D01*
X132146876Y-81101154D01*
X132411246Y-81365524D01*
X132756662Y-81508600D01*
X133049383Y-81508600D01*
X132969000Y-81702662D01*
X132969000Y-82076538D01*
X133112076Y-82421954D01*
X133121401Y-82431279D01*
X133121399Y-88133468D01*
X133071646Y-88154076D01*
X133062322Y-88163400D01*
X128513349Y-88163400D01*
X127584200Y-87234252D01*
X127584200Y-87221065D01*
X127441124Y-86875649D01*
X127176754Y-86611279D01*
X126831338Y-86468203D01*
X126457462Y-86468203D01*
X126112046Y-86611279D01*
X125847676Y-86875649D01*
X125704600Y-87221065D01*
X125704600Y-87594941D01*
X125847676Y-87940357D01*
X126112046Y-88204727D01*
X126457462Y-88347803D01*
X126470649Y-88347803D01*
X127575583Y-89452738D01*
X127619513Y-89518484D01*
X127717409Y-89583896D01*
X127879967Y-89692514D01*
X127879968Y-89692514D01*
X127879969Y-89692515D01*
X128109645Y-89738200D01*
X128187196Y-89753626D01*
X128264747Y-89738200D01*
X132816600Y-89738200D01*
X132816601Y-94543025D01*
X132716046Y-94584676D01*
X132451676Y-94849046D01*
X132308600Y-95194462D01*
X132308600Y-95207648D01*
X131682862Y-95833387D01*
X131617116Y-95877317D01*
X131527124Y-96012000D01*
X131443085Y-96137773D01*
X131381973Y-96445001D01*
X131397400Y-96522557D01*
X131397399Y-98020448D01*
X131381973Y-98097999D01*
X131397399Y-98175550D01*
X131443084Y-98405226D01*
X131617115Y-98665683D01*
X131682864Y-98709615D01*
X134973586Y-102000338D01*
X135017516Y-102066084D01*
X135277972Y-102240115D01*
X135507648Y-102285800D01*
X135585199Y-102301226D01*
X135662750Y-102285800D01*
X156481122Y-102285800D01*
X156490446Y-102295124D01*
X156835862Y-102438200D01*
X157209738Y-102438200D01*
X157384444Y-102365834D01*
X211904980Y-102365834D01*
X211904980Y-103278046D01*
X212254068Y-104120820D01*
X212899100Y-104765852D01*
X213741874Y-105114940D01*
X214654086Y-105114940D01*
X215496860Y-104765852D01*
X216141892Y-104120820D01*
X216490980Y-103278046D01*
X216490980Y-102365834D01*
X216141892Y-101523060D01*
X215496860Y-100878028D01*
X214654086Y-100528940D01*
X213741874Y-100528940D01*
X212899100Y-100878028D01*
X212254068Y-101523060D01*
X211904980Y-102365834D01*
X157384444Y-102365834D01*
X157555154Y-102295124D01*
X157564478Y-102285800D01*
X169137249Y-102285800D01*
X169214800Y-102301226D01*
X169292351Y-102285800D01*
X169292352Y-102285800D01*
X169522028Y-102240115D01*
X169782484Y-102066084D01*
X169826416Y-102000335D01*
X169998151Y-101828600D01*
X170011338Y-101828600D01*
X170356754Y-101685524D01*
X170621124Y-101421154D01*
X170764200Y-101075738D01*
X170764200Y-100838000D01*
X181895559Y-100838000D01*
X181965600Y-100851932D01*
X182035641Y-100838000D01*
X182035646Y-100838000D01*
X182243096Y-100796736D01*
X182478346Y-100639546D01*
X182518024Y-100580164D01*
X182619624Y-100478564D01*
X184896708Y-98201480D01*
X201114408Y-98201480D01*
X201229661Y-98780898D01*
X201557875Y-99272105D01*
X202049082Y-99600319D01*
X202482244Y-99686480D01*
X202774756Y-99686480D01*
X203207918Y-99600319D01*
X203699125Y-99272105D01*
X204027339Y-98780898D01*
X204142592Y-98201480D01*
X204027339Y-97622062D01*
X203699125Y-97130855D01*
X203680881Y-97118664D01*
X203726265Y-97109637D01*
X203936309Y-96969289D01*
X204076657Y-96759245D01*
X204125940Y-96511480D01*
X204125940Y-94811480D01*
X204123247Y-94797940D01*
X208126540Y-94797940D01*
X208126540Y-96225940D01*
X208175823Y-96473705D01*
X208316171Y-96683749D01*
X208526215Y-96824097D01*
X208731838Y-96864997D01*
X208723833Y-96868313D01*
X208344353Y-97247793D01*
X208138980Y-97743607D01*
X208138980Y-98280273D01*
X208344353Y-98776087D01*
X208723833Y-99155567D01*
X209219647Y-99360940D01*
X209756313Y-99360940D01*
X210252127Y-99155567D01*
X210487980Y-98919714D01*
X210723833Y-99155567D01*
X211219647Y-99360940D01*
X211756313Y-99360940D01*
X212252127Y-99155567D01*
X212631607Y-98776087D01*
X212836980Y-98280273D01*
X212836980Y-97743607D01*
X212631607Y-97247793D01*
X212252127Y-96868313D01*
X211995320Y-96761940D01*
X212252127Y-96655567D01*
X212631607Y-96276087D01*
X212836980Y-95780273D01*
X212836980Y-95243607D01*
X212631607Y-94747793D01*
X212252127Y-94368313D01*
X211756313Y-94162940D01*
X211219647Y-94162940D01*
X210723833Y-94368313D01*
X210696730Y-94395416D01*
X210659789Y-94340131D01*
X210449745Y-94199783D01*
X210201980Y-94150500D01*
X208773980Y-94150500D01*
X208526215Y-94199783D01*
X208316171Y-94340131D01*
X208175823Y-94550175D01*
X208126540Y-94797940D01*
X204123247Y-94797940D01*
X204076657Y-94563715D01*
X203936309Y-94353671D01*
X203726265Y-94213323D01*
X203478500Y-94164040D01*
X201778500Y-94164040D01*
X201530735Y-94213323D01*
X201320691Y-94353671D01*
X201180343Y-94563715D01*
X201131060Y-94811480D01*
X201131060Y-96511480D01*
X201180343Y-96759245D01*
X201320691Y-96969289D01*
X201530735Y-97109637D01*
X201576119Y-97118664D01*
X201557875Y-97130855D01*
X201229661Y-97622062D01*
X201114408Y-98201480D01*
X184896708Y-98201480D01*
X191969369Y-91128820D01*
X192028745Y-91089146D01*
X192068420Y-91029769D01*
X192068424Y-91029765D01*
X192185935Y-90853898D01*
X192185935Y-90853897D01*
X192185936Y-90853896D01*
X192227200Y-90646446D01*
X192227200Y-90646443D01*
X192241132Y-90576401D01*
X192227200Y-90506359D01*
X192227200Y-86427062D01*
X193268600Y-86427062D01*
X193268600Y-86800938D01*
X193411676Y-87146354D01*
X193429212Y-87163890D01*
X193466685Y-87352280D01*
X193640717Y-87612736D01*
X193706463Y-87656666D01*
X197331334Y-91281538D01*
X197375264Y-91347284D01*
X197473160Y-91412696D01*
X197635718Y-91521314D01*
X197635719Y-91521314D01*
X197635720Y-91521315D01*
X197865396Y-91567000D01*
X197942947Y-91582426D01*
X198020498Y-91567000D01*
X200626322Y-91567000D01*
X200635646Y-91576324D01*
X200981062Y-91719400D01*
X201354938Y-91719400D01*
X201700354Y-91576324D01*
X201964724Y-91311954D01*
X202107800Y-90966538D01*
X202107800Y-90592662D01*
X201997277Y-90325834D01*
X211904980Y-90325834D01*
X211904980Y-91238046D01*
X212254068Y-92080820D01*
X212899100Y-92725852D01*
X213741874Y-93074940D01*
X214654086Y-93074940D01*
X215496860Y-92725852D01*
X216141892Y-92080820D01*
X216490980Y-91238046D01*
X216490980Y-90325834D01*
X216141892Y-89483060D01*
X215496860Y-88838028D01*
X214654086Y-88488940D01*
X213741874Y-88488940D01*
X212899100Y-88838028D01*
X212254068Y-89483060D01*
X211904980Y-90325834D01*
X201997277Y-90325834D01*
X201964724Y-90247246D01*
X201700354Y-89982876D01*
X201354938Y-89839800D01*
X200981062Y-89839800D01*
X200635646Y-89982876D01*
X200626322Y-89992200D01*
X198269100Y-89992200D01*
X195127591Y-86850692D01*
X195148200Y-86800938D01*
X195148200Y-86427062D01*
X195005124Y-86081646D01*
X194740754Y-85817276D01*
X194395338Y-85674200D01*
X194021462Y-85674200D01*
X193676046Y-85817276D01*
X193411676Y-86081646D01*
X193268600Y-86427062D01*
X192227200Y-86427062D01*
X192227200Y-81593078D01*
X192312724Y-81507554D01*
X192455800Y-81162138D01*
X192455800Y-81105399D01*
X192469211Y-81105399D01*
X198626675Y-87262864D01*
X198622669Y-87283001D01*
X198636601Y-87353042D01*
X198636601Y-87353047D01*
X198677865Y-87560497D01*
X198736424Y-87648136D01*
X198795377Y-87736365D01*
X198795379Y-87736367D01*
X198835056Y-87795747D01*
X198894435Y-87835423D01*
X200056778Y-88997767D01*
X200096454Y-89057146D01*
X200155833Y-89096822D01*
X200155835Y-89096824D01*
X200271536Y-89174133D01*
X200331704Y-89214336D01*
X200539154Y-89255600D01*
X200539158Y-89255600D01*
X200609200Y-89269532D01*
X200679242Y-89255600D01*
X209733959Y-89255600D01*
X209804000Y-89269532D01*
X209874041Y-89255600D01*
X209874046Y-89255600D01*
X210081496Y-89214336D01*
X210316746Y-89057146D01*
X210356424Y-88997764D01*
X212072429Y-87281759D01*
X212350144Y-87337000D01*
X212642656Y-87337000D01*
X213075818Y-87250839D01*
X213567025Y-86922625D01*
X213766400Y-86624239D01*
X213965775Y-86922625D01*
X214456982Y-87250839D01*
X214890144Y-87337000D01*
X215182656Y-87337000D01*
X215615818Y-87250839D01*
X216107025Y-86922625D01*
X216320243Y-86603522D01*
X216381217Y-86733358D01*
X216809476Y-87123645D01*
X217219510Y-87293476D01*
X217449400Y-87172155D01*
X217449400Y-85979000D01*
X217703400Y-85979000D01*
X217703400Y-87172155D01*
X217933290Y-87293476D01*
X218343324Y-87123645D01*
X218771583Y-86733358D01*
X219017886Y-86208892D01*
X218897219Y-85979000D01*
X217703400Y-85979000D01*
X217449400Y-85979000D01*
X217429400Y-85979000D01*
X217429400Y-85725000D01*
X217449400Y-85725000D01*
X217449400Y-84531845D01*
X217703400Y-84531845D01*
X217703400Y-85725000D01*
X218897219Y-85725000D01*
X219017886Y-85495108D01*
X218771583Y-84970642D01*
X218343324Y-84580355D01*
X217933290Y-84410524D01*
X217703400Y-84531845D01*
X217449400Y-84531845D01*
X217219510Y-84410524D01*
X216809476Y-84580355D01*
X216381217Y-84970642D01*
X216320243Y-85100478D01*
X216107025Y-84781375D01*
X215615818Y-84453161D01*
X215182656Y-84367000D01*
X214890144Y-84367000D01*
X214456982Y-84453161D01*
X213965775Y-84781375D01*
X213766400Y-85079761D01*
X213567025Y-84781375D01*
X213207600Y-84541215D01*
X213207600Y-80355388D01*
X215102389Y-78460600D01*
X215223338Y-78460600D01*
X215568754Y-78317524D01*
X215833124Y-78053154D01*
X215976200Y-77707738D01*
X215976200Y-77333862D01*
X215833124Y-76988446D01*
X215568754Y-76724076D01*
X215223338Y-76581000D01*
X214849462Y-76581000D01*
X214504046Y-76724076D01*
X214239676Y-76988446D01*
X214096600Y-77333862D01*
X214096600Y-77454811D01*
X212213801Y-79337611D01*
X212213801Y-69387160D01*
X212227733Y-69317118D01*
X212213801Y-69247074D01*
X212213801Y-69247073D01*
X212172537Y-69039623D01*
X212170918Y-69037200D01*
X212055025Y-68863754D01*
X212055021Y-68863750D01*
X212015346Y-68804373D01*
X211955970Y-68764699D01*
X209568505Y-66377235D01*
X209528827Y-66317853D01*
X209293577Y-66160663D01*
X209086127Y-66119399D01*
X209086122Y-66119399D01*
X209016081Y-66105467D01*
X208946040Y-66119399D01*
X202428642Y-66119399D01*
X202358600Y-66105467D01*
X202288558Y-66119399D01*
X202288555Y-66119399D01*
X202081105Y-66160663D01*
X202081104Y-66160664D01*
X202081103Y-66160664D01*
X201995594Y-66217800D01*
X201844662Y-66217800D01*
X201499246Y-66360876D01*
X201234876Y-66625246D01*
X201091800Y-66970662D01*
X201091800Y-67091611D01*
X200428912Y-67754500D01*
X193607078Y-67754500D01*
X193521554Y-67668976D01*
X193176138Y-67525900D01*
X192802262Y-67525900D01*
X192456846Y-67668976D01*
X192192476Y-67933346D01*
X192049400Y-68278762D01*
X192049400Y-68408694D01*
X187452000Y-63811294D01*
X187452000Y-62449462D01*
X189712600Y-62449462D01*
X189712600Y-62823338D01*
X189855676Y-63168754D01*
X190120046Y-63433124D01*
X190465462Y-63576200D01*
X190839338Y-63576200D01*
X191184754Y-63433124D01*
X191449124Y-63168754D01*
X191469732Y-63119001D01*
X210239850Y-63119001D01*
X220679248Y-73558400D01*
X219790249Y-74447400D01*
X217508478Y-74447400D01*
X217499154Y-74438076D01*
X217153738Y-74295000D01*
X216779862Y-74295000D01*
X216434446Y-74438076D01*
X216170076Y-74702446D01*
X216027000Y-75047862D01*
X216027000Y-75421738D01*
X216170076Y-75767154D01*
X216434446Y-76031524D01*
X216779862Y-76174600D01*
X217153738Y-76174600D01*
X217499154Y-76031524D01*
X217508478Y-76022200D01*
X220038849Y-76022200D01*
X220116400Y-76037626D01*
X220193951Y-76022200D01*
X220193952Y-76022200D01*
X220423628Y-75976515D01*
X220684084Y-75802484D01*
X220728016Y-75736735D01*
X221966552Y-74498200D01*
X221979738Y-74498200D01*
X222325154Y-74355124D01*
X222589524Y-74090754D01*
X222732600Y-73745338D01*
X222732600Y-73371462D01*
X222589524Y-73026046D01*
X222325154Y-72761676D01*
X221979738Y-72618600D01*
X221966552Y-72618600D01*
X211177617Y-61829666D01*
X211133685Y-61763917D01*
X210873229Y-61589886D01*
X210643553Y-61544201D01*
X210643552Y-61544201D01*
X210566001Y-61528775D01*
X210488450Y-61544201D01*
X191034750Y-61544201D01*
X190957199Y-61528775D01*
X190879648Y-61544201D01*
X190879647Y-61544201D01*
X190649971Y-61589886D01*
X190490262Y-61696600D01*
X190465462Y-61696600D01*
X190120046Y-61839676D01*
X189855676Y-62104046D01*
X189712600Y-62449462D01*
X187452000Y-62449462D01*
X187452000Y-62035078D01*
X187537524Y-61949554D01*
X187680600Y-61604138D01*
X187680600Y-61230262D01*
X187537524Y-60884846D01*
X187273154Y-60620476D01*
X186927738Y-60477400D01*
X186553862Y-60477400D01*
X186208446Y-60620476D01*
X185944076Y-60884846D01*
X185801000Y-61230262D01*
X185801000Y-61604138D01*
X185944076Y-61949554D01*
X186029600Y-62035078D01*
X186029601Y-64035836D01*
X186015668Y-64105882D01*
X186070865Y-64383378D01*
X186188376Y-64559246D01*
X186188379Y-64559249D01*
X186228055Y-64618628D01*
X186287434Y-64658304D01*
X197977696Y-76348567D01*
X198017372Y-76407946D01*
X198076751Y-76447622D01*
X198076753Y-76447624D01*
X198252620Y-76565135D01*
X198252621Y-76565135D01*
X198252622Y-76565136D01*
X198460072Y-76606400D01*
X198460075Y-76606400D01*
X198530117Y-76620332D01*
X198600159Y-76606400D01*
X199889722Y-76606400D01*
X199660076Y-76836046D01*
X199517000Y-77181462D01*
X199517000Y-77555338D01*
X199660076Y-77900754D01*
X199924446Y-78165124D01*
X200269862Y-78308200D01*
X200643738Y-78308200D01*
X200989154Y-78165124D01*
X201074678Y-78079600D01*
X208193159Y-78079600D01*
X208263200Y-78093532D01*
X208333241Y-78079600D01*
X208333246Y-78079600D01*
X208540696Y-78038336D01*
X208775946Y-77881146D01*
X208815624Y-77821764D01*
X210791401Y-75845987D01*
X210791402Y-84011209D01*
X210380371Y-84422241D01*
X210102656Y-84367000D01*
X209810144Y-84367000D01*
X209376982Y-84453161D01*
X208885775Y-84781375D01*
X208686400Y-85079761D01*
X208487025Y-84781375D01*
X207995818Y-84453161D01*
X207562656Y-84367000D01*
X207270144Y-84367000D01*
X206836982Y-84453161D01*
X206345775Y-84781375D01*
X206146400Y-85079761D01*
X205947025Y-84781375D01*
X205455818Y-84453161D01*
X205022656Y-84367000D01*
X204730144Y-84367000D01*
X204296982Y-84453161D01*
X203805775Y-84781375D01*
X203793584Y-84799619D01*
X203784557Y-84754235D01*
X203644209Y-84544191D01*
X203434165Y-84403843D01*
X203186400Y-84354560D01*
X201486400Y-84354560D01*
X201238635Y-84403843D01*
X201028591Y-84544191D01*
X200888243Y-84754235D01*
X200838960Y-85002000D01*
X200838960Y-86702000D01*
X200888243Y-86949765D01*
X201028591Y-87159809D01*
X201238635Y-87300157D01*
X201486400Y-87349440D01*
X203186400Y-87349440D01*
X203434165Y-87300157D01*
X203644209Y-87159809D01*
X203784557Y-86949765D01*
X203793584Y-86904381D01*
X203805775Y-86922625D01*
X204296982Y-87250839D01*
X204730144Y-87337000D01*
X205022656Y-87337000D01*
X205455818Y-87250839D01*
X205947025Y-86922625D01*
X206146400Y-86624239D01*
X206345775Y-86922625D01*
X206836982Y-87250839D01*
X207270144Y-87337000D01*
X207562656Y-87337000D01*
X207995818Y-87250839D01*
X208487025Y-86922625D01*
X208686400Y-86624239D01*
X208885775Y-86922625D01*
X209376982Y-87250839D01*
X209810144Y-87337000D01*
X210005612Y-87337000D01*
X209509412Y-87833200D01*
X200903789Y-87833200D01*
X200068927Y-86998339D01*
X200072933Y-86978201D01*
X200059001Y-86908159D01*
X200059001Y-86908155D01*
X200017737Y-86700705D01*
X199957984Y-86611279D01*
X199900225Y-86524836D01*
X199900221Y-86524832D01*
X199860546Y-86465455D01*
X199801170Y-86425781D01*
X194062051Y-80686662D01*
X205816200Y-80686662D01*
X205816200Y-81060538D01*
X205959276Y-81405954D01*
X206044800Y-81491478D01*
X206044801Y-82225954D01*
X206030868Y-82296000D01*
X206086065Y-82573496D01*
X206171800Y-82701808D01*
X206171800Y-82838538D01*
X206314876Y-83183954D01*
X206579246Y-83448324D01*
X206924662Y-83591400D01*
X207298538Y-83591400D01*
X207643954Y-83448324D01*
X207908324Y-83183954D01*
X208051400Y-82838538D01*
X208051400Y-82464662D01*
X207908324Y-82119246D01*
X207643954Y-81854876D01*
X207467200Y-81781662D01*
X207467200Y-81491478D01*
X207552724Y-81405954D01*
X207695800Y-81060538D01*
X207695800Y-80686662D01*
X207552724Y-80341246D01*
X207288354Y-80076876D01*
X206942938Y-79933800D01*
X206569062Y-79933800D01*
X206223646Y-80076876D01*
X205959276Y-80341246D01*
X205816200Y-80686662D01*
X194062051Y-80686662D01*
X193316222Y-79940834D01*
X193276545Y-79881453D01*
X193041295Y-79724263D01*
X192833845Y-79682999D01*
X192833840Y-79682999D01*
X192763799Y-79669067D01*
X192693758Y-79682999D01*
X184984906Y-79682999D01*
X182223318Y-76921412D01*
X182223318Y-74241759D01*
X182237250Y-74171717D01*
X182223318Y-74101673D01*
X182223318Y-74101672D01*
X182182054Y-73894222D01*
X182176761Y-73886300D01*
X182064542Y-73718353D01*
X182064538Y-73718349D01*
X182024863Y-73658972D01*
X181965487Y-73619298D01*
X179978024Y-71631836D01*
X179938346Y-71572454D01*
X179703096Y-71415264D01*
X179495646Y-71374000D01*
X179495641Y-71374000D01*
X179425600Y-71360068D01*
X179355559Y-71374000D01*
X177256724Y-71374000D01*
X177186682Y-71360068D01*
X177116640Y-71374000D01*
X177116636Y-71374000D01*
X176909186Y-71415264D01*
X176885372Y-71431176D01*
X176733317Y-71532776D01*
X176733315Y-71532778D01*
X176673936Y-71572454D01*
X176634260Y-71631833D01*
X172821600Y-75444494D01*
X172821600Y-74693634D01*
X176887404Y-70627830D01*
X178961176Y-70627830D01*
X179031217Y-70641762D01*
X179031218Y-70641762D01*
X179101259Y-70627830D01*
X179101264Y-70627830D01*
X179308714Y-70586566D01*
X179543964Y-70429376D01*
X179583643Y-70369993D01*
X180736189Y-69217448D01*
X180795565Y-69177774D01*
X180835240Y-69118397D01*
X180835244Y-69118393D01*
X180939712Y-68962046D01*
X180952756Y-68942524D01*
X180994020Y-68735074D01*
X180994020Y-68735070D01*
X181007952Y-68665028D01*
X180994020Y-68594986D01*
X180994020Y-68399001D01*
X183859867Y-68399001D01*
X183873799Y-68469043D01*
X183873800Y-70722953D01*
X183859867Y-70792999D01*
X183915064Y-71070495D01*
X184032575Y-71246363D01*
X184032578Y-71246366D01*
X184072254Y-71305745D01*
X184131633Y-71345421D01*
X187477400Y-74691189D01*
X187477400Y-74812138D01*
X187620476Y-75157554D01*
X187884846Y-75421924D01*
X188230262Y-75565000D01*
X188604138Y-75565000D01*
X188949554Y-75421924D01*
X189213924Y-75157554D01*
X189357000Y-74812138D01*
X189357000Y-74438262D01*
X189213924Y-74092846D01*
X188949554Y-73828476D01*
X188604138Y-73685400D01*
X188483189Y-73685400D01*
X185723833Y-70926045D01*
X185962724Y-70687154D01*
X186105800Y-70341738D01*
X186105800Y-70220788D01*
X186679789Y-69646800D01*
X187799322Y-69646800D01*
X187884846Y-69732324D01*
X188230262Y-69875400D01*
X188604138Y-69875400D01*
X188949554Y-69732324D01*
X189213924Y-69467954D01*
X189357000Y-69122538D01*
X189357000Y-68748662D01*
X189213924Y-68403246D01*
X188949554Y-68138876D01*
X188604138Y-67995800D01*
X188230262Y-67995800D01*
X187884846Y-68138876D01*
X187799322Y-68224400D01*
X186455241Y-68224400D01*
X186385199Y-68210468D01*
X186315157Y-68224400D01*
X186315154Y-68224400D01*
X186107704Y-68265664D01*
X186107703Y-68265665D01*
X186107702Y-68265665D01*
X185931835Y-68383176D01*
X185931833Y-68383178D01*
X185926008Y-68387070D01*
X186165924Y-68147154D01*
X186309000Y-67801738D01*
X186309000Y-67427862D01*
X186165924Y-67082446D01*
X185901554Y-66818076D01*
X185556138Y-66675000D01*
X185182262Y-66675000D01*
X184836846Y-66818076D01*
X184572476Y-67082446D01*
X184429400Y-67427862D01*
X184429400Y-67548812D01*
X184131632Y-67846579D01*
X184072253Y-67886256D01*
X184032577Y-67945635D01*
X184032575Y-67945637D01*
X183982086Y-68021199D01*
X183915063Y-68121506D01*
X183873799Y-68328956D01*
X183873799Y-68328960D01*
X183859867Y-68399001D01*
X180994020Y-68399001D01*
X180994020Y-67799297D01*
X181007952Y-67729255D01*
X180994020Y-67659213D01*
X180994020Y-67659209D01*
X180952756Y-67451759D01*
X180902845Y-67377062D01*
X180835244Y-67275890D01*
X180835242Y-67275888D01*
X180795566Y-67216509D01*
X180736187Y-67176833D01*
X178688788Y-65129435D01*
X178649111Y-65070054D01*
X178413861Y-64912864D01*
X178206411Y-64871600D01*
X178206406Y-64871600D01*
X178136365Y-64857668D01*
X178066324Y-64871600D01*
X175151907Y-64871600D01*
X170078400Y-59798094D01*
X170078400Y-53837985D01*
X170437825Y-53597825D01*
X170766039Y-53106618D01*
X170881292Y-52527200D01*
X170798743Y-52112199D01*
X188514248Y-52112199D01*
X193014600Y-56612552D01*
X193014600Y-56625738D01*
X193157676Y-56971154D01*
X193167001Y-56980479D01*
X193167000Y-58093848D01*
X192307449Y-58953400D01*
X192294262Y-58953400D01*
X191948846Y-59096476D01*
X191684476Y-59360846D01*
X191541400Y-59706262D01*
X191541400Y-60080138D01*
X191684476Y-60425554D01*
X191948846Y-60689924D01*
X192294262Y-60833000D01*
X192668138Y-60833000D01*
X193013554Y-60689924D01*
X193277924Y-60425554D01*
X193421000Y-60080138D01*
X193421000Y-60066951D01*
X194456338Y-59031614D01*
X194522084Y-58987684D01*
X194696115Y-58727228D01*
X194741800Y-58497552D01*
X194741800Y-58497551D01*
X194757226Y-58420001D01*
X194741800Y-58342450D01*
X194741800Y-56980478D01*
X194751124Y-56971154D01*
X194894200Y-56625738D01*
X194894200Y-56251862D01*
X194751124Y-55906446D01*
X194486754Y-55642076D01*
X194141338Y-55499000D01*
X194128152Y-55499000D01*
X189452015Y-50822864D01*
X189408083Y-50757115D01*
X189147627Y-50583084D01*
X188917951Y-50537399D01*
X188917950Y-50537399D01*
X188840399Y-50521973D01*
X188762848Y-50537399D01*
X133138351Y-50537399D01*
X133060800Y-50521973D01*
X132983249Y-50537399D01*
X132753573Y-50583084D01*
X132753572Y-50583085D01*
X132753571Y-50583085D01*
X132721628Y-50604429D01*
X132493117Y-50757115D01*
X132449187Y-50822861D01*
X128692610Y-54579439D01*
X128539365Y-54477043D01*
X128333742Y-54436143D01*
X128341747Y-54432827D01*
X128721227Y-54053347D01*
X128926600Y-53557533D01*
X128926600Y-53020867D01*
X128721227Y-52525053D01*
X128341747Y-52145573D01*
X127845933Y-51940200D01*
X127309267Y-51940200D01*
X126813453Y-52145573D01*
X126577600Y-52381426D01*
X126341747Y-52145573D01*
X125845933Y-51940200D01*
X125309267Y-51940200D01*
X124813453Y-52145573D01*
X124433973Y-52525053D01*
X124228600Y-53020867D01*
X112495000Y-53020867D01*
X112495000Y-50826632D01*
X112569027Y-49806385D01*
X112783801Y-48833587D01*
X113090868Y-48023094D01*
X120574600Y-48023094D01*
X120574600Y-48935306D01*
X120923688Y-49778080D01*
X121568720Y-50423112D01*
X122411494Y-50772200D01*
X123323706Y-50772200D01*
X124166480Y-50423112D01*
X124811512Y-49778080D01*
X125160600Y-48935306D01*
X125160600Y-48023094D01*
X124811512Y-47180320D01*
X124166480Y-46535288D01*
X123323706Y-46186200D01*
X122411494Y-46186200D01*
X121568720Y-46535288D01*
X120923688Y-47180320D01*
X120574600Y-48023094D01*
X113090868Y-48023094D01*
X113136754Y-47901982D01*
X113620495Y-47031084D01*
X114224885Y-46239143D01*
X114937267Y-45542743D01*
X115742722Y-44956471D01*
X116624373Y-44492612D01*
X117563743Y-44160885D01*
X118545274Y-43967427D01*
X119402454Y-43915000D01*
X220953368Y-43915000D01*
X221973615Y-43989027D01*
X221973615Y-43989027D01*
G37*
X221973615Y-43989027D02*
X222946413Y-44203801D01*
X223878018Y-44556754D01*
X224748916Y-45040495D01*
X225540857Y-45644885D01*
X226237257Y-46357267D01*
X226823529Y-47162722D01*
X227287388Y-48044373D01*
X227619115Y-48983743D01*
X227812573Y-49965274D01*
X227865001Y-50822471D01*
X227865000Y-99033368D01*
X227790973Y-100053615D01*
X227576199Y-101026413D01*
X227223246Y-101958018D01*
X226739507Y-102828913D01*
X226135115Y-103620858D01*
X225422729Y-104317260D01*
X224617274Y-104903530D01*
X223735628Y-105367388D01*
X222796255Y-105699115D01*
X221814727Y-105892573D01*
X220957546Y-105945000D01*
X119406632Y-105945000D01*
X118386385Y-105870973D01*
X117413587Y-105656199D01*
X116481982Y-105303246D01*
X115611087Y-104819507D01*
X114819142Y-104215115D01*
X114122740Y-103502729D01*
X113536470Y-102697274D01*
X113072612Y-101815628D01*
X112740885Y-100876255D01*
X112547427Y-99894727D01*
X112495000Y-99037546D01*
X112495000Y-60063094D01*
X120574600Y-60063094D01*
X120574600Y-60975306D01*
X120923688Y-61818080D01*
X121568720Y-62463112D01*
X122411494Y-62812200D01*
X123323706Y-62812200D01*
X124166480Y-62463112D01*
X124811512Y-61818080D01*
X125160600Y-60975306D01*
X125160600Y-60063094D01*
X124811512Y-59220320D01*
X124166480Y-58575288D01*
X123323706Y-58226200D01*
X122411494Y-58226200D01*
X121568720Y-58575288D01*
X120923688Y-59220320D01*
X120574600Y-60063094D01*
X112495000Y-60063094D01*
X112495000Y-55592976D01*
X124216241Y-55592976D01*
X124244777Y-56128883D01*
X124394960Y-56491457D01*
X124632176Y-56555019D01*
X125397995Y-55789200D01*
X124632176Y-55023381D01*
X124394960Y-55086943D01*
X124216241Y-55592976D01*
X112495000Y-55592976D01*
X112495000Y-53020867D01*
X124228600Y-53020867D01*
X124228600Y-53557533D01*
X124433973Y-54053347D01*
X124813453Y-54432827D01*
X125054112Y-54532511D01*
X124875343Y-54606560D01*
X124811781Y-54843776D01*
X125577600Y-55609595D01*
X125591743Y-55595453D01*
X125771348Y-55775058D01*
X125757205Y-55789200D01*
X125771348Y-55803343D01*
X125591743Y-55982948D01*
X125577600Y-55968805D01*
X124811781Y-56734624D01*
X124875343Y-56971840D01*
X125381376Y-57150559D01*
X125917283Y-57122023D01*
X126279857Y-56971840D01*
X126317975Y-56829584D01*
X126405791Y-56961009D01*
X126615835Y-57101357D01*
X126863600Y-57150640D01*
X128291600Y-57150640D01*
X128539365Y-57101357D01*
X128749409Y-56961009D01*
X128889757Y-56750965D01*
X128938110Y-56507875D01*
X129164084Y-56356884D01*
X129208016Y-56291135D01*
X131358975Y-54140176D01*
X131241800Y-54423062D01*
X131241800Y-54436248D01*
X130511263Y-55166786D01*
X130445517Y-55210716D01*
X130401587Y-55276462D01*
X130271486Y-55471172D01*
X130210374Y-55778400D01*
X130225801Y-55855955D01*
X130225800Y-56455922D01*
X130216476Y-56465246D01*
X130073400Y-56810662D01*
X130073400Y-57184538D01*
X130216476Y-57529954D01*
X130480846Y-57794324D01*
X130826262Y-57937400D01*
X131200138Y-57937400D01*
X131545554Y-57794324D01*
X131809924Y-57529954D01*
X131953000Y-57184538D01*
X131953000Y-56810662D01*
X131809924Y-56465246D01*
X131800600Y-56455922D01*
X131800600Y-56104551D01*
X132355352Y-55549800D01*
X132368538Y-55549800D01*
X132713954Y-55406724D01*
X132978324Y-55142354D01*
X133121400Y-54796938D01*
X133121400Y-54423062D01*
X132978324Y-54077646D01*
X132713954Y-53813276D01*
X132368538Y-53670200D01*
X131994662Y-53670200D01*
X131711777Y-53787375D01*
X133386953Y-52112199D01*
X152629760Y-52112199D01*
X152629760Y-53377200D01*
X152679043Y-53624965D01*
X152819391Y-53835009D01*
X153029435Y-53975357D01*
X153277200Y-54024640D01*
X153416001Y-54024640D01*
X153416000Y-63683959D01*
X153402068Y-63754000D01*
X153416000Y-63824041D01*
X153416000Y-63824045D01*
X153457264Y-64031495D01*
X153457265Y-64031496D01*
X153574776Y-64207364D01*
X153574778Y-64207366D01*
X153614454Y-64266745D01*
X153673834Y-64306422D01*
X154807381Y-65439970D01*
X151917400Y-65439970D01*
X151917400Y-65345062D01*
X151774324Y-64999646D01*
X151509954Y-64735276D01*
X151164538Y-64592200D01*
X150790662Y-64592200D01*
X150445246Y-64735276D01*
X150180876Y-64999646D01*
X150037800Y-65345062D01*
X150037800Y-65718938D01*
X150068221Y-65792380D01*
X147457413Y-65792380D01*
X147387371Y-65778448D01*
X147317329Y-65792380D01*
X147317326Y-65792380D01*
X147109876Y-65833644D01*
X147109875Y-65833645D01*
X147109874Y-65833645D01*
X146934007Y-65951156D01*
X146934005Y-65951158D01*
X146874626Y-65990834D01*
X146834950Y-66050213D01*
X145796000Y-67089163D01*
X145796000Y-66149878D01*
X145881524Y-66064354D01*
X146024600Y-65718938D01*
X146024600Y-65345062D01*
X145881524Y-64999646D01*
X145617154Y-64735276D01*
X145271738Y-64592200D01*
X144897862Y-64592200D01*
X144552446Y-64735276D01*
X144288076Y-64999646D01*
X144145000Y-65345062D01*
X144145000Y-65718938D01*
X144288076Y-66064354D01*
X144373601Y-66149879D01*
X144373600Y-67392354D01*
X144373600Y-67980611D01*
X137271812Y-75082400D01*
X133374240Y-75082400D01*
X133374240Y-74943600D01*
X133324957Y-74695835D01*
X133184609Y-74485791D01*
X132974565Y-74345443D01*
X132929181Y-74336416D01*
X132947425Y-74324225D01*
X133275639Y-73833018D01*
X133390892Y-73253600D01*
X133275639Y-72674182D01*
X132947425Y-72182975D01*
X132649039Y-71983600D01*
X132947425Y-71784225D01*
X133017868Y-71678800D01*
X137608922Y-71678800D01*
X137694446Y-71764324D01*
X138039862Y-71907400D01*
X138413738Y-71907400D01*
X138759154Y-71764324D01*
X139023524Y-71499954D01*
X139166600Y-71154538D01*
X139166600Y-70780662D01*
X139023524Y-70435246D01*
X139022478Y-70434200D01*
X139124938Y-70434200D01*
X139470354Y-70291124D01*
X139734724Y-70026754D01*
X139877800Y-69681338D01*
X139877800Y-69307462D01*
X139734724Y-68962046D01*
X139470354Y-68697676D01*
X139124938Y-68554600D01*
X138751062Y-68554600D01*
X138405646Y-68697676D01*
X138141276Y-68962046D01*
X137998200Y-69307462D01*
X137998200Y-69428412D01*
X137779812Y-69646800D01*
X136558678Y-69646800D01*
X136533278Y-69621400D01*
X136737524Y-69417154D01*
X136880600Y-69071738D01*
X136880600Y-68697862D01*
X136737524Y-68352446D01*
X136652000Y-68266922D01*
X136652000Y-68080278D01*
X136737524Y-67994754D01*
X136880600Y-67649338D01*
X136880600Y-67275462D01*
X136737524Y-66930046D01*
X136473154Y-66665676D01*
X136127738Y-66522600D01*
X135753862Y-66522600D01*
X135408446Y-66665676D01*
X135144076Y-66930046D01*
X135001000Y-67275462D01*
X135001000Y-67649338D01*
X135144076Y-67994754D01*
X135229601Y-68080279D01*
X135229600Y-68266922D01*
X135144076Y-68352446D01*
X135001000Y-68697862D01*
X135001000Y-69071738D01*
X135144076Y-69417154D01*
X135348322Y-69621400D01*
X135144076Y-69825646D01*
X135001000Y-70171062D01*
X135001000Y-70256400D01*
X133299950Y-70256400D01*
X133275639Y-70134182D01*
X132947425Y-69642975D01*
X132649039Y-69443600D01*
X132947425Y-69244225D01*
X133275639Y-68753018D01*
X133390892Y-68173600D01*
X133275639Y-67594182D01*
X132947425Y-67102975D01*
X132649039Y-66903600D01*
X132947425Y-66704225D01*
X133275639Y-66213018D01*
X133390892Y-65633600D01*
X133275639Y-65054182D01*
X133096621Y-64786262D01*
X137845800Y-64786262D01*
X137845800Y-65160138D01*
X137988876Y-65505554D01*
X138253246Y-65769924D01*
X138598662Y-65913000D01*
X138972538Y-65913000D01*
X139317954Y-65769924D01*
X139582324Y-65505554D01*
X139725400Y-65160138D01*
X139725400Y-65039189D01*
X140102569Y-64662020D01*
X140161945Y-64622346D01*
X140201620Y-64562969D01*
X140201624Y-64562965D01*
X140307263Y-64404865D01*
X140319136Y-64387096D01*
X140325282Y-64356196D01*
X140445924Y-64235554D01*
X140487401Y-64135420D01*
X140487400Y-67022322D01*
X140478076Y-67031646D01*
X140335000Y-67377062D01*
X140335000Y-67750938D01*
X140478076Y-68096354D01*
X140742446Y-68360724D01*
X141087862Y-68503800D01*
X141461738Y-68503800D01*
X141807154Y-68360724D01*
X141918264Y-68249614D01*
X142002076Y-68451954D01*
X142266446Y-68716324D01*
X142611862Y-68859400D01*
X142985738Y-68859400D01*
X143331154Y-68716324D01*
X143595524Y-68451954D01*
X143738600Y-68106538D01*
X143738600Y-67732662D01*
X143595524Y-67387246D01*
X143543678Y-67335400D01*
X143646324Y-67232754D01*
X143789400Y-66887338D01*
X143789400Y-66513462D01*
X143646324Y-66168046D01*
X143381954Y-65903676D01*
X143036538Y-65760600D01*
X142662662Y-65760600D01*
X142317246Y-65903676D01*
X142062200Y-66158722D01*
X142062200Y-63424222D01*
X142163800Y-63178938D01*
X142163800Y-62805062D01*
X142020724Y-62459646D01*
X141756354Y-62195276D01*
X141410938Y-62052200D01*
X141037062Y-62052200D01*
X140691646Y-62195276D01*
X140427276Y-62459646D01*
X140284200Y-62805062D01*
X140284200Y-63009122D01*
X140181554Y-62906476D01*
X139836138Y-62763400D01*
X139462262Y-62763400D01*
X139116846Y-62906476D01*
X138852476Y-63170846D01*
X138709400Y-63516262D01*
X138709400Y-63890138D01*
X138754351Y-63998660D01*
X138719611Y-64033400D01*
X138598662Y-64033400D01*
X138253246Y-64176476D01*
X137988876Y-64440846D01*
X137845800Y-64786262D01*
X133096621Y-64786262D01*
X132947425Y-64562975D01*
X132649039Y-64363600D01*
X132947425Y-64164225D01*
X133275639Y-63673018D01*
X133390892Y-63093600D01*
X133275639Y-62514182D01*
X132947425Y-62022975D01*
X132649039Y-61823600D01*
X132947425Y-61624225D01*
X133275639Y-61133018D01*
X133390892Y-60553600D01*
X133275639Y-59974182D01*
X132947425Y-59482975D01*
X132456218Y-59154761D01*
X132023056Y-59068600D01*
X131730544Y-59068600D01*
X131297382Y-59154761D01*
X130806175Y-59482975D01*
X130477961Y-59974182D01*
X130362708Y-60553600D01*
X130477961Y-61133018D01*
X130806175Y-61624225D01*
X131104561Y-61823600D01*
X130806175Y-62022975D01*
X130477961Y-62514182D01*
X130362708Y-63093600D01*
X130477961Y-63673018D01*
X130806175Y-64164225D01*
X131104561Y-64363600D01*
X130806175Y-64562975D01*
X130477961Y-65054182D01*
X130362708Y-65633600D01*
X130477961Y-66213018D01*
X130806175Y-66704225D01*
X131104561Y-66903600D01*
X130806175Y-67102975D01*
X130477961Y-67594182D01*
X130362708Y-68173600D01*
X130477961Y-68753018D01*
X130806175Y-69244225D01*
X131104561Y-69443600D01*
X130806175Y-69642975D01*
X130477961Y-70134182D01*
X130362708Y-70713600D01*
X130477961Y-71293018D01*
X130806175Y-71784225D01*
X131104561Y-71983600D01*
X130806175Y-72182975D01*
X130477961Y-72674182D01*
X130362708Y-73253600D01*
X130477961Y-73833018D01*
X130806175Y-74324225D01*
X130824419Y-74336416D01*
X130779035Y-74345443D01*
X130568991Y-74485791D01*
X130428643Y-74695835D01*
X130379360Y-74943600D01*
X130379360Y-76643600D01*
X130428643Y-76891365D01*
X130568991Y-77101409D01*
X130779035Y-77241757D01*
X131026800Y-77291040D01*
X131165600Y-77291040D01*
X131165601Y-79431954D01*
X131151668Y-79502000D01*
X131206865Y-79779496D01*
X131324376Y-79955364D01*
X131324379Y-79955367D01*
X131364055Y-80014746D01*
X131423434Y-80054422D01*
X132003800Y-80634789D01*
X132003800Y-80755738D01*
X132146876Y-81101154D01*
X132411246Y-81365524D01*
X132756662Y-81508600D01*
X133049383Y-81508600D01*
X132969000Y-81702662D01*
X132969000Y-82076538D01*
X133112076Y-82421954D01*
X133121401Y-82431279D01*
X133121399Y-88133468D01*
X133071646Y-88154076D01*
X133062322Y-88163400D01*
X128513349Y-88163400D01*
X127584200Y-87234252D01*
X127584200Y-87221065D01*
X127441124Y-86875649D01*
X127176754Y-86611279D01*
X126831338Y-86468203D01*
X126457462Y-86468203D01*
X126112046Y-86611279D01*
X125847676Y-86875649D01*
X125704600Y-87221065D01*
X125704600Y-87594941D01*
X125847676Y-87940357D01*
X126112046Y-88204727D01*
X126457462Y-88347803D01*
X126470649Y-88347803D01*
X127575583Y-89452738D01*
X127619513Y-89518484D01*
X127717409Y-89583896D01*
X127879967Y-89692514D01*
X127879968Y-89692514D01*
X127879969Y-89692515D01*
X128109645Y-89738200D01*
X128187196Y-89753626D01*
X128264747Y-89738200D01*
X132816600Y-89738200D01*
X132816601Y-94543025D01*
X132716046Y-94584676D01*
X132451676Y-94849046D01*
X132308600Y-95194462D01*
X132308600Y-95207648D01*
X131682862Y-95833387D01*
X131617116Y-95877317D01*
X131527124Y-96012000D01*
X131443085Y-96137773D01*
X131381973Y-96445001D01*
X131397400Y-96522557D01*
X131397399Y-98020448D01*
X131381973Y-98097999D01*
X131397399Y-98175550D01*
X131443084Y-98405226D01*
X131617115Y-98665683D01*
X131682864Y-98709615D01*
X134973586Y-102000338D01*
X135017516Y-102066084D01*
X135277972Y-102240115D01*
X135507648Y-102285800D01*
X135585199Y-102301226D01*
X135662750Y-102285800D01*
X156481122Y-102285800D01*
X156490446Y-102295124D01*
X156835862Y-102438200D01*
X157209738Y-102438200D01*
X157384444Y-102365834D01*
X211904980Y-102365834D01*
X211904980Y-103278046D01*
X212254068Y-104120820D01*
X212899100Y-104765852D01*
X213741874Y-105114940D01*
X214654086Y-105114940D01*
X215496860Y-104765852D01*
X216141892Y-104120820D01*
X216490980Y-103278046D01*
X216490980Y-102365834D01*
X216141892Y-101523060D01*
X215496860Y-100878028D01*
X214654086Y-100528940D01*
X213741874Y-100528940D01*
X212899100Y-100878028D01*
X212254068Y-101523060D01*
X211904980Y-102365834D01*
X157384444Y-102365834D01*
X157555154Y-102295124D01*
X157564478Y-102285800D01*
X169137249Y-102285800D01*
X169214800Y-102301226D01*
X169292351Y-102285800D01*
X169292352Y-102285800D01*
X169522028Y-102240115D01*
X169782484Y-102066084D01*
X169826416Y-102000335D01*
X169998151Y-101828600D01*
X170011338Y-101828600D01*
X170356754Y-101685524D01*
X170621124Y-101421154D01*
X170764200Y-101075738D01*
X170764200Y-100838000D01*
X181895559Y-100838000D01*
X181965600Y-100851932D01*
X182035641Y-100838000D01*
X182035646Y-100838000D01*
X182243096Y-100796736D01*
X182478346Y-100639546D01*
X182518024Y-100580164D01*
X182619624Y-100478564D01*
X184896708Y-98201480D01*
X201114408Y-98201480D01*
X201229661Y-98780898D01*
X201557875Y-99272105D01*
X202049082Y-99600319D01*
X202482244Y-99686480D01*
X202774756Y-99686480D01*
X203207918Y-99600319D01*
X203699125Y-99272105D01*
X204027339Y-98780898D01*
X204142592Y-98201480D01*
X204027339Y-97622062D01*
X203699125Y-97130855D01*
X203680881Y-97118664D01*
X203726265Y-97109637D01*
X203936309Y-96969289D01*
X204076657Y-96759245D01*
X204125940Y-96511480D01*
X204125940Y-94811480D01*
X204123247Y-94797940D01*
X208126540Y-94797940D01*
X208126540Y-96225940D01*
X208175823Y-96473705D01*
X208316171Y-96683749D01*
X208526215Y-96824097D01*
X208731838Y-96864997D01*
X208723833Y-96868313D01*
X208344353Y-97247793D01*
X208138980Y-97743607D01*
X208138980Y-98280273D01*
X208344353Y-98776087D01*
X208723833Y-99155567D01*
X209219647Y-99360940D01*
X209756313Y-99360940D01*
X210252127Y-99155567D01*
X210487980Y-98919714D01*
X210723833Y-99155567D01*
X211219647Y-99360940D01*
X211756313Y-99360940D01*
X212252127Y-99155567D01*
X212631607Y-98776087D01*
X212836980Y-98280273D01*
X212836980Y-97743607D01*
X212631607Y-97247793D01*
X212252127Y-96868313D01*
X211995320Y-96761940D01*
X212252127Y-96655567D01*
X212631607Y-96276087D01*
X212836980Y-95780273D01*
X212836980Y-95243607D01*
X212631607Y-94747793D01*
X212252127Y-94368313D01*
X211756313Y-94162940D01*
X211219647Y-94162940D01*
X210723833Y-94368313D01*
X210696730Y-94395416D01*
X210659789Y-94340131D01*
X210449745Y-94199783D01*
X210201980Y-94150500D01*
X208773980Y-94150500D01*
X208526215Y-94199783D01*
X208316171Y-94340131D01*
X208175823Y-94550175D01*
X208126540Y-94797940D01*
X204123247Y-94797940D01*
X204076657Y-94563715D01*
X203936309Y-94353671D01*
X203726265Y-94213323D01*
X203478500Y-94164040D01*
X201778500Y-94164040D01*
X201530735Y-94213323D01*
X201320691Y-94353671D01*
X201180343Y-94563715D01*
X201131060Y-94811480D01*
X201131060Y-96511480D01*
X201180343Y-96759245D01*
X201320691Y-96969289D01*
X201530735Y-97109637D01*
X201576119Y-97118664D01*
X201557875Y-97130855D01*
X201229661Y-97622062D01*
X201114408Y-98201480D01*
X184896708Y-98201480D01*
X191969369Y-91128820D01*
X192028745Y-91089146D01*
X192068420Y-91029769D01*
X192068424Y-91029765D01*
X192185935Y-90853898D01*
X192185935Y-90853897D01*
X192185936Y-90853896D01*
X192227200Y-90646446D01*
X192227200Y-90646443D01*
X192241132Y-90576401D01*
X192227200Y-90506359D01*
X192227200Y-86427062D01*
X193268600Y-86427062D01*
X193268600Y-86800938D01*
X193411676Y-87146354D01*
X193429212Y-87163890D01*
X193466685Y-87352280D01*
X193640717Y-87612736D01*
X193706463Y-87656666D01*
X197331334Y-91281538D01*
X197375264Y-91347284D01*
X197473160Y-91412696D01*
X197635718Y-91521314D01*
X197635719Y-91521314D01*
X197635720Y-91521315D01*
X197865396Y-91567000D01*
X197942947Y-91582426D01*
X198020498Y-91567000D01*
X200626322Y-91567000D01*
X200635646Y-91576324D01*
X200981062Y-91719400D01*
X201354938Y-91719400D01*
X201700354Y-91576324D01*
X201964724Y-91311954D01*
X202107800Y-90966538D01*
X202107800Y-90592662D01*
X201997277Y-90325834D01*
X211904980Y-90325834D01*
X211904980Y-91238046D01*
X212254068Y-92080820D01*
X212899100Y-92725852D01*
X213741874Y-93074940D01*
X214654086Y-93074940D01*
X215496860Y-92725852D01*
X216141892Y-92080820D01*
X216490980Y-91238046D01*
X216490980Y-90325834D01*
X216141892Y-89483060D01*
X215496860Y-88838028D01*
X214654086Y-88488940D01*
X213741874Y-88488940D01*
X212899100Y-88838028D01*
X212254068Y-89483060D01*
X211904980Y-90325834D01*
X201997277Y-90325834D01*
X201964724Y-90247246D01*
X201700354Y-89982876D01*
X201354938Y-89839800D01*
X200981062Y-89839800D01*
X200635646Y-89982876D01*
X200626322Y-89992200D01*
X198269100Y-89992200D01*
X195127591Y-86850692D01*
X195148200Y-86800938D01*
X195148200Y-86427062D01*
X195005124Y-86081646D01*
X194740754Y-85817276D01*
X194395338Y-85674200D01*
X194021462Y-85674200D01*
X193676046Y-85817276D01*
X193411676Y-86081646D01*
X193268600Y-86427062D01*
X192227200Y-86427062D01*
X192227200Y-81593078D01*
X192312724Y-81507554D01*
X192455800Y-81162138D01*
X192455800Y-81105399D01*
X192469211Y-81105399D01*
X198626675Y-87262864D01*
X198622669Y-87283001D01*
X198636601Y-87353042D01*
X198636601Y-87353047D01*
X198677865Y-87560497D01*
X198736424Y-87648136D01*
X198795377Y-87736365D01*
X198795379Y-87736367D01*
X198835056Y-87795747D01*
X198894435Y-87835423D01*
X200056778Y-88997767D01*
X200096454Y-89057146D01*
X200155833Y-89096822D01*
X200155835Y-89096824D01*
X200271536Y-89174133D01*
X200331704Y-89214336D01*
X200539154Y-89255600D01*
X200539158Y-89255600D01*
X200609200Y-89269532D01*
X200679242Y-89255600D01*
X209733959Y-89255600D01*
X209804000Y-89269532D01*
X209874041Y-89255600D01*
X209874046Y-89255600D01*
X210081496Y-89214336D01*
X210316746Y-89057146D01*
X210356424Y-88997764D01*
X212072429Y-87281759D01*
X212350144Y-87337000D01*
X212642656Y-87337000D01*
X213075818Y-87250839D01*
X213567025Y-86922625D01*
X213766400Y-86624239D01*
X213965775Y-86922625D01*
X214456982Y-87250839D01*
X214890144Y-87337000D01*
X215182656Y-87337000D01*
X215615818Y-87250839D01*
X216107025Y-86922625D01*
X216320243Y-86603522D01*
X216381217Y-86733358D01*
X216809476Y-87123645D01*
X217219510Y-87293476D01*
X217449400Y-87172155D01*
X217449400Y-85979000D01*
X217703400Y-85979000D01*
X217703400Y-87172155D01*
X217933290Y-87293476D01*
X218343324Y-87123645D01*
X218771583Y-86733358D01*
X219017886Y-86208892D01*
X218897219Y-85979000D01*
X217703400Y-85979000D01*
X217449400Y-85979000D01*
X217429400Y-85979000D01*
X217429400Y-85725000D01*
X217449400Y-85725000D01*
X217449400Y-84531845D01*
X217703400Y-84531845D01*
X217703400Y-85725000D01*
X218897219Y-85725000D01*
X219017886Y-85495108D01*
X218771583Y-84970642D01*
X218343324Y-84580355D01*
X217933290Y-84410524D01*
X217703400Y-84531845D01*
X217449400Y-84531845D01*
X217219510Y-84410524D01*
X216809476Y-84580355D01*
X216381217Y-84970642D01*
X216320243Y-85100478D01*
X216107025Y-84781375D01*
X215615818Y-84453161D01*
X215182656Y-84367000D01*
X214890144Y-84367000D01*
X214456982Y-84453161D01*
X213965775Y-84781375D01*
X213766400Y-85079761D01*
X213567025Y-84781375D01*
X213207600Y-84541215D01*
X213207600Y-80355388D01*
X215102389Y-78460600D01*
X215223338Y-78460600D01*
X215568754Y-78317524D01*
X215833124Y-78053154D01*
X215976200Y-77707738D01*
X215976200Y-77333862D01*
X215833124Y-76988446D01*
X215568754Y-76724076D01*
X215223338Y-76581000D01*
X214849462Y-76581000D01*
X214504046Y-76724076D01*
X214239676Y-76988446D01*
X214096600Y-77333862D01*
X214096600Y-77454811D01*
X212213801Y-79337611D01*
X212213801Y-69387160D01*
X212227733Y-69317118D01*
X212213801Y-69247074D01*
X212213801Y-69247073D01*
X212172537Y-69039623D01*
X212170918Y-69037200D01*
X212055025Y-68863754D01*
X212055021Y-68863750D01*
X212015346Y-68804373D01*
X211955970Y-68764699D01*
X209568505Y-66377235D01*
X209528827Y-66317853D01*
X209293577Y-66160663D01*
X209086127Y-66119399D01*
X209086122Y-66119399D01*
X209016081Y-66105467D01*
X208946040Y-66119399D01*
X202428642Y-66119399D01*
X202358600Y-66105467D01*
X202288558Y-66119399D01*
X202288555Y-66119399D01*
X202081105Y-66160663D01*
X202081104Y-66160664D01*
X202081103Y-66160664D01*
X201995594Y-66217800D01*
X201844662Y-66217800D01*
X201499246Y-66360876D01*
X201234876Y-66625246D01*
X201091800Y-66970662D01*
X201091800Y-67091611D01*
X200428912Y-67754500D01*
X193607078Y-67754500D01*
X193521554Y-67668976D01*
X193176138Y-67525900D01*
X192802262Y-67525900D01*
X192456846Y-67668976D01*
X192192476Y-67933346D01*
X192049400Y-68278762D01*
X192049400Y-68408694D01*
X187452000Y-63811294D01*
X187452000Y-62449462D01*
X189712600Y-62449462D01*
X189712600Y-62823338D01*
X189855676Y-63168754D01*
X190120046Y-63433124D01*
X190465462Y-63576200D01*
X190839338Y-63576200D01*
X191184754Y-63433124D01*
X191449124Y-63168754D01*
X191469732Y-63119001D01*
X210239850Y-63119001D01*
X220679248Y-73558400D01*
X219790249Y-74447400D01*
X217508478Y-74447400D01*
X217499154Y-74438076D01*
X217153738Y-74295000D01*
X216779862Y-74295000D01*
X216434446Y-74438076D01*
X216170076Y-74702446D01*
X216027000Y-75047862D01*
X216027000Y-75421738D01*
X216170076Y-75767154D01*
X216434446Y-76031524D01*
X216779862Y-76174600D01*
X217153738Y-76174600D01*
X217499154Y-76031524D01*
X217508478Y-76022200D01*
X220038849Y-76022200D01*
X220116400Y-76037626D01*
X220193951Y-76022200D01*
X220193952Y-76022200D01*
X220423628Y-75976515D01*
X220684084Y-75802484D01*
X220728016Y-75736735D01*
X221966552Y-74498200D01*
X221979738Y-74498200D01*
X222325154Y-74355124D01*
X222589524Y-74090754D01*
X222732600Y-73745338D01*
X222732600Y-73371462D01*
X222589524Y-73026046D01*
X222325154Y-72761676D01*
X221979738Y-72618600D01*
X221966552Y-72618600D01*
X211177617Y-61829666D01*
X211133685Y-61763917D01*
X210873229Y-61589886D01*
X210643553Y-61544201D01*
X210643552Y-61544201D01*
X210566001Y-61528775D01*
X210488450Y-61544201D01*
X191034750Y-61544201D01*
X190957199Y-61528775D01*
X190879648Y-61544201D01*
X190879647Y-61544201D01*
X190649971Y-61589886D01*
X190490262Y-61696600D01*
X190465462Y-61696600D01*
X190120046Y-61839676D01*
X189855676Y-62104046D01*
X189712600Y-62449462D01*
X187452000Y-62449462D01*
X187452000Y-62035078D01*
X187537524Y-61949554D01*
X187680600Y-61604138D01*
X187680600Y-61230262D01*
X187537524Y-60884846D01*
X187273154Y-60620476D01*
X186927738Y-60477400D01*
X186553862Y-60477400D01*
X186208446Y-60620476D01*
X185944076Y-60884846D01*
X185801000Y-61230262D01*
X185801000Y-61604138D01*
X185944076Y-61949554D01*
X186029600Y-62035078D01*
X186029601Y-64035836D01*
X186015668Y-64105882D01*
X186070865Y-64383378D01*
X186188376Y-64559246D01*
X186188379Y-64559249D01*
X186228055Y-64618628D01*
X186287434Y-64658304D01*
X197977696Y-76348567D01*
X198017372Y-76407946D01*
X198076751Y-76447622D01*
X198076753Y-76447624D01*
X198252620Y-76565135D01*
X198252621Y-76565135D01*
X198252622Y-76565136D01*
X198460072Y-76606400D01*
X198460075Y-76606400D01*
X198530117Y-76620332D01*
X198600159Y-76606400D01*
X199889722Y-76606400D01*
X199660076Y-76836046D01*
X199517000Y-77181462D01*
X199517000Y-77555338D01*
X199660076Y-77900754D01*
X199924446Y-78165124D01*
X200269862Y-78308200D01*
X200643738Y-78308200D01*
X200989154Y-78165124D01*
X201074678Y-78079600D01*
X208193159Y-78079600D01*
X208263200Y-78093532D01*
X208333241Y-78079600D01*
X208333246Y-78079600D01*
X208540696Y-78038336D01*
X208775946Y-77881146D01*
X208815624Y-77821764D01*
X210791401Y-75845987D01*
X210791402Y-84011209D01*
X210380371Y-84422241D01*
X210102656Y-84367000D01*
X209810144Y-84367000D01*
X209376982Y-84453161D01*
X208885775Y-84781375D01*
X208686400Y-85079761D01*
X208487025Y-84781375D01*
X207995818Y-84453161D01*
X207562656Y-84367000D01*
X207270144Y-84367000D01*
X206836982Y-84453161D01*
X206345775Y-84781375D01*
X206146400Y-85079761D01*
X205947025Y-84781375D01*
X205455818Y-84453161D01*
X205022656Y-84367000D01*
X204730144Y-84367000D01*
X204296982Y-84453161D01*
X203805775Y-84781375D01*
X203793584Y-84799619D01*
X203784557Y-84754235D01*
X203644209Y-84544191D01*
X203434165Y-84403843D01*
X203186400Y-84354560D01*
X201486400Y-84354560D01*
X201238635Y-84403843D01*
X201028591Y-84544191D01*
X200888243Y-84754235D01*
X200838960Y-85002000D01*
X200838960Y-86702000D01*
X200888243Y-86949765D01*
X201028591Y-87159809D01*
X201238635Y-87300157D01*
X201486400Y-87349440D01*
X203186400Y-87349440D01*
X203434165Y-87300157D01*
X203644209Y-87159809D01*
X203784557Y-86949765D01*
X203793584Y-86904381D01*
X203805775Y-86922625D01*
X204296982Y-87250839D01*
X204730144Y-87337000D01*
X205022656Y-87337000D01*
X205455818Y-87250839D01*
X205947025Y-86922625D01*
X206146400Y-86624239D01*
X206345775Y-86922625D01*
X206836982Y-87250839D01*
X207270144Y-87337000D01*
X207562656Y-87337000D01*
X207995818Y-87250839D01*
X208487025Y-86922625D01*
X208686400Y-86624239D01*
X208885775Y-86922625D01*
X209376982Y-87250839D01*
X209810144Y-87337000D01*
X210005612Y-87337000D01*
X209509412Y-87833200D01*
X200903789Y-87833200D01*
X200068927Y-86998339D01*
X200072933Y-86978201D01*
X200059001Y-86908159D01*
X200059001Y-86908155D01*
X200017737Y-86700705D01*
X199957984Y-86611279D01*
X199900225Y-86524836D01*
X199900221Y-86524832D01*
X199860546Y-86465455D01*
X199801170Y-86425781D01*
X194062051Y-80686662D01*
X205816200Y-80686662D01*
X205816200Y-81060538D01*
X205959276Y-81405954D01*
X206044800Y-81491478D01*
X206044801Y-82225954D01*
X206030868Y-82296000D01*
X206086065Y-82573496D01*
X206171800Y-82701808D01*
X206171800Y-82838538D01*
X206314876Y-83183954D01*
X206579246Y-83448324D01*
X206924662Y-83591400D01*
X207298538Y-83591400D01*
X207643954Y-83448324D01*
X207908324Y-83183954D01*
X208051400Y-82838538D01*
X208051400Y-82464662D01*
X207908324Y-82119246D01*
X207643954Y-81854876D01*
X207467200Y-81781662D01*
X207467200Y-81491478D01*
X207552724Y-81405954D01*
X207695800Y-81060538D01*
X207695800Y-80686662D01*
X207552724Y-80341246D01*
X207288354Y-80076876D01*
X206942938Y-79933800D01*
X206569062Y-79933800D01*
X206223646Y-80076876D01*
X205959276Y-80341246D01*
X205816200Y-80686662D01*
X194062051Y-80686662D01*
X193316222Y-79940834D01*
X193276545Y-79881453D01*
X193041295Y-79724263D01*
X192833845Y-79682999D01*
X192833840Y-79682999D01*
X192763799Y-79669067D01*
X192693758Y-79682999D01*
X184984906Y-79682999D01*
X182223318Y-76921412D01*
X182223318Y-74241759D01*
X182237250Y-74171717D01*
X182223318Y-74101673D01*
X182223318Y-74101672D01*
X182182054Y-73894222D01*
X182176761Y-73886300D01*
X182064542Y-73718353D01*
X182064538Y-73718349D01*
X182024863Y-73658972D01*
X181965487Y-73619298D01*
X179978024Y-71631836D01*
X179938346Y-71572454D01*
X179703096Y-71415264D01*
X179495646Y-71374000D01*
X179495641Y-71374000D01*
X179425600Y-71360068D01*
X179355559Y-71374000D01*
X177256724Y-71374000D01*
X177186682Y-71360068D01*
X177116640Y-71374000D01*
X177116636Y-71374000D01*
X176909186Y-71415264D01*
X176885372Y-71431176D01*
X176733317Y-71532776D01*
X176733315Y-71532778D01*
X176673936Y-71572454D01*
X176634260Y-71631833D01*
X172821600Y-75444494D01*
X172821600Y-74693634D01*
X176887404Y-70627830D01*
X178961176Y-70627830D01*
X179031217Y-70641762D01*
X179031218Y-70641762D01*
X179101259Y-70627830D01*
X179101264Y-70627830D01*
X179308714Y-70586566D01*
X179543964Y-70429376D01*
X179583643Y-70369993D01*
X180736189Y-69217448D01*
X180795565Y-69177774D01*
X180835240Y-69118397D01*
X180835244Y-69118393D01*
X180939712Y-68962046D01*
X180952756Y-68942524D01*
X180994020Y-68735074D01*
X180994020Y-68735070D01*
X181007952Y-68665028D01*
X180994020Y-68594986D01*
X180994020Y-68399001D01*
X183859867Y-68399001D01*
X183873799Y-68469043D01*
X183873800Y-70722953D01*
X183859867Y-70792999D01*
X183915064Y-71070495D01*
X184032575Y-71246363D01*
X184032578Y-71246366D01*
X184072254Y-71305745D01*
X184131633Y-71345421D01*
X187477400Y-74691189D01*
X187477400Y-74812138D01*
X187620476Y-75157554D01*
X187884846Y-75421924D01*
X188230262Y-75565000D01*
X188604138Y-75565000D01*
X188949554Y-75421924D01*
X189213924Y-75157554D01*
X189357000Y-74812138D01*
X189357000Y-74438262D01*
X189213924Y-74092846D01*
X188949554Y-73828476D01*
X188604138Y-73685400D01*
X188483189Y-73685400D01*
X185723833Y-70926045D01*
X185962724Y-70687154D01*
X186105800Y-70341738D01*
X186105800Y-70220788D01*
X186679789Y-69646800D01*
X187799322Y-69646800D01*
X187884846Y-69732324D01*
X188230262Y-69875400D01*
X188604138Y-69875400D01*
X188949554Y-69732324D01*
X189213924Y-69467954D01*
X189357000Y-69122538D01*
X189357000Y-68748662D01*
X189213924Y-68403246D01*
X188949554Y-68138876D01*
X188604138Y-67995800D01*
X188230262Y-67995800D01*
X187884846Y-68138876D01*
X187799322Y-68224400D01*
X186455241Y-68224400D01*
X186385199Y-68210468D01*
X186315157Y-68224400D01*
X186315154Y-68224400D01*
X186107704Y-68265664D01*
X186107703Y-68265665D01*
X186107702Y-68265665D01*
X185931835Y-68383176D01*
X185931833Y-68383178D01*
X185926008Y-68387070D01*
X186165924Y-68147154D01*
X186309000Y-67801738D01*
X186309000Y-67427862D01*
X186165924Y-67082446D01*
X185901554Y-66818076D01*
X185556138Y-66675000D01*
X185182262Y-66675000D01*
X184836846Y-66818076D01*
X184572476Y-67082446D01*
X184429400Y-67427862D01*
X184429400Y-67548812D01*
X184131632Y-67846579D01*
X184072253Y-67886256D01*
X184032577Y-67945635D01*
X184032575Y-67945637D01*
X183982086Y-68021199D01*
X183915063Y-68121506D01*
X183873799Y-68328956D01*
X183873799Y-68328960D01*
X183859867Y-68399001D01*
X180994020Y-68399001D01*
X180994020Y-67799297D01*
X181007952Y-67729255D01*
X180994020Y-67659213D01*
X180994020Y-67659209D01*
X180952756Y-67451759D01*
X180902845Y-67377062D01*
X180835244Y-67275890D01*
X180835242Y-67275888D01*
X180795566Y-67216509D01*
X180736187Y-67176833D01*
X178688788Y-65129435D01*
X178649111Y-65070054D01*
X178413861Y-64912864D01*
X178206411Y-64871600D01*
X178206406Y-64871600D01*
X178136365Y-64857668D01*
X178066324Y-64871600D01*
X175151907Y-64871600D01*
X170078400Y-59798094D01*
X170078400Y-53837985D01*
X170437825Y-53597825D01*
X170766039Y-53106618D01*
X170881292Y-52527200D01*
X170798743Y-52112199D01*
X188514248Y-52112199D01*
X193014600Y-56612552D01*
X193014600Y-56625738D01*
X193157676Y-56971154D01*
X193167001Y-56980479D01*
X193167000Y-58093848D01*
X192307449Y-58953400D01*
X192294262Y-58953400D01*
X191948846Y-59096476D01*
X191684476Y-59360846D01*
X191541400Y-59706262D01*
X191541400Y-60080138D01*
X191684476Y-60425554D01*
X191948846Y-60689924D01*
X192294262Y-60833000D01*
X192668138Y-60833000D01*
X193013554Y-60689924D01*
X193277924Y-60425554D01*
X193421000Y-60080138D01*
X193421000Y-60066951D01*
X194456338Y-59031614D01*
X194522084Y-58987684D01*
X194696115Y-58727228D01*
X194741800Y-58497552D01*
X194741800Y-58497551D01*
X194757226Y-58420001D01*
X194741800Y-58342450D01*
X194741800Y-56980478D01*
X194751124Y-56971154D01*
X194894200Y-56625738D01*
X194894200Y-56251862D01*
X194751124Y-55906446D01*
X194486754Y-55642076D01*
X194141338Y-55499000D01*
X194128152Y-55499000D01*
X189452015Y-50822864D01*
X189408083Y-50757115D01*
X189147627Y-50583084D01*
X188917951Y-50537399D01*
X188917950Y-50537399D01*
X188840399Y-50521973D01*
X188762848Y-50537399D01*
X133138351Y-50537399D01*
X133060800Y-50521973D01*
X132983249Y-50537399D01*
X132753573Y-50583084D01*
X132753572Y-50583085D01*
X132753571Y-50583085D01*
X132721628Y-50604429D01*
X132493117Y-50757115D01*
X132449187Y-50822861D01*
X128692610Y-54579439D01*
X128539365Y-54477043D01*
X128333742Y-54436143D01*
X128341747Y-54432827D01*
X128721227Y-54053347D01*
X128926600Y-53557533D01*
X128926600Y-53020867D01*
X128721227Y-52525053D01*
X128341747Y-52145573D01*
X127845933Y-51940200D01*
X127309267Y-51940200D01*
X126813453Y-52145573D01*
X126577600Y-52381426D01*
X126341747Y-52145573D01*
X125845933Y-51940200D01*
X125309267Y-51940200D01*
X124813453Y-52145573D01*
X124433973Y-52525053D01*
X124228600Y-53020867D01*
X112495000Y-53020867D01*
X112495000Y-50826632D01*
X112569027Y-49806385D01*
X112783801Y-48833587D01*
X113090868Y-48023094D01*
X120574600Y-48023094D01*
X120574600Y-48935306D01*
X120923688Y-49778080D01*
X121568720Y-50423112D01*
X122411494Y-50772200D01*
X123323706Y-50772200D01*
X124166480Y-50423112D01*
X124811512Y-49778080D01*
X125160600Y-48935306D01*
X125160600Y-48023094D01*
X124811512Y-47180320D01*
X124166480Y-46535288D01*
X123323706Y-46186200D01*
X122411494Y-46186200D01*
X121568720Y-46535288D01*
X120923688Y-47180320D01*
X120574600Y-48023094D01*
X113090868Y-48023094D01*
X113136754Y-47901982D01*
X113620495Y-47031084D01*
X114224885Y-46239143D01*
X114937267Y-45542743D01*
X115742722Y-44956471D01*
X116624373Y-44492612D01*
X117563743Y-44160885D01*
X118545274Y-43967427D01*
X119402454Y-43915000D01*
X220953368Y-43915000D01*
X221973615Y-43989027D01*
G36*
X146227800Y-70036938D02*
X146370876Y-70382354D01*
X146456401Y-70467879D01*
X146456400Y-71060922D01*
X146370876Y-71146446D01*
X146227800Y-71491862D01*
X146227800Y-71865738D01*
X146370876Y-72211154D01*
X146635246Y-72475524D01*
X146980662Y-72618600D01*
X147354538Y-72618600D01*
X147699954Y-72475524D01*
X147964324Y-72211154D01*
X148107400Y-71865738D01*
X148107400Y-71491862D01*
X147964324Y-71146446D01*
X147878800Y-71060922D01*
X147878800Y-70467878D01*
X147964324Y-70382354D01*
X148003499Y-70287777D01*
X148097590Y-70381868D01*
X148123264Y-70510943D01*
X148126311Y-70515503D01*
X148240776Y-70686812D01*
X148240778Y-70686814D01*
X148280454Y-70746193D01*
X148339834Y-70785870D01*
X149549551Y-71995588D01*
X149589227Y-72054967D01*
X149648606Y-72094643D01*
X149648608Y-72094645D01*
X149762469Y-72170724D01*
X149824477Y-72212157D01*
X150031927Y-72253421D01*
X150031931Y-72253421D01*
X150101973Y-72267353D01*
X150172015Y-72253421D01*
X154000833Y-72253421D01*
X154330401Y-72582990D01*
X154330400Y-76867306D01*
X154316468Y-76937348D01*
X154330400Y-77007389D01*
X154330400Y-77007393D01*
X154371664Y-77214843D01*
X154390108Y-77242446D01*
X154489176Y-77390712D01*
X154489178Y-77390714D01*
X154528854Y-77450093D01*
X154588234Y-77489770D01*
X156185972Y-79087508D01*
X156133800Y-79213462D01*
X156133800Y-79587338D01*
X156137188Y-79595518D01*
X153924000Y-77382330D01*
X153924000Y-76677478D01*
X154009524Y-76591954D01*
X154152600Y-76246538D01*
X154152600Y-75872662D01*
X154009524Y-75527246D01*
X153745154Y-75262876D01*
X153399738Y-75119800D01*
X153364762Y-75119800D01*
X153492200Y-74812138D01*
X153492200Y-74438262D01*
X153349124Y-74092846D01*
X153084754Y-73828476D01*
X152739338Y-73685400D01*
X152365462Y-73685400D01*
X152020046Y-73828476D01*
X151755676Y-74092846D01*
X151612600Y-74438262D01*
X151612600Y-74451448D01*
X149580600Y-76483449D01*
X149580600Y-76317862D01*
X149437524Y-75972446D01*
X149173154Y-75708076D01*
X148827738Y-75565000D01*
X148453862Y-75565000D01*
X148108446Y-75708076D01*
X148022922Y-75793600D01*
X146192189Y-75793600D01*
X145462623Y-75064035D01*
X145422945Y-75004653D01*
X145187695Y-74847463D01*
X144980245Y-74806199D01*
X144980240Y-74806199D01*
X144910199Y-74792267D01*
X144840158Y-74806199D01*
X143097960Y-74806199D01*
X143027918Y-74792267D01*
X142957876Y-74806199D01*
X142957873Y-74806199D01*
X142750423Y-74847463D01*
X142750422Y-74847464D01*
X142750421Y-74847464D01*
X142574554Y-74964975D01*
X142574552Y-74964977D01*
X142515173Y-75004653D01*
X142475497Y-75064032D01*
X141358033Y-76181497D01*
X141298654Y-76221173D01*
X141258978Y-76280552D01*
X141258975Y-76280555D01*
X141141464Y-76456423D01*
X141086267Y-76733919D01*
X141100200Y-76803965D01*
X141100199Y-84414306D01*
X141086267Y-84484347D01*
X141100199Y-84554388D01*
X141100199Y-84554392D01*
X141141463Y-84761842D01*
X141175315Y-84812505D01*
X141258975Y-84937711D01*
X141258977Y-84937713D01*
X141298653Y-84997092D01*
X141358033Y-85036769D01*
X141712228Y-85390964D01*
X141751906Y-85450346D01*
X141987156Y-85607536D01*
X142194606Y-85648800D01*
X142194610Y-85648800D01*
X142264652Y-85662732D01*
X142334694Y-85648800D01*
X144438330Y-85648800D01*
X148390519Y-89600990D01*
X148390518Y-89973293D01*
X148099524Y-90264288D01*
X148062757Y-90271601D01*
X148062753Y-90271601D01*
X147855303Y-90312865D01*
X147803019Y-90347800D01*
X147641062Y-90347800D01*
X147295646Y-90490876D01*
X147031276Y-90755246D01*
X146888200Y-91100662D01*
X146888200Y-91474538D01*
X147031276Y-91819954D01*
X147117767Y-91906445D01*
X143564634Y-95459578D01*
X143505255Y-95499254D01*
X143465579Y-95558633D01*
X143465576Y-95558636D01*
X143348065Y-95734504D01*
X143292868Y-96012000D01*
X143306801Y-96082046D01*
X143306800Y-97495215D01*
X142947375Y-97735375D01*
X142748000Y-98033761D01*
X142548625Y-97735375D01*
X142189200Y-97495215D01*
X142189200Y-93766588D01*
X145760389Y-90195400D01*
X145881338Y-90195400D01*
X146226754Y-90052324D01*
X146491124Y-89787954D01*
X146634200Y-89442538D01*
X146634200Y-89068662D01*
X146491124Y-88723246D01*
X146226754Y-88458876D01*
X145881338Y-88315800D01*
X145507462Y-88315800D01*
X145162046Y-88458876D01*
X144897676Y-88723246D01*
X144754600Y-89068662D01*
X144754600Y-89189611D01*
X141024634Y-92919578D01*
X140965254Y-92959255D01*
X140925578Y-93018634D01*
X140925576Y-93018636D01*
X140887955Y-93074940D01*
X140808064Y-93194505D01*
X140766800Y-93401955D01*
X140766800Y-93401959D01*
X140752868Y-93472000D01*
X140766800Y-93542042D01*
X140766801Y-97495214D01*
X140411200Y-97732819D01*
X140411200Y-85657078D01*
X140496724Y-85571554D01*
X140639800Y-85226138D01*
X140639800Y-84852262D01*
X140496724Y-84506846D01*
X140232354Y-84242476D01*
X139886938Y-84099400D01*
X139513062Y-84099400D01*
X139167646Y-84242476D01*
X138903276Y-84506846D01*
X138760200Y-84852262D01*
X138760200Y-85226138D01*
X138903276Y-85571554D01*
X138988800Y-85657078D01*
X138988801Y-97308560D01*
X138088000Y-97308560D01*
X137840235Y-97357843D01*
X137630191Y-97498191D01*
X137489843Y-97708235D01*
X137440560Y-97956000D01*
X137440560Y-99656000D01*
X137489843Y-99903765D01*
X137630191Y-100113809D01*
X137840235Y-100254157D01*
X138088000Y-100303440D01*
X139788000Y-100303440D01*
X140035765Y-100254157D01*
X140245809Y-100113809D01*
X140386157Y-99903765D01*
X140395184Y-99858381D01*
X140407375Y-99876625D01*
X140898582Y-100204839D01*
X141331744Y-100291000D01*
X141624256Y-100291000D01*
X142057418Y-100204839D01*
X142548625Y-99876625D01*
X142748000Y-99578239D01*
X142947375Y-99876625D01*
X143438582Y-100204839D01*
X143871744Y-100291000D01*
X144164256Y-100291000D01*
X144597418Y-100204839D01*
X145088625Y-99876625D01*
X145288000Y-99578239D01*
X145487375Y-99876625D01*
X145978582Y-100204839D01*
X146411744Y-100291000D01*
X146704256Y-100291000D01*
X147137418Y-100204839D01*
X147628625Y-99876625D01*
X147828000Y-99578239D01*
X148027375Y-99876625D01*
X148518582Y-100204839D01*
X148951744Y-100291000D01*
X149244256Y-100291000D01*
X149677418Y-100204839D01*
X150168625Y-99876625D01*
X150368000Y-99578239D01*
X150567375Y-99876625D01*
X151058582Y-100204839D01*
X151491744Y-100291000D01*
X151784256Y-100291000D01*
X152217418Y-100204839D01*
X152708625Y-99876625D01*
X152908000Y-99578239D01*
X153107375Y-99876625D01*
X153598582Y-100204839D01*
X154031744Y-100291000D01*
X154324256Y-100291000D01*
X154757418Y-100204839D01*
X155248625Y-99876625D01*
X155576839Y-99385418D01*
X155692092Y-98806000D01*
X155625558Y-98471510D01*
X155860461Y-98706413D01*
X155860464Y-98706415D01*
X156235401Y-99081352D01*
X156235401Y-99127921D01*
X156226076Y-99137246D01*
X156083000Y-99482662D01*
X156083000Y-99856538D01*
X156226076Y-100201954D01*
X156235401Y-100211279D01*
X156235400Y-100711000D01*
X135911352Y-100711000D01*
X133504515Y-98304163D01*
X133631259Y-98177419D01*
X133634164Y-98180324D01*
X133979580Y-98323400D01*
X134353456Y-98323400D01*
X134698872Y-98180324D01*
X134963242Y-97915954D01*
X135080461Y-97632962D01*
X135398262Y-97764600D01*
X135772138Y-97764600D01*
X136117554Y-97621524D01*
X136381924Y-97357154D01*
X136525000Y-97011738D01*
X136525000Y-96637862D01*
X136381924Y-96292446D01*
X136296400Y-96206922D01*
X136296400Y-81501864D01*
X136312662Y-81508600D01*
X136686538Y-81508600D01*
X137031954Y-81365524D01*
X137296324Y-81101154D01*
X137439400Y-80755738D01*
X137439400Y-80381862D01*
X137296324Y-80036446D01*
X137031954Y-79772076D01*
X136686538Y-79629000D01*
X136312662Y-79629000D01*
X136296400Y-79635736D01*
X136296400Y-79597106D01*
X146227800Y-69665707D01*
X146227800Y-70036938D01*
X146227800Y-70036938D01*
G37*
X146227800Y-70036938D02*
X146370876Y-70382354D01*
X146456401Y-70467879D01*
X146456400Y-71060922D01*
X146370876Y-71146446D01*
X146227800Y-71491862D01*
X146227800Y-71865738D01*
X146370876Y-72211154D01*
X146635246Y-72475524D01*
X146980662Y-72618600D01*
X147354538Y-72618600D01*
X147699954Y-72475524D01*
X147964324Y-72211154D01*
X148107400Y-71865738D01*
X148107400Y-71491862D01*
X147964324Y-71146446D01*
X147878800Y-71060922D01*
X147878800Y-70467878D01*
X147964324Y-70382354D01*
X148003499Y-70287777D01*
X148097590Y-70381868D01*
X148123264Y-70510943D01*
X148126311Y-70515503D01*
X148240776Y-70686812D01*
X148240778Y-70686814D01*
X148280454Y-70746193D01*
X148339834Y-70785870D01*
X149549551Y-71995588D01*
X149589227Y-72054967D01*
X149648606Y-72094643D01*
X149648608Y-72094645D01*
X149762469Y-72170724D01*
X149824477Y-72212157D01*
X150031927Y-72253421D01*
X150031931Y-72253421D01*
X150101973Y-72267353D01*
X150172015Y-72253421D01*
X154000833Y-72253421D01*
X154330401Y-72582990D01*
X154330400Y-76867306D01*
X154316468Y-76937348D01*
X154330400Y-77007389D01*
X154330400Y-77007393D01*
X154371664Y-77214843D01*
X154390108Y-77242446D01*
X154489176Y-77390712D01*
X154489178Y-77390714D01*
X154528854Y-77450093D01*
X154588234Y-77489770D01*
X156185972Y-79087508D01*
X156133800Y-79213462D01*
X156133800Y-79587338D01*
X156137188Y-79595518D01*
X153924000Y-77382330D01*
X153924000Y-76677478D01*
X154009524Y-76591954D01*
X154152600Y-76246538D01*
X154152600Y-75872662D01*
X154009524Y-75527246D01*
X153745154Y-75262876D01*
X153399738Y-75119800D01*
X153364762Y-75119800D01*
X153492200Y-74812138D01*
X153492200Y-74438262D01*
X153349124Y-74092846D01*
X153084754Y-73828476D01*
X152739338Y-73685400D01*
X152365462Y-73685400D01*
X152020046Y-73828476D01*
X151755676Y-74092846D01*
X151612600Y-74438262D01*
X151612600Y-74451448D01*
X149580600Y-76483449D01*
X149580600Y-76317862D01*
X149437524Y-75972446D01*
X149173154Y-75708076D01*
X148827738Y-75565000D01*
X148453862Y-75565000D01*
X148108446Y-75708076D01*
X148022922Y-75793600D01*
X146192189Y-75793600D01*
X145462623Y-75064035D01*
X145422945Y-75004653D01*
X145187695Y-74847463D01*
X144980245Y-74806199D01*
X144980240Y-74806199D01*
X144910199Y-74792267D01*
X144840158Y-74806199D01*
X143097960Y-74806199D01*
X143027918Y-74792267D01*
X142957876Y-74806199D01*
X142957873Y-74806199D01*
X142750423Y-74847463D01*
X142750422Y-74847464D01*
X142750421Y-74847464D01*
X142574554Y-74964975D01*
X142574552Y-74964977D01*
X142515173Y-75004653D01*
X142475497Y-75064032D01*
X141358033Y-76181497D01*
X141298654Y-76221173D01*
X141258978Y-76280552D01*
X141258975Y-76280555D01*
X141141464Y-76456423D01*
X141086267Y-76733919D01*
X141100200Y-76803965D01*
X141100199Y-84414306D01*
X141086267Y-84484347D01*
X141100199Y-84554388D01*
X141100199Y-84554392D01*
X141141463Y-84761842D01*
X141175315Y-84812505D01*
X141258975Y-84937711D01*
X141258977Y-84937713D01*
X141298653Y-84997092D01*
X141358033Y-85036769D01*
X141712228Y-85390964D01*
X141751906Y-85450346D01*
X141987156Y-85607536D01*
X142194606Y-85648800D01*
X142194610Y-85648800D01*
X142264652Y-85662732D01*
X142334694Y-85648800D01*
X144438330Y-85648800D01*
X148390519Y-89600990D01*
X148390518Y-89973293D01*
X148099524Y-90264288D01*
X148062757Y-90271601D01*
X148062753Y-90271601D01*
X147855303Y-90312865D01*
X147803019Y-90347800D01*
X147641062Y-90347800D01*
X147295646Y-90490876D01*
X147031276Y-90755246D01*
X146888200Y-91100662D01*
X146888200Y-91474538D01*
X147031276Y-91819954D01*
X147117767Y-91906445D01*
X143564634Y-95459578D01*
X143505255Y-95499254D01*
X143465579Y-95558633D01*
X143465576Y-95558636D01*
X143348065Y-95734504D01*
X143292868Y-96012000D01*
X143306801Y-96082046D01*
X143306800Y-97495215D01*
X142947375Y-97735375D01*
X142748000Y-98033761D01*
X142548625Y-97735375D01*
X142189200Y-97495215D01*
X142189200Y-93766588D01*
X145760389Y-90195400D01*
X145881338Y-90195400D01*
X146226754Y-90052324D01*
X146491124Y-89787954D01*
X146634200Y-89442538D01*
X146634200Y-89068662D01*
X146491124Y-88723246D01*
X146226754Y-88458876D01*
X145881338Y-88315800D01*
X145507462Y-88315800D01*
X145162046Y-88458876D01*
X144897676Y-88723246D01*
X144754600Y-89068662D01*
X144754600Y-89189611D01*
X141024634Y-92919578D01*
X140965254Y-92959255D01*
X140925578Y-93018634D01*
X140925576Y-93018636D01*
X140887955Y-93074940D01*
X140808064Y-93194505D01*
X140766800Y-93401955D01*
X140766800Y-93401959D01*
X140752868Y-93472000D01*
X140766800Y-93542042D01*
X140766801Y-97495214D01*
X140411200Y-97732819D01*
X140411200Y-85657078D01*
X140496724Y-85571554D01*
X140639800Y-85226138D01*
X140639800Y-84852262D01*
X140496724Y-84506846D01*
X140232354Y-84242476D01*
X139886938Y-84099400D01*
X139513062Y-84099400D01*
X139167646Y-84242476D01*
X138903276Y-84506846D01*
X138760200Y-84852262D01*
X138760200Y-85226138D01*
X138903276Y-85571554D01*
X138988800Y-85657078D01*
X138988801Y-97308560D01*
X138088000Y-97308560D01*
X137840235Y-97357843D01*
X137630191Y-97498191D01*
X137489843Y-97708235D01*
X137440560Y-97956000D01*
X137440560Y-99656000D01*
X137489843Y-99903765D01*
X137630191Y-100113809D01*
X137840235Y-100254157D01*
X138088000Y-100303440D01*
X139788000Y-100303440D01*
X140035765Y-100254157D01*
X140245809Y-100113809D01*
X140386157Y-99903765D01*
X140395184Y-99858381D01*
X140407375Y-99876625D01*
X140898582Y-100204839D01*
X141331744Y-100291000D01*
X141624256Y-100291000D01*
X142057418Y-100204839D01*
X142548625Y-99876625D01*
X142748000Y-99578239D01*
X142947375Y-99876625D01*
X143438582Y-100204839D01*
X143871744Y-100291000D01*
X144164256Y-100291000D01*
X144597418Y-100204839D01*
X145088625Y-99876625D01*
X145288000Y-99578239D01*
X145487375Y-99876625D01*
X145978582Y-100204839D01*
X146411744Y-100291000D01*
X146704256Y-100291000D01*
X147137418Y-100204839D01*
X147628625Y-99876625D01*
X147828000Y-99578239D01*
X148027375Y-99876625D01*
X148518582Y-100204839D01*
X148951744Y-100291000D01*
X149244256Y-100291000D01*
X149677418Y-100204839D01*
X150168625Y-99876625D01*
X150368000Y-99578239D01*
X150567375Y-99876625D01*
X151058582Y-100204839D01*
X151491744Y-100291000D01*
X151784256Y-100291000D01*
X152217418Y-100204839D01*
X152708625Y-99876625D01*
X152908000Y-99578239D01*
X153107375Y-99876625D01*
X153598582Y-100204839D01*
X154031744Y-100291000D01*
X154324256Y-100291000D01*
X154757418Y-100204839D01*
X155248625Y-99876625D01*
X155576839Y-99385418D01*
X155692092Y-98806000D01*
X155625558Y-98471510D01*
X155860461Y-98706413D01*
X155860464Y-98706415D01*
X156235401Y-99081352D01*
X156235401Y-99127921D01*
X156226076Y-99137246D01*
X156083000Y-99482662D01*
X156083000Y-99856538D01*
X156226076Y-100201954D01*
X156235401Y-100211279D01*
X156235400Y-100711000D01*
X135911352Y-100711000D01*
X133504515Y-98304163D01*
X133631259Y-98177419D01*
X133634164Y-98180324D01*
X133979580Y-98323400D01*
X134353456Y-98323400D01*
X134698872Y-98180324D01*
X134963242Y-97915954D01*
X135080461Y-97632962D01*
X135398262Y-97764600D01*
X135772138Y-97764600D01*
X136117554Y-97621524D01*
X136381924Y-97357154D01*
X136525000Y-97011738D01*
X136525000Y-96637862D01*
X136381924Y-96292446D01*
X136296400Y-96206922D01*
X136296400Y-81501864D01*
X136312662Y-81508600D01*
X136686538Y-81508600D01*
X137031954Y-81365524D01*
X137296324Y-81101154D01*
X137439400Y-80755738D01*
X137439400Y-80381862D01*
X137296324Y-80036446D01*
X137031954Y-79772076D01*
X136686538Y-79629000D01*
X136312662Y-79629000D01*
X136296400Y-79635736D01*
X136296400Y-79597106D01*
X146227800Y-69665707D01*
X146227800Y-70036938D01*
G36*
X156742861Y-96182768D02*
X156782537Y-96242147D01*
X156841916Y-96281823D01*
X156841918Y-96281825D01*
X156853126Y-96289314D01*
X160684230Y-100120419D01*
X160003408Y-100120419D01*
X150564824Y-90681836D01*
X150525146Y-90622454D01*
X150494235Y-90601800D01*
X150554938Y-90601800D01*
X150900354Y-90458724D01*
X150959586Y-90399492D01*
X156742861Y-96182768D01*
X156742861Y-96182768D01*
G37*
X156742861Y-96182768D02*
X156782537Y-96242147D01*
X156841916Y-96281823D01*
X156841918Y-96281825D01*
X156853126Y-96289314D01*
X160684230Y-100120419D01*
X160003408Y-100120419D01*
X150564824Y-90681836D01*
X150525146Y-90622454D01*
X150494235Y-90601800D01*
X150554938Y-90601800D01*
X150900354Y-90458724D01*
X150959586Y-90399492D01*
X156742861Y-96182768D01*
G36*
X142695658Y-76894938D02*
X142754376Y-76982816D01*
X142754378Y-76982818D01*
X142794055Y-77042198D01*
X142853434Y-77081874D01*
X156242526Y-90470967D01*
X156282202Y-90530346D01*
X156341581Y-90570022D01*
X156341583Y-90570024D01*
X156455955Y-90646445D01*
X156517452Y-90687536D01*
X156724902Y-90728800D01*
X156724906Y-90728800D01*
X156794948Y-90742732D01*
X156864990Y-90728800D01*
X160843012Y-90728800D01*
X162716235Y-92602024D01*
X162716238Y-92602026D01*
X163988778Y-93874567D01*
X164028454Y-93933946D01*
X164087833Y-93973622D01*
X164087835Y-93973624D01*
X164263702Y-94091135D01*
X164263703Y-94091135D01*
X164263704Y-94091136D01*
X164471154Y-94132400D01*
X164471157Y-94132400D01*
X164541199Y-94146332D01*
X164611241Y-94132400D01*
X166615722Y-94132400D01*
X166752046Y-94268724D01*
X167097462Y-94411800D01*
X167471338Y-94411800D01*
X167816754Y-94268724D01*
X167953078Y-94132400D01*
X170291812Y-94132400D01*
X171373800Y-95214389D01*
X171373800Y-95335338D01*
X171516876Y-95680754D01*
X171679567Y-95843445D01*
X169301212Y-98221800D01*
X169180262Y-98221800D01*
X168834846Y-98364876D01*
X168570476Y-98629246D01*
X168427400Y-98974662D01*
X168427400Y-99348538D01*
X168455178Y-99415600D01*
X165023800Y-99415600D01*
X165023800Y-99076262D01*
X164880724Y-98730846D01*
X164616354Y-98466476D01*
X164270938Y-98323400D01*
X163897062Y-98323400D01*
X163551646Y-98466476D01*
X163287276Y-98730846D01*
X163150936Y-99060000D01*
X162133771Y-99060000D01*
X157997400Y-94923630D01*
X157997398Y-94923627D01*
X156943033Y-93869262D01*
X158545400Y-93869262D01*
X158545400Y-94243138D01*
X158688476Y-94588554D01*
X158952846Y-94852924D01*
X159298262Y-94996000D01*
X159672138Y-94996000D01*
X160017554Y-94852924D01*
X160028250Y-94842228D01*
X160251028Y-94797915D01*
X160511484Y-94623884D01*
X160555416Y-94558135D01*
X161463752Y-93649800D01*
X161476938Y-93649800D01*
X161822354Y-93506724D01*
X162086724Y-93242354D01*
X162229800Y-92896938D01*
X162229800Y-92523062D01*
X162086724Y-92177646D01*
X161822354Y-91913276D01*
X161476938Y-91770200D01*
X161103062Y-91770200D01*
X160757646Y-91913276D01*
X160493276Y-92177646D01*
X160350200Y-92523062D01*
X160350200Y-92536248D01*
X159741371Y-93145077D01*
X159672138Y-93116400D01*
X159298262Y-93116400D01*
X158952846Y-93259476D01*
X158688476Y-93523846D01*
X158545400Y-93869262D01*
X156943033Y-93869262D01*
X155870473Y-92796703D01*
X155830796Y-92737322D01*
X155760212Y-92690159D01*
X153783958Y-90713906D01*
X153783956Y-90713903D01*
X150913758Y-87843706D01*
X150913756Y-87843703D01*
X148945600Y-85875548D01*
X148945600Y-85707878D01*
X149031124Y-85622354D01*
X149174200Y-85276938D01*
X149174200Y-84903062D01*
X149031124Y-84557646D01*
X148766754Y-84293276D01*
X148421338Y-84150200D01*
X148047462Y-84150200D01*
X147702046Y-84293276D01*
X147437676Y-84557646D01*
X147347359Y-84775689D01*
X146446305Y-83874635D01*
X146406627Y-83815253D01*
X146171377Y-83658063D01*
X145963927Y-83616799D01*
X145963922Y-83616799D01*
X145893881Y-83602867D01*
X145823840Y-83616799D01*
X143241295Y-83616799D01*
X143189124Y-83490846D01*
X142924754Y-83226476D01*
X142579338Y-83083400D01*
X142522599Y-83083400D01*
X142522599Y-77028507D01*
X142679840Y-76871266D01*
X142695658Y-76894938D01*
X142695658Y-76894938D01*
G37*
X142695658Y-76894938D02*
X142754376Y-76982816D01*
X142754378Y-76982818D01*
X142794055Y-77042198D01*
X142853434Y-77081874D01*
X156242526Y-90470967D01*
X156282202Y-90530346D01*
X156341581Y-90570022D01*
X156341583Y-90570024D01*
X156455955Y-90646445D01*
X156517452Y-90687536D01*
X156724902Y-90728800D01*
X156724906Y-90728800D01*
X156794948Y-90742732D01*
X156864990Y-90728800D01*
X160843012Y-90728800D01*
X162716235Y-92602024D01*
X162716238Y-92602026D01*
X163988778Y-93874567D01*
X164028454Y-93933946D01*
X164087833Y-93973622D01*
X164087835Y-93973624D01*
X164263702Y-94091135D01*
X164263703Y-94091135D01*
X164263704Y-94091136D01*
X164471154Y-94132400D01*
X164471157Y-94132400D01*
X164541199Y-94146332D01*
X164611241Y-94132400D01*
X166615722Y-94132400D01*
X166752046Y-94268724D01*
X167097462Y-94411800D01*
X167471338Y-94411800D01*
X167816754Y-94268724D01*
X167953078Y-94132400D01*
X170291812Y-94132400D01*
X171373800Y-95214389D01*
X171373800Y-95335338D01*
X171516876Y-95680754D01*
X171679567Y-95843445D01*
X169301212Y-98221800D01*
X169180262Y-98221800D01*
X168834846Y-98364876D01*
X168570476Y-98629246D01*
X168427400Y-98974662D01*
X168427400Y-99348538D01*
X168455178Y-99415600D01*
X165023800Y-99415600D01*
X165023800Y-99076262D01*
X164880724Y-98730846D01*
X164616354Y-98466476D01*
X164270938Y-98323400D01*
X163897062Y-98323400D01*
X163551646Y-98466476D01*
X163287276Y-98730846D01*
X163150936Y-99060000D01*
X162133771Y-99060000D01*
X157997400Y-94923630D01*
X157997398Y-94923627D01*
X156943033Y-93869262D01*
X158545400Y-93869262D01*
X158545400Y-94243138D01*
X158688476Y-94588554D01*
X158952846Y-94852924D01*
X159298262Y-94996000D01*
X159672138Y-94996000D01*
X160017554Y-94852924D01*
X160028250Y-94842228D01*
X160251028Y-94797915D01*
X160511484Y-94623884D01*
X160555416Y-94558135D01*
X161463752Y-93649800D01*
X161476938Y-93649800D01*
X161822354Y-93506724D01*
X162086724Y-93242354D01*
X162229800Y-92896938D01*
X162229800Y-92523062D01*
X162086724Y-92177646D01*
X161822354Y-91913276D01*
X161476938Y-91770200D01*
X161103062Y-91770200D01*
X160757646Y-91913276D01*
X160493276Y-92177646D01*
X160350200Y-92523062D01*
X160350200Y-92536248D01*
X159741371Y-93145077D01*
X159672138Y-93116400D01*
X159298262Y-93116400D01*
X158952846Y-93259476D01*
X158688476Y-93523846D01*
X158545400Y-93869262D01*
X156943033Y-93869262D01*
X155870473Y-92796703D01*
X155830796Y-92737322D01*
X155760212Y-92690159D01*
X153783958Y-90713906D01*
X153783956Y-90713903D01*
X150913758Y-87843706D01*
X150913756Y-87843703D01*
X148945600Y-85875548D01*
X148945600Y-85707878D01*
X149031124Y-85622354D01*
X149174200Y-85276938D01*
X149174200Y-84903062D01*
X149031124Y-84557646D01*
X148766754Y-84293276D01*
X148421338Y-84150200D01*
X148047462Y-84150200D01*
X147702046Y-84293276D01*
X147437676Y-84557646D01*
X147347359Y-84775689D01*
X146446305Y-83874635D01*
X146406627Y-83815253D01*
X146171377Y-83658063D01*
X145963927Y-83616799D01*
X145963922Y-83616799D01*
X145893881Y-83602867D01*
X145823840Y-83616799D01*
X143241295Y-83616799D01*
X143189124Y-83490846D01*
X142924754Y-83226476D01*
X142579338Y-83083400D01*
X142522599Y-83083400D01*
X142522599Y-77028507D01*
X142679840Y-76871266D01*
X142695658Y-76894938D01*
G36*
X190576200Y-81162138D02*
X190719276Y-81507554D01*
X190804801Y-81593079D01*
X190804800Y-90281811D01*
X181671012Y-99415600D01*
X170279222Y-99415600D01*
X170307000Y-99348538D01*
X170307000Y-99227588D01*
X176780167Y-92754422D01*
X176839546Y-92714746D01*
X176879222Y-92655367D01*
X176879224Y-92655365D01*
X176981055Y-92502964D01*
X176996736Y-92479496D01*
X177038000Y-92272046D01*
X177038000Y-92272042D01*
X177051932Y-92202000D01*
X177038000Y-92131958D01*
X177038000Y-91598738D01*
X177206662Y-91668600D01*
X177580538Y-91668600D01*
X177925954Y-91525524D01*
X178190324Y-91261154D01*
X178333400Y-90915738D01*
X178333400Y-90902551D01*
X180310552Y-88925400D01*
X180476138Y-88925400D01*
X180821554Y-88782324D01*
X180830878Y-88773000D01*
X184433449Y-88773000D01*
X184581800Y-88921351D01*
X184581800Y-88934538D01*
X184724876Y-89279954D01*
X184989246Y-89544324D01*
X185334662Y-89687400D01*
X185708538Y-89687400D01*
X185786570Y-89655078D01*
X179455049Y-95986600D01*
X179441862Y-95986600D01*
X179096446Y-96129676D01*
X178832076Y-96394046D01*
X178689000Y-96739462D01*
X178689000Y-97113338D01*
X178832076Y-97458754D01*
X179096446Y-97723124D01*
X179441862Y-97866200D01*
X179815738Y-97866200D01*
X180161154Y-97723124D01*
X180425524Y-97458754D01*
X180568600Y-97113338D01*
X180568600Y-97100151D01*
X187493539Y-90175213D01*
X187559285Y-90131283D01*
X187733316Y-89870827D01*
X187779001Y-89641151D01*
X187794427Y-89563600D01*
X187779001Y-89486049D01*
X187779001Y-83429693D01*
X187794427Y-83352142D01*
X187769430Y-83226476D01*
X187733316Y-83044915D01*
X187559285Y-82784459D01*
X187493539Y-82740529D01*
X186752001Y-81998992D01*
X186708069Y-81933243D01*
X186447613Y-81759212D01*
X186217937Y-81713527D01*
X186217936Y-81713527D01*
X186140385Y-81698101D01*
X186093854Y-81707357D01*
X185491896Y-81105399D01*
X190576200Y-81105399D01*
X190576200Y-81162138D01*
X190576200Y-81162138D01*
G37*
X190576200Y-81162138D02*
X190719276Y-81507554D01*
X190804801Y-81593079D01*
X190804800Y-90281811D01*
X181671012Y-99415600D01*
X170279222Y-99415600D01*
X170307000Y-99348538D01*
X170307000Y-99227588D01*
X176780167Y-92754422D01*
X176839546Y-92714746D01*
X176879222Y-92655367D01*
X176879224Y-92655365D01*
X176981055Y-92502964D01*
X176996736Y-92479496D01*
X177038000Y-92272046D01*
X177038000Y-92272042D01*
X177051932Y-92202000D01*
X177038000Y-92131958D01*
X177038000Y-91598738D01*
X177206662Y-91668600D01*
X177580538Y-91668600D01*
X177925954Y-91525524D01*
X178190324Y-91261154D01*
X178333400Y-90915738D01*
X178333400Y-90902551D01*
X180310552Y-88925400D01*
X180476138Y-88925400D01*
X180821554Y-88782324D01*
X180830878Y-88773000D01*
X184433449Y-88773000D01*
X184581800Y-88921351D01*
X184581800Y-88934538D01*
X184724876Y-89279954D01*
X184989246Y-89544324D01*
X185334662Y-89687400D01*
X185708538Y-89687400D01*
X185786570Y-89655078D01*
X179455049Y-95986600D01*
X179441862Y-95986600D01*
X179096446Y-96129676D01*
X178832076Y-96394046D01*
X178689000Y-96739462D01*
X178689000Y-97113338D01*
X178832076Y-97458754D01*
X179096446Y-97723124D01*
X179441862Y-97866200D01*
X179815738Y-97866200D01*
X180161154Y-97723124D01*
X180425524Y-97458754D01*
X180568600Y-97113338D01*
X180568600Y-97100151D01*
X187493539Y-90175213D01*
X187559285Y-90131283D01*
X187733316Y-89870827D01*
X187779001Y-89641151D01*
X187794427Y-89563600D01*
X187779001Y-89486049D01*
X187779001Y-83429693D01*
X187794427Y-83352142D01*
X187769430Y-83226476D01*
X187733316Y-83044915D01*
X187559285Y-82784459D01*
X187493539Y-82740529D01*
X186752001Y-81998992D01*
X186708069Y-81933243D01*
X186447613Y-81759212D01*
X186217937Y-81713527D01*
X186217936Y-81713527D01*
X186140385Y-81698101D01*
X186093854Y-81707357D01*
X185491896Y-81105399D01*
X190576200Y-81105399D01*
X190576200Y-81162138D01*
G36*
X153371261Y-96217213D02*
X153371264Y-96217215D01*
X154512491Y-97358442D01*
X154324256Y-97321000D01*
X154031744Y-97321000D01*
X153598582Y-97407161D01*
X153107375Y-97735375D01*
X152908000Y-98033761D01*
X152708625Y-97735375D01*
X152217418Y-97407161D01*
X151784256Y-97321000D01*
X151491744Y-97321000D01*
X151058582Y-97407161D01*
X150567375Y-97735375D01*
X150368000Y-98033761D01*
X150168625Y-97735375D01*
X149677418Y-97407161D01*
X149244256Y-97321000D01*
X148951744Y-97321000D01*
X148518582Y-97407161D01*
X148027375Y-97735375D01*
X147828000Y-98033761D01*
X147628625Y-97735375D01*
X147269200Y-97495215D01*
X147269200Y-94264970D01*
X147802831Y-93731339D01*
X147894876Y-93953554D01*
X148159246Y-94217924D01*
X148504662Y-94361000D01*
X148878538Y-94361000D01*
X149223954Y-94217924D01*
X149488324Y-93953554D01*
X149631400Y-93608138D01*
X149631400Y-93234262D01*
X149488324Y-92888846D01*
X149423779Y-92824301D01*
X149701064Y-92547015D01*
X153371261Y-96217213D01*
X153371261Y-96217213D01*
G37*
X153371261Y-96217213D02*
X153371264Y-96217215D01*
X154512491Y-97358442D01*
X154324256Y-97321000D01*
X154031744Y-97321000D01*
X153598582Y-97407161D01*
X153107375Y-97735375D01*
X152908000Y-98033761D01*
X152708625Y-97735375D01*
X152217418Y-97407161D01*
X151784256Y-97321000D01*
X151491744Y-97321000D01*
X151058582Y-97407161D01*
X150567375Y-97735375D01*
X150368000Y-98033761D01*
X150168625Y-97735375D01*
X149677418Y-97407161D01*
X149244256Y-97321000D01*
X148951744Y-97321000D01*
X148518582Y-97407161D01*
X148027375Y-97735375D01*
X147828000Y-98033761D01*
X147628625Y-97735375D01*
X147269200Y-97495215D01*
X147269200Y-94264970D01*
X147802831Y-93731339D01*
X147894876Y-93953554D01*
X148159246Y-94217924D01*
X148504662Y-94361000D01*
X148878538Y-94361000D01*
X149223954Y-94217924D01*
X149488324Y-93953554D01*
X149631400Y-93608138D01*
X149631400Y-93234262D01*
X149488324Y-92888846D01*
X149423779Y-92824301D01*
X149701064Y-92547015D01*
X153371261Y-96217213D01*
G36*
X152273000Y-76246538D02*
X152416076Y-76591954D01*
X152501600Y-76677478D01*
X152501601Y-77606872D01*
X152487668Y-77676918D01*
X152542865Y-77954414D01*
X152660376Y-78130282D01*
X152660379Y-78130285D01*
X152700055Y-78189664D01*
X152759434Y-78229340D01*
X160349661Y-85819568D01*
X160389337Y-85878947D01*
X160448716Y-85918623D01*
X160448718Y-85918625D01*
X160624585Y-86036136D01*
X160624586Y-86036136D01*
X160624587Y-86036137D01*
X160832037Y-86077401D01*
X160832040Y-86077401D01*
X160902082Y-86091333D01*
X160972124Y-86077401D01*
X181517758Y-86077401D01*
X181587799Y-86091333D01*
X181657840Y-86077401D01*
X181657845Y-86077401D01*
X181865295Y-86036137D01*
X182100545Y-85878947D01*
X182140223Y-85819565D01*
X184266789Y-83693000D01*
X184387738Y-83693000D01*
X184733154Y-83549924D01*
X184997524Y-83285554D01*
X185128571Y-82969177D01*
X185162259Y-83002865D01*
X185206189Y-83068611D01*
X185466645Y-83242642D01*
X185696321Y-83288327D01*
X185696322Y-83288327D01*
X185773873Y-83303753D01*
X185820404Y-83294497D01*
X186204201Y-83678295D01*
X186204202Y-88101124D01*
X186053954Y-87950876D01*
X185708538Y-87807800D01*
X185695351Y-87807800D01*
X185371216Y-87483665D01*
X185327284Y-87417916D01*
X185066828Y-87243885D01*
X184837152Y-87198200D01*
X184837151Y-87198200D01*
X184759600Y-87182774D01*
X184682049Y-87198200D01*
X180830878Y-87198200D01*
X180821554Y-87188876D01*
X180476138Y-87045800D01*
X180102262Y-87045800D01*
X179756846Y-87188876D01*
X179492476Y-87453246D01*
X179447839Y-87561009D01*
X177219849Y-89789000D01*
X177206662Y-89789000D01*
X177038000Y-89858862D01*
X177038000Y-88654278D01*
X177123524Y-88568754D01*
X177266600Y-88223338D01*
X177266600Y-87849462D01*
X177123524Y-87504046D01*
X176859154Y-87239676D01*
X176513738Y-87096600D01*
X176139862Y-87096600D01*
X175794446Y-87239676D01*
X175530076Y-87504046D01*
X175387000Y-87849462D01*
X175387000Y-88223338D01*
X175530076Y-88568754D01*
X175615600Y-88654278D01*
X175615601Y-91907410D01*
X173008645Y-94514367D01*
X172845954Y-94351676D01*
X172500538Y-94208600D01*
X172379589Y-94208600D01*
X171138823Y-92967835D01*
X171099146Y-92908454D01*
X170863896Y-92751264D01*
X170656446Y-92710000D01*
X170656441Y-92710000D01*
X170586400Y-92696068D01*
X170516359Y-92710000D01*
X167851478Y-92710000D01*
X167816754Y-92675276D01*
X167471338Y-92532200D01*
X167097462Y-92532200D01*
X166752046Y-92675276D01*
X166717322Y-92710000D01*
X164835789Y-92710000D01*
X163722026Y-91596238D01*
X163722024Y-91596235D01*
X161690023Y-89564235D01*
X161650346Y-89504854D01*
X161415096Y-89347664D01*
X161207646Y-89306400D01*
X161207641Y-89306400D01*
X161137600Y-89292468D01*
X161067559Y-89306400D01*
X157089537Y-89306400D01*
X148418999Y-80635862D01*
X150717200Y-80635862D01*
X150717200Y-81009738D01*
X150860276Y-81355154D01*
X151124646Y-81619524D01*
X151470062Y-81762600D01*
X151843938Y-81762600D01*
X152189354Y-81619524D01*
X152453724Y-81355154D01*
X152596800Y-81009738D01*
X152596800Y-80635862D01*
X152453724Y-80290446D01*
X152189354Y-80026076D01*
X151843938Y-79883000D01*
X151470062Y-79883000D01*
X151124646Y-80026076D01*
X150860276Y-80290446D01*
X150717200Y-80635862D01*
X148418999Y-80635862D01*
X144194428Y-76411292D01*
X144246600Y-76285338D01*
X144246600Y-76228599D01*
X144615611Y-76228599D01*
X145345178Y-76958167D01*
X145384854Y-77017546D01*
X145444233Y-77057222D01*
X145444235Y-77057224D01*
X145559936Y-77134533D01*
X145620104Y-77174736D01*
X145827554Y-77216000D01*
X145827558Y-77216000D01*
X145897600Y-77229932D01*
X145967642Y-77216000D01*
X146143322Y-77216000D01*
X146116876Y-77242446D01*
X145973800Y-77587862D01*
X145973800Y-77961738D01*
X146116876Y-78307154D01*
X146381246Y-78571524D01*
X146726662Y-78714600D01*
X147100538Y-78714600D01*
X147445954Y-78571524D01*
X147455278Y-78562200D01*
X149325249Y-78562200D01*
X149402800Y-78577626D01*
X149480351Y-78562200D01*
X149480352Y-78562200D01*
X149710028Y-78516515D01*
X149970484Y-78342484D01*
X150014416Y-78276735D01*
X152273000Y-76018152D01*
X152273000Y-76246538D01*
X152273000Y-76246538D01*
G37*
X152273000Y-76246538D02*
X152416076Y-76591954D01*
X152501600Y-76677478D01*
X152501601Y-77606872D01*
X152487668Y-77676918D01*
X152542865Y-77954414D01*
X152660376Y-78130282D01*
X152660379Y-78130285D01*
X152700055Y-78189664D01*
X152759434Y-78229340D01*
X160349661Y-85819568D01*
X160389337Y-85878947D01*
X160448716Y-85918623D01*
X160448718Y-85918625D01*
X160624585Y-86036136D01*
X160624586Y-86036136D01*
X160624587Y-86036137D01*
X160832037Y-86077401D01*
X160832040Y-86077401D01*
X160902082Y-86091333D01*
X160972124Y-86077401D01*
X181517758Y-86077401D01*
X181587799Y-86091333D01*
X181657840Y-86077401D01*
X181657845Y-86077401D01*
X181865295Y-86036137D01*
X182100545Y-85878947D01*
X182140223Y-85819565D01*
X184266789Y-83693000D01*
X184387738Y-83693000D01*
X184733154Y-83549924D01*
X184997524Y-83285554D01*
X185128571Y-82969177D01*
X185162259Y-83002865D01*
X185206189Y-83068611D01*
X185466645Y-83242642D01*
X185696321Y-83288327D01*
X185696322Y-83288327D01*
X185773873Y-83303753D01*
X185820404Y-83294497D01*
X186204201Y-83678295D01*
X186204202Y-88101124D01*
X186053954Y-87950876D01*
X185708538Y-87807800D01*
X185695351Y-87807800D01*
X185371216Y-87483665D01*
X185327284Y-87417916D01*
X185066828Y-87243885D01*
X184837152Y-87198200D01*
X184837151Y-87198200D01*
X184759600Y-87182774D01*
X184682049Y-87198200D01*
X180830878Y-87198200D01*
X180821554Y-87188876D01*
X180476138Y-87045800D01*
X180102262Y-87045800D01*
X179756846Y-87188876D01*
X179492476Y-87453246D01*
X179447839Y-87561009D01*
X177219849Y-89789000D01*
X177206662Y-89789000D01*
X177038000Y-89858862D01*
X177038000Y-88654278D01*
X177123524Y-88568754D01*
X177266600Y-88223338D01*
X177266600Y-87849462D01*
X177123524Y-87504046D01*
X176859154Y-87239676D01*
X176513738Y-87096600D01*
X176139862Y-87096600D01*
X175794446Y-87239676D01*
X175530076Y-87504046D01*
X175387000Y-87849462D01*
X175387000Y-88223338D01*
X175530076Y-88568754D01*
X175615600Y-88654278D01*
X175615601Y-91907410D01*
X173008645Y-94514367D01*
X172845954Y-94351676D01*
X172500538Y-94208600D01*
X172379589Y-94208600D01*
X171138823Y-92967835D01*
X171099146Y-92908454D01*
X170863896Y-92751264D01*
X170656446Y-92710000D01*
X170656441Y-92710000D01*
X170586400Y-92696068D01*
X170516359Y-92710000D01*
X167851478Y-92710000D01*
X167816754Y-92675276D01*
X167471338Y-92532200D01*
X167097462Y-92532200D01*
X166752046Y-92675276D01*
X166717322Y-92710000D01*
X164835789Y-92710000D01*
X163722026Y-91596238D01*
X163722024Y-91596235D01*
X161690023Y-89564235D01*
X161650346Y-89504854D01*
X161415096Y-89347664D01*
X161207646Y-89306400D01*
X161207641Y-89306400D01*
X161137600Y-89292468D01*
X161067559Y-89306400D01*
X157089537Y-89306400D01*
X148418999Y-80635862D01*
X150717200Y-80635862D01*
X150717200Y-81009738D01*
X150860276Y-81355154D01*
X151124646Y-81619524D01*
X151470062Y-81762600D01*
X151843938Y-81762600D01*
X152189354Y-81619524D01*
X152453724Y-81355154D01*
X152596800Y-81009738D01*
X152596800Y-80635862D01*
X152453724Y-80290446D01*
X152189354Y-80026076D01*
X151843938Y-79883000D01*
X151470062Y-79883000D01*
X151124646Y-80026076D01*
X150860276Y-80290446D01*
X150717200Y-80635862D01*
X148418999Y-80635862D01*
X144194428Y-76411292D01*
X144246600Y-76285338D01*
X144246600Y-76228599D01*
X144615611Y-76228599D01*
X145345178Y-76958167D01*
X145384854Y-77017546D01*
X145444233Y-77057222D01*
X145444235Y-77057224D01*
X145559936Y-77134533D01*
X145620104Y-77174736D01*
X145827554Y-77216000D01*
X145827558Y-77216000D01*
X145897600Y-77229932D01*
X145967642Y-77216000D01*
X146143322Y-77216000D01*
X146116876Y-77242446D01*
X145973800Y-77587862D01*
X145973800Y-77961738D01*
X146116876Y-78307154D01*
X146381246Y-78571524D01*
X146726662Y-78714600D01*
X147100538Y-78714600D01*
X147445954Y-78571524D01*
X147455278Y-78562200D01*
X149325249Y-78562200D01*
X149402800Y-78577626D01*
X149480351Y-78562200D01*
X149480352Y-78562200D01*
X149710028Y-78516515D01*
X149970484Y-78342484D01*
X150014416Y-78276735D01*
X152273000Y-76018152D01*
X152273000Y-76246538D01*
G36*
X162541612Y-84655001D02*
X161196672Y-84655001D01*
X156878482Y-80336812D01*
X156886662Y-80340200D01*
X157260538Y-80340200D01*
X157605954Y-80197124D01*
X157844845Y-79958233D01*
X162541612Y-84655001D01*
X162541612Y-84655001D01*
G37*
X162541612Y-84655001D02*
X161196672Y-84655001D01*
X156878482Y-80336812D01*
X156886662Y-80340200D01*
X157260538Y-80340200D01*
X157605954Y-80197124D01*
X157844845Y-79958233D01*
X162541612Y-84655001D01*
G36*
X157784800Y-70500189D02*
X157784801Y-74224206D01*
X157770868Y-74294252D01*
X157826065Y-74571748D01*
X157943576Y-74747616D01*
X157943579Y-74747619D01*
X157983255Y-74806998D01*
X158042634Y-74846674D01*
X163964126Y-80768167D01*
X164003802Y-80827546D01*
X164063181Y-80867222D01*
X164063183Y-80867224D01*
X164119951Y-80905155D01*
X164239052Y-80984736D01*
X164300726Y-80997004D01*
X164415246Y-81111524D01*
X164760662Y-81254600D01*
X165134538Y-81254600D01*
X165479954Y-81111524D01*
X165744324Y-80847154D01*
X165887400Y-80501738D01*
X165887400Y-80127862D01*
X165744324Y-79782446D01*
X165479954Y-79518076D01*
X165134538Y-79375000D01*
X164760662Y-79375000D01*
X164634709Y-79427172D01*
X160086736Y-74879200D01*
X162845559Y-74879200D01*
X162915600Y-74893132D01*
X162985641Y-74879200D01*
X162985646Y-74879200D01*
X163193096Y-74837936D01*
X163293401Y-74770914D01*
X163293401Y-75418006D01*
X163279469Y-75488048D01*
X163293401Y-75558089D01*
X163293401Y-75558093D01*
X163334665Y-75765543D01*
X163353412Y-75793600D01*
X163452177Y-75941412D01*
X163452179Y-75941414D01*
X163491855Y-76000793D01*
X163551235Y-76040470D01*
X168174141Y-80663377D01*
X168213817Y-80722756D01*
X168273196Y-80762432D01*
X168273198Y-80762434D01*
X168334739Y-80803554D01*
X168449067Y-80879946D01*
X168656517Y-80921210D01*
X168656521Y-80921210D01*
X168726563Y-80935142D01*
X168796605Y-80921210D01*
X172903431Y-80921210D01*
X172973472Y-80935142D01*
X173043513Y-80921210D01*
X173043518Y-80921210D01*
X173250968Y-80879946D01*
X173486218Y-80722756D01*
X173525896Y-80663374D01*
X177481271Y-76708000D01*
X177514622Y-76708000D01*
X177600146Y-76793524D01*
X177945562Y-76936600D01*
X178319438Y-76936600D01*
X178664854Y-76793524D01*
X178929224Y-76529154D01*
X179072300Y-76183738D01*
X179072300Y-75809862D01*
X178929224Y-75464446D01*
X178664854Y-75200076D01*
X178319438Y-75057000D01*
X177945562Y-75057000D01*
X177600146Y-75200076D01*
X177514622Y-75285600D01*
X177256724Y-75285600D01*
X177186682Y-75271668D01*
X177116640Y-75285600D01*
X177116636Y-75285600D01*
X176909186Y-75326864D01*
X176856901Y-75361800D01*
X176733317Y-75444376D01*
X176733315Y-75444378D01*
X176673936Y-75484054D01*
X176634260Y-75543433D01*
X174735186Y-77442508D01*
X174675954Y-77383276D01*
X174560132Y-77335301D01*
X174574200Y-77301338D01*
X174574200Y-76927462D01*
X174431124Y-76582046D01*
X174166754Y-76317676D01*
X174020553Y-76257117D01*
X177481271Y-72796400D01*
X179131012Y-72796400D01*
X180800918Y-74466307D01*
X180800919Y-77145954D01*
X180786986Y-77216000D01*
X180842183Y-77493496D01*
X180959694Y-77669364D01*
X180959697Y-77669367D01*
X180999373Y-77728746D01*
X181058752Y-77768422D01*
X183325737Y-80035408D01*
X180879797Y-80035408D01*
X180856884Y-80001116D01*
X180596428Y-79827085D01*
X180366752Y-79781400D01*
X180366751Y-79781400D01*
X180289200Y-79765974D01*
X180211649Y-79781400D01*
X176106478Y-79781400D01*
X176097154Y-79772076D01*
X175751738Y-79629000D01*
X175377862Y-79629000D01*
X175032446Y-79772076D01*
X174768076Y-80036446D01*
X174625000Y-80381862D01*
X174625000Y-80755738D01*
X174768076Y-81101154D01*
X175032446Y-81365524D01*
X175377862Y-81508600D01*
X175751738Y-81508600D01*
X176097154Y-81365524D01*
X176106478Y-81356200D01*
X179952611Y-81356200D01*
X179975524Y-81390492D01*
X180235980Y-81564523D01*
X180543208Y-81625634D01*
X180620761Y-81610208D01*
X183769603Y-81610208D01*
X183984823Y-81825428D01*
X183668446Y-81956476D01*
X183404076Y-82220846D01*
X183261000Y-82566262D01*
X183261000Y-82687211D01*
X181293211Y-84655001D01*
X164617400Y-84655001D01*
X164617400Y-84598262D01*
X164474324Y-84252846D01*
X164209954Y-83988476D01*
X163864538Y-83845400D01*
X163743589Y-83845400D01*
X161863989Y-81965800D01*
X162086538Y-81965800D01*
X162431954Y-81822724D01*
X162696324Y-81558354D01*
X162839400Y-81212938D01*
X162839400Y-80839062D01*
X162696324Y-80493646D01*
X162431954Y-80229276D01*
X162086538Y-80086200D01*
X161712662Y-80086200D01*
X161367246Y-80229276D01*
X161281722Y-80314800D01*
X160711371Y-80314800D01*
X158044370Y-77647800D01*
X158124138Y-77647800D01*
X158469554Y-77504724D01*
X158733924Y-77240354D01*
X158877000Y-76894938D01*
X158877000Y-76521062D01*
X158733924Y-76175646D01*
X158469554Y-75911276D01*
X158124138Y-75768200D01*
X157750262Y-75768200D01*
X157404846Y-75911276D01*
X157140476Y-76175646D01*
X157073600Y-76337099D01*
X157073600Y-71142960D01*
X157087532Y-71072918D01*
X157073600Y-71002876D01*
X157073600Y-71002872D01*
X157032336Y-70795422D01*
X157007347Y-70758024D01*
X156914824Y-70619553D01*
X156914820Y-70619549D01*
X156875145Y-70560172D01*
X156815769Y-70520498D01*
X156228505Y-69933235D01*
X156188827Y-69873853D01*
X156001074Y-69748400D01*
X157033012Y-69748400D01*
X157784800Y-70500189D01*
X157784800Y-70500189D01*
G37*
X157784800Y-70500189D02*
X157784801Y-74224206D01*
X157770868Y-74294252D01*
X157826065Y-74571748D01*
X157943576Y-74747616D01*
X157943579Y-74747619D01*
X157983255Y-74806998D01*
X158042634Y-74846674D01*
X163964126Y-80768167D01*
X164003802Y-80827546D01*
X164063181Y-80867222D01*
X164063183Y-80867224D01*
X164119951Y-80905155D01*
X164239052Y-80984736D01*
X164300726Y-80997004D01*
X164415246Y-81111524D01*
X164760662Y-81254600D01*
X165134538Y-81254600D01*
X165479954Y-81111524D01*
X165744324Y-80847154D01*
X165887400Y-80501738D01*
X165887400Y-80127862D01*
X165744324Y-79782446D01*
X165479954Y-79518076D01*
X165134538Y-79375000D01*
X164760662Y-79375000D01*
X164634709Y-79427172D01*
X160086736Y-74879200D01*
X162845559Y-74879200D01*
X162915600Y-74893132D01*
X162985641Y-74879200D01*
X162985646Y-74879200D01*
X163193096Y-74837936D01*
X163293401Y-74770914D01*
X163293401Y-75418006D01*
X163279469Y-75488048D01*
X163293401Y-75558089D01*
X163293401Y-75558093D01*
X163334665Y-75765543D01*
X163353412Y-75793600D01*
X163452177Y-75941412D01*
X163452179Y-75941414D01*
X163491855Y-76000793D01*
X163551235Y-76040470D01*
X168174141Y-80663377D01*
X168213817Y-80722756D01*
X168273196Y-80762432D01*
X168273198Y-80762434D01*
X168334739Y-80803554D01*
X168449067Y-80879946D01*
X168656517Y-80921210D01*
X168656521Y-80921210D01*
X168726563Y-80935142D01*
X168796605Y-80921210D01*
X172903431Y-80921210D01*
X172973472Y-80935142D01*
X173043513Y-80921210D01*
X173043518Y-80921210D01*
X173250968Y-80879946D01*
X173486218Y-80722756D01*
X173525896Y-80663374D01*
X177481271Y-76708000D01*
X177514622Y-76708000D01*
X177600146Y-76793524D01*
X177945562Y-76936600D01*
X178319438Y-76936600D01*
X178664854Y-76793524D01*
X178929224Y-76529154D01*
X179072300Y-76183738D01*
X179072300Y-75809862D01*
X178929224Y-75464446D01*
X178664854Y-75200076D01*
X178319438Y-75057000D01*
X177945562Y-75057000D01*
X177600146Y-75200076D01*
X177514622Y-75285600D01*
X177256724Y-75285600D01*
X177186682Y-75271668D01*
X177116640Y-75285600D01*
X177116636Y-75285600D01*
X176909186Y-75326864D01*
X176856901Y-75361800D01*
X176733317Y-75444376D01*
X176733315Y-75444378D01*
X176673936Y-75484054D01*
X176634260Y-75543433D01*
X174735186Y-77442508D01*
X174675954Y-77383276D01*
X174560132Y-77335301D01*
X174574200Y-77301338D01*
X174574200Y-76927462D01*
X174431124Y-76582046D01*
X174166754Y-76317676D01*
X174020553Y-76257117D01*
X177481271Y-72796400D01*
X179131012Y-72796400D01*
X180800918Y-74466307D01*
X180800919Y-77145954D01*
X180786986Y-77216000D01*
X180842183Y-77493496D01*
X180959694Y-77669364D01*
X180959697Y-77669367D01*
X180999373Y-77728746D01*
X181058752Y-77768422D01*
X183325737Y-80035408D01*
X180879797Y-80035408D01*
X180856884Y-80001116D01*
X180596428Y-79827085D01*
X180366752Y-79781400D01*
X180366751Y-79781400D01*
X180289200Y-79765974D01*
X180211649Y-79781400D01*
X176106478Y-79781400D01*
X176097154Y-79772076D01*
X175751738Y-79629000D01*
X175377862Y-79629000D01*
X175032446Y-79772076D01*
X174768076Y-80036446D01*
X174625000Y-80381862D01*
X174625000Y-80755738D01*
X174768076Y-81101154D01*
X175032446Y-81365524D01*
X175377862Y-81508600D01*
X175751738Y-81508600D01*
X176097154Y-81365524D01*
X176106478Y-81356200D01*
X179952611Y-81356200D01*
X179975524Y-81390492D01*
X180235980Y-81564523D01*
X180543208Y-81625634D01*
X180620761Y-81610208D01*
X183769603Y-81610208D01*
X183984823Y-81825428D01*
X183668446Y-81956476D01*
X183404076Y-82220846D01*
X183261000Y-82566262D01*
X183261000Y-82687211D01*
X181293211Y-84655001D01*
X164617400Y-84655001D01*
X164617400Y-84598262D01*
X164474324Y-84252846D01*
X164209954Y-83988476D01*
X163864538Y-83845400D01*
X163743589Y-83845400D01*
X161863989Y-81965800D01*
X162086538Y-81965800D01*
X162431954Y-81822724D01*
X162696324Y-81558354D01*
X162839400Y-81212938D01*
X162839400Y-80839062D01*
X162696324Y-80493646D01*
X162431954Y-80229276D01*
X162086538Y-80086200D01*
X161712662Y-80086200D01*
X161367246Y-80229276D01*
X161281722Y-80314800D01*
X160711371Y-80314800D01*
X158044370Y-77647800D01*
X158124138Y-77647800D01*
X158469554Y-77504724D01*
X158733924Y-77240354D01*
X158877000Y-76894938D01*
X158877000Y-76521062D01*
X158733924Y-76175646D01*
X158469554Y-75911276D01*
X158124138Y-75768200D01*
X157750262Y-75768200D01*
X157404846Y-75911276D01*
X157140476Y-76175646D01*
X157073600Y-76337099D01*
X157073600Y-71142960D01*
X157087532Y-71072918D01*
X157073600Y-71002876D01*
X157073600Y-71002872D01*
X157032336Y-70795422D01*
X157007347Y-70758024D01*
X156914824Y-70619553D01*
X156914820Y-70619549D01*
X156875145Y-70560172D01*
X156815769Y-70520498D01*
X156228505Y-69933235D01*
X156188827Y-69873853D01*
X156001074Y-69748400D01*
X157033012Y-69748400D01*
X157784800Y-70500189D01*
G36*
X134420634Y-78464530D02*
X134361254Y-78504207D01*
X134321578Y-78563586D01*
X134321576Y-78563588D01*
X134265849Y-78646990D01*
X134204064Y-78739457D01*
X134162800Y-78946907D01*
X134162800Y-78946911D01*
X134148868Y-79016952D01*
X134162800Y-79086993D01*
X134162800Y-80977578D01*
X134095738Y-80949800D01*
X133803017Y-80949800D01*
X133883400Y-80755738D01*
X133883400Y-80381862D01*
X133740324Y-80036446D01*
X133475954Y-79772076D01*
X133130538Y-79629000D01*
X133009589Y-79629000D01*
X132588000Y-79207412D01*
X132588000Y-77291040D01*
X132726800Y-77291040D01*
X132974565Y-77241757D01*
X133184609Y-77101409D01*
X133324957Y-76891365D01*
X133374240Y-76643600D01*
X133374240Y-76504800D01*
X136380364Y-76504800D01*
X134420634Y-78464530D01*
X134420634Y-78464530D01*
G37*
X134420634Y-78464530D02*
X134361254Y-78504207D01*
X134321578Y-78563586D01*
X134321576Y-78563588D01*
X134265849Y-78646990D01*
X134204064Y-78739457D01*
X134162800Y-78946907D01*
X134162800Y-78946911D01*
X134148868Y-79016952D01*
X134162800Y-79086993D01*
X134162800Y-80977578D01*
X134095738Y-80949800D01*
X133803017Y-80949800D01*
X133883400Y-80755738D01*
X133883400Y-80381862D01*
X133740324Y-80036446D01*
X133475954Y-79772076D01*
X133130538Y-79629000D01*
X133009589Y-79629000D01*
X132588000Y-79207412D01*
X132588000Y-77291040D01*
X132726800Y-77291040D01*
X132974565Y-77241757D01*
X133184609Y-77101409D01*
X133324957Y-76891365D01*
X133374240Y-76643600D01*
X133374240Y-76504800D01*
X136380364Y-76504800D01*
X134420634Y-78464530D01*
G36*
X168659834Y-75847060D02*
X168600455Y-75886736D01*
X168560779Y-75946115D01*
X168560776Y-75946118D01*
X168443265Y-76121986D01*
X168388068Y-76399482D01*
X168402001Y-76469528D01*
X168402000Y-77882896D01*
X168287599Y-77768495D01*
X168287596Y-77768490D01*
X165525305Y-75006200D01*
X165845738Y-75006200D01*
X166191154Y-74863124D01*
X166455524Y-74598754D01*
X166539259Y-74396600D01*
X166556938Y-74396600D01*
X166902354Y-74253524D01*
X167166724Y-73989154D01*
X167309800Y-73643738D01*
X167309800Y-73534814D01*
X167483355Y-73462925D01*
X167747725Y-73198555D01*
X167854018Y-72941941D01*
X168121554Y-72831124D01*
X168385924Y-72566754D01*
X168512440Y-72261319D01*
X168731154Y-72170724D01*
X168995524Y-71906354D01*
X169138600Y-71560938D01*
X169138600Y-71187062D01*
X168995524Y-70841646D01*
X168731154Y-70577276D01*
X168385738Y-70434200D01*
X168011862Y-70434200D01*
X167666446Y-70577276D01*
X167580922Y-70662800D01*
X166410589Y-70662800D01*
X165470789Y-69723000D01*
X165591738Y-69723000D01*
X165937154Y-69579924D01*
X165946478Y-69570600D01*
X174936293Y-69570600D01*
X168659834Y-75847060D01*
X168659834Y-75847060D01*
G37*
X168659834Y-75847060D02*
X168600455Y-75886736D01*
X168560779Y-75946115D01*
X168560776Y-75946118D01*
X168443265Y-76121986D01*
X168388068Y-76399482D01*
X168402001Y-76469528D01*
X168402000Y-77882896D01*
X168287599Y-77768495D01*
X168287596Y-77768490D01*
X165525305Y-75006200D01*
X165845738Y-75006200D01*
X166191154Y-74863124D01*
X166455524Y-74598754D01*
X166539259Y-74396600D01*
X166556938Y-74396600D01*
X166902354Y-74253524D01*
X167166724Y-73989154D01*
X167309800Y-73643738D01*
X167309800Y-73534814D01*
X167483355Y-73462925D01*
X167747725Y-73198555D01*
X167854018Y-72941941D01*
X168121554Y-72831124D01*
X168385924Y-72566754D01*
X168512440Y-72261319D01*
X168731154Y-72170724D01*
X168995524Y-71906354D01*
X169138600Y-71560938D01*
X169138600Y-71187062D01*
X168995524Y-70841646D01*
X168731154Y-70577276D01*
X168385738Y-70434200D01*
X168011862Y-70434200D01*
X167666446Y-70577276D01*
X167580922Y-70662800D01*
X166410589Y-70662800D01*
X165470789Y-69723000D01*
X165591738Y-69723000D01*
X165937154Y-69579924D01*
X165946478Y-69570600D01*
X174936293Y-69570600D01*
X168659834Y-75847060D01*
G36*
X209980908Y-68801214D02*
X209921676Y-68860446D01*
X209778600Y-69205862D01*
X209778600Y-69219049D01*
X209759263Y-69238386D01*
X209693517Y-69282316D01*
X209621457Y-69390161D01*
X209519486Y-69542772D01*
X209458374Y-69850000D01*
X209473801Y-69927556D01*
X209473800Y-72395122D01*
X209464476Y-72404446D01*
X209321400Y-72749862D01*
X209321400Y-73123738D01*
X209464476Y-73469154D01*
X209728846Y-73733524D01*
X210074262Y-73876600D01*
X210448138Y-73876600D01*
X210791401Y-73734416D01*
X210791401Y-73770200D01*
X210734662Y-73770200D01*
X210389246Y-73913276D01*
X210124876Y-74177646D01*
X209981800Y-74523062D01*
X209981800Y-74644011D01*
X207968612Y-76657200D01*
X201074678Y-76657200D01*
X201023878Y-76606400D01*
X202672759Y-76606400D01*
X202742800Y-76620332D01*
X202812841Y-76606400D01*
X202812846Y-76606400D01*
X203020296Y-76565136D01*
X203255546Y-76407946D01*
X203295224Y-76348564D01*
X204840789Y-74803000D01*
X204961738Y-74803000D01*
X205307154Y-74659924D01*
X205571524Y-74395554D01*
X205714600Y-74050138D01*
X205714600Y-73676262D01*
X205571524Y-73330846D01*
X205307154Y-73066476D01*
X204961738Y-72923400D01*
X204587862Y-72923400D01*
X204242446Y-73066476D01*
X203978076Y-73330846D01*
X203835000Y-73676262D01*
X203835000Y-73797211D01*
X203590245Y-74041967D01*
X203555600Y-74007322D01*
X203555600Y-71190041D01*
X203569532Y-71119999D01*
X203555600Y-71049957D01*
X203555600Y-71049954D01*
X203514336Y-70842504D01*
X203512638Y-70839963D01*
X203396824Y-70666635D01*
X203396822Y-70666633D01*
X203357146Y-70607254D01*
X203297767Y-70567578D01*
X202666600Y-69936412D01*
X202666600Y-69815462D01*
X202523524Y-69470046D01*
X202259154Y-69205676D01*
X201913738Y-69062600D01*
X201539862Y-69062600D01*
X201194446Y-69205676D01*
X200930076Y-69470046D01*
X200787000Y-69815462D01*
X200787000Y-70189338D01*
X200930076Y-70534754D01*
X201194446Y-70799124D01*
X201539862Y-70942200D01*
X201660812Y-70942200D01*
X202133201Y-71414590D01*
X202133200Y-74007322D01*
X202047676Y-74092846D01*
X201904600Y-74438262D01*
X201904600Y-74812138D01*
X202047676Y-75157554D01*
X202074122Y-75184000D01*
X198824707Y-75184000D01*
X193046206Y-69405500D01*
X193176138Y-69405500D01*
X193521554Y-69262424D01*
X193607078Y-69176900D01*
X200653459Y-69176900D01*
X200723500Y-69190832D01*
X200793541Y-69176900D01*
X200793546Y-69176900D01*
X201000996Y-69135636D01*
X201236246Y-68978446D01*
X201275924Y-68919064D01*
X202097589Y-68097400D01*
X202218538Y-68097400D01*
X202563954Y-67954324D01*
X202828324Y-67689954D01*
X202889692Y-67541799D01*
X208721493Y-67541799D01*
X209980908Y-68801214D01*
X209980908Y-68801214D01*
G37*
X209980908Y-68801214D02*
X209921676Y-68860446D01*
X209778600Y-69205862D01*
X209778600Y-69219049D01*
X209759263Y-69238386D01*
X209693517Y-69282316D01*
X209621457Y-69390161D01*
X209519486Y-69542772D01*
X209458374Y-69850000D01*
X209473801Y-69927556D01*
X209473800Y-72395122D01*
X209464476Y-72404446D01*
X209321400Y-72749862D01*
X209321400Y-73123738D01*
X209464476Y-73469154D01*
X209728846Y-73733524D01*
X210074262Y-73876600D01*
X210448138Y-73876600D01*
X210791401Y-73734416D01*
X210791401Y-73770200D01*
X210734662Y-73770200D01*
X210389246Y-73913276D01*
X210124876Y-74177646D01*
X209981800Y-74523062D01*
X209981800Y-74644011D01*
X207968612Y-76657200D01*
X201074678Y-76657200D01*
X201023878Y-76606400D01*
X202672759Y-76606400D01*
X202742800Y-76620332D01*
X202812841Y-76606400D01*
X202812846Y-76606400D01*
X203020296Y-76565136D01*
X203255546Y-76407946D01*
X203295224Y-76348564D01*
X204840789Y-74803000D01*
X204961738Y-74803000D01*
X205307154Y-74659924D01*
X205571524Y-74395554D01*
X205714600Y-74050138D01*
X205714600Y-73676262D01*
X205571524Y-73330846D01*
X205307154Y-73066476D01*
X204961738Y-72923400D01*
X204587862Y-72923400D01*
X204242446Y-73066476D01*
X203978076Y-73330846D01*
X203835000Y-73676262D01*
X203835000Y-73797211D01*
X203590245Y-74041967D01*
X203555600Y-74007322D01*
X203555600Y-71190041D01*
X203569532Y-71119999D01*
X203555600Y-71049957D01*
X203555600Y-71049954D01*
X203514336Y-70842504D01*
X203512638Y-70839963D01*
X203396824Y-70666635D01*
X203396822Y-70666633D01*
X203357146Y-70607254D01*
X203297767Y-70567578D01*
X202666600Y-69936412D01*
X202666600Y-69815462D01*
X202523524Y-69470046D01*
X202259154Y-69205676D01*
X201913738Y-69062600D01*
X201539862Y-69062600D01*
X201194446Y-69205676D01*
X200930076Y-69470046D01*
X200787000Y-69815462D01*
X200787000Y-70189338D01*
X200930076Y-70534754D01*
X201194446Y-70799124D01*
X201539862Y-70942200D01*
X201660812Y-70942200D01*
X202133201Y-71414590D01*
X202133200Y-74007322D01*
X202047676Y-74092846D01*
X201904600Y-74438262D01*
X201904600Y-74812138D01*
X202047676Y-75157554D01*
X202074122Y-75184000D01*
X198824707Y-75184000D01*
X193046206Y-69405500D01*
X193176138Y-69405500D01*
X193521554Y-69262424D01*
X193607078Y-69176900D01*
X200653459Y-69176900D01*
X200723500Y-69190832D01*
X200793541Y-69176900D01*
X200793546Y-69176900D01*
X201000996Y-69135636D01*
X201236246Y-68978446D01*
X201275924Y-68919064D01*
X202097589Y-68097400D01*
X202218538Y-68097400D01*
X202563954Y-67954324D01*
X202828324Y-67689954D01*
X202889692Y-67541799D01*
X208721493Y-67541799D01*
X209980908Y-68801214D01*
G36*
X171399200Y-75683722D02*
X171313676Y-75769246D01*
X171170600Y-76114662D01*
X171170600Y-76276200D01*
X170907462Y-76276200D01*
X170622701Y-76394152D01*
X170801956Y-76214897D01*
X170801958Y-76214894D01*
X171399200Y-75617652D01*
X171399200Y-75683722D01*
X171399200Y-75683722D01*
G37*
X171399200Y-75683722D02*
X171313676Y-75769246D01*
X171170600Y-76114662D01*
X171170600Y-76276200D01*
X170907462Y-76276200D01*
X170622701Y-76394152D01*
X170801956Y-76214897D01*
X170801958Y-76214894D01*
X171399200Y-75617652D01*
X171399200Y-75683722D01*
G36*
X162840367Y-72914155D02*
X162626876Y-73127646D01*
X162490536Y-73456800D01*
X159926678Y-73456800D01*
X159841154Y-73371276D01*
X159495738Y-73228200D01*
X159207200Y-73228200D01*
X159207200Y-70275641D01*
X159221132Y-70205599D01*
X159207200Y-70135555D01*
X159207200Y-70135554D01*
X159165936Y-69928104D01*
X159163965Y-69925154D01*
X159048424Y-69752235D01*
X159048420Y-69752231D01*
X159008745Y-69692854D01*
X158949369Y-69653180D01*
X157880024Y-68583836D01*
X157840346Y-68524454D01*
X157605096Y-68367264D01*
X157397646Y-68326000D01*
X157397641Y-68326000D01*
X157327600Y-68312068D01*
X157257559Y-68326000D01*
X152965138Y-68326000D01*
X153035000Y-68157338D01*
X153035000Y-67919600D01*
X157845812Y-67919600D01*
X162840367Y-72914155D01*
X162840367Y-72914155D01*
G37*
X162840367Y-72914155D02*
X162626876Y-73127646D01*
X162490536Y-73456800D01*
X159926678Y-73456800D01*
X159841154Y-73371276D01*
X159495738Y-73228200D01*
X159207200Y-73228200D01*
X159207200Y-70275641D01*
X159221132Y-70205599D01*
X159207200Y-70135555D01*
X159207200Y-70135554D01*
X159165936Y-69928104D01*
X159163965Y-69925154D01*
X159048424Y-69752235D01*
X159048420Y-69752231D01*
X159008745Y-69692854D01*
X158949369Y-69653180D01*
X157880024Y-68583836D01*
X157840346Y-68524454D01*
X157605096Y-68367264D01*
X157397646Y-68326000D01*
X157397641Y-68326000D01*
X157327600Y-68312068D01*
X157257559Y-68326000D01*
X152965138Y-68326000D01*
X153035000Y-68157338D01*
X153035000Y-67919600D01*
X157845812Y-67919600D01*
X162840367Y-72914155D01*
G36*
X147853400Y-68208138D02*
X147996476Y-68553554D01*
X148260846Y-68817924D01*
X148422299Y-68884800D01*
X148260846Y-68951676D01*
X147996476Y-69216046D01*
X147957301Y-69310623D01*
X147699954Y-69053276D01*
X147354538Y-68910200D01*
X146983307Y-68910200D01*
X147853400Y-68040107D01*
X147853400Y-68208138D01*
X147853400Y-68208138D01*
G37*
X147853400Y-68208138D02*
X147996476Y-68553554D01*
X148260846Y-68817924D01*
X148422299Y-68884800D01*
X148260846Y-68951676D01*
X147996476Y-69216046D01*
X147957301Y-69310623D01*
X147699954Y-69053276D01*
X147354538Y-68910200D01*
X146983307Y-68910200D01*
X147853400Y-68040107D01*
X147853400Y-68208138D01*
G36*
X151155400Y-68157338D02*
X151298476Y-68502754D01*
X151355591Y-68559869D01*
X151339578Y-68583833D01*
X150723600Y-69199812D01*
X150723600Y-68486678D01*
X150809124Y-68401154D01*
X150952200Y-68055738D01*
X150952200Y-67919600D01*
X151155400Y-67919600D01*
X151155400Y-68157338D01*
X151155400Y-68157338D01*
G37*
X151155400Y-68157338D02*
X151298476Y-68502754D01*
X151355591Y-68559869D01*
X151339578Y-68583833D01*
X150723600Y-69199812D01*
X150723600Y-68486678D01*
X150809124Y-68401154D01*
X150952200Y-68055738D01*
X150952200Y-67919600D01*
X151155400Y-67919600D01*
X151155400Y-68157338D01*
G36*
X163216575Y-53597825D02*
X163576001Y-53837986D01*
X163576000Y-63836359D01*
X163562068Y-63906400D01*
X163576000Y-63976441D01*
X163576000Y-63976445D01*
X163617264Y-64183895D01*
X163617265Y-64183896D01*
X163734776Y-64359764D01*
X163734778Y-64359766D01*
X163774454Y-64419145D01*
X163833834Y-64458822D01*
X166325576Y-66950564D01*
X166365254Y-67009946D01*
X166462982Y-67075246D01*
X166600502Y-67167135D01*
X166600503Y-67167135D01*
X166600504Y-67167136D01*
X166807954Y-67208400D01*
X166807961Y-67208400D01*
X166877999Y-67222331D01*
X166948037Y-67208400D01*
X177759412Y-67208400D01*
X178156567Y-67605555D01*
X178019276Y-67742846D01*
X177914499Y-67995800D01*
X165946478Y-67995800D01*
X165937154Y-67986476D01*
X165591738Y-67843400D01*
X165217862Y-67843400D01*
X164872446Y-67986476D01*
X164608076Y-68250846D01*
X164465000Y-68596262D01*
X164465000Y-68717211D01*
X162458400Y-66710612D01*
X162458400Y-53837985D01*
X162817825Y-53597825D01*
X163017200Y-53299439D01*
X163216575Y-53597825D01*
X163216575Y-53597825D01*
G37*
X163216575Y-53597825D02*
X163576001Y-53837986D01*
X163576000Y-63836359D01*
X163562068Y-63906400D01*
X163576000Y-63976441D01*
X163576000Y-63976445D01*
X163617264Y-64183895D01*
X163617265Y-64183896D01*
X163734776Y-64359764D01*
X163734778Y-64359766D01*
X163774454Y-64419145D01*
X163833834Y-64458822D01*
X166325576Y-66950564D01*
X166365254Y-67009946D01*
X166462982Y-67075246D01*
X166600502Y-67167135D01*
X166600503Y-67167135D01*
X166600504Y-67167136D01*
X166807954Y-67208400D01*
X166807961Y-67208400D01*
X166877999Y-67222331D01*
X166948037Y-67208400D01*
X177759412Y-67208400D01*
X178156567Y-67605555D01*
X178019276Y-67742846D01*
X177914499Y-67995800D01*
X165946478Y-67995800D01*
X165937154Y-67986476D01*
X165591738Y-67843400D01*
X165217862Y-67843400D01*
X164872446Y-67986476D01*
X164608076Y-68250846D01*
X164465000Y-68596262D01*
X164465000Y-68717211D01*
X162458400Y-66710612D01*
X162458400Y-53837985D01*
X162817825Y-53597825D01*
X163017200Y-53299439D01*
X163216575Y-53597825D01*
G36*
X160676575Y-53597825D02*
X161036001Y-53837986D01*
X161036000Y-66107918D01*
X159918400Y-64990318D01*
X159918400Y-53837985D01*
X160277825Y-53597825D01*
X160477200Y-53299439D01*
X160676575Y-53597825D01*
X160676575Y-53597825D01*
G37*
X160676575Y-53597825D02*
X161036001Y-53837986D01*
X161036000Y-66107918D01*
X159918400Y-64990318D01*
X159918400Y-53837985D01*
X160277825Y-53597825D01*
X160477200Y-53299439D01*
X160676575Y-53597825D01*
G36*
X168296575Y-53597825D02*
X168656001Y-53837986D01*
X168656000Y-60022641D01*
X168642068Y-60092682D01*
X168656000Y-60162723D01*
X168656000Y-60162727D01*
X168697264Y-60370177D01*
X168697265Y-60370178D01*
X168814776Y-60546046D01*
X168814778Y-60546048D01*
X168854454Y-60605427D01*
X168913834Y-60645104D01*
X173648329Y-65379600D01*
X168544189Y-65379600D01*
X167538400Y-64373812D01*
X167538400Y-53837985D01*
X167897825Y-53597825D01*
X168097200Y-53299439D01*
X168296575Y-53597825D01*
X168296575Y-53597825D01*
G37*
X168296575Y-53597825D02*
X168656001Y-53837986D01*
X168656000Y-60022641D01*
X168642068Y-60092682D01*
X168656000Y-60162723D01*
X168656000Y-60162727D01*
X168697264Y-60370177D01*
X168697265Y-60370178D01*
X168814776Y-60546046D01*
X168814778Y-60546048D01*
X168854454Y-60605427D01*
X168913834Y-60645104D01*
X173648329Y-65379600D01*
X168544189Y-65379600D01*
X167538400Y-64373812D01*
X167538400Y-53837985D01*
X167897825Y-53597825D01*
X168097200Y-53299439D01*
X168296575Y-53597825D01*
G36*
X155596575Y-53597825D02*
X155956001Y-53837986D01*
X155956000Y-63175959D01*
X155942068Y-63246000D01*
X155956000Y-63316041D01*
X155956000Y-63316045D01*
X155997264Y-63523495D01*
X155997265Y-63523496D01*
X156114776Y-63699364D01*
X156114778Y-63699366D01*
X156154454Y-63758745D01*
X156213834Y-63798422D01*
X157185411Y-64770000D01*
X156148989Y-64770000D01*
X154838400Y-63459412D01*
X154838400Y-54024640D01*
X154977200Y-54024640D01*
X155224965Y-53975357D01*
X155435009Y-53835009D01*
X155575357Y-53624965D01*
X155584384Y-53579581D01*
X155596575Y-53597825D01*
X155596575Y-53597825D01*
G37*
X155596575Y-53597825D02*
X155956001Y-53837986D01*
X155956000Y-63175959D01*
X155942068Y-63246000D01*
X155956000Y-63316041D01*
X155956000Y-63316045D01*
X155997264Y-63523495D01*
X155997265Y-63523496D01*
X156114776Y-63699364D01*
X156114778Y-63699366D01*
X156154454Y-63758745D01*
X156213834Y-63798422D01*
X157185411Y-64770000D01*
X156148989Y-64770000D01*
X154838400Y-63459412D01*
X154838400Y-54024640D01*
X154977200Y-54024640D01*
X155224965Y-53975357D01*
X155435009Y-53835009D01*
X155575357Y-53624965D01*
X155584384Y-53579581D01*
X155596575Y-53597825D01*
G36*
X165756575Y-53597825D02*
X166116001Y-53837986D01*
X166116000Y-64598359D01*
X166102068Y-64668400D01*
X166113758Y-64727170D01*
X164998400Y-63611812D01*
X164998400Y-53837985D01*
X165357825Y-53597825D01*
X165557200Y-53299439D01*
X165756575Y-53597825D01*
X165756575Y-53597825D01*
G37*
X165756575Y-53597825D02*
X166116001Y-53837986D01*
X166116000Y-64598359D01*
X166102068Y-64668400D01*
X166113758Y-64727170D01*
X164998400Y-63611812D01*
X164998400Y-53837985D01*
X165357825Y-53597825D01*
X165557200Y-53299439D01*
X165756575Y-53597825D01*
G36*
X158136575Y-53597825D02*
X158496001Y-53837986D01*
X158496000Y-64069011D01*
X157378400Y-62951412D01*
X157378400Y-53837985D01*
X157737825Y-53597825D01*
X157937200Y-53299439D01*
X158136575Y-53597825D01*
X158136575Y-53597825D01*
G37*
X158136575Y-53597825D02*
X158496001Y-53837986D01*
X158496000Y-64069011D01*
X157378400Y-62951412D01*
X157378400Y-53837985D01*
X157737825Y-53597825D01*
X157937200Y-53299439D01*
X158136575Y-53597825D01*
M02*
