M48
;DRILL file {KiCad (5.0.1)-4} date 11/11/2019 4:37:48 PM
;FORMAT={-:-/ absolute / metric / decimal}
FMAT,2
METRIC,TZ
T1C0.305
T2C0.920
T3C1.000
T4C2.300
%
G90
G05
M71
T1
X123.292Y-91.034
X125.324Y-89.154
X126.644Y-80.721
X126.644Y-87.408
X128.321Y-71.933
X128.524Y-87.528
X129.134Y-83.566
X131.013Y-56.998
X131.42Y-80.975
X132.182Y-54.61
X132.842Y-97.638
X132.944Y-80.569
X133.248Y-95.381
X133.604Y-88.951
X133.909Y-81.89
X134.167Y-97.384
X134.264Y-76.657
X134.366Y-69.19
X134.468Y-66.294
X134.468Y-72.288
X134.468Y-74.879
X135.585Y-96.825
X135.941Y-67.462
X135.941Y-68.885
X135.941Y-70.358
X136.5Y-80.569
X137.312Y-61.62
X138.227Y-70.968
X138.379Y-78.334
X138.786Y-64.973
X138.938Y-69.494
X139.649Y-63.703
X139.7Y-85.039
X141.224Y-62.992
X141.275Y-67.564
X142.392Y-84.023
X142.799Y-67.92
X142.85Y-66.7
X143.307Y-76.098
X143.358Y-89.205
X143.662Y-61.976
X145.085Y-65.532
X145.39Y-71.984
X145.694Y-89.256
X146.05Y-83.718
X146.914Y-77.775
X147.168Y-69.85
X147.168Y-71.679
X147.218Y-74.32
X147.574Y-86.919
X147.625Y-79.096
X147.828Y-91.288
X147.98Y-68.428
X148.082Y-65.735
X148.234Y-85.09
X148.336Y-95.453
X148.59Y-72.695
X148.641Y-76.505
X148.692Y-93.421
X148.793Y-68.021
X148.793Y-69.748
X149.911Y-63.754
X150.012Y-67.869
X150.368Y-89.662
X150.673Y-70.256
X150.978Y-65.532
X151.028Y-68.732
X151.657Y-80.823
X152.095Y-67.97
X152.552Y-74.625
X153.111Y-78.435
X153.162Y-73.101
X153.213Y-76.06
X153.365Y-63.906
X153.365Y-85.446
X154.94Y-81.636
X155.397Y-70.968
X155.6Y-54.915
X156.972Y-87.02
X157.023Y-99.67
X157.023Y-101.498
X157.074Y-79.4
X157.836Y-80.112
X157.937Y-76.708
X157.988Y-54.864
X158.14Y-97.841
X158.902Y-69.342
X159.207Y-85.344
X159.309Y-74.168
X159.359Y-77.013
X159.461Y-78.943
X159.485Y-94.056
X160.68Y-54.864
X160.833Y-84.125
X160.985Y-96.571
X161.29Y-92.71
X161.9Y-81.026
X163.22Y-54.813
X163.424Y-73.66
X163.678Y-84.785
X163.881Y-81.839
X164.084Y-99.263
X164.948Y-80.315
X165.252Y-89.713
X165.405Y-68.783
X165.659Y-74.066
X165.811Y-54.813
X165.964Y-86.36
X166.37Y-73.457
X166.675Y-70.51
X166.951Y-72.666
X167.284Y-93.472
X167.284Y-94.894
X167.589Y-72.034
X167.697Y-100.832
X168.097Y-89.916
X168.199Y-71.374
X168.25Y-54.813
X169.113Y-78.74
X169.367Y-99.162
X169.824Y-100.889
X170.18Y-78.029
X170.18Y-82.855
X170.942Y-76.098
X171.094Y-77.216
X171.45Y-91.948
X172.11Y-76.302
X172.314Y-95.148
X173.279Y-83.972
X173.634Y-77.114
X174.144Y-78.18
X174.346Y-73.558
X174.65Y-67.767
X174.701Y-64.567
X175.565Y-80.569
X176.327Y-88.036
X176.53Y-68.072
X176.581Y-63.551
X177.343Y-74.778
X177.394Y-90.729
X177.698Y-97.587
X178.132Y-75.997
X178.257Y-64.465
X178.816Y-68.275
X179.375Y-70.968
X179.629Y-76.759
X179.629Y-96.926
X180.289Y-87.986
X181.559Y-79.146
X182.372Y-76.962
X183.642Y-96.164
X184.201Y-82.753
X185.166Y-70.155
X185.318Y-83.871
X185.369Y-65.43
X185.369Y-67.615
X185.522Y-88.748
X186.487Y-92.1
X186.741Y-61.417
X187.401Y-81.94
X188.417Y-68.936
X188.417Y-74.625
X190.652Y-62.636
X191.516Y-80.975
X191.922Y-74.27
X191.973Y-94.031
X192.38Y-71.12
X192.38Y-79.146
X192.481Y-59.893
X192.989Y-58.318
X192.989Y-68.466
X193.954Y-56.439
X194.208Y-86.614
X196.545Y-92.558
X196.647Y-63.246
X196.647Y-66.04
X197.815Y-74.32
X200.203Y-63.906
X200.457Y-77.368
X201.168Y-90.78
X201.727Y-70.002
X202.032Y-67.158
X202.844Y-74.625
X204.419Y-67.412
X204.724Y-72.542
X204.775Y-73.863
X205.08Y-80.772
X205.903Y-97.259
X205.943Y-75.895
X206.756Y-80.874
X207.112Y-82.652
X207.721Y-79.604
X209.296Y-82.499
X210.261Y-72.937
X210.718Y-69.393
X210.922Y-74.71
X214.63Y-69.088
X215.036Y-77.521
X215.24Y-73.05
X215.494Y-75.641
X216.967Y-75.235
X217.932Y-79.756
X219.507Y-78.181
X221.64Y-75.946
X221.793Y-73.558
T2
X125.578Y-53.289
X125.578Y-55.789
X127.578Y-53.289
X127.578Y-55.789
X209.488Y-95.512
X209.488Y-98.012
X211.488Y-95.512
X211.488Y-98.012
T3
X202.629Y-95.661
X202.629Y-98.201
X202.336Y-85.852
X204.876Y-85.852
X207.416Y-85.852
X209.956Y-85.852
X212.496Y-85.852
X215.036Y-85.852
X217.576Y-85.852
X138.938Y-98.806
X141.478Y-98.806
X144.018Y-98.806
X146.558Y-98.806
X149.098Y-98.806
X151.638Y-98.806
X154.178Y-98.806
X131.877Y-60.554
X131.877Y-63.094
X131.877Y-65.634
X131.877Y-68.174
X131.877Y-70.714
X131.877Y-73.254
X131.877Y-75.794
X154.127Y-52.527
X156.667Y-52.527
X159.207Y-52.527
X161.747Y-52.527
X164.287Y-52.527
X166.827Y-52.527
X169.367Y-52.527
T4
X122.868Y-48.479
X122.868Y-60.519
X214.198Y-90.782
X214.198Y-102.822
T0
M30
