G04 #@! TF.GenerationSoftware,KiCad,Pcbnew,(5.1.4)-1*
G04 #@! TF.CreationDate,2019-11-11T16:34:49-05:00*
G04 #@! TF.ProjectId,photodiode,70686f74-6f64-4696-9f64-652e6b696361,rev?*
G04 #@! TF.SameCoordinates,Original*
G04 #@! TF.FileFunction,Copper,L1,Top*
G04 #@! TF.FilePolarity,Positive*
%FSLAX46Y46*%
G04 Gerber Fmt 4.6, Leading zero omitted, Abs format (unit mm)*
G04 Created by KiCad (PCBNEW (5.1.4)-1) date 2019-11-11 16:34:49*
%MOMM*%
%LPD*%
G04 APERTURE LIST*
%ADD10R,1.700000X1.700000*%
%ADD11O,1.700000X1.700000*%
%ADD12C,0.100000*%
%ADD13C,0.975000*%
%ADD14C,0.800000*%
%ADD15C,0.250000*%
%ADD16C,0.254000*%
G04 APERTURE END LIST*
D10*
X111760000Y-69850000D03*
D11*
X111760000Y-72390000D03*
D10*
X104140000Y-71675001D03*
D11*
X104140000Y-74215001D03*
X104140000Y-76755001D03*
D12*
G36*
X111090142Y-76771174D02*
G01*
X111113803Y-76774684D01*
X111137007Y-76780496D01*
X111159529Y-76788554D01*
X111181153Y-76798782D01*
X111201670Y-76811079D01*
X111220883Y-76825329D01*
X111238607Y-76841393D01*
X111254671Y-76859117D01*
X111268921Y-76878330D01*
X111281218Y-76898847D01*
X111291446Y-76920471D01*
X111299504Y-76942993D01*
X111305316Y-76966197D01*
X111308826Y-76989858D01*
X111310000Y-77013750D01*
X111310000Y-77926250D01*
X111308826Y-77950142D01*
X111305316Y-77973803D01*
X111299504Y-77997007D01*
X111291446Y-78019529D01*
X111281218Y-78041153D01*
X111268921Y-78061670D01*
X111254671Y-78080883D01*
X111238607Y-78098607D01*
X111220883Y-78114671D01*
X111201670Y-78128921D01*
X111181153Y-78141218D01*
X111159529Y-78151446D01*
X111137007Y-78159504D01*
X111113803Y-78165316D01*
X111090142Y-78168826D01*
X111066250Y-78170000D01*
X110578750Y-78170000D01*
X110554858Y-78168826D01*
X110531197Y-78165316D01*
X110507993Y-78159504D01*
X110485471Y-78151446D01*
X110463847Y-78141218D01*
X110443330Y-78128921D01*
X110424117Y-78114671D01*
X110406393Y-78098607D01*
X110390329Y-78080883D01*
X110376079Y-78061670D01*
X110363782Y-78041153D01*
X110353554Y-78019529D01*
X110345496Y-77997007D01*
X110339684Y-77973803D01*
X110336174Y-77950142D01*
X110335000Y-77926250D01*
X110335000Y-77013750D01*
X110336174Y-76989858D01*
X110339684Y-76966197D01*
X110345496Y-76942993D01*
X110353554Y-76920471D01*
X110363782Y-76898847D01*
X110376079Y-76878330D01*
X110390329Y-76859117D01*
X110406393Y-76841393D01*
X110424117Y-76825329D01*
X110443330Y-76811079D01*
X110463847Y-76798782D01*
X110485471Y-76788554D01*
X110507993Y-76780496D01*
X110531197Y-76774684D01*
X110554858Y-76771174D01*
X110578750Y-76770000D01*
X111066250Y-76770000D01*
X111090142Y-76771174D01*
X111090142Y-76771174D01*
G37*
D13*
X110822500Y-77470000D03*
D12*
G36*
X112965142Y-76771174D02*
G01*
X112988803Y-76774684D01*
X113012007Y-76780496D01*
X113034529Y-76788554D01*
X113056153Y-76798782D01*
X113076670Y-76811079D01*
X113095883Y-76825329D01*
X113113607Y-76841393D01*
X113129671Y-76859117D01*
X113143921Y-76878330D01*
X113156218Y-76898847D01*
X113166446Y-76920471D01*
X113174504Y-76942993D01*
X113180316Y-76966197D01*
X113183826Y-76989858D01*
X113185000Y-77013750D01*
X113185000Y-77926250D01*
X113183826Y-77950142D01*
X113180316Y-77973803D01*
X113174504Y-77997007D01*
X113166446Y-78019529D01*
X113156218Y-78041153D01*
X113143921Y-78061670D01*
X113129671Y-78080883D01*
X113113607Y-78098607D01*
X113095883Y-78114671D01*
X113076670Y-78128921D01*
X113056153Y-78141218D01*
X113034529Y-78151446D01*
X113012007Y-78159504D01*
X112988803Y-78165316D01*
X112965142Y-78168826D01*
X112941250Y-78170000D01*
X112453750Y-78170000D01*
X112429858Y-78168826D01*
X112406197Y-78165316D01*
X112382993Y-78159504D01*
X112360471Y-78151446D01*
X112338847Y-78141218D01*
X112318330Y-78128921D01*
X112299117Y-78114671D01*
X112281393Y-78098607D01*
X112265329Y-78080883D01*
X112251079Y-78061670D01*
X112238782Y-78041153D01*
X112228554Y-78019529D01*
X112220496Y-77997007D01*
X112214684Y-77973803D01*
X112211174Y-77950142D01*
X112210000Y-77926250D01*
X112210000Y-77013750D01*
X112211174Y-76989858D01*
X112214684Y-76966197D01*
X112220496Y-76942993D01*
X112228554Y-76920471D01*
X112238782Y-76898847D01*
X112251079Y-76878330D01*
X112265329Y-76859117D01*
X112281393Y-76841393D01*
X112299117Y-76825329D01*
X112318330Y-76811079D01*
X112338847Y-76798782D01*
X112360471Y-76788554D01*
X112382993Y-76780496D01*
X112406197Y-76774684D01*
X112429858Y-76771174D01*
X112453750Y-76770000D01*
X112941250Y-76770000D01*
X112965142Y-76771174D01*
X112965142Y-76771174D01*
G37*
D13*
X112697500Y-77470000D03*
D14*
X109220000Y-74930000D03*
D15*
X104140000Y-70575001D02*
X104140000Y-71675001D01*
X104865001Y-69850000D02*
X104140000Y-70575001D01*
X111760000Y-69850000D02*
X104865001Y-69850000D01*
X112697500Y-73327500D02*
X111760000Y-72390000D01*
X112697500Y-77470000D02*
X112697500Y-73327500D01*
X107394999Y-74215001D02*
X104140000Y-74215001D01*
X111760000Y-72390000D02*
X109220000Y-72390000D01*
X109220000Y-72390000D02*
X107394999Y-74215001D01*
X110107501Y-76755001D02*
X110822500Y-77470000D01*
X104140000Y-76755001D02*
X110107501Y-76755001D01*
D16*
G36*
X112854544Y-66011856D02*
G01*
X112688377Y-66413019D01*
X112603666Y-66838892D01*
X112603666Y-67273108D01*
X112688377Y-67698981D01*
X112854544Y-68100144D01*
X113095782Y-68461181D01*
X113402819Y-68768218D01*
X113763856Y-69009456D01*
X114165019Y-69175623D01*
X114590892Y-69260334D01*
X115025108Y-69260334D01*
X115450981Y-69175623D01*
X115852144Y-69009456D01*
X116145000Y-68813775D01*
X116145001Y-79061000D01*
X99247000Y-79061000D01*
X99247000Y-74215001D01*
X102647815Y-74215001D01*
X102676487Y-74506112D01*
X102761401Y-74786035D01*
X102899294Y-75044015D01*
X103084866Y-75270135D01*
X103310986Y-75455707D01*
X103365791Y-75485001D01*
X103310986Y-75514295D01*
X103084866Y-75699867D01*
X102899294Y-75925987D01*
X102761401Y-76183967D01*
X102676487Y-76463890D01*
X102647815Y-76755001D01*
X102676487Y-77046112D01*
X102761401Y-77326035D01*
X102899294Y-77584015D01*
X103084866Y-77810135D01*
X103310986Y-77995707D01*
X103568966Y-78133600D01*
X103848889Y-78218514D01*
X104067050Y-78240001D01*
X104212950Y-78240001D01*
X104431111Y-78218514D01*
X104711034Y-78133600D01*
X104969014Y-77995707D01*
X105195134Y-77810135D01*
X105380706Y-77584015D01*
X105417595Y-77515001D01*
X109696928Y-77515001D01*
X109696928Y-77926250D01*
X109713872Y-78098285D01*
X109764053Y-78263709D01*
X109845542Y-78416164D01*
X109955208Y-78549792D01*
X110088836Y-78659458D01*
X110241291Y-78740947D01*
X110406715Y-78791128D01*
X110578750Y-78808072D01*
X111066250Y-78808072D01*
X111238285Y-78791128D01*
X111403709Y-78740947D01*
X111556164Y-78659458D01*
X111689792Y-78549792D01*
X111760000Y-78464244D01*
X111830208Y-78549792D01*
X111963836Y-78659458D01*
X112116291Y-78740947D01*
X112281715Y-78791128D01*
X112453750Y-78808072D01*
X112941250Y-78808072D01*
X113113285Y-78791128D01*
X113278709Y-78740947D01*
X113431164Y-78659458D01*
X113564792Y-78549792D01*
X113674458Y-78416164D01*
X113755947Y-78263709D01*
X113806128Y-78098285D01*
X113823072Y-77926250D01*
X113823072Y-77013750D01*
X113806128Y-76841715D01*
X113755947Y-76676291D01*
X113674458Y-76523836D01*
X113564792Y-76390208D01*
X113457500Y-76302155D01*
X113457500Y-73364822D01*
X113461176Y-73327499D01*
X113457500Y-73290176D01*
X113457500Y-73290167D01*
X113446503Y-73178514D01*
X113403046Y-73035253D01*
X113332474Y-72903224D01*
X113237501Y-72787499D01*
X113208503Y-72763701D01*
X113200797Y-72755995D01*
X113223513Y-72681111D01*
X113252185Y-72390000D01*
X113223513Y-72098889D01*
X113138599Y-71818966D01*
X113000706Y-71560986D01*
X112815134Y-71334866D01*
X112785313Y-71310393D01*
X112854180Y-71289502D01*
X112964494Y-71230537D01*
X113061185Y-71151185D01*
X113140537Y-71054494D01*
X113199502Y-70944180D01*
X113235812Y-70824482D01*
X113248072Y-70700000D01*
X113245000Y-70135750D01*
X113086250Y-69977000D01*
X111887000Y-69977000D01*
X111887000Y-69997000D01*
X111633000Y-69997000D01*
X111633000Y-69977000D01*
X110433750Y-69977000D01*
X110275000Y-70135750D01*
X110271928Y-70700000D01*
X110284188Y-70824482D01*
X110320498Y-70944180D01*
X110379463Y-71054494D01*
X110458815Y-71151185D01*
X110555506Y-71230537D01*
X110665820Y-71289502D01*
X110734687Y-71310393D01*
X110704866Y-71334866D01*
X110519294Y-71560986D01*
X110482405Y-71630000D01*
X109257322Y-71630000D01*
X109219999Y-71626324D01*
X109182676Y-71630000D01*
X109182667Y-71630000D01*
X109071014Y-71640997D01*
X108927753Y-71684454D01*
X108795724Y-71755026D01*
X108679999Y-71849999D01*
X108656201Y-71878997D01*
X107080198Y-73455001D01*
X105417595Y-73455001D01*
X105380706Y-73385987D01*
X105195134Y-73159867D01*
X105165313Y-73135394D01*
X105234180Y-73114503D01*
X105344494Y-73055538D01*
X105441185Y-72976186D01*
X105520537Y-72879495D01*
X105579502Y-72769181D01*
X105615812Y-72649483D01*
X105628072Y-72525001D01*
X105625000Y-71960751D01*
X105466250Y-71802001D01*
X104267000Y-71802001D01*
X104267000Y-71822001D01*
X104013000Y-71822001D01*
X104013000Y-71802001D01*
X102813750Y-71802001D01*
X102655000Y-71960751D01*
X102651928Y-72525001D01*
X102664188Y-72649483D01*
X102700498Y-72769181D01*
X102759463Y-72879495D01*
X102838815Y-72976186D01*
X102935506Y-73055538D01*
X103045820Y-73114503D01*
X103114687Y-73135394D01*
X103084866Y-73159867D01*
X102899294Y-73385987D01*
X102761401Y-73643967D01*
X102676487Y-73923890D01*
X102647815Y-74215001D01*
X99247000Y-74215001D01*
X99247000Y-70825001D01*
X102651928Y-70825001D01*
X102655000Y-71389251D01*
X102813750Y-71548001D01*
X104013000Y-71548001D01*
X104013000Y-70348751D01*
X104267000Y-70348751D01*
X104267000Y-71548001D01*
X105466250Y-71548001D01*
X105625000Y-71389251D01*
X105628072Y-70825001D01*
X105615812Y-70700519D01*
X105579502Y-70580821D01*
X105520537Y-70470507D01*
X105441185Y-70373816D01*
X105344494Y-70294464D01*
X105234180Y-70235499D01*
X105114482Y-70199189D01*
X104990000Y-70186929D01*
X104425750Y-70190001D01*
X104267000Y-70348751D01*
X104013000Y-70348751D01*
X103854250Y-70190001D01*
X103290000Y-70186929D01*
X103165518Y-70199189D01*
X103045820Y-70235499D01*
X102935506Y-70294464D01*
X102838815Y-70373816D01*
X102759463Y-70470507D01*
X102700498Y-70580821D01*
X102664188Y-70700519D01*
X102651928Y-70825001D01*
X99247000Y-70825001D01*
X99247000Y-68813775D01*
X99539856Y-69009456D01*
X99941019Y-69175623D01*
X100366892Y-69260334D01*
X100801108Y-69260334D01*
X101226981Y-69175623D01*
X101628144Y-69009456D01*
X101642295Y-69000000D01*
X110271928Y-69000000D01*
X110275000Y-69564250D01*
X110433750Y-69723000D01*
X111633000Y-69723000D01*
X111633000Y-68523750D01*
X111887000Y-68523750D01*
X111887000Y-69723000D01*
X113086250Y-69723000D01*
X113245000Y-69564250D01*
X113248072Y-69000000D01*
X113235812Y-68875518D01*
X113199502Y-68755820D01*
X113140537Y-68645506D01*
X113061185Y-68548815D01*
X112964494Y-68469463D01*
X112854180Y-68410498D01*
X112734482Y-68374188D01*
X112610000Y-68361928D01*
X112045750Y-68365000D01*
X111887000Y-68523750D01*
X111633000Y-68523750D01*
X111474250Y-68365000D01*
X110910000Y-68361928D01*
X110785518Y-68374188D01*
X110665820Y-68410498D01*
X110555506Y-68469463D01*
X110458815Y-68548815D01*
X110379463Y-68645506D01*
X110320498Y-68755820D01*
X110284188Y-68875518D01*
X110271928Y-69000000D01*
X101642295Y-69000000D01*
X101989181Y-68768218D01*
X102296218Y-68461181D01*
X102537456Y-68100144D01*
X102703623Y-67698981D01*
X102788334Y-67273108D01*
X102788334Y-66838892D01*
X102703623Y-66413019D01*
X102537456Y-66011856D01*
X102341775Y-65719000D01*
X113050225Y-65719000D01*
X112854544Y-66011856D01*
X112854544Y-66011856D01*
G37*
X112854544Y-66011856D02*
X112688377Y-66413019D01*
X112603666Y-66838892D01*
X112603666Y-67273108D01*
X112688377Y-67698981D01*
X112854544Y-68100144D01*
X113095782Y-68461181D01*
X113402819Y-68768218D01*
X113763856Y-69009456D01*
X114165019Y-69175623D01*
X114590892Y-69260334D01*
X115025108Y-69260334D01*
X115450981Y-69175623D01*
X115852144Y-69009456D01*
X116145000Y-68813775D01*
X116145001Y-79061000D01*
X99247000Y-79061000D01*
X99247000Y-74215001D01*
X102647815Y-74215001D01*
X102676487Y-74506112D01*
X102761401Y-74786035D01*
X102899294Y-75044015D01*
X103084866Y-75270135D01*
X103310986Y-75455707D01*
X103365791Y-75485001D01*
X103310986Y-75514295D01*
X103084866Y-75699867D01*
X102899294Y-75925987D01*
X102761401Y-76183967D01*
X102676487Y-76463890D01*
X102647815Y-76755001D01*
X102676487Y-77046112D01*
X102761401Y-77326035D01*
X102899294Y-77584015D01*
X103084866Y-77810135D01*
X103310986Y-77995707D01*
X103568966Y-78133600D01*
X103848889Y-78218514D01*
X104067050Y-78240001D01*
X104212950Y-78240001D01*
X104431111Y-78218514D01*
X104711034Y-78133600D01*
X104969014Y-77995707D01*
X105195134Y-77810135D01*
X105380706Y-77584015D01*
X105417595Y-77515001D01*
X109696928Y-77515001D01*
X109696928Y-77926250D01*
X109713872Y-78098285D01*
X109764053Y-78263709D01*
X109845542Y-78416164D01*
X109955208Y-78549792D01*
X110088836Y-78659458D01*
X110241291Y-78740947D01*
X110406715Y-78791128D01*
X110578750Y-78808072D01*
X111066250Y-78808072D01*
X111238285Y-78791128D01*
X111403709Y-78740947D01*
X111556164Y-78659458D01*
X111689792Y-78549792D01*
X111760000Y-78464244D01*
X111830208Y-78549792D01*
X111963836Y-78659458D01*
X112116291Y-78740947D01*
X112281715Y-78791128D01*
X112453750Y-78808072D01*
X112941250Y-78808072D01*
X113113285Y-78791128D01*
X113278709Y-78740947D01*
X113431164Y-78659458D01*
X113564792Y-78549792D01*
X113674458Y-78416164D01*
X113755947Y-78263709D01*
X113806128Y-78098285D01*
X113823072Y-77926250D01*
X113823072Y-77013750D01*
X113806128Y-76841715D01*
X113755947Y-76676291D01*
X113674458Y-76523836D01*
X113564792Y-76390208D01*
X113457500Y-76302155D01*
X113457500Y-73364822D01*
X113461176Y-73327499D01*
X113457500Y-73290176D01*
X113457500Y-73290167D01*
X113446503Y-73178514D01*
X113403046Y-73035253D01*
X113332474Y-72903224D01*
X113237501Y-72787499D01*
X113208503Y-72763701D01*
X113200797Y-72755995D01*
X113223513Y-72681111D01*
X113252185Y-72390000D01*
X113223513Y-72098889D01*
X113138599Y-71818966D01*
X113000706Y-71560986D01*
X112815134Y-71334866D01*
X112785313Y-71310393D01*
X112854180Y-71289502D01*
X112964494Y-71230537D01*
X113061185Y-71151185D01*
X113140537Y-71054494D01*
X113199502Y-70944180D01*
X113235812Y-70824482D01*
X113248072Y-70700000D01*
X113245000Y-70135750D01*
X113086250Y-69977000D01*
X111887000Y-69977000D01*
X111887000Y-69997000D01*
X111633000Y-69997000D01*
X111633000Y-69977000D01*
X110433750Y-69977000D01*
X110275000Y-70135750D01*
X110271928Y-70700000D01*
X110284188Y-70824482D01*
X110320498Y-70944180D01*
X110379463Y-71054494D01*
X110458815Y-71151185D01*
X110555506Y-71230537D01*
X110665820Y-71289502D01*
X110734687Y-71310393D01*
X110704866Y-71334866D01*
X110519294Y-71560986D01*
X110482405Y-71630000D01*
X109257322Y-71630000D01*
X109219999Y-71626324D01*
X109182676Y-71630000D01*
X109182667Y-71630000D01*
X109071014Y-71640997D01*
X108927753Y-71684454D01*
X108795724Y-71755026D01*
X108679999Y-71849999D01*
X108656201Y-71878997D01*
X107080198Y-73455001D01*
X105417595Y-73455001D01*
X105380706Y-73385987D01*
X105195134Y-73159867D01*
X105165313Y-73135394D01*
X105234180Y-73114503D01*
X105344494Y-73055538D01*
X105441185Y-72976186D01*
X105520537Y-72879495D01*
X105579502Y-72769181D01*
X105615812Y-72649483D01*
X105628072Y-72525001D01*
X105625000Y-71960751D01*
X105466250Y-71802001D01*
X104267000Y-71802001D01*
X104267000Y-71822001D01*
X104013000Y-71822001D01*
X104013000Y-71802001D01*
X102813750Y-71802001D01*
X102655000Y-71960751D01*
X102651928Y-72525001D01*
X102664188Y-72649483D01*
X102700498Y-72769181D01*
X102759463Y-72879495D01*
X102838815Y-72976186D01*
X102935506Y-73055538D01*
X103045820Y-73114503D01*
X103114687Y-73135394D01*
X103084866Y-73159867D01*
X102899294Y-73385987D01*
X102761401Y-73643967D01*
X102676487Y-73923890D01*
X102647815Y-74215001D01*
X99247000Y-74215001D01*
X99247000Y-70825001D01*
X102651928Y-70825001D01*
X102655000Y-71389251D01*
X102813750Y-71548001D01*
X104013000Y-71548001D01*
X104013000Y-70348751D01*
X104267000Y-70348751D01*
X104267000Y-71548001D01*
X105466250Y-71548001D01*
X105625000Y-71389251D01*
X105628072Y-70825001D01*
X105615812Y-70700519D01*
X105579502Y-70580821D01*
X105520537Y-70470507D01*
X105441185Y-70373816D01*
X105344494Y-70294464D01*
X105234180Y-70235499D01*
X105114482Y-70199189D01*
X104990000Y-70186929D01*
X104425750Y-70190001D01*
X104267000Y-70348751D01*
X104013000Y-70348751D01*
X103854250Y-70190001D01*
X103290000Y-70186929D01*
X103165518Y-70199189D01*
X103045820Y-70235499D01*
X102935506Y-70294464D01*
X102838815Y-70373816D01*
X102759463Y-70470507D01*
X102700498Y-70580821D01*
X102664188Y-70700519D01*
X102651928Y-70825001D01*
X99247000Y-70825001D01*
X99247000Y-68813775D01*
X99539856Y-69009456D01*
X99941019Y-69175623D01*
X100366892Y-69260334D01*
X100801108Y-69260334D01*
X101226981Y-69175623D01*
X101628144Y-69009456D01*
X101642295Y-69000000D01*
X110271928Y-69000000D01*
X110275000Y-69564250D01*
X110433750Y-69723000D01*
X111633000Y-69723000D01*
X111633000Y-68523750D01*
X111887000Y-68523750D01*
X111887000Y-69723000D01*
X113086250Y-69723000D01*
X113245000Y-69564250D01*
X113248072Y-69000000D01*
X113235812Y-68875518D01*
X113199502Y-68755820D01*
X113140537Y-68645506D01*
X113061185Y-68548815D01*
X112964494Y-68469463D01*
X112854180Y-68410498D01*
X112734482Y-68374188D01*
X112610000Y-68361928D01*
X112045750Y-68365000D01*
X111887000Y-68523750D01*
X111633000Y-68523750D01*
X111474250Y-68365000D01*
X110910000Y-68361928D01*
X110785518Y-68374188D01*
X110665820Y-68410498D01*
X110555506Y-68469463D01*
X110458815Y-68548815D01*
X110379463Y-68645506D01*
X110320498Y-68755820D01*
X110284188Y-68875518D01*
X110271928Y-69000000D01*
X101642295Y-69000000D01*
X101989181Y-68768218D01*
X102296218Y-68461181D01*
X102537456Y-68100144D01*
X102703623Y-67698981D01*
X102788334Y-67273108D01*
X102788334Y-66838892D01*
X102703623Y-66413019D01*
X102537456Y-66011856D01*
X102341775Y-65719000D01*
X113050225Y-65719000D01*
X112854544Y-66011856D01*
G36*
X110519294Y-73219014D02*
G01*
X110704866Y-73445134D01*
X110930986Y-73630706D01*
X111188966Y-73768599D01*
X111468889Y-73853513D01*
X111687050Y-73875000D01*
X111832950Y-73875000D01*
X111937501Y-73864703D01*
X111937500Y-76302155D01*
X111830208Y-76390208D01*
X111760000Y-76475756D01*
X111689792Y-76390208D01*
X111556164Y-76280542D01*
X111403709Y-76199053D01*
X111238285Y-76148872D01*
X111066250Y-76131928D01*
X110578750Y-76131928D01*
X110549758Y-76134783D01*
X110531777Y-76120027D01*
X110399748Y-76049455D01*
X110256487Y-76005998D01*
X110144834Y-75995001D01*
X110144823Y-75995001D01*
X110107501Y-75991325D01*
X110070179Y-75995001D01*
X105417595Y-75995001D01*
X105380706Y-75925987D01*
X105195134Y-75699867D01*
X104969014Y-75514295D01*
X104914209Y-75485001D01*
X104969014Y-75455707D01*
X105195134Y-75270135D01*
X105380706Y-75044015D01*
X105417595Y-74975001D01*
X107357677Y-74975001D01*
X107394999Y-74978677D01*
X107432321Y-74975001D01*
X107432332Y-74975001D01*
X107543985Y-74964004D01*
X107687246Y-74920547D01*
X107819275Y-74849975D01*
X107935000Y-74755002D01*
X107958803Y-74725998D01*
X109534802Y-73150000D01*
X110482405Y-73150000D01*
X110519294Y-73219014D01*
X110519294Y-73219014D01*
G37*
X110519294Y-73219014D02*
X110704866Y-73445134D01*
X110930986Y-73630706D01*
X111188966Y-73768599D01*
X111468889Y-73853513D01*
X111687050Y-73875000D01*
X111832950Y-73875000D01*
X111937501Y-73864703D01*
X111937500Y-76302155D01*
X111830208Y-76390208D01*
X111760000Y-76475756D01*
X111689792Y-76390208D01*
X111556164Y-76280542D01*
X111403709Y-76199053D01*
X111238285Y-76148872D01*
X111066250Y-76131928D01*
X110578750Y-76131928D01*
X110549758Y-76134783D01*
X110531777Y-76120027D01*
X110399748Y-76049455D01*
X110256487Y-76005998D01*
X110144834Y-75995001D01*
X110144823Y-75995001D01*
X110107501Y-75991325D01*
X110070179Y-75995001D01*
X105417595Y-75995001D01*
X105380706Y-75925987D01*
X105195134Y-75699867D01*
X104969014Y-75514295D01*
X104914209Y-75485001D01*
X104969014Y-75455707D01*
X105195134Y-75270135D01*
X105380706Y-75044015D01*
X105417595Y-74975001D01*
X107357677Y-74975001D01*
X107394999Y-74978677D01*
X107432321Y-74975001D01*
X107432332Y-74975001D01*
X107543985Y-74964004D01*
X107687246Y-74920547D01*
X107819275Y-74849975D01*
X107935000Y-74755002D01*
X107958803Y-74725998D01*
X109534802Y-73150000D01*
X110482405Y-73150000D01*
X110519294Y-73219014D01*
M02*
