G04 #@! TF.GenerationSoftware,KiCad,Pcbnew,(5.1.4)-1*
G04 #@! TF.CreationDate,2019-11-11T16:34:49-05:00*
G04 #@! TF.ProjectId,photodiode,70686f74-6f64-4696-9f64-652e6b696361,rev?*
G04 #@! TF.SameCoordinates,Original*
G04 #@! TF.FileFunction,Paste,Top*
G04 #@! TF.FilePolarity,Positive*
%FSLAX46Y46*%
G04 Gerber Fmt 4.6, Leading zero omitted, Abs format (unit mm)*
G04 Created by KiCad (PCBNEW (5.1.4)-1) date 2019-11-11 16:34:49*
%MOMM*%
%LPD*%
G04 APERTURE LIST*
%ADD10C,0.100000*%
%ADD11C,0.975000*%
G04 APERTURE END LIST*
D10*
G36*
X111090142Y-76771174D02*
G01*
X111113803Y-76774684D01*
X111137007Y-76780496D01*
X111159529Y-76788554D01*
X111181153Y-76798782D01*
X111201670Y-76811079D01*
X111220883Y-76825329D01*
X111238607Y-76841393D01*
X111254671Y-76859117D01*
X111268921Y-76878330D01*
X111281218Y-76898847D01*
X111291446Y-76920471D01*
X111299504Y-76942993D01*
X111305316Y-76966197D01*
X111308826Y-76989858D01*
X111310000Y-77013750D01*
X111310000Y-77926250D01*
X111308826Y-77950142D01*
X111305316Y-77973803D01*
X111299504Y-77997007D01*
X111291446Y-78019529D01*
X111281218Y-78041153D01*
X111268921Y-78061670D01*
X111254671Y-78080883D01*
X111238607Y-78098607D01*
X111220883Y-78114671D01*
X111201670Y-78128921D01*
X111181153Y-78141218D01*
X111159529Y-78151446D01*
X111137007Y-78159504D01*
X111113803Y-78165316D01*
X111090142Y-78168826D01*
X111066250Y-78170000D01*
X110578750Y-78170000D01*
X110554858Y-78168826D01*
X110531197Y-78165316D01*
X110507993Y-78159504D01*
X110485471Y-78151446D01*
X110463847Y-78141218D01*
X110443330Y-78128921D01*
X110424117Y-78114671D01*
X110406393Y-78098607D01*
X110390329Y-78080883D01*
X110376079Y-78061670D01*
X110363782Y-78041153D01*
X110353554Y-78019529D01*
X110345496Y-77997007D01*
X110339684Y-77973803D01*
X110336174Y-77950142D01*
X110335000Y-77926250D01*
X110335000Y-77013750D01*
X110336174Y-76989858D01*
X110339684Y-76966197D01*
X110345496Y-76942993D01*
X110353554Y-76920471D01*
X110363782Y-76898847D01*
X110376079Y-76878330D01*
X110390329Y-76859117D01*
X110406393Y-76841393D01*
X110424117Y-76825329D01*
X110443330Y-76811079D01*
X110463847Y-76798782D01*
X110485471Y-76788554D01*
X110507993Y-76780496D01*
X110531197Y-76774684D01*
X110554858Y-76771174D01*
X110578750Y-76770000D01*
X111066250Y-76770000D01*
X111090142Y-76771174D01*
X111090142Y-76771174D01*
G37*
D11*
X110822500Y-77470000D03*
D10*
G36*
X112965142Y-76771174D02*
G01*
X112988803Y-76774684D01*
X113012007Y-76780496D01*
X113034529Y-76788554D01*
X113056153Y-76798782D01*
X113076670Y-76811079D01*
X113095883Y-76825329D01*
X113113607Y-76841393D01*
X113129671Y-76859117D01*
X113143921Y-76878330D01*
X113156218Y-76898847D01*
X113166446Y-76920471D01*
X113174504Y-76942993D01*
X113180316Y-76966197D01*
X113183826Y-76989858D01*
X113185000Y-77013750D01*
X113185000Y-77926250D01*
X113183826Y-77950142D01*
X113180316Y-77973803D01*
X113174504Y-77997007D01*
X113166446Y-78019529D01*
X113156218Y-78041153D01*
X113143921Y-78061670D01*
X113129671Y-78080883D01*
X113113607Y-78098607D01*
X113095883Y-78114671D01*
X113076670Y-78128921D01*
X113056153Y-78141218D01*
X113034529Y-78151446D01*
X113012007Y-78159504D01*
X112988803Y-78165316D01*
X112965142Y-78168826D01*
X112941250Y-78170000D01*
X112453750Y-78170000D01*
X112429858Y-78168826D01*
X112406197Y-78165316D01*
X112382993Y-78159504D01*
X112360471Y-78151446D01*
X112338847Y-78141218D01*
X112318330Y-78128921D01*
X112299117Y-78114671D01*
X112281393Y-78098607D01*
X112265329Y-78080883D01*
X112251079Y-78061670D01*
X112238782Y-78041153D01*
X112228554Y-78019529D01*
X112220496Y-77997007D01*
X112214684Y-77973803D01*
X112211174Y-77950142D01*
X112210000Y-77926250D01*
X112210000Y-77013750D01*
X112211174Y-76989858D01*
X112214684Y-76966197D01*
X112220496Y-76942993D01*
X112228554Y-76920471D01*
X112238782Y-76898847D01*
X112251079Y-76878330D01*
X112265329Y-76859117D01*
X112281393Y-76841393D01*
X112299117Y-76825329D01*
X112318330Y-76811079D01*
X112338847Y-76798782D01*
X112360471Y-76788554D01*
X112382993Y-76780496D01*
X112406197Y-76774684D01*
X112429858Y-76771174D01*
X112453750Y-76770000D01*
X112941250Y-76770000D01*
X112965142Y-76771174D01*
X112965142Y-76771174D01*
G37*
D11*
X112697500Y-77470000D03*
M02*
