G04 #@! TF.GenerationSoftware,KiCad,Pcbnew,(5.1.4)-1*
G04 #@! TF.CreationDate,2019-11-11T16:34:49-05:00*
G04 #@! TF.ProjectId,photodiode,70686f74-6f64-4696-9f64-652e6b696361,rev?*
G04 #@! TF.SameCoordinates,Original*
G04 #@! TF.FileFunction,Copper,L2,Bot*
G04 #@! TF.FilePolarity,Positive*
%FSLAX46Y46*%
G04 Gerber Fmt 4.6, Leading zero omitted, Abs format (unit mm)*
G04 Created by KiCad (PCBNEW (5.1.4)-1) date 2019-11-11 16:34:49*
%MOMM*%
%LPD*%
G04 APERTURE LIST*
%ADD10R,1.700000X1.700000*%
%ADD11O,1.700000X1.700000*%
%ADD12C,0.800000*%
%ADD13C,0.254000*%
G04 APERTURE END LIST*
D10*
X111760000Y-69850000D03*
D11*
X111760000Y-72390000D03*
D10*
X104140000Y-71675001D03*
D11*
X104140000Y-74215001D03*
X104140000Y-76755001D03*
D12*
X109220000Y-74930000D03*
D13*
G36*
X112854544Y-66011856D02*
G01*
X112688377Y-66413019D01*
X112603666Y-66838892D01*
X112603666Y-67273108D01*
X112688377Y-67698981D01*
X112854544Y-68100144D01*
X113095782Y-68461181D01*
X113402819Y-68768218D01*
X113763856Y-69009456D01*
X114165019Y-69175623D01*
X114590892Y-69260334D01*
X115025108Y-69260334D01*
X115450981Y-69175623D01*
X115852144Y-69009456D01*
X116145000Y-68813775D01*
X116145001Y-79061000D01*
X99247000Y-79061000D01*
X99247000Y-74215001D01*
X102647815Y-74215001D01*
X102676487Y-74506112D01*
X102761401Y-74786035D01*
X102899294Y-75044015D01*
X103084866Y-75270135D01*
X103310986Y-75455707D01*
X103365791Y-75485001D01*
X103310986Y-75514295D01*
X103084866Y-75699867D01*
X102899294Y-75925987D01*
X102761401Y-76183967D01*
X102676487Y-76463890D01*
X102647815Y-76755001D01*
X102676487Y-77046112D01*
X102761401Y-77326035D01*
X102899294Y-77584015D01*
X103084866Y-77810135D01*
X103310986Y-77995707D01*
X103568966Y-78133600D01*
X103848889Y-78218514D01*
X104067050Y-78240001D01*
X104212950Y-78240001D01*
X104431111Y-78218514D01*
X104711034Y-78133600D01*
X104969014Y-77995707D01*
X105195134Y-77810135D01*
X105380706Y-77584015D01*
X105518599Y-77326035D01*
X105603513Y-77046112D01*
X105632185Y-76755001D01*
X105603513Y-76463890D01*
X105518599Y-76183967D01*
X105380706Y-75925987D01*
X105195134Y-75699867D01*
X104969014Y-75514295D01*
X104914209Y-75485001D01*
X104969014Y-75455707D01*
X105195134Y-75270135D01*
X105380706Y-75044015D01*
X105518599Y-74786035D01*
X105603513Y-74506112D01*
X105632185Y-74215001D01*
X105603513Y-73923890D01*
X105518599Y-73643967D01*
X105380706Y-73385987D01*
X105195134Y-73159867D01*
X105165313Y-73135394D01*
X105234180Y-73114503D01*
X105344494Y-73055538D01*
X105441185Y-72976186D01*
X105520537Y-72879495D01*
X105579502Y-72769181D01*
X105615812Y-72649483D01*
X105628072Y-72525001D01*
X105627338Y-72390000D01*
X110267815Y-72390000D01*
X110296487Y-72681111D01*
X110381401Y-72961034D01*
X110519294Y-73219014D01*
X110704866Y-73445134D01*
X110930986Y-73630706D01*
X111188966Y-73768599D01*
X111468889Y-73853513D01*
X111687050Y-73875000D01*
X111832950Y-73875000D01*
X112051111Y-73853513D01*
X112331034Y-73768599D01*
X112589014Y-73630706D01*
X112815134Y-73445134D01*
X113000706Y-73219014D01*
X113138599Y-72961034D01*
X113223513Y-72681111D01*
X113252185Y-72390000D01*
X113223513Y-72098889D01*
X113138599Y-71818966D01*
X113000706Y-71560986D01*
X112815134Y-71334866D01*
X112785313Y-71310393D01*
X112854180Y-71289502D01*
X112964494Y-71230537D01*
X113061185Y-71151185D01*
X113140537Y-71054494D01*
X113199502Y-70944180D01*
X113235812Y-70824482D01*
X113248072Y-70700000D01*
X113245000Y-70135750D01*
X113086250Y-69977000D01*
X111887000Y-69977000D01*
X111887000Y-69997000D01*
X111633000Y-69997000D01*
X111633000Y-69977000D01*
X110433750Y-69977000D01*
X110275000Y-70135750D01*
X110271928Y-70700000D01*
X110284188Y-70824482D01*
X110320498Y-70944180D01*
X110379463Y-71054494D01*
X110458815Y-71151185D01*
X110555506Y-71230537D01*
X110665820Y-71289502D01*
X110734687Y-71310393D01*
X110704866Y-71334866D01*
X110519294Y-71560986D01*
X110381401Y-71818966D01*
X110296487Y-72098889D01*
X110267815Y-72390000D01*
X105627338Y-72390000D01*
X105625000Y-71960751D01*
X105466250Y-71802001D01*
X104267000Y-71802001D01*
X104267000Y-71822001D01*
X104013000Y-71822001D01*
X104013000Y-71802001D01*
X102813750Y-71802001D01*
X102655000Y-71960751D01*
X102651928Y-72525001D01*
X102664188Y-72649483D01*
X102700498Y-72769181D01*
X102759463Y-72879495D01*
X102838815Y-72976186D01*
X102935506Y-73055538D01*
X103045820Y-73114503D01*
X103114687Y-73135394D01*
X103084866Y-73159867D01*
X102899294Y-73385987D01*
X102761401Y-73643967D01*
X102676487Y-73923890D01*
X102647815Y-74215001D01*
X99247000Y-74215001D01*
X99247000Y-70825001D01*
X102651928Y-70825001D01*
X102655000Y-71389251D01*
X102813750Y-71548001D01*
X104013000Y-71548001D01*
X104013000Y-70348751D01*
X104267000Y-70348751D01*
X104267000Y-71548001D01*
X105466250Y-71548001D01*
X105625000Y-71389251D01*
X105628072Y-70825001D01*
X105615812Y-70700519D01*
X105579502Y-70580821D01*
X105520537Y-70470507D01*
X105441185Y-70373816D01*
X105344494Y-70294464D01*
X105234180Y-70235499D01*
X105114482Y-70199189D01*
X104990000Y-70186929D01*
X104425750Y-70190001D01*
X104267000Y-70348751D01*
X104013000Y-70348751D01*
X103854250Y-70190001D01*
X103290000Y-70186929D01*
X103165518Y-70199189D01*
X103045820Y-70235499D01*
X102935506Y-70294464D01*
X102838815Y-70373816D01*
X102759463Y-70470507D01*
X102700498Y-70580821D01*
X102664188Y-70700519D01*
X102651928Y-70825001D01*
X99247000Y-70825001D01*
X99247000Y-68813775D01*
X99539856Y-69009456D01*
X99941019Y-69175623D01*
X100366892Y-69260334D01*
X100801108Y-69260334D01*
X101226981Y-69175623D01*
X101628144Y-69009456D01*
X101642295Y-69000000D01*
X110271928Y-69000000D01*
X110275000Y-69564250D01*
X110433750Y-69723000D01*
X111633000Y-69723000D01*
X111633000Y-68523750D01*
X111887000Y-68523750D01*
X111887000Y-69723000D01*
X113086250Y-69723000D01*
X113245000Y-69564250D01*
X113248072Y-69000000D01*
X113235812Y-68875518D01*
X113199502Y-68755820D01*
X113140537Y-68645506D01*
X113061185Y-68548815D01*
X112964494Y-68469463D01*
X112854180Y-68410498D01*
X112734482Y-68374188D01*
X112610000Y-68361928D01*
X112045750Y-68365000D01*
X111887000Y-68523750D01*
X111633000Y-68523750D01*
X111474250Y-68365000D01*
X110910000Y-68361928D01*
X110785518Y-68374188D01*
X110665820Y-68410498D01*
X110555506Y-68469463D01*
X110458815Y-68548815D01*
X110379463Y-68645506D01*
X110320498Y-68755820D01*
X110284188Y-68875518D01*
X110271928Y-69000000D01*
X101642295Y-69000000D01*
X101989181Y-68768218D01*
X102296218Y-68461181D01*
X102537456Y-68100144D01*
X102703623Y-67698981D01*
X102788334Y-67273108D01*
X102788334Y-66838892D01*
X102703623Y-66413019D01*
X102537456Y-66011856D01*
X102341775Y-65719000D01*
X113050225Y-65719000D01*
X112854544Y-66011856D01*
X112854544Y-66011856D01*
G37*
X112854544Y-66011856D02*
X112688377Y-66413019D01*
X112603666Y-66838892D01*
X112603666Y-67273108D01*
X112688377Y-67698981D01*
X112854544Y-68100144D01*
X113095782Y-68461181D01*
X113402819Y-68768218D01*
X113763856Y-69009456D01*
X114165019Y-69175623D01*
X114590892Y-69260334D01*
X115025108Y-69260334D01*
X115450981Y-69175623D01*
X115852144Y-69009456D01*
X116145000Y-68813775D01*
X116145001Y-79061000D01*
X99247000Y-79061000D01*
X99247000Y-74215001D01*
X102647815Y-74215001D01*
X102676487Y-74506112D01*
X102761401Y-74786035D01*
X102899294Y-75044015D01*
X103084866Y-75270135D01*
X103310986Y-75455707D01*
X103365791Y-75485001D01*
X103310986Y-75514295D01*
X103084866Y-75699867D01*
X102899294Y-75925987D01*
X102761401Y-76183967D01*
X102676487Y-76463890D01*
X102647815Y-76755001D01*
X102676487Y-77046112D01*
X102761401Y-77326035D01*
X102899294Y-77584015D01*
X103084866Y-77810135D01*
X103310986Y-77995707D01*
X103568966Y-78133600D01*
X103848889Y-78218514D01*
X104067050Y-78240001D01*
X104212950Y-78240001D01*
X104431111Y-78218514D01*
X104711034Y-78133600D01*
X104969014Y-77995707D01*
X105195134Y-77810135D01*
X105380706Y-77584015D01*
X105518599Y-77326035D01*
X105603513Y-77046112D01*
X105632185Y-76755001D01*
X105603513Y-76463890D01*
X105518599Y-76183967D01*
X105380706Y-75925987D01*
X105195134Y-75699867D01*
X104969014Y-75514295D01*
X104914209Y-75485001D01*
X104969014Y-75455707D01*
X105195134Y-75270135D01*
X105380706Y-75044015D01*
X105518599Y-74786035D01*
X105603513Y-74506112D01*
X105632185Y-74215001D01*
X105603513Y-73923890D01*
X105518599Y-73643967D01*
X105380706Y-73385987D01*
X105195134Y-73159867D01*
X105165313Y-73135394D01*
X105234180Y-73114503D01*
X105344494Y-73055538D01*
X105441185Y-72976186D01*
X105520537Y-72879495D01*
X105579502Y-72769181D01*
X105615812Y-72649483D01*
X105628072Y-72525001D01*
X105627338Y-72390000D01*
X110267815Y-72390000D01*
X110296487Y-72681111D01*
X110381401Y-72961034D01*
X110519294Y-73219014D01*
X110704866Y-73445134D01*
X110930986Y-73630706D01*
X111188966Y-73768599D01*
X111468889Y-73853513D01*
X111687050Y-73875000D01*
X111832950Y-73875000D01*
X112051111Y-73853513D01*
X112331034Y-73768599D01*
X112589014Y-73630706D01*
X112815134Y-73445134D01*
X113000706Y-73219014D01*
X113138599Y-72961034D01*
X113223513Y-72681111D01*
X113252185Y-72390000D01*
X113223513Y-72098889D01*
X113138599Y-71818966D01*
X113000706Y-71560986D01*
X112815134Y-71334866D01*
X112785313Y-71310393D01*
X112854180Y-71289502D01*
X112964494Y-71230537D01*
X113061185Y-71151185D01*
X113140537Y-71054494D01*
X113199502Y-70944180D01*
X113235812Y-70824482D01*
X113248072Y-70700000D01*
X113245000Y-70135750D01*
X113086250Y-69977000D01*
X111887000Y-69977000D01*
X111887000Y-69997000D01*
X111633000Y-69997000D01*
X111633000Y-69977000D01*
X110433750Y-69977000D01*
X110275000Y-70135750D01*
X110271928Y-70700000D01*
X110284188Y-70824482D01*
X110320498Y-70944180D01*
X110379463Y-71054494D01*
X110458815Y-71151185D01*
X110555506Y-71230537D01*
X110665820Y-71289502D01*
X110734687Y-71310393D01*
X110704866Y-71334866D01*
X110519294Y-71560986D01*
X110381401Y-71818966D01*
X110296487Y-72098889D01*
X110267815Y-72390000D01*
X105627338Y-72390000D01*
X105625000Y-71960751D01*
X105466250Y-71802001D01*
X104267000Y-71802001D01*
X104267000Y-71822001D01*
X104013000Y-71822001D01*
X104013000Y-71802001D01*
X102813750Y-71802001D01*
X102655000Y-71960751D01*
X102651928Y-72525001D01*
X102664188Y-72649483D01*
X102700498Y-72769181D01*
X102759463Y-72879495D01*
X102838815Y-72976186D01*
X102935506Y-73055538D01*
X103045820Y-73114503D01*
X103114687Y-73135394D01*
X103084866Y-73159867D01*
X102899294Y-73385987D01*
X102761401Y-73643967D01*
X102676487Y-73923890D01*
X102647815Y-74215001D01*
X99247000Y-74215001D01*
X99247000Y-70825001D01*
X102651928Y-70825001D01*
X102655000Y-71389251D01*
X102813750Y-71548001D01*
X104013000Y-71548001D01*
X104013000Y-70348751D01*
X104267000Y-70348751D01*
X104267000Y-71548001D01*
X105466250Y-71548001D01*
X105625000Y-71389251D01*
X105628072Y-70825001D01*
X105615812Y-70700519D01*
X105579502Y-70580821D01*
X105520537Y-70470507D01*
X105441185Y-70373816D01*
X105344494Y-70294464D01*
X105234180Y-70235499D01*
X105114482Y-70199189D01*
X104990000Y-70186929D01*
X104425750Y-70190001D01*
X104267000Y-70348751D01*
X104013000Y-70348751D01*
X103854250Y-70190001D01*
X103290000Y-70186929D01*
X103165518Y-70199189D01*
X103045820Y-70235499D01*
X102935506Y-70294464D01*
X102838815Y-70373816D01*
X102759463Y-70470507D01*
X102700498Y-70580821D01*
X102664188Y-70700519D01*
X102651928Y-70825001D01*
X99247000Y-70825001D01*
X99247000Y-68813775D01*
X99539856Y-69009456D01*
X99941019Y-69175623D01*
X100366892Y-69260334D01*
X100801108Y-69260334D01*
X101226981Y-69175623D01*
X101628144Y-69009456D01*
X101642295Y-69000000D01*
X110271928Y-69000000D01*
X110275000Y-69564250D01*
X110433750Y-69723000D01*
X111633000Y-69723000D01*
X111633000Y-68523750D01*
X111887000Y-68523750D01*
X111887000Y-69723000D01*
X113086250Y-69723000D01*
X113245000Y-69564250D01*
X113248072Y-69000000D01*
X113235812Y-68875518D01*
X113199502Y-68755820D01*
X113140537Y-68645506D01*
X113061185Y-68548815D01*
X112964494Y-68469463D01*
X112854180Y-68410498D01*
X112734482Y-68374188D01*
X112610000Y-68361928D01*
X112045750Y-68365000D01*
X111887000Y-68523750D01*
X111633000Y-68523750D01*
X111474250Y-68365000D01*
X110910000Y-68361928D01*
X110785518Y-68374188D01*
X110665820Y-68410498D01*
X110555506Y-68469463D01*
X110458815Y-68548815D01*
X110379463Y-68645506D01*
X110320498Y-68755820D01*
X110284188Y-68875518D01*
X110271928Y-69000000D01*
X101642295Y-69000000D01*
X101989181Y-68768218D01*
X102296218Y-68461181D01*
X102537456Y-68100144D01*
X102703623Y-67698981D01*
X102788334Y-67273108D01*
X102788334Y-66838892D01*
X102703623Y-66413019D01*
X102537456Y-66011856D01*
X102341775Y-65719000D01*
X113050225Y-65719000D01*
X112854544Y-66011856D01*
M02*
