G04 #@! TF.GenerationSoftware,KiCad,Pcbnew,(5.0.1)-4*
G04 #@! TF.CreationDate,2019-12-01T21:58:57-05:00*
G04 #@! TF.ProjectId,new_synth_transistor,6E65775F73796E74685F7472616E7369,rev?*
G04 #@! TF.SameCoordinates,Original*
G04 #@! TF.FileFunction,Soldermask,Bot*
G04 #@! TF.FilePolarity,Negative*
%FSLAX46Y46*%
G04 Gerber Fmt 4.6, Leading zero omitted, Abs format (unit mm)*
G04 Created by KiCad (PCBNEW (5.0.1)-4) date 12/1/2019 9:58:57 PM*
%MOMM*%
%LPD*%
G01*
G04 APERTURE LIST*
%ADD10C,0.100000*%
G04 APERTURE END LIST*
D10*
G36*
X227283270Y-120614939D02*
X227443495Y-120663543D01*
X227591160Y-120742471D01*
X227720589Y-120848691D01*
X227826809Y-120978120D01*
X227905737Y-121125785D01*
X227954341Y-121286010D01*
X227970752Y-121452640D01*
X227954341Y-121619270D01*
X227905737Y-121779495D01*
X227826809Y-121927160D01*
X227720589Y-122056589D01*
X227591160Y-122162809D01*
X227443495Y-122241737D01*
X227283270Y-122290341D01*
X227158392Y-122302640D01*
X227074888Y-122302640D01*
X226950010Y-122290341D01*
X226789785Y-122241737D01*
X226642120Y-122162809D01*
X226512691Y-122056589D01*
X226406471Y-121927160D01*
X226327543Y-121779495D01*
X226278939Y-121619270D01*
X226262528Y-121452640D01*
X226278939Y-121286010D01*
X226327543Y-121125785D01*
X226406471Y-120978120D01*
X226512691Y-120848691D01*
X226642120Y-120742471D01*
X226789785Y-120663543D01*
X226950010Y-120614939D01*
X227074888Y-120602640D01*
X227158392Y-120602640D01*
X227283270Y-120614939D01*
X227283270Y-120614939D01*
G37*
G36*
X229823270Y-120614939D02*
X229983495Y-120663543D01*
X230131160Y-120742471D01*
X230260589Y-120848691D01*
X230366809Y-120978120D01*
X230445737Y-121125785D01*
X230494341Y-121286010D01*
X230510752Y-121452640D01*
X230494341Y-121619270D01*
X230445737Y-121779495D01*
X230366809Y-121927160D01*
X230260589Y-122056589D01*
X230131160Y-122162809D01*
X229983495Y-122241737D01*
X229823270Y-122290341D01*
X229698392Y-122302640D01*
X229614888Y-122302640D01*
X229490010Y-122290341D01*
X229329785Y-122241737D01*
X229182120Y-122162809D01*
X229052691Y-122056589D01*
X228946471Y-121927160D01*
X228867543Y-121779495D01*
X228818939Y-121619270D01*
X228802528Y-121452640D01*
X228818939Y-121286010D01*
X228867543Y-121125785D01*
X228946471Y-120978120D01*
X229052691Y-120848691D01*
X229182120Y-120742471D01*
X229329785Y-120663543D01*
X229490010Y-120614939D01*
X229614888Y-120602640D01*
X229698392Y-120602640D01*
X229823270Y-120614939D01*
X229823270Y-120614939D01*
G37*
G36*
X232363270Y-120614939D02*
X232523495Y-120663543D01*
X232671160Y-120742471D01*
X232800589Y-120848691D01*
X232906809Y-120978120D01*
X232985737Y-121125785D01*
X233034341Y-121286010D01*
X233050752Y-121452640D01*
X233034341Y-121619270D01*
X232985737Y-121779495D01*
X232906809Y-121927160D01*
X232800589Y-122056589D01*
X232671160Y-122162809D01*
X232523495Y-122241737D01*
X232363270Y-122290341D01*
X232238392Y-122302640D01*
X232154888Y-122302640D01*
X232030010Y-122290341D01*
X231869785Y-122241737D01*
X231722120Y-122162809D01*
X231592691Y-122056589D01*
X231486471Y-121927160D01*
X231407543Y-121779495D01*
X231358939Y-121619270D01*
X231342528Y-121452640D01*
X231358939Y-121286010D01*
X231407543Y-121125785D01*
X231486471Y-120978120D01*
X231592691Y-120848691D01*
X231722120Y-120742471D01*
X231869785Y-120663543D01*
X232030010Y-120614939D01*
X232154888Y-120602640D01*
X232238392Y-120602640D01*
X232363270Y-120614939D01*
X232363270Y-120614939D01*
G37*
G36*
X234903270Y-120614939D02*
X235063495Y-120663543D01*
X235211160Y-120742471D01*
X235340589Y-120848691D01*
X235446809Y-120978120D01*
X235525737Y-121125785D01*
X235574341Y-121286010D01*
X235590752Y-121452640D01*
X235574341Y-121619270D01*
X235525737Y-121779495D01*
X235446809Y-121927160D01*
X235340589Y-122056589D01*
X235211160Y-122162809D01*
X235063495Y-122241737D01*
X234903270Y-122290341D01*
X234778392Y-122302640D01*
X234694888Y-122302640D01*
X234570010Y-122290341D01*
X234409785Y-122241737D01*
X234262120Y-122162809D01*
X234132691Y-122056589D01*
X234026471Y-121927160D01*
X233947543Y-121779495D01*
X233898939Y-121619270D01*
X233882528Y-121452640D01*
X233898939Y-121286010D01*
X233947543Y-121125785D01*
X234026471Y-120978120D01*
X234132691Y-120848691D01*
X234262120Y-120742471D01*
X234409785Y-120663543D01*
X234570010Y-120614939D01*
X234694888Y-120602640D01*
X234778392Y-120602640D01*
X234903270Y-120614939D01*
X234903270Y-120614939D01*
G37*
G36*
X237443270Y-120614939D02*
X237603495Y-120663543D01*
X237751160Y-120742471D01*
X237880589Y-120848691D01*
X237986809Y-120978120D01*
X238065737Y-121125785D01*
X238114341Y-121286010D01*
X238130752Y-121452640D01*
X238114341Y-121619270D01*
X238065737Y-121779495D01*
X237986809Y-121927160D01*
X237880589Y-122056589D01*
X237751160Y-122162809D01*
X237603495Y-122241737D01*
X237443270Y-122290341D01*
X237318392Y-122302640D01*
X237234888Y-122302640D01*
X237110010Y-122290341D01*
X236949785Y-122241737D01*
X236802120Y-122162809D01*
X236672691Y-122056589D01*
X236566471Y-121927160D01*
X236487543Y-121779495D01*
X236438939Y-121619270D01*
X236422528Y-121452640D01*
X236438939Y-121286010D01*
X236487543Y-121125785D01*
X236566471Y-120978120D01*
X236672691Y-120848691D01*
X236802120Y-120742471D01*
X236949785Y-120663543D01*
X237110010Y-120614939D01*
X237234888Y-120602640D01*
X237318392Y-120602640D01*
X237443270Y-120614939D01*
X237443270Y-120614939D01*
G37*
G36*
X243206640Y-122302640D02*
X241506640Y-122302640D01*
X241506640Y-120602640D01*
X243206640Y-120602640D01*
X243206640Y-122302640D01*
X243206640Y-122302640D01*
G37*
G36*
X239983270Y-120614939D02*
X240143495Y-120663543D01*
X240291160Y-120742471D01*
X240420589Y-120848691D01*
X240526809Y-120978120D01*
X240605737Y-121125785D01*
X240654341Y-121286010D01*
X240670752Y-121452640D01*
X240654341Y-121619270D01*
X240605737Y-121779495D01*
X240526809Y-121927160D01*
X240420589Y-122056589D01*
X240291160Y-122162809D01*
X240143495Y-122241737D01*
X239983270Y-122290341D01*
X239858392Y-122302640D01*
X239774888Y-122302640D01*
X239650010Y-122290341D01*
X239489785Y-122241737D01*
X239342120Y-122162809D01*
X239212691Y-122056589D01*
X239106471Y-121927160D01*
X239027543Y-121779495D01*
X238978939Y-121619270D01*
X238962528Y-121452640D01*
X238978939Y-121286010D01*
X239027543Y-121125785D01*
X239106471Y-120978120D01*
X239212691Y-120848691D01*
X239342120Y-120742471D01*
X239489785Y-120663543D01*
X239650010Y-120614939D01*
X239774888Y-120602640D01*
X239858392Y-120602640D01*
X239983270Y-120614939D01*
X239983270Y-120614939D01*
G37*
G36*
X220057080Y-81134320D02*
X218357080Y-81134320D01*
X218357080Y-79434320D01*
X220057080Y-79434320D01*
X220057080Y-81134320D01*
X220057080Y-81134320D01*
G37*
G36*
X234613710Y-79446619D02*
X234773935Y-79495223D01*
X234921600Y-79574151D01*
X235051029Y-79680371D01*
X235157249Y-79809800D01*
X235236177Y-79957465D01*
X235284781Y-80117690D01*
X235301192Y-80284320D01*
X235284781Y-80450950D01*
X235236177Y-80611175D01*
X235157249Y-80758840D01*
X235051029Y-80888269D01*
X234921600Y-80994489D01*
X234773935Y-81073417D01*
X234613710Y-81122021D01*
X234488832Y-81134320D01*
X234405328Y-81134320D01*
X234280450Y-81122021D01*
X234120225Y-81073417D01*
X233972560Y-80994489D01*
X233843131Y-80888269D01*
X233736911Y-80758840D01*
X233657983Y-80611175D01*
X233609379Y-80450950D01*
X233592968Y-80284320D01*
X233609379Y-80117690D01*
X233657983Y-79957465D01*
X233736911Y-79809800D01*
X233843131Y-79680371D01*
X233972560Y-79574151D01*
X234120225Y-79495223D01*
X234280450Y-79446619D01*
X234405328Y-79434320D01*
X234488832Y-79434320D01*
X234613710Y-79446619D01*
X234613710Y-79446619D01*
G37*
G36*
X232073710Y-79446619D02*
X232233935Y-79495223D01*
X232381600Y-79574151D01*
X232511029Y-79680371D01*
X232617249Y-79809800D01*
X232696177Y-79957465D01*
X232744781Y-80117690D01*
X232761192Y-80284320D01*
X232744781Y-80450950D01*
X232696177Y-80611175D01*
X232617249Y-80758840D01*
X232511029Y-80888269D01*
X232381600Y-80994489D01*
X232233935Y-81073417D01*
X232073710Y-81122021D01*
X231948832Y-81134320D01*
X231865328Y-81134320D01*
X231740450Y-81122021D01*
X231580225Y-81073417D01*
X231432560Y-80994489D01*
X231303131Y-80888269D01*
X231196911Y-80758840D01*
X231117983Y-80611175D01*
X231069379Y-80450950D01*
X231052968Y-80284320D01*
X231069379Y-80117690D01*
X231117983Y-79957465D01*
X231196911Y-79809800D01*
X231303131Y-79680371D01*
X231432560Y-79574151D01*
X231580225Y-79495223D01*
X231740450Y-79446619D01*
X231865328Y-79434320D01*
X231948832Y-79434320D01*
X232073710Y-79446619D01*
X232073710Y-79446619D01*
G37*
G36*
X229533710Y-79446619D02*
X229693935Y-79495223D01*
X229841600Y-79574151D01*
X229971029Y-79680371D01*
X230077249Y-79809800D01*
X230156177Y-79957465D01*
X230204781Y-80117690D01*
X230221192Y-80284320D01*
X230204781Y-80450950D01*
X230156177Y-80611175D01*
X230077249Y-80758840D01*
X229971029Y-80888269D01*
X229841600Y-80994489D01*
X229693935Y-81073417D01*
X229533710Y-81122021D01*
X229408832Y-81134320D01*
X229325328Y-81134320D01*
X229200450Y-81122021D01*
X229040225Y-81073417D01*
X228892560Y-80994489D01*
X228763131Y-80888269D01*
X228656911Y-80758840D01*
X228577983Y-80611175D01*
X228529379Y-80450950D01*
X228512968Y-80284320D01*
X228529379Y-80117690D01*
X228577983Y-79957465D01*
X228656911Y-79809800D01*
X228763131Y-79680371D01*
X228892560Y-79574151D01*
X229040225Y-79495223D01*
X229200450Y-79446619D01*
X229325328Y-79434320D01*
X229408832Y-79434320D01*
X229533710Y-79446619D01*
X229533710Y-79446619D01*
G37*
G36*
X226993710Y-79446619D02*
X227153935Y-79495223D01*
X227301600Y-79574151D01*
X227431029Y-79680371D01*
X227537249Y-79809800D01*
X227616177Y-79957465D01*
X227664781Y-80117690D01*
X227681192Y-80284320D01*
X227664781Y-80450950D01*
X227616177Y-80611175D01*
X227537249Y-80758840D01*
X227431029Y-80888269D01*
X227301600Y-80994489D01*
X227153935Y-81073417D01*
X226993710Y-81122021D01*
X226868832Y-81134320D01*
X226785328Y-81134320D01*
X226660450Y-81122021D01*
X226500225Y-81073417D01*
X226352560Y-80994489D01*
X226223131Y-80888269D01*
X226116911Y-80758840D01*
X226037983Y-80611175D01*
X225989379Y-80450950D01*
X225972968Y-80284320D01*
X225989379Y-80117690D01*
X226037983Y-79957465D01*
X226116911Y-79809800D01*
X226223131Y-79680371D01*
X226352560Y-79574151D01*
X226500225Y-79495223D01*
X226660450Y-79446619D01*
X226785328Y-79434320D01*
X226868832Y-79434320D01*
X226993710Y-79446619D01*
X226993710Y-79446619D01*
G37*
G36*
X224453710Y-79446619D02*
X224613935Y-79495223D01*
X224761600Y-79574151D01*
X224891029Y-79680371D01*
X224997249Y-79809800D01*
X225076177Y-79957465D01*
X225124781Y-80117690D01*
X225141192Y-80284320D01*
X225124781Y-80450950D01*
X225076177Y-80611175D01*
X224997249Y-80758840D01*
X224891029Y-80888269D01*
X224761600Y-80994489D01*
X224613935Y-81073417D01*
X224453710Y-81122021D01*
X224328832Y-81134320D01*
X224245328Y-81134320D01*
X224120450Y-81122021D01*
X223960225Y-81073417D01*
X223812560Y-80994489D01*
X223683131Y-80888269D01*
X223576911Y-80758840D01*
X223497983Y-80611175D01*
X223449379Y-80450950D01*
X223432968Y-80284320D01*
X223449379Y-80117690D01*
X223497983Y-79957465D01*
X223576911Y-79809800D01*
X223683131Y-79680371D01*
X223812560Y-79574151D01*
X223960225Y-79495223D01*
X224120450Y-79446619D01*
X224245328Y-79434320D01*
X224328832Y-79434320D01*
X224453710Y-79446619D01*
X224453710Y-79446619D01*
G37*
G36*
X221913710Y-79446619D02*
X222073935Y-79495223D01*
X222221600Y-79574151D01*
X222351029Y-79680371D01*
X222457249Y-79809800D01*
X222536177Y-79957465D01*
X222584781Y-80117690D01*
X222601192Y-80284320D01*
X222584781Y-80450950D01*
X222536177Y-80611175D01*
X222457249Y-80758840D01*
X222351029Y-80888269D01*
X222221600Y-80994489D01*
X222073935Y-81073417D01*
X221913710Y-81122021D01*
X221788832Y-81134320D01*
X221705328Y-81134320D01*
X221580450Y-81122021D01*
X221420225Y-81073417D01*
X221272560Y-80994489D01*
X221143131Y-80888269D01*
X221036911Y-80758840D01*
X220957983Y-80611175D01*
X220909379Y-80450950D01*
X220892968Y-80284320D01*
X220909379Y-80117690D01*
X220957983Y-79957465D01*
X221036911Y-79809800D01*
X221143131Y-79680371D01*
X221272560Y-79574151D01*
X221420225Y-79495223D01*
X221580450Y-79446619D01*
X221705328Y-79434320D01*
X221788832Y-79434320D01*
X221913710Y-79446619D01*
X221913710Y-79446619D01*
G37*
G36*
X265328072Y-74729703D02*
X265473661Y-74790008D01*
X265604693Y-74877561D01*
X265716119Y-74988987D01*
X265803672Y-75120019D01*
X265863977Y-75265608D01*
X265894720Y-75420165D01*
X265894720Y-75577755D01*
X265863977Y-75732312D01*
X265803672Y-75877901D01*
X265716119Y-76008933D01*
X265604693Y-76120359D01*
X265473661Y-76207912D01*
X265328072Y-76268217D01*
X265173515Y-76298960D01*
X265015925Y-76298960D01*
X264861368Y-76268217D01*
X264715779Y-76207912D01*
X264584747Y-76120359D01*
X264473321Y-76008933D01*
X264385768Y-75877901D01*
X264325463Y-75732312D01*
X264294720Y-75577755D01*
X264294720Y-75420165D01*
X264325463Y-75265608D01*
X264385768Y-75120019D01*
X264473321Y-74988987D01*
X264584747Y-74877561D01*
X264715779Y-74790008D01*
X264861368Y-74729703D01*
X265015925Y-74698960D01*
X265173515Y-74698960D01*
X265328072Y-74729703D01*
X265328072Y-74729703D01*
G37*
G36*
X278028072Y-74729703D02*
X278173661Y-74790008D01*
X278304693Y-74877561D01*
X278416119Y-74988987D01*
X278503672Y-75120019D01*
X278563977Y-75265608D01*
X278594720Y-75420165D01*
X278594720Y-75577755D01*
X278563977Y-75732312D01*
X278503672Y-75877901D01*
X278416119Y-76008933D01*
X278304693Y-76120359D01*
X278173661Y-76207912D01*
X278028072Y-76268217D01*
X277873515Y-76298960D01*
X277715925Y-76298960D01*
X277561368Y-76268217D01*
X277415779Y-76207912D01*
X277284747Y-76120359D01*
X277173321Y-76008933D01*
X277085768Y-75877901D01*
X277025463Y-75732312D01*
X276994720Y-75577755D01*
X276994720Y-75420165D01*
X277025463Y-75265608D01*
X277085768Y-75120019D01*
X277173321Y-74988987D01*
X277284747Y-74877561D01*
X277415779Y-74790008D01*
X277561368Y-74729703D01*
X277715925Y-74698960D01*
X277873515Y-74698960D01*
X278028072Y-74729703D01*
X278028072Y-74729703D01*
G37*
G36*
X275488072Y-74729703D02*
X275633661Y-74790008D01*
X275764693Y-74877561D01*
X275876119Y-74988987D01*
X275963672Y-75120019D01*
X276023977Y-75265608D01*
X276054720Y-75420165D01*
X276054720Y-75577755D01*
X276023977Y-75732312D01*
X275963672Y-75877901D01*
X275876119Y-76008933D01*
X275764693Y-76120359D01*
X275633661Y-76207912D01*
X275488072Y-76268217D01*
X275333515Y-76298960D01*
X275175925Y-76298960D01*
X275021368Y-76268217D01*
X274875779Y-76207912D01*
X274744747Y-76120359D01*
X274633321Y-76008933D01*
X274545768Y-75877901D01*
X274485463Y-75732312D01*
X274454720Y-75577755D01*
X274454720Y-75420165D01*
X274485463Y-75265608D01*
X274545768Y-75120019D01*
X274633321Y-74988987D01*
X274744747Y-74877561D01*
X274875779Y-74790008D01*
X275021368Y-74729703D01*
X275175925Y-74698960D01*
X275333515Y-74698960D01*
X275488072Y-74729703D01*
X275488072Y-74729703D01*
G37*
G36*
X272948072Y-74729703D02*
X273093661Y-74790008D01*
X273224693Y-74877561D01*
X273336119Y-74988987D01*
X273423672Y-75120019D01*
X273483977Y-75265608D01*
X273514720Y-75420165D01*
X273514720Y-75577755D01*
X273483977Y-75732312D01*
X273423672Y-75877901D01*
X273336119Y-76008933D01*
X273224693Y-76120359D01*
X273093661Y-76207912D01*
X272948072Y-76268217D01*
X272793515Y-76298960D01*
X272635925Y-76298960D01*
X272481368Y-76268217D01*
X272335779Y-76207912D01*
X272204747Y-76120359D01*
X272093321Y-76008933D01*
X272005768Y-75877901D01*
X271945463Y-75732312D01*
X271914720Y-75577755D01*
X271914720Y-75420165D01*
X271945463Y-75265608D01*
X272005768Y-75120019D01*
X272093321Y-74988987D01*
X272204747Y-74877561D01*
X272335779Y-74790008D01*
X272481368Y-74729703D01*
X272635925Y-74698960D01*
X272793515Y-74698960D01*
X272948072Y-74729703D01*
X272948072Y-74729703D01*
G37*
G36*
X270408072Y-74729703D02*
X270553661Y-74790008D01*
X270684693Y-74877561D01*
X270796119Y-74988987D01*
X270883672Y-75120019D01*
X270943977Y-75265608D01*
X270974720Y-75420165D01*
X270974720Y-75577755D01*
X270943977Y-75732312D01*
X270883672Y-75877901D01*
X270796119Y-76008933D01*
X270684693Y-76120359D01*
X270553661Y-76207912D01*
X270408072Y-76268217D01*
X270253515Y-76298960D01*
X270095925Y-76298960D01*
X269941368Y-76268217D01*
X269795779Y-76207912D01*
X269664747Y-76120359D01*
X269553321Y-76008933D01*
X269465768Y-75877901D01*
X269405463Y-75732312D01*
X269374720Y-75577755D01*
X269374720Y-75420165D01*
X269405463Y-75265608D01*
X269465768Y-75120019D01*
X269553321Y-74988987D01*
X269664747Y-74877561D01*
X269795779Y-74790008D01*
X269941368Y-74729703D01*
X270095925Y-74698960D01*
X270253515Y-74698960D01*
X270408072Y-74729703D01*
X270408072Y-74729703D01*
G37*
G36*
X267868072Y-74729703D02*
X268013661Y-74790008D01*
X268144693Y-74877561D01*
X268256119Y-74988987D01*
X268343672Y-75120019D01*
X268403977Y-75265608D01*
X268434720Y-75420165D01*
X268434720Y-75577755D01*
X268403977Y-75732312D01*
X268343672Y-75877901D01*
X268256119Y-76008933D01*
X268144693Y-76120359D01*
X268013661Y-76207912D01*
X267868072Y-76268217D01*
X267713515Y-76298960D01*
X267555925Y-76298960D01*
X267401368Y-76268217D01*
X267255779Y-76207912D01*
X267124747Y-76120359D01*
X267013321Y-76008933D01*
X266925768Y-75877901D01*
X266865463Y-75732312D01*
X266834720Y-75577755D01*
X266834720Y-75420165D01*
X266865463Y-75265608D01*
X266925768Y-75120019D01*
X267013321Y-74988987D01*
X267124747Y-74877561D01*
X267255779Y-74790008D01*
X267401368Y-74729703D01*
X267555925Y-74698960D01*
X267713515Y-74698960D01*
X267868072Y-74729703D01*
X267868072Y-74729703D01*
G37*
G36*
X262788072Y-74729703D02*
X262933661Y-74790008D01*
X263064693Y-74877561D01*
X263176119Y-74988987D01*
X263263672Y-75120019D01*
X263323977Y-75265608D01*
X263354720Y-75420165D01*
X263354720Y-75577755D01*
X263323977Y-75732312D01*
X263263672Y-75877901D01*
X263176119Y-76008933D01*
X263064693Y-76120359D01*
X262933661Y-76207912D01*
X262788072Y-76268217D01*
X262633515Y-76298960D01*
X262475925Y-76298960D01*
X262321368Y-76268217D01*
X262175779Y-76207912D01*
X262044747Y-76120359D01*
X261933321Y-76008933D01*
X261845768Y-75877901D01*
X261785463Y-75732312D01*
X261754720Y-75577755D01*
X261754720Y-75420165D01*
X261785463Y-75265608D01*
X261845768Y-75120019D01*
X261933321Y-74988987D01*
X262044747Y-74877561D01*
X262175779Y-74790008D01*
X262321368Y-74729703D01*
X262475925Y-74698960D01*
X262633515Y-74698960D01*
X262788072Y-74729703D01*
X262788072Y-74729703D01*
G37*
G36*
X260248072Y-74729703D02*
X260393661Y-74790008D01*
X260524693Y-74877561D01*
X260636119Y-74988987D01*
X260723672Y-75120019D01*
X260783977Y-75265608D01*
X260814720Y-75420165D01*
X260814720Y-75577755D01*
X260783977Y-75732312D01*
X260723672Y-75877901D01*
X260636119Y-76008933D01*
X260524693Y-76120359D01*
X260393661Y-76207912D01*
X260248072Y-76268217D01*
X260093515Y-76298960D01*
X259935925Y-76298960D01*
X259781368Y-76268217D01*
X259635779Y-76207912D01*
X259504747Y-76120359D01*
X259393321Y-76008933D01*
X259305768Y-75877901D01*
X259245463Y-75732312D01*
X259214720Y-75577755D01*
X259214720Y-75420165D01*
X259245463Y-75265608D01*
X259305768Y-75120019D01*
X259393321Y-74988987D01*
X259504747Y-74877561D01*
X259635779Y-74790008D01*
X259781368Y-74729703D01*
X259935925Y-74698960D01*
X260093515Y-74698960D01*
X260248072Y-74729703D01*
X260248072Y-74729703D01*
G37*
G36*
X257708072Y-74729703D02*
X257853661Y-74790008D01*
X257984693Y-74877561D01*
X258096119Y-74988987D01*
X258183672Y-75120019D01*
X258243977Y-75265608D01*
X258274720Y-75420165D01*
X258274720Y-75577755D01*
X258243977Y-75732312D01*
X258183672Y-75877901D01*
X258096119Y-76008933D01*
X257984693Y-76120359D01*
X257853661Y-76207912D01*
X257708072Y-76268217D01*
X257553515Y-76298960D01*
X257395925Y-76298960D01*
X257241368Y-76268217D01*
X257095779Y-76207912D01*
X256964747Y-76120359D01*
X256853321Y-76008933D01*
X256765768Y-75877901D01*
X256705463Y-75732312D01*
X256674720Y-75577755D01*
X256674720Y-75420165D01*
X256705463Y-75265608D01*
X256765768Y-75120019D01*
X256853321Y-74988987D01*
X256964747Y-74877561D01*
X257095779Y-74790008D01*
X257241368Y-74729703D01*
X257395925Y-74698960D01*
X257553515Y-74698960D01*
X257708072Y-74729703D01*
X257708072Y-74729703D01*
G37*
G36*
X222148072Y-74729703D02*
X222293661Y-74790008D01*
X222424693Y-74877561D01*
X222536119Y-74988987D01*
X222623672Y-75120019D01*
X222683977Y-75265608D01*
X222714720Y-75420165D01*
X222714720Y-75577755D01*
X222683977Y-75732312D01*
X222623672Y-75877901D01*
X222536119Y-76008933D01*
X222424693Y-76120359D01*
X222293661Y-76207912D01*
X222148072Y-76268217D01*
X221993515Y-76298960D01*
X221835925Y-76298960D01*
X221681368Y-76268217D01*
X221535779Y-76207912D01*
X221404747Y-76120359D01*
X221293321Y-76008933D01*
X221205768Y-75877901D01*
X221145463Y-75732312D01*
X221114720Y-75577755D01*
X221114720Y-75420165D01*
X221145463Y-75265608D01*
X221205768Y-75120019D01*
X221293321Y-74988987D01*
X221404747Y-74877561D01*
X221535779Y-74790008D01*
X221681368Y-74729703D01*
X221835925Y-74698960D01*
X221993515Y-74698960D01*
X222148072Y-74729703D01*
X222148072Y-74729703D01*
G37*
G36*
X224688072Y-74729703D02*
X224833661Y-74790008D01*
X224964693Y-74877561D01*
X225076119Y-74988987D01*
X225163672Y-75120019D01*
X225223977Y-75265608D01*
X225254720Y-75420165D01*
X225254720Y-75577755D01*
X225223977Y-75732312D01*
X225163672Y-75877901D01*
X225076119Y-76008933D01*
X224964693Y-76120359D01*
X224833661Y-76207912D01*
X224688072Y-76268217D01*
X224533515Y-76298960D01*
X224375925Y-76298960D01*
X224221368Y-76268217D01*
X224075779Y-76207912D01*
X223944747Y-76120359D01*
X223833321Y-76008933D01*
X223745768Y-75877901D01*
X223685463Y-75732312D01*
X223654720Y-75577755D01*
X223654720Y-75420165D01*
X223685463Y-75265608D01*
X223745768Y-75120019D01*
X223833321Y-74988987D01*
X223944747Y-74877561D01*
X224075779Y-74790008D01*
X224221368Y-74729703D01*
X224375925Y-74698960D01*
X224533515Y-74698960D01*
X224688072Y-74729703D01*
X224688072Y-74729703D01*
G37*
G36*
X227228072Y-74729703D02*
X227373661Y-74790008D01*
X227504693Y-74877561D01*
X227616119Y-74988987D01*
X227703672Y-75120019D01*
X227763977Y-75265608D01*
X227794720Y-75420165D01*
X227794720Y-75577755D01*
X227763977Y-75732312D01*
X227703672Y-75877901D01*
X227616119Y-76008933D01*
X227504693Y-76120359D01*
X227373661Y-76207912D01*
X227228072Y-76268217D01*
X227073515Y-76298960D01*
X226915925Y-76298960D01*
X226761368Y-76268217D01*
X226615779Y-76207912D01*
X226484747Y-76120359D01*
X226373321Y-76008933D01*
X226285768Y-75877901D01*
X226225463Y-75732312D01*
X226194720Y-75577755D01*
X226194720Y-75420165D01*
X226225463Y-75265608D01*
X226285768Y-75120019D01*
X226373321Y-74988987D01*
X226484747Y-74877561D01*
X226615779Y-74790008D01*
X226761368Y-74729703D01*
X226915925Y-74698960D01*
X227073515Y-74698960D01*
X227228072Y-74729703D01*
X227228072Y-74729703D01*
G37*
G36*
X252628072Y-74729703D02*
X252773661Y-74790008D01*
X252904693Y-74877561D01*
X253016119Y-74988987D01*
X253103672Y-75120019D01*
X253163977Y-75265608D01*
X253194720Y-75420165D01*
X253194720Y-75577755D01*
X253163977Y-75732312D01*
X253103672Y-75877901D01*
X253016119Y-76008933D01*
X252904693Y-76120359D01*
X252773661Y-76207912D01*
X252628072Y-76268217D01*
X252473515Y-76298960D01*
X252315925Y-76298960D01*
X252161368Y-76268217D01*
X252015779Y-76207912D01*
X251884747Y-76120359D01*
X251773321Y-76008933D01*
X251685768Y-75877901D01*
X251625463Y-75732312D01*
X251594720Y-75577755D01*
X251594720Y-75420165D01*
X251625463Y-75265608D01*
X251685768Y-75120019D01*
X251773321Y-74988987D01*
X251884747Y-74877561D01*
X252015779Y-74790008D01*
X252161368Y-74729703D01*
X252315925Y-74698960D01*
X252473515Y-74698960D01*
X252628072Y-74729703D01*
X252628072Y-74729703D01*
G37*
G36*
X229768072Y-74729703D02*
X229913661Y-74790008D01*
X230044693Y-74877561D01*
X230156119Y-74988987D01*
X230243672Y-75120019D01*
X230303977Y-75265608D01*
X230334720Y-75420165D01*
X230334720Y-75577755D01*
X230303977Y-75732312D01*
X230243672Y-75877901D01*
X230156119Y-76008933D01*
X230044693Y-76120359D01*
X229913661Y-76207912D01*
X229768072Y-76268217D01*
X229613515Y-76298960D01*
X229455925Y-76298960D01*
X229301368Y-76268217D01*
X229155779Y-76207912D01*
X229024747Y-76120359D01*
X228913321Y-76008933D01*
X228825768Y-75877901D01*
X228765463Y-75732312D01*
X228734720Y-75577755D01*
X228734720Y-75420165D01*
X228765463Y-75265608D01*
X228825768Y-75120019D01*
X228913321Y-74988987D01*
X229024747Y-74877561D01*
X229155779Y-74790008D01*
X229301368Y-74729703D01*
X229455925Y-74698960D01*
X229613515Y-74698960D01*
X229768072Y-74729703D01*
X229768072Y-74729703D01*
G37*
G36*
X219608072Y-74729703D02*
X219753661Y-74790008D01*
X219884693Y-74877561D01*
X219996119Y-74988987D01*
X220083672Y-75120019D01*
X220143977Y-75265608D01*
X220174720Y-75420165D01*
X220174720Y-75577755D01*
X220143977Y-75732312D01*
X220083672Y-75877901D01*
X219996119Y-76008933D01*
X219884693Y-76120359D01*
X219753661Y-76207912D01*
X219608072Y-76268217D01*
X219453515Y-76298960D01*
X219295925Y-76298960D01*
X219141368Y-76268217D01*
X218995779Y-76207912D01*
X218864747Y-76120359D01*
X218753321Y-76008933D01*
X218665768Y-75877901D01*
X218605463Y-75732312D01*
X218574720Y-75577755D01*
X218574720Y-75420165D01*
X218605463Y-75265608D01*
X218665768Y-75120019D01*
X218753321Y-74988987D01*
X218864747Y-74877561D01*
X218995779Y-74790008D01*
X219141368Y-74729703D01*
X219295925Y-74698960D01*
X219453515Y-74698960D01*
X219608072Y-74729703D01*
X219608072Y-74729703D01*
G37*
G36*
X250088072Y-74729703D02*
X250233661Y-74790008D01*
X250364693Y-74877561D01*
X250476119Y-74988987D01*
X250563672Y-75120019D01*
X250623977Y-75265608D01*
X250654720Y-75420165D01*
X250654720Y-75577755D01*
X250623977Y-75732312D01*
X250563672Y-75877901D01*
X250476119Y-76008933D01*
X250364693Y-76120359D01*
X250233661Y-76207912D01*
X250088072Y-76268217D01*
X249933515Y-76298960D01*
X249775925Y-76298960D01*
X249621368Y-76268217D01*
X249475779Y-76207912D01*
X249344747Y-76120359D01*
X249233321Y-76008933D01*
X249145768Y-75877901D01*
X249085463Y-75732312D01*
X249054720Y-75577755D01*
X249054720Y-75420165D01*
X249085463Y-75265608D01*
X249145768Y-75120019D01*
X249233321Y-74988987D01*
X249344747Y-74877561D01*
X249475779Y-74790008D01*
X249621368Y-74729703D01*
X249775925Y-74698960D01*
X249933515Y-74698960D01*
X250088072Y-74729703D01*
X250088072Y-74729703D01*
G37*
G36*
X247548072Y-74729703D02*
X247693661Y-74790008D01*
X247824693Y-74877561D01*
X247936119Y-74988987D01*
X248023672Y-75120019D01*
X248083977Y-75265608D01*
X248114720Y-75420165D01*
X248114720Y-75577755D01*
X248083977Y-75732312D01*
X248023672Y-75877901D01*
X247936119Y-76008933D01*
X247824693Y-76120359D01*
X247693661Y-76207912D01*
X247548072Y-76268217D01*
X247393515Y-76298960D01*
X247235925Y-76298960D01*
X247081368Y-76268217D01*
X246935779Y-76207912D01*
X246804747Y-76120359D01*
X246693321Y-76008933D01*
X246605768Y-75877901D01*
X246545463Y-75732312D01*
X246514720Y-75577755D01*
X246514720Y-75420165D01*
X246545463Y-75265608D01*
X246605768Y-75120019D01*
X246693321Y-74988987D01*
X246804747Y-74877561D01*
X246935779Y-74790008D01*
X247081368Y-74729703D01*
X247235925Y-74698960D01*
X247393515Y-74698960D01*
X247548072Y-74729703D01*
X247548072Y-74729703D01*
G37*
G36*
X245008072Y-74729703D02*
X245153661Y-74790008D01*
X245284693Y-74877561D01*
X245396119Y-74988987D01*
X245483672Y-75120019D01*
X245543977Y-75265608D01*
X245574720Y-75420165D01*
X245574720Y-75577755D01*
X245543977Y-75732312D01*
X245483672Y-75877901D01*
X245396119Y-76008933D01*
X245284693Y-76120359D01*
X245153661Y-76207912D01*
X245008072Y-76268217D01*
X244853515Y-76298960D01*
X244695925Y-76298960D01*
X244541368Y-76268217D01*
X244395779Y-76207912D01*
X244264747Y-76120359D01*
X244153321Y-76008933D01*
X244065768Y-75877901D01*
X244005463Y-75732312D01*
X243974720Y-75577755D01*
X243974720Y-75420165D01*
X244005463Y-75265608D01*
X244065768Y-75120019D01*
X244153321Y-74988987D01*
X244264747Y-74877561D01*
X244395779Y-74790008D01*
X244541368Y-74729703D01*
X244695925Y-74698960D01*
X244853515Y-74698960D01*
X245008072Y-74729703D01*
X245008072Y-74729703D01*
G37*
G36*
X255168072Y-74729703D02*
X255313661Y-74790008D01*
X255444693Y-74877561D01*
X255556119Y-74988987D01*
X255643672Y-75120019D01*
X255703977Y-75265608D01*
X255734720Y-75420165D01*
X255734720Y-75577755D01*
X255703977Y-75732312D01*
X255643672Y-75877901D01*
X255556119Y-76008933D01*
X255444693Y-76120359D01*
X255313661Y-76207912D01*
X255168072Y-76268217D01*
X255013515Y-76298960D01*
X254855925Y-76298960D01*
X254701368Y-76268217D01*
X254555779Y-76207912D01*
X254424747Y-76120359D01*
X254313321Y-76008933D01*
X254225768Y-75877901D01*
X254165463Y-75732312D01*
X254134720Y-75577755D01*
X254134720Y-75420165D01*
X254165463Y-75265608D01*
X254225768Y-75120019D01*
X254313321Y-74988987D01*
X254424747Y-74877561D01*
X254555779Y-74790008D01*
X254701368Y-74729703D01*
X254855925Y-74698960D01*
X255013515Y-74698960D01*
X255168072Y-74729703D01*
X255168072Y-74729703D01*
G37*
G36*
X242468072Y-74729703D02*
X242613661Y-74790008D01*
X242744693Y-74877561D01*
X242856119Y-74988987D01*
X242943672Y-75120019D01*
X243003977Y-75265608D01*
X243034720Y-75420165D01*
X243034720Y-75577755D01*
X243003977Y-75732312D01*
X242943672Y-75877901D01*
X242856119Y-76008933D01*
X242744693Y-76120359D01*
X242613661Y-76207912D01*
X242468072Y-76268217D01*
X242313515Y-76298960D01*
X242155925Y-76298960D01*
X242001368Y-76268217D01*
X241855779Y-76207912D01*
X241724747Y-76120359D01*
X241613321Y-76008933D01*
X241525768Y-75877901D01*
X241465463Y-75732312D01*
X241434720Y-75577755D01*
X241434720Y-75420165D01*
X241465463Y-75265608D01*
X241525768Y-75120019D01*
X241613321Y-74988987D01*
X241724747Y-74877561D01*
X241855779Y-74790008D01*
X242001368Y-74729703D01*
X242155925Y-74698960D01*
X242313515Y-74698960D01*
X242468072Y-74729703D01*
X242468072Y-74729703D01*
G37*
G36*
X239928072Y-74729703D02*
X240073661Y-74790008D01*
X240204693Y-74877561D01*
X240316119Y-74988987D01*
X240403672Y-75120019D01*
X240463977Y-75265608D01*
X240494720Y-75420165D01*
X240494720Y-75577755D01*
X240463977Y-75732312D01*
X240403672Y-75877901D01*
X240316119Y-76008933D01*
X240204693Y-76120359D01*
X240073661Y-76207912D01*
X239928072Y-76268217D01*
X239773515Y-76298960D01*
X239615925Y-76298960D01*
X239461368Y-76268217D01*
X239315779Y-76207912D01*
X239184747Y-76120359D01*
X239073321Y-76008933D01*
X238985768Y-75877901D01*
X238925463Y-75732312D01*
X238894720Y-75577755D01*
X238894720Y-75420165D01*
X238925463Y-75265608D01*
X238985768Y-75120019D01*
X239073321Y-74988987D01*
X239184747Y-74877561D01*
X239315779Y-74790008D01*
X239461368Y-74729703D01*
X239615925Y-74698960D01*
X239773515Y-74698960D01*
X239928072Y-74729703D01*
X239928072Y-74729703D01*
G37*
G36*
X237388072Y-74729703D02*
X237533661Y-74790008D01*
X237664693Y-74877561D01*
X237776119Y-74988987D01*
X237863672Y-75120019D01*
X237923977Y-75265608D01*
X237954720Y-75420165D01*
X237954720Y-75577755D01*
X237923977Y-75732312D01*
X237863672Y-75877901D01*
X237776119Y-76008933D01*
X237664693Y-76120359D01*
X237533661Y-76207912D01*
X237388072Y-76268217D01*
X237233515Y-76298960D01*
X237075925Y-76298960D01*
X236921368Y-76268217D01*
X236775779Y-76207912D01*
X236644747Y-76120359D01*
X236533321Y-76008933D01*
X236445768Y-75877901D01*
X236385463Y-75732312D01*
X236354720Y-75577755D01*
X236354720Y-75420165D01*
X236385463Y-75265608D01*
X236445768Y-75120019D01*
X236533321Y-74988987D01*
X236644747Y-74877561D01*
X236775779Y-74790008D01*
X236921368Y-74729703D01*
X237075925Y-74698960D01*
X237233515Y-74698960D01*
X237388072Y-74729703D01*
X237388072Y-74729703D01*
G37*
G36*
X234848072Y-74729703D02*
X234993661Y-74790008D01*
X235124693Y-74877561D01*
X235236119Y-74988987D01*
X235323672Y-75120019D01*
X235383977Y-75265608D01*
X235414720Y-75420165D01*
X235414720Y-75577755D01*
X235383977Y-75732312D01*
X235323672Y-75877901D01*
X235236119Y-76008933D01*
X235124693Y-76120359D01*
X234993661Y-76207912D01*
X234848072Y-76268217D01*
X234693515Y-76298960D01*
X234535925Y-76298960D01*
X234381368Y-76268217D01*
X234235779Y-76207912D01*
X234104747Y-76120359D01*
X233993321Y-76008933D01*
X233905768Y-75877901D01*
X233845463Y-75732312D01*
X233814720Y-75577755D01*
X233814720Y-75420165D01*
X233845463Y-75265608D01*
X233905768Y-75120019D01*
X233993321Y-74988987D01*
X234104747Y-74877561D01*
X234235779Y-74790008D01*
X234381368Y-74729703D01*
X234535925Y-74698960D01*
X234693515Y-74698960D01*
X234848072Y-74729703D01*
X234848072Y-74729703D01*
G37*
G36*
X232308072Y-74729703D02*
X232453661Y-74790008D01*
X232584693Y-74877561D01*
X232696119Y-74988987D01*
X232783672Y-75120019D01*
X232843977Y-75265608D01*
X232874720Y-75420165D01*
X232874720Y-75577755D01*
X232843977Y-75732312D01*
X232783672Y-75877901D01*
X232696119Y-76008933D01*
X232584693Y-76120359D01*
X232453661Y-76207912D01*
X232308072Y-76268217D01*
X232153515Y-76298960D01*
X231995925Y-76298960D01*
X231841368Y-76268217D01*
X231695779Y-76207912D01*
X231564747Y-76120359D01*
X231453321Y-76008933D01*
X231365768Y-75877901D01*
X231305463Y-75732312D01*
X231274720Y-75577755D01*
X231274720Y-75420165D01*
X231305463Y-75265608D01*
X231365768Y-75120019D01*
X231453321Y-74988987D01*
X231564747Y-74877561D01*
X231695779Y-74790008D01*
X231841368Y-74729703D01*
X231995925Y-74698960D01*
X232153515Y-74698960D01*
X232308072Y-74729703D01*
X232308072Y-74729703D01*
G37*
G36*
X270408072Y-72189703D02*
X270553661Y-72250008D01*
X270684693Y-72337561D01*
X270796119Y-72448987D01*
X270883672Y-72580019D01*
X270943977Y-72725608D01*
X270974720Y-72880165D01*
X270974720Y-73037755D01*
X270943977Y-73192312D01*
X270883672Y-73337901D01*
X270796119Y-73468933D01*
X270684693Y-73580359D01*
X270553661Y-73667912D01*
X270408072Y-73728217D01*
X270253515Y-73758960D01*
X270095925Y-73758960D01*
X269941368Y-73728217D01*
X269795779Y-73667912D01*
X269664747Y-73580359D01*
X269553321Y-73468933D01*
X269465768Y-73337901D01*
X269405463Y-73192312D01*
X269374720Y-73037755D01*
X269374720Y-72880165D01*
X269405463Y-72725608D01*
X269465768Y-72580019D01*
X269553321Y-72448987D01*
X269664747Y-72337561D01*
X269795779Y-72250008D01*
X269941368Y-72189703D01*
X270095925Y-72158960D01*
X270253515Y-72158960D01*
X270408072Y-72189703D01*
X270408072Y-72189703D01*
G37*
G36*
X275488072Y-72189703D02*
X275633661Y-72250008D01*
X275764693Y-72337561D01*
X275876119Y-72448987D01*
X275963672Y-72580019D01*
X276023977Y-72725608D01*
X276054720Y-72880165D01*
X276054720Y-73037755D01*
X276023977Y-73192312D01*
X275963672Y-73337901D01*
X275876119Y-73468933D01*
X275764693Y-73580359D01*
X275633661Y-73667912D01*
X275488072Y-73728217D01*
X275333515Y-73758960D01*
X275175925Y-73758960D01*
X275021368Y-73728217D01*
X274875779Y-73667912D01*
X274744747Y-73580359D01*
X274633321Y-73468933D01*
X274545768Y-73337901D01*
X274485463Y-73192312D01*
X274454720Y-73037755D01*
X274454720Y-72880165D01*
X274485463Y-72725608D01*
X274545768Y-72580019D01*
X274633321Y-72448987D01*
X274744747Y-72337561D01*
X274875779Y-72250008D01*
X275021368Y-72189703D01*
X275175925Y-72158960D01*
X275333515Y-72158960D01*
X275488072Y-72189703D01*
X275488072Y-72189703D01*
G37*
G36*
X267868072Y-72189703D02*
X268013661Y-72250008D01*
X268144693Y-72337561D01*
X268256119Y-72448987D01*
X268343672Y-72580019D01*
X268403977Y-72725608D01*
X268434720Y-72880165D01*
X268434720Y-73037755D01*
X268403977Y-73192312D01*
X268343672Y-73337901D01*
X268256119Y-73468933D01*
X268144693Y-73580359D01*
X268013661Y-73667912D01*
X267868072Y-73728217D01*
X267713515Y-73758960D01*
X267555925Y-73758960D01*
X267401368Y-73728217D01*
X267255779Y-73667912D01*
X267124747Y-73580359D01*
X267013321Y-73468933D01*
X266925768Y-73337901D01*
X266865463Y-73192312D01*
X266834720Y-73037755D01*
X266834720Y-72880165D01*
X266865463Y-72725608D01*
X266925768Y-72580019D01*
X267013321Y-72448987D01*
X267124747Y-72337561D01*
X267255779Y-72250008D01*
X267401368Y-72189703D01*
X267555925Y-72158960D01*
X267713515Y-72158960D01*
X267868072Y-72189703D01*
X267868072Y-72189703D01*
G37*
G36*
X265328072Y-72189703D02*
X265473661Y-72250008D01*
X265604693Y-72337561D01*
X265716119Y-72448987D01*
X265803672Y-72580019D01*
X265863977Y-72725608D01*
X265894720Y-72880165D01*
X265894720Y-73037755D01*
X265863977Y-73192312D01*
X265803672Y-73337901D01*
X265716119Y-73468933D01*
X265604693Y-73580359D01*
X265473661Y-73667912D01*
X265328072Y-73728217D01*
X265173515Y-73758960D01*
X265015925Y-73758960D01*
X264861368Y-73728217D01*
X264715779Y-73667912D01*
X264584747Y-73580359D01*
X264473321Y-73468933D01*
X264385768Y-73337901D01*
X264325463Y-73192312D01*
X264294720Y-73037755D01*
X264294720Y-72880165D01*
X264325463Y-72725608D01*
X264385768Y-72580019D01*
X264473321Y-72448987D01*
X264584747Y-72337561D01*
X264715779Y-72250008D01*
X264861368Y-72189703D01*
X265015925Y-72158960D01*
X265173515Y-72158960D01*
X265328072Y-72189703D01*
X265328072Y-72189703D01*
G37*
G36*
X232308072Y-72189703D02*
X232453661Y-72250008D01*
X232584693Y-72337561D01*
X232696119Y-72448987D01*
X232783672Y-72580019D01*
X232843977Y-72725608D01*
X232874720Y-72880165D01*
X232874720Y-73037755D01*
X232843977Y-73192312D01*
X232783672Y-73337901D01*
X232696119Y-73468933D01*
X232584693Y-73580359D01*
X232453661Y-73667912D01*
X232308072Y-73728217D01*
X232153515Y-73758960D01*
X231995925Y-73758960D01*
X231841368Y-73728217D01*
X231695779Y-73667912D01*
X231564747Y-73580359D01*
X231453321Y-73468933D01*
X231365768Y-73337901D01*
X231305463Y-73192312D01*
X231274720Y-73037755D01*
X231274720Y-72880165D01*
X231305463Y-72725608D01*
X231365768Y-72580019D01*
X231453321Y-72448987D01*
X231564747Y-72337561D01*
X231695779Y-72250008D01*
X231841368Y-72189703D01*
X231995925Y-72158960D01*
X232153515Y-72158960D01*
X232308072Y-72189703D01*
X232308072Y-72189703D01*
G37*
G36*
X232308072Y-69649703D02*
X232453661Y-69710008D01*
X232584693Y-69797561D01*
X232696119Y-69908987D01*
X232783672Y-70040019D01*
X232843977Y-70185608D01*
X232874720Y-70340165D01*
X232874720Y-70497755D01*
X232843977Y-70652312D01*
X232783672Y-70797901D01*
X232696119Y-70928933D01*
X232584693Y-71040359D01*
X232453661Y-71127912D01*
X232308072Y-71188217D01*
X232153515Y-71218960D01*
X231995925Y-71218960D01*
X231841368Y-71188217D01*
X231695779Y-71127912D01*
X231564747Y-71040359D01*
X231453321Y-70928933D01*
X231365768Y-70797901D01*
X231305463Y-70652312D01*
X231274720Y-70497755D01*
X231274720Y-70340165D01*
X231305463Y-70185608D01*
X231365768Y-70040019D01*
X231453321Y-69908987D01*
X231564747Y-69797561D01*
X231695779Y-69710008D01*
X231841368Y-69649703D01*
X231995925Y-69618960D01*
X232153515Y-69618960D01*
X232308072Y-69649703D01*
X232308072Y-69649703D01*
G37*
G36*
X232308072Y-67109703D02*
X232453661Y-67170008D01*
X232584693Y-67257561D01*
X232696119Y-67368987D01*
X232783672Y-67500019D01*
X232843977Y-67645608D01*
X232874720Y-67800165D01*
X232874720Y-67957755D01*
X232843977Y-68112312D01*
X232783672Y-68257901D01*
X232696119Y-68388933D01*
X232584693Y-68500359D01*
X232453661Y-68587912D01*
X232308072Y-68648217D01*
X232153515Y-68678960D01*
X231995925Y-68678960D01*
X231841368Y-68648217D01*
X231695779Y-68587912D01*
X231564747Y-68500359D01*
X231453321Y-68388933D01*
X231365768Y-68257901D01*
X231305463Y-68112312D01*
X231274720Y-67957755D01*
X231274720Y-67800165D01*
X231305463Y-67645608D01*
X231365768Y-67500019D01*
X231453321Y-67368987D01*
X231564747Y-67257561D01*
X231695779Y-67170008D01*
X231841368Y-67109703D01*
X231995925Y-67078960D01*
X232153515Y-67078960D01*
X232308072Y-67109703D01*
X232308072Y-67109703D01*
G37*
G36*
X232308072Y-64569703D02*
X232453661Y-64630008D01*
X232584693Y-64717561D01*
X232696119Y-64828987D01*
X232783672Y-64960019D01*
X232843977Y-65105608D01*
X232874720Y-65260165D01*
X232874720Y-65417755D01*
X232843977Y-65572312D01*
X232783672Y-65717901D01*
X232696119Y-65848933D01*
X232584693Y-65960359D01*
X232453661Y-66047912D01*
X232308072Y-66108217D01*
X232153515Y-66138960D01*
X231995925Y-66138960D01*
X231841368Y-66108217D01*
X231695779Y-66047912D01*
X231564747Y-65960359D01*
X231453321Y-65848933D01*
X231365768Y-65717901D01*
X231305463Y-65572312D01*
X231274720Y-65417755D01*
X231274720Y-65260165D01*
X231305463Y-65105608D01*
X231365768Y-64960019D01*
X231453321Y-64828987D01*
X231564747Y-64717561D01*
X231695779Y-64630008D01*
X231841368Y-64569703D01*
X231995925Y-64538960D01*
X232153515Y-64538960D01*
X232308072Y-64569703D01*
X232308072Y-64569703D01*
G37*
G36*
X266598072Y-62489703D02*
X266743661Y-62550008D01*
X266874693Y-62637561D01*
X266986119Y-62748987D01*
X267073672Y-62880019D01*
X267133977Y-63025608D01*
X267164720Y-63180165D01*
X267164720Y-63337755D01*
X267133977Y-63492312D01*
X267073672Y-63637901D01*
X266986119Y-63768933D01*
X266874693Y-63880359D01*
X266743661Y-63967912D01*
X266598072Y-64028217D01*
X266443515Y-64058960D01*
X266285925Y-64058960D01*
X266131368Y-64028217D01*
X265985779Y-63967912D01*
X265854747Y-63880359D01*
X265743321Y-63768933D01*
X265655768Y-63637901D01*
X265595463Y-63492312D01*
X265564720Y-63337755D01*
X265564720Y-63180165D01*
X265595463Y-63025608D01*
X265655768Y-62880019D01*
X265743321Y-62748987D01*
X265854747Y-62637561D01*
X265985779Y-62550008D01*
X266131368Y-62489703D01*
X266285925Y-62458960D01*
X266443515Y-62458960D01*
X266598072Y-62489703D01*
X266598072Y-62489703D01*
G37*
G36*
X271678072Y-62489703D02*
X271823661Y-62550008D01*
X271954693Y-62637561D01*
X272066119Y-62748987D01*
X272153672Y-62880019D01*
X272213977Y-63025608D01*
X272244720Y-63180165D01*
X272244720Y-63337755D01*
X272213977Y-63492312D01*
X272153672Y-63637901D01*
X272066119Y-63768933D01*
X271954693Y-63880359D01*
X271823661Y-63967912D01*
X271678072Y-64028217D01*
X271523515Y-64058960D01*
X271365925Y-64058960D01*
X271211368Y-64028217D01*
X271065779Y-63967912D01*
X270934747Y-63880359D01*
X270823321Y-63768933D01*
X270735768Y-63637901D01*
X270675463Y-63492312D01*
X270644720Y-63337755D01*
X270644720Y-63180165D01*
X270675463Y-63025608D01*
X270735768Y-62880019D01*
X270823321Y-62748987D01*
X270934747Y-62637561D01*
X271065779Y-62550008D01*
X271211368Y-62489703D01*
X271365925Y-62458960D01*
X271523515Y-62458960D01*
X271678072Y-62489703D01*
X271678072Y-62489703D01*
G37*
G36*
X264058072Y-62489703D02*
X264203661Y-62550008D01*
X264334693Y-62637561D01*
X264446119Y-62748987D01*
X264533672Y-62880019D01*
X264593977Y-63025608D01*
X264624720Y-63180165D01*
X264624720Y-63337755D01*
X264593977Y-63492312D01*
X264533672Y-63637901D01*
X264446119Y-63768933D01*
X264334693Y-63880359D01*
X264203661Y-63967912D01*
X264058072Y-64028217D01*
X263903515Y-64058960D01*
X263745925Y-64058960D01*
X263591368Y-64028217D01*
X263445779Y-63967912D01*
X263314747Y-63880359D01*
X263203321Y-63768933D01*
X263115768Y-63637901D01*
X263055463Y-63492312D01*
X263024720Y-63337755D01*
X263024720Y-63180165D01*
X263055463Y-63025608D01*
X263115768Y-62880019D01*
X263203321Y-62748987D01*
X263314747Y-62637561D01*
X263445779Y-62550008D01*
X263591368Y-62489703D01*
X263745925Y-62458960D01*
X263903515Y-62458960D01*
X264058072Y-62489703D01*
X264058072Y-62489703D01*
G37*
G36*
X261518072Y-62489703D02*
X261663661Y-62550008D01*
X261794693Y-62637561D01*
X261906119Y-62748987D01*
X261993672Y-62880019D01*
X262053977Y-63025608D01*
X262084720Y-63180165D01*
X262084720Y-63337755D01*
X262053977Y-63492312D01*
X261993672Y-63637901D01*
X261906119Y-63768933D01*
X261794693Y-63880359D01*
X261663661Y-63967912D01*
X261518072Y-64028217D01*
X261363515Y-64058960D01*
X261205925Y-64058960D01*
X261051368Y-64028217D01*
X260905779Y-63967912D01*
X260774747Y-63880359D01*
X260663321Y-63768933D01*
X260575768Y-63637901D01*
X260515463Y-63492312D01*
X260484720Y-63337755D01*
X260484720Y-63180165D01*
X260515463Y-63025608D01*
X260575768Y-62880019D01*
X260663321Y-62748987D01*
X260774747Y-62637561D01*
X260905779Y-62550008D01*
X261051368Y-62489703D01*
X261205925Y-62458960D01*
X261363515Y-62458960D01*
X261518072Y-62489703D01*
X261518072Y-62489703D01*
G37*
G36*
X269138072Y-62489703D02*
X269283661Y-62550008D01*
X269414693Y-62637561D01*
X269526119Y-62748987D01*
X269613672Y-62880019D01*
X269673977Y-63025608D01*
X269704720Y-63180165D01*
X269704720Y-63337755D01*
X269673977Y-63492312D01*
X269613672Y-63637901D01*
X269526119Y-63768933D01*
X269414693Y-63880359D01*
X269283661Y-63967912D01*
X269138072Y-64028217D01*
X268983515Y-64058960D01*
X268825925Y-64058960D01*
X268671368Y-64028217D01*
X268525779Y-63967912D01*
X268394747Y-63880359D01*
X268283321Y-63768933D01*
X268195768Y-63637901D01*
X268135463Y-63492312D01*
X268104720Y-63337755D01*
X268104720Y-63180165D01*
X268135463Y-63025608D01*
X268195768Y-62880019D01*
X268283321Y-62748987D01*
X268394747Y-62637561D01*
X268525779Y-62550008D01*
X268671368Y-62489703D01*
X268825925Y-62458960D01*
X268983515Y-62458960D01*
X269138072Y-62489703D01*
X269138072Y-62489703D01*
G37*
G36*
X232308072Y-62029703D02*
X232453661Y-62090008D01*
X232584693Y-62177561D01*
X232696119Y-62288987D01*
X232783672Y-62420019D01*
X232843977Y-62565608D01*
X232874720Y-62720165D01*
X232874720Y-62877755D01*
X232843977Y-63032312D01*
X232783672Y-63177901D01*
X232696119Y-63308933D01*
X232584693Y-63420359D01*
X232453661Y-63507912D01*
X232308072Y-63568217D01*
X232153515Y-63598960D01*
X231995925Y-63598960D01*
X231841368Y-63568217D01*
X231695779Y-63507912D01*
X231564747Y-63420359D01*
X231453321Y-63308933D01*
X231365768Y-63177901D01*
X231305463Y-63032312D01*
X231274720Y-62877755D01*
X231274720Y-62720165D01*
X231305463Y-62565608D01*
X231365768Y-62420019D01*
X231453321Y-62288987D01*
X231564747Y-62177561D01*
X231695779Y-62090008D01*
X231841368Y-62029703D01*
X231995925Y-61998960D01*
X232153515Y-61998960D01*
X232308072Y-62029703D01*
X232308072Y-62029703D01*
G37*
G36*
X219608072Y-59489703D02*
X219753661Y-59550008D01*
X219884693Y-59637561D01*
X219996119Y-59748987D01*
X220083672Y-59880019D01*
X220143977Y-60025608D01*
X220174720Y-60180165D01*
X220174720Y-60337755D01*
X220143977Y-60492312D01*
X220083672Y-60637901D01*
X219996119Y-60768933D01*
X219884693Y-60880359D01*
X219753661Y-60967912D01*
X219608072Y-61028217D01*
X219453515Y-61058960D01*
X219295925Y-61058960D01*
X219141368Y-61028217D01*
X218995779Y-60967912D01*
X218864747Y-60880359D01*
X218753321Y-60768933D01*
X218665768Y-60637901D01*
X218605463Y-60492312D01*
X218574720Y-60337755D01*
X218574720Y-60180165D01*
X218605463Y-60025608D01*
X218665768Y-59880019D01*
X218753321Y-59748987D01*
X218864747Y-59637561D01*
X218995779Y-59550008D01*
X219141368Y-59489703D01*
X219295925Y-59458960D01*
X219453515Y-59458960D01*
X219608072Y-59489703D01*
X219608072Y-59489703D01*
G37*
G36*
X245008072Y-59489703D02*
X245153661Y-59550008D01*
X245284693Y-59637561D01*
X245396119Y-59748987D01*
X245483672Y-59880019D01*
X245543977Y-60025608D01*
X245574720Y-60180165D01*
X245574720Y-60337755D01*
X245543977Y-60492312D01*
X245483672Y-60637901D01*
X245396119Y-60768933D01*
X245284693Y-60880359D01*
X245153661Y-60967912D01*
X245008072Y-61028217D01*
X244853515Y-61058960D01*
X244695925Y-61058960D01*
X244541368Y-61028217D01*
X244395779Y-60967912D01*
X244264747Y-60880359D01*
X244153321Y-60768933D01*
X244065768Y-60637901D01*
X244005463Y-60492312D01*
X243974720Y-60337755D01*
X243974720Y-60180165D01*
X244005463Y-60025608D01*
X244065768Y-59880019D01*
X244153321Y-59748987D01*
X244264747Y-59637561D01*
X244395779Y-59550008D01*
X244541368Y-59489703D01*
X244695925Y-59458960D01*
X244853515Y-59458960D01*
X245008072Y-59489703D01*
X245008072Y-59489703D01*
G37*
G36*
X242468072Y-59489703D02*
X242613661Y-59550008D01*
X242744693Y-59637561D01*
X242856119Y-59748987D01*
X242943672Y-59880019D01*
X243003977Y-60025608D01*
X243034720Y-60180165D01*
X243034720Y-60337755D01*
X243003977Y-60492312D01*
X242943672Y-60637901D01*
X242856119Y-60768933D01*
X242744693Y-60880359D01*
X242613661Y-60967912D01*
X242468072Y-61028217D01*
X242313515Y-61058960D01*
X242155925Y-61058960D01*
X242001368Y-61028217D01*
X241855779Y-60967912D01*
X241724747Y-60880359D01*
X241613321Y-60768933D01*
X241525768Y-60637901D01*
X241465463Y-60492312D01*
X241434720Y-60337755D01*
X241434720Y-60180165D01*
X241465463Y-60025608D01*
X241525768Y-59880019D01*
X241613321Y-59748987D01*
X241724747Y-59637561D01*
X241855779Y-59550008D01*
X242001368Y-59489703D01*
X242155925Y-59458960D01*
X242313515Y-59458960D01*
X242468072Y-59489703D01*
X242468072Y-59489703D01*
G37*
G36*
X239928072Y-59489703D02*
X240073661Y-59550008D01*
X240204693Y-59637561D01*
X240316119Y-59748987D01*
X240403672Y-59880019D01*
X240463977Y-60025608D01*
X240494720Y-60180165D01*
X240494720Y-60337755D01*
X240463977Y-60492312D01*
X240403672Y-60637901D01*
X240316119Y-60768933D01*
X240204693Y-60880359D01*
X240073661Y-60967912D01*
X239928072Y-61028217D01*
X239773515Y-61058960D01*
X239615925Y-61058960D01*
X239461368Y-61028217D01*
X239315779Y-60967912D01*
X239184747Y-60880359D01*
X239073321Y-60768933D01*
X238985768Y-60637901D01*
X238925463Y-60492312D01*
X238894720Y-60337755D01*
X238894720Y-60180165D01*
X238925463Y-60025608D01*
X238985768Y-59880019D01*
X239073321Y-59748987D01*
X239184747Y-59637561D01*
X239315779Y-59550008D01*
X239461368Y-59489703D01*
X239615925Y-59458960D01*
X239773515Y-59458960D01*
X239928072Y-59489703D01*
X239928072Y-59489703D01*
G37*
G36*
X237388072Y-59489703D02*
X237533661Y-59550008D01*
X237664693Y-59637561D01*
X237776119Y-59748987D01*
X237863672Y-59880019D01*
X237923977Y-60025608D01*
X237954720Y-60180165D01*
X237954720Y-60337755D01*
X237923977Y-60492312D01*
X237863672Y-60637901D01*
X237776119Y-60768933D01*
X237664693Y-60880359D01*
X237533661Y-60967912D01*
X237388072Y-61028217D01*
X237233515Y-61058960D01*
X237075925Y-61058960D01*
X236921368Y-61028217D01*
X236775779Y-60967912D01*
X236644747Y-60880359D01*
X236533321Y-60768933D01*
X236445768Y-60637901D01*
X236385463Y-60492312D01*
X236354720Y-60337755D01*
X236354720Y-60180165D01*
X236385463Y-60025608D01*
X236445768Y-59880019D01*
X236533321Y-59748987D01*
X236644747Y-59637561D01*
X236775779Y-59550008D01*
X236921368Y-59489703D01*
X237075925Y-59458960D01*
X237233515Y-59458960D01*
X237388072Y-59489703D01*
X237388072Y-59489703D01*
G37*
G36*
X234848072Y-59489703D02*
X234993661Y-59550008D01*
X235124693Y-59637561D01*
X235236119Y-59748987D01*
X235323672Y-59880019D01*
X235383977Y-60025608D01*
X235414720Y-60180165D01*
X235414720Y-60337755D01*
X235383977Y-60492312D01*
X235323672Y-60637901D01*
X235236119Y-60768933D01*
X235124693Y-60880359D01*
X234993661Y-60967912D01*
X234848072Y-61028217D01*
X234693515Y-61058960D01*
X234535925Y-61058960D01*
X234381368Y-61028217D01*
X234235779Y-60967912D01*
X234104747Y-60880359D01*
X233993321Y-60768933D01*
X233905768Y-60637901D01*
X233845463Y-60492312D01*
X233814720Y-60337755D01*
X233814720Y-60180165D01*
X233845463Y-60025608D01*
X233905768Y-59880019D01*
X233993321Y-59748987D01*
X234104747Y-59637561D01*
X234235779Y-59550008D01*
X234381368Y-59489703D01*
X234535925Y-59458960D01*
X234693515Y-59458960D01*
X234848072Y-59489703D01*
X234848072Y-59489703D01*
G37*
G36*
X232308072Y-59489703D02*
X232453661Y-59550008D01*
X232584693Y-59637561D01*
X232696119Y-59748987D01*
X232783672Y-59880019D01*
X232843977Y-60025608D01*
X232874720Y-60180165D01*
X232874720Y-60337755D01*
X232843977Y-60492312D01*
X232783672Y-60637901D01*
X232696119Y-60768933D01*
X232584693Y-60880359D01*
X232453661Y-60967912D01*
X232308072Y-61028217D01*
X232153515Y-61058960D01*
X231995925Y-61058960D01*
X231841368Y-61028217D01*
X231695779Y-60967912D01*
X231564747Y-60880359D01*
X231453321Y-60768933D01*
X231365768Y-60637901D01*
X231305463Y-60492312D01*
X231274720Y-60337755D01*
X231274720Y-60180165D01*
X231305463Y-60025608D01*
X231365768Y-59880019D01*
X231453321Y-59748987D01*
X231564747Y-59637561D01*
X231695779Y-59550008D01*
X231841368Y-59489703D01*
X231995925Y-59458960D01*
X232153515Y-59458960D01*
X232308072Y-59489703D01*
X232308072Y-59489703D01*
G37*
G36*
X229768072Y-59489703D02*
X229913661Y-59550008D01*
X230044693Y-59637561D01*
X230156119Y-59748987D01*
X230243672Y-59880019D01*
X230303977Y-60025608D01*
X230334720Y-60180165D01*
X230334720Y-60337755D01*
X230303977Y-60492312D01*
X230243672Y-60637901D01*
X230156119Y-60768933D01*
X230044693Y-60880359D01*
X229913661Y-60967912D01*
X229768072Y-61028217D01*
X229613515Y-61058960D01*
X229455925Y-61058960D01*
X229301368Y-61028217D01*
X229155779Y-60967912D01*
X229024747Y-60880359D01*
X228913321Y-60768933D01*
X228825768Y-60637901D01*
X228765463Y-60492312D01*
X228734720Y-60337755D01*
X228734720Y-60180165D01*
X228765463Y-60025608D01*
X228825768Y-59880019D01*
X228913321Y-59748987D01*
X229024747Y-59637561D01*
X229155779Y-59550008D01*
X229301368Y-59489703D01*
X229455925Y-59458960D01*
X229613515Y-59458960D01*
X229768072Y-59489703D01*
X229768072Y-59489703D01*
G37*
G36*
X227228072Y-59489703D02*
X227373661Y-59550008D01*
X227504693Y-59637561D01*
X227616119Y-59748987D01*
X227703672Y-59880019D01*
X227763977Y-60025608D01*
X227794720Y-60180165D01*
X227794720Y-60337755D01*
X227763977Y-60492312D01*
X227703672Y-60637901D01*
X227616119Y-60768933D01*
X227504693Y-60880359D01*
X227373661Y-60967912D01*
X227228072Y-61028217D01*
X227073515Y-61058960D01*
X226915925Y-61058960D01*
X226761368Y-61028217D01*
X226615779Y-60967912D01*
X226484747Y-60880359D01*
X226373321Y-60768933D01*
X226285768Y-60637901D01*
X226225463Y-60492312D01*
X226194720Y-60337755D01*
X226194720Y-60180165D01*
X226225463Y-60025608D01*
X226285768Y-59880019D01*
X226373321Y-59748987D01*
X226484747Y-59637561D01*
X226615779Y-59550008D01*
X226761368Y-59489703D01*
X226915925Y-59458960D01*
X227073515Y-59458960D01*
X227228072Y-59489703D01*
X227228072Y-59489703D01*
G37*
G36*
X224688072Y-59489703D02*
X224833661Y-59550008D01*
X224964693Y-59637561D01*
X225076119Y-59748987D01*
X225163672Y-59880019D01*
X225223977Y-60025608D01*
X225254720Y-60180165D01*
X225254720Y-60337755D01*
X225223977Y-60492312D01*
X225163672Y-60637901D01*
X225076119Y-60768933D01*
X224964693Y-60880359D01*
X224833661Y-60967912D01*
X224688072Y-61028217D01*
X224533515Y-61058960D01*
X224375925Y-61058960D01*
X224221368Y-61028217D01*
X224075779Y-60967912D01*
X223944747Y-60880359D01*
X223833321Y-60768933D01*
X223745768Y-60637901D01*
X223685463Y-60492312D01*
X223654720Y-60337755D01*
X223654720Y-60180165D01*
X223685463Y-60025608D01*
X223745768Y-59880019D01*
X223833321Y-59748987D01*
X223944747Y-59637561D01*
X224075779Y-59550008D01*
X224221368Y-59489703D01*
X224375925Y-59458960D01*
X224533515Y-59458960D01*
X224688072Y-59489703D01*
X224688072Y-59489703D01*
G37*
G36*
X222148072Y-59489703D02*
X222293661Y-59550008D01*
X222424693Y-59637561D01*
X222536119Y-59748987D01*
X222623672Y-59880019D01*
X222683977Y-60025608D01*
X222714720Y-60180165D01*
X222714720Y-60337755D01*
X222683977Y-60492312D01*
X222623672Y-60637901D01*
X222536119Y-60768933D01*
X222424693Y-60880359D01*
X222293661Y-60967912D01*
X222148072Y-61028217D01*
X221993515Y-61058960D01*
X221835925Y-61058960D01*
X221681368Y-61028217D01*
X221535779Y-60967912D01*
X221404747Y-60880359D01*
X221293321Y-60768933D01*
X221205768Y-60637901D01*
X221145463Y-60492312D01*
X221114720Y-60337755D01*
X221114720Y-60180165D01*
X221145463Y-60025608D01*
X221205768Y-59880019D01*
X221293321Y-59748987D01*
X221404747Y-59637561D01*
X221535779Y-59550008D01*
X221681368Y-59489703D01*
X221835925Y-59458960D01*
X221993515Y-59458960D01*
X222148072Y-59489703D01*
X222148072Y-59489703D01*
G37*
G36*
X272948072Y-59489703D02*
X273093661Y-59550008D01*
X273224693Y-59637561D01*
X273336119Y-59748987D01*
X273423672Y-59880019D01*
X273483977Y-60025608D01*
X273514720Y-60180165D01*
X273514720Y-60337755D01*
X273483977Y-60492312D01*
X273423672Y-60637901D01*
X273336119Y-60768933D01*
X273224693Y-60880359D01*
X273093661Y-60967912D01*
X272948072Y-61028217D01*
X272793515Y-61058960D01*
X272635925Y-61058960D01*
X272481368Y-61028217D01*
X272335779Y-60967912D01*
X272204747Y-60880359D01*
X272093321Y-60768933D01*
X272005768Y-60637901D01*
X271945463Y-60492312D01*
X271914720Y-60337755D01*
X271914720Y-60180165D01*
X271945463Y-60025608D01*
X272005768Y-59880019D01*
X272093321Y-59748987D01*
X272204747Y-59637561D01*
X272335779Y-59550008D01*
X272481368Y-59489703D01*
X272635925Y-59458960D01*
X272793515Y-59458960D01*
X272948072Y-59489703D01*
X272948072Y-59489703D01*
G37*
G36*
X267868072Y-59489703D02*
X268013661Y-59550008D01*
X268144693Y-59637561D01*
X268256119Y-59748987D01*
X268343672Y-59880019D01*
X268403977Y-60025608D01*
X268434720Y-60180165D01*
X268434720Y-60337755D01*
X268403977Y-60492312D01*
X268343672Y-60637901D01*
X268256119Y-60768933D01*
X268144693Y-60880359D01*
X268013661Y-60967912D01*
X267868072Y-61028217D01*
X267713515Y-61058960D01*
X267555925Y-61058960D01*
X267401368Y-61028217D01*
X267255779Y-60967912D01*
X267124747Y-60880359D01*
X267013321Y-60768933D01*
X266925768Y-60637901D01*
X266865463Y-60492312D01*
X266834720Y-60337755D01*
X266834720Y-60180165D01*
X266865463Y-60025608D01*
X266925768Y-59880019D01*
X267013321Y-59748987D01*
X267124747Y-59637561D01*
X267255779Y-59550008D01*
X267401368Y-59489703D01*
X267555925Y-59458960D01*
X267713515Y-59458960D01*
X267868072Y-59489703D01*
X267868072Y-59489703D01*
G37*
G36*
X262788072Y-59489703D02*
X262933661Y-59550008D01*
X263064693Y-59637561D01*
X263176119Y-59748987D01*
X263263672Y-59880019D01*
X263323977Y-60025608D01*
X263354720Y-60180165D01*
X263354720Y-60337755D01*
X263323977Y-60492312D01*
X263263672Y-60637901D01*
X263176119Y-60768933D01*
X263064693Y-60880359D01*
X262933661Y-60967912D01*
X262788072Y-61028217D01*
X262633515Y-61058960D01*
X262475925Y-61058960D01*
X262321368Y-61028217D01*
X262175779Y-60967912D01*
X262044747Y-60880359D01*
X261933321Y-60768933D01*
X261845768Y-60637901D01*
X261785463Y-60492312D01*
X261754720Y-60337755D01*
X261754720Y-60180165D01*
X261785463Y-60025608D01*
X261845768Y-59880019D01*
X261933321Y-59748987D01*
X262044747Y-59637561D01*
X262175779Y-59550008D01*
X262321368Y-59489703D01*
X262475925Y-59458960D01*
X262633515Y-59458960D01*
X262788072Y-59489703D01*
X262788072Y-59489703D01*
G37*
G36*
X270408072Y-59489703D02*
X270553661Y-59550008D01*
X270684693Y-59637561D01*
X270796119Y-59748987D01*
X270883672Y-59880019D01*
X270943977Y-60025608D01*
X270974720Y-60180165D01*
X270974720Y-60337755D01*
X270943977Y-60492312D01*
X270883672Y-60637901D01*
X270796119Y-60768933D01*
X270684693Y-60880359D01*
X270553661Y-60967912D01*
X270408072Y-61028217D01*
X270253515Y-61058960D01*
X270095925Y-61058960D01*
X269941368Y-61028217D01*
X269795779Y-60967912D01*
X269664747Y-60880359D01*
X269553321Y-60768933D01*
X269465768Y-60637901D01*
X269405463Y-60492312D01*
X269374720Y-60337755D01*
X269374720Y-60180165D01*
X269405463Y-60025608D01*
X269465768Y-59880019D01*
X269553321Y-59748987D01*
X269664747Y-59637561D01*
X269795779Y-59550008D01*
X269941368Y-59489703D01*
X270095925Y-59458960D01*
X270253515Y-59458960D01*
X270408072Y-59489703D01*
X270408072Y-59489703D01*
G37*
G36*
X275488072Y-59489703D02*
X275633661Y-59550008D01*
X275764693Y-59637561D01*
X275876119Y-59748987D01*
X275963672Y-59880019D01*
X276023977Y-60025608D01*
X276054720Y-60180165D01*
X276054720Y-60337755D01*
X276023977Y-60492312D01*
X275963672Y-60637901D01*
X275876119Y-60768933D01*
X275764693Y-60880359D01*
X275633661Y-60967912D01*
X275488072Y-61028217D01*
X275333515Y-61058960D01*
X275175925Y-61058960D01*
X275021368Y-61028217D01*
X274875779Y-60967912D01*
X274744747Y-60880359D01*
X274633321Y-60768933D01*
X274545768Y-60637901D01*
X274485463Y-60492312D01*
X274454720Y-60337755D01*
X274454720Y-60180165D01*
X274485463Y-60025608D01*
X274545768Y-59880019D01*
X274633321Y-59748987D01*
X274744747Y-59637561D01*
X274875779Y-59550008D01*
X275021368Y-59489703D01*
X275175925Y-59458960D01*
X275333515Y-59458960D01*
X275488072Y-59489703D01*
X275488072Y-59489703D01*
G37*
G36*
X278594720Y-61058960D02*
X276994720Y-61058960D01*
X276994720Y-59458960D01*
X278594720Y-59458960D01*
X278594720Y-61058960D01*
X278594720Y-61058960D01*
G37*
G36*
X247548072Y-59489703D02*
X247693661Y-59550008D01*
X247824693Y-59637561D01*
X247936119Y-59748987D01*
X248023672Y-59880019D01*
X248083977Y-60025608D01*
X248114720Y-60180165D01*
X248114720Y-60337755D01*
X248083977Y-60492312D01*
X248023672Y-60637901D01*
X247936119Y-60768933D01*
X247824693Y-60880359D01*
X247693661Y-60967912D01*
X247548072Y-61028217D01*
X247393515Y-61058960D01*
X247235925Y-61058960D01*
X247081368Y-61028217D01*
X246935779Y-60967912D01*
X246804747Y-60880359D01*
X246693321Y-60768933D01*
X246605768Y-60637901D01*
X246545463Y-60492312D01*
X246514720Y-60337755D01*
X246514720Y-60180165D01*
X246545463Y-60025608D01*
X246605768Y-59880019D01*
X246693321Y-59748987D01*
X246804747Y-59637561D01*
X246935779Y-59550008D01*
X247081368Y-59489703D01*
X247235925Y-59458960D01*
X247393515Y-59458960D01*
X247548072Y-59489703D01*
X247548072Y-59489703D01*
G37*
G36*
X250088072Y-59489703D02*
X250233661Y-59550008D01*
X250364693Y-59637561D01*
X250476119Y-59748987D01*
X250563672Y-59880019D01*
X250623977Y-60025608D01*
X250654720Y-60180165D01*
X250654720Y-60337755D01*
X250623977Y-60492312D01*
X250563672Y-60637901D01*
X250476119Y-60768933D01*
X250364693Y-60880359D01*
X250233661Y-60967912D01*
X250088072Y-61028217D01*
X249933515Y-61058960D01*
X249775925Y-61058960D01*
X249621368Y-61028217D01*
X249475779Y-60967912D01*
X249344747Y-60880359D01*
X249233321Y-60768933D01*
X249145768Y-60637901D01*
X249085463Y-60492312D01*
X249054720Y-60337755D01*
X249054720Y-60180165D01*
X249085463Y-60025608D01*
X249145768Y-59880019D01*
X249233321Y-59748987D01*
X249344747Y-59637561D01*
X249475779Y-59550008D01*
X249621368Y-59489703D01*
X249775925Y-59458960D01*
X249933515Y-59458960D01*
X250088072Y-59489703D01*
X250088072Y-59489703D01*
G37*
G36*
X252628072Y-59489703D02*
X252773661Y-59550008D01*
X252904693Y-59637561D01*
X253016119Y-59748987D01*
X253103672Y-59880019D01*
X253163977Y-60025608D01*
X253194720Y-60180165D01*
X253194720Y-60337755D01*
X253163977Y-60492312D01*
X253103672Y-60637901D01*
X253016119Y-60768933D01*
X252904693Y-60880359D01*
X252773661Y-60967912D01*
X252628072Y-61028217D01*
X252473515Y-61058960D01*
X252315925Y-61058960D01*
X252161368Y-61028217D01*
X252015779Y-60967912D01*
X251884747Y-60880359D01*
X251773321Y-60768933D01*
X251685768Y-60637901D01*
X251625463Y-60492312D01*
X251594720Y-60337755D01*
X251594720Y-60180165D01*
X251625463Y-60025608D01*
X251685768Y-59880019D01*
X251773321Y-59748987D01*
X251884747Y-59637561D01*
X252015779Y-59550008D01*
X252161368Y-59489703D01*
X252315925Y-59458960D01*
X252473515Y-59458960D01*
X252628072Y-59489703D01*
X252628072Y-59489703D01*
G37*
G36*
X255168072Y-59489703D02*
X255313661Y-59550008D01*
X255444693Y-59637561D01*
X255556119Y-59748987D01*
X255643672Y-59880019D01*
X255703977Y-60025608D01*
X255734720Y-60180165D01*
X255734720Y-60337755D01*
X255703977Y-60492312D01*
X255643672Y-60637901D01*
X255556119Y-60768933D01*
X255444693Y-60880359D01*
X255313661Y-60967912D01*
X255168072Y-61028217D01*
X255013515Y-61058960D01*
X254855925Y-61058960D01*
X254701368Y-61028217D01*
X254555779Y-60967912D01*
X254424747Y-60880359D01*
X254313321Y-60768933D01*
X254225768Y-60637901D01*
X254165463Y-60492312D01*
X254134720Y-60337755D01*
X254134720Y-60180165D01*
X254165463Y-60025608D01*
X254225768Y-59880019D01*
X254313321Y-59748987D01*
X254424747Y-59637561D01*
X254555779Y-59550008D01*
X254701368Y-59489703D01*
X254855925Y-59458960D01*
X255013515Y-59458960D01*
X255168072Y-59489703D01*
X255168072Y-59489703D01*
G37*
G36*
X257708072Y-59489703D02*
X257853661Y-59550008D01*
X257984693Y-59637561D01*
X258096119Y-59748987D01*
X258183672Y-59880019D01*
X258243977Y-60025608D01*
X258274720Y-60180165D01*
X258274720Y-60337755D01*
X258243977Y-60492312D01*
X258183672Y-60637901D01*
X258096119Y-60768933D01*
X257984693Y-60880359D01*
X257853661Y-60967912D01*
X257708072Y-61028217D01*
X257553515Y-61058960D01*
X257395925Y-61058960D01*
X257241368Y-61028217D01*
X257095779Y-60967912D01*
X256964747Y-60880359D01*
X256853321Y-60768933D01*
X256765768Y-60637901D01*
X256705463Y-60492312D01*
X256674720Y-60337755D01*
X256674720Y-60180165D01*
X256705463Y-60025608D01*
X256765768Y-59880019D01*
X256853321Y-59748987D01*
X256964747Y-59637561D01*
X257095779Y-59550008D01*
X257241368Y-59489703D01*
X257395925Y-59458960D01*
X257553515Y-59458960D01*
X257708072Y-59489703D01*
X257708072Y-59489703D01*
G37*
G36*
X260248072Y-59489703D02*
X260393661Y-59550008D01*
X260524693Y-59637561D01*
X260636119Y-59748987D01*
X260723672Y-59880019D01*
X260783977Y-60025608D01*
X260814720Y-60180165D01*
X260814720Y-60337755D01*
X260783977Y-60492312D01*
X260723672Y-60637901D01*
X260636119Y-60768933D01*
X260524693Y-60880359D01*
X260393661Y-60967912D01*
X260248072Y-61028217D01*
X260093515Y-61058960D01*
X259935925Y-61058960D01*
X259781368Y-61028217D01*
X259635779Y-60967912D01*
X259504747Y-60880359D01*
X259393321Y-60768933D01*
X259305768Y-60637901D01*
X259245463Y-60492312D01*
X259214720Y-60337755D01*
X259214720Y-60180165D01*
X259245463Y-60025608D01*
X259305768Y-59880019D01*
X259393321Y-59748987D01*
X259504747Y-59637561D01*
X259635779Y-59550008D01*
X259781368Y-59489703D01*
X259935925Y-59458960D01*
X260093515Y-59458960D01*
X260248072Y-59489703D01*
X260248072Y-59489703D01*
G37*
G36*
X265328072Y-59489703D02*
X265473661Y-59550008D01*
X265604693Y-59637561D01*
X265716119Y-59748987D01*
X265803672Y-59880019D01*
X265863977Y-60025608D01*
X265894720Y-60180165D01*
X265894720Y-60337755D01*
X265863977Y-60492312D01*
X265803672Y-60637901D01*
X265716119Y-60768933D01*
X265604693Y-60880359D01*
X265473661Y-60967912D01*
X265328072Y-61028217D01*
X265173515Y-61058960D01*
X265015925Y-61058960D01*
X264861368Y-61028217D01*
X264715779Y-60967912D01*
X264584747Y-60880359D01*
X264473321Y-60768933D01*
X264385768Y-60637901D01*
X264325463Y-60492312D01*
X264294720Y-60337755D01*
X264294720Y-60180165D01*
X264325463Y-60025608D01*
X264385768Y-59880019D01*
X264473321Y-59748987D01*
X264584747Y-59637561D01*
X264715779Y-59550008D01*
X264861368Y-59489703D01*
X265015925Y-59458960D01*
X265173515Y-59458960D01*
X265328072Y-59489703D01*
X265328072Y-59489703D01*
G37*
G36*
X216508590Y-46104039D02*
X216668815Y-46152643D01*
X216816480Y-46231571D01*
X216945909Y-46337791D01*
X217052129Y-46467220D01*
X217131057Y-46614885D01*
X217179661Y-46775110D01*
X217196072Y-46941740D01*
X217179661Y-47108370D01*
X217131057Y-47268595D01*
X217052129Y-47416260D01*
X216945909Y-47545689D01*
X216816480Y-47651909D01*
X216668815Y-47730837D01*
X216508590Y-47779441D01*
X216383712Y-47791740D01*
X216300208Y-47791740D01*
X216175330Y-47779441D01*
X216015105Y-47730837D01*
X215867440Y-47651909D01*
X215738011Y-47545689D01*
X215631791Y-47416260D01*
X215552863Y-47268595D01*
X215504259Y-47108370D01*
X215487848Y-46941740D01*
X215504259Y-46775110D01*
X215552863Y-46614885D01*
X215631791Y-46467220D01*
X215738011Y-46337791D01*
X215867440Y-46231571D01*
X216015105Y-46152643D01*
X216175330Y-46104039D01*
X216300208Y-46091740D01*
X216383712Y-46091740D01*
X216508590Y-46104039D01*
X216508590Y-46104039D01*
G37*
G36*
X222325190Y-46076099D02*
X222485415Y-46124703D01*
X222633080Y-46203631D01*
X222762509Y-46309851D01*
X222868729Y-46439280D01*
X222947657Y-46586945D01*
X222996261Y-46747170D01*
X223012672Y-46913800D01*
X222996261Y-47080430D01*
X222947657Y-47240655D01*
X222868729Y-47388320D01*
X222762509Y-47517749D01*
X222633080Y-47623969D01*
X222485415Y-47702897D01*
X222325190Y-47751501D01*
X222200312Y-47763800D01*
X222116808Y-47763800D01*
X221991930Y-47751501D01*
X221831705Y-47702897D01*
X221684040Y-47623969D01*
X221554611Y-47517749D01*
X221448391Y-47388320D01*
X221369463Y-47240655D01*
X221320859Y-47080430D01*
X221304448Y-46913800D01*
X221320859Y-46747170D01*
X221369463Y-46586945D01*
X221448391Y-46439280D01*
X221554611Y-46309851D01*
X221684040Y-46203631D01*
X221831705Y-46124703D01*
X221991930Y-46076099D01*
X222116808Y-46063800D01*
X222200312Y-46063800D01*
X222325190Y-46076099D01*
X222325190Y-46076099D01*
G37*
G36*
X235540810Y-46076099D02*
X235701035Y-46124703D01*
X235848700Y-46203631D01*
X235978129Y-46309851D01*
X236084349Y-46439280D01*
X236163277Y-46586945D01*
X236211881Y-46747170D01*
X236228292Y-46913800D01*
X236211881Y-47080430D01*
X236163277Y-47240655D01*
X236084349Y-47388320D01*
X235978129Y-47517749D01*
X235848700Y-47623969D01*
X235701035Y-47702897D01*
X235540810Y-47751501D01*
X235415932Y-47763800D01*
X235332428Y-47763800D01*
X235207550Y-47751501D01*
X235047325Y-47702897D01*
X234899660Y-47623969D01*
X234770231Y-47517749D01*
X234664011Y-47388320D01*
X234585083Y-47240655D01*
X234536479Y-47080430D01*
X234520068Y-46913800D01*
X234536479Y-46747170D01*
X234585083Y-46586945D01*
X234664011Y-46439280D01*
X234770231Y-46309851D01*
X234899660Y-46203631D01*
X235047325Y-46124703D01*
X235207550Y-46076099D01*
X235332428Y-46063800D01*
X235415932Y-46063800D01*
X235540810Y-46076099D01*
X235540810Y-46076099D01*
G37*
G36*
X228654870Y-46032919D02*
X228815095Y-46081523D01*
X228962760Y-46160451D01*
X229092189Y-46266671D01*
X229198409Y-46396100D01*
X229277337Y-46543765D01*
X229325941Y-46703990D01*
X229342352Y-46870620D01*
X229325941Y-47037250D01*
X229277337Y-47197475D01*
X229198409Y-47345140D01*
X229092189Y-47474569D01*
X228962760Y-47580789D01*
X228815095Y-47659717D01*
X228654870Y-47708321D01*
X228529992Y-47720620D01*
X228446488Y-47720620D01*
X228321610Y-47708321D01*
X228161385Y-47659717D01*
X228013720Y-47580789D01*
X227884291Y-47474569D01*
X227778071Y-47345140D01*
X227699143Y-47197475D01*
X227650539Y-47037250D01*
X227634128Y-46870620D01*
X227650539Y-46703990D01*
X227699143Y-46543765D01*
X227778071Y-46396100D01*
X227884291Y-46266671D01*
X228013720Y-46160451D01*
X228161385Y-46081523D01*
X228321610Y-46032919D01*
X228446488Y-46020620D01*
X228529992Y-46020620D01*
X228654870Y-46032919D01*
X228654870Y-46032919D01*
G37*
G36*
X216508590Y-43564039D02*
X216668815Y-43612643D01*
X216816480Y-43691571D01*
X216945909Y-43797791D01*
X217052129Y-43927220D01*
X217131057Y-44074885D01*
X217179661Y-44235110D01*
X217196072Y-44401740D01*
X217179661Y-44568370D01*
X217131057Y-44728595D01*
X217052129Y-44876260D01*
X216945909Y-45005689D01*
X216816480Y-45111909D01*
X216668815Y-45190837D01*
X216508590Y-45239441D01*
X216383712Y-45251740D01*
X216300208Y-45251740D01*
X216175330Y-45239441D01*
X216015105Y-45190837D01*
X215867440Y-45111909D01*
X215738011Y-45005689D01*
X215631791Y-44876260D01*
X215552863Y-44728595D01*
X215504259Y-44568370D01*
X215487848Y-44401740D01*
X215504259Y-44235110D01*
X215552863Y-44074885D01*
X215631791Y-43927220D01*
X215738011Y-43797791D01*
X215867440Y-43691571D01*
X216015105Y-43612643D01*
X216175330Y-43564039D01*
X216300208Y-43551740D01*
X216383712Y-43551740D01*
X216508590Y-43564039D01*
X216508590Y-43564039D01*
G37*
G36*
X235540810Y-43536099D02*
X235701035Y-43584703D01*
X235848700Y-43663631D01*
X235978129Y-43769851D01*
X236084349Y-43899280D01*
X236163277Y-44046945D01*
X236211881Y-44207170D01*
X236228292Y-44373800D01*
X236211881Y-44540430D01*
X236163277Y-44700655D01*
X236084349Y-44848320D01*
X235978129Y-44977749D01*
X235848700Y-45083969D01*
X235701035Y-45162897D01*
X235540810Y-45211501D01*
X235415932Y-45223800D01*
X235332428Y-45223800D01*
X235207550Y-45211501D01*
X235047325Y-45162897D01*
X234899660Y-45083969D01*
X234770231Y-44977749D01*
X234664011Y-44848320D01*
X234585083Y-44700655D01*
X234536479Y-44540430D01*
X234520068Y-44373800D01*
X234536479Y-44207170D01*
X234585083Y-44046945D01*
X234664011Y-43899280D01*
X234770231Y-43769851D01*
X234899660Y-43663631D01*
X235047325Y-43584703D01*
X235207550Y-43536099D01*
X235332428Y-43523800D01*
X235415932Y-43523800D01*
X235540810Y-43536099D01*
X235540810Y-43536099D01*
G37*
G36*
X222325190Y-43536099D02*
X222485415Y-43584703D01*
X222633080Y-43663631D01*
X222762509Y-43769851D01*
X222868729Y-43899280D01*
X222947657Y-44046945D01*
X222996261Y-44207170D01*
X223012672Y-44373800D01*
X222996261Y-44540430D01*
X222947657Y-44700655D01*
X222868729Y-44848320D01*
X222762509Y-44977749D01*
X222633080Y-45083969D01*
X222485415Y-45162897D01*
X222325190Y-45211501D01*
X222200312Y-45223800D01*
X222116808Y-45223800D01*
X221991930Y-45211501D01*
X221831705Y-45162897D01*
X221684040Y-45083969D01*
X221554611Y-44977749D01*
X221448391Y-44848320D01*
X221369463Y-44700655D01*
X221320859Y-44540430D01*
X221304448Y-44373800D01*
X221320859Y-44207170D01*
X221369463Y-44046945D01*
X221448391Y-43899280D01*
X221554611Y-43769851D01*
X221684040Y-43663631D01*
X221831705Y-43584703D01*
X221991930Y-43536099D01*
X222116808Y-43523800D01*
X222200312Y-43523800D01*
X222325190Y-43536099D01*
X222325190Y-43536099D01*
G37*
G36*
X228654870Y-43492919D02*
X228815095Y-43541523D01*
X228962760Y-43620451D01*
X229092189Y-43726671D01*
X229198409Y-43856100D01*
X229277337Y-44003765D01*
X229325941Y-44163990D01*
X229342352Y-44330620D01*
X229325941Y-44497250D01*
X229277337Y-44657475D01*
X229198409Y-44805140D01*
X229092189Y-44934569D01*
X228962760Y-45040789D01*
X228815095Y-45119717D01*
X228654870Y-45168321D01*
X228529992Y-45180620D01*
X228446488Y-45180620D01*
X228321610Y-45168321D01*
X228161385Y-45119717D01*
X228013720Y-45040789D01*
X227884291Y-44934569D01*
X227778071Y-44805140D01*
X227699143Y-44657475D01*
X227650539Y-44497250D01*
X227634128Y-44330620D01*
X227650539Y-44163990D01*
X227699143Y-44003765D01*
X227778071Y-43856100D01*
X227884291Y-43726671D01*
X228013720Y-43620451D01*
X228161385Y-43541523D01*
X228321610Y-43492919D01*
X228446488Y-43480620D01*
X228529992Y-43480620D01*
X228654870Y-43492919D01*
X228654870Y-43492919D01*
G37*
G36*
X216508590Y-41024039D02*
X216668815Y-41072643D01*
X216816480Y-41151571D01*
X216945909Y-41257791D01*
X217052129Y-41387220D01*
X217131057Y-41534885D01*
X217179661Y-41695110D01*
X217196072Y-41861740D01*
X217179661Y-42028370D01*
X217131057Y-42188595D01*
X217052129Y-42336260D01*
X216945909Y-42465689D01*
X216816480Y-42571909D01*
X216668815Y-42650837D01*
X216508590Y-42699441D01*
X216383712Y-42711740D01*
X216300208Y-42711740D01*
X216175330Y-42699441D01*
X216015105Y-42650837D01*
X215867440Y-42571909D01*
X215738011Y-42465689D01*
X215631791Y-42336260D01*
X215552863Y-42188595D01*
X215504259Y-42028370D01*
X215487848Y-41861740D01*
X215504259Y-41695110D01*
X215552863Y-41534885D01*
X215631791Y-41387220D01*
X215738011Y-41257791D01*
X215867440Y-41151571D01*
X216015105Y-41072643D01*
X216175330Y-41024039D01*
X216300208Y-41011740D01*
X216383712Y-41011740D01*
X216508590Y-41024039D01*
X216508590Y-41024039D01*
G37*
G36*
X222325190Y-40996099D02*
X222485415Y-41044703D01*
X222633080Y-41123631D01*
X222762509Y-41229851D01*
X222868729Y-41359280D01*
X222947657Y-41506945D01*
X222996261Y-41667170D01*
X223012672Y-41833800D01*
X222996261Y-42000430D01*
X222947657Y-42160655D01*
X222868729Y-42308320D01*
X222762509Y-42437749D01*
X222633080Y-42543969D01*
X222485415Y-42622897D01*
X222325190Y-42671501D01*
X222200312Y-42683800D01*
X222116808Y-42683800D01*
X221991930Y-42671501D01*
X221831705Y-42622897D01*
X221684040Y-42543969D01*
X221554611Y-42437749D01*
X221448391Y-42308320D01*
X221369463Y-42160655D01*
X221320859Y-42000430D01*
X221304448Y-41833800D01*
X221320859Y-41667170D01*
X221369463Y-41506945D01*
X221448391Y-41359280D01*
X221554611Y-41229851D01*
X221684040Y-41123631D01*
X221831705Y-41044703D01*
X221991930Y-40996099D01*
X222116808Y-40983800D01*
X222200312Y-40983800D01*
X222325190Y-40996099D01*
X222325190Y-40996099D01*
G37*
G36*
X235540810Y-40996099D02*
X235701035Y-41044703D01*
X235848700Y-41123631D01*
X235978129Y-41229851D01*
X236084349Y-41359280D01*
X236163277Y-41506945D01*
X236211881Y-41667170D01*
X236228292Y-41833800D01*
X236211881Y-42000430D01*
X236163277Y-42160655D01*
X236084349Y-42308320D01*
X235978129Y-42437749D01*
X235848700Y-42543969D01*
X235701035Y-42622897D01*
X235540810Y-42671501D01*
X235415932Y-42683800D01*
X235332428Y-42683800D01*
X235207550Y-42671501D01*
X235047325Y-42622897D01*
X234899660Y-42543969D01*
X234770231Y-42437749D01*
X234664011Y-42308320D01*
X234585083Y-42160655D01*
X234536479Y-42000430D01*
X234520068Y-41833800D01*
X234536479Y-41667170D01*
X234585083Y-41506945D01*
X234664011Y-41359280D01*
X234770231Y-41229851D01*
X234899660Y-41123631D01*
X235047325Y-41044703D01*
X235207550Y-40996099D01*
X235332428Y-40983800D01*
X235415932Y-40983800D01*
X235540810Y-40996099D01*
X235540810Y-40996099D01*
G37*
G36*
X228654870Y-40952919D02*
X228815095Y-41001523D01*
X228962760Y-41080451D01*
X229092189Y-41186671D01*
X229198409Y-41316100D01*
X229277337Y-41463765D01*
X229325941Y-41623990D01*
X229342352Y-41790620D01*
X229325941Y-41957250D01*
X229277337Y-42117475D01*
X229198409Y-42265140D01*
X229092189Y-42394569D01*
X228962760Y-42500789D01*
X228815095Y-42579717D01*
X228654870Y-42628321D01*
X228529992Y-42640620D01*
X228446488Y-42640620D01*
X228321610Y-42628321D01*
X228161385Y-42579717D01*
X228013720Y-42500789D01*
X227884291Y-42394569D01*
X227778071Y-42265140D01*
X227699143Y-42117475D01*
X227650539Y-41957250D01*
X227634128Y-41790620D01*
X227650539Y-41623990D01*
X227699143Y-41463765D01*
X227778071Y-41316100D01*
X227884291Y-41186671D01*
X228013720Y-41080451D01*
X228161385Y-41001523D01*
X228321610Y-40952919D01*
X228446488Y-40940620D01*
X228529992Y-40940620D01*
X228654870Y-40952919D01*
X228654870Y-40952919D01*
G37*
G36*
X216508590Y-38484039D02*
X216668815Y-38532643D01*
X216816480Y-38611571D01*
X216945909Y-38717791D01*
X217052129Y-38847220D01*
X217131057Y-38994885D01*
X217179661Y-39155110D01*
X217196072Y-39321740D01*
X217179661Y-39488370D01*
X217131057Y-39648595D01*
X217052129Y-39796260D01*
X216945909Y-39925689D01*
X216816480Y-40031909D01*
X216668815Y-40110837D01*
X216508590Y-40159441D01*
X216383712Y-40171740D01*
X216300208Y-40171740D01*
X216175330Y-40159441D01*
X216015105Y-40110837D01*
X215867440Y-40031909D01*
X215738011Y-39925689D01*
X215631791Y-39796260D01*
X215552863Y-39648595D01*
X215504259Y-39488370D01*
X215487848Y-39321740D01*
X215504259Y-39155110D01*
X215552863Y-38994885D01*
X215631791Y-38847220D01*
X215738011Y-38717791D01*
X215867440Y-38611571D01*
X216015105Y-38532643D01*
X216175330Y-38484039D01*
X216300208Y-38471740D01*
X216383712Y-38471740D01*
X216508590Y-38484039D01*
X216508590Y-38484039D01*
G37*
G36*
X235540810Y-38456099D02*
X235701035Y-38504703D01*
X235848700Y-38583631D01*
X235978129Y-38689851D01*
X236084349Y-38819280D01*
X236163277Y-38966945D01*
X236211881Y-39127170D01*
X236228292Y-39293800D01*
X236211881Y-39460430D01*
X236163277Y-39620655D01*
X236084349Y-39768320D01*
X235978129Y-39897749D01*
X235848700Y-40003969D01*
X235701035Y-40082897D01*
X235540810Y-40131501D01*
X235415932Y-40143800D01*
X235332428Y-40143800D01*
X235207550Y-40131501D01*
X235047325Y-40082897D01*
X234899660Y-40003969D01*
X234770231Y-39897749D01*
X234664011Y-39768320D01*
X234585083Y-39620655D01*
X234536479Y-39460430D01*
X234520068Y-39293800D01*
X234536479Y-39127170D01*
X234585083Y-38966945D01*
X234664011Y-38819280D01*
X234770231Y-38689851D01*
X234899660Y-38583631D01*
X235047325Y-38504703D01*
X235207550Y-38456099D01*
X235332428Y-38443800D01*
X235415932Y-38443800D01*
X235540810Y-38456099D01*
X235540810Y-38456099D01*
G37*
G36*
X222325190Y-38456099D02*
X222485415Y-38504703D01*
X222633080Y-38583631D01*
X222762509Y-38689851D01*
X222868729Y-38819280D01*
X222947657Y-38966945D01*
X222996261Y-39127170D01*
X223012672Y-39293800D01*
X222996261Y-39460430D01*
X222947657Y-39620655D01*
X222868729Y-39768320D01*
X222762509Y-39897749D01*
X222633080Y-40003969D01*
X222485415Y-40082897D01*
X222325190Y-40131501D01*
X222200312Y-40143800D01*
X222116808Y-40143800D01*
X221991930Y-40131501D01*
X221831705Y-40082897D01*
X221684040Y-40003969D01*
X221554611Y-39897749D01*
X221448391Y-39768320D01*
X221369463Y-39620655D01*
X221320859Y-39460430D01*
X221304448Y-39293800D01*
X221320859Y-39127170D01*
X221369463Y-38966945D01*
X221448391Y-38819280D01*
X221554611Y-38689851D01*
X221684040Y-38583631D01*
X221831705Y-38504703D01*
X221991930Y-38456099D01*
X222116808Y-38443800D01*
X222200312Y-38443800D01*
X222325190Y-38456099D01*
X222325190Y-38456099D01*
G37*
G36*
X228654870Y-38412919D02*
X228815095Y-38461523D01*
X228962760Y-38540451D01*
X229092189Y-38646671D01*
X229198409Y-38776100D01*
X229277337Y-38923765D01*
X229325941Y-39083990D01*
X229342352Y-39250620D01*
X229325941Y-39417250D01*
X229277337Y-39577475D01*
X229198409Y-39725140D01*
X229092189Y-39854569D01*
X228962760Y-39960789D01*
X228815095Y-40039717D01*
X228654870Y-40088321D01*
X228529992Y-40100620D01*
X228446488Y-40100620D01*
X228321610Y-40088321D01*
X228161385Y-40039717D01*
X228013720Y-39960789D01*
X227884291Y-39854569D01*
X227778071Y-39725140D01*
X227699143Y-39577475D01*
X227650539Y-39417250D01*
X227634128Y-39250620D01*
X227650539Y-39083990D01*
X227699143Y-38923765D01*
X227778071Y-38776100D01*
X227884291Y-38646671D01*
X228013720Y-38540451D01*
X228161385Y-38461523D01*
X228321610Y-38412919D01*
X228446488Y-38400620D01*
X228529992Y-38400620D01*
X228654870Y-38412919D01*
X228654870Y-38412919D01*
G37*
G36*
X216508590Y-35944039D02*
X216668815Y-35992643D01*
X216816480Y-36071571D01*
X216945909Y-36177791D01*
X217052129Y-36307220D01*
X217131057Y-36454885D01*
X217179661Y-36615110D01*
X217196072Y-36781740D01*
X217179661Y-36948370D01*
X217131057Y-37108595D01*
X217052129Y-37256260D01*
X216945909Y-37385689D01*
X216816480Y-37491909D01*
X216668815Y-37570837D01*
X216508590Y-37619441D01*
X216383712Y-37631740D01*
X216300208Y-37631740D01*
X216175330Y-37619441D01*
X216015105Y-37570837D01*
X215867440Y-37491909D01*
X215738011Y-37385689D01*
X215631791Y-37256260D01*
X215552863Y-37108595D01*
X215504259Y-36948370D01*
X215487848Y-36781740D01*
X215504259Y-36615110D01*
X215552863Y-36454885D01*
X215631791Y-36307220D01*
X215738011Y-36177791D01*
X215867440Y-36071571D01*
X216015105Y-35992643D01*
X216175330Y-35944039D01*
X216300208Y-35931740D01*
X216383712Y-35931740D01*
X216508590Y-35944039D01*
X216508590Y-35944039D01*
G37*
G36*
X235540810Y-35916099D02*
X235701035Y-35964703D01*
X235848700Y-36043631D01*
X235978129Y-36149851D01*
X236084349Y-36279280D01*
X236163277Y-36426945D01*
X236211881Y-36587170D01*
X236228292Y-36753800D01*
X236211881Y-36920430D01*
X236163277Y-37080655D01*
X236084349Y-37228320D01*
X235978129Y-37357749D01*
X235848700Y-37463969D01*
X235701035Y-37542897D01*
X235540810Y-37591501D01*
X235415932Y-37603800D01*
X235332428Y-37603800D01*
X235207550Y-37591501D01*
X235047325Y-37542897D01*
X234899660Y-37463969D01*
X234770231Y-37357749D01*
X234664011Y-37228320D01*
X234585083Y-37080655D01*
X234536479Y-36920430D01*
X234520068Y-36753800D01*
X234536479Y-36587170D01*
X234585083Y-36426945D01*
X234664011Y-36279280D01*
X234770231Y-36149851D01*
X234899660Y-36043631D01*
X235047325Y-35964703D01*
X235207550Y-35916099D01*
X235332428Y-35903800D01*
X235415932Y-35903800D01*
X235540810Y-35916099D01*
X235540810Y-35916099D01*
G37*
G36*
X222325190Y-35916099D02*
X222485415Y-35964703D01*
X222633080Y-36043631D01*
X222762509Y-36149851D01*
X222868729Y-36279280D01*
X222947657Y-36426945D01*
X222996261Y-36587170D01*
X223012672Y-36753800D01*
X222996261Y-36920430D01*
X222947657Y-37080655D01*
X222868729Y-37228320D01*
X222762509Y-37357749D01*
X222633080Y-37463969D01*
X222485415Y-37542897D01*
X222325190Y-37591501D01*
X222200312Y-37603800D01*
X222116808Y-37603800D01*
X221991930Y-37591501D01*
X221831705Y-37542897D01*
X221684040Y-37463969D01*
X221554611Y-37357749D01*
X221448391Y-37228320D01*
X221369463Y-37080655D01*
X221320859Y-36920430D01*
X221304448Y-36753800D01*
X221320859Y-36587170D01*
X221369463Y-36426945D01*
X221448391Y-36279280D01*
X221554611Y-36149851D01*
X221684040Y-36043631D01*
X221831705Y-35964703D01*
X221991930Y-35916099D01*
X222116808Y-35903800D01*
X222200312Y-35903800D01*
X222325190Y-35916099D01*
X222325190Y-35916099D01*
G37*
G36*
X228654870Y-35872919D02*
X228815095Y-35921523D01*
X228962760Y-36000451D01*
X229092189Y-36106671D01*
X229198409Y-36236100D01*
X229277337Y-36383765D01*
X229325941Y-36543990D01*
X229342352Y-36710620D01*
X229325941Y-36877250D01*
X229277337Y-37037475D01*
X229198409Y-37185140D01*
X229092189Y-37314569D01*
X228962760Y-37420789D01*
X228815095Y-37499717D01*
X228654870Y-37548321D01*
X228529992Y-37560620D01*
X228446488Y-37560620D01*
X228321610Y-37548321D01*
X228161385Y-37499717D01*
X228013720Y-37420789D01*
X227884291Y-37314569D01*
X227778071Y-37185140D01*
X227699143Y-37037475D01*
X227650539Y-36877250D01*
X227634128Y-36710620D01*
X227650539Y-36543990D01*
X227699143Y-36383765D01*
X227778071Y-36236100D01*
X227884291Y-36106671D01*
X228013720Y-36000451D01*
X228161385Y-35921523D01*
X228321610Y-35872919D01*
X228446488Y-35860620D01*
X228529992Y-35860620D01*
X228654870Y-35872919D01*
X228654870Y-35872919D01*
G37*
G36*
X216508590Y-33404039D02*
X216668815Y-33452643D01*
X216816480Y-33531571D01*
X216945909Y-33637791D01*
X217052129Y-33767220D01*
X217131057Y-33914885D01*
X217179661Y-34075110D01*
X217196072Y-34241740D01*
X217179661Y-34408370D01*
X217131057Y-34568595D01*
X217052129Y-34716260D01*
X216945909Y-34845689D01*
X216816480Y-34951909D01*
X216668815Y-35030837D01*
X216508590Y-35079441D01*
X216383712Y-35091740D01*
X216300208Y-35091740D01*
X216175330Y-35079441D01*
X216015105Y-35030837D01*
X215867440Y-34951909D01*
X215738011Y-34845689D01*
X215631791Y-34716260D01*
X215552863Y-34568595D01*
X215504259Y-34408370D01*
X215487848Y-34241740D01*
X215504259Y-34075110D01*
X215552863Y-33914885D01*
X215631791Y-33767220D01*
X215738011Y-33637791D01*
X215867440Y-33531571D01*
X216015105Y-33452643D01*
X216175330Y-33404039D01*
X216300208Y-33391740D01*
X216383712Y-33391740D01*
X216508590Y-33404039D01*
X216508590Y-33404039D01*
G37*
G36*
X222325190Y-33376099D02*
X222485415Y-33424703D01*
X222633080Y-33503631D01*
X222762509Y-33609851D01*
X222868729Y-33739280D01*
X222947657Y-33886945D01*
X222996261Y-34047170D01*
X223012672Y-34213800D01*
X222996261Y-34380430D01*
X222947657Y-34540655D01*
X222868729Y-34688320D01*
X222762509Y-34817749D01*
X222633080Y-34923969D01*
X222485415Y-35002897D01*
X222325190Y-35051501D01*
X222200312Y-35063800D01*
X222116808Y-35063800D01*
X221991930Y-35051501D01*
X221831705Y-35002897D01*
X221684040Y-34923969D01*
X221554611Y-34817749D01*
X221448391Y-34688320D01*
X221369463Y-34540655D01*
X221320859Y-34380430D01*
X221304448Y-34213800D01*
X221320859Y-34047170D01*
X221369463Y-33886945D01*
X221448391Y-33739280D01*
X221554611Y-33609851D01*
X221684040Y-33503631D01*
X221831705Y-33424703D01*
X221991930Y-33376099D01*
X222116808Y-33363800D01*
X222200312Y-33363800D01*
X222325190Y-33376099D01*
X222325190Y-33376099D01*
G37*
G36*
X235540810Y-33376099D02*
X235701035Y-33424703D01*
X235848700Y-33503631D01*
X235978129Y-33609851D01*
X236084349Y-33739280D01*
X236163277Y-33886945D01*
X236211881Y-34047170D01*
X236228292Y-34213800D01*
X236211881Y-34380430D01*
X236163277Y-34540655D01*
X236084349Y-34688320D01*
X235978129Y-34817749D01*
X235848700Y-34923969D01*
X235701035Y-35002897D01*
X235540810Y-35051501D01*
X235415932Y-35063800D01*
X235332428Y-35063800D01*
X235207550Y-35051501D01*
X235047325Y-35002897D01*
X234899660Y-34923969D01*
X234770231Y-34817749D01*
X234664011Y-34688320D01*
X234585083Y-34540655D01*
X234536479Y-34380430D01*
X234520068Y-34213800D01*
X234536479Y-34047170D01*
X234585083Y-33886945D01*
X234664011Y-33739280D01*
X234770231Y-33609851D01*
X234899660Y-33503631D01*
X235047325Y-33424703D01*
X235207550Y-33376099D01*
X235332428Y-33363800D01*
X235415932Y-33363800D01*
X235540810Y-33376099D01*
X235540810Y-33376099D01*
G37*
G36*
X228654870Y-33332919D02*
X228815095Y-33381523D01*
X228962760Y-33460451D01*
X229092189Y-33566671D01*
X229198409Y-33696100D01*
X229277337Y-33843765D01*
X229325941Y-34003990D01*
X229342352Y-34170620D01*
X229325941Y-34337250D01*
X229277337Y-34497475D01*
X229198409Y-34645140D01*
X229092189Y-34774569D01*
X228962760Y-34880789D01*
X228815095Y-34959717D01*
X228654870Y-35008321D01*
X228529992Y-35020620D01*
X228446488Y-35020620D01*
X228321610Y-35008321D01*
X228161385Y-34959717D01*
X228013720Y-34880789D01*
X227884291Y-34774569D01*
X227778071Y-34645140D01*
X227699143Y-34497475D01*
X227650539Y-34337250D01*
X227634128Y-34170620D01*
X227650539Y-34003990D01*
X227699143Y-33843765D01*
X227778071Y-33696100D01*
X227884291Y-33566671D01*
X228013720Y-33460451D01*
X228161385Y-33381523D01*
X228321610Y-33332919D01*
X228446488Y-33320620D01*
X228529992Y-33320620D01*
X228654870Y-33332919D01*
X228654870Y-33332919D01*
G37*
G36*
X217191960Y-32551740D02*
X215491960Y-32551740D01*
X215491960Y-30851740D01*
X217191960Y-30851740D01*
X217191960Y-32551740D01*
X217191960Y-32551740D01*
G37*
G36*
X236224180Y-32523800D02*
X234524180Y-32523800D01*
X234524180Y-30823800D01*
X236224180Y-30823800D01*
X236224180Y-32523800D01*
X236224180Y-32523800D01*
G37*
G36*
X223008560Y-32523800D02*
X221308560Y-32523800D01*
X221308560Y-30823800D01*
X223008560Y-30823800D01*
X223008560Y-32523800D01*
X223008560Y-32523800D01*
G37*
G36*
X229338240Y-32480620D02*
X227638240Y-32480620D01*
X227638240Y-30780620D01*
X229338240Y-30780620D01*
X229338240Y-32480620D01*
X229338240Y-32480620D01*
G37*
M02*
