M48
;DRILL file {KiCad (5.0.1)-4} date 12/1/2019 9:59:00 PM
;FORMAT={-:-/ absolute / metric / decimal}
FMAT,2
METRIC,TZ
T1C0.305
T2C1.000
T3C1.100
%
G90
G05
M71
T1
X218.851Y-85.136
X221.021Y-93.279
X222.016Y-93.833
X225.938Y-101.91
X229.052Y-67.869
X231.536Y-91.938
X231.567Y-83.094
X236.322Y-93.944
X236.357Y-98.908
X236.652Y-107.589
X236.87Y-96.642
X238.511Y-83.48
X242.235Y-79.35
X243.027Y-42.042
X243.82Y-92.989
X244.942Y-107.224
X245.125Y-96.398
X246.761Y-121.371
X246.964Y-82.123
X247.49Y-89.228
X247.599Y-100.569
X247.63Y-64.414
X247.772Y-27.33
X251.877Y-30.333
X252.181Y-17.389
X253.345Y-39.644
X255.209Y-39.654
X255.483Y-98.308
X258.221Y-91.399
X259.617Y-23.541
X260.447Y-97.196
X261.295Y-37.069
X261.61Y-103.363
X261.681Y-24.989
X262.492Y-22.453
X262.512Y-21.214
X264.825Y-29.042
X266.009Y-22.403
X266.959Y-56.589
X267.259Y-111.567
X269.11Y-65.128
X269.484Y-97.587
X269.53Y-100.833
X269.956Y-91.684
X270.149Y-69.682
X270.302Y-56.523
X270.358Y-44.607
X270.901Y-42.367
X273.294Y-95.616
X274.091Y-34.808
X275.263Y-78.891
X275.737Y-34.905
X276.718Y-98.806
X277.429Y-105.984
X281.732Y-101.244
T2
X222.159Y-31.674
X222.159Y-34.214
X222.159Y-36.754
X222.159Y-39.294
X222.159Y-41.834
X222.159Y-44.374
X222.159Y-46.914
X228.488Y-31.631
X228.488Y-34.171
X228.488Y-36.711
X228.488Y-39.251
X228.488Y-41.791
X228.488Y-44.331
X228.488Y-46.871
X227.117Y-121.453
X229.657Y-121.453
X232.197Y-121.453
X234.737Y-121.453
X237.277Y-121.453
X239.817Y-121.453
X242.357Y-121.453
X219.207Y-80.284
X221.747Y-80.284
X224.287Y-80.284
X226.827Y-80.284
X229.367Y-80.284
X231.907Y-80.284
X234.447Y-80.284
X235.374Y-31.674
X235.374Y-34.214
X235.374Y-36.754
X235.374Y-39.294
X235.374Y-41.834
X235.374Y-44.374
X235.374Y-46.914
X216.342Y-31.702
X216.342Y-34.242
X216.342Y-36.782
X216.342Y-39.322
X216.342Y-41.862
X216.342Y-44.402
X216.342Y-46.942
T3
X219.375Y-60.259
X219.375Y-75.499
X221.915Y-60.259
X221.915Y-75.499
X224.455Y-60.259
X224.455Y-75.499
X226.995Y-60.259
X226.995Y-75.499
X229.535Y-60.259
X229.535Y-75.499
X232.075Y-60.259
X232.075Y-62.799
X232.075Y-65.339
X232.075Y-67.879
X232.075Y-70.419
X232.075Y-72.959
X232.075Y-75.499
X234.615Y-60.259
X234.615Y-75.499
X237.155Y-60.259
X237.155Y-75.499
X239.695Y-60.259
X239.695Y-75.499
X242.235Y-60.259
X242.235Y-75.499
X244.775Y-60.259
X244.775Y-75.499
X247.315Y-60.259
X247.315Y-75.499
X249.855Y-60.259
X249.855Y-75.499
X252.395Y-60.259
X252.395Y-75.499
X254.935Y-60.259
X254.935Y-75.499
X257.475Y-60.259
X257.475Y-75.499
X260.015Y-60.259
X260.015Y-75.499
X261.285Y-63.259
X262.555Y-60.259
X262.555Y-75.499
X263.825Y-63.259
X265.095Y-60.259
X265.095Y-72.959
X265.095Y-75.499
X266.365Y-63.259
X267.635Y-60.259
X267.635Y-72.959
X267.635Y-75.499
X268.905Y-63.259
X270.175Y-60.259
X270.175Y-72.959
X270.175Y-75.499
X271.445Y-63.259
X272.715Y-60.259
X272.715Y-75.499
X275.255Y-60.259
X275.255Y-72.959
X275.255Y-75.499
X277.795Y-60.259
X277.795Y-75.499
T0
M30
