G04 #@! TF.GenerationSoftware,KiCad,Pcbnew,(5.0.1)-4*
G04 #@! TF.CreationDate,2019-11-20T14:17:43-05:00*
G04 #@! TF.ProjectId,photodiode,70686F746F64696F64652E6B69636164,rev?*
G04 #@! TF.SameCoordinates,Original*
G04 #@! TF.FileFunction,Soldermask,Bot*
G04 #@! TF.FilePolarity,Negative*
%FSLAX46Y46*%
G04 Gerber Fmt 4.6, Leading zero omitted, Abs format (unit mm)*
G04 Created by KiCad (PCBNEW (5.0.1)-4) date 11/20/2019 2:17:43 PM*
%MOMM*%
%LPD*%
G01*
G04 APERTURE LIST*
%ADD10C,0.100000*%
G04 APERTURE END LIST*
D10*
G36*
X104250443Y-75860520D02*
X104316627Y-75867038D01*
X104429853Y-75901385D01*
X104486467Y-75918558D01*
X104625087Y-75992653D01*
X104642991Y-76002223D01*
X104678729Y-76031553D01*
X104780186Y-76114815D01*
X104863448Y-76216272D01*
X104892778Y-76252010D01*
X104892779Y-76252012D01*
X104976443Y-76408534D01*
X104976443Y-76408535D01*
X105027963Y-76578374D01*
X105045359Y-76755001D01*
X105027963Y-76931628D01*
X104993616Y-77044854D01*
X104976443Y-77101468D01*
X104902348Y-77240088D01*
X104892778Y-77257992D01*
X104863448Y-77293730D01*
X104780186Y-77395187D01*
X104678729Y-77478449D01*
X104642991Y-77507779D01*
X104642989Y-77507780D01*
X104486467Y-77591444D01*
X104429853Y-77608617D01*
X104316627Y-77642964D01*
X104250442Y-77649483D01*
X104184260Y-77656001D01*
X104095740Y-77656001D01*
X104029558Y-77649483D01*
X103963373Y-77642964D01*
X103850147Y-77608617D01*
X103793533Y-77591444D01*
X103637011Y-77507780D01*
X103637009Y-77507779D01*
X103601271Y-77478449D01*
X103499814Y-77395187D01*
X103416552Y-77293730D01*
X103387222Y-77257992D01*
X103377652Y-77240088D01*
X103303557Y-77101468D01*
X103286384Y-77044854D01*
X103252037Y-76931628D01*
X103234641Y-76755001D01*
X103252037Y-76578374D01*
X103303557Y-76408535D01*
X103303557Y-76408534D01*
X103387221Y-76252012D01*
X103387222Y-76252010D01*
X103416552Y-76216272D01*
X103499814Y-76114815D01*
X103601271Y-76031553D01*
X103637009Y-76002223D01*
X103654913Y-75992653D01*
X103793533Y-75918558D01*
X103850147Y-75901385D01*
X103963373Y-75867038D01*
X104029557Y-75860520D01*
X104095740Y-75854001D01*
X104184260Y-75854001D01*
X104250443Y-75860520D01*
X104250443Y-75860520D01*
G37*
G36*
X112429860Y-77634400D02*
X110627860Y-77634400D01*
X110627860Y-75832400D01*
X112429860Y-75832400D01*
X112429860Y-77634400D01*
X112429860Y-77634400D01*
G37*
G36*
X104250442Y-73320519D02*
X104316627Y-73327038D01*
X104415257Y-73356957D01*
X104486467Y-73378558D01*
X104602577Y-73440621D01*
X104642991Y-73462223D01*
X104678729Y-73491553D01*
X104780186Y-73574815D01*
X104863448Y-73676272D01*
X104892778Y-73712010D01*
X104892779Y-73712012D01*
X104976443Y-73868534D01*
X104976443Y-73868535D01*
X105027963Y-74038374D01*
X105045359Y-74215001D01*
X105027963Y-74391628D01*
X104993616Y-74504854D01*
X104976443Y-74561468D01*
X104904325Y-74696389D01*
X104892778Y-74717992D01*
X104863448Y-74753730D01*
X104780186Y-74855187D01*
X104678729Y-74938449D01*
X104642991Y-74967779D01*
X104642989Y-74967780D01*
X104486467Y-75051444D01*
X104429853Y-75068617D01*
X104316627Y-75102964D01*
X104250442Y-75109483D01*
X104184260Y-75116001D01*
X104095740Y-75116001D01*
X104029558Y-75109483D01*
X103963373Y-75102964D01*
X103850147Y-75068617D01*
X103793533Y-75051444D01*
X103637011Y-74967780D01*
X103637009Y-74967779D01*
X103601271Y-74938449D01*
X103499814Y-74855187D01*
X103416552Y-74753730D01*
X103387222Y-74717992D01*
X103375675Y-74696389D01*
X103303557Y-74561468D01*
X103286384Y-74504854D01*
X103252037Y-74391628D01*
X103234641Y-74215001D01*
X103252037Y-74038374D01*
X103303557Y-73868535D01*
X103303557Y-73868534D01*
X103387221Y-73712012D01*
X103387222Y-73712010D01*
X103416552Y-73676272D01*
X103499814Y-73574815D01*
X103601271Y-73491553D01*
X103637009Y-73462223D01*
X103677423Y-73440621D01*
X103793533Y-73378558D01*
X103864743Y-73356957D01*
X103963373Y-73327038D01*
X104029558Y-73320519D01*
X104095740Y-73314001D01*
X104184260Y-73314001D01*
X104250442Y-73320519D01*
X104250442Y-73320519D01*
G37*
G36*
X111639302Y-73298918D02*
X111705487Y-73305437D01*
X111818713Y-73339784D01*
X111875327Y-73356957D01*
X112013947Y-73431052D01*
X112031851Y-73440622D01*
X112058170Y-73462222D01*
X112169046Y-73553214D01*
X112252308Y-73654671D01*
X112281638Y-73690409D01*
X112281639Y-73690411D01*
X112365303Y-73846933D01*
X112365303Y-73846934D01*
X112416823Y-74016773D01*
X112434219Y-74193400D01*
X112416823Y-74370027D01*
X112410271Y-74391626D01*
X112365303Y-74539867D01*
X112291208Y-74678487D01*
X112281638Y-74696391D01*
X112263912Y-74717990D01*
X112169046Y-74833586D01*
X112067589Y-74916848D01*
X112031851Y-74946178D01*
X112031849Y-74946179D01*
X111875327Y-75029843D01*
X111818713Y-75047016D01*
X111705487Y-75081363D01*
X111639302Y-75087882D01*
X111573120Y-75094400D01*
X111484600Y-75094400D01*
X111418418Y-75087882D01*
X111352233Y-75081363D01*
X111239007Y-75047016D01*
X111182393Y-75029843D01*
X111025871Y-74946179D01*
X111025869Y-74946178D01*
X110990131Y-74916848D01*
X110888674Y-74833586D01*
X110793808Y-74717990D01*
X110776082Y-74696391D01*
X110766512Y-74678487D01*
X110692417Y-74539867D01*
X110647449Y-74391626D01*
X110640897Y-74370027D01*
X110623501Y-74193400D01*
X110640897Y-74016773D01*
X110692417Y-73846934D01*
X110692417Y-73846933D01*
X110776081Y-73690411D01*
X110776082Y-73690409D01*
X110805412Y-73654671D01*
X110888674Y-73553214D01*
X110999550Y-73462222D01*
X111025869Y-73440622D01*
X111043773Y-73431052D01*
X111182393Y-73356957D01*
X111239007Y-73339784D01*
X111352233Y-73305437D01*
X111418418Y-73298918D01*
X111484600Y-73292400D01*
X111573120Y-73292400D01*
X111639302Y-73298918D01*
X111639302Y-73298918D01*
G37*
G36*
X105041000Y-72576001D02*
X103239000Y-72576001D01*
X103239000Y-70774001D01*
X105041000Y-70774001D01*
X105041000Y-72576001D01*
X105041000Y-72576001D01*
G37*
M02*
