G04 #@! TF.GenerationSoftware,KiCad,Pcbnew,(5.0.1)-4*
G04 #@! TF.CreationDate,2019-11-20T14:17:43-05:00*
G04 #@! TF.ProjectId,photodiode,70686F746F64696F64652E6B69636164,rev?*
G04 #@! TF.SameCoordinates,Original*
G04 #@! TF.FileFunction,Copper,L2,Bot,Signal*
G04 #@! TF.FilePolarity,Positive*
%FSLAX46Y46*%
G04 Gerber Fmt 4.6, Leading zero omitted, Abs format (unit mm)*
G04 Created by KiCad (PCBNEW (5.0.1)-4) date 11/20/2019 2:17:43 PM*
%MOMM*%
%LPD*%
G01*
G04 APERTURE LIST*
G04 #@! TA.AperFunction,ComponentPad*
%ADD10R,1.700000X1.700000*%
G04 #@! TD*
G04 #@! TA.AperFunction,ComponentPad*
%ADD11O,1.700000X1.700000*%
G04 #@! TD*
G04 #@! TA.AperFunction,ViaPad*
%ADD12C,0.800000*%
G04 #@! TD*
G04 #@! TA.AperFunction,Conductor*
%ADD13C,0.254000*%
G04 #@! TD*
G04 APERTURE END LIST*
D10*
G04 #@! TO.P,D1,1*
G04 #@! TO.N,VCC*
X111528860Y-76733400D03*
D11*
G04 #@! TO.P,D1,2*
G04 #@! TO.N,/A0*
X111528860Y-74193400D03*
G04 #@! TD*
D10*
G04 #@! TO.P,J1,1*
G04 #@! TO.N,GND*
X104140000Y-71675001D03*
D11*
G04 #@! TO.P,J1,2*
G04 #@! TO.N,/A0*
X104140000Y-74215001D03*
G04 #@! TO.P,J1,3*
G04 #@! TO.N,VCC*
X104140000Y-76755001D03*
G04 #@! TD*
D12*
G04 #@! TO.N,GND*
X107866180Y-75316080D03*
X106573320Y-77861160D03*
X109197140Y-77952600D03*
X106738420Y-73350120D03*
X109004100Y-73400920D03*
X107955080Y-71122540D03*
G04 #@! TD*
D13*
G04 #@! TO.N,GND*
G36*
X112946145Y-65856116D02*
X112748545Y-66240604D01*
X112629389Y-66656150D01*
X112593216Y-67086926D01*
X112641403Y-67516524D01*
X112772115Y-67928581D01*
X112980374Y-68307402D01*
X113258246Y-68638557D01*
X113595147Y-68909433D01*
X113978246Y-69109712D01*
X114392950Y-69231766D01*
X114823463Y-69270946D01*
X115253388Y-69225759D01*
X115666347Y-69097927D01*
X116046612Y-68892318D01*
X116145000Y-68810924D01*
X116145001Y-79061000D01*
X99247000Y-79061000D01*
X99247000Y-74215001D01*
X102647815Y-74215001D01*
X102676487Y-74506112D01*
X102761401Y-74786035D01*
X102899294Y-75044015D01*
X103084866Y-75270135D01*
X103310986Y-75455707D01*
X103365791Y-75485001D01*
X103310986Y-75514295D01*
X103084866Y-75699867D01*
X102899294Y-75925987D01*
X102761401Y-76183967D01*
X102676487Y-76463890D01*
X102647815Y-76755001D01*
X102676487Y-77046112D01*
X102761401Y-77326035D01*
X102899294Y-77584015D01*
X103084866Y-77810135D01*
X103310986Y-77995707D01*
X103568966Y-78133600D01*
X103848889Y-78218514D01*
X104067050Y-78240001D01*
X104212950Y-78240001D01*
X104431111Y-78218514D01*
X104711034Y-78133600D01*
X104969014Y-77995707D01*
X105195134Y-77810135D01*
X105380706Y-77584015D01*
X105518599Y-77326035D01*
X105603513Y-77046112D01*
X105632185Y-76755001D01*
X105603513Y-76463890D01*
X105518599Y-76183967D01*
X105380706Y-75925987D01*
X105195134Y-75699867D01*
X104969014Y-75514295D01*
X104914209Y-75485001D01*
X104969014Y-75455707D01*
X105195134Y-75270135D01*
X105380706Y-75044015D01*
X105518599Y-74786035D01*
X105603513Y-74506112D01*
X105632185Y-74215001D01*
X105630058Y-74193400D01*
X110036675Y-74193400D01*
X110065347Y-74484511D01*
X110150261Y-74764434D01*
X110288154Y-75022414D01*
X110473726Y-75248534D01*
X110503547Y-75273007D01*
X110434680Y-75293898D01*
X110324366Y-75352863D01*
X110227675Y-75432215D01*
X110148323Y-75528906D01*
X110089358Y-75639220D01*
X110053048Y-75758918D01*
X110040788Y-75883400D01*
X110040788Y-77583400D01*
X110053048Y-77707882D01*
X110089358Y-77827580D01*
X110148323Y-77937894D01*
X110227675Y-78034585D01*
X110324366Y-78113937D01*
X110434680Y-78172902D01*
X110554378Y-78209212D01*
X110678860Y-78221472D01*
X112378860Y-78221472D01*
X112503342Y-78209212D01*
X112623040Y-78172902D01*
X112733354Y-78113937D01*
X112830045Y-78034585D01*
X112909397Y-77937894D01*
X112968362Y-77827580D01*
X113004672Y-77707882D01*
X113016932Y-77583400D01*
X113016932Y-75883400D01*
X113004672Y-75758918D01*
X112968362Y-75639220D01*
X112909397Y-75528906D01*
X112830045Y-75432215D01*
X112733354Y-75352863D01*
X112623040Y-75293898D01*
X112554173Y-75273007D01*
X112583994Y-75248534D01*
X112769566Y-75022414D01*
X112907459Y-74764434D01*
X112992373Y-74484511D01*
X113021045Y-74193400D01*
X112992373Y-73902289D01*
X112907459Y-73622366D01*
X112769566Y-73364386D01*
X112583994Y-73138266D01*
X112357874Y-72952694D01*
X112099894Y-72814801D01*
X111819971Y-72729887D01*
X111601810Y-72708400D01*
X111455910Y-72708400D01*
X111237749Y-72729887D01*
X110957826Y-72814801D01*
X110699846Y-72952694D01*
X110473726Y-73138266D01*
X110288154Y-73364386D01*
X110150261Y-73622366D01*
X110065347Y-73902289D01*
X110036675Y-74193400D01*
X105630058Y-74193400D01*
X105603513Y-73923890D01*
X105518599Y-73643967D01*
X105380706Y-73385987D01*
X105195134Y-73159867D01*
X105167447Y-73137145D01*
X105175223Y-73135598D01*
X105290785Y-73087731D01*
X105394789Y-73018238D01*
X105483237Y-72929790D01*
X105552730Y-72825786D01*
X105600597Y-72710224D01*
X105625000Y-72587543D01*
X105625000Y-71960751D01*
X105466250Y-71802001D01*
X104267000Y-71802001D01*
X104267000Y-71822001D01*
X104013000Y-71822001D01*
X104013000Y-71802001D01*
X102813750Y-71802001D01*
X102655000Y-71960751D01*
X102655000Y-72587543D01*
X102679403Y-72710224D01*
X102727270Y-72825786D01*
X102796763Y-72929790D01*
X102885211Y-73018238D01*
X102989215Y-73087731D01*
X103104777Y-73135598D01*
X103112553Y-73137145D01*
X103084866Y-73159867D01*
X102899294Y-73385987D01*
X102761401Y-73643967D01*
X102676487Y-73923890D01*
X102647815Y-74215001D01*
X99247000Y-74215001D01*
X99247000Y-70762459D01*
X102655000Y-70762459D01*
X102655000Y-71389251D01*
X102813750Y-71548001D01*
X104013000Y-71548001D01*
X104013000Y-70348751D01*
X104267000Y-70348751D01*
X104267000Y-71548001D01*
X105466250Y-71548001D01*
X105625000Y-71389251D01*
X105625000Y-70762459D01*
X105600597Y-70639778D01*
X105552730Y-70524216D01*
X105483237Y-70420212D01*
X105394789Y-70331764D01*
X105290785Y-70262271D01*
X105175223Y-70214404D01*
X105052542Y-70190001D01*
X104425750Y-70190001D01*
X104267000Y-70348751D01*
X104013000Y-70348751D01*
X103854250Y-70190001D01*
X103227458Y-70190001D01*
X103104777Y-70214404D01*
X102989215Y-70262271D01*
X102885211Y-70331764D01*
X102796763Y-70420212D01*
X102727270Y-70524216D01*
X102679403Y-70639778D01*
X102655000Y-70762459D01*
X99247000Y-70762459D01*
X99247000Y-68809616D01*
X99371147Y-68909433D01*
X99754246Y-69109712D01*
X100168950Y-69231766D01*
X100599463Y-69270946D01*
X101029388Y-69225759D01*
X101442347Y-69097927D01*
X101822612Y-68892318D01*
X102155699Y-68616765D01*
X102428921Y-68281762D01*
X102631869Y-67900071D01*
X102756816Y-67486229D01*
X102799000Y-67056000D01*
X102798136Y-66994154D01*
X102743956Y-66565270D01*
X102607503Y-66155078D01*
X102393976Y-65779202D01*
X102342011Y-65719000D01*
X113054822Y-65719000D01*
X112946145Y-65856116D01*
X112946145Y-65856116D01*
G37*
X112946145Y-65856116D02*
X112748545Y-66240604D01*
X112629389Y-66656150D01*
X112593216Y-67086926D01*
X112641403Y-67516524D01*
X112772115Y-67928581D01*
X112980374Y-68307402D01*
X113258246Y-68638557D01*
X113595147Y-68909433D01*
X113978246Y-69109712D01*
X114392950Y-69231766D01*
X114823463Y-69270946D01*
X115253388Y-69225759D01*
X115666347Y-69097927D01*
X116046612Y-68892318D01*
X116145000Y-68810924D01*
X116145001Y-79061000D01*
X99247000Y-79061000D01*
X99247000Y-74215001D01*
X102647815Y-74215001D01*
X102676487Y-74506112D01*
X102761401Y-74786035D01*
X102899294Y-75044015D01*
X103084866Y-75270135D01*
X103310986Y-75455707D01*
X103365791Y-75485001D01*
X103310986Y-75514295D01*
X103084866Y-75699867D01*
X102899294Y-75925987D01*
X102761401Y-76183967D01*
X102676487Y-76463890D01*
X102647815Y-76755001D01*
X102676487Y-77046112D01*
X102761401Y-77326035D01*
X102899294Y-77584015D01*
X103084866Y-77810135D01*
X103310986Y-77995707D01*
X103568966Y-78133600D01*
X103848889Y-78218514D01*
X104067050Y-78240001D01*
X104212950Y-78240001D01*
X104431111Y-78218514D01*
X104711034Y-78133600D01*
X104969014Y-77995707D01*
X105195134Y-77810135D01*
X105380706Y-77584015D01*
X105518599Y-77326035D01*
X105603513Y-77046112D01*
X105632185Y-76755001D01*
X105603513Y-76463890D01*
X105518599Y-76183967D01*
X105380706Y-75925987D01*
X105195134Y-75699867D01*
X104969014Y-75514295D01*
X104914209Y-75485001D01*
X104969014Y-75455707D01*
X105195134Y-75270135D01*
X105380706Y-75044015D01*
X105518599Y-74786035D01*
X105603513Y-74506112D01*
X105632185Y-74215001D01*
X105630058Y-74193400D01*
X110036675Y-74193400D01*
X110065347Y-74484511D01*
X110150261Y-74764434D01*
X110288154Y-75022414D01*
X110473726Y-75248534D01*
X110503547Y-75273007D01*
X110434680Y-75293898D01*
X110324366Y-75352863D01*
X110227675Y-75432215D01*
X110148323Y-75528906D01*
X110089358Y-75639220D01*
X110053048Y-75758918D01*
X110040788Y-75883400D01*
X110040788Y-77583400D01*
X110053048Y-77707882D01*
X110089358Y-77827580D01*
X110148323Y-77937894D01*
X110227675Y-78034585D01*
X110324366Y-78113937D01*
X110434680Y-78172902D01*
X110554378Y-78209212D01*
X110678860Y-78221472D01*
X112378860Y-78221472D01*
X112503342Y-78209212D01*
X112623040Y-78172902D01*
X112733354Y-78113937D01*
X112830045Y-78034585D01*
X112909397Y-77937894D01*
X112968362Y-77827580D01*
X113004672Y-77707882D01*
X113016932Y-77583400D01*
X113016932Y-75883400D01*
X113004672Y-75758918D01*
X112968362Y-75639220D01*
X112909397Y-75528906D01*
X112830045Y-75432215D01*
X112733354Y-75352863D01*
X112623040Y-75293898D01*
X112554173Y-75273007D01*
X112583994Y-75248534D01*
X112769566Y-75022414D01*
X112907459Y-74764434D01*
X112992373Y-74484511D01*
X113021045Y-74193400D01*
X112992373Y-73902289D01*
X112907459Y-73622366D01*
X112769566Y-73364386D01*
X112583994Y-73138266D01*
X112357874Y-72952694D01*
X112099894Y-72814801D01*
X111819971Y-72729887D01*
X111601810Y-72708400D01*
X111455910Y-72708400D01*
X111237749Y-72729887D01*
X110957826Y-72814801D01*
X110699846Y-72952694D01*
X110473726Y-73138266D01*
X110288154Y-73364386D01*
X110150261Y-73622366D01*
X110065347Y-73902289D01*
X110036675Y-74193400D01*
X105630058Y-74193400D01*
X105603513Y-73923890D01*
X105518599Y-73643967D01*
X105380706Y-73385987D01*
X105195134Y-73159867D01*
X105167447Y-73137145D01*
X105175223Y-73135598D01*
X105290785Y-73087731D01*
X105394789Y-73018238D01*
X105483237Y-72929790D01*
X105552730Y-72825786D01*
X105600597Y-72710224D01*
X105625000Y-72587543D01*
X105625000Y-71960751D01*
X105466250Y-71802001D01*
X104267000Y-71802001D01*
X104267000Y-71822001D01*
X104013000Y-71822001D01*
X104013000Y-71802001D01*
X102813750Y-71802001D01*
X102655000Y-71960751D01*
X102655000Y-72587543D01*
X102679403Y-72710224D01*
X102727270Y-72825786D01*
X102796763Y-72929790D01*
X102885211Y-73018238D01*
X102989215Y-73087731D01*
X103104777Y-73135598D01*
X103112553Y-73137145D01*
X103084866Y-73159867D01*
X102899294Y-73385987D01*
X102761401Y-73643967D01*
X102676487Y-73923890D01*
X102647815Y-74215001D01*
X99247000Y-74215001D01*
X99247000Y-70762459D01*
X102655000Y-70762459D01*
X102655000Y-71389251D01*
X102813750Y-71548001D01*
X104013000Y-71548001D01*
X104013000Y-70348751D01*
X104267000Y-70348751D01*
X104267000Y-71548001D01*
X105466250Y-71548001D01*
X105625000Y-71389251D01*
X105625000Y-70762459D01*
X105600597Y-70639778D01*
X105552730Y-70524216D01*
X105483237Y-70420212D01*
X105394789Y-70331764D01*
X105290785Y-70262271D01*
X105175223Y-70214404D01*
X105052542Y-70190001D01*
X104425750Y-70190001D01*
X104267000Y-70348751D01*
X104013000Y-70348751D01*
X103854250Y-70190001D01*
X103227458Y-70190001D01*
X103104777Y-70214404D01*
X102989215Y-70262271D01*
X102885211Y-70331764D01*
X102796763Y-70420212D01*
X102727270Y-70524216D01*
X102679403Y-70639778D01*
X102655000Y-70762459D01*
X99247000Y-70762459D01*
X99247000Y-68809616D01*
X99371147Y-68909433D01*
X99754246Y-69109712D01*
X100168950Y-69231766D01*
X100599463Y-69270946D01*
X101029388Y-69225759D01*
X101442347Y-69097927D01*
X101822612Y-68892318D01*
X102155699Y-68616765D01*
X102428921Y-68281762D01*
X102631869Y-67900071D01*
X102756816Y-67486229D01*
X102799000Y-67056000D01*
X102798136Y-66994154D01*
X102743956Y-66565270D01*
X102607503Y-66155078D01*
X102393976Y-65779202D01*
X102342011Y-65719000D01*
X113054822Y-65719000D01*
X112946145Y-65856116D01*
G04 #@! TD*
M02*
