G04 #@! TF.GenerationSoftware,KiCad,Pcbnew,(5.0.1)-4*
G04 #@! TF.CreationDate,2019-11-27T10:31:27-06:00*
G04 #@! TF.ProjectId,photodiode,70686F746F64696F64652E6B69636164,rev?*
G04 #@! TF.SameCoordinates,Original*
G04 #@! TF.FileFunction,Soldermask,Bot*
G04 #@! TF.FilePolarity,Negative*
%FSLAX46Y46*%
G04 Gerber Fmt 4.6, Leading zero omitted, Abs format (unit mm)*
G04 Created by KiCad (PCBNEW (5.0.1)-4) date 11/27/2019 10:31:27 AM*
%MOMM*%
%LPD*%
G01*
G04 APERTURE LIST*
%ADD10C,0.100000*%
G04 APERTURE END LIST*
D10*
G36*
X113657496Y-75867038D02*
X113747647Y-75875917D01*
X113860873Y-75910264D01*
X113917487Y-75927437D01*
X114056107Y-76001532D01*
X114074011Y-76011102D01*
X114109749Y-76040432D01*
X114211206Y-76123694D01*
X114294468Y-76225151D01*
X114323798Y-76260889D01*
X114323799Y-76260891D01*
X114407463Y-76417413D01*
X114407463Y-76417414D01*
X114458983Y-76587253D01*
X114476379Y-76763880D01*
X114458983Y-76940507D01*
X114424636Y-77053733D01*
X114407463Y-77110347D01*
X114333368Y-77248967D01*
X114323798Y-77266871D01*
X114294468Y-77302609D01*
X114211206Y-77404066D01*
X114109749Y-77487328D01*
X114074011Y-77516658D01*
X114074009Y-77516659D01*
X113917487Y-77600323D01*
X113860873Y-77617496D01*
X113747647Y-77651843D01*
X113705429Y-77656001D01*
X113615280Y-77664880D01*
X113526760Y-77664880D01*
X113436611Y-77656001D01*
X113394393Y-77651843D01*
X113281167Y-77617496D01*
X113224553Y-77600323D01*
X113068031Y-77516659D01*
X113068029Y-77516658D01*
X113032291Y-77487328D01*
X112930834Y-77404066D01*
X112847572Y-77302609D01*
X112818242Y-77266871D01*
X112808672Y-77248967D01*
X112734577Y-77110347D01*
X112717404Y-77053733D01*
X112683057Y-76940507D01*
X112665661Y-76763880D01*
X112683057Y-76587253D01*
X112734577Y-76417414D01*
X112734577Y-76417413D01*
X112818241Y-76260891D01*
X112818242Y-76260889D01*
X112847572Y-76225151D01*
X112930834Y-76123694D01*
X113032291Y-76040432D01*
X113068029Y-76011102D01*
X113085933Y-76001532D01*
X113224553Y-75927437D01*
X113281167Y-75910264D01*
X113394393Y-75875917D01*
X113484544Y-75867038D01*
X113526760Y-75862880D01*
X113615280Y-75862880D01*
X113657496Y-75867038D01*
X113657496Y-75867038D01*
G37*
G36*
X104250443Y-75860520D02*
X104316627Y-75867038D01*
X104429853Y-75901385D01*
X104486467Y-75918558D01*
X104625087Y-75992653D01*
X104642991Y-76002223D01*
X104678729Y-76031553D01*
X104780186Y-76114815D01*
X104863448Y-76216272D01*
X104892778Y-76252010D01*
X104892779Y-76252012D01*
X104976443Y-76408534D01*
X104993616Y-76465148D01*
X105027963Y-76578374D01*
X105045359Y-76755001D01*
X105027963Y-76931628D01*
X104993616Y-77044854D01*
X104976443Y-77101468D01*
X104971697Y-77110347D01*
X104892778Y-77257992D01*
X104885491Y-77266871D01*
X104780186Y-77395187D01*
X104678729Y-77478449D01*
X104642991Y-77507779D01*
X104642989Y-77507780D01*
X104486467Y-77591444D01*
X104457196Y-77600323D01*
X104316627Y-77642964D01*
X104250442Y-77649483D01*
X104184260Y-77656001D01*
X104095740Y-77656001D01*
X104029558Y-77649483D01*
X103963373Y-77642964D01*
X103822804Y-77600323D01*
X103793533Y-77591444D01*
X103637011Y-77507780D01*
X103637009Y-77507779D01*
X103601271Y-77478449D01*
X103499814Y-77395187D01*
X103394509Y-77266871D01*
X103387222Y-77257992D01*
X103308303Y-77110347D01*
X103303557Y-77101468D01*
X103286384Y-77044854D01*
X103252037Y-76931628D01*
X103234641Y-76755001D01*
X103252037Y-76578374D01*
X103286384Y-76465148D01*
X103303557Y-76408534D01*
X103387221Y-76252012D01*
X103387222Y-76252010D01*
X103416552Y-76216272D01*
X103499814Y-76114815D01*
X103601271Y-76031553D01*
X103637009Y-76002223D01*
X103654913Y-75992653D01*
X103793533Y-75918558D01*
X103850147Y-75901385D01*
X103963373Y-75867038D01*
X104029557Y-75860520D01*
X104095740Y-75854001D01*
X104184260Y-75854001D01*
X104250443Y-75860520D01*
X104250443Y-75860520D01*
G37*
G36*
X114472020Y-75124880D02*
X112670020Y-75124880D01*
X112670020Y-73322880D01*
X114472020Y-73322880D01*
X114472020Y-75124880D01*
X114472020Y-75124880D01*
G37*
G36*
X104250442Y-73320519D02*
X104316627Y-73327038D01*
X104429853Y-73361385D01*
X104486467Y-73378558D01*
X104625087Y-73452653D01*
X104642991Y-73462223D01*
X104678729Y-73491553D01*
X104780186Y-73574815D01*
X104863448Y-73676272D01*
X104892778Y-73712010D01*
X104892779Y-73712012D01*
X104976443Y-73868534D01*
X104976443Y-73868535D01*
X105027963Y-74038374D01*
X105045359Y-74215001D01*
X105027963Y-74391628D01*
X104993616Y-74504854D01*
X104976443Y-74561468D01*
X104902348Y-74700088D01*
X104892778Y-74717992D01*
X104863448Y-74753730D01*
X104780186Y-74855187D01*
X104678729Y-74938449D01*
X104642991Y-74967779D01*
X104642989Y-74967780D01*
X104486467Y-75051444D01*
X104429853Y-75068617D01*
X104316627Y-75102964D01*
X104250442Y-75109483D01*
X104184260Y-75116001D01*
X104095740Y-75116001D01*
X104029558Y-75109483D01*
X103963373Y-75102964D01*
X103850147Y-75068617D01*
X103793533Y-75051444D01*
X103637011Y-74967780D01*
X103637009Y-74967779D01*
X103601271Y-74938449D01*
X103499814Y-74855187D01*
X103416552Y-74753730D01*
X103387222Y-74717992D01*
X103377652Y-74700088D01*
X103303557Y-74561468D01*
X103286384Y-74504854D01*
X103252037Y-74391628D01*
X103234641Y-74215001D01*
X103252037Y-74038374D01*
X103303557Y-73868535D01*
X103303557Y-73868534D01*
X103387221Y-73712012D01*
X103387222Y-73712010D01*
X103416552Y-73676272D01*
X103499814Y-73574815D01*
X103601271Y-73491553D01*
X103637009Y-73462223D01*
X103654913Y-73452653D01*
X103793533Y-73378558D01*
X103850147Y-73361385D01*
X103963373Y-73327038D01*
X104029558Y-73320519D01*
X104095740Y-73314001D01*
X104184260Y-73314001D01*
X104250442Y-73320519D01*
X104250442Y-73320519D01*
G37*
G36*
X105041000Y-72576001D02*
X103239000Y-72576001D01*
X103239000Y-70774001D01*
X105041000Y-70774001D01*
X105041000Y-72576001D01*
X105041000Y-72576001D01*
G37*
M02*
