G04 #@! TF.GenerationSoftware,KiCad,Pcbnew,(5.0.1)-4*
G04 #@! TF.CreationDate,2019-11-20T14:17:43-05:00*
G04 #@! TF.ProjectId,photodiode,70686F746F64696F64652E6B69636164,rev?*
G04 #@! TF.SameCoordinates,Original*
G04 #@! TF.FileFunction,Copper,L1,Top,Signal*
G04 #@! TF.FilePolarity,Positive*
%FSLAX46Y46*%
G04 Gerber Fmt 4.6, Leading zero omitted, Abs format (unit mm)*
G04 Created by KiCad (PCBNEW (5.0.1)-4) date 11/20/2019 2:17:43 PM*
%MOMM*%
%LPD*%
G01*
G04 APERTURE LIST*
G04 #@! TA.AperFunction,ComponentPad*
%ADD10R,1.700000X1.700000*%
G04 #@! TD*
G04 #@! TA.AperFunction,ComponentPad*
%ADD11O,1.700000X1.700000*%
G04 #@! TD*
G04 #@! TA.AperFunction,Conductor*
%ADD12C,0.100000*%
G04 #@! TD*
G04 #@! TA.AperFunction,SMDPad,CuDef*
%ADD13C,0.975000*%
G04 #@! TD*
G04 #@! TA.AperFunction,ViaPad*
%ADD14C,0.800000*%
G04 #@! TD*
G04 #@! TA.AperFunction,Conductor*
%ADD15C,0.250000*%
G04 #@! TD*
G04 #@! TA.AperFunction,Conductor*
%ADD16C,0.304800*%
G04 #@! TD*
G04 #@! TA.AperFunction,Conductor*
%ADD17C,0.254000*%
G04 #@! TD*
G04 APERTURE END LIST*
D10*
G04 #@! TO.P,D1,1*
G04 #@! TO.N,VCC*
X111528860Y-76733400D03*
D11*
G04 #@! TO.P,D1,2*
G04 #@! TO.N,/A0*
X111528860Y-74193400D03*
G04 #@! TD*
D10*
G04 #@! TO.P,J1,1*
G04 #@! TO.N,GND*
X104140000Y-71675001D03*
D11*
G04 #@! TO.P,J1,2*
G04 #@! TO.N,/A0*
X104140000Y-74215001D03*
G04 #@! TO.P,J1,3*
G04 #@! TO.N,VCC*
X104140000Y-76755001D03*
G04 #@! TD*
D12*
G04 #@! TO.N,GND*
G04 #@! TO.C,R1*
G36*
X109911582Y-69156254D02*
X109935243Y-69159764D01*
X109958447Y-69165576D01*
X109980969Y-69173634D01*
X110002593Y-69183862D01*
X110023110Y-69196159D01*
X110042323Y-69210409D01*
X110060047Y-69226473D01*
X110076111Y-69244197D01*
X110090361Y-69263410D01*
X110102658Y-69283927D01*
X110112886Y-69305551D01*
X110120944Y-69328073D01*
X110126756Y-69351277D01*
X110130266Y-69374938D01*
X110131440Y-69398830D01*
X110131440Y-70311330D01*
X110130266Y-70335222D01*
X110126756Y-70358883D01*
X110120944Y-70382087D01*
X110112886Y-70404609D01*
X110102658Y-70426233D01*
X110090361Y-70446750D01*
X110076111Y-70465963D01*
X110060047Y-70483687D01*
X110042323Y-70499751D01*
X110023110Y-70514001D01*
X110002593Y-70526298D01*
X109980969Y-70536526D01*
X109958447Y-70544584D01*
X109935243Y-70550396D01*
X109911582Y-70553906D01*
X109887690Y-70555080D01*
X109400190Y-70555080D01*
X109376298Y-70553906D01*
X109352637Y-70550396D01*
X109329433Y-70544584D01*
X109306911Y-70536526D01*
X109285287Y-70526298D01*
X109264770Y-70514001D01*
X109245557Y-70499751D01*
X109227833Y-70483687D01*
X109211769Y-70465963D01*
X109197519Y-70446750D01*
X109185222Y-70426233D01*
X109174994Y-70404609D01*
X109166936Y-70382087D01*
X109161124Y-70358883D01*
X109157614Y-70335222D01*
X109156440Y-70311330D01*
X109156440Y-69398830D01*
X109157614Y-69374938D01*
X109161124Y-69351277D01*
X109166936Y-69328073D01*
X109174994Y-69305551D01*
X109185222Y-69283927D01*
X109197519Y-69263410D01*
X109211769Y-69244197D01*
X109227833Y-69226473D01*
X109245557Y-69210409D01*
X109264770Y-69196159D01*
X109285287Y-69183862D01*
X109306911Y-69173634D01*
X109329433Y-69165576D01*
X109352637Y-69159764D01*
X109376298Y-69156254D01*
X109400190Y-69155080D01*
X109887690Y-69155080D01*
X109911582Y-69156254D01*
X109911582Y-69156254D01*
G37*
D13*
G04 #@! TD*
G04 #@! TO.P,R1,1*
G04 #@! TO.N,GND*
X109643940Y-69855080D03*
D12*
G04 #@! TO.N,/A0*
G04 #@! TO.C,R1*
G36*
X111786582Y-69156254D02*
X111810243Y-69159764D01*
X111833447Y-69165576D01*
X111855969Y-69173634D01*
X111877593Y-69183862D01*
X111898110Y-69196159D01*
X111917323Y-69210409D01*
X111935047Y-69226473D01*
X111951111Y-69244197D01*
X111965361Y-69263410D01*
X111977658Y-69283927D01*
X111987886Y-69305551D01*
X111995944Y-69328073D01*
X112001756Y-69351277D01*
X112005266Y-69374938D01*
X112006440Y-69398830D01*
X112006440Y-70311330D01*
X112005266Y-70335222D01*
X112001756Y-70358883D01*
X111995944Y-70382087D01*
X111987886Y-70404609D01*
X111977658Y-70426233D01*
X111965361Y-70446750D01*
X111951111Y-70465963D01*
X111935047Y-70483687D01*
X111917323Y-70499751D01*
X111898110Y-70514001D01*
X111877593Y-70526298D01*
X111855969Y-70536526D01*
X111833447Y-70544584D01*
X111810243Y-70550396D01*
X111786582Y-70553906D01*
X111762690Y-70555080D01*
X111275190Y-70555080D01*
X111251298Y-70553906D01*
X111227637Y-70550396D01*
X111204433Y-70544584D01*
X111181911Y-70536526D01*
X111160287Y-70526298D01*
X111139770Y-70514001D01*
X111120557Y-70499751D01*
X111102833Y-70483687D01*
X111086769Y-70465963D01*
X111072519Y-70446750D01*
X111060222Y-70426233D01*
X111049994Y-70404609D01*
X111041936Y-70382087D01*
X111036124Y-70358883D01*
X111032614Y-70335222D01*
X111031440Y-70311330D01*
X111031440Y-69398830D01*
X111032614Y-69374938D01*
X111036124Y-69351277D01*
X111041936Y-69328073D01*
X111049994Y-69305551D01*
X111060222Y-69283927D01*
X111072519Y-69263410D01*
X111086769Y-69244197D01*
X111102833Y-69226473D01*
X111120557Y-69210409D01*
X111139770Y-69196159D01*
X111160287Y-69183862D01*
X111181911Y-69173634D01*
X111204433Y-69165576D01*
X111227637Y-69159764D01*
X111251298Y-69156254D01*
X111275190Y-69155080D01*
X111762690Y-69155080D01*
X111786582Y-69156254D01*
X111786582Y-69156254D01*
G37*
D13*
G04 #@! TD*
G04 #@! TO.P,R1,2*
G04 #@! TO.N,/A0*
X111518940Y-69855080D03*
D14*
G04 #@! TO.N,GND*
X107866180Y-75316080D03*
X106573320Y-77861160D03*
X109197140Y-77952600D03*
X106738420Y-73350120D03*
X109004100Y-73400920D03*
X107955080Y-71122540D03*
G04 #@! TD*
D15*
G04 #@! TO.N,GND*
X104140000Y-70575001D02*
X104140000Y-71675001D01*
D16*
G04 #@! TO.N,/A0*
X112075177Y-70411317D02*
X111518940Y-69855080D01*
X112378859Y-70714999D02*
X112075177Y-70411317D01*
X112378859Y-73343401D02*
X112378859Y-70714999D01*
X111528860Y-74193400D02*
X112378859Y-73343401D01*
X104161601Y-74193400D02*
X104140000Y-74215001D01*
X104140000Y-74215001D02*
X106081841Y-72273160D01*
X109608620Y-72273160D02*
X111528860Y-74193400D01*
X106081841Y-72273160D02*
X109608620Y-72273160D01*
G04 #@! TO.N,VCC*
X111507259Y-76755001D02*
X111528860Y-76733400D01*
X104140000Y-76755001D02*
X111507259Y-76755001D01*
G04 #@! TD*
D17*
G04 #@! TO.N,GND*
G36*
X112946145Y-65856116D02*
X112748545Y-66240604D01*
X112629389Y-66656150D01*
X112593216Y-67086926D01*
X112641403Y-67516524D01*
X112772115Y-67928581D01*
X112980374Y-68307402D01*
X113258246Y-68638557D01*
X113595147Y-68909433D01*
X113978246Y-69109712D01*
X114392950Y-69231766D01*
X114823463Y-69270946D01*
X115253388Y-69225759D01*
X115666347Y-69097927D01*
X116046612Y-68892318D01*
X116145000Y-68810924D01*
X116145001Y-79061000D01*
X99247000Y-79061000D01*
X99247000Y-74215001D01*
X102647815Y-74215001D01*
X102676487Y-74506112D01*
X102761401Y-74786035D01*
X102899294Y-75044015D01*
X103084866Y-75270135D01*
X103310986Y-75455707D01*
X103365791Y-75485001D01*
X103310986Y-75514295D01*
X103084866Y-75699867D01*
X102899294Y-75925987D01*
X102761401Y-76183967D01*
X102676487Y-76463890D01*
X102647815Y-76755001D01*
X102676487Y-77046112D01*
X102761401Y-77326035D01*
X102899294Y-77584015D01*
X103084866Y-77810135D01*
X103310986Y-77995707D01*
X103568966Y-78133600D01*
X103848889Y-78218514D01*
X104067050Y-78240001D01*
X104212950Y-78240001D01*
X104431111Y-78218514D01*
X104711034Y-78133600D01*
X104969014Y-77995707D01*
X105195134Y-77810135D01*
X105380706Y-77584015D01*
X105402949Y-77542401D01*
X110040788Y-77542401D01*
X110040788Y-77583400D01*
X110053048Y-77707882D01*
X110089358Y-77827580D01*
X110148323Y-77937894D01*
X110227675Y-78034585D01*
X110324366Y-78113937D01*
X110434680Y-78172902D01*
X110554378Y-78209212D01*
X110678860Y-78221472D01*
X112378860Y-78221472D01*
X112503342Y-78209212D01*
X112623040Y-78172902D01*
X112733354Y-78113937D01*
X112830045Y-78034585D01*
X112909397Y-77937894D01*
X112968362Y-77827580D01*
X113004672Y-77707882D01*
X113016932Y-77583400D01*
X113016932Y-75883400D01*
X113004672Y-75758918D01*
X112968362Y-75639220D01*
X112909397Y-75528906D01*
X112830045Y-75432215D01*
X112733354Y-75352863D01*
X112623040Y-75293898D01*
X112554173Y-75273007D01*
X112583994Y-75248534D01*
X112769566Y-75022414D01*
X112907459Y-74764434D01*
X112992373Y-74484511D01*
X113021045Y-74193400D01*
X112992373Y-73902289D01*
X112977916Y-73854632D01*
X113036725Y-73782973D01*
X113109841Y-73646184D01*
X113154865Y-73497758D01*
X113166259Y-73382074D01*
X113166259Y-73382065D01*
X113170067Y-73343402D01*
X113166259Y-73304739D01*
X113166259Y-70753661D01*
X113170067Y-70714998D01*
X113166259Y-70676335D01*
X113166259Y-70676326D01*
X113154865Y-70560642D01*
X113109841Y-70412216D01*
X113036725Y-70275427D01*
X112938328Y-70155530D01*
X112908286Y-70130875D01*
X112659302Y-69881892D01*
X112659298Y-69881887D01*
X112644512Y-69867101D01*
X112644512Y-69398830D01*
X112627568Y-69226795D01*
X112577387Y-69061371D01*
X112495898Y-68908916D01*
X112386232Y-68775288D01*
X112252604Y-68665622D01*
X112100149Y-68584133D01*
X111934725Y-68533952D01*
X111762690Y-68517008D01*
X111275190Y-68517008D01*
X111103155Y-68533952D01*
X110937731Y-68584133D01*
X110785276Y-68665622D01*
X110651648Y-68775288D01*
X110645988Y-68782185D01*
X110624677Y-68750291D01*
X110536229Y-68661843D01*
X110432225Y-68592350D01*
X110316663Y-68544483D01*
X110193982Y-68520080D01*
X109929690Y-68520080D01*
X109770940Y-68678830D01*
X109770940Y-69728080D01*
X109790940Y-69728080D01*
X109790940Y-69982080D01*
X109770940Y-69982080D01*
X109770940Y-71031330D01*
X109929690Y-71190080D01*
X110193982Y-71190080D01*
X110316663Y-71165677D01*
X110432225Y-71117810D01*
X110536229Y-71048317D01*
X110624677Y-70959869D01*
X110645988Y-70927975D01*
X110651648Y-70934872D01*
X110785276Y-71044538D01*
X110937731Y-71126027D01*
X111103155Y-71176208D01*
X111275190Y-71193152D01*
X111591460Y-71193152D01*
X111591459Y-72708400D01*
X111455910Y-72708400D01*
X111237749Y-72729887D01*
X111192595Y-72743584D01*
X110192747Y-71743737D01*
X110168089Y-71713691D01*
X110048192Y-71615294D01*
X109911403Y-71542178D01*
X109762977Y-71497154D01*
X109647293Y-71485760D01*
X109647283Y-71485760D01*
X109608620Y-71481952D01*
X109569957Y-71485760D01*
X106120504Y-71485760D01*
X106081841Y-71481952D01*
X106043178Y-71485760D01*
X106043168Y-71485760D01*
X105927484Y-71497154D01*
X105779058Y-71542178D01*
X105642268Y-71615294D01*
X105625000Y-71629466D01*
X105625000Y-71547999D01*
X105466252Y-71547999D01*
X105625000Y-71389251D01*
X105625000Y-70762459D01*
X105600597Y-70639778D01*
X105552730Y-70524216D01*
X105483237Y-70420212D01*
X105394789Y-70331764D01*
X105290785Y-70262271D01*
X105175223Y-70214404D01*
X105052542Y-70190001D01*
X104425750Y-70190001D01*
X104267000Y-70348751D01*
X104267000Y-71548001D01*
X104287000Y-71548001D01*
X104287000Y-71802001D01*
X104267000Y-71802001D01*
X104267000Y-71822001D01*
X104013000Y-71822001D01*
X104013000Y-71802001D01*
X102813750Y-71802001D01*
X102655000Y-71960751D01*
X102655000Y-72587543D01*
X102679403Y-72710224D01*
X102727270Y-72825786D01*
X102796763Y-72929790D01*
X102885211Y-73018238D01*
X102989215Y-73087731D01*
X103104777Y-73135598D01*
X103112553Y-73137145D01*
X103084866Y-73159867D01*
X102899294Y-73385987D01*
X102761401Y-73643967D01*
X102676487Y-73923890D01*
X102647815Y-74215001D01*
X99247000Y-74215001D01*
X99247000Y-70762459D01*
X102655000Y-70762459D01*
X102655000Y-71389251D01*
X102813750Y-71548001D01*
X104013000Y-71548001D01*
X104013000Y-70348751D01*
X103854250Y-70190001D01*
X103227458Y-70190001D01*
X103104777Y-70214404D01*
X102989215Y-70262271D01*
X102885211Y-70331764D01*
X102796763Y-70420212D01*
X102727270Y-70524216D01*
X102679403Y-70639778D01*
X102655000Y-70762459D01*
X99247000Y-70762459D01*
X99247000Y-70140830D01*
X108521440Y-70140830D01*
X108521440Y-70617622D01*
X108545843Y-70740303D01*
X108593710Y-70855865D01*
X108663203Y-70959869D01*
X108751651Y-71048317D01*
X108855655Y-71117810D01*
X108971217Y-71165677D01*
X109093898Y-71190080D01*
X109358190Y-71190080D01*
X109516940Y-71031330D01*
X109516940Y-69982080D01*
X108680190Y-69982080D01*
X108521440Y-70140830D01*
X99247000Y-70140830D01*
X99247000Y-68809616D01*
X99371147Y-68909433D01*
X99754246Y-69109712D01*
X100168950Y-69231766D01*
X100599463Y-69270946D01*
X101029388Y-69225759D01*
X101442347Y-69097927D01*
X101452313Y-69092538D01*
X108521440Y-69092538D01*
X108521440Y-69569330D01*
X108680190Y-69728080D01*
X109516940Y-69728080D01*
X109516940Y-68678830D01*
X109358190Y-68520080D01*
X109093898Y-68520080D01*
X108971217Y-68544483D01*
X108855655Y-68592350D01*
X108751651Y-68661843D01*
X108663203Y-68750291D01*
X108593710Y-68854295D01*
X108545843Y-68969857D01*
X108521440Y-69092538D01*
X101452313Y-69092538D01*
X101822612Y-68892318D01*
X102155699Y-68616765D01*
X102428921Y-68281762D01*
X102631869Y-67900071D01*
X102756816Y-67486229D01*
X102799000Y-67056000D01*
X102798136Y-66994154D01*
X102743956Y-66565270D01*
X102607503Y-66155078D01*
X102393976Y-65779202D01*
X102342011Y-65719000D01*
X113054822Y-65719000D01*
X112946145Y-65856116D01*
X112946145Y-65856116D01*
G37*
X112946145Y-65856116D02*
X112748545Y-66240604D01*
X112629389Y-66656150D01*
X112593216Y-67086926D01*
X112641403Y-67516524D01*
X112772115Y-67928581D01*
X112980374Y-68307402D01*
X113258246Y-68638557D01*
X113595147Y-68909433D01*
X113978246Y-69109712D01*
X114392950Y-69231766D01*
X114823463Y-69270946D01*
X115253388Y-69225759D01*
X115666347Y-69097927D01*
X116046612Y-68892318D01*
X116145000Y-68810924D01*
X116145001Y-79061000D01*
X99247000Y-79061000D01*
X99247000Y-74215001D01*
X102647815Y-74215001D01*
X102676487Y-74506112D01*
X102761401Y-74786035D01*
X102899294Y-75044015D01*
X103084866Y-75270135D01*
X103310986Y-75455707D01*
X103365791Y-75485001D01*
X103310986Y-75514295D01*
X103084866Y-75699867D01*
X102899294Y-75925987D01*
X102761401Y-76183967D01*
X102676487Y-76463890D01*
X102647815Y-76755001D01*
X102676487Y-77046112D01*
X102761401Y-77326035D01*
X102899294Y-77584015D01*
X103084866Y-77810135D01*
X103310986Y-77995707D01*
X103568966Y-78133600D01*
X103848889Y-78218514D01*
X104067050Y-78240001D01*
X104212950Y-78240001D01*
X104431111Y-78218514D01*
X104711034Y-78133600D01*
X104969014Y-77995707D01*
X105195134Y-77810135D01*
X105380706Y-77584015D01*
X105402949Y-77542401D01*
X110040788Y-77542401D01*
X110040788Y-77583400D01*
X110053048Y-77707882D01*
X110089358Y-77827580D01*
X110148323Y-77937894D01*
X110227675Y-78034585D01*
X110324366Y-78113937D01*
X110434680Y-78172902D01*
X110554378Y-78209212D01*
X110678860Y-78221472D01*
X112378860Y-78221472D01*
X112503342Y-78209212D01*
X112623040Y-78172902D01*
X112733354Y-78113937D01*
X112830045Y-78034585D01*
X112909397Y-77937894D01*
X112968362Y-77827580D01*
X113004672Y-77707882D01*
X113016932Y-77583400D01*
X113016932Y-75883400D01*
X113004672Y-75758918D01*
X112968362Y-75639220D01*
X112909397Y-75528906D01*
X112830045Y-75432215D01*
X112733354Y-75352863D01*
X112623040Y-75293898D01*
X112554173Y-75273007D01*
X112583994Y-75248534D01*
X112769566Y-75022414D01*
X112907459Y-74764434D01*
X112992373Y-74484511D01*
X113021045Y-74193400D01*
X112992373Y-73902289D01*
X112977916Y-73854632D01*
X113036725Y-73782973D01*
X113109841Y-73646184D01*
X113154865Y-73497758D01*
X113166259Y-73382074D01*
X113166259Y-73382065D01*
X113170067Y-73343402D01*
X113166259Y-73304739D01*
X113166259Y-70753661D01*
X113170067Y-70714998D01*
X113166259Y-70676335D01*
X113166259Y-70676326D01*
X113154865Y-70560642D01*
X113109841Y-70412216D01*
X113036725Y-70275427D01*
X112938328Y-70155530D01*
X112908286Y-70130875D01*
X112659302Y-69881892D01*
X112659298Y-69881887D01*
X112644512Y-69867101D01*
X112644512Y-69398830D01*
X112627568Y-69226795D01*
X112577387Y-69061371D01*
X112495898Y-68908916D01*
X112386232Y-68775288D01*
X112252604Y-68665622D01*
X112100149Y-68584133D01*
X111934725Y-68533952D01*
X111762690Y-68517008D01*
X111275190Y-68517008D01*
X111103155Y-68533952D01*
X110937731Y-68584133D01*
X110785276Y-68665622D01*
X110651648Y-68775288D01*
X110645988Y-68782185D01*
X110624677Y-68750291D01*
X110536229Y-68661843D01*
X110432225Y-68592350D01*
X110316663Y-68544483D01*
X110193982Y-68520080D01*
X109929690Y-68520080D01*
X109770940Y-68678830D01*
X109770940Y-69728080D01*
X109790940Y-69728080D01*
X109790940Y-69982080D01*
X109770940Y-69982080D01*
X109770940Y-71031330D01*
X109929690Y-71190080D01*
X110193982Y-71190080D01*
X110316663Y-71165677D01*
X110432225Y-71117810D01*
X110536229Y-71048317D01*
X110624677Y-70959869D01*
X110645988Y-70927975D01*
X110651648Y-70934872D01*
X110785276Y-71044538D01*
X110937731Y-71126027D01*
X111103155Y-71176208D01*
X111275190Y-71193152D01*
X111591460Y-71193152D01*
X111591459Y-72708400D01*
X111455910Y-72708400D01*
X111237749Y-72729887D01*
X111192595Y-72743584D01*
X110192747Y-71743737D01*
X110168089Y-71713691D01*
X110048192Y-71615294D01*
X109911403Y-71542178D01*
X109762977Y-71497154D01*
X109647293Y-71485760D01*
X109647283Y-71485760D01*
X109608620Y-71481952D01*
X109569957Y-71485760D01*
X106120504Y-71485760D01*
X106081841Y-71481952D01*
X106043178Y-71485760D01*
X106043168Y-71485760D01*
X105927484Y-71497154D01*
X105779058Y-71542178D01*
X105642268Y-71615294D01*
X105625000Y-71629466D01*
X105625000Y-71547999D01*
X105466252Y-71547999D01*
X105625000Y-71389251D01*
X105625000Y-70762459D01*
X105600597Y-70639778D01*
X105552730Y-70524216D01*
X105483237Y-70420212D01*
X105394789Y-70331764D01*
X105290785Y-70262271D01*
X105175223Y-70214404D01*
X105052542Y-70190001D01*
X104425750Y-70190001D01*
X104267000Y-70348751D01*
X104267000Y-71548001D01*
X104287000Y-71548001D01*
X104287000Y-71802001D01*
X104267000Y-71802001D01*
X104267000Y-71822001D01*
X104013000Y-71822001D01*
X104013000Y-71802001D01*
X102813750Y-71802001D01*
X102655000Y-71960751D01*
X102655000Y-72587543D01*
X102679403Y-72710224D01*
X102727270Y-72825786D01*
X102796763Y-72929790D01*
X102885211Y-73018238D01*
X102989215Y-73087731D01*
X103104777Y-73135598D01*
X103112553Y-73137145D01*
X103084866Y-73159867D01*
X102899294Y-73385987D01*
X102761401Y-73643967D01*
X102676487Y-73923890D01*
X102647815Y-74215001D01*
X99247000Y-74215001D01*
X99247000Y-70762459D01*
X102655000Y-70762459D01*
X102655000Y-71389251D01*
X102813750Y-71548001D01*
X104013000Y-71548001D01*
X104013000Y-70348751D01*
X103854250Y-70190001D01*
X103227458Y-70190001D01*
X103104777Y-70214404D01*
X102989215Y-70262271D01*
X102885211Y-70331764D01*
X102796763Y-70420212D01*
X102727270Y-70524216D01*
X102679403Y-70639778D01*
X102655000Y-70762459D01*
X99247000Y-70762459D01*
X99247000Y-70140830D01*
X108521440Y-70140830D01*
X108521440Y-70617622D01*
X108545843Y-70740303D01*
X108593710Y-70855865D01*
X108663203Y-70959869D01*
X108751651Y-71048317D01*
X108855655Y-71117810D01*
X108971217Y-71165677D01*
X109093898Y-71190080D01*
X109358190Y-71190080D01*
X109516940Y-71031330D01*
X109516940Y-69982080D01*
X108680190Y-69982080D01*
X108521440Y-70140830D01*
X99247000Y-70140830D01*
X99247000Y-68809616D01*
X99371147Y-68909433D01*
X99754246Y-69109712D01*
X100168950Y-69231766D01*
X100599463Y-69270946D01*
X101029388Y-69225759D01*
X101442347Y-69097927D01*
X101452313Y-69092538D01*
X108521440Y-69092538D01*
X108521440Y-69569330D01*
X108680190Y-69728080D01*
X109516940Y-69728080D01*
X109516940Y-68678830D01*
X109358190Y-68520080D01*
X109093898Y-68520080D01*
X108971217Y-68544483D01*
X108855655Y-68592350D01*
X108751651Y-68661843D01*
X108663203Y-68750291D01*
X108593710Y-68854295D01*
X108545843Y-68969857D01*
X108521440Y-69092538D01*
X101452313Y-69092538D01*
X101822612Y-68892318D01*
X102155699Y-68616765D01*
X102428921Y-68281762D01*
X102631869Y-67900071D01*
X102756816Y-67486229D01*
X102799000Y-67056000D01*
X102798136Y-66994154D01*
X102743956Y-66565270D01*
X102607503Y-66155078D01*
X102393976Y-65779202D01*
X102342011Y-65719000D01*
X113054822Y-65719000D01*
X112946145Y-65856116D01*
G36*
X110079044Y-73857135D02*
X110065347Y-73902289D01*
X110036675Y-74193400D01*
X110065347Y-74484511D01*
X110150261Y-74764434D01*
X110288154Y-75022414D01*
X110473726Y-75248534D01*
X110503547Y-75273007D01*
X110434680Y-75293898D01*
X110324366Y-75352863D01*
X110227675Y-75432215D01*
X110148323Y-75528906D01*
X110089358Y-75639220D01*
X110053048Y-75758918D01*
X110040788Y-75883400D01*
X110040788Y-75967601D01*
X105402949Y-75967601D01*
X105380706Y-75925987D01*
X105195134Y-75699867D01*
X104969014Y-75514295D01*
X104914209Y-75485001D01*
X104969014Y-75455707D01*
X105195134Y-75270135D01*
X105380706Y-75044015D01*
X105518599Y-74786035D01*
X105603513Y-74506112D01*
X105632185Y-74215001D01*
X105603513Y-73923890D01*
X105589816Y-73878736D01*
X106407992Y-73060560D01*
X109282470Y-73060560D01*
X110079044Y-73857135D01*
X110079044Y-73857135D01*
G37*
X110079044Y-73857135D02*
X110065347Y-73902289D01*
X110036675Y-74193400D01*
X110065347Y-74484511D01*
X110150261Y-74764434D01*
X110288154Y-75022414D01*
X110473726Y-75248534D01*
X110503547Y-75273007D01*
X110434680Y-75293898D01*
X110324366Y-75352863D01*
X110227675Y-75432215D01*
X110148323Y-75528906D01*
X110089358Y-75639220D01*
X110053048Y-75758918D01*
X110040788Y-75883400D01*
X110040788Y-75967601D01*
X105402949Y-75967601D01*
X105380706Y-75925987D01*
X105195134Y-75699867D01*
X104969014Y-75514295D01*
X104914209Y-75485001D01*
X104969014Y-75455707D01*
X105195134Y-75270135D01*
X105380706Y-75044015D01*
X105518599Y-74786035D01*
X105603513Y-74506112D01*
X105632185Y-74215001D01*
X105603513Y-73923890D01*
X105589816Y-73878736D01*
X106407992Y-73060560D01*
X109282470Y-73060560D01*
X110079044Y-73857135D01*
G04 #@! TD*
M02*
