G04 #@! TF.GenerationSoftware,KiCad,Pcbnew,(5.0.1)-4*
G04 #@! TF.CreationDate,2019-11-27T10:31:27-06:00*
G04 #@! TF.ProjectId,photodiode,70686F746F64696F64652E6B69636164,rev?*
G04 #@! TF.SameCoordinates,Original*
G04 #@! TF.FileFunction,Legend,Top*
G04 #@! TF.FilePolarity,Positive*
%FSLAX46Y46*%
G04 Gerber Fmt 4.6, Leading zero omitted, Abs format (unit mm)*
G04 Created by KiCad (PCBNEW (5.0.1)-4) date 11/27/2019 10:31:27 AM*
%MOMM*%
%LPD*%
G01*
G04 APERTURE LIST*
%ADD10C,0.187500*%
%ADD11C,0.250000*%
%ADD12C,0.120000*%
%ADD13C,0.150000*%
G04 APERTURE END LIST*
D10*
X103356482Y-67560385D02*
X103106482Y-67203242D01*
X102927911Y-67560385D02*
X102927911Y-66810385D01*
X103213625Y-66810385D01*
X103285054Y-66846100D01*
X103320768Y-66881814D01*
X103356482Y-66953242D01*
X103356482Y-67060385D01*
X103320768Y-67131814D01*
X103285054Y-67167528D01*
X103213625Y-67203242D01*
X102927911Y-67203242D01*
X103677911Y-67167528D02*
X103927911Y-67167528D01*
X104035054Y-67560385D02*
X103677911Y-67560385D01*
X103677911Y-66810385D01*
X104035054Y-66810385D01*
X104249340Y-66810385D02*
X104499340Y-67560385D01*
X104749340Y-66810385D01*
X105535054Y-66881814D02*
X105570768Y-66846100D01*
X105642197Y-66810385D01*
X105820768Y-66810385D01*
X105892197Y-66846100D01*
X105927911Y-66881814D01*
X105963625Y-66953242D01*
X105963625Y-67024671D01*
X105927911Y-67131814D01*
X105499340Y-67560385D01*
X105963625Y-67560385D01*
X106856482Y-67274671D02*
X107427911Y-67274671D01*
X108356482Y-67560385D02*
X108356482Y-66810385D01*
X108785054Y-67560385D01*
X108785054Y-66810385D01*
X109285054Y-66810385D02*
X109427911Y-66810385D01*
X109499340Y-66846100D01*
X109570768Y-66917528D01*
X109606482Y-67060385D01*
X109606482Y-67310385D01*
X109570768Y-67453242D01*
X109499340Y-67524671D01*
X109427911Y-67560385D01*
X109285054Y-67560385D01*
X109213625Y-67524671D01*
X109142197Y-67453242D01*
X109106482Y-67310385D01*
X109106482Y-67060385D01*
X109142197Y-66917528D01*
X109213625Y-66846100D01*
X109285054Y-66810385D01*
X109820768Y-66810385D02*
X110070768Y-67560385D01*
X110320768Y-66810385D01*
X110570768Y-67488957D02*
X110606482Y-67524671D01*
X110570768Y-67560385D01*
X110535054Y-67524671D01*
X110570768Y-67488957D01*
X110570768Y-67560385D01*
X111463625Y-66881814D02*
X111499340Y-66846100D01*
X111570768Y-66810385D01*
X111749340Y-66810385D01*
X111820768Y-66846100D01*
X111856482Y-66881814D01*
X111892197Y-66953242D01*
X111892197Y-67024671D01*
X111856482Y-67131814D01*
X111427911Y-67560385D01*
X111892197Y-67560385D01*
X112356482Y-66810385D02*
X112427911Y-66810385D01*
X112499340Y-66846100D01*
X112535054Y-66881814D01*
X112570768Y-66953242D01*
X112606482Y-67096100D01*
X112606482Y-67274671D01*
X112570768Y-67417528D01*
X112535054Y-67488957D01*
X112499340Y-67524671D01*
X112427911Y-67560385D01*
X112356482Y-67560385D01*
X112285054Y-67524671D01*
X112249340Y-67488957D01*
X112213625Y-67417528D01*
X112177911Y-67274671D01*
X112177911Y-67096100D01*
X112213625Y-66953242D01*
X112249340Y-66881814D01*
X112285054Y-66846100D01*
X112356482Y-66810385D01*
D11*
X99377666Y-76317860D02*
X99711000Y-77317860D01*
X100044333Y-76317860D01*
X100949095Y-77222622D02*
X100901476Y-77270241D01*
X100758619Y-77317860D01*
X100663380Y-77317860D01*
X100520523Y-77270241D01*
X100425285Y-77175003D01*
X100377666Y-77079765D01*
X100330047Y-76889289D01*
X100330047Y-76746432D01*
X100377666Y-76555956D01*
X100425285Y-76460718D01*
X100520523Y-76365480D01*
X100663380Y-76317860D01*
X100758619Y-76317860D01*
X100901476Y-76365480D01*
X100949095Y-76413099D01*
X101949095Y-77222622D02*
X101901476Y-77270241D01*
X101758619Y-77317860D01*
X101663380Y-77317860D01*
X101520523Y-77270241D01*
X101425285Y-77175003D01*
X101377666Y-77079765D01*
X101330047Y-76889289D01*
X101330047Y-76746432D01*
X101377666Y-76555956D01*
X101425285Y-76460718D01*
X101520523Y-76365480D01*
X101663380Y-76317860D01*
X101758619Y-76317860D01*
X101901476Y-76365480D01*
X101949095Y-76413099D01*
X106397870Y-74953761D02*
X106540727Y-75001380D01*
X106778822Y-75001380D01*
X106874060Y-74953761D01*
X106921680Y-74906142D01*
X106969299Y-74810904D01*
X106969299Y-74715666D01*
X106921680Y-74620428D01*
X106874060Y-74572809D01*
X106778822Y-74525190D01*
X106588346Y-74477571D01*
X106493108Y-74429952D01*
X106445489Y-74382333D01*
X106397870Y-74287095D01*
X106397870Y-74191857D01*
X106445489Y-74096619D01*
X106493108Y-74049000D01*
X106588346Y-74001380D01*
X106826441Y-74001380D01*
X106969299Y-74049000D01*
X107397870Y-75001380D02*
X107397870Y-74001380D01*
X108397870Y-74049000D02*
X108302632Y-74001380D01*
X108159775Y-74001380D01*
X108016918Y-74049000D01*
X107921680Y-74144238D01*
X107874060Y-74239476D01*
X107826441Y-74429952D01*
X107826441Y-74572809D01*
X107874060Y-74763285D01*
X107921680Y-74858523D01*
X108016918Y-74953761D01*
X108159775Y-75001380D01*
X108255013Y-75001380D01*
X108397870Y-74953761D01*
X108445489Y-74906142D01*
X108445489Y-74572809D01*
X108255013Y-74572809D01*
X99827175Y-69710680D02*
X99731937Y-69663060D01*
X99589080Y-69663060D01*
X99446222Y-69710680D01*
X99350984Y-69805918D01*
X99303365Y-69901156D01*
X99255746Y-70091632D01*
X99255746Y-70234489D01*
X99303365Y-70424965D01*
X99350984Y-70520203D01*
X99446222Y-70615441D01*
X99589080Y-70663060D01*
X99684318Y-70663060D01*
X99827175Y-70615441D01*
X99874794Y-70567822D01*
X99874794Y-70234489D01*
X99684318Y-70234489D01*
X100303365Y-70663060D02*
X100303365Y-69663060D01*
X100874794Y-70663060D01*
X100874794Y-69663060D01*
X101350984Y-70663060D02*
X101350984Y-69663060D01*
X101589080Y-69663060D01*
X101731937Y-69710680D01*
X101827175Y-69805918D01*
X101874794Y-69901156D01*
X101922413Y-70091632D01*
X101922413Y-70234489D01*
X101874794Y-70424965D01*
X101827175Y-70520203D01*
X101731937Y-70615441D01*
X101589080Y-70663060D01*
X101350984Y-70663060D01*
D12*
X100584000Y-68556000D02*
X100584000Y-68580000D01*
G04 #@! TO.C,D1*
X112241020Y-78093880D02*
X114901020Y-78093880D01*
X112241020Y-75493880D02*
X112241020Y-78093880D01*
X114901020Y-75493880D02*
X114901020Y-78093880D01*
X112241020Y-75493880D02*
X114901020Y-75493880D01*
X112241020Y-74223880D02*
X112241020Y-72893880D01*
X112241020Y-72893880D02*
X113571020Y-72893880D01*
G04 #@! TO.C,J1*
X102810000Y-78085001D02*
X105470000Y-78085001D01*
X102810000Y-72945001D02*
X102810000Y-78085001D01*
X105470000Y-72945001D02*
X105470000Y-78085001D01*
X102810000Y-72945001D02*
X105470000Y-72945001D01*
X102810000Y-71675001D02*
X102810000Y-70345001D01*
X102810000Y-70345001D02*
X104140000Y-70345001D01*
G04 #@! TO.C,R1*
X107658402Y-68235760D02*
X108175558Y-68235760D01*
X107658402Y-69655760D02*
X108175558Y-69655760D01*
G04 #@! TO.C,R2*
X108175558Y-72012880D02*
X107658402Y-72012880D01*
X108175558Y-70592880D02*
X107658402Y-70592880D01*
G04 #@! TO.C,R3*
X101964560Y-73390258D02*
X101964560Y-72873102D01*
X100544560Y-73390258D02*
X100544560Y-72873102D01*
G04 #@! TO.C,D1*
D13*
X112822764Y-72618860D02*
X112822764Y-71618860D01*
X113060860Y-71618860D01*
X113203717Y-71666480D01*
X113298955Y-71761718D01*
X113346574Y-71856956D01*
X113394193Y-72047432D01*
X113394193Y-72190289D01*
X113346574Y-72380765D01*
X113298955Y-72476003D01*
X113203717Y-72571241D01*
X113060860Y-72618860D01*
X112822764Y-72618860D01*
X114346574Y-72618860D02*
X113775145Y-72618860D01*
X114060860Y-72618860D02*
X114060860Y-71618860D01*
X113965621Y-71761718D01*
X113870383Y-71856956D01*
X113775145Y-71904575D01*
G04 #@! TO.C,J1*
X103806666Y-68797381D02*
X103806666Y-69511667D01*
X103759047Y-69654524D01*
X103663809Y-69749762D01*
X103520952Y-69797381D01*
X103425714Y-69797381D01*
X104806666Y-69797381D02*
X104235238Y-69797381D01*
X104520952Y-69797381D02*
X104520952Y-68797381D01*
X104425714Y-68940239D01*
X104330476Y-69035477D01*
X104235238Y-69083096D01*
G04 #@! TO.C,R1*
X110584953Y-69347340D02*
X110251620Y-68871150D01*
X110013524Y-69347340D02*
X110013524Y-68347340D01*
X110394477Y-68347340D01*
X110489715Y-68394960D01*
X110537334Y-68442579D01*
X110584953Y-68537817D01*
X110584953Y-68680674D01*
X110537334Y-68775912D01*
X110489715Y-68823531D01*
X110394477Y-68871150D01*
X110013524Y-68871150D01*
X111537334Y-69347340D02*
X110965905Y-69347340D01*
X111251620Y-69347340D02*
X111251620Y-68347340D01*
X111156381Y-68490198D01*
X111061143Y-68585436D01*
X110965905Y-68633055D01*
G04 #@! TO.C,R2*
X110861813Y-71600320D02*
X110528480Y-71124130D01*
X110290384Y-71600320D02*
X110290384Y-70600320D01*
X110671337Y-70600320D01*
X110766575Y-70647940D01*
X110814194Y-70695559D01*
X110861813Y-70790797D01*
X110861813Y-70933654D01*
X110814194Y-71028892D01*
X110766575Y-71076511D01*
X110671337Y-71124130D01*
X110290384Y-71124130D01*
X111242765Y-70695559D02*
X111290384Y-70647940D01*
X111385622Y-70600320D01*
X111623718Y-70600320D01*
X111718956Y-70647940D01*
X111766575Y-70695559D01*
X111814194Y-70790797D01*
X111814194Y-70886035D01*
X111766575Y-71028892D01*
X111195146Y-71600320D01*
X111814194Y-71600320D01*
G04 #@! TO.C,R3*
X100261680Y-73219606D02*
X99785490Y-73552940D01*
X100261680Y-73791035D02*
X99261680Y-73791035D01*
X99261680Y-73410082D01*
X99309300Y-73314844D01*
X99356919Y-73267225D01*
X99452157Y-73219606D01*
X99595014Y-73219606D01*
X99690252Y-73267225D01*
X99737871Y-73314844D01*
X99785490Y-73410082D01*
X99785490Y-73791035D01*
X99261680Y-72886273D02*
X99261680Y-72267225D01*
X99642633Y-72600559D01*
X99642633Y-72457701D01*
X99690252Y-72362463D01*
X99737871Y-72314844D01*
X99833109Y-72267225D01*
X100071204Y-72267225D01*
X100166442Y-72314844D01*
X100214061Y-72362463D01*
X100261680Y-72457701D01*
X100261680Y-72743416D01*
X100214061Y-72838654D01*
X100166442Y-72886273D01*
G04 #@! TD*
M02*
