G04 #@! TF.GenerationSoftware,KiCad,Pcbnew,(5.0.1)-4*
G04 #@! TF.CreationDate,2019-11-27T10:31:27-06:00*
G04 #@! TF.ProjectId,photodiode,70686F746F64696F64652E6B69636164,rev?*
G04 #@! TF.SameCoordinates,Original*
G04 #@! TF.FileFunction,Paste,Top*
G04 #@! TF.FilePolarity,Positive*
%FSLAX46Y46*%
G04 Gerber Fmt 4.6, Leading zero omitted, Abs format (unit mm)*
G04 Created by KiCad (PCBNEW (5.0.1)-4) date 11/27/2019 10:31:27 AM*
%MOMM*%
%LPD*%
G01*
G04 APERTURE LIST*
%ADD10C,0.100000*%
%ADD11C,0.975000*%
G04 APERTURE END LIST*
D10*
G04 #@! TO.C,R1*
G36*
X107247122Y-68246934D02*
X107270783Y-68250444D01*
X107293987Y-68256256D01*
X107316509Y-68264314D01*
X107338133Y-68274542D01*
X107358650Y-68286839D01*
X107377863Y-68301089D01*
X107395587Y-68317153D01*
X107411651Y-68334877D01*
X107425901Y-68354090D01*
X107438198Y-68374607D01*
X107448426Y-68396231D01*
X107456484Y-68418753D01*
X107462296Y-68441957D01*
X107465806Y-68465618D01*
X107466980Y-68489510D01*
X107466980Y-69402010D01*
X107465806Y-69425902D01*
X107462296Y-69449563D01*
X107456484Y-69472767D01*
X107448426Y-69495289D01*
X107438198Y-69516913D01*
X107425901Y-69537430D01*
X107411651Y-69556643D01*
X107395587Y-69574367D01*
X107377863Y-69590431D01*
X107358650Y-69604681D01*
X107338133Y-69616978D01*
X107316509Y-69627206D01*
X107293987Y-69635264D01*
X107270783Y-69641076D01*
X107247122Y-69644586D01*
X107223230Y-69645760D01*
X106735730Y-69645760D01*
X106711838Y-69644586D01*
X106688177Y-69641076D01*
X106664973Y-69635264D01*
X106642451Y-69627206D01*
X106620827Y-69616978D01*
X106600310Y-69604681D01*
X106581097Y-69590431D01*
X106563373Y-69574367D01*
X106547309Y-69556643D01*
X106533059Y-69537430D01*
X106520762Y-69516913D01*
X106510534Y-69495289D01*
X106502476Y-69472767D01*
X106496664Y-69449563D01*
X106493154Y-69425902D01*
X106491980Y-69402010D01*
X106491980Y-68489510D01*
X106493154Y-68465618D01*
X106496664Y-68441957D01*
X106502476Y-68418753D01*
X106510534Y-68396231D01*
X106520762Y-68374607D01*
X106533059Y-68354090D01*
X106547309Y-68334877D01*
X106563373Y-68317153D01*
X106581097Y-68301089D01*
X106600310Y-68286839D01*
X106620827Y-68274542D01*
X106642451Y-68264314D01*
X106664973Y-68256256D01*
X106688177Y-68250444D01*
X106711838Y-68246934D01*
X106735730Y-68245760D01*
X107223230Y-68245760D01*
X107247122Y-68246934D01*
X107247122Y-68246934D01*
G37*
D11*
X106979480Y-68945760D03*
D10*
G36*
X109122122Y-68246934D02*
X109145783Y-68250444D01*
X109168987Y-68256256D01*
X109191509Y-68264314D01*
X109213133Y-68274542D01*
X109233650Y-68286839D01*
X109252863Y-68301089D01*
X109270587Y-68317153D01*
X109286651Y-68334877D01*
X109300901Y-68354090D01*
X109313198Y-68374607D01*
X109323426Y-68396231D01*
X109331484Y-68418753D01*
X109337296Y-68441957D01*
X109340806Y-68465618D01*
X109341980Y-68489510D01*
X109341980Y-69402010D01*
X109340806Y-69425902D01*
X109337296Y-69449563D01*
X109331484Y-69472767D01*
X109323426Y-69495289D01*
X109313198Y-69516913D01*
X109300901Y-69537430D01*
X109286651Y-69556643D01*
X109270587Y-69574367D01*
X109252863Y-69590431D01*
X109233650Y-69604681D01*
X109213133Y-69616978D01*
X109191509Y-69627206D01*
X109168987Y-69635264D01*
X109145783Y-69641076D01*
X109122122Y-69644586D01*
X109098230Y-69645760D01*
X108610730Y-69645760D01*
X108586838Y-69644586D01*
X108563177Y-69641076D01*
X108539973Y-69635264D01*
X108517451Y-69627206D01*
X108495827Y-69616978D01*
X108475310Y-69604681D01*
X108456097Y-69590431D01*
X108438373Y-69574367D01*
X108422309Y-69556643D01*
X108408059Y-69537430D01*
X108395762Y-69516913D01*
X108385534Y-69495289D01*
X108377476Y-69472767D01*
X108371664Y-69449563D01*
X108368154Y-69425902D01*
X108366980Y-69402010D01*
X108366980Y-68489510D01*
X108368154Y-68465618D01*
X108371664Y-68441957D01*
X108377476Y-68418753D01*
X108385534Y-68396231D01*
X108395762Y-68374607D01*
X108408059Y-68354090D01*
X108422309Y-68334877D01*
X108438373Y-68317153D01*
X108456097Y-68301089D01*
X108475310Y-68286839D01*
X108495827Y-68274542D01*
X108517451Y-68264314D01*
X108539973Y-68256256D01*
X108563177Y-68250444D01*
X108586838Y-68246934D01*
X108610730Y-68245760D01*
X109098230Y-68245760D01*
X109122122Y-68246934D01*
X109122122Y-68246934D01*
G37*
D11*
X108854480Y-68945760D03*
G04 #@! TD*
D10*
G04 #@! TO.C,R2*
G36*
X109122122Y-70604054D02*
X109145783Y-70607564D01*
X109168987Y-70613376D01*
X109191509Y-70621434D01*
X109213133Y-70631662D01*
X109233650Y-70643959D01*
X109252863Y-70658209D01*
X109270587Y-70674273D01*
X109286651Y-70691997D01*
X109300901Y-70711210D01*
X109313198Y-70731727D01*
X109323426Y-70753351D01*
X109331484Y-70775873D01*
X109337296Y-70799077D01*
X109340806Y-70822738D01*
X109341980Y-70846630D01*
X109341980Y-71759130D01*
X109340806Y-71783022D01*
X109337296Y-71806683D01*
X109331484Y-71829887D01*
X109323426Y-71852409D01*
X109313198Y-71874033D01*
X109300901Y-71894550D01*
X109286651Y-71913763D01*
X109270587Y-71931487D01*
X109252863Y-71947551D01*
X109233650Y-71961801D01*
X109213133Y-71974098D01*
X109191509Y-71984326D01*
X109168987Y-71992384D01*
X109145783Y-71998196D01*
X109122122Y-72001706D01*
X109098230Y-72002880D01*
X108610730Y-72002880D01*
X108586838Y-72001706D01*
X108563177Y-71998196D01*
X108539973Y-71992384D01*
X108517451Y-71984326D01*
X108495827Y-71974098D01*
X108475310Y-71961801D01*
X108456097Y-71947551D01*
X108438373Y-71931487D01*
X108422309Y-71913763D01*
X108408059Y-71894550D01*
X108395762Y-71874033D01*
X108385534Y-71852409D01*
X108377476Y-71829887D01*
X108371664Y-71806683D01*
X108368154Y-71783022D01*
X108366980Y-71759130D01*
X108366980Y-70846630D01*
X108368154Y-70822738D01*
X108371664Y-70799077D01*
X108377476Y-70775873D01*
X108385534Y-70753351D01*
X108395762Y-70731727D01*
X108408059Y-70711210D01*
X108422309Y-70691997D01*
X108438373Y-70674273D01*
X108456097Y-70658209D01*
X108475310Y-70643959D01*
X108495827Y-70631662D01*
X108517451Y-70621434D01*
X108539973Y-70613376D01*
X108563177Y-70607564D01*
X108586838Y-70604054D01*
X108610730Y-70602880D01*
X109098230Y-70602880D01*
X109122122Y-70604054D01*
X109122122Y-70604054D01*
G37*
D11*
X108854480Y-71302880D03*
D10*
G36*
X107247122Y-70604054D02*
X107270783Y-70607564D01*
X107293987Y-70613376D01*
X107316509Y-70621434D01*
X107338133Y-70631662D01*
X107358650Y-70643959D01*
X107377863Y-70658209D01*
X107395587Y-70674273D01*
X107411651Y-70691997D01*
X107425901Y-70711210D01*
X107438198Y-70731727D01*
X107448426Y-70753351D01*
X107456484Y-70775873D01*
X107462296Y-70799077D01*
X107465806Y-70822738D01*
X107466980Y-70846630D01*
X107466980Y-71759130D01*
X107465806Y-71783022D01*
X107462296Y-71806683D01*
X107456484Y-71829887D01*
X107448426Y-71852409D01*
X107438198Y-71874033D01*
X107425901Y-71894550D01*
X107411651Y-71913763D01*
X107395587Y-71931487D01*
X107377863Y-71947551D01*
X107358650Y-71961801D01*
X107338133Y-71974098D01*
X107316509Y-71984326D01*
X107293987Y-71992384D01*
X107270783Y-71998196D01*
X107247122Y-72001706D01*
X107223230Y-72002880D01*
X106735730Y-72002880D01*
X106711838Y-72001706D01*
X106688177Y-71998196D01*
X106664973Y-71992384D01*
X106642451Y-71984326D01*
X106620827Y-71974098D01*
X106600310Y-71961801D01*
X106581097Y-71947551D01*
X106563373Y-71931487D01*
X106547309Y-71913763D01*
X106533059Y-71894550D01*
X106520762Y-71874033D01*
X106510534Y-71852409D01*
X106502476Y-71829887D01*
X106496664Y-71806683D01*
X106493154Y-71783022D01*
X106491980Y-71759130D01*
X106491980Y-70846630D01*
X106493154Y-70822738D01*
X106496664Y-70799077D01*
X106502476Y-70775873D01*
X106510534Y-70753351D01*
X106520762Y-70731727D01*
X106533059Y-70711210D01*
X106547309Y-70691997D01*
X106563373Y-70674273D01*
X106581097Y-70658209D01*
X106600310Y-70643959D01*
X106620827Y-70631662D01*
X106642451Y-70621434D01*
X106664973Y-70613376D01*
X106688177Y-70607564D01*
X106711838Y-70604054D01*
X106735730Y-70602880D01*
X107223230Y-70602880D01*
X107247122Y-70604054D01*
X107247122Y-70604054D01*
G37*
D11*
X106979480Y-71302880D03*
G04 #@! TD*
D10*
G04 #@! TO.C,R3*
G36*
X101734702Y-71707854D02*
X101758363Y-71711364D01*
X101781567Y-71717176D01*
X101804089Y-71725234D01*
X101825713Y-71735462D01*
X101846230Y-71747759D01*
X101865443Y-71762009D01*
X101883167Y-71778073D01*
X101899231Y-71795797D01*
X101913481Y-71815010D01*
X101925778Y-71835527D01*
X101936006Y-71857151D01*
X101944064Y-71879673D01*
X101949876Y-71902877D01*
X101953386Y-71926538D01*
X101954560Y-71950430D01*
X101954560Y-72437930D01*
X101953386Y-72461822D01*
X101949876Y-72485483D01*
X101944064Y-72508687D01*
X101936006Y-72531209D01*
X101925778Y-72552833D01*
X101913481Y-72573350D01*
X101899231Y-72592563D01*
X101883167Y-72610287D01*
X101865443Y-72626351D01*
X101846230Y-72640601D01*
X101825713Y-72652898D01*
X101804089Y-72663126D01*
X101781567Y-72671184D01*
X101758363Y-72676996D01*
X101734702Y-72680506D01*
X101710810Y-72681680D01*
X100798310Y-72681680D01*
X100774418Y-72680506D01*
X100750757Y-72676996D01*
X100727553Y-72671184D01*
X100705031Y-72663126D01*
X100683407Y-72652898D01*
X100662890Y-72640601D01*
X100643677Y-72626351D01*
X100625953Y-72610287D01*
X100609889Y-72592563D01*
X100595639Y-72573350D01*
X100583342Y-72552833D01*
X100573114Y-72531209D01*
X100565056Y-72508687D01*
X100559244Y-72485483D01*
X100555734Y-72461822D01*
X100554560Y-72437930D01*
X100554560Y-71950430D01*
X100555734Y-71926538D01*
X100559244Y-71902877D01*
X100565056Y-71879673D01*
X100573114Y-71857151D01*
X100583342Y-71835527D01*
X100595639Y-71815010D01*
X100609889Y-71795797D01*
X100625953Y-71778073D01*
X100643677Y-71762009D01*
X100662890Y-71747759D01*
X100683407Y-71735462D01*
X100705031Y-71725234D01*
X100727553Y-71717176D01*
X100750757Y-71711364D01*
X100774418Y-71707854D01*
X100798310Y-71706680D01*
X101710810Y-71706680D01*
X101734702Y-71707854D01*
X101734702Y-71707854D01*
G37*
D11*
X101254560Y-72194180D03*
D10*
G36*
X101734702Y-73582854D02*
X101758363Y-73586364D01*
X101781567Y-73592176D01*
X101804089Y-73600234D01*
X101825713Y-73610462D01*
X101846230Y-73622759D01*
X101865443Y-73637009D01*
X101883167Y-73653073D01*
X101899231Y-73670797D01*
X101913481Y-73690010D01*
X101925778Y-73710527D01*
X101936006Y-73732151D01*
X101944064Y-73754673D01*
X101949876Y-73777877D01*
X101953386Y-73801538D01*
X101954560Y-73825430D01*
X101954560Y-74312930D01*
X101953386Y-74336822D01*
X101949876Y-74360483D01*
X101944064Y-74383687D01*
X101936006Y-74406209D01*
X101925778Y-74427833D01*
X101913481Y-74448350D01*
X101899231Y-74467563D01*
X101883167Y-74485287D01*
X101865443Y-74501351D01*
X101846230Y-74515601D01*
X101825713Y-74527898D01*
X101804089Y-74538126D01*
X101781567Y-74546184D01*
X101758363Y-74551996D01*
X101734702Y-74555506D01*
X101710810Y-74556680D01*
X100798310Y-74556680D01*
X100774418Y-74555506D01*
X100750757Y-74551996D01*
X100727553Y-74546184D01*
X100705031Y-74538126D01*
X100683407Y-74527898D01*
X100662890Y-74515601D01*
X100643677Y-74501351D01*
X100625953Y-74485287D01*
X100609889Y-74467563D01*
X100595639Y-74448350D01*
X100583342Y-74427833D01*
X100573114Y-74406209D01*
X100565056Y-74383687D01*
X100559244Y-74360483D01*
X100555734Y-74336822D01*
X100554560Y-74312930D01*
X100554560Y-73825430D01*
X100555734Y-73801538D01*
X100559244Y-73777877D01*
X100565056Y-73754673D01*
X100573114Y-73732151D01*
X100583342Y-73710527D01*
X100595639Y-73690010D01*
X100609889Y-73670797D01*
X100625953Y-73653073D01*
X100643677Y-73637009D01*
X100662890Y-73622759D01*
X100683407Y-73610462D01*
X100705031Y-73600234D01*
X100727553Y-73592176D01*
X100750757Y-73586364D01*
X100774418Y-73582854D01*
X100798310Y-73581680D01*
X101710810Y-73581680D01*
X101734702Y-73582854D01*
X101734702Y-73582854D01*
G37*
D11*
X101254560Y-74069180D03*
G04 #@! TD*
M02*
