%TF.GenerationSoftware,KiCad,Pcbnew,(5.0.1)-4*%
%TF.CreationDate,2019-11-11T16:38:18-05:00*%
%TF.ProjectId,new_synth_transistor,6E65775F73796E74685F7472616E7369,rev?*%
%TF.SameCoordinates,Original*%
%TF.FileFunction,Soldermask,Bot*%
%TF.FilePolarity,Negative*%
%FSLAX46Y46*%
G04 Gerber Fmt 4.6, Leading zero omitted, Abs format (unit mm)*
G04 Created by KiCad (PCBNEW (5.0.1)-4) date 11/11/2019 4:38:18 PM*
%MOMM*%
%LPD*%
G01*
G04 APERTURE LIST*
%ADD10C,0.100000*%
G04 APERTURE END LIST*
D10*
G36*
X214521440Y-101195798D02*
X214681601Y-101227656D01*
X214806584Y-101279426D01*
X214983336Y-101352639D01*
X215254896Y-101534090D01*
X215485830Y-101765024D01*
X215667281Y-102036584D01*
X215792264Y-102338320D01*
X215855980Y-102658640D01*
X215855980Y-102985240D01*
X215792264Y-103305560D01*
X215667281Y-103607296D01*
X215485830Y-103878856D01*
X215254896Y-104109790D01*
X214983336Y-104291241D01*
X214806584Y-104364454D01*
X214681601Y-104416224D01*
X214521440Y-104448082D01*
X214361280Y-104479940D01*
X214034680Y-104479940D01*
X213874520Y-104448082D01*
X213714359Y-104416224D01*
X213589376Y-104364454D01*
X213412624Y-104291241D01*
X213141064Y-104109790D01*
X212910130Y-103878856D01*
X212728679Y-103607296D01*
X212603696Y-103305560D01*
X212539980Y-102985240D01*
X212539980Y-102658640D01*
X212603696Y-102338320D01*
X212728679Y-102036584D01*
X212910130Y-101765024D01*
X213141064Y-101534090D01*
X213412624Y-101352639D01*
X213589376Y-101279426D01*
X213714359Y-101227656D01*
X213874520Y-101195798D01*
X214034680Y-101163940D01*
X214361280Y-101163940D01*
X214521440Y-101195798D01*
X214521440Y-101195798D01*
G37*
G36*
X154344630Y-97968299D02*
X154504855Y-98016903D01*
X154652520Y-98095831D01*
X154781949Y-98202051D01*
X154888169Y-98331480D01*
X154967097Y-98479145D01*
X155015701Y-98639370D01*
X155032112Y-98806000D01*
X155015701Y-98972630D01*
X154967097Y-99132855D01*
X154888169Y-99280520D01*
X154781949Y-99409949D01*
X154652520Y-99516169D01*
X154504855Y-99595097D01*
X154344630Y-99643701D01*
X154219752Y-99656000D01*
X154136248Y-99656000D01*
X154011370Y-99643701D01*
X153851145Y-99595097D01*
X153703480Y-99516169D01*
X153574051Y-99409949D01*
X153467831Y-99280520D01*
X153388903Y-99132855D01*
X153340299Y-98972630D01*
X153323888Y-98806000D01*
X153340299Y-98639370D01*
X153388903Y-98479145D01*
X153467831Y-98331480D01*
X153574051Y-98202051D01*
X153703480Y-98095831D01*
X153851145Y-98016903D01*
X154011370Y-97968299D01*
X154136248Y-97956000D01*
X154219752Y-97956000D01*
X154344630Y-97968299D01*
X154344630Y-97968299D01*
G37*
G36*
X151804630Y-97968299D02*
X151964855Y-98016903D01*
X152112520Y-98095831D01*
X152241949Y-98202051D01*
X152348169Y-98331480D01*
X152427097Y-98479145D01*
X152475701Y-98639370D01*
X152492112Y-98806000D01*
X152475701Y-98972630D01*
X152427097Y-99132855D01*
X152348169Y-99280520D01*
X152241949Y-99409949D01*
X152112520Y-99516169D01*
X151964855Y-99595097D01*
X151804630Y-99643701D01*
X151679752Y-99656000D01*
X151596248Y-99656000D01*
X151471370Y-99643701D01*
X151311145Y-99595097D01*
X151163480Y-99516169D01*
X151034051Y-99409949D01*
X150927831Y-99280520D01*
X150848903Y-99132855D01*
X150800299Y-98972630D01*
X150783888Y-98806000D01*
X150800299Y-98639370D01*
X150848903Y-98479145D01*
X150927831Y-98331480D01*
X151034051Y-98202051D01*
X151163480Y-98095831D01*
X151311145Y-98016903D01*
X151471370Y-97968299D01*
X151596248Y-97956000D01*
X151679752Y-97956000D01*
X151804630Y-97968299D01*
X151804630Y-97968299D01*
G37*
G36*
X149264630Y-97968299D02*
X149424855Y-98016903D01*
X149572520Y-98095831D01*
X149701949Y-98202051D01*
X149808169Y-98331480D01*
X149887097Y-98479145D01*
X149935701Y-98639370D01*
X149952112Y-98806000D01*
X149935701Y-98972630D01*
X149887097Y-99132855D01*
X149808169Y-99280520D01*
X149701949Y-99409949D01*
X149572520Y-99516169D01*
X149424855Y-99595097D01*
X149264630Y-99643701D01*
X149139752Y-99656000D01*
X149056248Y-99656000D01*
X148931370Y-99643701D01*
X148771145Y-99595097D01*
X148623480Y-99516169D01*
X148494051Y-99409949D01*
X148387831Y-99280520D01*
X148308903Y-99132855D01*
X148260299Y-98972630D01*
X148243888Y-98806000D01*
X148260299Y-98639370D01*
X148308903Y-98479145D01*
X148387831Y-98331480D01*
X148494051Y-98202051D01*
X148623480Y-98095831D01*
X148771145Y-98016903D01*
X148931370Y-97968299D01*
X149056248Y-97956000D01*
X149139752Y-97956000D01*
X149264630Y-97968299D01*
X149264630Y-97968299D01*
G37*
G36*
X146724630Y-97968299D02*
X146884855Y-98016903D01*
X147032520Y-98095831D01*
X147161949Y-98202051D01*
X147268169Y-98331480D01*
X147347097Y-98479145D01*
X147395701Y-98639370D01*
X147412112Y-98806000D01*
X147395701Y-98972630D01*
X147347097Y-99132855D01*
X147268169Y-99280520D01*
X147161949Y-99409949D01*
X147032520Y-99516169D01*
X146884855Y-99595097D01*
X146724630Y-99643701D01*
X146599752Y-99656000D01*
X146516248Y-99656000D01*
X146391370Y-99643701D01*
X146231145Y-99595097D01*
X146083480Y-99516169D01*
X145954051Y-99409949D01*
X145847831Y-99280520D01*
X145768903Y-99132855D01*
X145720299Y-98972630D01*
X145703888Y-98806000D01*
X145720299Y-98639370D01*
X145768903Y-98479145D01*
X145847831Y-98331480D01*
X145954051Y-98202051D01*
X146083480Y-98095831D01*
X146231145Y-98016903D01*
X146391370Y-97968299D01*
X146516248Y-97956000D01*
X146599752Y-97956000D01*
X146724630Y-97968299D01*
X146724630Y-97968299D01*
G37*
G36*
X144184630Y-97968299D02*
X144344855Y-98016903D01*
X144492520Y-98095831D01*
X144621949Y-98202051D01*
X144728169Y-98331480D01*
X144807097Y-98479145D01*
X144855701Y-98639370D01*
X144872112Y-98806000D01*
X144855701Y-98972630D01*
X144807097Y-99132855D01*
X144728169Y-99280520D01*
X144621949Y-99409949D01*
X144492520Y-99516169D01*
X144344855Y-99595097D01*
X144184630Y-99643701D01*
X144059752Y-99656000D01*
X143976248Y-99656000D01*
X143851370Y-99643701D01*
X143691145Y-99595097D01*
X143543480Y-99516169D01*
X143414051Y-99409949D01*
X143307831Y-99280520D01*
X143228903Y-99132855D01*
X143180299Y-98972630D01*
X143163888Y-98806000D01*
X143180299Y-98639370D01*
X143228903Y-98479145D01*
X143307831Y-98331480D01*
X143414051Y-98202051D01*
X143543480Y-98095831D01*
X143691145Y-98016903D01*
X143851370Y-97968299D01*
X143976248Y-97956000D01*
X144059752Y-97956000D01*
X144184630Y-97968299D01*
X144184630Y-97968299D01*
G37*
G36*
X141644630Y-97968299D02*
X141804855Y-98016903D01*
X141952520Y-98095831D01*
X142081949Y-98202051D01*
X142188169Y-98331480D01*
X142267097Y-98479145D01*
X142315701Y-98639370D01*
X142332112Y-98806000D01*
X142315701Y-98972630D01*
X142267097Y-99132855D01*
X142188169Y-99280520D01*
X142081949Y-99409949D01*
X141952520Y-99516169D01*
X141804855Y-99595097D01*
X141644630Y-99643701D01*
X141519752Y-99656000D01*
X141436248Y-99656000D01*
X141311370Y-99643701D01*
X141151145Y-99595097D01*
X141003480Y-99516169D01*
X140874051Y-99409949D01*
X140767831Y-99280520D01*
X140688903Y-99132855D01*
X140640299Y-98972630D01*
X140623888Y-98806000D01*
X140640299Y-98639370D01*
X140688903Y-98479145D01*
X140767831Y-98331480D01*
X140874051Y-98202051D01*
X141003480Y-98095831D01*
X141151145Y-98016903D01*
X141311370Y-97968299D01*
X141436248Y-97956000D01*
X141519752Y-97956000D01*
X141644630Y-97968299D01*
X141644630Y-97968299D01*
G37*
G36*
X139788000Y-99656000D02*
X138088000Y-99656000D01*
X138088000Y-97956000D01*
X139788000Y-97956000D01*
X139788000Y-99656000D01*
X139788000Y-99656000D01*
G37*
G36*
X202795130Y-97363779D02*
X202955355Y-97412383D01*
X203103020Y-97491311D01*
X203232449Y-97597531D01*
X203338669Y-97726960D01*
X203417597Y-97874625D01*
X203466201Y-98034850D01*
X203482612Y-98201480D01*
X203466201Y-98368110D01*
X203417597Y-98528335D01*
X203338669Y-98676000D01*
X203232449Y-98805429D01*
X203103020Y-98911649D01*
X202955355Y-98990577D01*
X202795130Y-99039181D01*
X202670252Y-99051480D01*
X202586748Y-99051480D01*
X202461870Y-99039181D01*
X202301645Y-98990577D01*
X202153980Y-98911649D01*
X202024551Y-98805429D01*
X201918331Y-98676000D01*
X201839403Y-98528335D01*
X201790799Y-98368110D01*
X201774388Y-98201480D01*
X201790799Y-98034850D01*
X201839403Y-97874625D01*
X201918331Y-97726960D01*
X202024551Y-97597531D01*
X202153980Y-97491311D01*
X202301645Y-97412383D01*
X202461870Y-97363779D01*
X202586748Y-97351480D01*
X202670252Y-97351480D01*
X202795130Y-97363779D01*
X202795130Y-97363779D01*
G37*
G36*
X209696246Y-97325378D02*
X209826183Y-97379199D01*
X209943133Y-97457343D01*
X210042577Y-97556787D01*
X210042579Y-97556790D01*
X210042580Y-97556791D01*
X210069802Y-97597532D01*
X210120721Y-97673737D01*
X210174542Y-97803674D01*
X210201980Y-97941616D01*
X210201980Y-98082264D01*
X210174542Y-98220206D01*
X210120721Y-98350143D01*
X210042577Y-98467093D01*
X209943133Y-98566537D01*
X209826183Y-98644681D01*
X209696246Y-98698502D01*
X209558304Y-98725940D01*
X209417656Y-98725940D01*
X209279714Y-98698502D01*
X209149777Y-98644681D01*
X209032827Y-98566537D01*
X208933383Y-98467093D01*
X208855239Y-98350143D01*
X208801418Y-98220206D01*
X208773980Y-98082264D01*
X208773980Y-97941616D01*
X208801418Y-97803674D01*
X208855239Y-97673737D01*
X208906158Y-97597532D01*
X208933380Y-97556791D01*
X208933381Y-97556790D01*
X208933383Y-97556787D01*
X209032827Y-97457343D01*
X209149777Y-97379199D01*
X209279714Y-97325378D01*
X209417656Y-97297940D01*
X209558304Y-97297940D01*
X209696246Y-97325378D01*
X209696246Y-97325378D01*
G37*
G36*
X211696246Y-97325378D02*
X211826183Y-97379199D01*
X211943133Y-97457343D01*
X212042577Y-97556787D01*
X212042579Y-97556790D01*
X212042580Y-97556791D01*
X212069802Y-97597532D01*
X212120721Y-97673737D01*
X212174542Y-97803674D01*
X212201980Y-97941616D01*
X212201980Y-98082264D01*
X212174542Y-98220206D01*
X212120721Y-98350143D01*
X212042577Y-98467093D01*
X211943133Y-98566537D01*
X211826183Y-98644681D01*
X211696246Y-98698502D01*
X211558304Y-98725940D01*
X211417656Y-98725940D01*
X211279714Y-98698502D01*
X211149777Y-98644681D01*
X211032827Y-98566537D01*
X210933383Y-98467093D01*
X210855239Y-98350143D01*
X210801418Y-98220206D01*
X210773980Y-98082264D01*
X210773980Y-97941616D01*
X210801418Y-97803674D01*
X210855239Y-97673737D01*
X210906158Y-97597532D01*
X210933380Y-97556791D01*
X210933381Y-97556790D01*
X210933383Y-97556787D01*
X211032827Y-97457343D01*
X211149777Y-97379199D01*
X211279714Y-97325378D01*
X211417656Y-97297940D01*
X211558304Y-97297940D01*
X211696246Y-97325378D01*
X211696246Y-97325378D01*
G37*
G36*
X203478500Y-96511480D02*
X201778500Y-96511480D01*
X201778500Y-94811480D01*
X203478500Y-94811480D01*
X203478500Y-96511480D01*
X203478500Y-96511480D01*
G37*
G36*
X210201980Y-96225940D02*
X208773980Y-96225940D01*
X208773980Y-94797940D01*
X210201980Y-94797940D01*
X210201980Y-96225940D01*
X210201980Y-96225940D01*
G37*
G36*
X211696246Y-94825378D02*
X211826183Y-94879199D01*
X211943133Y-94957343D01*
X212042577Y-95056787D01*
X212120721Y-95173737D01*
X212174542Y-95303674D01*
X212201980Y-95441616D01*
X212201980Y-95582264D01*
X212174542Y-95720206D01*
X212120721Y-95850143D01*
X212042577Y-95967093D01*
X211943133Y-96066537D01*
X211826183Y-96144681D01*
X211696246Y-96198502D01*
X211558304Y-96225940D01*
X211417656Y-96225940D01*
X211279714Y-96198502D01*
X211149777Y-96144681D01*
X211032827Y-96066537D01*
X210933383Y-95967093D01*
X210855239Y-95850143D01*
X210801418Y-95720206D01*
X210773980Y-95582264D01*
X210773980Y-95441616D01*
X210801418Y-95303674D01*
X210855239Y-95173737D01*
X210933383Y-95056787D01*
X211032827Y-94957343D01*
X211149777Y-94879199D01*
X211279714Y-94825378D01*
X211417656Y-94797940D01*
X211558304Y-94797940D01*
X211696246Y-94825378D01*
X211696246Y-94825378D01*
G37*
G36*
X214521440Y-89155798D02*
X214681601Y-89187656D01*
X214806584Y-89239426D01*
X214983336Y-89312639D01*
X215254896Y-89494090D01*
X215485830Y-89725024D01*
X215667281Y-89996584D01*
X215792264Y-90298320D01*
X215855980Y-90618640D01*
X215855980Y-90945240D01*
X215792264Y-91265560D01*
X215667281Y-91567296D01*
X215485830Y-91838856D01*
X215254896Y-92069790D01*
X214983336Y-92251241D01*
X214806584Y-92324454D01*
X214681601Y-92376224D01*
X214521440Y-92408082D01*
X214361280Y-92439940D01*
X214034680Y-92439940D01*
X213874520Y-92408082D01*
X213714359Y-92376224D01*
X213589376Y-92324454D01*
X213412624Y-92251241D01*
X213141064Y-92069790D01*
X212910130Y-91838856D01*
X212728679Y-91567296D01*
X212603696Y-91265560D01*
X212539980Y-90945240D01*
X212539980Y-90618640D01*
X212603696Y-90298320D01*
X212728679Y-89996584D01*
X212910130Y-89725024D01*
X213141064Y-89494090D01*
X213412624Y-89312639D01*
X213589376Y-89239426D01*
X213714359Y-89187656D01*
X213874520Y-89155798D01*
X214034680Y-89123940D01*
X214361280Y-89123940D01*
X214521440Y-89155798D01*
X214521440Y-89155798D01*
G37*
G36*
X203186400Y-86702000D02*
X201486400Y-86702000D01*
X201486400Y-85002000D01*
X203186400Y-85002000D01*
X203186400Y-86702000D01*
X203186400Y-86702000D01*
G37*
G36*
X207583030Y-85014299D02*
X207743255Y-85062903D01*
X207890920Y-85141831D01*
X208020349Y-85248051D01*
X208126569Y-85377480D01*
X208205497Y-85525145D01*
X208254101Y-85685370D01*
X208270512Y-85852000D01*
X208254101Y-86018630D01*
X208205497Y-86178855D01*
X208126569Y-86326520D01*
X208020349Y-86455949D01*
X207890920Y-86562169D01*
X207743255Y-86641097D01*
X207583030Y-86689701D01*
X207458152Y-86702000D01*
X207374648Y-86702000D01*
X207249770Y-86689701D01*
X207089545Y-86641097D01*
X206941880Y-86562169D01*
X206812451Y-86455949D01*
X206706231Y-86326520D01*
X206627303Y-86178855D01*
X206578699Y-86018630D01*
X206562288Y-85852000D01*
X206578699Y-85685370D01*
X206627303Y-85525145D01*
X206706231Y-85377480D01*
X206812451Y-85248051D01*
X206941880Y-85141831D01*
X207089545Y-85062903D01*
X207249770Y-85014299D01*
X207374648Y-85002000D01*
X207458152Y-85002000D01*
X207583030Y-85014299D01*
X207583030Y-85014299D01*
G37*
G36*
X210123030Y-85014299D02*
X210283255Y-85062903D01*
X210430920Y-85141831D01*
X210560349Y-85248051D01*
X210666569Y-85377480D01*
X210745497Y-85525145D01*
X210794101Y-85685370D01*
X210810512Y-85852000D01*
X210794101Y-86018630D01*
X210745497Y-86178855D01*
X210666569Y-86326520D01*
X210560349Y-86455949D01*
X210430920Y-86562169D01*
X210283255Y-86641097D01*
X210123030Y-86689701D01*
X209998152Y-86702000D01*
X209914648Y-86702000D01*
X209789770Y-86689701D01*
X209629545Y-86641097D01*
X209481880Y-86562169D01*
X209352451Y-86455949D01*
X209246231Y-86326520D01*
X209167303Y-86178855D01*
X209118699Y-86018630D01*
X209102288Y-85852000D01*
X209118699Y-85685370D01*
X209167303Y-85525145D01*
X209246231Y-85377480D01*
X209352451Y-85248051D01*
X209481880Y-85141831D01*
X209629545Y-85062903D01*
X209789770Y-85014299D01*
X209914648Y-85002000D01*
X209998152Y-85002000D01*
X210123030Y-85014299D01*
X210123030Y-85014299D01*
G37*
G36*
X215203030Y-85014299D02*
X215363255Y-85062903D01*
X215510920Y-85141831D01*
X215640349Y-85248051D01*
X215746569Y-85377480D01*
X215825497Y-85525145D01*
X215874101Y-85685370D01*
X215890512Y-85852000D01*
X215874101Y-86018630D01*
X215825497Y-86178855D01*
X215746569Y-86326520D01*
X215640349Y-86455949D01*
X215510920Y-86562169D01*
X215363255Y-86641097D01*
X215203030Y-86689701D01*
X215078152Y-86702000D01*
X214994648Y-86702000D01*
X214869770Y-86689701D01*
X214709545Y-86641097D01*
X214561880Y-86562169D01*
X214432451Y-86455949D01*
X214326231Y-86326520D01*
X214247303Y-86178855D01*
X214198699Y-86018630D01*
X214182288Y-85852000D01*
X214198699Y-85685370D01*
X214247303Y-85525145D01*
X214326231Y-85377480D01*
X214432451Y-85248051D01*
X214561880Y-85141831D01*
X214709545Y-85062903D01*
X214869770Y-85014299D01*
X214994648Y-85002000D01*
X215078152Y-85002000D01*
X215203030Y-85014299D01*
X215203030Y-85014299D01*
G37*
G36*
X217743030Y-85014299D02*
X217903255Y-85062903D01*
X218050920Y-85141831D01*
X218180349Y-85248051D01*
X218286569Y-85377480D01*
X218365497Y-85525145D01*
X218414101Y-85685370D01*
X218430512Y-85852000D01*
X218414101Y-86018630D01*
X218365497Y-86178855D01*
X218286569Y-86326520D01*
X218180349Y-86455949D01*
X218050920Y-86562169D01*
X217903255Y-86641097D01*
X217743030Y-86689701D01*
X217618152Y-86702000D01*
X217534648Y-86702000D01*
X217409770Y-86689701D01*
X217249545Y-86641097D01*
X217101880Y-86562169D01*
X216972451Y-86455949D01*
X216866231Y-86326520D01*
X216787303Y-86178855D01*
X216738699Y-86018630D01*
X216722288Y-85852000D01*
X216738699Y-85685370D01*
X216787303Y-85525145D01*
X216866231Y-85377480D01*
X216972451Y-85248051D01*
X217101880Y-85141831D01*
X217249545Y-85062903D01*
X217409770Y-85014299D01*
X217534648Y-85002000D01*
X217618152Y-85002000D01*
X217743030Y-85014299D01*
X217743030Y-85014299D01*
G37*
G36*
X205043030Y-85014299D02*
X205203255Y-85062903D01*
X205350920Y-85141831D01*
X205480349Y-85248051D01*
X205586569Y-85377480D01*
X205665497Y-85525145D01*
X205714101Y-85685370D01*
X205730512Y-85852000D01*
X205714101Y-86018630D01*
X205665497Y-86178855D01*
X205586569Y-86326520D01*
X205480349Y-86455949D01*
X205350920Y-86562169D01*
X205203255Y-86641097D01*
X205043030Y-86689701D01*
X204918152Y-86702000D01*
X204834648Y-86702000D01*
X204709770Y-86689701D01*
X204549545Y-86641097D01*
X204401880Y-86562169D01*
X204272451Y-86455949D01*
X204166231Y-86326520D01*
X204087303Y-86178855D01*
X204038699Y-86018630D01*
X204022288Y-85852000D01*
X204038699Y-85685370D01*
X204087303Y-85525145D01*
X204166231Y-85377480D01*
X204272451Y-85248051D01*
X204401880Y-85141831D01*
X204549545Y-85062903D01*
X204709770Y-85014299D01*
X204834648Y-85002000D01*
X204918152Y-85002000D01*
X205043030Y-85014299D01*
X205043030Y-85014299D01*
G37*
G36*
X212663030Y-85014299D02*
X212823255Y-85062903D01*
X212970920Y-85141831D01*
X213100349Y-85248051D01*
X213206569Y-85377480D01*
X213285497Y-85525145D01*
X213334101Y-85685370D01*
X213350512Y-85852000D01*
X213334101Y-86018630D01*
X213285497Y-86178855D01*
X213206569Y-86326520D01*
X213100349Y-86455949D01*
X212970920Y-86562169D01*
X212823255Y-86641097D01*
X212663030Y-86689701D01*
X212538152Y-86702000D01*
X212454648Y-86702000D01*
X212329770Y-86689701D01*
X212169545Y-86641097D01*
X212021880Y-86562169D01*
X211892451Y-86455949D01*
X211786231Y-86326520D01*
X211707303Y-86178855D01*
X211658699Y-86018630D01*
X211642288Y-85852000D01*
X211658699Y-85685370D01*
X211707303Y-85525145D01*
X211786231Y-85377480D01*
X211892451Y-85248051D01*
X212021880Y-85141831D01*
X212169545Y-85062903D01*
X212329770Y-85014299D01*
X212454648Y-85002000D01*
X212538152Y-85002000D01*
X212663030Y-85014299D01*
X212663030Y-85014299D01*
G37*
G36*
X132726800Y-76643600D02*
X131026800Y-76643600D01*
X131026800Y-74943600D01*
X132726800Y-74943600D01*
X132726800Y-76643600D01*
X132726800Y-76643600D01*
G37*
G36*
X132043430Y-72415899D02*
X132203655Y-72464503D01*
X132351320Y-72543431D01*
X132480749Y-72649651D01*
X132586969Y-72779080D01*
X132665897Y-72926745D01*
X132714501Y-73086970D01*
X132730912Y-73253600D01*
X132714501Y-73420230D01*
X132665897Y-73580455D01*
X132586969Y-73728120D01*
X132480749Y-73857549D01*
X132351320Y-73963769D01*
X132203655Y-74042697D01*
X132043430Y-74091301D01*
X131918552Y-74103600D01*
X131835048Y-74103600D01*
X131710170Y-74091301D01*
X131549945Y-74042697D01*
X131402280Y-73963769D01*
X131272851Y-73857549D01*
X131166631Y-73728120D01*
X131087703Y-73580455D01*
X131039099Y-73420230D01*
X131022688Y-73253600D01*
X131039099Y-73086970D01*
X131087703Y-72926745D01*
X131166631Y-72779080D01*
X131272851Y-72649651D01*
X131402280Y-72543431D01*
X131549945Y-72464503D01*
X131710170Y-72415899D01*
X131835048Y-72403600D01*
X131918552Y-72403600D01*
X132043430Y-72415899D01*
X132043430Y-72415899D01*
G37*
G36*
X132043430Y-69875899D02*
X132203655Y-69924503D01*
X132351320Y-70003431D01*
X132480749Y-70109651D01*
X132586969Y-70239080D01*
X132665897Y-70386745D01*
X132714501Y-70546970D01*
X132730912Y-70713600D01*
X132714501Y-70880230D01*
X132665897Y-71040455D01*
X132586969Y-71188120D01*
X132480749Y-71317549D01*
X132351320Y-71423769D01*
X132203655Y-71502697D01*
X132043430Y-71551301D01*
X131918552Y-71563600D01*
X131835048Y-71563600D01*
X131710170Y-71551301D01*
X131549945Y-71502697D01*
X131402280Y-71423769D01*
X131272851Y-71317549D01*
X131166631Y-71188120D01*
X131087703Y-71040455D01*
X131039099Y-70880230D01*
X131022688Y-70713600D01*
X131039099Y-70546970D01*
X131087703Y-70386745D01*
X131166631Y-70239080D01*
X131272851Y-70109651D01*
X131402280Y-70003431D01*
X131549945Y-69924503D01*
X131710170Y-69875899D01*
X131835048Y-69863600D01*
X131918552Y-69863600D01*
X132043430Y-69875899D01*
X132043430Y-69875899D01*
G37*
G36*
X132043430Y-67335899D02*
X132203655Y-67384503D01*
X132351320Y-67463431D01*
X132480749Y-67569651D01*
X132586969Y-67699080D01*
X132665897Y-67846745D01*
X132714501Y-68006970D01*
X132730912Y-68173600D01*
X132714501Y-68340230D01*
X132665897Y-68500455D01*
X132586969Y-68648120D01*
X132480749Y-68777549D01*
X132351320Y-68883769D01*
X132203655Y-68962697D01*
X132043430Y-69011301D01*
X131918552Y-69023600D01*
X131835048Y-69023600D01*
X131710170Y-69011301D01*
X131549945Y-68962697D01*
X131402280Y-68883769D01*
X131272851Y-68777549D01*
X131166631Y-68648120D01*
X131087703Y-68500455D01*
X131039099Y-68340230D01*
X131022688Y-68173600D01*
X131039099Y-68006970D01*
X131087703Y-67846745D01*
X131166631Y-67699080D01*
X131272851Y-67569651D01*
X131402280Y-67463431D01*
X131549945Y-67384503D01*
X131710170Y-67335899D01*
X131835048Y-67323600D01*
X131918552Y-67323600D01*
X132043430Y-67335899D01*
X132043430Y-67335899D01*
G37*
G36*
X132043430Y-64795899D02*
X132203655Y-64844503D01*
X132351320Y-64923431D01*
X132480749Y-65029651D01*
X132586969Y-65159080D01*
X132665897Y-65306745D01*
X132714501Y-65466970D01*
X132730912Y-65633600D01*
X132714501Y-65800230D01*
X132665897Y-65960455D01*
X132586969Y-66108120D01*
X132480749Y-66237549D01*
X132351320Y-66343769D01*
X132203655Y-66422697D01*
X132043430Y-66471301D01*
X131918552Y-66483600D01*
X131835048Y-66483600D01*
X131710170Y-66471301D01*
X131549945Y-66422697D01*
X131402280Y-66343769D01*
X131272851Y-66237549D01*
X131166631Y-66108120D01*
X131087703Y-65960455D01*
X131039099Y-65800230D01*
X131022688Y-65633600D01*
X131039099Y-65466970D01*
X131087703Y-65306745D01*
X131166631Y-65159080D01*
X131272851Y-65029651D01*
X131402280Y-64923431D01*
X131549945Y-64844503D01*
X131710170Y-64795899D01*
X131835048Y-64783600D01*
X131918552Y-64783600D01*
X132043430Y-64795899D01*
X132043430Y-64795899D01*
G37*
G36*
X132043430Y-62255899D02*
X132203655Y-62304503D01*
X132351320Y-62383431D01*
X132480749Y-62489651D01*
X132586969Y-62619080D01*
X132665897Y-62766745D01*
X132714501Y-62926970D01*
X132730912Y-63093600D01*
X132714501Y-63260230D01*
X132665897Y-63420455D01*
X132586969Y-63568120D01*
X132480749Y-63697549D01*
X132351320Y-63803769D01*
X132203655Y-63882697D01*
X132043430Y-63931301D01*
X131918552Y-63943600D01*
X131835048Y-63943600D01*
X131710170Y-63931301D01*
X131549945Y-63882697D01*
X131402280Y-63803769D01*
X131272851Y-63697549D01*
X131166631Y-63568120D01*
X131087703Y-63420455D01*
X131039099Y-63260230D01*
X131022688Y-63093600D01*
X131039099Y-62926970D01*
X131087703Y-62766745D01*
X131166631Y-62619080D01*
X131272851Y-62489651D01*
X131402280Y-62383431D01*
X131549945Y-62304503D01*
X131710170Y-62255899D01*
X131835048Y-62243600D01*
X131918552Y-62243600D01*
X132043430Y-62255899D01*
X132043430Y-62255899D01*
G37*
G36*
X123191060Y-58893058D02*
X123351221Y-58924916D01*
X123476204Y-58976686D01*
X123652956Y-59049899D01*
X123924516Y-59231350D01*
X124155450Y-59462284D01*
X124336901Y-59733844D01*
X124349600Y-59764503D01*
X124461884Y-60035579D01*
X124525600Y-60355901D01*
X124525600Y-60682499D01*
X124461884Y-61002821D01*
X124410114Y-61127804D01*
X124336901Y-61304556D01*
X124155450Y-61576116D01*
X123924516Y-61807050D01*
X123652956Y-61988501D01*
X123476204Y-62061714D01*
X123351221Y-62113484D01*
X123191060Y-62145342D01*
X123030900Y-62177200D01*
X122704300Y-62177200D01*
X122544140Y-62145342D01*
X122383979Y-62113484D01*
X122258996Y-62061714D01*
X122082244Y-61988501D01*
X121810684Y-61807050D01*
X121579750Y-61576116D01*
X121398299Y-61304556D01*
X121325086Y-61127804D01*
X121273316Y-61002821D01*
X121209600Y-60682499D01*
X121209600Y-60355901D01*
X121273316Y-60035579D01*
X121385600Y-59764503D01*
X121398299Y-59733844D01*
X121579750Y-59462284D01*
X121810684Y-59231350D01*
X122082244Y-59049899D01*
X122258996Y-58976686D01*
X122383979Y-58924916D01*
X122544140Y-58893058D01*
X122704300Y-58861200D01*
X123030900Y-58861200D01*
X123191060Y-58893058D01*
X123191060Y-58893058D01*
G37*
G36*
X132043430Y-59715899D02*
X132203655Y-59764503D01*
X132351320Y-59843431D01*
X132480749Y-59949651D01*
X132586969Y-60079080D01*
X132665897Y-60226745D01*
X132714501Y-60386970D01*
X132730912Y-60553600D01*
X132714501Y-60720230D01*
X132665897Y-60880455D01*
X132586969Y-61028120D01*
X132480749Y-61157549D01*
X132351320Y-61263769D01*
X132203655Y-61342697D01*
X132043430Y-61391301D01*
X131918552Y-61403600D01*
X131835048Y-61403600D01*
X131710170Y-61391301D01*
X131549945Y-61342697D01*
X131402280Y-61263769D01*
X131272851Y-61157549D01*
X131166631Y-61028120D01*
X131087703Y-60880455D01*
X131039099Y-60720230D01*
X131022688Y-60553600D01*
X131039099Y-60386970D01*
X131087703Y-60226745D01*
X131166631Y-60079080D01*
X131272851Y-59949651D01*
X131402280Y-59843431D01*
X131549945Y-59764503D01*
X131710170Y-59715899D01*
X131835048Y-59703600D01*
X131918552Y-59703600D01*
X132043430Y-59715899D01*
X132043430Y-59715899D01*
G37*
G36*
X128291600Y-56503200D02*
X126863600Y-56503200D01*
X126863600Y-55075200D01*
X128291600Y-55075200D01*
X128291600Y-56503200D01*
X128291600Y-56503200D01*
G37*
G36*
X125785866Y-55102638D02*
X125915803Y-55156459D01*
X126032753Y-55234603D01*
X126132197Y-55334047D01*
X126210341Y-55450997D01*
X126264162Y-55580934D01*
X126291600Y-55718876D01*
X126291600Y-55859524D01*
X126264162Y-55997466D01*
X126210341Y-56127403D01*
X126132197Y-56244353D01*
X126032753Y-56343797D01*
X125915803Y-56421941D01*
X125785866Y-56475762D01*
X125647924Y-56503200D01*
X125507276Y-56503200D01*
X125369334Y-56475762D01*
X125239397Y-56421941D01*
X125122447Y-56343797D01*
X125023003Y-56244353D01*
X124944859Y-56127403D01*
X124891038Y-55997466D01*
X124863600Y-55859524D01*
X124863600Y-55718876D01*
X124891038Y-55580934D01*
X124944859Y-55450997D01*
X125023003Y-55334047D01*
X125122447Y-55234603D01*
X125239397Y-55156459D01*
X125369334Y-55102638D01*
X125507276Y-55075200D01*
X125647924Y-55075200D01*
X125785866Y-55102638D01*
X125785866Y-55102638D01*
G37*
G36*
X127785866Y-52602638D02*
X127915803Y-52656459D01*
X127915806Y-52656461D01*
X127971733Y-52693830D01*
X128032753Y-52734603D01*
X128132197Y-52834047D01*
X128210341Y-52950997D01*
X128264162Y-53080934D01*
X128291600Y-53218876D01*
X128291600Y-53359524D01*
X128264162Y-53497466D01*
X128210341Y-53627403D01*
X128132197Y-53744353D01*
X128032753Y-53843797D01*
X127915803Y-53921941D01*
X127785866Y-53975762D01*
X127647924Y-54003200D01*
X127507276Y-54003200D01*
X127369334Y-53975762D01*
X127239397Y-53921941D01*
X127122447Y-53843797D01*
X127023003Y-53744353D01*
X126944859Y-53627403D01*
X126891038Y-53497466D01*
X126863600Y-53359524D01*
X126863600Y-53218876D01*
X126891038Y-53080934D01*
X126944859Y-52950997D01*
X127023003Y-52834047D01*
X127122447Y-52734603D01*
X127183468Y-52693830D01*
X127239394Y-52656461D01*
X127239397Y-52656459D01*
X127369334Y-52602638D01*
X127507276Y-52575200D01*
X127647924Y-52575200D01*
X127785866Y-52602638D01*
X127785866Y-52602638D01*
G37*
G36*
X125785866Y-52602638D02*
X125915803Y-52656459D01*
X125915806Y-52656461D01*
X125971733Y-52693830D01*
X126032753Y-52734603D01*
X126132197Y-52834047D01*
X126210341Y-52950997D01*
X126264162Y-53080934D01*
X126291600Y-53218876D01*
X126291600Y-53359524D01*
X126264162Y-53497466D01*
X126210341Y-53627403D01*
X126132197Y-53744353D01*
X126032753Y-53843797D01*
X125915803Y-53921941D01*
X125785866Y-53975762D01*
X125647924Y-54003200D01*
X125507276Y-54003200D01*
X125369334Y-53975762D01*
X125239397Y-53921941D01*
X125122447Y-53843797D01*
X125023003Y-53744353D01*
X124944859Y-53627403D01*
X124891038Y-53497466D01*
X124863600Y-53359524D01*
X124863600Y-53218876D01*
X124891038Y-53080934D01*
X124944859Y-52950997D01*
X125023003Y-52834047D01*
X125122447Y-52734603D01*
X125183468Y-52693830D01*
X125239394Y-52656461D01*
X125239397Y-52656459D01*
X125369334Y-52602638D01*
X125507276Y-52575200D01*
X125647924Y-52575200D01*
X125785866Y-52602638D01*
X125785866Y-52602638D01*
G37*
G36*
X156833830Y-51689499D02*
X156994055Y-51738103D01*
X157141720Y-51817031D01*
X157271149Y-51923251D01*
X157377369Y-52052680D01*
X157456297Y-52200345D01*
X157504901Y-52360570D01*
X157521312Y-52527200D01*
X157504901Y-52693830D01*
X157456297Y-52854055D01*
X157377369Y-53001720D01*
X157271149Y-53131149D01*
X157141720Y-53237369D01*
X156994055Y-53316297D01*
X156833830Y-53364901D01*
X156708952Y-53377200D01*
X156625448Y-53377200D01*
X156500570Y-53364901D01*
X156340345Y-53316297D01*
X156192680Y-53237369D01*
X156063251Y-53131149D01*
X155957031Y-53001720D01*
X155878103Y-52854055D01*
X155829499Y-52693830D01*
X155813088Y-52527200D01*
X155829499Y-52360570D01*
X155878103Y-52200345D01*
X155957031Y-52052680D01*
X156063251Y-51923251D01*
X156192680Y-51817031D01*
X156340345Y-51738103D01*
X156500570Y-51689499D01*
X156625448Y-51677200D01*
X156708952Y-51677200D01*
X156833830Y-51689499D01*
X156833830Y-51689499D01*
G37*
G36*
X154977200Y-53377200D02*
X153277200Y-53377200D01*
X153277200Y-51677200D01*
X154977200Y-51677200D01*
X154977200Y-53377200D01*
X154977200Y-53377200D01*
G37*
G36*
X159373830Y-51689499D02*
X159534055Y-51738103D01*
X159681720Y-51817031D01*
X159811149Y-51923251D01*
X159917369Y-52052680D01*
X159996297Y-52200345D01*
X160044901Y-52360570D01*
X160061312Y-52527200D01*
X160044901Y-52693830D01*
X159996297Y-52854055D01*
X159917369Y-53001720D01*
X159811149Y-53131149D01*
X159681720Y-53237369D01*
X159534055Y-53316297D01*
X159373830Y-53364901D01*
X159248952Y-53377200D01*
X159165448Y-53377200D01*
X159040570Y-53364901D01*
X158880345Y-53316297D01*
X158732680Y-53237369D01*
X158603251Y-53131149D01*
X158497031Y-53001720D01*
X158418103Y-52854055D01*
X158369499Y-52693830D01*
X158353088Y-52527200D01*
X158369499Y-52360570D01*
X158418103Y-52200345D01*
X158497031Y-52052680D01*
X158603251Y-51923251D01*
X158732680Y-51817031D01*
X158880345Y-51738103D01*
X159040570Y-51689499D01*
X159165448Y-51677200D01*
X159248952Y-51677200D01*
X159373830Y-51689499D01*
X159373830Y-51689499D01*
G37*
G36*
X161913830Y-51689499D02*
X162074055Y-51738103D01*
X162221720Y-51817031D01*
X162351149Y-51923251D01*
X162457369Y-52052680D01*
X162536297Y-52200345D01*
X162584901Y-52360570D01*
X162601312Y-52527200D01*
X162584901Y-52693830D01*
X162536297Y-52854055D01*
X162457369Y-53001720D01*
X162351149Y-53131149D01*
X162221720Y-53237369D01*
X162074055Y-53316297D01*
X161913830Y-53364901D01*
X161788952Y-53377200D01*
X161705448Y-53377200D01*
X161580570Y-53364901D01*
X161420345Y-53316297D01*
X161272680Y-53237369D01*
X161143251Y-53131149D01*
X161037031Y-53001720D01*
X160958103Y-52854055D01*
X160909499Y-52693830D01*
X160893088Y-52527200D01*
X160909499Y-52360570D01*
X160958103Y-52200345D01*
X161037031Y-52052680D01*
X161143251Y-51923251D01*
X161272680Y-51817031D01*
X161420345Y-51738103D01*
X161580570Y-51689499D01*
X161705448Y-51677200D01*
X161788952Y-51677200D01*
X161913830Y-51689499D01*
X161913830Y-51689499D01*
G37*
G36*
X164453830Y-51689499D02*
X164614055Y-51738103D01*
X164761720Y-51817031D01*
X164891149Y-51923251D01*
X164997369Y-52052680D01*
X165076297Y-52200345D01*
X165124901Y-52360570D01*
X165141312Y-52527200D01*
X165124901Y-52693830D01*
X165076297Y-52854055D01*
X164997369Y-53001720D01*
X164891149Y-53131149D01*
X164761720Y-53237369D01*
X164614055Y-53316297D01*
X164453830Y-53364901D01*
X164328952Y-53377200D01*
X164245448Y-53377200D01*
X164120570Y-53364901D01*
X163960345Y-53316297D01*
X163812680Y-53237369D01*
X163683251Y-53131149D01*
X163577031Y-53001720D01*
X163498103Y-52854055D01*
X163449499Y-52693830D01*
X163433088Y-52527200D01*
X163449499Y-52360570D01*
X163498103Y-52200345D01*
X163577031Y-52052680D01*
X163683251Y-51923251D01*
X163812680Y-51817031D01*
X163960345Y-51738103D01*
X164120570Y-51689499D01*
X164245448Y-51677200D01*
X164328952Y-51677200D01*
X164453830Y-51689499D01*
X164453830Y-51689499D01*
G37*
G36*
X166993830Y-51689499D02*
X167154055Y-51738103D01*
X167301720Y-51817031D01*
X167431149Y-51923251D01*
X167537369Y-52052680D01*
X167616297Y-52200345D01*
X167664901Y-52360570D01*
X167681312Y-52527200D01*
X167664901Y-52693830D01*
X167616297Y-52854055D01*
X167537369Y-53001720D01*
X167431149Y-53131149D01*
X167301720Y-53237369D01*
X167154055Y-53316297D01*
X166993830Y-53364901D01*
X166868952Y-53377200D01*
X166785448Y-53377200D01*
X166660570Y-53364901D01*
X166500345Y-53316297D01*
X166352680Y-53237369D01*
X166223251Y-53131149D01*
X166117031Y-53001720D01*
X166038103Y-52854055D01*
X165989499Y-52693830D01*
X165973088Y-52527200D01*
X165989499Y-52360570D01*
X166038103Y-52200345D01*
X166117031Y-52052680D01*
X166223251Y-51923251D01*
X166352680Y-51817031D01*
X166500345Y-51738103D01*
X166660570Y-51689499D01*
X166785448Y-51677200D01*
X166868952Y-51677200D01*
X166993830Y-51689499D01*
X166993830Y-51689499D01*
G37*
G36*
X169533830Y-51689499D02*
X169694055Y-51738103D01*
X169841720Y-51817031D01*
X169971149Y-51923251D01*
X170077369Y-52052680D01*
X170156297Y-52200345D01*
X170204901Y-52360570D01*
X170221312Y-52527200D01*
X170204901Y-52693830D01*
X170156297Y-52854055D01*
X170077369Y-53001720D01*
X169971149Y-53131149D01*
X169841720Y-53237369D01*
X169694055Y-53316297D01*
X169533830Y-53364901D01*
X169408952Y-53377200D01*
X169325448Y-53377200D01*
X169200570Y-53364901D01*
X169040345Y-53316297D01*
X168892680Y-53237369D01*
X168763251Y-53131149D01*
X168657031Y-53001720D01*
X168578103Y-52854055D01*
X168529499Y-52693830D01*
X168513088Y-52527200D01*
X168529499Y-52360570D01*
X168578103Y-52200345D01*
X168657031Y-52052680D01*
X168763251Y-51923251D01*
X168892680Y-51817031D01*
X169040345Y-51738103D01*
X169200570Y-51689499D01*
X169325448Y-51677200D01*
X169408952Y-51677200D01*
X169533830Y-51689499D01*
X169533830Y-51689499D01*
G37*
G36*
X123191060Y-46853058D02*
X123351221Y-46884916D01*
X123476204Y-46936686D01*
X123652956Y-47009899D01*
X123924516Y-47191350D01*
X124155450Y-47422284D01*
X124336901Y-47693844D01*
X124461884Y-47995580D01*
X124525600Y-48315900D01*
X124525600Y-48642500D01*
X124461884Y-48962820D01*
X124336901Y-49264556D01*
X124155450Y-49536116D01*
X123924516Y-49767050D01*
X123652956Y-49948501D01*
X123476204Y-50021714D01*
X123351221Y-50073484D01*
X123191060Y-50105342D01*
X123030900Y-50137200D01*
X122704300Y-50137200D01*
X122544140Y-50105342D01*
X122383979Y-50073484D01*
X122258996Y-50021714D01*
X122082244Y-49948501D01*
X121810684Y-49767050D01*
X121579750Y-49536116D01*
X121398299Y-49264556D01*
X121273316Y-48962820D01*
X121209600Y-48642500D01*
X121209600Y-48315900D01*
X121273316Y-47995580D01*
X121398299Y-47693844D01*
X121579750Y-47422284D01*
X121810684Y-47191350D01*
X122082244Y-47009899D01*
X122258996Y-46936686D01*
X122383979Y-46884916D01*
X122544140Y-46853058D01*
X122704300Y-46821200D01*
X123030900Y-46821200D01*
X123191060Y-46853058D01*
X123191060Y-46853058D01*
G37*
M02*
