%TF.GenerationSoftware,KiCad,Pcbnew,(5.0.1)-4*%
%TF.CreationDate,2019-11-11T16:38:18-05:00*%
%TF.ProjectId,new_synth_transistor,6E65775F73796E74685F7472616E7369,rev?*%
%TF.SameCoordinates,Original*%
%TF.FileFunction,Legend,Top*%
%TF.FilePolarity,Positive*%
%FSLAX46Y46*%
G04 Gerber Fmt 4.6, Leading zero omitted, Abs format (unit mm)*
G04 Created by KiCad (PCBNEW (5.0.1)-4) date 11/11/2019 4:38:18 PM*
%MOMM*%
%LPD*%
G01*
G04 APERTURE LIST*
%ADD10C,0.300000*%
%ADD11C,0.100000*%
%ADD12C,0.150000*%
%ADD13C,0.120000*%
%ADD14C,0.152400*%
%ADD15C,0.200000*%
%ADD16C,0.127000*%
%ADD17C,0.240000*%
%ADD18C,0.050000*%
G04 APERTURE END LIST*
D10*
X188963768Y-49978571D02*
X189463768Y-51478571D01*
X189963768Y-49978571D01*
X191249482Y-51478571D02*
X190392340Y-51478571D01*
X190820911Y-51478571D02*
X190820911Y-49978571D01*
X190678054Y-50192857D01*
X190535197Y-50335714D01*
X190392340Y-50407142D01*
X193035197Y-50907142D02*
X194178054Y-50907142D01*
X196035197Y-51478571D02*
X196035197Y-49978571D01*
X196892340Y-51478571D01*
X196892340Y-49978571D01*
X197820911Y-51478571D02*
X197678054Y-51407142D01*
X197606625Y-51335714D01*
X197535197Y-51192857D01*
X197535197Y-50764285D01*
X197606625Y-50621428D01*
X197678054Y-50550000D01*
X197820911Y-50478571D01*
X198035197Y-50478571D01*
X198178054Y-50550000D01*
X198249482Y-50621428D01*
X198320911Y-50764285D01*
X198320911Y-51192857D01*
X198249482Y-51335714D01*
X198178054Y-51407142D01*
X198035197Y-51478571D01*
X197820911Y-51478571D01*
X198820911Y-50478571D02*
X199178054Y-51478571D01*
X199535197Y-50478571D01*
X200678054Y-51407142D02*
X200535197Y-51478571D01*
X200249482Y-51478571D01*
X200106625Y-51407142D01*
X200035197Y-51264285D01*
X200035197Y-50692857D01*
X200106625Y-50550000D01*
X200249482Y-50478571D01*
X200535197Y-50478571D01*
X200678054Y-50550000D01*
X200749482Y-50692857D01*
X200749482Y-50835714D01*
X200035197Y-50978571D01*
X201392340Y-51478571D02*
X201392340Y-50478571D01*
X201392340Y-50621428D02*
X201463768Y-50550000D01*
X201606625Y-50478571D01*
X201820911Y-50478571D01*
X201963768Y-50550000D01*
X202035197Y-50692857D01*
X202035197Y-51478571D01*
X202035197Y-50692857D02*
X202106625Y-50550000D01*
X202249482Y-50478571D01*
X202463768Y-50478571D01*
X202606625Y-50550000D01*
X202678054Y-50692857D01*
X202678054Y-51478571D01*
X203963768Y-51407142D02*
X203820911Y-51478571D01*
X203535197Y-51478571D01*
X203392340Y-51407142D01*
X203320911Y-51264285D01*
X203320911Y-50692857D01*
X203392340Y-50550000D01*
X203535197Y-50478571D01*
X203820911Y-50478571D01*
X203963768Y-50550000D01*
X204035197Y-50692857D01*
X204035197Y-50835714D01*
X203320911Y-50978571D01*
X204678054Y-51478571D02*
X204678054Y-49978571D01*
X204678054Y-50550000D02*
X204820911Y-50478571D01*
X205106625Y-50478571D01*
X205249482Y-50550000D01*
X205320911Y-50621428D01*
X205392340Y-50764285D01*
X205392340Y-51192857D01*
X205320911Y-51335714D01*
X205249482Y-51407142D01*
X205106625Y-51478571D01*
X204820911Y-51478571D01*
X204678054Y-51407142D01*
X206606625Y-51407142D02*
X206463768Y-51478571D01*
X206178054Y-51478571D01*
X206035197Y-51407142D01*
X205963768Y-51264285D01*
X205963768Y-50692857D01*
X206035197Y-50550000D01*
X206178054Y-50478571D01*
X206463768Y-50478571D01*
X206606625Y-50550000D01*
X206678054Y-50692857D01*
X206678054Y-50835714D01*
X205963768Y-50978571D01*
X207320911Y-51478571D02*
X207320911Y-50478571D01*
X207320911Y-50764285D02*
X207392340Y-50621428D01*
X207463768Y-50550000D01*
X207606625Y-50478571D01*
X207749482Y-50478571D01*
X210178054Y-51478571D02*
X209320911Y-51478571D01*
X209749482Y-51478571D02*
X209749482Y-49978571D01*
X209606625Y-50192857D01*
X209463768Y-50335714D01*
X209320911Y-50407142D01*
X211606625Y-51478571D02*
X210749482Y-51478571D01*
X211178054Y-51478571D02*
X211178054Y-49978571D01*
X211035197Y-50192857D01*
X210892340Y-50335714D01*
X210749482Y-50407142D01*
X212320911Y-51407142D02*
X212320911Y-51478571D01*
X212249482Y-51621428D01*
X212178054Y-51692857D01*
X214035197Y-50121428D02*
X214106625Y-50050000D01*
X214249482Y-49978571D01*
X214606625Y-49978571D01*
X214749482Y-50050000D01*
X214820911Y-50121428D01*
X214892340Y-50264285D01*
X214892340Y-50407142D01*
X214820911Y-50621428D01*
X213963768Y-51478571D01*
X214892340Y-51478571D01*
X215820911Y-49978571D02*
X215963768Y-49978571D01*
X216106625Y-50050000D01*
X216178054Y-50121428D01*
X216249482Y-50264285D01*
X216320911Y-50550000D01*
X216320911Y-50907142D01*
X216249482Y-51192857D01*
X216178054Y-51335714D01*
X216106625Y-51407142D01*
X215963768Y-51478571D01*
X215820911Y-51478571D01*
X215678054Y-51407142D01*
X215606625Y-51335714D01*
X215535197Y-51192857D01*
X215463768Y-50907142D01*
X215463768Y-50550000D01*
X215535197Y-50264285D01*
X215606625Y-50121428D01*
X215678054Y-50050000D01*
X215820911Y-49978571D01*
X217749482Y-51478571D02*
X216892340Y-51478571D01*
X217320911Y-51478571D02*
X217320911Y-49978571D01*
X217178054Y-50192857D01*
X217035197Y-50335714D01*
X216892340Y-50407142D01*
X218463768Y-51478571D02*
X218749482Y-51478571D01*
X218892340Y-51407142D01*
X218963768Y-51335714D01*
X219106625Y-51121428D01*
X219178054Y-50835714D01*
X219178054Y-50264285D01*
X219106625Y-50121428D01*
X219035197Y-50050000D01*
X218892340Y-49978571D01*
X218606625Y-49978571D01*
X218463768Y-50050000D01*
X218392340Y-50121428D01*
X218320911Y-50264285D01*
X218320911Y-50621428D01*
X218392340Y-50764285D01*
X218463768Y-50835714D01*
X218606625Y-50907142D01*
X218892340Y-50907142D01*
X219035197Y-50835714D01*
X219106625Y-50764285D01*
X219178054Y-50621428D01*
D11*
X163068000Y-67778380D02*
X163068000Y-68016476D01*
X163306095Y-67921238D02*
X163068000Y-68016476D01*
X162829904Y-67921238D01*
X163210857Y-68206952D02*
X163068000Y-68016476D01*
X162925142Y-68206952D01*
D12*
X165005000Y-69755000D02*
X165005000Y-70755000D01*
X175355000Y-69755000D02*
X175355000Y-70830000D01*
X175355000Y-80105000D02*
X175355000Y-79030000D01*
X165005000Y-80105000D02*
X165005000Y-79030000D01*
X165005000Y-69755000D02*
X166080000Y-69755000D01*
X165005000Y-80105000D02*
X166080000Y-80105000D01*
X175355000Y-80105000D02*
X174280000Y-80105000D01*
X175355000Y-69755000D02*
X174280000Y-69755000D01*
X165005000Y-70755000D02*
X163980000Y-70755000D01*
D13*
X164545778Y-95048000D02*
X164028622Y-95048000D01*
X164545778Y-96468000D02*
X164028622Y-96468000D01*
X188412622Y-93574800D02*
X188929778Y-93574800D01*
X188412622Y-94994800D02*
X188929778Y-94994800D01*
X143610400Y-91791022D02*
X143610400Y-92308178D01*
X142190400Y-91791022D02*
X142190400Y-92308178D01*
X180945022Y-94994800D02*
X181462178Y-94994800D01*
X180945022Y-93574800D02*
X181462178Y-93574800D01*
X130504000Y-90419422D02*
X130504000Y-90936578D01*
X129084000Y-90419422D02*
X129084000Y-90936578D01*
X177140800Y-70302622D02*
X177140800Y-70819778D01*
X178560800Y-70302622D02*
X178560800Y-70819778D01*
X161370778Y-70537000D02*
X160853622Y-70537000D01*
X161370778Y-71957000D02*
X160853622Y-71957000D01*
X160326000Y-78532222D02*
X160326000Y-79049378D01*
X161746000Y-78532222D02*
X161746000Y-79049378D01*
X165705022Y-66650800D02*
X166222178Y-66650800D01*
X165705022Y-68070800D02*
X166222178Y-68070800D01*
X160726622Y-75236000D02*
X161243778Y-75236000D01*
X160726622Y-76656000D02*
X161243778Y-76656000D01*
X175213778Y-81941600D02*
X174696622Y-81941600D01*
X175213778Y-83361600D02*
X174696622Y-83361600D01*
X174045378Y-98449200D02*
X173528222Y-98449200D01*
X174045378Y-97029200D02*
X173528222Y-97029200D01*
X166272978Y-83310800D02*
X165755822Y-83310800D01*
X166272978Y-81890800D02*
X165755822Y-81890800D01*
X123074121Y-82989346D02*
X123074121Y-83506502D01*
X124494121Y-82989346D02*
X124494121Y-83506502D01*
X198629200Y-80411822D02*
X198629200Y-80928978D01*
X200049200Y-80411822D02*
X200049200Y-80928978D01*
D14*
X189519560Y-75120500D02*
X189242700Y-75120500D01*
X190667640Y-77177900D02*
X190944500Y-77177900D01*
X189242700Y-77177900D02*
X189519560Y-77177900D01*
X189242700Y-75120500D02*
X189242700Y-77177900D01*
X190944500Y-75120500D02*
X190667640Y-75120500D01*
X190944500Y-77177900D02*
X190944500Y-75120500D01*
X189458600Y-78740000D02*
X190728600Y-78740000D01*
X190093600Y-79502000D02*
X190220600Y-78740000D01*
X190093600Y-79502000D02*
X190347600Y-78740000D01*
X190093600Y-79502000D02*
X190474600Y-78740000D01*
X190093600Y-79502000D02*
X190601600Y-78740000D01*
X190093600Y-79502000D02*
X190728600Y-78740000D01*
X190093600Y-79502000D02*
X189966600Y-78740000D01*
X190093600Y-79502000D02*
X189839600Y-78740000D01*
X190093600Y-79502000D02*
X189712600Y-78740000D01*
X190093600Y-79502000D02*
X189585600Y-78740000D01*
X190093600Y-79502000D02*
X189458600Y-78740000D01*
X189458600Y-79502000D02*
X190728600Y-79502000D01*
X190093600Y-78486000D02*
X190093600Y-79756000D01*
X179984400Y-66802000D02*
X179984400Y-68072000D01*
X179349400Y-67818000D02*
X180619400Y-67818000D01*
X179984400Y-67818000D02*
X179349400Y-67056000D01*
X179984400Y-67818000D02*
X179476400Y-67056000D01*
X179984400Y-67818000D02*
X179603400Y-67056000D01*
X179984400Y-67818000D02*
X179730400Y-67056000D01*
X179984400Y-67818000D02*
X179857400Y-67056000D01*
X179984400Y-67818000D02*
X180619400Y-67056000D01*
X179984400Y-67818000D02*
X180492400Y-67056000D01*
X179984400Y-67818000D02*
X180365400Y-67056000D01*
X179984400Y-67818000D02*
X180238400Y-67056000D01*
X179984400Y-67818000D02*
X180111400Y-67056000D01*
X179349400Y-67056000D02*
X180619400Y-67056000D01*
X180835300Y-65493900D02*
X180835300Y-63436500D01*
X180835300Y-63436500D02*
X180558440Y-63436500D01*
X179133500Y-63436500D02*
X179133500Y-65493900D01*
X179133500Y-65493900D02*
X179410360Y-65493900D01*
X180558440Y-65493900D02*
X180835300Y-65493900D01*
X179410360Y-63436500D02*
X179133500Y-63436500D01*
X216052400Y-66141600D02*
X216052400Y-64871600D01*
X216687400Y-65125600D02*
X215417400Y-65125600D01*
X216052400Y-65125600D02*
X216687400Y-65887600D01*
X216052400Y-65125600D02*
X216560400Y-65887600D01*
X216052400Y-65125600D02*
X216433400Y-65887600D01*
X216052400Y-65125600D02*
X216306400Y-65887600D01*
X216052400Y-65125600D02*
X216179400Y-65887600D01*
X216052400Y-65125600D02*
X215417400Y-65887600D01*
X216052400Y-65125600D02*
X215544400Y-65887600D01*
X216052400Y-65125600D02*
X215671400Y-65887600D01*
X216052400Y-65125600D02*
X215798400Y-65887600D01*
X216052400Y-65125600D02*
X215925400Y-65887600D01*
X216687400Y-65887600D02*
X215417400Y-65887600D01*
X215201500Y-67449700D02*
X215201500Y-69507100D01*
X215201500Y-69507100D02*
X215478360Y-69507100D01*
X216903300Y-69507100D02*
X216903300Y-67449700D01*
X216903300Y-67449700D02*
X216626440Y-67449700D01*
X215478360Y-67449700D02*
X215201500Y-67449700D01*
X216626440Y-69507100D02*
X216903300Y-69507100D01*
X193687700Y-73370440D02*
X193687700Y-73647300D01*
X195745100Y-72222360D02*
X195745100Y-71945500D01*
X195745100Y-73647300D02*
X195745100Y-73370440D01*
X193687700Y-73647300D02*
X195745100Y-73647300D01*
X193687700Y-71945500D02*
X193687700Y-72222360D01*
X195745100Y-71945500D02*
X193687700Y-71945500D01*
X197307200Y-73431400D02*
X197307200Y-72161400D01*
X198069200Y-72796400D02*
X197307200Y-72669400D01*
X198069200Y-72796400D02*
X197307200Y-72542400D01*
X198069200Y-72796400D02*
X197307200Y-72415400D01*
X198069200Y-72796400D02*
X197307200Y-72288400D01*
X198069200Y-72796400D02*
X197307200Y-72161400D01*
X198069200Y-72796400D02*
X197307200Y-72923400D01*
X198069200Y-72796400D02*
X197307200Y-73050400D01*
X198069200Y-72796400D02*
X197307200Y-73177400D01*
X198069200Y-72796400D02*
X197307200Y-73304400D01*
X198069200Y-72796400D02*
X197307200Y-73431400D01*
X198069200Y-73431400D02*
X198069200Y-72161400D01*
X197053200Y-72796400D02*
X198323200Y-72796400D01*
D13*
X141665200Y-57358400D02*
X138980200Y-57358400D01*
X138980200Y-57358400D02*
X138980200Y-59278400D01*
X138980200Y-59278400D02*
X141665200Y-59278400D01*
X168016056Y-58872021D02*
X168016056Y-56187021D01*
X168016056Y-56187021D02*
X166096056Y-56187021D01*
X166096056Y-56187021D02*
X166096056Y-58872021D01*
X161840625Y-56174576D02*
X161840625Y-58859576D01*
X163760625Y-56174576D02*
X161840625Y-56174576D01*
X163760625Y-58859576D02*
X163760625Y-56174576D01*
X159634056Y-58872021D02*
X159634056Y-56187021D01*
X159634056Y-56187021D02*
X157714056Y-56187021D01*
X157714056Y-56187021D02*
X157714056Y-58872021D01*
X153599256Y-56187021D02*
X153599256Y-58872021D01*
X155519256Y-56187021D02*
X153599256Y-56187021D01*
X155519256Y-58872021D02*
X155519256Y-56187021D01*
X218906400Y-87182000D02*
X218906400Y-84522000D01*
X203606400Y-87182000D02*
X218906400Y-87182000D01*
X203606400Y-84522000D02*
X218906400Y-84522000D01*
X203606400Y-87182000D02*
X203606400Y-84522000D01*
X202336400Y-87182000D02*
X201006400Y-87182000D01*
X201006400Y-87182000D02*
X201006400Y-85852000D01*
X170697200Y-53857200D02*
X170697200Y-51197200D01*
X155397200Y-53857200D02*
X170697200Y-53857200D01*
X155397200Y-51197200D02*
X170697200Y-51197200D01*
X155397200Y-53857200D02*
X155397200Y-51197200D01*
X154127200Y-53857200D02*
X152797200Y-53857200D01*
X152797200Y-53857200D02*
X152797200Y-52527200D01*
X137608000Y-100136000D02*
X137608000Y-98806000D01*
X138938000Y-100136000D02*
X137608000Y-100136000D01*
X140208000Y-100136000D02*
X140208000Y-97476000D01*
X140208000Y-97476000D02*
X155508000Y-97476000D01*
X140208000Y-100136000D02*
X155508000Y-100136000D01*
X155508000Y-100136000D02*
X155508000Y-97476000D01*
X176259800Y-57925000D02*
X176259800Y-61455000D01*
X169789800Y-57925000D02*
X169789800Y-61455000D01*
X176194800Y-56600000D02*
X176194800Y-57925000D01*
X176259800Y-57925000D02*
X176194800Y-57925000D01*
X176259800Y-61455000D02*
X176194800Y-61455000D01*
X169854800Y-57925000D02*
X169789800Y-57925000D01*
X169854800Y-61455000D02*
X169789800Y-61455000D01*
X144632178Y-57608400D02*
X144115022Y-57608400D01*
X144632178Y-59028400D02*
X144115022Y-59028400D01*
X166346056Y-61686599D02*
X166346056Y-61169443D01*
X167766056Y-61686599D02*
X167766056Y-61169443D01*
X163510625Y-61775754D02*
X163510625Y-61258598D01*
X162090625Y-61775754D02*
X162090625Y-61258598D01*
X157964056Y-61838999D02*
X157964056Y-61321843D01*
X159384056Y-61838999D02*
X159384056Y-61321843D01*
X155268076Y-61891255D02*
X155268076Y-61374099D01*
X153848076Y-61891255D02*
X153848076Y-61374099D01*
X159516578Y-67867600D02*
X158999422Y-67867600D01*
X159516578Y-66447600D02*
X158999422Y-66447600D01*
X155878888Y-65212796D02*
X155513204Y-64847112D01*
X154874796Y-66216888D02*
X154509112Y-65851204D01*
X151738400Y-57704222D02*
X151738400Y-58221378D01*
X150318400Y-57704222D02*
X150318400Y-58221378D01*
X150318400Y-61260222D02*
X150318400Y-61777378D01*
X151738400Y-61260222D02*
X151738400Y-61777378D01*
X216409200Y-73258178D02*
X216409200Y-72741022D01*
X217829200Y-73258178D02*
X217829200Y-72741022D01*
X219152400Y-75484222D02*
X219152400Y-76001378D01*
X220572400Y-75484222D02*
X220572400Y-76001378D01*
X194715200Y-65841378D02*
X194715200Y-65324222D01*
X193295200Y-65841378D02*
X193295200Y-65324222D01*
X211942178Y-68731200D02*
X211425022Y-68731200D01*
X211942178Y-67311200D02*
X211425022Y-67311200D01*
X193806578Y-76706800D02*
X193289422Y-76706800D01*
X193806578Y-75286800D02*
X193289422Y-75286800D01*
X200147422Y-66038800D02*
X200664578Y-66038800D01*
X200147422Y-64618800D02*
X200664578Y-64618800D01*
X190809378Y-58571200D02*
X190292222Y-58571200D01*
X190809378Y-57151200D02*
X190292222Y-57151200D01*
X216209378Y-82244000D02*
X215692222Y-82244000D01*
X216209378Y-80824000D02*
X215692222Y-80824000D01*
X212500978Y-80824000D02*
X211983822Y-80824000D01*
X212500978Y-82244000D02*
X211983822Y-82244000D01*
X194715200Y-61361822D02*
X194715200Y-61878978D01*
X193295200Y-61361822D02*
X193295200Y-61878978D01*
X197718178Y-76706800D02*
X197201022Y-76706800D01*
X197718178Y-75286800D02*
X197201022Y-75286800D01*
X200096622Y-73102400D02*
X200613778Y-73102400D01*
X200096622Y-74522400D02*
X200613778Y-74522400D01*
X201163422Y-76706800D02*
X201680578Y-76706800D01*
X201163422Y-75286800D02*
X201680578Y-75286800D01*
X194153022Y-83719600D02*
X194670178Y-83719600D01*
X194153022Y-85139600D02*
X194670178Y-85139600D01*
X196851200Y-84933022D02*
X196851200Y-85450178D01*
X198271200Y-84933022D02*
X198271200Y-85450178D01*
X176169822Y-85091200D02*
X176686978Y-85091200D01*
X176169822Y-86511200D02*
X176686978Y-86511200D01*
X180852578Y-74728000D02*
X180335422Y-74728000D01*
X180852578Y-76148000D02*
X180335422Y-76148000D01*
X154634000Y-90479378D02*
X154634000Y-89962222D01*
X153214000Y-90479378D02*
X153214000Y-89962222D01*
X179887378Y-78383200D02*
X179370222Y-78383200D01*
X179887378Y-76963200D02*
X179370222Y-76963200D01*
X139498000Y-88752178D02*
X139498000Y-88235022D01*
X140918000Y-88752178D02*
X140918000Y-88235022D01*
X179172800Y-82351378D02*
X179172800Y-81834222D01*
X180592800Y-82351378D02*
X180592800Y-81834222D01*
X136444222Y-84326800D02*
X136961378Y-84326800D01*
X136444222Y-82906800D02*
X136961378Y-82906800D01*
X172124804Y-88213288D02*
X172490488Y-87847604D01*
X171120712Y-87209196D02*
X171486396Y-86843512D01*
X185825200Y-76306178D02*
X185825200Y-75789022D01*
X184405200Y-76306178D02*
X184405200Y-75789022D01*
X153264800Y-94164678D02*
X153264800Y-93647522D01*
X154684800Y-94164678D02*
X154684800Y-93647522D01*
X184555200Y-80471778D02*
X184555200Y-79954622D01*
X183135200Y-80471778D02*
X183135200Y-79954622D01*
X140867200Y-92358978D02*
X140867200Y-91841822D01*
X139447200Y-92358978D02*
X139447200Y-91841822D01*
X177646400Y-94238578D02*
X177646400Y-93721422D01*
X176226400Y-94238578D02*
X176226400Y-93721422D01*
X133081721Y-84827302D02*
X133081721Y-84310146D01*
X134501721Y-84827302D02*
X134501721Y-84310146D01*
D15*
X149217000Y-71380400D02*
G75*
G03X149217000Y-71380400I-100000J0D01*
G01*
D16*
X151162000Y-71160400D02*
X155162000Y-71160400D01*
X151162000Y-80020400D02*
X155162000Y-80020400D01*
X144595600Y-73598800D02*
X140595600Y-73598800D01*
X144595600Y-82458800D02*
X140595600Y-82458800D01*
D15*
X146740600Y-82238800D02*
G75*
G03X146740600Y-82238800I-100000J0D01*
G01*
X214711000Y-78632000D02*
G75*
G03X214711000Y-78632000I-100000J0D01*
G01*
D16*
X212566000Y-78852000D02*
X208566000Y-78852000D01*
X212566000Y-69992000D02*
X208566000Y-69992000D01*
D11*
X162061000Y-72271600D02*
G75*
G03X162061000Y-72271600I-110000J0D01*
G01*
D13*
X133206800Y-59223600D02*
X130546800Y-59223600D01*
X133206800Y-74523600D02*
X133206800Y-59223600D01*
X130546800Y-74523600D02*
X130546800Y-59223600D01*
X133206800Y-74523600D02*
X130546800Y-74523600D01*
X133206800Y-75793600D02*
X133206800Y-77123600D01*
X133206800Y-77123600D02*
X131876800Y-77123600D01*
X196492400Y-71023600D02*
X196492400Y-70093600D01*
X196492400Y-67863600D02*
X196492400Y-68793600D01*
X196492400Y-67863600D02*
X194332400Y-67863600D01*
X196492400Y-71023600D02*
X195032400Y-71023600D01*
X185160800Y-59840400D02*
X185160800Y-58380400D01*
X188320800Y-59840400D02*
X188320800Y-57680400D01*
X188320800Y-59840400D02*
X187390800Y-59840400D01*
X185160800Y-59840400D02*
X186090800Y-59840400D01*
X201216800Y-70464800D02*
X199756800Y-70464800D01*
X201216800Y-67304800D02*
X199056800Y-67304800D01*
X201216800Y-67304800D02*
X201216800Y-68234800D01*
X201216800Y-70464800D02*
X201216800Y-69534800D01*
X201528800Y-60911200D02*
X200598800Y-60911200D01*
X198368800Y-60911200D02*
X199298800Y-60911200D01*
X198368800Y-60911200D02*
X198368800Y-63071200D01*
X201528800Y-60911200D02*
X201528800Y-62371200D01*
D14*
X140065760Y-49386300D02*
X139052300Y-49386300D01*
X140065760Y-53966300D02*
X139052300Y-53966300D01*
X140065760Y-50275300D02*
X139052300Y-50275300D01*
X140065760Y-54855300D02*
X139052300Y-54855300D01*
D16*
X158267400Y-89103200D02*
G75*
G03X158267400Y-89103200I-127000J0D01*
G01*
X187020200Y-91236800D02*
G75*
G03X187020200Y-91236800I-127000J0D01*
G01*
X146075400Y-90525600D02*
G75*
G03X146075400Y-90525600I-127000J0D01*
G01*
X179552600Y-90982800D02*
G75*
G03X179552600Y-90982800I-127000J0D01*
G01*
X132613400Y-89001600D02*
G75*
G03X132613400Y-89001600I-127000J0D01*
G01*
X169595800Y-90881200D02*
G75*
G03X169595800Y-90881200I-127000J0D01*
G01*
X126400321Y-81419124D02*
G75*
G03X126400321Y-81419124I-127000J0D01*
G01*
D14*
X183769000Y-72986900D02*
X189611000Y-72986900D01*
X189611000Y-72986900D02*
X189611000Y-72036940D01*
X189611000Y-62242700D02*
X183769000Y-62242700D01*
X183769000Y-62242700D02*
X183769000Y-63192660D01*
X183769000Y-72036940D02*
X183769000Y-72986900D01*
X189611000Y-63192660D02*
X189611000Y-62242700D01*
X191655700Y-68694300D02*
X191655700Y-69075300D01*
X191655700Y-69075300D02*
X191401700Y-69075300D01*
X191401700Y-69075300D02*
X191401700Y-68694300D01*
X191401700Y-68694300D02*
X191655700Y-68694300D01*
D16*
X128667600Y-48499200D02*
X128667600Y-50149200D01*
X128667600Y-50149200D02*
X129067600Y-50349200D01*
X129067600Y-50349200D02*
X129067600Y-58649200D01*
X129067600Y-58649200D02*
X128667600Y-58849200D01*
X128667600Y-58849200D02*
X128667600Y-60499200D01*
X128667600Y-60499200D02*
X124867600Y-60499200D01*
X120867600Y-60499200D02*
X112567600Y-60499200D01*
X112567600Y-60499200D02*
X112567600Y-48499200D01*
X112567600Y-48499200D02*
X120867600Y-48499200D01*
X124867600Y-48499200D02*
X128667600Y-48499200D01*
D17*
X129637600Y-56199200D02*
G75*
G03X129637600Y-56199200I-120000J0D01*
G01*
D13*
X201298500Y-99531480D02*
X203958500Y-99531480D01*
X201298500Y-96931480D02*
X201298500Y-99531480D01*
X203958500Y-96931480D02*
X203958500Y-99531480D01*
X201298500Y-96931480D02*
X203958500Y-96931480D01*
X201298500Y-95661480D02*
X201298500Y-94331480D01*
X201298500Y-94331480D02*
X202628500Y-94331480D01*
D16*
X208397980Y-102801940D02*
X208397980Y-101151940D01*
X208397980Y-101151940D02*
X207997980Y-100951940D01*
X207997980Y-100951940D02*
X207997980Y-92651940D01*
X207997980Y-92651940D02*
X208397980Y-92451940D01*
X208397980Y-92451940D02*
X208397980Y-90801940D01*
X208397980Y-90801940D02*
X212197980Y-90801940D01*
X216197980Y-90801940D02*
X224497980Y-90801940D01*
X224497980Y-90801940D02*
X224497980Y-102801940D01*
X224497980Y-102801940D02*
X216197980Y-102801940D01*
X212197980Y-102801940D02*
X208397980Y-102801940D01*
D17*
X207667980Y-95101940D02*
G75*
G03X207667980Y-95101940I-120000J0D01*
G01*
D11*
X160813904Y-68692780D02*
X160813904Y-69502304D01*
X160861523Y-69597542D01*
X160909142Y-69645161D01*
X161004380Y-69692780D01*
X161194857Y-69692780D01*
X161290095Y-69645161D01*
X161337714Y-69597542D01*
X161385333Y-69502304D01*
X161385333Y-68692780D01*
X162385333Y-69692780D02*
X161813904Y-69692780D01*
X162099619Y-69692780D02*
X162099619Y-68692780D01*
X162004380Y-68835638D01*
X161909142Y-68930876D01*
X161813904Y-68978495D01*
X163242476Y-69026114D02*
X163242476Y-69692780D01*
X163004380Y-68645161D02*
X162766285Y-69359447D01*
X163385333Y-69359447D01*
X164120533Y-98096342D02*
X164072914Y-98143961D01*
X163930057Y-98191580D01*
X163834819Y-98191580D01*
X163691961Y-98143961D01*
X163596723Y-98048723D01*
X163549104Y-97953485D01*
X163501485Y-97763009D01*
X163501485Y-97620152D01*
X163549104Y-97429676D01*
X163596723Y-97334438D01*
X163691961Y-97239200D01*
X163834819Y-97191580D01*
X163930057Y-97191580D01*
X164072914Y-97239200D01*
X164120533Y-97286819D01*
X165072914Y-98191580D02*
X164501485Y-98191580D01*
X164787200Y-98191580D02*
X164787200Y-97191580D01*
X164691961Y-97334438D01*
X164596723Y-97429676D01*
X164501485Y-97477295D01*
X188504533Y-96521542D02*
X188456914Y-96569161D01*
X188314057Y-96616780D01*
X188218819Y-96616780D01*
X188075961Y-96569161D01*
X187980723Y-96473923D01*
X187933104Y-96378685D01*
X187885485Y-96188209D01*
X187885485Y-96045352D01*
X187933104Y-95854876D01*
X187980723Y-95759638D01*
X188075961Y-95664400D01*
X188218819Y-95616780D01*
X188314057Y-95616780D01*
X188456914Y-95664400D01*
X188504533Y-95712019D01*
X188885485Y-95712019D02*
X188933104Y-95664400D01*
X189028342Y-95616780D01*
X189266438Y-95616780D01*
X189361676Y-95664400D01*
X189409295Y-95712019D01*
X189456914Y-95807257D01*
X189456914Y-95902495D01*
X189409295Y-96045352D01*
X188837866Y-96616780D01*
X189456914Y-96616780D01*
X142632133Y-95200742D02*
X142584514Y-95248361D01*
X142441657Y-95295980D01*
X142346419Y-95295980D01*
X142203561Y-95248361D01*
X142108323Y-95153123D01*
X142060704Y-95057885D01*
X142013085Y-94867409D01*
X142013085Y-94724552D01*
X142060704Y-94534076D01*
X142108323Y-94438838D01*
X142203561Y-94343600D01*
X142346419Y-94295980D01*
X142441657Y-94295980D01*
X142584514Y-94343600D01*
X142632133Y-94391219D01*
X142965466Y-94295980D02*
X143584514Y-94295980D01*
X143251180Y-94676933D01*
X143394038Y-94676933D01*
X143489276Y-94724552D01*
X143536895Y-94772171D01*
X143584514Y-94867409D01*
X143584514Y-95105504D01*
X143536895Y-95200742D01*
X143489276Y-95248361D01*
X143394038Y-95295980D01*
X143108323Y-95295980D01*
X143013085Y-95248361D01*
X142965466Y-95200742D01*
X180986133Y-96724742D02*
X180938514Y-96772361D01*
X180795657Y-96819980D01*
X180700419Y-96819980D01*
X180557561Y-96772361D01*
X180462323Y-96677123D01*
X180414704Y-96581885D01*
X180367085Y-96391409D01*
X180367085Y-96248552D01*
X180414704Y-96058076D01*
X180462323Y-95962838D01*
X180557561Y-95867600D01*
X180700419Y-95819980D01*
X180795657Y-95819980D01*
X180938514Y-95867600D01*
X180986133Y-95915219D01*
X181843276Y-96153314D02*
X181843276Y-96819980D01*
X181605180Y-95772361D02*
X181367085Y-96486647D01*
X181986133Y-96486647D01*
X129627333Y-88698342D02*
X129579714Y-88745961D01*
X129436857Y-88793580D01*
X129341619Y-88793580D01*
X129198761Y-88745961D01*
X129103523Y-88650723D01*
X129055904Y-88555485D01*
X129008285Y-88365009D01*
X129008285Y-88222152D01*
X129055904Y-88031676D01*
X129103523Y-87936438D01*
X129198761Y-87841200D01*
X129341619Y-87793580D01*
X129436857Y-87793580D01*
X129579714Y-87841200D01*
X129627333Y-87888819D01*
X130532095Y-87793580D02*
X130055904Y-87793580D01*
X130008285Y-88269771D01*
X130055904Y-88222152D01*
X130151142Y-88174533D01*
X130389238Y-88174533D01*
X130484476Y-88222152D01*
X130532095Y-88269771D01*
X130579714Y-88365009D01*
X130579714Y-88603104D01*
X130532095Y-88698342D01*
X130484476Y-88745961D01*
X130389238Y-88793580D01*
X130151142Y-88793580D01*
X130055904Y-88745961D01*
X130008285Y-88698342D01*
X179919333Y-70918342D02*
X179871714Y-70965961D01*
X179728857Y-71013580D01*
X179633619Y-71013580D01*
X179490761Y-70965961D01*
X179395523Y-70870723D01*
X179347904Y-70775485D01*
X179300285Y-70585009D01*
X179300285Y-70442152D01*
X179347904Y-70251676D01*
X179395523Y-70156438D01*
X179490761Y-70061200D01*
X179633619Y-70013580D01*
X179728857Y-70013580D01*
X179871714Y-70061200D01*
X179919333Y-70108819D01*
X180776476Y-70013580D02*
X180586000Y-70013580D01*
X180490761Y-70061200D01*
X180443142Y-70108819D01*
X180347904Y-70251676D01*
X180300285Y-70442152D01*
X180300285Y-70823104D01*
X180347904Y-70918342D01*
X180395523Y-70965961D01*
X180490761Y-71013580D01*
X180681238Y-71013580D01*
X180776476Y-70965961D01*
X180824095Y-70918342D01*
X180871714Y-70823104D01*
X180871714Y-70585009D01*
X180824095Y-70489771D01*
X180776476Y-70442152D01*
X180681238Y-70394533D01*
X180490761Y-70394533D01*
X180395523Y-70442152D01*
X180347904Y-70489771D01*
X180300285Y-70585009D01*
X158447200Y-71641857D02*
X158411485Y-71677571D01*
X158304342Y-71713285D01*
X158232914Y-71713285D01*
X158125771Y-71677571D01*
X158054342Y-71606142D01*
X158018628Y-71534714D01*
X157982914Y-71391857D01*
X157982914Y-71284714D01*
X158018628Y-71141857D01*
X158054342Y-71070428D01*
X158125771Y-70999000D01*
X158232914Y-70963285D01*
X158304342Y-70963285D01*
X158411485Y-70999000D01*
X158447200Y-71034714D01*
X158697200Y-70963285D02*
X159197200Y-70963285D01*
X158875771Y-71713285D01*
X157973733Y-78436742D02*
X157926114Y-78484361D01*
X157783257Y-78531980D01*
X157688019Y-78531980D01*
X157545161Y-78484361D01*
X157449923Y-78389123D01*
X157402304Y-78293885D01*
X157354685Y-78103409D01*
X157354685Y-77960552D01*
X157402304Y-77770076D01*
X157449923Y-77674838D01*
X157545161Y-77579600D01*
X157688019Y-77531980D01*
X157783257Y-77531980D01*
X157926114Y-77579600D01*
X157973733Y-77627219D01*
X158545161Y-77960552D02*
X158449923Y-77912933D01*
X158402304Y-77865314D01*
X158354685Y-77770076D01*
X158354685Y-77722457D01*
X158402304Y-77627219D01*
X158449923Y-77579600D01*
X158545161Y-77531980D01*
X158735638Y-77531980D01*
X158830876Y-77579600D01*
X158878495Y-77627219D01*
X158926114Y-77722457D01*
X158926114Y-77770076D01*
X158878495Y-77865314D01*
X158830876Y-77912933D01*
X158735638Y-77960552D01*
X158545161Y-77960552D01*
X158449923Y-78008171D01*
X158402304Y-78055790D01*
X158354685Y-78151028D01*
X158354685Y-78341504D01*
X158402304Y-78436742D01*
X158449923Y-78484361D01*
X158545161Y-78531980D01*
X158735638Y-78531980D01*
X158830876Y-78484361D01*
X158878495Y-78436742D01*
X158926114Y-78341504D01*
X158926114Y-78151028D01*
X158878495Y-78055790D01*
X158830876Y-78008171D01*
X158735638Y-77960552D01*
X165085733Y-66092342D02*
X165038114Y-66139961D01*
X164895257Y-66187580D01*
X164800019Y-66187580D01*
X164657161Y-66139961D01*
X164561923Y-66044723D01*
X164514304Y-65949485D01*
X164466685Y-65759009D01*
X164466685Y-65616152D01*
X164514304Y-65425676D01*
X164561923Y-65330438D01*
X164657161Y-65235200D01*
X164800019Y-65187580D01*
X164895257Y-65187580D01*
X165038114Y-65235200D01*
X165085733Y-65282819D01*
X165561923Y-66187580D02*
X165752400Y-66187580D01*
X165847638Y-66139961D01*
X165895257Y-66092342D01*
X165990495Y-65949485D01*
X166038114Y-65759009D01*
X166038114Y-65378057D01*
X165990495Y-65282819D01*
X165942876Y-65235200D01*
X165847638Y-65187580D01*
X165657161Y-65187580D01*
X165561923Y-65235200D01*
X165514304Y-65282819D01*
X165466685Y-65378057D01*
X165466685Y-65616152D01*
X165514304Y-65711390D01*
X165561923Y-65759009D01*
X165657161Y-65806628D01*
X165847638Y-65806628D01*
X165942876Y-65759009D01*
X165990495Y-65711390D01*
X166038114Y-65616152D01*
X157709057Y-76213857D02*
X157673342Y-76249571D01*
X157566200Y-76285285D01*
X157494771Y-76285285D01*
X157387628Y-76249571D01*
X157316200Y-76178142D01*
X157280485Y-76106714D01*
X157244771Y-75963857D01*
X157244771Y-75856714D01*
X157280485Y-75713857D01*
X157316200Y-75642428D01*
X157387628Y-75571000D01*
X157494771Y-75535285D01*
X157566200Y-75535285D01*
X157673342Y-75571000D01*
X157709057Y-75606714D01*
X158423342Y-76285285D02*
X157994771Y-76285285D01*
X158209057Y-76285285D02*
X158209057Y-75535285D01*
X158137628Y-75642428D01*
X158066200Y-75713857D01*
X157994771Y-75749571D01*
X158887628Y-75535285D02*
X158959057Y-75535285D01*
X159030485Y-75571000D01*
X159066200Y-75606714D01*
X159101914Y-75678142D01*
X159137628Y-75821000D01*
X159137628Y-75999571D01*
X159101914Y-76142428D01*
X159066200Y-76213857D01*
X159030485Y-76249571D01*
X158959057Y-76285285D01*
X158887628Y-76285285D01*
X158816200Y-76249571D01*
X158780485Y-76213857D01*
X158744771Y-76142428D01*
X158709057Y-75999571D01*
X158709057Y-75821000D01*
X158744771Y-75678142D01*
X158780485Y-75606714D01*
X158816200Y-75571000D01*
X158887628Y-75535285D01*
X174312342Y-84532742D02*
X174264723Y-84580361D01*
X174121866Y-84627980D01*
X174026628Y-84627980D01*
X173883771Y-84580361D01*
X173788533Y-84485123D01*
X173740914Y-84389885D01*
X173693295Y-84199409D01*
X173693295Y-84056552D01*
X173740914Y-83866076D01*
X173788533Y-83770838D01*
X173883771Y-83675600D01*
X174026628Y-83627980D01*
X174121866Y-83627980D01*
X174264723Y-83675600D01*
X174312342Y-83723219D01*
X175264723Y-84627980D02*
X174693295Y-84627980D01*
X174979009Y-84627980D02*
X174979009Y-83627980D01*
X174883771Y-83770838D01*
X174788533Y-83866076D01*
X174693295Y-83913695D01*
X176217104Y-84627980D02*
X175645676Y-84627980D01*
X175931390Y-84627980D02*
X175931390Y-83627980D01*
X175836152Y-83770838D01*
X175740914Y-83866076D01*
X175645676Y-83913695D01*
X169537142Y-98350342D02*
X169489523Y-98397961D01*
X169346666Y-98445580D01*
X169251428Y-98445580D01*
X169108571Y-98397961D01*
X169013333Y-98302723D01*
X168965714Y-98207485D01*
X168918095Y-98017009D01*
X168918095Y-97874152D01*
X168965714Y-97683676D01*
X169013333Y-97588438D01*
X169108571Y-97493200D01*
X169251428Y-97445580D01*
X169346666Y-97445580D01*
X169489523Y-97493200D01*
X169537142Y-97540819D01*
X170489523Y-98445580D02*
X169918095Y-98445580D01*
X170203809Y-98445580D02*
X170203809Y-97445580D01*
X170108571Y-97588438D01*
X170013333Y-97683676D01*
X169918095Y-97731295D01*
X170870476Y-97540819D02*
X170918095Y-97493200D01*
X171013333Y-97445580D01*
X171251428Y-97445580D01*
X171346666Y-97493200D01*
X171394285Y-97540819D01*
X171441904Y-97636057D01*
X171441904Y-97731295D01*
X171394285Y-97874152D01*
X170822857Y-98445580D01*
X171441904Y-98445580D01*
X162171142Y-83110342D02*
X162123523Y-83157961D01*
X161980666Y-83205580D01*
X161885428Y-83205580D01*
X161742571Y-83157961D01*
X161647333Y-83062723D01*
X161599714Y-82967485D01*
X161552095Y-82777009D01*
X161552095Y-82634152D01*
X161599714Y-82443676D01*
X161647333Y-82348438D01*
X161742571Y-82253200D01*
X161885428Y-82205580D01*
X161980666Y-82205580D01*
X162123523Y-82253200D01*
X162171142Y-82300819D01*
X163123523Y-83205580D02*
X162552095Y-83205580D01*
X162837809Y-83205580D02*
X162837809Y-82205580D01*
X162742571Y-82348438D01*
X162647333Y-82443676D01*
X162552095Y-82491295D01*
X163456857Y-82205580D02*
X164075904Y-82205580D01*
X163742571Y-82586533D01*
X163885428Y-82586533D01*
X163980666Y-82634152D01*
X164028285Y-82681771D01*
X164075904Y-82777009D01*
X164075904Y-83015104D01*
X164028285Y-83110342D01*
X163980666Y-83157961D01*
X163885428Y-83205580D01*
X163599714Y-83205580D01*
X163504476Y-83157961D01*
X163456857Y-83110342D01*
X120550463Y-83605066D02*
X120502844Y-83652685D01*
X120359987Y-83700304D01*
X120264749Y-83700304D01*
X120121892Y-83652685D01*
X120026654Y-83557447D01*
X119979035Y-83462209D01*
X119931416Y-83271733D01*
X119931416Y-83128876D01*
X119979035Y-82938400D01*
X120026654Y-82843162D01*
X120121892Y-82747924D01*
X120264749Y-82700304D01*
X120359987Y-82700304D01*
X120502844Y-82747924D01*
X120550463Y-82795543D01*
X121502844Y-83700304D02*
X120931416Y-83700304D01*
X121217130Y-83700304D02*
X121217130Y-82700304D01*
X121121892Y-82843162D01*
X121026654Y-82938400D01*
X120931416Y-82986019D01*
X122359987Y-83033638D02*
X122359987Y-83700304D01*
X122121892Y-82652685D02*
X121883797Y-83366971D01*
X122502844Y-83366971D01*
X201185542Y-80925942D02*
X201137923Y-80973561D01*
X200995066Y-81021180D01*
X200899828Y-81021180D01*
X200756971Y-80973561D01*
X200661733Y-80878323D01*
X200614114Y-80783085D01*
X200566495Y-80592609D01*
X200566495Y-80449752D01*
X200614114Y-80259276D01*
X200661733Y-80164038D01*
X200756971Y-80068800D01*
X200899828Y-80021180D01*
X200995066Y-80021180D01*
X201137923Y-80068800D01*
X201185542Y-80116419D01*
X202137923Y-81021180D02*
X201566495Y-81021180D01*
X201852209Y-81021180D02*
X201852209Y-80021180D01*
X201756971Y-80164038D01*
X201661733Y-80259276D01*
X201566495Y-80306895D01*
X202471257Y-80021180D02*
X203137923Y-80021180D01*
X202709352Y-81021180D01*
X187039333Y-76557142D02*
X186991714Y-76604761D01*
X186848857Y-76652380D01*
X186753619Y-76652380D01*
X186610761Y-76604761D01*
X186515523Y-76509523D01*
X186467904Y-76414285D01*
X186420285Y-76223809D01*
X186420285Y-76080952D01*
X186467904Y-75890476D01*
X186515523Y-75795238D01*
X186610761Y-75700000D01*
X186753619Y-75652380D01*
X186848857Y-75652380D01*
X186991714Y-75700000D01*
X187039333Y-75747619D01*
X188039333Y-76652380D02*
X187706000Y-76176190D01*
X187467904Y-76652380D02*
X187467904Y-75652380D01*
X187848857Y-75652380D01*
X187944095Y-75700000D01*
X187991714Y-75747619D01*
X188039333Y-75842857D01*
X188039333Y-75985714D01*
X187991714Y-76080952D01*
X187944095Y-76128571D01*
X187848857Y-76176190D01*
X187467904Y-76176190D01*
X188991714Y-76652380D02*
X188420285Y-76652380D01*
X188706000Y-76652380D02*
X188706000Y-75652380D01*
X188610761Y-75795238D01*
X188515523Y-75890476D01*
X188420285Y-75938095D01*
X180181333Y-61571142D02*
X180133714Y-61618761D01*
X179990857Y-61666380D01*
X179895619Y-61666380D01*
X179752761Y-61618761D01*
X179657523Y-61523523D01*
X179609904Y-61428285D01*
X179562285Y-61237809D01*
X179562285Y-61094952D01*
X179609904Y-60904476D01*
X179657523Y-60809238D01*
X179752761Y-60714000D01*
X179895619Y-60666380D01*
X179990857Y-60666380D01*
X180133714Y-60714000D01*
X180181333Y-60761619D01*
X181181333Y-61666380D02*
X180848000Y-61190190D01*
X180609904Y-61666380D02*
X180609904Y-60666380D01*
X180990857Y-60666380D01*
X181086095Y-60714000D01*
X181133714Y-60761619D01*
X181181333Y-60856857D01*
X181181333Y-60999714D01*
X181133714Y-61094952D01*
X181086095Y-61142571D01*
X180990857Y-61190190D01*
X180609904Y-61190190D01*
X181562285Y-60761619D02*
X181609904Y-60714000D01*
X181705142Y-60666380D01*
X181943238Y-60666380D01*
X182038476Y-60714000D01*
X182086095Y-60761619D01*
X182133714Y-60856857D01*
X182133714Y-60952095D01*
X182086095Y-61094952D01*
X181514666Y-61666380D01*
X182133714Y-61666380D01*
X218128933Y-68835542D02*
X218081314Y-68883161D01*
X217938457Y-68930780D01*
X217843219Y-68930780D01*
X217700361Y-68883161D01*
X217605123Y-68787923D01*
X217557504Y-68692685D01*
X217509885Y-68502209D01*
X217509885Y-68359352D01*
X217557504Y-68168876D01*
X217605123Y-68073638D01*
X217700361Y-67978400D01*
X217843219Y-67930780D01*
X217938457Y-67930780D01*
X218081314Y-67978400D01*
X218128933Y-68026019D01*
X219128933Y-68930780D02*
X218795600Y-68454590D01*
X218557504Y-68930780D02*
X218557504Y-67930780D01*
X218938457Y-67930780D01*
X219033695Y-67978400D01*
X219081314Y-68026019D01*
X219128933Y-68121257D01*
X219128933Y-68264114D01*
X219081314Y-68359352D01*
X219033695Y-68406971D01*
X218938457Y-68454590D01*
X218557504Y-68454590D01*
X219462266Y-67930780D02*
X220081314Y-67930780D01*
X219747980Y-68311733D01*
X219890838Y-68311733D01*
X219986076Y-68359352D01*
X220033695Y-68406971D01*
X220081314Y-68502209D01*
X220081314Y-68740304D01*
X220033695Y-68835542D01*
X219986076Y-68883161D01*
X219890838Y-68930780D01*
X219605123Y-68930780D01*
X219509885Y-68883161D01*
X219462266Y-68835542D01*
X190595333Y-73356742D02*
X190547714Y-73404361D01*
X190404857Y-73451980D01*
X190309619Y-73451980D01*
X190166761Y-73404361D01*
X190071523Y-73309123D01*
X190023904Y-73213885D01*
X189976285Y-73023409D01*
X189976285Y-72880552D01*
X190023904Y-72690076D01*
X190071523Y-72594838D01*
X190166761Y-72499600D01*
X190309619Y-72451980D01*
X190404857Y-72451980D01*
X190547714Y-72499600D01*
X190595333Y-72547219D01*
X191595333Y-73451980D02*
X191262000Y-72975790D01*
X191023904Y-73451980D02*
X191023904Y-72451980D01*
X191404857Y-72451980D01*
X191500095Y-72499600D01*
X191547714Y-72547219D01*
X191595333Y-72642457D01*
X191595333Y-72785314D01*
X191547714Y-72880552D01*
X191500095Y-72928171D01*
X191404857Y-72975790D01*
X191023904Y-72975790D01*
X192452476Y-72785314D02*
X192452476Y-73451980D01*
X192214380Y-72404361D02*
X191976285Y-73118647D01*
X192595333Y-73118647D01*
X140079504Y-60751980D02*
X140079504Y-59751980D01*
X140317600Y-59751980D01*
X140460457Y-59799600D01*
X140555695Y-59894838D01*
X140603314Y-59990076D01*
X140650933Y-60180552D01*
X140650933Y-60323409D01*
X140603314Y-60513885D01*
X140555695Y-60609123D01*
X140460457Y-60704361D01*
X140317600Y-60751980D01*
X140079504Y-60751980D01*
X141603314Y-60751980D02*
X141031885Y-60751980D01*
X141317600Y-60751980D02*
X141317600Y-59751980D01*
X141222361Y-59894838D01*
X141127123Y-59990076D01*
X141031885Y-60037695D01*
D12*
X168400760Y-58324401D02*
X168400760Y-57324401D01*
X168638856Y-57324401D01*
X168781713Y-57372021D01*
X168876951Y-57467259D01*
X168924570Y-57562497D01*
X168972189Y-57752973D01*
X168972189Y-57895830D01*
X168924570Y-58086306D01*
X168876951Y-58181544D01*
X168781713Y-58276782D01*
X168638856Y-58324401D01*
X168400760Y-58324401D01*
X169353141Y-57419640D02*
X169400760Y-57372021D01*
X169495998Y-57324401D01*
X169734094Y-57324401D01*
X169829332Y-57372021D01*
X169876951Y-57419640D01*
X169924570Y-57514878D01*
X169924570Y-57610116D01*
X169876951Y-57752973D01*
X169305522Y-58324401D01*
X169924570Y-58324401D01*
X164184360Y-58273601D02*
X164184360Y-57273601D01*
X164422456Y-57273601D01*
X164565313Y-57321221D01*
X164660551Y-57416459D01*
X164708170Y-57511697D01*
X164755789Y-57702173D01*
X164755789Y-57845030D01*
X164708170Y-58035506D01*
X164660551Y-58130744D01*
X164565313Y-58225982D01*
X164422456Y-58273601D01*
X164184360Y-58273601D01*
X165089122Y-57273601D02*
X165708170Y-57273601D01*
X165374836Y-57654554D01*
X165517694Y-57654554D01*
X165612932Y-57702173D01*
X165660551Y-57749792D01*
X165708170Y-57845030D01*
X165708170Y-58083125D01*
X165660551Y-58178363D01*
X165612932Y-58225982D01*
X165517694Y-58273601D01*
X165231979Y-58273601D01*
X165136741Y-58225982D01*
X165089122Y-58178363D01*
X159866360Y-58324401D02*
X159866360Y-57324401D01*
X160104456Y-57324401D01*
X160247313Y-57372021D01*
X160342551Y-57467259D01*
X160390170Y-57562497D01*
X160437789Y-57752973D01*
X160437789Y-57895830D01*
X160390170Y-58086306D01*
X160342551Y-58181544D01*
X160247313Y-58276782D01*
X160104456Y-58324401D01*
X159866360Y-58324401D01*
X161294932Y-57657735D02*
X161294932Y-58324401D01*
X161056836Y-57276782D02*
X160818741Y-57991068D01*
X161437789Y-57991068D01*
X155905140Y-58221345D02*
X155905140Y-57221345D01*
X156143236Y-57221345D01*
X156286093Y-57268965D01*
X156381331Y-57364203D01*
X156428950Y-57459441D01*
X156476569Y-57649917D01*
X156476569Y-57792774D01*
X156428950Y-57983250D01*
X156381331Y-58078488D01*
X156286093Y-58173726D01*
X156143236Y-58221345D01*
X155905140Y-58221345D01*
X157381331Y-57221345D02*
X156905140Y-57221345D01*
X156857521Y-57697536D01*
X156905140Y-57649917D01*
X157000378Y-57602298D01*
X157238474Y-57602298D01*
X157333712Y-57649917D01*
X157381331Y-57697536D01*
X157428950Y-57792774D01*
X157428950Y-58030869D01*
X157381331Y-58126107D01*
X157333712Y-58173726D01*
X157238474Y-58221345D01*
X157000378Y-58221345D01*
X156905140Y-58173726D01*
X156857521Y-58126107D01*
X202561866Y-82967580D02*
X202561866Y-83681866D01*
X202514247Y-83824723D01*
X202419009Y-83919961D01*
X202276152Y-83967580D01*
X202180914Y-83967580D01*
X202990438Y-83062819D02*
X203038057Y-83015200D01*
X203133295Y-82967580D01*
X203371390Y-82967580D01*
X203466628Y-83015200D01*
X203514247Y-83062819D01*
X203561866Y-83158057D01*
X203561866Y-83253295D01*
X203514247Y-83396152D01*
X202942819Y-83967580D01*
X203561866Y-83967580D01*
X150999866Y-51928780D02*
X150999866Y-52643066D01*
X150952247Y-52785923D01*
X150857009Y-52881161D01*
X150714152Y-52928780D01*
X150618914Y-52928780D01*
X151380819Y-51928780D02*
X151999866Y-51928780D01*
X151666533Y-52309733D01*
X151809390Y-52309733D01*
X151904628Y-52357352D01*
X151952247Y-52404971D01*
X151999866Y-52500209D01*
X151999866Y-52738304D01*
X151952247Y-52833542D01*
X151904628Y-52881161D01*
X151809390Y-52928780D01*
X151523676Y-52928780D01*
X151428438Y-52881161D01*
X151380819Y-52833542D01*
D11*
X135810666Y-98309180D02*
X135810666Y-99023466D01*
X135763047Y-99166323D01*
X135667809Y-99261561D01*
X135524952Y-99309180D01*
X135429714Y-99309180D01*
X136715428Y-98642514D02*
X136715428Y-99309180D01*
X136477333Y-98261561D02*
X136239238Y-98975847D01*
X136858285Y-98975847D01*
D12*
X172793066Y-53909980D02*
X172793066Y-54624266D01*
X172745447Y-54767123D01*
X172650209Y-54862361D01*
X172507352Y-54909980D01*
X172412114Y-54909980D01*
X173697828Y-53909980D02*
X173507352Y-53909980D01*
X173412114Y-53957600D01*
X173364495Y-54005219D01*
X173269257Y-54148076D01*
X173221638Y-54338552D01*
X173221638Y-54719504D01*
X173269257Y-54814742D01*
X173316876Y-54862361D01*
X173412114Y-54909980D01*
X173602590Y-54909980D01*
X173697828Y-54862361D01*
X173745447Y-54814742D01*
X173793066Y-54719504D01*
X173793066Y-54481409D01*
X173745447Y-54386171D01*
X173697828Y-54338552D01*
X173602590Y-54290933D01*
X173412114Y-54290933D01*
X173316876Y-54338552D01*
X173269257Y-54386171D01*
X173221638Y-54481409D01*
D11*
X144206933Y-60650380D02*
X143873600Y-60174190D01*
X143635504Y-60650380D02*
X143635504Y-59650380D01*
X144016457Y-59650380D01*
X144111695Y-59698000D01*
X144159314Y-59745619D01*
X144206933Y-59840857D01*
X144206933Y-59983714D01*
X144159314Y-60078952D01*
X144111695Y-60126571D01*
X144016457Y-60174190D01*
X143635504Y-60174190D01*
X145159314Y-60650380D02*
X144587885Y-60650380D01*
X144873600Y-60650380D02*
X144873600Y-59650380D01*
X144778361Y-59793238D01*
X144683123Y-59888476D01*
X144587885Y-59936095D01*
D12*
X168921389Y-61880401D02*
X168588056Y-61404211D01*
X168349960Y-61880401D02*
X168349960Y-60880401D01*
X168730913Y-60880401D01*
X168826151Y-60928021D01*
X168873770Y-60975640D01*
X168921389Y-61070878D01*
X168921389Y-61213735D01*
X168873770Y-61308973D01*
X168826151Y-61356592D01*
X168730913Y-61404211D01*
X168349960Y-61404211D01*
X169302341Y-60975640D02*
X169349960Y-60928021D01*
X169445198Y-60880401D01*
X169683294Y-60880401D01*
X169778532Y-60928021D01*
X169826151Y-60975640D01*
X169873770Y-61070878D01*
X169873770Y-61166116D01*
X169826151Y-61308973D01*
X169254722Y-61880401D01*
X169873770Y-61880401D01*
X164857389Y-61931201D02*
X164524056Y-61455011D01*
X164285960Y-61931201D02*
X164285960Y-60931201D01*
X164666913Y-60931201D01*
X164762151Y-60978821D01*
X164809770Y-61026440D01*
X164857389Y-61121678D01*
X164857389Y-61264535D01*
X164809770Y-61359773D01*
X164762151Y-61407392D01*
X164666913Y-61455011D01*
X164285960Y-61455011D01*
X165190722Y-60931201D02*
X165809770Y-60931201D01*
X165476436Y-61312154D01*
X165619294Y-61312154D01*
X165714532Y-61359773D01*
X165762151Y-61407392D01*
X165809770Y-61502630D01*
X165809770Y-61740725D01*
X165762151Y-61835963D01*
X165714532Y-61883582D01*
X165619294Y-61931201D01*
X165333579Y-61931201D01*
X165238341Y-61883582D01*
X165190722Y-61835963D01*
X160716933Y-62021980D02*
X160383600Y-61545790D01*
X160145504Y-62021980D02*
X160145504Y-61021980D01*
X160526457Y-61021980D01*
X160621695Y-61069600D01*
X160669314Y-61117219D01*
X160716933Y-61212457D01*
X160716933Y-61355314D01*
X160669314Y-61450552D01*
X160621695Y-61498171D01*
X160526457Y-61545790D01*
X160145504Y-61545790D01*
X161574076Y-61355314D02*
X161574076Y-62021980D01*
X161335980Y-60974361D02*
X161097885Y-61688647D01*
X161716933Y-61688647D01*
X156475389Y-61982001D02*
X156142056Y-61505811D01*
X155903960Y-61982001D02*
X155903960Y-60982001D01*
X156284913Y-60982001D01*
X156380151Y-61029621D01*
X156427770Y-61077240D01*
X156475389Y-61172478D01*
X156475389Y-61315335D01*
X156427770Y-61410573D01*
X156380151Y-61458192D01*
X156284913Y-61505811D01*
X155903960Y-61505811D01*
X157380151Y-60982001D02*
X156903960Y-60982001D01*
X156856341Y-61458192D01*
X156903960Y-61410573D01*
X156999198Y-61362954D01*
X157237294Y-61362954D01*
X157332532Y-61410573D01*
X157380151Y-61458192D01*
X157427770Y-61553430D01*
X157427770Y-61791525D01*
X157380151Y-61886763D01*
X157332532Y-61934382D01*
X157237294Y-61982001D01*
X156999198Y-61982001D01*
X156903960Y-61934382D01*
X156856341Y-61886763D01*
D11*
X156754533Y-68168780D02*
X156421200Y-67692590D01*
X156183104Y-68168780D02*
X156183104Y-67168780D01*
X156564057Y-67168780D01*
X156659295Y-67216400D01*
X156706914Y-67264019D01*
X156754533Y-67359257D01*
X156754533Y-67502114D01*
X156706914Y-67597352D01*
X156659295Y-67644971D01*
X156564057Y-67692590D01*
X156183104Y-67692590D01*
X157611676Y-67168780D02*
X157421200Y-67168780D01*
X157325961Y-67216400D01*
X157278342Y-67264019D01*
X157183104Y-67406876D01*
X157135485Y-67597352D01*
X157135485Y-67978304D01*
X157183104Y-68073542D01*
X157230723Y-68121161D01*
X157325961Y-68168780D01*
X157516438Y-68168780D01*
X157611676Y-68121161D01*
X157659295Y-68073542D01*
X157706914Y-67978304D01*
X157706914Y-67740209D01*
X157659295Y-67644971D01*
X157611676Y-67597352D01*
X157516438Y-67549733D01*
X157325961Y-67549733D01*
X157230723Y-67597352D01*
X157183104Y-67644971D01*
X157135485Y-67740209D01*
X153232267Y-67054830D02*
X153333282Y-66482410D01*
X152828206Y-66650769D02*
X153535312Y-65943662D01*
X153804687Y-66213036D01*
X153838358Y-66314051D01*
X153838358Y-66381395D01*
X153804687Y-66482410D01*
X153703671Y-66583425D01*
X153602656Y-66617097D01*
X153535312Y-66617097D01*
X153434297Y-66583425D01*
X153164923Y-66314051D01*
X154175076Y-66583425D02*
X154646480Y-67054830D01*
X153636328Y-67458891D01*
X148829733Y-58415180D02*
X148496400Y-57938990D01*
X148258304Y-58415180D02*
X148258304Y-57415180D01*
X148639257Y-57415180D01*
X148734495Y-57462800D01*
X148782114Y-57510419D01*
X148829733Y-57605657D01*
X148829733Y-57748514D01*
X148782114Y-57843752D01*
X148734495Y-57891371D01*
X148639257Y-57938990D01*
X148258304Y-57938990D01*
X149401161Y-57843752D02*
X149305923Y-57796133D01*
X149258304Y-57748514D01*
X149210685Y-57653276D01*
X149210685Y-57605657D01*
X149258304Y-57510419D01*
X149305923Y-57462800D01*
X149401161Y-57415180D01*
X149591638Y-57415180D01*
X149686876Y-57462800D01*
X149734495Y-57510419D01*
X149782114Y-57605657D01*
X149782114Y-57653276D01*
X149734495Y-57748514D01*
X149686876Y-57796133D01*
X149591638Y-57843752D01*
X149401161Y-57843752D01*
X149305923Y-57891371D01*
X149258304Y-57938990D01*
X149210685Y-58034228D01*
X149210685Y-58224704D01*
X149258304Y-58319942D01*
X149305923Y-58367561D01*
X149401161Y-58415180D01*
X149591638Y-58415180D01*
X149686876Y-58367561D01*
X149734495Y-58319942D01*
X149782114Y-58224704D01*
X149782114Y-58034228D01*
X149734495Y-57938990D01*
X149686876Y-57891371D01*
X149591638Y-57843752D01*
X148728133Y-62275980D02*
X148394800Y-61799790D01*
X148156704Y-62275980D02*
X148156704Y-61275980D01*
X148537657Y-61275980D01*
X148632895Y-61323600D01*
X148680514Y-61371219D01*
X148728133Y-61466457D01*
X148728133Y-61609314D01*
X148680514Y-61704552D01*
X148632895Y-61752171D01*
X148537657Y-61799790D01*
X148156704Y-61799790D01*
X149204323Y-62275980D02*
X149394800Y-62275980D01*
X149490038Y-62228361D01*
X149537657Y-62180742D01*
X149632895Y-62037885D01*
X149680514Y-61847409D01*
X149680514Y-61466457D01*
X149632895Y-61371219D01*
X149585276Y-61323600D01*
X149490038Y-61275980D01*
X149299561Y-61275980D01*
X149204323Y-61323600D01*
X149156704Y-61371219D01*
X149109085Y-61466457D01*
X149109085Y-61704552D01*
X149156704Y-61799790D01*
X149204323Y-61847409D01*
X149299561Y-61895028D01*
X149490038Y-61895028D01*
X149585276Y-61847409D01*
X149632895Y-61799790D01*
X149680514Y-61704552D01*
X218914742Y-72842380D02*
X218581409Y-72366190D01*
X218343314Y-72842380D02*
X218343314Y-71842380D01*
X218724266Y-71842380D01*
X218819504Y-71890000D01*
X218867123Y-71937619D01*
X218914742Y-72032857D01*
X218914742Y-72175714D01*
X218867123Y-72270952D01*
X218819504Y-72318571D01*
X218724266Y-72366190D01*
X218343314Y-72366190D01*
X219867123Y-72842380D02*
X219295695Y-72842380D01*
X219581409Y-72842380D02*
X219581409Y-71842380D01*
X219486171Y-71985238D01*
X219390933Y-72080476D01*
X219295695Y-72128095D01*
X220486171Y-71842380D02*
X220581409Y-71842380D01*
X220676647Y-71890000D01*
X220724266Y-71937619D01*
X220771885Y-72032857D01*
X220819504Y-72223333D01*
X220819504Y-72461428D01*
X220771885Y-72651904D01*
X220724266Y-72747142D01*
X220676647Y-72794761D01*
X220581409Y-72842380D01*
X220486171Y-72842380D01*
X220390933Y-72794761D01*
X220343314Y-72747142D01*
X220295695Y-72651904D01*
X220248076Y-72461428D01*
X220248076Y-72223333D01*
X220295695Y-72032857D01*
X220343314Y-71937619D01*
X220390933Y-71890000D01*
X220486171Y-71842380D01*
X216933542Y-77363580D02*
X216600209Y-76887390D01*
X216362114Y-77363580D02*
X216362114Y-76363580D01*
X216743066Y-76363580D01*
X216838304Y-76411200D01*
X216885923Y-76458819D01*
X216933542Y-76554057D01*
X216933542Y-76696914D01*
X216885923Y-76792152D01*
X216838304Y-76839771D01*
X216743066Y-76887390D01*
X216362114Y-76887390D01*
X217885923Y-77363580D02*
X217314495Y-77363580D01*
X217600209Y-77363580D02*
X217600209Y-76363580D01*
X217504971Y-76506438D01*
X217409733Y-76601676D01*
X217314495Y-76649295D01*
X218838304Y-77363580D02*
X218266876Y-77363580D01*
X218552590Y-77363580D02*
X218552590Y-76363580D01*
X218457352Y-76506438D01*
X218362114Y-76601676D01*
X218266876Y-76649295D01*
X195648342Y-65069980D02*
X195315009Y-64593790D01*
X195076914Y-65069980D02*
X195076914Y-64069980D01*
X195457866Y-64069980D01*
X195553104Y-64117600D01*
X195600723Y-64165219D01*
X195648342Y-64260457D01*
X195648342Y-64403314D01*
X195600723Y-64498552D01*
X195553104Y-64546171D01*
X195457866Y-64593790D01*
X195076914Y-64593790D01*
X196600723Y-65069980D02*
X196029295Y-65069980D01*
X196315009Y-65069980D02*
X196315009Y-64069980D01*
X196219771Y-64212838D01*
X196124533Y-64308076D01*
X196029295Y-64355695D01*
X196981676Y-64165219D02*
X197029295Y-64117600D01*
X197124533Y-64069980D01*
X197362628Y-64069980D01*
X197457866Y-64117600D01*
X197505485Y-64165219D01*
X197553104Y-64260457D01*
X197553104Y-64355695D01*
X197505485Y-64498552D01*
X196934057Y-65069980D01*
X197553104Y-65069980D01*
X211091542Y-66695580D02*
X210758209Y-66219390D01*
X210520114Y-66695580D02*
X210520114Y-65695580D01*
X210901066Y-65695580D01*
X210996304Y-65743200D01*
X211043923Y-65790819D01*
X211091542Y-65886057D01*
X211091542Y-66028914D01*
X211043923Y-66124152D01*
X210996304Y-66171771D01*
X210901066Y-66219390D01*
X210520114Y-66219390D01*
X212043923Y-66695580D02*
X211472495Y-66695580D01*
X211758209Y-66695580D02*
X211758209Y-65695580D01*
X211662971Y-65838438D01*
X211567733Y-65933676D01*
X211472495Y-65981295D01*
X212377257Y-65695580D02*
X212996304Y-65695580D01*
X212662971Y-66076533D01*
X212805828Y-66076533D01*
X212901066Y-66124152D01*
X212948685Y-66171771D01*
X212996304Y-66267009D01*
X212996304Y-66505104D01*
X212948685Y-66600342D01*
X212901066Y-66647961D01*
X212805828Y-66695580D01*
X212520114Y-66695580D01*
X212424876Y-66647961D01*
X212377257Y-66600342D01*
X192905142Y-78099180D02*
X192571809Y-77622990D01*
X192333714Y-78099180D02*
X192333714Y-77099180D01*
X192714666Y-77099180D01*
X192809904Y-77146800D01*
X192857523Y-77194419D01*
X192905142Y-77289657D01*
X192905142Y-77432514D01*
X192857523Y-77527752D01*
X192809904Y-77575371D01*
X192714666Y-77622990D01*
X192333714Y-77622990D01*
X193857523Y-78099180D02*
X193286095Y-78099180D01*
X193571809Y-78099180D02*
X193571809Y-77099180D01*
X193476571Y-77242038D01*
X193381333Y-77337276D01*
X193286095Y-77384895D01*
X194714666Y-77432514D02*
X194714666Y-78099180D01*
X194476571Y-77051561D02*
X194238476Y-77765847D01*
X194857523Y-77765847D01*
X202811142Y-64765180D02*
X202477809Y-64288990D01*
X202239714Y-64765180D02*
X202239714Y-63765180D01*
X202620666Y-63765180D01*
X202715904Y-63812800D01*
X202763523Y-63860419D01*
X202811142Y-63955657D01*
X202811142Y-64098514D01*
X202763523Y-64193752D01*
X202715904Y-64241371D01*
X202620666Y-64288990D01*
X202239714Y-64288990D01*
X203763523Y-64765180D02*
X203192095Y-64765180D01*
X203477809Y-64765180D02*
X203477809Y-63765180D01*
X203382571Y-63908038D01*
X203287333Y-64003276D01*
X203192095Y-64050895D01*
X204668285Y-63765180D02*
X204192095Y-63765180D01*
X204144476Y-64241371D01*
X204192095Y-64193752D01*
X204287333Y-64146133D01*
X204525428Y-64146133D01*
X204620666Y-64193752D01*
X204668285Y-64241371D01*
X204715904Y-64336609D01*
X204715904Y-64574704D01*
X204668285Y-64669942D01*
X204620666Y-64717561D01*
X204525428Y-64765180D01*
X204287333Y-64765180D01*
X204192095Y-64717561D01*
X204144476Y-64669942D01*
X189907942Y-59963580D02*
X189574609Y-59487390D01*
X189336514Y-59963580D02*
X189336514Y-58963580D01*
X189717466Y-58963580D01*
X189812704Y-59011200D01*
X189860323Y-59058819D01*
X189907942Y-59154057D01*
X189907942Y-59296914D01*
X189860323Y-59392152D01*
X189812704Y-59439771D01*
X189717466Y-59487390D01*
X189336514Y-59487390D01*
X190860323Y-59963580D02*
X190288895Y-59963580D01*
X190574609Y-59963580D02*
X190574609Y-58963580D01*
X190479371Y-59106438D01*
X190384133Y-59201676D01*
X190288895Y-59249295D01*
X191717466Y-58963580D02*
X191526990Y-58963580D01*
X191431752Y-59011200D01*
X191384133Y-59058819D01*
X191288895Y-59201676D01*
X191241276Y-59392152D01*
X191241276Y-59773104D01*
X191288895Y-59868342D01*
X191336514Y-59915961D01*
X191431752Y-59963580D01*
X191622228Y-59963580D01*
X191717466Y-59915961D01*
X191765085Y-59868342D01*
X191812704Y-59773104D01*
X191812704Y-59535009D01*
X191765085Y-59439771D01*
X191717466Y-59392152D01*
X191622228Y-59344533D01*
X191431752Y-59344533D01*
X191336514Y-59392152D01*
X191288895Y-59439771D01*
X191241276Y-59535009D01*
X215307942Y-83636380D02*
X214974609Y-83160190D01*
X214736514Y-83636380D02*
X214736514Y-82636380D01*
X215117466Y-82636380D01*
X215212704Y-82684000D01*
X215260323Y-82731619D01*
X215307942Y-82826857D01*
X215307942Y-82969714D01*
X215260323Y-83064952D01*
X215212704Y-83112571D01*
X215117466Y-83160190D01*
X214736514Y-83160190D01*
X216260323Y-83636380D02*
X215688895Y-83636380D01*
X215974609Y-83636380D02*
X215974609Y-82636380D01*
X215879371Y-82779238D01*
X215784133Y-82874476D01*
X215688895Y-82922095D01*
X216593657Y-82636380D02*
X217260323Y-82636380D01*
X216831752Y-83636380D01*
X211599542Y-83636380D02*
X211266209Y-83160190D01*
X211028114Y-83636380D02*
X211028114Y-82636380D01*
X211409066Y-82636380D01*
X211504304Y-82684000D01*
X211551923Y-82731619D01*
X211599542Y-82826857D01*
X211599542Y-82969714D01*
X211551923Y-83064952D01*
X211504304Y-83112571D01*
X211409066Y-83160190D01*
X211028114Y-83160190D01*
X212551923Y-83636380D02*
X211980495Y-83636380D01*
X212266209Y-83636380D02*
X212266209Y-82636380D01*
X212170971Y-82779238D01*
X212075733Y-82874476D01*
X211980495Y-82922095D01*
X213123352Y-83064952D02*
X213028114Y-83017333D01*
X212980495Y-82969714D01*
X212932876Y-82874476D01*
X212932876Y-82826857D01*
X212980495Y-82731619D01*
X213028114Y-82684000D01*
X213123352Y-82636380D01*
X213313828Y-82636380D01*
X213409066Y-82684000D01*
X213456685Y-82731619D01*
X213504304Y-82826857D01*
X213504304Y-82874476D01*
X213456685Y-82969714D01*
X213409066Y-83017333D01*
X213313828Y-83064952D01*
X213123352Y-83064952D01*
X213028114Y-83112571D01*
X212980495Y-83160190D01*
X212932876Y-83255428D01*
X212932876Y-83445904D01*
X212980495Y-83541142D01*
X213028114Y-83588761D01*
X213123352Y-83636380D01*
X213313828Y-83636380D01*
X213409066Y-83588761D01*
X213456685Y-83541142D01*
X213504304Y-83445904D01*
X213504304Y-83255428D01*
X213456685Y-83160190D01*
X213409066Y-83112571D01*
X213313828Y-83064952D01*
X192577980Y-62161657D02*
X192101790Y-62494990D01*
X192577980Y-62733085D02*
X191577980Y-62733085D01*
X191577980Y-62352133D01*
X191625600Y-62256895D01*
X191673219Y-62209276D01*
X191768457Y-62161657D01*
X191911314Y-62161657D01*
X192006552Y-62209276D01*
X192054171Y-62256895D01*
X192101790Y-62352133D01*
X192101790Y-62733085D01*
X192577980Y-61209276D02*
X192577980Y-61780704D01*
X192577980Y-61494990D02*
X191577980Y-61494990D01*
X191720838Y-61590228D01*
X191816076Y-61685466D01*
X191863695Y-61780704D01*
X192577980Y-60733085D02*
X192577980Y-60542609D01*
X192530361Y-60447371D01*
X192482742Y-60399752D01*
X192339885Y-60304514D01*
X192149409Y-60256895D01*
X191768457Y-60256895D01*
X191673219Y-60304514D01*
X191625600Y-60352133D01*
X191577980Y-60447371D01*
X191577980Y-60637847D01*
X191625600Y-60733085D01*
X191673219Y-60780704D01*
X191768457Y-60828323D01*
X192006552Y-60828323D01*
X192101790Y-60780704D01*
X192149409Y-60733085D01*
X192197028Y-60637847D01*
X192197028Y-60447371D01*
X192149409Y-60352133D01*
X192101790Y-60304514D01*
X192006552Y-60256895D01*
X196816742Y-78099180D02*
X196483409Y-77622990D01*
X196245314Y-78099180D02*
X196245314Y-77099180D01*
X196626266Y-77099180D01*
X196721504Y-77146800D01*
X196769123Y-77194419D01*
X196816742Y-77289657D01*
X196816742Y-77432514D01*
X196769123Y-77527752D01*
X196721504Y-77575371D01*
X196626266Y-77622990D01*
X196245314Y-77622990D01*
X197197695Y-77194419D02*
X197245314Y-77146800D01*
X197340552Y-77099180D01*
X197578647Y-77099180D01*
X197673885Y-77146800D01*
X197721504Y-77194419D01*
X197769123Y-77289657D01*
X197769123Y-77384895D01*
X197721504Y-77527752D01*
X197150076Y-78099180D01*
X197769123Y-78099180D01*
X198388171Y-77099180D02*
X198483409Y-77099180D01*
X198578647Y-77146800D01*
X198626266Y-77194419D01*
X198673885Y-77289657D01*
X198721504Y-77480133D01*
X198721504Y-77718228D01*
X198673885Y-77908704D01*
X198626266Y-78003942D01*
X198578647Y-78051561D01*
X198483409Y-78099180D01*
X198388171Y-78099180D01*
X198292933Y-78051561D01*
X198245314Y-78003942D01*
X198197695Y-77908704D01*
X198150076Y-77718228D01*
X198150076Y-77480133D01*
X198197695Y-77289657D01*
X198245314Y-77194419D01*
X198292933Y-77146800D01*
X198388171Y-77099180D01*
X199712342Y-72614780D02*
X199379009Y-72138590D01*
X199140914Y-72614780D02*
X199140914Y-71614780D01*
X199521866Y-71614780D01*
X199617104Y-71662400D01*
X199664723Y-71710019D01*
X199712342Y-71805257D01*
X199712342Y-71948114D01*
X199664723Y-72043352D01*
X199617104Y-72090971D01*
X199521866Y-72138590D01*
X199140914Y-72138590D01*
X200093295Y-71710019D02*
X200140914Y-71662400D01*
X200236152Y-71614780D01*
X200474247Y-71614780D01*
X200569485Y-71662400D01*
X200617104Y-71710019D01*
X200664723Y-71805257D01*
X200664723Y-71900495D01*
X200617104Y-72043352D01*
X200045676Y-72614780D01*
X200664723Y-72614780D01*
X201617104Y-72614780D02*
X201045676Y-72614780D01*
X201331390Y-72614780D02*
X201331390Y-71614780D01*
X201236152Y-71757638D01*
X201140914Y-71852876D01*
X201045676Y-71900495D01*
X200779142Y-78379580D02*
X200445809Y-77903390D01*
X200207714Y-78379580D02*
X200207714Y-77379580D01*
X200588666Y-77379580D01*
X200683904Y-77427200D01*
X200731523Y-77474819D01*
X200779142Y-77570057D01*
X200779142Y-77712914D01*
X200731523Y-77808152D01*
X200683904Y-77855771D01*
X200588666Y-77903390D01*
X200207714Y-77903390D01*
X201160095Y-77474819D02*
X201207714Y-77427200D01*
X201302952Y-77379580D01*
X201541047Y-77379580D01*
X201636285Y-77427200D01*
X201683904Y-77474819D01*
X201731523Y-77570057D01*
X201731523Y-77665295D01*
X201683904Y-77808152D01*
X201112476Y-78379580D01*
X201731523Y-78379580D01*
X202112476Y-77474819D02*
X202160095Y-77427200D01*
X202255333Y-77379580D01*
X202493428Y-77379580D01*
X202588666Y-77427200D01*
X202636285Y-77474819D01*
X202683904Y-77570057D01*
X202683904Y-77665295D01*
X202636285Y-77808152D01*
X202064857Y-78379580D01*
X202683904Y-78379580D01*
X193717942Y-83205580D02*
X193384609Y-82729390D01*
X193146514Y-83205580D02*
X193146514Y-82205580D01*
X193527466Y-82205580D01*
X193622704Y-82253200D01*
X193670323Y-82300819D01*
X193717942Y-82396057D01*
X193717942Y-82538914D01*
X193670323Y-82634152D01*
X193622704Y-82681771D01*
X193527466Y-82729390D01*
X193146514Y-82729390D01*
X194098895Y-82300819D02*
X194146514Y-82253200D01*
X194241752Y-82205580D01*
X194479847Y-82205580D01*
X194575085Y-82253200D01*
X194622704Y-82300819D01*
X194670323Y-82396057D01*
X194670323Y-82491295D01*
X194622704Y-82634152D01*
X194051276Y-83205580D01*
X194670323Y-83205580D01*
X195003657Y-82205580D02*
X195622704Y-82205580D01*
X195289371Y-82586533D01*
X195432228Y-82586533D01*
X195527466Y-82634152D01*
X195575085Y-82681771D01*
X195622704Y-82777009D01*
X195622704Y-83015104D01*
X195575085Y-83110342D01*
X195527466Y-83157961D01*
X195432228Y-83205580D01*
X195146514Y-83205580D01*
X195051276Y-83157961D01*
X195003657Y-83110342D01*
X197426342Y-88336380D02*
X197093009Y-87860190D01*
X196854914Y-88336380D02*
X196854914Y-87336380D01*
X197235866Y-87336380D01*
X197331104Y-87384000D01*
X197378723Y-87431619D01*
X197426342Y-87526857D01*
X197426342Y-87669714D01*
X197378723Y-87764952D01*
X197331104Y-87812571D01*
X197235866Y-87860190D01*
X196854914Y-87860190D01*
X197807295Y-87431619D02*
X197854914Y-87384000D01*
X197950152Y-87336380D01*
X198188247Y-87336380D01*
X198283485Y-87384000D01*
X198331104Y-87431619D01*
X198378723Y-87526857D01*
X198378723Y-87622095D01*
X198331104Y-87764952D01*
X197759676Y-88336380D01*
X198378723Y-88336380D01*
X199235866Y-87669714D02*
X199235866Y-88336380D01*
X198997771Y-87288761D02*
X198759676Y-88003047D01*
X199378723Y-88003047D01*
X175528361Y-87929980D02*
X175195028Y-87453790D01*
X174956933Y-87929980D02*
X174956933Y-86929980D01*
X175337885Y-86929980D01*
X175433123Y-86977600D01*
X175480742Y-87025219D01*
X175528361Y-87120457D01*
X175528361Y-87263314D01*
X175480742Y-87358552D01*
X175433123Y-87406171D01*
X175337885Y-87453790D01*
X174956933Y-87453790D01*
X175909314Y-87644266D02*
X176385504Y-87644266D01*
X175814076Y-87929980D02*
X176147409Y-86929980D01*
X176480742Y-87929980D01*
X177337885Y-87929980D02*
X176766457Y-87929980D01*
X177052171Y-87929980D02*
X177052171Y-86929980D01*
X176956933Y-87072838D01*
X176861695Y-87168076D01*
X176766457Y-87215695D01*
X179897161Y-73858380D02*
X179563828Y-73382190D01*
X179325733Y-73858380D02*
X179325733Y-72858380D01*
X179706685Y-72858380D01*
X179801923Y-72906000D01*
X179849542Y-72953619D01*
X179897161Y-73048857D01*
X179897161Y-73191714D01*
X179849542Y-73286952D01*
X179801923Y-73334571D01*
X179706685Y-73382190D01*
X179325733Y-73382190D01*
X180278114Y-73572666D02*
X180754304Y-73572666D01*
X180182876Y-73858380D02*
X180516209Y-72858380D01*
X180849542Y-73858380D01*
X181135257Y-72953619D02*
X181182876Y-72906000D01*
X181278114Y-72858380D01*
X181516209Y-72858380D01*
X181611447Y-72906000D01*
X181659066Y-72953619D01*
X181706685Y-73048857D01*
X181706685Y-73144095D01*
X181659066Y-73286952D01*
X181087638Y-73858380D01*
X181706685Y-73858380D01*
X150890361Y-88996780D02*
X150557028Y-88520590D01*
X150318933Y-88996780D02*
X150318933Y-87996780D01*
X150699885Y-87996780D01*
X150795123Y-88044400D01*
X150842742Y-88092019D01*
X150890361Y-88187257D01*
X150890361Y-88330114D01*
X150842742Y-88425352D01*
X150795123Y-88472971D01*
X150699885Y-88520590D01*
X150318933Y-88520590D01*
X151271314Y-88711066D02*
X151747504Y-88711066D01*
X151176076Y-88996780D02*
X151509409Y-87996780D01*
X151842742Y-88996780D01*
X152080838Y-87996780D02*
X152699885Y-87996780D01*
X152366552Y-88377733D01*
X152509409Y-88377733D01*
X152604647Y-88425352D01*
X152652266Y-88472971D01*
X152699885Y-88568209D01*
X152699885Y-88806304D01*
X152652266Y-88901542D01*
X152604647Y-88949161D01*
X152509409Y-88996780D01*
X152223695Y-88996780D01*
X152128457Y-88949161D01*
X152080838Y-88901542D01*
X179033561Y-79775580D02*
X178700228Y-79299390D01*
X178462133Y-79775580D02*
X178462133Y-78775580D01*
X178843085Y-78775580D01*
X178938323Y-78823200D01*
X178985942Y-78870819D01*
X179033561Y-78966057D01*
X179033561Y-79108914D01*
X178985942Y-79204152D01*
X178938323Y-79251771D01*
X178843085Y-79299390D01*
X178462133Y-79299390D01*
X179414514Y-79489866D02*
X179890704Y-79489866D01*
X179319276Y-79775580D02*
X179652609Y-78775580D01*
X179985942Y-79775580D01*
X180747847Y-79108914D02*
X180747847Y-79775580D01*
X180509752Y-78727961D02*
X180271657Y-79442247D01*
X180890704Y-79442247D01*
X137021961Y-87421980D02*
X136688628Y-86945790D01*
X136450533Y-87421980D02*
X136450533Y-86421980D01*
X136831485Y-86421980D01*
X136926723Y-86469600D01*
X136974342Y-86517219D01*
X137021961Y-86612457D01*
X137021961Y-86755314D01*
X136974342Y-86850552D01*
X136926723Y-86898171D01*
X136831485Y-86945790D01*
X136450533Y-86945790D01*
X137402914Y-87136266D02*
X137879104Y-87136266D01*
X137307676Y-87421980D02*
X137641009Y-86421980D01*
X137974342Y-87421980D01*
X138783866Y-86421980D02*
X138307676Y-86421980D01*
X138260057Y-86898171D01*
X138307676Y-86850552D01*
X138402914Y-86802933D01*
X138641009Y-86802933D01*
X138736247Y-86850552D01*
X138783866Y-86898171D01*
X138831485Y-86993409D01*
X138831485Y-87231504D01*
X138783866Y-87326742D01*
X138736247Y-87374361D01*
X138641009Y-87421980D01*
X138402914Y-87421980D01*
X138307676Y-87374361D01*
X138260057Y-87326742D01*
X181675161Y-83662780D02*
X181341828Y-83186590D01*
X181103733Y-83662780D02*
X181103733Y-82662780D01*
X181484685Y-82662780D01*
X181579923Y-82710400D01*
X181627542Y-82758019D01*
X181675161Y-82853257D01*
X181675161Y-82996114D01*
X181627542Y-83091352D01*
X181579923Y-83138971D01*
X181484685Y-83186590D01*
X181103733Y-83186590D01*
X182056114Y-83377066D02*
X182532304Y-83377066D01*
X181960876Y-83662780D02*
X182294209Y-82662780D01*
X182627542Y-83662780D01*
X183389447Y-82662780D02*
X183198971Y-82662780D01*
X183103733Y-82710400D01*
X183056114Y-82758019D01*
X182960876Y-82900876D01*
X182913257Y-83091352D01*
X182913257Y-83472304D01*
X182960876Y-83567542D01*
X183008495Y-83615161D01*
X183103733Y-83662780D01*
X183294209Y-83662780D01*
X183389447Y-83615161D01*
X183437066Y-83567542D01*
X183484685Y-83472304D01*
X183484685Y-83234209D01*
X183437066Y-83138971D01*
X183389447Y-83091352D01*
X183294209Y-83043733D01*
X183103733Y-83043733D01*
X183008495Y-83091352D01*
X182960876Y-83138971D01*
X182913257Y-83234209D01*
X136209161Y-82240380D02*
X135875828Y-81764190D01*
X135637733Y-82240380D02*
X135637733Y-81240380D01*
X136018685Y-81240380D01*
X136113923Y-81288000D01*
X136161542Y-81335619D01*
X136209161Y-81430857D01*
X136209161Y-81573714D01*
X136161542Y-81668952D01*
X136113923Y-81716571D01*
X136018685Y-81764190D01*
X135637733Y-81764190D01*
X136590114Y-81954666D02*
X137066304Y-81954666D01*
X136494876Y-82240380D02*
X136828209Y-81240380D01*
X137161542Y-82240380D01*
X137399638Y-81240380D02*
X138066304Y-81240380D01*
X137637733Y-82240380D01*
X173729733Y-88996780D02*
X173396400Y-88520590D01*
X173158304Y-88996780D02*
X173158304Y-87996780D01*
X173539257Y-87996780D01*
X173634495Y-88044400D01*
X173682114Y-88092019D01*
X173729733Y-88187257D01*
X173729733Y-88330114D01*
X173682114Y-88425352D01*
X173634495Y-88472971D01*
X173539257Y-88520590D01*
X173158304Y-88520590D01*
X174491638Y-88472971D02*
X174634495Y-88520590D01*
X174682114Y-88568209D01*
X174729733Y-88663447D01*
X174729733Y-88806304D01*
X174682114Y-88901542D01*
X174634495Y-88949161D01*
X174539257Y-88996780D01*
X174158304Y-88996780D01*
X174158304Y-87996780D01*
X174491638Y-87996780D01*
X174586876Y-88044400D01*
X174634495Y-88092019D01*
X174682114Y-88187257D01*
X174682114Y-88282495D01*
X174634495Y-88377733D01*
X174586876Y-88425352D01*
X174491638Y-88472971D01*
X174158304Y-88472971D01*
X175682114Y-88996780D02*
X175110685Y-88996780D01*
X175396400Y-88996780D02*
X175396400Y-87996780D01*
X175301161Y-88139638D01*
X175205923Y-88234876D01*
X175110685Y-88282495D01*
X183840380Y-76663466D02*
X183364190Y-76996800D01*
X183840380Y-77234895D02*
X182840380Y-77234895D01*
X182840380Y-76853942D01*
X182888000Y-76758704D01*
X182935619Y-76711085D01*
X183030857Y-76663466D01*
X183173714Y-76663466D01*
X183268952Y-76711085D01*
X183316571Y-76758704D01*
X183364190Y-76853942D01*
X183364190Y-77234895D01*
X183316571Y-75901561D02*
X183364190Y-75758704D01*
X183411809Y-75711085D01*
X183507047Y-75663466D01*
X183649904Y-75663466D01*
X183745142Y-75711085D01*
X183792761Y-75758704D01*
X183840380Y-75853942D01*
X183840380Y-76234895D01*
X182840380Y-76234895D01*
X182840380Y-75901561D01*
X182888000Y-75806323D01*
X182935619Y-75758704D01*
X183030857Y-75711085D01*
X183126095Y-75711085D01*
X183221333Y-75758704D01*
X183268952Y-75806323D01*
X183316571Y-75901561D01*
X183316571Y-76234895D01*
X182935619Y-75282514D02*
X182888000Y-75234895D01*
X182840380Y-75139657D01*
X182840380Y-74901561D01*
X182888000Y-74806323D01*
X182935619Y-74758704D01*
X183030857Y-74711085D01*
X183126095Y-74711085D01*
X183268952Y-74758704D01*
X183840380Y-75330133D01*
X183840380Y-74711085D01*
X152190533Y-97175580D02*
X151857200Y-96699390D01*
X151619104Y-97175580D02*
X151619104Y-96175580D01*
X152000057Y-96175580D01*
X152095295Y-96223200D01*
X152142914Y-96270819D01*
X152190533Y-96366057D01*
X152190533Y-96508914D01*
X152142914Y-96604152D01*
X152095295Y-96651771D01*
X152000057Y-96699390D01*
X151619104Y-96699390D01*
X152952438Y-96651771D02*
X153095295Y-96699390D01*
X153142914Y-96747009D01*
X153190533Y-96842247D01*
X153190533Y-96985104D01*
X153142914Y-97080342D01*
X153095295Y-97127961D01*
X153000057Y-97175580D01*
X152619104Y-97175580D01*
X152619104Y-96175580D01*
X152952438Y-96175580D01*
X153047676Y-96223200D01*
X153095295Y-96270819D01*
X153142914Y-96366057D01*
X153142914Y-96461295D01*
X153095295Y-96556533D01*
X153047676Y-96604152D01*
X152952438Y-96651771D01*
X152619104Y-96651771D01*
X153523866Y-96175580D02*
X154142914Y-96175580D01*
X153809580Y-96556533D01*
X153952438Y-96556533D01*
X154047676Y-96604152D01*
X154095295Y-96651771D01*
X154142914Y-96747009D01*
X154142914Y-96985104D01*
X154095295Y-97080342D01*
X154047676Y-97127961D01*
X153952438Y-97175580D01*
X153666723Y-97175580D01*
X153571485Y-97127961D01*
X153523866Y-97080342D01*
X182647580Y-80879866D02*
X182171390Y-81213200D01*
X182647580Y-81451295D02*
X181647580Y-81451295D01*
X181647580Y-81070342D01*
X181695200Y-80975104D01*
X181742819Y-80927485D01*
X181838057Y-80879866D01*
X181980914Y-80879866D01*
X182076152Y-80927485D01*
X182123771Y-80975104D01*
X182171390Y-81070342D01*
X182171390Y-81451295D01*
X182123771Y-80117961D02*
X182171390Y-79975104D01*
X182219009Y-79927485D01*
X182314247Y-79879866D01*
X182457104Y-79879866D01*
X182552342Y-79927485D01*
X182599961Y-79975104D01*
X182647580Y-80070342D01*
X182647580Y-80451295D01*
X181647580Y-80451295D01*
X181647580Y-80117961D01*
X181695200Y-80022723D01*
X181742819Y-79975104D01*
X181838057Y-79927485D01*
X181933295Y-79927485D01*
X182028533Y-79975104D01*
X182076152Y-80022723D01*
X182123771Y-80117961D01*
X182123771Y-80451295D01*
X181980914Y-79022723D02*
X182647580Y-79022723D01*
X181599961Y-79260819D02*
X182314247Y-79498914D01*
X182314247Y-78879866D01*
X137814133Y-95956380D02*
X137480800Y-95480190D01*
X137242704Y-95956380D02*
X137242704Y-94956380D01*
X137623657Y-94956380D01*
X137718895Y-95004000D01*
X137766514Y-95051619D01*
X137814133Y-95146857D01*
X137814133Y-95289714D01*
X137766514Y-95384952D01*
X137718895Y-95432571D01*
X137623657Y-95480190D01*
X137242704Y-95480190D01*
X138576038Y-95432571D02*
X138718895Y-95480190D01*
X138766514Y-95527809D01*
X138814133Y-95623047D01*
X138814133Y-95765904D01*
X138766514Y-95861142D01*
X138718895Y-95908761D01*
X138623657Y-95956380D01*
X138242704Y-95956380D01*
X138242704Y-94956380D01*
X138576038Y-94956380D01*
X138671276Y-95004000D01*
X138718895Y-95051619D01*
X138766514Y-95146857D01*
X138766514Y-95242095D01*
X138718895Y-95337333D01*
X138671276Y-95384952D01*
X138576038Y-95432571D01*
X138242704Y-95432571D01*
X139718895Y-94956380D02*
X139242704Y-94956380D01*
X139195085Y-95432571D01*
X139242704Y-95384952D01*
X139337942Y-95337333D01*
X139576038Y-95337333D01*
X139671276Y-95384952D01*
X139718895Y-95432571D01*
X139766514Y-95527809D01*
X139766514Y-95765904D01*
X139718895Y-95861142D01*
X139671276Y-95908761D01*
X139576038Y-95956380D01*
X139337942Y-95956380D01*
X139242704Y-95908761D01*
X139195085Y-95861142D01*
X176676133Y-96819980D02*
X176342800Y-96343790D01*
X176104704Y-96819980D02*
X176104704Y-95819980D01*
X176485657Y-95819980D01*
X176580895Y-95867600D01*
X176628514Y-95915219D01*
X176676133Y-96010457D01*
X176676133Y-96153314D01*
X176628514Y-96248552D01*
X176580895Y-96296171D01*
X176485657Y-96343790D01*
X176104704Y-96343790D01*
X177438038Y-96296171D02*
X177580895Y-96343790D01*
X177628514Y-96391409D01*
X177676133Y-96486647D01*
X177676133Y-96629504D01*
X177628514Y-96724742D01*
X177580895Y-96772361D01*
X177485657Y-96819980D01*
X177104704Y-96819980D01*
X177104704Y-95819980D01*
X177438038Y-95819980D01*
X177533276Y-95867600D01*
X177580895Y-95915219D01*
X177628514Y-96010457D01*
X177628514Y-96105695D01*
X177580895Y-96200933D01*
X177533276Y-96248552D01*
X177438038Y-96296171D01*
X177104704Y-96296171D01*
X178533276Y-95819980D02*
X178342800Y-95819980D01*
X178247561Y-95867600D01*
X178199942Y-95915219D01*
X178104704Y-96058076D01*
X178057085Y-96248552D01*
X178057085Y-96629504D01*
X178104704Y-96724742D01*
X178152323Y-96772361D01*
X178247561Y-96819980D01*
X178438038Y-96819980D01*
X178533276Y-96772361D01*
X178580895Y-96724742D01*
X178628514Y-96629504D01*
X178628514Y-96391409D01*
X178580895Y-96296171D01*
X178533276Y-96248552D01*
X178438038Y-96200933D01*
X178247561Y-96200933D01*
X178152323Y-96248552D01*
X178104704Y-96296171D01*
X178057085Y-96391409D01*
X133089733Y-82189580D02*
X132756400Y-81713390D01*
X132518304Y-82189580D02*
X132518304Y-81189580D01*
X132899257Y-81189580D01*
X132994495Y-81237200D01*
X133042114Y-81284819D01*
X133089733Y-81380057D01*
X133089733Y-81522914D01*
X133042114Y-81618152D01*
X132994495Y-81665771D01*
X132899257Y-81713390D01*
X132518304Y-81713390D01*
X133851638Y-81665771D02*
X133994495Y-81713390D01*
X134042114Y-81761009D01*
X134089733Y-81856247D01*
X134089733Y-81999104D01*
X134042114Y-82094342D01*
X133994495Y-82141961D01*
X133899257Y-82189580D01*
X133518304Y-82189580D01*
X133518304Y-81189580D01*
X133851638Y-81189580D01*
X133946876Y-81237200D01*
X133994495Y-81284819D01*
X134042114Y-81380057D01*
X134042114Y-81475295D01*
X133994495Y-81570533D01*
X133946876Y-81618152D01*
X133851638Y-81665771D01*
X133518304Y-81665771D01*
X134423066Y-81189580D02*
X135089733Y-81189580D01*
X134661161Y-82189580D01*
X150970095Y-69800780D02*
X150970095Y-70610304D01*
X151017714Y-70705542D01*
X151065333Y-70753161D01*
X151160571Y-70800780D01*
X151351047Y-70800780D01*
X151446285Y-70753161D01*
X151493904Y-70705542D01*
X151541523Y-70610304D01*
X151541523Y-69800780D01*
X152541523Y-70800780D02*
X151970095Y-70800780D01*
X152255809Y-70800780D02*
X152255809Y-69800780D01*
X152160571Y-69943638D01*
X152065333Y-70038876D01*
X151970095Y-70086495D01*
X140106495Y-71791580D02*
X140106495Y-72601104D01*
X140154114Y-72696342D01*
X140201733Y-72743961D01*
X140296971Y-72791580D01*
X140487447Y-72791580D01*
X140582685Y-72743961D01*
X140630304Y-72696342D01*
X140677923Y-72601104D01*
X140677923Y-71791580D01*
X141106495Y-71886819D02*
X141154114Y-71839200D01*
X141249352Y-71791580D01*
X141487447Y-71791580D01*
X141582685Y-71839200D01*
X141630304Y-71886819D01*
X141677923Y-71982057D01*
X141677923Y-72077295D01*
X141630304Y-72220152D01*
X141058876Y-72791580D01*
X141677923Y-72791580D01*
X205975104Y-68591180D02*
X205975104Y-69400704D01*
X206022723Y-69495942D01*
X206070342Y-69543561D01*
X206165580Y-69591180D01*
X206356057Y-69591180D01*
X206451295Y-69543561D01*
X206498914Y-69495942D01*
X206546533Y-69400704D01*
X206546533Y-68591180D01*
X207546533Y-69591180D02*
X206975104Y-69591180D01*
X207260819Y-69591180D02*
X207260819Y-68591180D01*
X207165580Y-68734038D01*
X207070342Y-68829276D01*
X206975104Y-68876895D01*
X207879866Y-68591180D02*
X208546533Y-68591180D01*
X208117961Y-69591180D01*
X158596057Y-73515142D02*
X158596057Y-73872285D01*
X158346057Y-73122285D02*
X158596057Y-73515142D01*
X158846057Y-73122285D01*
X159488914Y-73872285D02*
X159060342Y-73872285D01*
X159274628Y-73872285D02*
X159274628Y-73122285D01*
X159203200Y-73229428D01*
X159131771Y-73300857D01*
X159060342Y-73336571D01*
D12*
X128647866Y-75499980D02*
X128647866Y-76214266D01*
X128600247Y-76357123D01*
X128505009Y-76452361D01*
X128362152Y-76499980D01*
X128266914Y-76499980D01*
X129647866Y-76499980D02*
X129076438Y-76499980D01*
X129362152Y-76499980D02*
X129362152Y-75499980D01*
X129266914Y-75642838D01*
X129171676Y-75738076D01*
X129076438Y-75785695D01*
D11*
X192995561Y-70143619D02*
X192900323Y-70096000D01*
X192805085Y-70000761D01*
X192662228Y-69857904D01*
X192566990Y-69810285D01*
X192471752Y-69810285D01*
X192519371Y-70048380D02*
X192424133Y-70000761D01*
X192328895Y-69905523D01*
X192281276Y-69715047D01*
X192281276Y-69381714D01*
X192328895Y-69191238D01*
X192424133Y-69096000D01*
X192519371Y-69048380D01*
X192709847Y-69048380D01*
X192805085Y-69096000D01*
X192900323Y-69191238D01*
X192947942Y-69381714D01*
X192947942Y-69715047D01*
X192900323Y-69905523D01*
X192805085Y-70000761D01*
X192709847Y-70048380D01*
X192519371Y-70048380D01*
X193900323Y-70048380D02*
X193328895Y-70048380D01*
X193614609Y-70048380D02*
X193614609Y-69048380D01*
X193519371Y-69191238D01*
X193424133Y-69286476D01*
X193328895Y-69334095D01*
X183241961Y-58002419D02*
X183146723Y-57954800D01*
X183051485Y-57859561D01*
X182908628Y-57716704D01*
X182813390Y-57669085D01*
X182718152Y-57669085D01*
X182765771Y-57907180D02*
X182670533Y-57859561D01*
X182575295Y-57764323D01*
X182527676Y-57573847D01*
X182527676Y-57240514D01*
X182575295Y-57050038D01*
X182670533Y-56954800D01*
X182765771Y-56907180D01*
X182956247Y-56907180D01*
X183051485Y-56954800D01*
X183146723Y-57050038D01*
X183194342Y-57240514D01*
X183194342Y-57573847D01*
X183146723Y-57764323D01*
X183051485Y-57859561D01*
X182956247Y-57907180D01*
X182765771Y-57907180D01*
X183575295Y-57002419D02*
X183622914Y-56954800D01*
X183718152Y-56907180D01*
X183956247Y-56907180D01*
X184051485Y-56954800D01*
X184099104Y-57002419D01*
X184146723Y-57097657D01*
X184146723Y-57192895D01*
X184099104Y-57335752D01*
X183527676Y-57907180D01*
X184146723Y-57907180D01*
X203104761Y-67552819D02*
X203009523Y-67505200D01*
X202914285Y-67409961D01*
X202771428Y-67267104D01*
X202676190Y-67219485D01*
X202580952Y-67219485D01*
X202628571Y-67457580D02*
X202533333Y-67409961D01*
X202438095Y-67314723D01*
X202390476Y-67124247D01*
X202390476Y-66790914D01*
X202438095Y-66600438D01*
X202533333Y-66505200D01*
X202628571Y-66457580D01*
X202819047Y-66457580D01*
X202914285Y-66505200D01*
X203009523Y-66600438D01*
X203057142Y-66790914D01*
X203057142Y-67124247D01*
X203009523Y-67314723D01*
X202914285Y-67409961D01*
X202819047Y-67457580D01*
X202628571Y-67457580D01*
X203390476Y-66457580D02*
X204009523Y-66457580D01*
X203676190Y-66838533D01*
X203819047Y-66838533D01*
X203914285Y-66886152D01*
X203961904Y-66933771D01*
X204009523Y-67029009D01*
X204009523Y-67267104D01*
X203961904Y-67362342D01*
X203914285Y-67409961D01*
X203819047Y-67457580D01*
X203533333Y-67457580D01*
X203438095Y-67409961D01*
X203390476Y-67362342D01*
X196653161Y-62168019D02*
X196557923Y-62120400D01*
X196462685Y-62025161D01*
X196319828Y-61882304D01*
X196224590Y-61834685D01*
X196129352Y-61834685D01*
X196176971Y-62072780D02*
X196081733Y-62025161D01*
X195986495Y-61929923D01*
X195938876Y-61739447D01*
X195938876Y-61406114D01*
X195986495Y-61215638D01*
X196081733Y-61120400D01*
X196176971Y-61072780D01*
X196367447Y-61072780D01*
X196462685Y-61120400D01*
X196557923Y-61215638D01*
X196605542Y-61406114D01*
X196605542Y-61739447D01*
X196557923Y-61929923D01*
X196462685Y-62025161D01*
X196367447Y-62072780D01*
X196176971Y-62072780D01*
X197462685Y-61406114D02*
X197462685Y-62072780D01*
X197224590Y-61025161D02*
X196986495Y-61739447D01*
X197605542Y-61739447D01*
D12*
X143317980Y-52882704D02*
X144127504Y-52882704D01*
X144222742Y-52835085D01*
X144270361Y-52787466D01*
X144317980Y-52692228D01*
X144317980Y-52501752D01*
X144270361Y-52406514D01*
X144222742Y-52358895D01*
X144127504Y-52311276D01*
X143317980Y-52311276D01*
X143651314Y-51406514D02*
X144317980Y-51406514D01*
X143270361Y-51644609D02*
X143984647Y-51882704D01*
X143984647Y-51263657D01*
D11*
X131845847Y-47442380D02*
X131845847Y-46442380D01*
X132417276Y-47442380D01*
X132417276Y-46442380D01*
X133464895Y-47347142D02*
X133417276Y-47394761D01*
X133274419Y-47442380D01*
X133179180Y-47442380D01*
X133036323Y-47394761D01*
X132941085Y-47299523D01*
X132893466Y-47204285D01*
X132845847Y-47013809D01*
X132845847Y-46870952D01*
X132893466Y-46680476D01*
X132941085Y-46585238D01*
X133036323Y-46490000D01*
X133179180Y-46442380D01*
X133274419Y-46442380D01*
X133417276Y-46490000D01*
X133464895Y-46537619D01*
X133893466Y-47442380D02*
X133893466Y-46442380D01*
X134274419Y-46442380D01*
X134369657Y-46490000D01*
X134417276Y-46537619D01*
X134464895Y-46632857D01*
X134464895Y-46775714D01*
X134417276Y-46870952D01*
X134369657Y-46918571D01*
X134274419Y-46966190D01*
X133893466Y-46966190D01*
X135417276Y-47442380D02*
X134845847Y-47442380D01*
X135131561Y-47442380D02*
X135131561Y-46442380D01*
X135036323Y-46585238D01*
X134941085Y-46680476D01*
X134845847Y-46728095D01*
X136369657Y-47442380D02*
X135798228Y-47442380D01*
X136083942Y-47442380D02*
X136083942Y-46442380D01*
X135988704Y-46585238D01*
X135893466Y-46680476D01*
X135798228Y-46728095D01*
X137322038Y-47442380D02*
X136750609Y-47442380D01*
X137036323Y-47442380D02*
X137036323Y-46442380D01*
X136941085Y-46585238D01*
X136845847Y-46680476D01*
X136750609Y-46728095D01*
X137655371Y-46442380D02*
X138322038Y-46442380D01*
X137893466Y-47442380D01*
X138702990Y-47442380D02*
X138702990Y-46442380D01*
X138941085Y-46442380D01*
X139083942Y-46490000D01*
X139179180Y-46585238D01*
X139226800Y-46680476D01*
X139274419Y-46870952D01*
X139274419Y-47013809D01*
X139226800Y-47204285D01*
X139179180Y-47299523D01*
X139083942Y-47394761D01*
X138941085Y-47442380D01*
X138702990Y-47442380D01*
X139560133Y-46442380D02*
X140131561Y-46442380D01*
X139845847Y-47442380D02*
X139845847Y-46442380D01*
X140369657Y-46442380D02*
X140988704Y-46442380D01*
X140655371Y-46823333D01*
X140798228Y-46823333D01*
X140893466Y-46870952D01*
X140941085Y-46918571D01*
X140988704Y-47013809D01*
X140988704Y-47251904D01*
X140941085Y-47347142D01*
X140893466Y-47394761D01*
X140798228Y-47442380D01*
X140512514Y-47442380D01*
X140417276Y-47394761D01*
X140369657Y-47347142D01*
X141322038Y-46442380D02*
X141941085Y-46442380D01*
X141607752Y-46823333D01*
X141750609Y-46823333D01*
X141845847Y-46870952D01*
X141893466Y-46918571D01*
X141941085Y-47013809D01*
X141941085Y-47251904D01*
X141893466Y-47347142D01*
X141845847Y-47394761D01*
X141750609Y-47442380D01*
X141464895Y-47442380D01*
X141369657Y-47394761D01*
X141322038Y-47347142D01*
X142226800Y-46442380D02*
X142798228Y-46442380D01*
X142512514Y-47442380D02*
X142512514Y-46442380D01*
X143607752Y-46442380D02*
X143131561Y-46442380D01*
X143083942Y-46918571D01*
X143131561Y-46870952D01*
X143226800Y-46823333D01*
X143464895Y-46823333D01*
X143560133Y-46870952D01*
X143607752Y-46918571D01*
X143655371Y-47013809D01*
X143655371Y-47251904D01*
X143607752Y-47347142D01*
X143560133Y-47394761D01*
X143464895Y-47442380D01*
X143226800Y-47442380D01*
X143131561Y-47394761D01*
X143083942Y-47347142D01*
X144607752Y-46490000D02*
X144512514Y-46442380D01*
X144369657Y-46442380D01*
X144226800Y-46490000D01*
X144131561Y-46585238D01*
X144083942Y-46680476D01*
X144036323Y-46870952D01*
X144036323Y-47013809D01*
X144083942Y-47204285D01*
X144131561Y-47299523D01*
X144226800Y-47394761D01*
X144369657Y-47442380D01*
X144464895Y-47442380D01*
X144607752Y-47394761D01*
X144655371Y-47347142D01*
X144655371Y-47013809D01*
X144464895Y-47013809D01*
X159612300Y-94904578D02*
X159612300Y-95715584D01*
X159660007Y-95810996D01*
X159707713Y-95858702D01*
X159803125Y-95906408D01*
X159993950Y-95906408D01*
X160089362Y-95858702D01*
X160137069Y-95810996D01*
X160184775Y-95715584D01*
X160184775Y-94904578D01*
X160566424Y-94904578D02*
X161186605Y-94904578D01*
X160852661Y-95286228D01*
X160995780Y-95286228D01*
X161091192Y-95333934D01*
X161138899Y-95381640D01*
X161186605Y-95477053D01*
X161186605Y-95715584D01*
X161138899Y-95810996D01*
X161091192Y-95858702D01*
X160995780Y-95906408D01*
X160709543Y-95906408D01*
X160614130Y-95858702D01*
X160566424Y-95810996D01*
X186084558Y-88823929D02*
X186895564Y-88823929D01*
X186990976Y-88776222D01*
X187038682Y-88728516D01*
X187086388Y-88633104D01*
X187086388Y-88442279D01*
X187038682Y-88346867D01*
X186990976Y-88299160D01*
X186895564Y-88251454D01*
X186084558Y-88251454D01*
X186084558Y-87297330D02*
X186084558Y-87774392D01*
X186561620Y-87822099D01*
X186513914Y-87774392D01*
X186466208Y-87678980D01*
X186466208Y-87440449D01*
X186513914Y-87345037D01*
X186561620Y-87297330D01*
X186657033Y-87249624D01*
X186895564Y-87249624D01*
X186990976Y-87297330D01*
X187038682Y-87345037D01*
X187086388Y-87440449D01*
X187086388Y-87678980D01*
X187038682Y-87774392D01*
X186990976Y-87822099D01*
X147674300Y-96428578D02*
X147674300Y-97239584D01*
X147722007Y-97334996D01*
X147769713Y-97382702D01*
X147865125Y-97430408D01*
X148055950Y-97430408D01*
X148151362Y-97382702D01*
X148199069Y-97334996D01*
X148246775Y-97239584D01*
X148246775Y-96428578D01*
X148628424Y-96428578D02*
X149296311Y-96428578D01*
X148866955Y-97430408D01*
X178616958Y-88569929D02*
X179427964Y-88569929D01*
X179523376Y-88522222D01*
X179571082Y-88474516D01*
X179618788Y-88379104D01*
X179618788Y-88188279D01*
X179571082Y-88092867D01*
X179523376Y-88045160D01*
X179427964Y-87997454D01*
X178616958Y-87997454D01*
X179618788Y-87472686D02*
X179618788Y-87281861D01*
X179571082Y-87186449D01*
X179523376Y-87138743D01*
X179380257Y-87043330D01*
X179189433Y-86995624D01*
X178807783Y-86995624D01*
X178712371Y-87043330D01*
X178664665Y-87091037D01*
X178616958Y-87186449D01*
X178616958Y-87377274D01*
X178664665Y-87472686D01*
X178712371Y-87520392D01*
X178807783Y-87568099D01*
X179046314Y-87568099D01*
X179141726Y-87520392D01*
X179189433Y-87472686D01*
X179237139Y-87377274D01*
X179237139Y-87186449D01*
X179189433Y-87091037D01*
X179141726Y-87043330D01*
X179046314Y-86995624D01*
X133786039Y-95006178D02*
X133786039Y-95817184D01*
X133833745Y-95912596D01*
X133881451Y-95960302D01*
X133976863Y-96008008D01*
X134167688Y-96008008D01*
X134263100Y-95960302D01*
X134310807Y-95912596D01*
X134358513Y-95817184D01*
X134358513Y-95006178D01*
X135360343Y-96008008D02*
X134787869Y-96008008D01*
X135074106Y-96008008D02*
X135074106Y-95006178D01*
X134978693Y-95149297D01*
X134883281Y-95244709D01*
X134787869Y-95292415D01*
X136314467Y-96008008D02*
X135741992Y-96008008D01*
X136028230Y-96008008D02*
X136028230Y-95006178D01*
X135932817Y-95149297D01*
X135837405Y-95244709D01*
X135741992Y-95292415D01*
X170770704Y-90181180D02*
X170770704Y-90990704D01*
X170818323Y-91085942D01*
X170865942Y-91133561D01*
X170961180Y-91181180D01*
X171151657Y-91181180D01*
X171246895Y-91133561D01*
X171294514Y-91085942D01*
X171342133Y-90990704D01*
X171342133Y-90181180D01*
X172342133Y-91181180D02*
X171770704Y-91181180D01*
X172056419Y-91181180D02*
X172056419Y-90181180D01*
X171961180Y-90324038D01*
X171865942Y-90419276D01*
X171770704Y-90466895D01*
X172675466Y-90181180D02*
X173294514Y-90181180D01*
X172961180Y-90562133D01*
X173104038Y-90562133D01*
X173199276Y-90609752D01*
X173246895Y-90657371D01*
X173294514Y-90752609D01*
X173294514Y-90990704D01*
X173246895Y-91085942D01*
X173199276Y-91133561D01*
X173104038Y-91181180D01*
X172818323Y-91181180D01*
X172723085Y-91133561D01*
X172675466Y-91085942D01*
X127626025Y-80515904D02*
X127626025Y-81325428D01*
X127673644Y-81420666D01*
X127721263Y-81468285D01*
X127816501Y-81515904D01*
X128006978Y-81515904D01*
X128102216Y-81468285D01*
X128149835Y-81420666D01*
X128197454Y-81325428D01*
X128197454Y-80515904D01*
X129197454Y-81515904D02*
X128626025Y-81515904D01*
X128911740Y-81515904D02*
X128911740Y-80515904D01*
X128816501Y-80658762D01*
X128721263Y-80754000D01*
X128626025Y-80801619D01*
X130054597Y-80515904D02*
X129864121Y-80515904D01*
X129768882Y-80563524D01*
X129721263Y-80611143D01*
X129626025Y-80754000D01*
X129578406Y-80944476D01*
X129578406Y-81325428D01*
X129626025Y-81420666D01*
X129673644Y-81468285D01*
X129768882Y-81515904D01*
X129959359Y-81515904D01*
X130054597Y-81468285D01*
X130102216Y-81420666D01*
X130149835Y-81325428D01*
X130149835Y-81087333D01*
X130102216Y-80992095D01*
X130054597Y-80944476D01*
X129959359Y-80896857D01*
X129768882Y-80896857D01*
X129673644Y-80944476D01*
X129626025Y-80992095D01*
X129578406Y-81087333D01*
D12*
X185928095Y-67067180D02*
X185928095Y-67876704D01*
X185975714Y-67971942D01*
X186023333Y-68019561D01*
X186118571Y-68067180D01*
X186309047Y-68067180D01*
X186404285Y-68019561D01*
X186451904Y-67971942D01*
X186499523Y-67876704D01*
X186499523Y-67067180D01*
X187404285Y-67067180D02*
X187213809Y-67067180D01*
X187118571Y-67114800D01*
X187070952Y-67162419D01*
X186975714Y-67305276D01*
X186928095Y-67495752D01*
X186928095Y-67876704D01*
X186975714Y-67971942D01*
X187023333Y-68019561D01*
X187118571Y-68067180D01*
X187309047Y-68067180D01*
X187404285Y-68019561D01*
X187451904Y-67971942D01*
X187499523Y-67876704D01*
X187499523Y-67638609D01*
X187451904Y-67543371D01*
X187404285Y-67495752D01*
X187309047Y-67448133D01*
X187118571Y-67448133D01*
X187023333Y-67495752D01*
X186975714Y-67543371D01*
X186928095Y-67638609D01*
X183057800Y-61555380D02*
X183057800Y-61793476D01*
X182819704Y-61698238D02*
X183057800Y-61793476D01*
X183295895Y-61698238D01*
X182914942Y-61983952D02*
X183057800Y-61793476D01*
X183200657Y-61983952D01*
D18*
X118452266Y-46077580D02*
X118452266Y-46791866D01*
X118404647Y-46934723D01*
X118309409Y-47029961D01*
X118166552Y-47077580D01*
X118071314Y-47077580D01*
X119404647Y-46077580D02*
X118928457Y-46077580D01*
X118880838Y-46553771D01*
X118928457Y-46506152D01*
X119023695Y-46458533D01*
X119261790Y-46458533D01*
X119357028Y-46506152D01*
X119404647Y-46553771D01*
X119452266Y-46649009D01*
X119452266Y-46887104D01*
X119404647Y-46982342D01*
X119357028Y-47029961D01*
X119261790Y-47077580D01*
X119023695Y-47077580D01*
X118928457Y-47029961D01*
X118880838Y-46982342D01*
D12*
X202295166Y-92783860D02*
X202295166Y-93498146D01*
X202247547Y-93641003D01*
X202152309Y-93736241D01*
X202009452Y-93783860D01*
X201914214Y-93783860D01*
X202914214Y-93212432D02*
X202818976Y-93164813D01*
X202771357Y-93117194D01*
X202723738Y-93021956D01*
X202723738Y-92974337D01*
X202771357Y-92879099D01*
X202818976Y-92831480D01*
X202914214Y-92783860D01*
X203104690Y-92783860D01*
X203199928Y-92831480D01*
X203247547Y-92879099D01*
X203295166Y-92974337D01*
X203295166Y-93021956D01*
X203247547Y-93117194D01*
X203199928Y-93164813D01*
X203104690Y-93212432D01*
X202914214Y-93212432D01*
X202818976Y-93260051D01*
X202771357Y-93307670D01*
X202723738Y-93402908D01*
X202723738Y-93593384D01*
X202771357Y-93688622D01*
X202818976Y-93736241D01*
X202914214Y-93783860D01*
X203104690Y-93783860D01*
X203199928Y-93736241D01*
X203247547Y-93688622D01*
X203295166Y-93593384D01*
X203295166Y-93402908D01*
X203247547Y-93307670D01*
X203199928Y-93260051D01*
X203104690Y-93212432D01*
D18*
X205815360Y-100635273D02*
X206529646Y-100635273D01*
X206672503Y-100682892D01*
X206767741Y-100778130D01*
X206815360Y-100920987D01*
X206815360Y-101016225D01*
X205815360Y-100254320D02*
X205815360Y-99587654D01*
X206815360Y-100016225D01*
M02*
