G04 #@! TF.GenerationSoftware,KiCad,Pcbnew,5.0.1-33cea8e~68~ubuntu18.04.1*
G04 #@! TF.CreationDate,2019-11-28T12:45:06-05:00*
G04 #@! TF.ProjectId,new_synth_transistor,6E65775F73796E74685F7472616E7369,rev?*
G04 #@! TF.SameCoordinates,Original*
G04 #@! TF.FileFunction,Paste,Top*
G04 #@! TF.FilePolarity,Positive*
%FSLAX46Y46*%
G04 Gerber Fmt 4.6, Leading zero omitted, Abs format (unit mm)*
G04 Created by KiCad (PCBNEW 5.0.1-33cea8e~68~ubuntu18.04.1) date Thu 28 Nov 2019 12:45:06 PM EST*
%MOMM*%
%LPD*%
G01*
G04 APERTURE LIST*
%ADD10R,0.600000X1.970000*%
%ADD11R,2.200000X0.600000*%
%ADD12R,0.558800X2.159000*%
%ADD13C,0.100000*%
%ADD14C,0.975000*%
%ADD15R,1.168400X0.482600*%
%ADD16R,0.482600X1.168400*%
%ADD17R,0.800000X0.900000*%
%ADD18R,1.970000X0.600000*%
%ADD19R,0.600000X2.200000*%
G04 APERTURE END LIST*
D10*
G04 #@! TO.C,U12*
X272191529Y-34803212D03*
X270921529Y-34803212D03*
X269651529Y-34803212D03*
X268381529Y-34803212D03*
X267111529Y-34803212D03*
X265841529Y-34803212D03*
X264571529Y-34803212D03*
X264571529Y-39753212D03*
X265841529Y-39753212D03*
X267111529Y-39753212D03*
X268381529Y-39753212D03*
X269651529Y-39753212D03*
X270921529Y-39753212D03*
X272191529Y-39753212D03*
G04 #@! TD*
D11*
G04 #@! TO.C,U10*
X231546448Y-88244494D03*
X226346448Y-88244494D03*
X231546448Y-89514494D03*
X231546448Y-86974494D03*
X231546448Y-85704494D03*
X226346448Y-89514494D03*
X226346448Y-86974494D03*
X226346448Y-85704494D03*
G04 #@! TD*
G04 #@! TO.C,U6*
X276620280Y-97388680D03*
X276620280Y-96118680D03*
X276620280Y-93578680D03*
X271420280Y-97388680D03*
X271420280Y-96118680D03*
X271420280Y-93578680D03*
X276620280Y-94848680D03*
X271420280Y-94848680D03*
G04 #@! TD*
G04 #@! TO.C,U4*
X233852970Y-97682153D03*
X228652970Y-97682153D03*
X233852970Y-98952153D03*
X233852970Y-96412153D03*
X233852970Y-95142153D03*
X228652970Y-98952153D03*
X228652970Y-96412153D03*
X228652970Y-95142153D03*
G04 #@! TD*
D12*
G04 #@! TO.C,U11*
X250427100Y-34203102D03*
X251697100Y-34203102D03*
X252967100Y-34203102D03*
X254237100Y-34203102D03*
X255507100Y-34203102D03*
X256777100Y-34203102D03*
X258047100Y-34203102D03*
X258047100Y-27446702D03*
X256777100Y-27446702D03*
X255507100Y-27446702D03*
X254237100Y-27446702D03*
X252967100Y-27446702D03*
X251697100Y-27446702D03*
X250427100Y-27446702D03*
G04 #@! TD*
D13*
G04 #@! TO.C,C1*
G36*
X247757536Y-91095885D02*
X247781197Y-91099395D01*
X247804401Y-91105207D01*
X247826923Y-91113265D01*
X247848547Y-91123493D01*
X247869064Y-91135790D01*
X247888277Y-91150040D01*
X247906001Y-91166104D01*
X247922065Y-91183828D01*
X247936315Y-91203041D01*
X247948612Y-91223558D01*
X247958840Y-91245182D01*
X247966898Y-91267704D01*
X247972710Y-91290908D01*
X247976220Y-91314569D01*
X247977394Y-91338461D01*
X247977394Y-92250961D01*
X247976220Y-92274853D01*
X247972710Y-92298514D01*
X247966898Y-92321718D01*
X247958840Y-92344240D01*
X247948612Y-92365864D01*
X247936315Y-92386381D01*
X247922065Y-92405594D01*
X247906001Y-92423318D01*
X247888277Y-92439382D01*
X247869064Y-92453632D01*
X247848547Y-92465929D01*
X247826923Y-92476157D01*
X247804401Y-92484215D01*
X247781197Y-92490027D01*
X247757536Y-92493537D01*
X247733644Y-92494711D01*
X247246144Y-92494711D01*
X247222252Y-92493537D01*
X247198591Y-92490027D01*
X247175387Y-92484215D01*
X247152865Y-92476157D01*
X247131241Y-92465929D01*
X247110724Y-92453632D01*
X247091511Y-92439382D01*
X247073787Y-92423318D01*
X247057723Y-92405594D01*
X247043473Y-92386381D01*
X247031176Y-92365864D01*
X247020948Y-92344240D01*
X247012890Y-92321718D01*
X247007078Y-92298514D01*
X247003568Y-92274853D01*
X247002394Y-92250961D01*
X247002394Y-91338461D01*
X247003568Y-91314569D01*
X247007078Y-91290908D01*
X247012890Y-91267704D01*
X247020948Y-91245182D01*
X247031176Y-91223558D01*
X247043473Y-91203041D01*
X247057723Y-91183828D01*
X247073787Y-91166104D01*
X247091511Y-91150040D01*
X247110724Y-91135790D01*
X247131241Y-91123493D01*
X247152865Y-91113265D01*
X247175387Y-91105207D01*
X247198591Y-91099395D01*
X247222252Y-91095885D01*
X247246144Y-91094711D01*
X247733644Y-91094711D01*
X247757536Y-91095885D01*
X247757536Y-91095885D01*
G37*
D14*
X247489894Y-91794711D03*
D13*
G36*
X249632536Y-91095885D02*
X249656197Y-91099395D01*
X249679401Y-91105207D01*
X249701923Y-91113265D01*
X249723547Y-91123493D01*
X249744064Y-91135790D01*
X249763277Y-91150040D01*
X249781001Y-91166104D01*
X249797065Y-91183828D01*
X249811315Y-91203041D01*
X249823612Y-91223558D01*
X249833840Y-91245182D01*
X249841898Y-91267704D01*
X249847710Y-91290908D01*
X249851220Y-91314569D01*
X249852394Y-91338461D01*
X249852394Y-92250961D01*
X249851220Y-92274853D01*
X249847710Y-92298514D01*
X249841898Y-92321718D01*
X249833840Y-92344240D01*
X249823612Y-92365864D01*
X249811315Y-92386381D01*
X249797065Y-92405594D01*
X249781001Y-92423318D01*
X249763277Y-92439382D01*
X249744064Y-92453632D01*
X249723547Y-92465929D01*
X249701923Y-92476157D01*
X249679401Y-92484215D01*
X249656197Y-92490027D01*
X249632536Y-92493537D01*
X249608644Y-92494711D01*
X249121144Y-92494711D01*
X249097252Y-92493537D01*
X249073591Y-92490027D01*
X249050387Y-92484215D01*
X249027865Y-92476157D01*
X249006241Y-92465929D01*
X248985724Y-92453632D01*
X248966511Y-92439382D01*
X248948787Y-92423318D01*
X248932723Y-92405594D01*
X248918473Y-92386381D01*
X248906176Y-92365864D01*
X248895948Y-92344240D01*
X248887890Y-92321718D01*
X248882078Y-92298514D01*
X248878568Y-92274853D01*
X248877394Y-92250961D01*
X248877394Y-91338461D01*
X248878568Y-91314569D01*
X248882078Y-91290908D01*
X248887890Y-91267704D01*
X248895948Y-91245182D01*
X248906176Y-91223558D01*
X248918473Y-91203041D01*
X248932723Y-91183828D01*
X248948787Y-91166104D01*
X248966511Y-91150040D01*
X248985724Y-91135790D01*
X249006241Y-91123493D01*
X249027865Y-91113265D01*
X249050387Y-91105207D01*
X249073591Y-91099395D01*
X249097252Y-91095885D01*
X249121144Y-91094711D01*
X249608644Y-91094711D01*
X249632536Y-91095885D01*
X249632536Y-91095885D01*
G37*
D14*
X249364894Y-91794711D03*
G04 #@! TD*
D13*
G04 #@! TO.C,C2*
G36*
X224489892Y-93122527D02*
X224513553Y-93126037D01*
X224536757Y-93131849D01*
X224559279Y-93139907D01*
X224580903Y-93150135D01*
X224601420Y-93162432D01*
X224620633Y-93176682D01*
X224638357Y-93192746D01*
X224654421Y-93210470D01*
X224668671Y-93229683D01*
X224680968Y-93250200D01*
X224691196Y-93271824D01*
X224699254Y-93294346D01*
X224705066Y-93317550D01*
X224708576Y-93341211D01*
X224709750Y-93365103D01*
X224709750Y-94277603D01*
X224708576Y-94301495D01*
X224705066Y-94325156D01*
X224699254Y-94348360D01*
X224691196Y-94370882D01*
X224680968Y-94392506D01*
X224668671Y-94413023D01*
X224654421Y-94432236D01*
X224638357Y-94449960D01*
X224620633Y-94466024D01*
X224601420Y-94480274D01*
X224580903Y-94492571D01*
X224559279Y-94502799D01*
X224536757Y-94510857D01*
X224513553Y-94516669D01*
X224489892Y-94520179D01*
X224466000Y-94521353D01*
X223978500Y-94521353D01*
X223954608Y-94520179D01*
X223930947Y-94516669D01*
X223907743Y-94510857D01*
X223885221Y-94502799D01*
X223863597Y-94492571D01*
X223843080Y-94480274D01*
X223823867Y-94466024D01*
X223806143Y-94449960D01*
X223790079Y-94432236D01*
X223775829Y-94413023D01*
X223763532Y-94392506D01*
X223753304Y-94370882D01*
X223745246Y-94348360D01*
X223739434Y-94325156D01*
X223735924Y-94301495D01*
X223734750Y-94277603D01*
X223734750Y-93365103D01*
X223735924Y-93341211D01*
X223739434Y-93317550D01*
X223745246Y-93294346D01*
X223753304Y-93271824D01*
X223763532Y-93250200D01*
X223775829Y-93229683D01*
X223790079Y-93210470D01*
X223806143Y-93192746D01*
X223823867Y-93176682D01*
X223843080Y-93162432D01*
X223863597Y-93150135D01*
X223885221Y-93139907D01*
X223907743Y-93131849D01*
X223930947Y-93126037D01*
X223954608Y-93122527D01*
X223978500Y-93121353D01*
X224466000Y-93121353D01*
X224489892Y-93122527D01*
X224489892Y-93122527D01*
G37*
D14*
X224222250Y-93821353D03*
D13*
G36*
X226364892Y-93122527D02*
X226388553Y-93126037D01*
X226411757Y-93131849D01*
X226434279Y-93139907D01*
X226455903Y-93150135D01*
X226476420Y-93162432D01*
X226495633Y-93176682D01*
X226513357Y-93192746D01*
X226529421Y-93210470D01*
X226543671Y-93229683D01*
X226555968Y-93250200D01*
X226566196Y-93271824D01*
X226574254Y-93294346D01*
X226580066Y-93317550D01*
X226583576Y-93341211D01*
X226584750Y-93365103D01*
X226584750Y-94277603D01*
X226583576Y-94301495D01*
X226580066Y-94325156D01*
X226574254Y-94348360D01*
X226566196Y-94370882D01*
X226555968Y-94392506D01*
X226543671Y-94413023D01*
X226529421Y-94432236D01*
X226513357Y-94449960D01*
X226495633Y-94466024D01*
X226476420Y-94480274D01*
X226455903Y-94492571D01*
X226434279Y-94502799D01*
X226411757Y-94510857D01*
X226388553Y-94516669D01*
X226364892Y-94520179D01*
X226341000Y-94521353D01*
X225853500Y-94521353D01*
X225829608Y-94520179D01*
X225805947Y-94516669D01*
X225782743Y-94510857D01*
X225760221Y-94502799D01*
X225738597Y-94492571D01*
X225718080Y-94480274D01*
X225698867Y-94466024D01*
X225681143Y-94449960D01*
X225665079Y-94432236D01*
X225650829Y-94413023D01*
X225638532Y-94392506D01*
X225628304Y-94370882D01*
X225620246Y-94348360D01*
X225614434Y-94325156D01*
X225610924Y-94301495D01*
X225609750Y-94277603D01*
X225609750Y-93365103D01*
X225610924Y-93341211D01*
X225614434Y-93317550D01*
X225620246Y-93294346D01*
X225628304Y-93271824D01*
X225638532Y-93250200D01*
X225650829Y-93229683D01*
X225665079Y-93210470D01*
X225681143Y-93192746D01*
X225698867Y-93176682D01*
X225718080Y-93162432D01*
X225738597Y-93150135D01*
X225760221Y-93139907D01*
X225782743Y-93131849D01*
X225805947Y-93126037D01*
X225829608Y-93122527D01*
X225853500Y-93121353D01*
X226341000Y-93121353D01*
X226364892Y-93122527D01*
X226364892Y-93122527D01*
G37*
D14*
X226097250Y-93821353D03*
G04 #@! TD*
D13*
G04 #@! TO.C,C3*
G36*
X249756437Y-102050095D02*
X249780098Y-102053605D01*
X249803302Y-102059417D01*
X249825824Y-102067475D01*
X249847448Y-102077703D01*
X249867965Y-102090000D01*
X249887178Y-102104250D01*
X249904902Y-102120314D01*
X249920966Y-102138038D01*
X249935216Y-102157251D01*
X249947513Y-102177768D01*
X249957741Y-102199392D01*
X249965799Y-102221914D01*
X249971611Y-102245118D01*
X249975121Y-102268779D01*
X249976295Y-102292671D01*
X249976295Y-103205171D01*
X249975121Y-103229063D01*
X249971611Y-103252724D01*
X249965799Y-103275928D01*
X249957741Y-103298450D01*
X249947513Y-103320074D01*
X249935216Y-103340591D01*
X249920966Y-103359804D01*
X249904902Y-103377528D01*
X249887178Y-103393592D01*
X249867965Y-103407842D01*
X249847448Y-103420139D01*
X249825824Y-103430367D01*
X249803302Y-103438425D01*
X249780098Y-103444237D01*
X249756437Y-103447747D01*
X249732545Y-103448921D01*
X249245045Y-103448921D01*
X249221153Y-103447747D01*
X249197492Y-103444237D01*
X249174288Y-103438425D01*
X249151766Y-103430367D01*
X249130142Y-103420139D01*
X249109625Y-103407842D01*
X249090412Y-103393592D01*
X249072688Y-103377528D01*
X249056624Y-103359804D01*
X249042374Y-103340591D01*
X249030077Y-103320074D01*
X249019849Y-103298450D01*
X249011791Y-103275928D01*
X249005979Y-103252724D01*
X249002469Y-103229063D01*
X249001295Y-103205171D01*
X249001295Y-102292671D01*
X249002469Y-102268779D01*
X249005979Y-102245118D01*
X249011791Y-102221914D01*
X249019849Y-102199392D01*
X249030077Y-102177768D01*
X249042374Y-102157251D01*
X249056624Y-102138038D01*
X249072688Y-102120314D01*
X249090412Y-102104250D01*
X249109625Y-102090000D01*
X249130142Y-102077703D01*
X249151766Y-102067475D01*
X249174288Y-102059417D01*
X249197492Y-102053605D01*
X249221153Y-102050095D01*
X249245045Y-102048921D01*
X249732545Y-102048921D01*
X249756437Y-102050095D01*
X249756437Y-102050095D01*
G37*
D14*
X249488795Y-102748921D03*
D13*
G36*
X247881437Y-102050095D02*
X247905098Y-102053605D01*
X247928302Y-102059417D01*
X247950824Y-102067475D01*
X247972448Y-102077703D01*
X247992965Y-102090000D01*
X248012178Y-102104250D01*
X248029902Y-102120314D01*
X248045966Y-102138038D01*
X248060216Y-102157251D01*
X248072513Y-102177768D01*
X248082741Y-102199392D01*
X248090799Y-102221914D01*
X248096611Y-102245118D01*
X248100121Y-102268779D01*
X248101295Y-102292671D01*
X248101295Y-103205171D01*
X248100121Y-103229063D01*
X248096611Y-103252724D01*
X248090799Y-103275928D01*
X248082741Y-103298450D01*
X248072513Y-103320074D01*
X248060216Y-103340591D01*
X248045966Y-103359804D01*
X248029902Y-103377528D01*
X248012178Y-103393592D01*
X247992965Y-103407842D01*
X247972448Y-103420139D01*
X247950824Y-103430367D01*
X247928302Y-103438425D01*
X247905098Y-103444237D01*
X247881437Y-103447747D01*
X247857545Y-103448921D01*
X247370045Y-103448921D01*
X247346153Y-103447747D01*
X247322492Y-103444237D01*
X247299288Y-103438425D01*
X247276766Y-103430367D01*
X247255142Y-103420139D01*
X247234625Y-103407842D01*
X247215412Y-103393592D01*
X247197688Y-103377528D01*
X247181624Y-103359804D01*
X247167374Y-103340591D01*
X247155077Y-103320074D01*
X247144849Y-103298450D01*
X247136791Y-103275928D01*
X247130979Y-103252724D01*
X247127469Y-103229063D01*
X247126295Y-103205171D01*
X247126295Y-102292671D01*
X247127469Y-102268779D01*
X247130979Y-102245118D01*
X247136791Y-102221914D01*
X247144849Y-102199392D01*
X247155077Y-102177768D01*
X247167374Y-102157251D01*
X247181624Y-102138038D01*
X247197688Y-102120314D01*
X247215412Y-102104250D01*
X247234625Y-102090000D01*
X247255142Y-102077703D01*
X247276766Y-102067475D01*
X247299288Y-102059417D01*
X247322492Y-102053605D01*
X247346153Y-102050095D01*
X247370045Y-102048921D01*
X247857545Y-102048921D01*
X247881437Y-102050095D01*
X247881437Y-102050095D01*
G37*
D14*
X247613795Y-102748921D03*
G04 #@! TD*
D13*
G04 #@! TO.C,C4*
G36*
X280111902Y-98411974D02*
X280135563Y-98415484D01*
X280158767Y-98421296D01*
X280181289Y-98429354D01*
X280202913Y-98439582D01*
X280223430Y-98451879D01*
X280242643Y-98466129D01*
X280260367Y-98482193D01*
X280276431Y-98499917D01*
X280290681Y-98519130D01*
X280302978Y-98539647D01*
X280313206Y-98561271D01*
X280321264Y-98583793D01*
X280327076Y-98606997D01*
X280330586Y-98630658D01*
X280331760Y-98654550D01*
X280331760Y-99567050D01*
X280330586Y-99590942D01*
X280327076Y-99614603D01*
X280321264Y-99637807D01*
X280313206Y-99660329D01*
X280302978Y-99681953D01*
X280290681Y-99702470D01*
X280276431Y-99721683D01*
X280260367Y-99739407D01*
X280242643Y-99755471D01*
X280223430Y-99769721D01*
X280202913Y-99782018D01*
X280181289Y-99792246D01*
X280158767Y-99800304D01*
X280135563Y-99806116D01*
X280111902Y-99809626D01*
X280088010Y-99810800D01*
X279600510Y-99810800D01*
X279576618Y-99809626D01*
X279552957Y-99806116D01*
X279529753Y-99800304D01*
X279507231Y-99792246D01*
X279485607Y-99782018D01*
X279465090Y-99769721D01*
X279445877Y-99755471D01*
X279428153Y-99739407D01*
X279412089Y-99721683D01*
X279397839Y-99702470D01*
X279385542Y-99681953D01*
X279375314Y-99660329D01*
X279367256Y-99637807D01*
X279361444Y-99614603D01*
X279357934Y-99590942D01*
X279356760Y-99567050D01*
X279356760Y-98654550D01*
X279357934Y-98630658D01*
X279361444Y-98606997D01*
X279367256Y-98583793D01*
X279375314Y-98561271D01*
X279385542Y-98539647D01*
X279397839Y-98519130D01*
X279412089Y-98499917D01*
X279428153Y-98482193D01*
X279445877Y-98466129D01*
X279465090Y-98451879D01*
X279485607Y-98439582D01*
X279507231Y-98429354D01*
X279529753Y-98421296D01*
X279552957Y-98415484D01*
X279576618Y-98411974D01*
X279600510Y-98410800D01*
X280088010Y-98410800D01*
X280111902Y-98411974D01*
X280111902Y-98411974D01*
G37*
D14*
X279844260Y-99110800D03*
D13*
G36*
X281986902Y-98411974D02*
X282010563Y-98415484D01*
X282033767Y-98421296D01*
X282056289Y-98429354D01*
X282077913Y-98439582D01*
X282098430Y-98451879D01*
X282117643Y-98466129D01*
X282135367Y-98482193D01*
X282151431Y-98499917D01*
X282165681Y-98519130D01*
X282177978Y-98539647D01*
X282188206Y-98561271D01*
X282196264Y-98583793D01*
X282202076Y-98606997D01*
X282205586Y-98630658D01*
X282206760Y-98654550D01*
X282206760Y-99567050D01*
X282205586Y-99590942D01*
X282202076Y-99614603D01*
X282196264Y-99637807D01*
X282188206Y-99660329D01*
X282177978Y-99681953D01*
X282165681Y-99702470D01*
X282151431Y-99721683D01*
X282135367Y-99739407D01*
X282117643Y-99755471D01*
X282098430Y-99769721D01*
X282077913Y-99782018D01*
X282056289Y-99792246D01*
X282033767Y-99800304D01*
X282010563Y-99806116D01*
X281986902Y-99809626D01*
X281963010Y-99810800D01*
X281475510Y-99810800D01*
X281451618Y-99809626D01*
X281427957Y-99806116D01*
X281404753Y-99800304D01*
X281382231Y-99792246D01*
X281360607Y-99782018D01*
X281340090Y-99769721D01*
X281320877Y-99755471D01*
X281303153Y-99739407D01*
X281287089Y-99721683D01*
X281272839Y-99702470D01*
X281260542Y-99681953D01*
X281250314Y-99660329D01*
X281242256Y-99637807D01*
X281236444Y-99614603D01*
X281232934Y-99590942D01*
X281231760Y-99567050D01*
X281231760Y-98654550D01*
X281232934Y-98630658D01*
X281236444Y-98606997D01*
X281242256Y-98583793D01*
X281250314Y-98561271D01*
X281260542Y-98539647D01*
X281272839Y-98519130D01*
X281287089Y-98499917D01*
X281303153Y-98482193D01*
X281320877Y-98466129D01*
X281340090Y-98451879D01*
X281360607Y-98439582D01*
X281382231Y-98429354D01*
X281404753Y-98421296D01*
X281427957Y-98415484D01*
X281451618Y-98411974D01*
X281475510Y-98410800D01*
X281963010Y-98410800D01*
X281986902Y-98411974D01*
X281986902Y-98411974D01*
G37*
D14*
X281719260Y-99110800D03*
G04 #@! TD*
D13*
G04 #@! TO.C,C5*
G36*
X269994462Y-111068174D02*
X270018123Y-111071684D01*
X270041327Y-111077496D01*
X270063849Y-111085554D01*
X270085473Y-111095782D01*
X270105990Y-111108079D01*
X270125203Y-111122329D01*
X270142927Y-111138393D01*
X270158991Y-111156117D01*
X270173241Y-111175330D01*
X270185538Y-111195847D01*
X270195766Y-111217471D01*
X270203824Y-111239993D01*
X270209636Y-111263197D01*
X270213146Y-111286858D01*
X270214320Y-111310750D01*
X270214320Y-111798250D01*
X270213146Y-111822142D01*
X270209636Y-111845803D01*
X270203824Y-111869007D01*
X270195766Y-111891529D01*
X270185538Y-111913153D01*
X270173241Y-111933670D01*
X270158991Y-111952883D01*
X270142927Y-111970607D01*
X270125203Y-111986671D01*
X270105990Y-112000921D01*
X270085473Y-112013218D01*
X270063849Y-112023446D01*
X270041327Y-112031504D01*
X270018123Y-112037316D01*
X269994462Y-112040826D01*
X269970570Y-112042000D01*
X269058070Y-112042000D01*
X269034178Y-112040826D01*
X269010517Y-112037316D01*
X268987313Y-112031504D01*
X268964791Y-112023446D01*
X268943167Y-112013218D01*
X268922650Y-112000921D01*
X268903437Y-111986671D01*
X268885713Y-111970607D01*
X268869649Y-111952883D01*
X268855399Y-111933670D01*
X268843102Y-111913153D01*
X268832874Y-111891529D01*
X268824816Y-111869007D01*
X268819004Y-111845803D01*
X268815494Y-111822142D01*
X268814320Y-111798250D01*
X268814320Y-111310750D01*
X268815494Y-111286858D01*
X268819004Y-111263197D01*
X268824816Y-111239993D01*
X268832874Y-111217471D01*
X268843102Y-111195847D01*
X268855399Y-111175330D01*
X268869649Y-111156117D01*
X268885713Y-111138393D01*
X268903437Y-111122329D01*
X268922650Y-111108079D01*
X268943167Y-111095782D01*
X268964791Y-111085554D01*
X268987313Y-111077496D01*
X269010517Y-111071684D01*
X269034178Y-111068174D01*
X269058070Y-111067000D01*
X269970570Y-111067000D01*
X269994462Y-111068174D01*
X269994462Y-111068174D01*
G37*
D14*
X269514320Y-111554500D03*
D13*
G36*
X269994462Y-109193174D02*
X270018123Y-109196684D01*
X270041327Y-109202496D01*
X270063849Y-109210554D01*
X270085473Y-109220782D01*
X270105990Y-109233079D01*
X270125203Y-109247329D01*
X270142927Y-109263393D01*
X270158991Y-109281117D01*
X270173241Y-109300330D01*
X270185538Y-109320847D01*
X270195766Y-109342471D01*
X270203824Y-109364993D01*
X270209636Y-109388197D01*
X270213146Y-109411858D01*
X270214320Y-109435750D01*
X270214320Y-109923250D01*
X270213146Y-109947142D01*
X270209636Y-109970803D01*
X270203824Y-109994007D01*
X270195766Y-110016529D01*
X270185538Y-110038153D01*
X270173241Y-110058670D01*
X270158991Y-110077883D01*
X270142927Y-110095607D01*
X270125203Y-110111671D01*
X270105990Y-110125921D01*
X270085473Y-110138218D01*
X270063849Y-110148446D01*
X270041327Y-110156504D01*
X270018123Y-110162316D01*
X269994462Y-110165826D01*
X269970570Y-110167000D01*
X269058070Y-110167000D01*
X269034178Y-110165826D01*
X269010517Y-110162316D01*
X268987313Y-110156504D01*
X268964791Y-110148446D01*
X268943167Y-110138218D01*
X268922650Y-110125921D01*
X268903437Y-110111671D01*
X268885713Y-110095607D01*
X268869649Y-110077883D01*
X268855399Y-110058670D01*
X268843102Y-110038153D01*
X268832874Y-110016529D01*
X268824816Y-109994007D01*
X268819004Y-109970803D01*
X268815494Y-109947142D01*
X268814320Y-109923250D01*
X268814320Y-109435750D01*
X268815494Y-109411858D01*
X268819004Y-109388197D01*
X268824816Y-109364993D01*
X268832874Y-109342471D01*
X268843102Y-109320847D01*
X268855399Y-109300330D01*
X268869649Y-109281117D01*
X268885713Y-109263393D01*
X268903437Y-109247329D01*
X268922650Y-109233079D01*
X268943167Y-109220782D01*
X268964791Y-109210554D01*
X268987313Y-109202496D01*
X269010517Y-109196684D01*
X269034178Y-109193174D01*
X269058070Y-109192000D01*
X269970570Y-109192000D01*
X269994462Y-109193174D01*
X269994462Y-109193174D01*
G37*
D14*
X269514320Y-109679500D03*
G04 #@! TD*
D13*
G04 #@! TO.C,C6*
G36*
X237111622Y-102629814D02*
X237135283Y-102633324D01*
X237158487Y-102639136D01*
X237181009Y-102647194D01*
X237202633Y-102657422D01*
X237223150Y-102669719D01*
X237242363Y-102683969D01*
X237260087Y-102700033D01*
X237276151Y-102717757D01*
X237290401Y-102736970D01*
X237302698Y-102757487D01*
X237312926Y-102779111D01*
X237320984Y-102801633D01*
X237326796Y-102824837D01*
X237330306Y-102848498D01*
X237331480Y-102872390D01*
X237331480Y-103359890D01*
X237330306Y-103383782D01*
X237326796Y-103407443D01*
X237320984Y-103430647D01*
X237312926Y-103453169D01*
X237302698Y-103474793D01*
X237290401Y-103495310D01*
X237276151Y-103514523D01*
X237260087Y-103532247D01*
X237242363Y-103548311D01*
X237223150Y-103562561D01*
X237202633Y-103574858D01*
X237181009Y-103585086D01*
X237158487Y-103593144D01*
X237135283Y-103598956D01*
X237111622Y-103602466D01*
X237087730Y-103603640D01*
X236175230Y-103603640D01*
X236151338Y-103602466D01*
X236127677Y-103598956D01*
X236104473Y-103593144D01*
X236081951Y-103585086D01*
X236060327Y-103574858D01*
X236039810Y-103562561D01*
X236020597Y-103548311D01*
X236002873Y-103532247D01*
X235986809Y-103514523D01*
X235972559Y-103495310D01*
X235960262Y-103474793D01*
X235950034Y-103453169D01*
X235941976Y-103430647D01*
X235936164Y-103407443D01*
X235932654Y-103383782D01*
X235931480Y-103359890D01*
X235931480Y-102872390D01*
X235932654Y-102848498D01*
X235936164Y-102824837D01*
X235941976Y-102801633D01*
X235950034Y-102779111D01*
X235960262Y-102757487D01*
X235972559Y-102736970D01*
X235986809Y-102717757D01*
X236002873Y-102700033D01*
X236020597Y-102683969D01*
X236039810Y-102669719D01*
X236060327Y-102657422D01*
X236081951Y-102647194D01*
X236104473Y-102639136D01*
X236127677Y-102633324D01*
X236151338Y-102629814D01*
X236175230Y-102628640D01*
X237087730Y-102628640D01*
X237111622Y-102629814D01*
X237111622Y-102629814D01*
G37*
D14*
X236631480Y-103116140D03*
D13*
G36*
X237111622Y-104504814D02*
X237135283Y-104508324D01*
X237158487Y-104514136D01*
X237181009Y-104522194D01*
X237202633Y-104532422D01*
X237223150Y-104544719D01*
X237242363Y-104558969D01*
X237260087Y-104575033D01*
X237276151Y-104592757D01*
X237290401Y-104611970D01*
X237302698Y-104632487D01*
X237312926Y-104654111D01*
X237320984Y-104676633D01*
X237326796Y-104699837D01*
X237330306Y-104723498D01*
X237331480Y-104747390D01*
X237331480Y-105234890D01*
X237330306Y-105258782D01*
X237326796Y-105282443D01*
X237320984Y-105305647D01*
X237312926Y-105328169D01*
X237302698Y-105349793D01*
X237290401Y-105370310D01*
X237276151Y-105389523D01*
X237260087Y-105407247D01*
X237242363Y-105423311D01*
X237223150Y-105437561D01*
X237202633Y-105449858D01*
X237181009Y-105460086D01*
X237158487Y-105468144D01*
X237135283Y-105473956D01*
X237111622Y-105477466D01*
X237087730Y-105478640D01*
X236175230Y-105478640D01*
X236151338Y-105477466D01*
X236127677Y-105473956D01*
X236104473Y-105468144D01*
X236081951Y-105460086D01*
X236060327Y-105449858D01*
X236039810Y-105437561D01*
X236020597Y-105423311D01*
X236002873Y-105407247D01*
X235986809Y-105389523D01*
X235972559Y-105370310D01*
X235960262Y-105349793D01*
X235950034Y-105328169D01*
X235941976Y-105305647D01*
X235936164Y-105282443D01*
X235932654Y-105258782D01*
X235931480Y-105234890D01*
X235931480Y-104747390D01*
X235932654Y-104723498D01*
X235936164Y-104699837D01*
X235941976Y-104676633D01*
X235950034Y-104654111D01*
X235960262Y-104632487D01*
X235972559Y-104611970D01*
X235986809Y-104592757D01*
X236002873Y-104575033D01*
X236020597Y-104558969D01*
X236039810Y-104544719D01*
X236060327Y-104532422D01*
X236081951Y-104522194D01*
X236104473Y-104514136D01*
X236127677Y-104508324D01*
X236151338Y-104504814D01*
X236175230Y-104503640D01*
X237087730Y-104503640D01*
X237111622Y-104504814D01*
X237111622Y-104504814D01*
G37*
D14*
X236631480Y-104991140D03*
G04 #@! TD*
D13*
G04 #@! TO.C,C7*
G36*
X221631950Y-84467188D02*
X221655611Y-84470698D01*
X221678815Y-84476510D01*
X221701337Y-84484568D01*
X221722961Y-84494796D01*
X221743478Y-84507093D01*
X221762691Y-84521343D01*
X221780415Y-84537407D01*
X221796479Y-84555131D01*
X221810729Y-84574344D01*
X221823026Y-84594861D01*
X221833254Y-84616485D01*
X221841312Y-84639007D01*
X221847124Y-84662211D01*
X221850634Y-84685872D01*
X221851808Y-84709764D01*
X221851808Y-85622264D01*
X221850634Y-85646156D01*
X221847124Y-85669817D01*
X221841312Y-85693021D01*
X221833254Y-85715543D01*
X221823026Y-85737167D01*
X221810729Y-85757684D01*
X221796479Y-85776897D01*
X221780415Y-85794621D01*
X221762691Y-85810685D01*
X221743478Y-85824935D01*
X221722961Y-85837232D01*
X221701337Y-85847460D01*
X221678815Y-85855518D01*
X221655611Y-85861330D01*
X221631950Y-85864840D01*
X221608058Y-85866014D01*
X221120558Y-85866014D01*
X221096666Y-85864840D01*
X221073005Y-85861330D01*
X221049801Y-85855518D01*
X221027279Y-85847460D01*
X221005655Y-85837232D01*
X220985138Y-85824935D01*
X220965925Y-85810685D01*
X220948201Y-85794621D01*
X220932137Y-85776897D01*
X220917887Y-85757684D01*
X220905590Y-85737167D01*
X220895362Y-85715543D01*
X220887304Y-85693021D01*
X220881492Y-85669817D01*
X220877982Y-85646156D01*
X220876808Y-85622264D01*
X220876808Y-84709764D01*
X220877982Y-84685872D01*
X220881492Y-84662211D01*
X220887304Y-84639007D01*
X220895362Y-84616485D01*
X220905590Y-84594861D01*
X220917887Y-84574344D01*
X220932137Y-84555131D01*
X220948201Y-84537407D01*
X220965925Y-84521343D01*
X220985138Y-84507093D01*
X221005655Y-84494796D01*
X221027279Y-84484568D01*
X221049801Y-84476510D01*
X221073005Y-84470698D01*
X221096666Y-84467188D01*
X221120558Y-84466014D01*
X221608058Y-84466014D01*
X221631950Y-84467188D01*
X221631950Y-84467188D01*
G37*
D14*
X221364308Y-85166014D03*
D13*
G36*
X223506950Y-84467188D02*
X223530611Y-84470698D01*
X223553815Y-84476510D01*
X223576337Y-84484568D01*
X223597961Y-84494796D01*
X223618478Y-84507093D01*
X223637691Y-84521343D01*
X223655415Y-84537407D01*
X223671479Y-84555131D01*
X223685729Y-84574344D01*
X223698026Y-84594861D01*
X223708254Y-84616485D01*
X223716312Y-84639007D01*
X223722124Y-84662211D01*
X223725634Y-84685872D01*
X223726808Y-84709764D01*
X223726808Y-85622264D01*
X223725634Y-85646156D01*
X223722124Y-85669817D01*
X223716312Y-85693021D01*
X223708254Y-85715543D01*
X223698026Y-85737167D01*
X223685729Y-85757684D01*
X223671479Y-85776897D01*
X223655415Y-85794621D01*
X223637691Y-85810685D01*
X223618478Y-85824935D01*
X223597961Y-85837232D01*
X223576337Y-85847460D01*
X223553815Y-85855518D01*
X223530611Y-85861330D01*
X223506950Y-85864840D01*
X223483058Y-85866014D01*
X222995558Y-85866014D01*
X222971666Y-85864840D01*
X222948005Y-85861330D01*
X222924801Y-85855518D01*
X222902279Y-85847460D01*
X222880655Y-85837232D01*
X222860138Y-85824935D01*
X222840925Y-85810685D01*
X222823201Y-85794621D01*
X222807137Y-85776897D01*
X222792887Y-85757684D01*
X222780590Y-85737167D01*
X222770362Y-85715543D01*
X222762304Y-85693021D01*
X222756492Y-85669817D01*
X222752982Y-85646156D01*
X222751808Y-85622264D01*
X222751808Y-84709764D01*
X222752982Y-84685872D01*
X222756492Y-84662211D01*
X222762304Y-84639007D01*
X222770362Y-84616485D01*
X222780590Y-84594861D01*
X222792887Y-84574344D01*
X222807137Y-84555131D01*
X222823201Y-84537407D01*
X222840925Y-84521343D01*
X222860138Y-84507093D01*
X222880655Y-84494796D01*
X222902279Y-84484568D01*
X222924801Y-84476510D01*
X222948005Y-84470698D01*
X222971666Y-84467188D01*
X222995558Y-84466014D01*
X223483058Y-84466014D01*
X223506950Y-84467188D01*
X223506950Y-84467188D01*
G37*
D14*
X223239308Y-85166014D03*
G04 #@! TD*
D13*
G04 #@! TO.C,C8*
G36*
X268543562Y-30938876D02*
X268567223Y-30942386D01*
X268590427Y-30948198D01*
X268612949Y-30956256D01*
X268634573Y-30966484D01*
X268655090Y-30978781D01*
X268674303Y-30993031D01*
X268692027Y-31009095D01*
X268708091Y-31026819D01*
X268722341Y-31046032D01*
X268734638Y-31066549D01*
X268744866Y-31088173D01*
X268752924Y-31110695D01*
X268758736Y-31133899D01*
X268762246Y-31157560D01*
X268763420Y-31181452D01*
X268763420Y-32093952D01*
X268762246Y-32117844D01*
X268758736Y-32141505D01*
X268752924Y-32164709D01*
X268744866Y-32187231D01*
X268734638Y-32208855D01*
X268722341Y-32229372D01*
X268708091Y-32248585D01*
X268692027Y-32266309D01*
X268674303Y-32282373D01*
X268655090Y-32296623D01*
X268634573Y-32308920D01*
X268612949Y-32319148D01*
X268590427Y-32327206D01*
X268567223Y-32333018D01*
X268543562Y-32336528D01*
X268519670Y-32337702D01*
X268032170Y-32337702D01*
X268008278Y-32336528D01*
X267984617Y-32333018D01*
X267961413Y-32327206D01*
X267938891Y-32319148D01*
X267917267Y-32308920D01*
X267896750Y-32296623D01*
X267877537Y-32282373D01*
X267859813Y-32266309D01*
X267843749Y-32248585D01*
X267829499Y-32229372D01*
X267817202Y-32208855D01*
X267806974Y-32187231D01*
X267798916Y-32164709D01*
X267793104Y-32141505D01*
X267789594Y-32117844D01*
X267788420Y-32093952D01*
X267788420Y-31181452D01*
X267789594Y-31157560D01*
X267793104Y-31133899D01*
X267798916Y-31110695D01*
X267806974Y-31088173D01*
X267817202Y-31066549D01*
X267829499Y-31046032D01*
X267843749Y-31026819D01*
X267859813Y-31009095D01*
X267877537Y-30993031D01*
X267896750Y-30978781D01*
X267917267Y-30966484D01*
X267938891Y-30956256D01*
X267961413Y-30948198D01*
X267984617Y-30942386D01*
X268008278Y-30938876D01*
X268032170Y-30937702D01*
X268519670Y-30937702D01*
X268543562Y-30938876D01*
X268543562Y-30938876D01*
G37*
D14*
X268275920Y-31637702D03*
D13*
G36*
X266668562Y-30938876D02*
X266692223Y-30942386D01*
X266715427Y-30948198D01*
X266737949Y-30956256D01*
X266759573Y-30966484D01*
X266780090Y-30978781D01*
X266799303Y-30993031D01*
X266817027Y-31009095D01*
X266833091Y-31026819D01*
X266847341Y-31046032D01*
X266859638Y-31066549D01*
X266869866Y-31088173D01*
X266877924Y-31110695D01*
X266883736Y-31133899D01*
X266887246Y-31157560D01*
X266888420Y-31181452D01*
X266888420Y-32093952D01*
X266887246Y-32117844D01*
X266883736Y-32141505D01*
X266877924Y-32164709D01*
X266869866Y-32187231D01*
X266859638Y-32208855D01*
X266847341Y-32229372D01*
X266833091Y-32248585D01*
X266817027Y-32266309D01*
X266799303Y-32282373D01*
X266780090Y-32296623D01*
X266759573Y-32308920D01*
X266737949Y-32319148D01*
X266715427Y-32327206D01*
X266692223Y-32333018D01*
X266668562Y-32336528D01*
X266644670Y-32337702D01*
X266157170Y-32337702D01*
X266133278Y-32336528D01*
X266109617Y-32333018D01*
X266086413Y-32327206D01*
X266063891Y-32319148D01*
X266042267Y-32308920D01*
X266021750Y-32296623D01*
X266002537Y-32282373D01*
X265984813Y-32266309D01*
X265968749Y-32248585D01*
X265954499Y-32229372D01*
X265942202Y-32208855D01*
X265931974Y-32187231D01*
X265923916Y-32164709D01*
X265918104Y-32141505D01*
X265914594Y-32117844D01*
X265913420Y-32093952D01*
X265913420Y-31181452D01*
X265914594Y-31157560D01*
X265918104Y-31133899D01*
X265923916Y-31110695D01*
X265931974Y-31088173D01*
X265942202Y-31066549D01*
X265954499Y-31046032D01*
X265968749Y-31026819D01*
X265984813Y-31009095D01*
X266002537Y-30993031D01*
X266021750Y-30978781D01*
X266042267Y-30966484D01*
X266063891Y-30956256D01*
X266086413Y-30948198D01*
X266109617Y-30942386D01*
X266133278Y-30938876D01*
X266157170Y-30937702D01*
X266644670Y-30937702D01*
X266668562Y-30938876D01*
X266668562Y-30938876D01*
G37*
D14*
X266400920Y-31637702D03*
G04 #@! TD*
D15*
G04 #@! TO.C,CR1*
X246942220Y-41218582D03*
X249177420Y-41218582D03*
G04 #@! TD*
D16*
G04 #@! TO.C,CR2*
X262773209Y-43872052D03*
X262773209Y-41636852D03*
G04 #@! TD*
G04 #@! TO.C,CR3*
X253571620Y-43382662D03*
X253571620Y-41147462D03*
G04 #@! TD*
D15*
G04 #@! TO.C,CR4*
X257478140Y-39913022D03*
X259713340Y-39913022D03*
G04 #@! TD*
D17*
G04 #@! TO.C,Q1*
X272851840Y-24276560D03*
X274751840Y-24276560D03*
X273801840Y-22276560D03*
G04 #@! TD*
G04 #@! TO.C,Q2*
X254907700Y-47993782D03*
X253957700Y-45993782D03*
X255857700Y-45993782D03*
G04 #@! TD*
G04 #@! TO.C,Q3*
X265286100Y-25703502D03*
X264336100Y-23703502D03*
X266236100Y-23703502D03*
G04 #@! TD*
G04 #@! TO.C,Q4*
X254211740Y-19410902D03*
X252311740Y-19410902D03*
X253261740Y-21410902D03*
G04 #@! TD*
D13*
G04 #@! TO.C,R1*
G36*
X243469055Y-47692341D02*
X243492716Y-47695851D01*
X243515920Y-47701663D01*
X243538442Y-47709721D01*
X243560066Y-47719949D01*
X243580583Y-47732246D01*
X243599796Y-47746496D01*
X243617520Y-47762560D01*
X243633584Y-47780284D01*
X243647834Y-47799497D01*
X243660131Y-47820014D01*
X243670359Y-47841638D01*
X243678417Y-47864160D01*
X243684229Y-47887364D01*
X243687739Y-47911025D01*
X243688913Y-47934917D01*
X243688913Y-48422417D01*
X243687739Y-48446309D01*
X243684229Y-48469970D01*
X243678417Y-48493174D01*
X243670359Y-48515696D01*
X243660131Y-48537320D01*
X243647834Y-48557837D01*
X243633584Y-48577050D01*
X243617520Y-48594774D01*
X243599796Y-48610838D01*
X243580583Y-48625088D01*
X243560066Y-48637385D01*
X243538442Y-48647613D01*
X243515920Y-48655671D01*
X243492716Y-48661483D01*
X243469055Y-48664993D01*
X243445163Y-48666167D01*
X242532663Y-48666167D01*
X242508771Y-48664993D01*
X242485110Y-48661483D01*
X242461906Y-48655671D01*
X242439384Y-48647613D01*
X242417760Y-48637385D01*
X242397243Y-48625088D01*
X242378030Y-48610838D01*
X242360306Y-48594774D01*
X242344242Y-48577050D01*
X242329992Y-48557837D01*
X242317695Y-48537320D01*
X242307467Y-48515696D01*
X242299409Y-48493174D01*
X242293597Y-48469970D01*
X242290087Y-48446309D01*
X242288913Y-48422417D01*
X242288913Y-47934917D01*
X242290087Y-47911025D01*
X242293597Y-47887364D01*
X242299409Y-47864160D01*
X242307467Y-47841638D01*
X242317695Y-47820014D01*
X242329992Y-47799497D01*
X242344242Y-47780284D01*
X242360306Y-47762560D01*
X242378030Y-47746496D01*
X242397243Y-47732246D01*
X242417760Y-47719949D01*
X242439384Y-47709721D01*
X242461906Y-47701663D01*
X242485110Y-47695851D01*
X242508771Y-47692341D01*
X242532663Y-47691167D01*
X243445163Y-47691167D01*
X243469055Y-47692341D01*
X243469055Y-47692341D01*
G37*
D14*
X242988913Y-48178667D03*
D13*
G36*
X243469055Y-49567341D02*
X243492716Y-49570851D01*
X243515920Y-49576663D01*
X243538442Y-49584721D01*
X243560066Y-49594949D01*
X243580583Y-49607246D01*
X243599796Y-49621496D01*
X243617520Y-49637560D01*
X243633584Y-49655284D01*
X243647834Y-49674497D01*
X243660131Y-49695014D01*
X243670359Y-49716638D01*
X243678417Y-49739160D01*
X243684229Y-49762364D01*
X243687739Y-49786025D01*
X243688913Y-49809917D01*
X243688913Y-50297417D01*
X243687739Y-50321309D01*
X243684229Y-50344970D01*
X243678417Y-50368174D01*
X243670359Y-50390696D01*
X243660131Y-50412320D01*
X243647834Y-50432837D01*
X243633584Y-50452050D01*
X243617520Y-50469774D01*
X243599796Y-50485838D01*
X243580583Y-50500088D01*
X243560066Y-50512385D01*
X243538442Y-50522613D01*
X243515920Y-50530671D01*
X243492716Y-50536483D01*
X243469055Y-50539993D01*
X243445163Y-50541167D01*
X242532663Y-50541167D01*
X242508771Y-50539993D01*
X242485110Y-50536483D01*
X242461906Y-50530671D01*
X242439384Y-50522613D01*
X242417760Y-50512385D01*
X242397243Y-50500088D01*
X242378030Y-50485838D01*
X242360306Y-50469774D01*
X242344242Y-50452050D01*
X242329992Y-50432837D01*
X242317695Y-50412320D01*
X242307467Y-50390696D01*
X242299409Y-50368174D01*
X242293597Y-50344970D01*
X242290087Y-50321309D01*
X242288913Y-50297417D01*
X242288913Y-49809917D01*
X242290087Y-49786025D01*
X242293597Y-49762364D01*
X242299409Y-49739160D01*
X242307467Y-49716638D01*
X242317695Y-49695014D01*
X242329992Y-49674497D01*
X242344242Y-49655284D01*
X242360306Y-49637560D01*
X242378030Y-49621496D01*
X242397243Y-49607246D01*
X242417760Y-49594949D01*
X242439384Y-49584721D01*
X242461906Y-49576663D01*
X242485110Y-49570851D01*
X242508771Y-49567341D01*
X242532663Y-49566167D01*
X243445163Y-49566167D01*
X243469055Y-49567341D01*
X243469055Y-49567341D01*
G37*
D14*
X242988913Y-50053667D03*
G04 #@! TD*
D13*
G04 #@! TO.C,R2*
G36*
X243494455Y-45711621D02*
X243518116Y-45715131D01*
X243541320Y-45720943D01*
X243563842Y-45729001D01*
X243585466Y-45739229D01*
X243605983Y-45751526D01*
X243625196Y-45765776D01*
X243642920Y-45781840D01*
X243658984Y-45799564D01*
X243673234Y-45818777D01*
X243685531Y-45839294D01*
X243695759Y-45860918D01*
X243703817Y-45883440D01*
X243709629Y-45906644D01*
X243713139Y-45930305D01*
X243714313Y-45954197D01*
X243714313Y-46441697D01*
X243713139Y-46465589D01*
X243709629Y-46489250D01*
X243703817Y-46512454D01*
X243695759Y-46534976D01*
X243685531Y-46556600D01*
X243673234Y-46577117D01*
X243658984Y-46596330D01*
X243642920Y-46614054D01*
X243625196Y-46630118D01*
X243605983Y-46644368D01*
X243585466Y-46656665D01*
X243563842Y-46666893D01*
X243541320Y-46674951D01*
X243518116Y-46680763D01*
X243494455Y-46684273D01*
X243470563Y-46685447D01*
X242558063Y-46685447D01*
X242534171Y-46684273D01*
X242510510Y-46680763D01*
X242487306Y-46674951D01*
X242464784Y-46666893D01*
X242443160Y-46656665D01*
X242422643Y-46644368D01*
X242403430Y-46630118D01*
X242385706Y-46614054D01*
X242369642Y-46596330D01*
X242355392Y-46577117D01*
X242343095Y-46556600D01*
X242332867Y-46534976D01*
X242324809Y-46512454D01*
X242318997Y-46489250D01*
X242315487Y-46465589D01*
X242314313Y-46441697D01*
X242314313Y-45954197D01*
X242315487Y-45930305D01*
X242318997Y-45906644D01*
X242324809Y-45883440D01*
X242332867Y-45860918D01*
X242343095Y-45839294D01*
X242355392Y-45818777D01*
X242369642Y-45799564D01*
X242385706Y-45781840D01*
X242403430Y-45765776D01*
X242422643Y-45751526D01*
X242443160Y-45739229D01*
X242464784Y-45729001D01*
X242487306Y-45720943D01*
X242510510Y-45715131D01*
X242534171Y-45711621D01*
X242558063Y-45710447D01*
X243470563Y-45710447D01*
X243494455Y-45711621D01*
X243494455Y-45711621D01*
G37*
D14*
X243014313Y-46197947D03*
D13*
G36*
X243494455Y-43836621D02*
X243518116Y-43840131D01*
X243541320Y-43845943D01*
X243563842Y-43854001D01*
X243585466Y-43864229D01*
X243605983Y-43876526D01*
X243625196Y-43890776D01*
X243642920Y-43906840D01*
X243658984Y-43924564D01*
X243673234Y-43943777D01*
X243685531Y-43964294D01*
X243695759Y-43985918D01*
X243703817Y-44008440D01*
X243709629Y-44031644D01*
X243713139Y-44055305D01*
X243714313Y-44079197D01*
X243714313Y-44566697D01*
X243713139Y-44590589D01*
X243709629Y-44614250D01*
X243703817Y-44637454D01*
X243695759Y-44659976D01*
X243685531Y-44681600D01*
X243673234Y-44702117D01*
X243658984Y-44721330D01*
X243642920Y-44739054D01*
X243625196Y-44755118D01*
X243605983Y-44769368D01*
X243585466Y-44781665D01*
X243563842Y-44791893D01*
X243541320Y-44799951D01*
X243518116Y-44805763D01*
X243494455Y-44809273D01*
X243470563Y-44810447D01*
X242558063Y-44810447D01*
X242534171Y-44809273D01*
X242510510Y-44805763D01*
X242487306Y-44799951D01*
X242464784Y-44791893D01*
X242443160Y-44781665D01*
X242422643Y-44769368D01*
X242403430Y-44755118D01*
X242385706Y-44739054D01*
X242369642Y-44721330D01*
X242355392Y-44702117D01*
X242343095Y-44681600D01*
X242332867Y-44659976D01*
X242324809Y-44637454D01*
X242318997Y-44614250D01*
X242315487Y-44590589D01*
X242314313Y-44566697D01*
X242314313Y-44079197D01*
X242315487Y-44055305D01*
X242318997Y-44031644D01*
X242324809Y-44008440D01*
X242332867Y-43985918D01*
X242343095Y-43964294D01*
X242355392Y-43943777D01*
X242369642Y-43924564D01*
X242385706Y-43906840D01*
X242403430Y-43890776D01*
X242422643Y-43876526D01*
X242443160Y-43864229D01*
X242464784Y-43854001D01*
X242487306Y-43845943D01*
X242510510Y-43840131D01*
X242534171Y-43836621D01*
X242558063Y-43835447D01*
X243470563Y-43835447D01*
X243494455Y-43836621D01*
X243494455Y-43836621D01*
G37*
D14*
X243014313Y-44322947D03*
G04 #@! TD*
D13*
G04 #@! TO.C,R3*
G36*
X271090302Y-21759854D02*
X271113963Y-21763364D01*
X271137167Y-21769176D01*
X271159689Y-21777234D01*
X271181313Y-21787462D01*
X271201830Y-21799759D01*
X271221043Y-21814009D01*
X271238767Y-21830073D01*
X271254831Y-21847797D01*
X271269081Y-21867010D01*
X271281378Y-21887527D01*
X271291606Y-21909151D01*
X271299664Y-21931673D01*
X271305476Y-21954877D01*
X271308986Y-21978538D01*
X271310160Y-22002430D01*
X271310160Y-22914930D01*
X271308986Y-22938822D01*
X271305476Y-22962483D01*
X271299664Y-22985687D01*
X271291606Y-23008209D01*
X271281378Y-23029833D01*
X271269081Y-23050350D01*
X271254831Y-23069563D01*
X271238767Y-23087287D01*
X271221043Y-23103351D01*
X271201830Y-23117601D01*
X271181313Y-23129898D01*
X271159689Y-23140126D01*
X271137167Y-23148184D01*
X271113963Y-23153996D01*
X271090302Y-23157506D01*
X271066410Y-23158680D01*
X270578910Y-23158680D01*
X270555018Y-23157506D01*
X270531357Y-23153996D01*
X270508153Y-23148184D01*
X270485631Y-23140126D01*
X270464007Y-23129898D01*
X270443490Y-23117601D01*
X270424277Y-23103351D01*
X270406553Y-23087287D01*
X270390489Y-23069563D01*
X270376239Y-23050350D01*
X270363942Y-23029833D01*
X270353714Y-23008209D01*
X270345656Y-22985687D01*
X270339844Y-22962483D01*
X270336334Y-22938822D01*
X270335160Y-22914930D01*
X270335160Y-22002430D01*
X270336334Y-21978538D01*
X270339844Y-21954877D01*
X270345656Y-21931673D01*
X270353714Y-21909151D01*
X270363942Y-21887527D01*
X270376239Y-21867010D01*
X270390489Y-21847797D01*
X270406553Y-21830073D01*
X270424277Y-21814009D01*
X270443490Y-21799759D01*
X270464007Y-21787462D01*
X270485631Y-21777234D01*
X270508153Y-21769176D01*
X270531357Y-21763364D01*
X270555018Y-21759854D01*
X270578910Y-21758680D01*
X271066410Y-21758680D01*
X271090302Y-21759854D01*
X271090302Y-21759854D01*
G37*
D14*
X270822660Y-22458680D03*
D13*
G36*
X269215302Y-21759854D02*
X269238963Y-21763364D01*
X269262167Y-21769176D01*
X269284689Y-21777234D01*
X269306313Y-21787462D01*
X269326830Y-21799759D01*
X269346043Y-21814009D01*
X269363767Y-21830073D01*
X269379831Y-21847797D01*
X269394081Y-21867010D01*
X269406378Y-21887527D01*
X269416606Y-21909151D01*
X269424664Y-21931673D01*
X269430476Y-21954877D01*
X269433986Y-21978538D01*
X269435160Y-22002430D01*
X269435160Y-22914930D01*
X269433986Y-22938822D01*
X269430476Y-22962483D01*
X269424664Y-22985687D01*
X269416606Y-23008209D01*
X269406378Y-23029833D01*
X269394081Y-23050350D01*
X269379831Y-23069563D01*
X269363767Y-23087287D01*
X269346043Y-23103351D01*
X269326830Y-23117601D01*
X269306313Y-23129898D01*
X269284689Y-23140126D01*
X269262167Y-23148184D01*
X269238963Y-23153996D01*
X269215302Y-23157506D01*
X269191410Y-23158680D01*
X268703910Y-23158680D01*
X268680018Y-23157506D01*
X268656357Y-23153996D01*
X268633153Y-23148184D01*
X268610631Y-23140126D01*
X268589007Y-23129898D01*
X268568490Y-23117601D01*
X268549277Y-23103351D01*
X268531553Y-23087287D01*
X268515489Y-23069563D01*
X268501239Y-23050350D01*
X268488942Y-23029833D01*
X268478714Y-23008209D01*
X268470656Y-22985687D01*
X268464844Y-22962483D01*
X268461334Y-22938822D01*
X268460160Y-22914930D01*
X268460160Y-22002430D01*
X268461334Y-21978538D01*
X268464844Y-21954877D01*
X268470656Y-21931673D01*
X268478714Y-21909151D01*
X268488942Y-21887527D01*
X268501239Y-21867010D01*
X268515489Y-21847797D01*
X268531553Y-21830073D01*
X268549277Y-21814009D01*
X268568490Y-21799759D01*
X268589007Y-21787462D01*
X268610631Y-21777234D01*
X268633153Y-21769176D01*
X268656357Y-21763364D01*
X268680018Y-21759854D01*
X268703910Y-21758680D01*
X269191410Y-21758680D01*
X269215302Y-21759854D01*
X269215302Y-21759854D01*
G37*
D14*
X268947660Y-22458680D03*
G04 #@! TD*
D13*
G04 #@! TO.C,R4*
G36*
X258078762Y-36801196D02*
X258102423Y-36804706D01*
X258125627Y-36810518D01*
X258148149Y-36818576D01*
X258169773Y-36828804D01*
X258190290Y-36841101D01*
X258209503Y-36855351D01*
X258227227Y-36871415D01*
X258243291Y-36889139D01*
X258257541Y-36908352D01*
X258269838Y-36928869D01*
X258280066Y-36950493D01*
X258288124Y-36973015D01*
X258293936Y-36996219D01*
X258297446Y-37019880D01*
X258298620Y-37043772D01*
X258298620Y-37956272D01*
X258297446Y-37980164D01*
X258293936Y-38003825D01*
X258288124Y-38027029D01*
X258280066Y-38049551D01*
X258269838Y-38071175D01*
X258257541Y-38091692D01*
X258243291Y-38110905D01*
X258227227Y-38128629D01*
X258209503Y-38144693D01*
X258190290Y-38158943D01*
X258169773Y-38171240D01*
X258148149Y-38181468D01*
X258125627Y-38189526D01*
X258102423Y-38195338D01*
X258078762Y-38198848D01*
X258054870Y-38200022D01*
X257567370Y-38200022D01*
X257543478Y-38198848D01*
X257519817Y-38195338D01*
X257496613Y-38189526D01*
X257474091Y-38181468D01*
X257452467Y-38171240D01*
X257431950Y-38158943D01*
X257412737Y-38144693D01*
X257395013Y-38128629D01*
X257378949Y-38110905D01*
X257364699Y-38091692D01*
X257352402Y-38071175D01*
X257342174Y-38049551D01*
X257334116Y-38027029D01*
X257328304Y-38003825D01*
X257324794Y-37980164D01*
X257323620Y-37956272D01*
X257323620Y-37043772D01*
X257324794Y-37019880D01*
X257328304Y-36996219D01*
X257334116Y-36973015D01*
X257342174Y-36950493D01*
X257352402Y-36928869D01*
X257364699Y-36908352D01*
X257378949Y-36889139D01*
X257395013Y-36871415D01*
X257412737Y-36855351D01*
X257431950Y-36841101D01*
X257452467Y-36828804D01*
X257474091Y-36818576D01*
X257496613Y-36810518D01*
X257519817Y-36804706D01*
X257543478Y-36801196D01*
X257567370Y-36800022D01*
X258054870Y-36800022D01*
X258078762Y-36801196D01*
X258078762Y-36801196D01*
G37*
D14*
X257811120Y-37500022D03*
D13*
G36*
X256203762Y-36801196D02*
X256227423Y-36804706D01*
X256250627Y-36810518D01*
X256273149Y-36818576D01*
X256294773Y-36828804D01*
X256315290Y-36841101D01*
X256334503Y-36855351D01*
X256352227Y-36871415D01*
X256368291Y-36889139D01*
X256382541Y-36908352D01*
X256394838Y-36928869D01*
X256405066Y-36950493D01*
X256413124Y-36973015D01*
X256418936Y-36996219D01*
X256422446Y-37019880D01*
X256423620Y-37043772D01*
X256423620Y-37956272D01*
X256422446Y-37980164D01*
X256418936Y-38003825D01*
X256413124Y-38027029D01*
X256405066Y-38049551D01*
X256394838Y-38071175D01*
X256382541Y-38091692D01*
X256368291Y-38110905D01*
X256352227Y-38128629D01*
X256334503Y-38144693D01*
X256315290Y-38158943D01*
X256294773Y-38171240D01*
X256273149Y-38181468D01*
X256250627Y-38189526D01*
X256227423Y-38195338D01*
X256203762Y-38198848D01*
X256179870Y-38200022D01*
X255692370Y-38200022D01*
X255668478Y-38198848D01*
X255644817Y-38195338D01*
X255621613Y-38189526D01*
X255599091Y-38181468D01*
X255577467Y-38171240D01*
X255556950Y-38158943D01*
X255537737Y-38144693D01*
X255520013Y-38128629D01*
X255503949Y-38110905D01*
X255489699Y-38091692D01*
X255477402Y-38071175D01*
X255467174Y-38049551D01*
X255459116Y-38027029D01*
X255453304Y-38003825D01*
X255449794Y-37980164D01*
X255448620Y-37956272D01*
X255448620Y-37043772D01*
X255449794Y-37019880D01*
X255453304Y-36996219D01*
X255459116Y-36973015D01*
X255467174Y-36950493D01*
X255477402Y-36928869D01*
X255489699Y-36908352D01*
X255503949Y-36889139D01*
X255520013Y-36871415D01*
X255537737Y-36855351D01*
X255556950Y-36841101D01*
X255577467Y-36828804D01*
X255599091Y-36818576D01*
X255621613Y-36810518D01*
X255644817Y-36804706D01*
X255668478Y-36801196D01*
X255692370Y-36800022D01*
X256179870Y-36800022D01*
X256203762Y-36801196D01*
X256203762Y-36801196D01*
G37*
D14*
X255936120Y-37500022D03*
G04 #@! TD*
D13*
G04 #@! TO.C,R5*
G36*
X256219482Y-50573076D02*
X256243143Y-50576586D01*
X256266347Y-50582398D01*
X256288869Y-50590456D01*
X256310493Y-50600684D01*
X256331010Y-50612981D01*
X256350223Y-50627231D01*
X256367947Y-50643295D01*
X256384011Y-50661019D01*
X256398261Y-50680232D01*
X256410558Y-50700749D01*
X256420786Y-50722373D01*
X256428844Y-50744895D01*
X256434656Y-50768099D01*
X256438166Y-50791760D01*
X256439340Y-50815652D01*
X256439340Y-51728152D01*
X256438166Y-51752044D01*
X256434656Y-51775705D01*
X256428844Y-51798909D01*
X256420786Y-51821431D01*
X256410558Y-51843055D01*
X256398261Y-51863572D01*
X256384011Y-51882785D01*
X256367947Y-51900509D01*
X256350223Y-51916573D01*
X256331010Y-51930823D01*
X256310493Y-51943120D01*
X256288869Y-51953348D01*
X256266347Y-51961406D01*
X256243143Y-51967218D01*
X256219482Y-51970728D01*
X256195590Y-51971902D01*
X255708090Y-51971902D01*
X255684198Y-51970728D01*
X255660537Y-51967218D01*
X255637333Y-51961406D01*
X255614811Y-51953348D01*
X255593187Y-51943120D01*
X255572670Y-51930823D01*
X255553457Y-51916573D01*
X255535733Y-51900509D01*
X255519669Y-51882785D01*
X255505419Y-51863572D01*
X255493122Y-51843055D01*
X255482894Y-51821431D01*
X255474836Y-51798909D01*
X255469024Y-51775705D01*
X255465514Y-51752044D01*
X255464340Y-51728152D01*
X255464340Y-50815652D01*
X255465514Y-50791760D01*
X255469024Y-50768099D01*
X255474836Y-50744895D01*
X255482894Y-50722373D01*
X255493122Y-50700749D01*
X255505419Y-50680232D01*
X255519669Y-50661019D01*
X255535733Y-50643295D01*
X255553457Y-50627231D01*
X255572670Y-50612981D01*
X255593187Y-50600684D01*
X255614811Y-50590456D01*
X255637333Y-50582398D01*
X255660537Y-50576586D01*
X255684198Y-50573076D01*
X255708090Y-50571902D01*
X256195590Y-50571902D01*
X256219482Y-50573076D01*
X256219482Y-50573076D01*
G37*
D14*
X255951840Y-51271902D03*
D13*
G36*
X254344482Y-50573076D02*
X254368143Y-50576586D01*
X254391347Y-50582398D01*
X254413869Y-50590456D01*
X254435493Y-50600684D01*
X254456010Y-50612981D01*
X254475223Y-50627231D01*
X254492947Y-50643295D01*
X254509011Y-50661019D01*
X254523261Y-50680232D01*
X254535558Y-50700749D01*
X254545786Y-50722373D01*
X254553844Y-50744895D01*
X254559656Y-50768099D01*
X254563166Y-50791760D01*
X254564340Y-50815652D01*
X254564340Y-51728152D01*
X254563166Y-51752044D01*
X254559656Y-51775705D01*
X254553844Y-51798909D01*
X254545786Y-51821431D01*
X254535558Y-51843055D01*
X254523261Y-51863572D01*
X254509011Y-51882785D01*
X254492947Y-51900509D01*
X254475223Y-51916573D01*
X254456010Y-51930823D01*
X254435493Y-51943120D01*
X254413869Y-51953348D01*
X254391347Y-51961406D01*
X254368143Y-51967218D01*
X254344482Y-51970728D01*
X254320590Y-51971902D01*
X253833090Y-51971902D01*
X253809198Y-51970728D01*
X253785537Y-51967218D01*
X253762333Y-51961406D01*
X253739811Y-51953348D01*
X253718187Y-51943120D01*
X253697670Y-51930823D01*
X253678457Y-51916573D01*
X253660733Y-51900509D01*
X253644669Y-51882785D01*
X253630419Y-51863572D01*
X253618122Y-51843055D01*
X253607894Y-51821431D01*
X253599836Y-51798909D01*
X253594024Y-51775705D01*
X253590514Y-51752044D01*
X253589340Y-51728152D01*
X253589340Y-50815652D01*
X253590514Y-50791760D01*
X253594024Y-50768099D01*
X253599836Y-50744895D01*
X253607894Y-50722373D01*
X253618122Y-50700749D01*
X253630419Y-50680232D01*
X253644669Y-50661019D01*
X253660733Y-50643295D01*
X253678457Y-50627231D01*
X253697670Y-50612981D01*
X253718187Y-50600684D01*
X253739811Y-50590456D01*
X253762333Y-50582398D01*
X253785537Y-50576586D01*
X253809198Y-50573076D01*
X253833090Y-50571902D01*
X254320590Y-50571902D01*
X254344482Y-50573076D01*
X254344482Y-50573076D01*
G37*
D14*
X254076840Y-51271902D03*
G04 #@! TD*
D13*
G04 #@! TO.C,R6*
G36*
X260438662Y-24197716D02*
X260462323Y-24201226D01*
X260485527Y-24207038D01*
X260508049Y-24215096D01*
X260529673Y-24225324D01*
X260550190Y-24237621D01*
X260569403Y-24251871D01*
X260587127Y-24267935D01*
X260603191Y-24285659D01*
X260617441Y-24304872D01*
X260629738Y-24325389D01*
X260639966Y-24347013D01*
X260648024Y-24369535D01*
X260653836Y-24392739D01*
X260657346Y-24416400D01*
X260658520Y-24440292D01*
X260658520Y-25352792D01*
X260657346Y-25376684D01*
X260653836Y-25400345D01*
X260648024Y-25423549D01*
X260639966Y-25446071D01*
X260629738Y-25467695D01*
X260617441Y-25488212D01*
X260603191Y-25507425D01*
X260587127Y-25525149D01*
X260569403Y-25541213D01*
X260550190Y-25555463D01*
X260529673Y-25567760D01*
X260508049Y-25577988D01*
X260485527Y-25586046D01*
X260462323Y-25591858D01*
X260438662Y-25595368D01*
X260414770Y-25596542D01*
X259927270Y-25596542D01*
X259903378Y-25595368D01*
X259879717Y-25591858D01*
X259856513Y-25586046D01*
X259833991Y-25577988D01*
X259812367Y-25567760D01*
X259791850Y-25555463D01*
X259772637Y-25541213D01*
X259754913Y-25525149D01*
X259738849Y-25507425D01*
X259724599Y-25488212D01*
X259712302Y-25467695D01*
X259702074Y-25446071D01*
X259694016Y-25423549D01*
X259688204Y-25400345D01*
X259684694Y-25376684D01*
X259683520Y-25352792D01*
X259683520Y-24440292D01*
X259684694Y-24416400D01*
X259688204Y-24392739D01*
X259694016Y-24369535D01*
X259702074Y-24347013D01*
X259712302Y-24325389D01*
X259724599Y-24304872D01*
X259738849Y-24285659D01*
X259754913Y-24267935D01*
X259772637Y-24251871D01*
X259791850Y-24237621D01*
X259812367Y-24225324D01*
X259833991Y-24215096D01*
X259856513Y-24207038D01*
X259879717Y-24201226D01*
X259903378Y-24197716D01*
X259927270Y-24196542D01*
X260414770Y-24196542D01*
X260438662Y-24197716D01*
X260438662Y-24197716D01*
G37*
D14*
X260171020Y-24896542D03*
D13*
G36*
X258563662Y-24197716D02*
X258587323Y-24201226D01*
X258610527Y-24207038D01*
X258633049Y-24215096D01*
X258654673Y-24225324D01*
X258675190Y-24237621D01*
X258694403Y-24251871D01*
X258712127Y-24267935D01*
X258728191Y-24285659D01*
X258742441Y-24304872D01*
X258754738Y-24325389D01*
X258764966Y-24347013D01*
X258773024Y-24369535D01*
X258778836Y-24392739D01*
X258782346Y-24416400D01*
X258783520Y-24440292D01*
X258783520Y-25352792D01*
X258782346Y-25376684D01*
X258778836Y-25400345D01*
X258773024Y-25423549D01*
X258764966Y-25446071D01*
X258754738Y-25467695D01*
X258742441Y-25488212D01*
X258728191Y-25507425D01*
X258712127Y-25525149D01*
X258694403Y-25541213D01*
X258675190Y-25555463D01*
X258654673Y-25567760D01*
X258633049Y-25577988D01*
X258610527Y-25586046D01*
X258587323Y-25591858D01*
X258563662Y-25595368D01*
X258539770Y-25596542D01*
X258052270Y-25596542D01*
X258028378Y-25595368D01*
X258004717Y-25591858D01*
X257981513Y-25586046D01*
X257958991Y-25577988D01*
X257937367Y-25567760D01*
X257916850Y-25555463D01*
X257897637Y-25541213D01*
X257879913Y-25525149D01*
X257863849Y-25507425D01*
X257849599Y-25488212D01*
X257837302Y-25467695D01*
X257827074Y-25446071D01*
X257819016Y-25423549D01*
X257813204Y-25400345D01*
X257809694Y-25376684D01*
X257808520Y-25352792D01*
X257808520Y-24440292D01*
X257809694Y-24416400D01*
X257813204Y-24392739D01*
X257819016Y-24369535D01*
X257827074Y-24347013D01*
X257837302Y-24325389D01*
X257849599Y-24304872D01*
X257863849Y-24285659D01*
X257879913Y-24267935D01*
X257897637Y-24251871D01*
X257916850Y-24237621D01*
X257937367Y-24225324D01*
X257958991Y-24215096D01*
X257981513Y-24207038D01*
X258004717Y-24201226D01*
X258028378Y-24197716D01*
X258052270Y-24196542D01*
X258539770Y-24196542D01*
X258563662Y-24197716D01*
X258563662Y-24197716D01*
G37*
D14*
X258296020Y-24896542D03*
G04 #@! TD*
D13*
G04 #@! TO.C,R7*
G36*
X258169722Y-44675196D02*
X258193383Y-44678706D01*
X258216587Y-44684518D01*
X258239109Y-44692576D01*
X258260733Y-44702804D01*
X258281250Y-44715101D01*
X258300463Y-44729351D01*
X258318187Y-44745415D01*
X258334251Y-44763139D01*
X258348501Y-44782352D01*
X258360798Y-44802869D01*
X258371026Y-44824493D01*
X258379084Y-44847015D01*
X258384896Y-44870219D01*
X258388406Y-44893880D01*
X258389580Y-44917772D01*
X258389580Y-45830272D01*
X258388406Y-45854164D01*
X258384896Y-45877825D01*
X258379084Y-45901029D01*
X258371026Y-45923551D01*
X258360798Y-45945175D01*
X258348501Y-45965692D01*
X258334251Y-45984905D01*
X258318187Y-46002629D01*
X258300463Y-46018693D01*
X258281250Y-46032943D01*
X258260733Y-46045240D01*
X258239109Y-46055468D01*
X258216587Y-46063526D01*
X258193383Y-46069338D01*
X258169722Y-46072848D01*
X258145830Y-46074022D01*
X257658330Y-46074022D01*
X257634438Y-46072848D01*
X257610777Y-46069338D01*
X257587573Y-46063526D01*
X257565051Y-46055468D01*
X257543427Y-46045240D01*
X257522910Y-46032943D01*
X257503697Y-46018693D01*
X257485973Y-46002629D01*
X257469909Y-45984905D01*
X257455659Y-45965692D01*
X257443362Y-45945175D01*
X257433134Y-45923551D01*
X257425076Y-45901029D01*
X257419264Y-45877825D01*
X257415754Y-45854164D01*
X257414580Y-45830272D01*
X257414580Y-44917772D01*
X257415754Y-44893880D01*
X257419264Y-44870219D01*
X257425076Y-44847015D01*
X257433134Y-44824493D01*
X257443362Y-44802869D01*
X257455659Y-44782352D01*
X257469909Y-44763139D01*
X257485973Y-44745415D01*
X257503697Y-44729351D01*
X257522910Y-44715101D01*
X257543427Y-44702804D01*
X257565051Y-44692576D01*
X257587573Y-44684518D01*
X257610777Y-44678706D01*
X257634438Y-44675196D01*
X257658330Y-44674022D01*
X258145830Y-44674022D01*
X258169722Y-44675196D01*
X258169722Y-44675196D01*
G37*
D14*
X257902080Y-45374022D03*
D13*
G36*
X260044722Y-44675196D02*
X260068383Y-44678706D01*
X260091587Y-44684518D01*
X260114109Y-44692576D01*
X260135733Y-44702804D01*
X260156250Y-44715101D01*
X260175463Y-44729351D01*
X260193187Y-44745415D01*
X260209251Y-44763139D01*
X260223501Y-44782352D01*
X260235798Y-44802869D01*
X260246026Y-44824493D01*
X260254084Y-44847015D01*
X260259896Y-44870219D01*
X260263406Y-44893880D01*
X260264580Y-44917772D01*
X260264580Y-45830272D01*
X260263406Y-45854164D01*
X260259896Y-45877825D01*
X260254084Y-45901029D01*
X260246026Y-45923551D01*
X260235798Y-45945175D01*
X260223501Y-45965692D01*
X260209251Y-45984905D01*
X260193187Y-46002629D01*
X260175463Y-46018693D01*
X260156250Y-46032943D01*
X260135733Y-46045240D01*
X260114109Y-46055468D01*
X260091587Y-46063526D01*
X260068383Y-46069338D01*
X260044722Y-46072848D01*
X260020830Y-46074022D01*
X259533330Y-46074022D01*
X259509438Y-46072848D01*
X259485777Y-46069338D01*
X259462573Y-46063526D01*
X259440051Y-46055468D01*
X259418427Y-46045240D01*
X259397910Y-46032943D01*
X259378697Y-46018693D01*
X259360973Y-46002629D01*
X259344909Y-45984905D01*
X259330659Y-45965692D01*
X259318362Y-45945175D01*
X259308134Y-45923551D01*
X259300076Y-45901029D01*
X259294264Y-45877825D01*
X259290754Y-45854164D01*
X259289580Y-45830272D01*
X259289580Y-44917772D01*
X259290754Y-44893880D01*
X259294264Y-44870219D01*
X259300076Y-44847015D01*
X259308134Y-44824493D01*
X259318362Y-44802869D01*
X259330659Y-44782352D01*
X259344909Y-44763139D01*
X259360973Y-44745415D01*
X259378697Y-44729351D01*
X259397910Y-44715101D01*
X259418427Y-44702804D01*
X259440051Y-44692576D01*
X259462573Y-44684518D01*
X259485777Y-44678706D01*
X259509438Y-44675196D01*
X259533330Y-44674022D01*
X260020830Y-44674022D01*
X260044722Y-44675196D01*
X260044722Y-44675196D01*
G37*
D14*
X259777080Y-45374022D03*
G04 #@! TD*
D13*
G04 #@! TO.C,R8*
G36*
X268672271Y-43904746D02*
X268695932Y-43908256D01*
X268719136Y-43914068D01*
X268741658Y-43922126D01*
X268763282Y-43932354D01*
X268783799Y-43944651D01*
X268803012Y-43958901D01*
X268820736Y-43974965D01*
X268836800Y-43992689D01*
X268851050Y-44011902D01*
X268863347Y-44032419D01*
X268873575Y-44054043D01*
X268881633Y-44076565D01*
X268887445Y-44099769D01*
X268890955Y-44123430D01*
X268892129Y-44147322D01*
X268892129Y-45059822D01*
X268890955Y-45083714D01*
X268887445Y-45107375D01*
X268881633Y-45130579D01*
X268873575Y-45153101D01*
X268863347Y-45174725D01*
X268851050Y-45195242D01*
X268836800Y-45214455D01*
X268820736Y-45232179D01*
X268803012Y-45248243D01*
X268783799Y-45262493D01*
X268763282Y-45274790D01*
X268741658Y-45285018D01*
X268719136Y-45293076D01*
X268695932Y-45298888D01*
X268672271Y-45302398D01*
X268648379Y-45303572D01*
X268160879Y-45303572D01*
X268136987Y-45302398D01*
X268113326Y-45298888D01*
X268090122Y-45293076D01*
X268067600Y-45285018D01*
X268045976Y-45274790D01*
X268025459Y-45262493D01*
X268006246Y-45248243D01*
X267988522Y-45232179D01*
X267972458Y-45214455D01*
X267958208Y-45195242D01*
X267945911Y-45174725D01*
X267935683Y-45153101D01*
X267927625Y-45130579D01*
X267921813Y-45107375D01*
X267918303Y-45083714D01*
X267917129Y-45059822D01*
X267917129Y-44147322D01*
X267918303Y-44123430D01*
X267921813Y-44099769D01*
X267927625Y-44076565D01*
X267935683Y-44054043D01*
X267945911Y-44032419D01*
X267958208Y-44011902D01*
X267972458Y-43992689D01*
X267988522Y-43974965D01*
X268006246Y-43958901D01*
X268025459Y-43944651D01*
X268045976Y-43932354D01*
X268067600Y-43922126D01*
X268090122Y-43914068D01*
X268113326Y-43908256D01*
X268136987Y-43904746D01*
X268160879Y-43903572D01*
X268648379Y-43903572D01*
X268672271Y-43904746D01*
X268672271Y-43904746D01*
G37*
D14*
X268404629Y-44603572D03*
D13*
G36*
X266797271Y-43904746D02*
X266820932Y-43908256D01*
X266844136Y-43914068D01*
X266866658Y-43922126D01*
X266888282Y-43932354D01*
X266908799Y-43944651D01*
X266928012Y-43958901D01*
X266945736Y-43974965D01*
X266961800Y-43992689D01*
X266976050Y-44011902D01*
X266988347Y-44032419D01*
X266998575Y-44054043D01*
X267006633Y-44076565D01*
X267012445Y-44099769D01*
X267015955Y-44123430D01*
X267017129Y-44147322D01*
X267017129Y-45059822D01*
X267015955Y-45083714D01*
X267012445Y-45107375D01*
X267006633Y-45130579D01*
X266998575Y-45153101D01*
X266988347Y-45174725D01*
X266976050Y-45195242D01*
X266961800Y-45214455D01*
X266945736Y-45232179D01*
X266928012Y-45248243D01*
X266908799Y-45262493D01*
X266888282Y-45274790D01*
X266866658Y-45285018D01*
X266844136Y-45293076D01*
X266820932Y-45298888D01*
X266797271Y-45302398D01*
X266773379Y-45303572D01*
X266285879Y-45303572D01*
X266261987Y-45302398D01*
X266238326Y-45298888D01*
X266215122Y-45293076D01*
X266192600Y-45285018D01*
X266170976Y-45274790D01*
X266150459Y-45262493D01*
X266131246Y-45248243D01*
X266113522Y-45232179D01*
X266097458Y-45214455D01*
X266083208Y-45195242D01*
X266070911Y-45174725D01*
X266060683Y-45153101D01*
X266052625Y-45130579D01*
X266046813Y-45107375D01*
X266043303Y-45083714D01*
X266042129Y-45059822D01*
X266042129Y-44147322D01*
X266043303Y-44123430D01*
X266046813Y-44099769D01*
X266052625Y-44076565D01*
X266060683Y-44054043D01*
X266070911Y-44032419D01*
X266083208Y-44011902D01*
X266097458Y-43992689D01*
X266113522Y-43974965D01*
X266131246Y-43958901D01*
X266150459Y-43944651D01*
X266170976Y-43932354D01*
X266192600Y-43922126D01*
X266215122Y-43914068D01*
X266238326Y-43908256D01*
X266261987Y-43904746D01*
X266285879Y-43903572D01*
X266773379Y-43903572D01*
X266797271Y-43904746D01*
X266797271Y-43904746D01*
G37*
D14*
X266529629Y-44603572D03*
G04 #@! TD*
D13*
G04 #@! TO.C,R9*
G36*
X269469831Y-41730506D02*
X269493492Y-41734016D01*
X269516696Y-41739828D01*
X269539218Y-41747886D01*
X269560842Y-41758114D01*
X269581359Y-41770411D01*
X269600572Y-41784661D01*
X269618296Y-41800725D01*
X269634360Y-41818449D01*
X269648610Y-41837662D01*
X269660907Y-41858179D01*
X269671135Y-41879803D01*
X269679193Y-41902325D01*
X269685005Y-41925529D01*
X269688515Y-41949190D01*
X269689689Y-41973082D01*
X269689689Y-42885582D01*
X269688515Y-42909474D01*
X269685005Y-42933135D01*
X269679193Y-42956339D01*
X269671135Y-42978861D01*
X269660907Y-43000485D01*
X269648610Y-43021002D01*
X269634360Y-43040215D01*
X269618296Y-43057939D01*
X269600572Y-43074003D01*
X269581359Y-43088253D01*
X269560842Y-43100550D01*
X269539218Y-43110778D01*
X269516696Y-43118836D01*
X269493492Y-43124648D01*
X269469831Y-43128158D01*
X269445939Y-43129332D01*
X268958439Y-43129332D01*
X268934547Y-43128158D01*
X268910886Y-43124648D01*
X268887682Y-43118836D01*
X268865160Y-43110778D01*
X268843536Y-43100550D01*
X268823019Y-43088253D01*
X268803806Y-43074003D01*
X268786082Y-43057939D01*
X268770018Y-43040215D01*
X268755768Y-43021002D01*
X268743471Y-43000485D01*
X268733243Y-42978861D01*
X268725185Y-42956339D01*
X268719373Y-42933135D01*
X268715863Y-42909474D01*
X268714689Y-42885582D01*
X268714689Y-41973082D01*
X268715863Y-41949190D01*
X268719373Y-41925529D01*
X268725185Y-41902325D01*
X268733243Y-41879803D01*
X268743471Y-41858179D01*
X268755768Y-41837662D01*
X268770018Y-41818449D01*
X268786082Y-41800725D01*
X268803806Y-41784661D01*
X268823019Y-41770411D01*
X268843536Y-41758114D01*
X268865160Y-41747886D01*
X268887682Y-41739828D01*
X268910886Y-41734016D01*
X268934547Y-41730506D01*
X268958439Y-41729332D01*
X269445939Y-41729332D01*
X269469831Y-41730506D01*
X269469831Y-41730506D01*
G37*
D14*
X269202189Y-42429332D03*
D13*
G36*
X267594831Y-41730506D02*
X267618492Y-41734016D01*
X267641696Y-41739828D01*
X267664218Y-41747886D01*
X267685842Y-41758114D01*
X267706359Y-41770411D01*
X267725572Y-41784661D01*
X267743296Y-41800725D01*
X267759360Y-41818449D01*
X267773610Y-41837662D01*
X267785907Y-41858179D01*
X267796135Y-41879803D01*
X267804193Y-41902325D01*
X267810005Y-41925529D01*
X267813515Y-41949190D01*
X267814689Y-41973082D01*
X267814689Y-42885582D01*
X267813515Y-42909474D01*
X267810005Y-42933135D01*
X267804193Y-42956339D01*
X267796135Y-42978861D01*
X267785907Y-43000485D01*
X267773610Y-43021002D01*
X267759360Y-43040215D01*
X267743296Y-43057939D01*
X267725572Y-43074003D01*
X267706359Y-43088253D01*
X267685842Y-43100550D01*
X267664218Y-43110778D01*
X267641696Y-43118836D01*
X267618492Y-43124648D01*
X267594831Y-43128158D01*
X267570939Y-43129332D01*
X267083439Y-43129332D01*
X267059547Y-43128158D01*
X267035886Y-43124648D01*
X267012682Y-43118836D01*
X266990160Y-43110778D01*
X266968536Y-43100550D01*
X266948019Y-43088253D01*
X266928806Y-43074003D01*
X266911082Y-43057939D01*
X266895018Y-43040215D01*
X266880768Y-43021002D01*
X266868471Y-43000485D01*
X266858243Y-42978861D01*
X266850185Y-42956339D01*
X266844373Y-42933135D01*
X266840863Y-42909474D01*
X266839689Y-42885582D01*
X266839689Y-41973082D01*
X266840863Y-41949190D01*
X266844373Y-41925529D01*
X266850185Y-41902325D01*
X266858243Y-41879803D01*
X266868471Y-41858179D01*
X266880768Y-41837662D01*
X266895018Y-41818449D01*
X266911082Y-41800725D01*
X266928806Y-41784661D01*
X266948019Y-41770411D01*
X266968536Y-41758114D01*
X266990160Y-41747886D01*
X267012682Y-41739828D01*
X267035886Y-41734016D01*
X267059547Y-41730506D01*
X267083439Y-41729332D01*
X267570939Y-41729332D01*
X267594831Y-41730506D01*
X267594831Y-41730506D01*
G37*
D14*
X267327189Y-42429332D03*
G04 #@! TD*
D13*
G04 #@! TO.C,R10*
G36*
X255548922Y-22887076D02*
X255572583Y-22890586D01*
X255595787Y-22896398D01*
X255618309Y-22904456D01*
X255639933Y-22914684D01*
X255660450Y-22926981D01*
X255679663Y-22941231D01*
X255697387Y-22957295D01*
X255713451Y-22975019D01*
X255727701Y-22994232D01*
X255739998Y-23014749D01*
X255750226Y-23036373D01*
X255758284Y-23058895D01*
X255764096Y-23082099D01*
X255767606Y-23105760D01*
X255768780Y-23129652D01*
X255768780Y-24042152D01*
X255767606Y-24066044D01*
X255764096Y-24089705D01*
X255758284Y-24112909D01*
X255750226Y-24135431D01*
X255739998Y-24157055D01*
X255727701Y-24177572D01*
X255713451Y-24196785D01*
X255697387Y-24214509D01*
X255679663Y-24230573D01*
X255660450Y-24244823D01*
X255639933Y-24257120D01*
X255618309Y-24267348D01*
X255595787Y-24275406D01*
X255572583Y-24281218D01*
X255548922Y-24284728D01*
X255525030Y-24285902D01*
X255037530Y-24285902D01*
X255013638Y-24284728D01*
X254989977Y-24281218D01*
X254966773Y-24275406D01*
X254944251Y-24267348D01*
X254922627Y-24257120D01*
X254902110Y-24244823D01*
X254882897Y-24230573D01*
X254865173Y-24214509D01*
X254849109Y-24196785D01*
X254834859Y-24177572D01*
X254822562Y-24157055D01*
X254812334Y-24135431D01*
X254804276Y-24112909D01*
X254798464Y-24089705D01*
X254794954Y-24066044D01*
X254793780Y-24042152D01*
X254793780Y-23129652D01*
X254794954Y-23105760D01*
X254798464Y-23082099D01*
X254804276Y-23058895D01*
X254812334Y-23036373D01*
X254822562Y-23014749D01*
X254834859Y-22994232D01*
X254849109Y-22975019D01*
X254865173Y-22957295D01*
X254882897Y-22941231D01*
X254902110Y-22926981D01*
X254922627Y-22914684D01*
X254944251Y-22904456D01*
X254966773Y-22896398D01*
X254989977Y-22890586D01*
X255013638Y-22887076D01*
X255037530Y-22885902D01*
X255525030Y-22885902D01*
X255548922Y-22887076D01*
X255548922Y-22887076D01*
G37*
D14*
X255281280Y-23585902D03*
D13*
G36*
X253673922Y-22887076D02*
X253697583Y-22890586D01*
X253720787Y-22896398D01*
X253743309Y-22904456D01*
X253764933Y-22914684D01*
X253785450Y-22926981D01*
X253804663Y-22941231D01*
X253822387Y-22957295D01*
X253838451Y-22975019D01*
X253852701Y-22994232D01*
X253864998Y-23014749D01*
X253875226Y-23036373D01*
X253883284Y-23058895D01*
X253889096Y-23082099D01*
X253892606Y-23105760D01*
X253893780Y-23129652D01*
X253893780Y-24042152D01*
X253892606Y-24066044D01*
X253889096Y-24089705D01*
X253883284Y-24112909D01*
X253875226Y-24135431D01*
X253864998Y-24157055D01*
X253852701Y-24177572D01*
X253838451Y-24196785D01*
X253822387Y-24214509D01*
X253804663Y-24230573D01*
X253785450Y-24244823D01*
X253764933Y-24257120D01*
X253743309Y-24267348D01*
X253720787Y-24275406D01*
X253697583Y-24281218D01*
X253673922Y-24284728D01*
X253650030Y-24285902D01*
X253162530Y-24285902D01*
X253138638Y-24284728D01*
X253114977Y-24281218D01*
X253091773Y-24275406D01*
X253069251Y-24267348D01*
X253047627Y-24257120D01*
X253027110Y-24244823D01*
X253007897Y-24230573D01*
X252990173Y-24214509D01*
X252974109Y-24196785D01*
X252959859Y-24177572D01*
X252947562Y-24157055D01*
X252937334Y-24135431D01*
X252929276Y-24112909D01*
X252923464Y-24089705D01*
X252919954Y-24066044D01*
X252918780Y-24042152D01*
X252918780Y-23129652D01*
X252919954Y-23105760D01*
X252923464Y-23082099D01*
X252929276Y-23058895D01*
X252937334Y-23036373D01*
X252947562Y-23014749D01*
X252959859Y-22994232D01*
X252974109Y-22975019D01*
X252990173Y-22957295D01*
X253007897Y-22941231D01*
X253027110Y-22926981D01*
X253047627Y-22914684D01*
X253069251Y-22904456D01*
X253091773Y-22896398D01*
X253114977Y-22890586D01*
X253138638Y-22887076D01*
X253162530Y-22885902D01*
X253650030Y-22885902D01*
X253673922Y-22887076D01*
X253673922Y-22887076D01*
G37*
D14*
X253406280Y-23585902D03*
G04 #@! TD*
D13*
G04 #@! TO.C,R11*
G36*
X260008682Y-50466396D02*
X260032343Y-50469906D01*
X260055547Y-50475718D01*
X260078069Y-50483776D01*
X260099693Y-50494004D01*
X260120210Y-50506301D01*
X260139423Y-50520551D01*
X260157147Y-50536615D01*
X260173211Y-50554339D01*
X260187461Y-50573552D01*
X260199758Y-50594069D01*
X260209986Y-50615693D01*
X260218044Y-50638215D01*
X260223856Y-50661419D01*
X260227366Y-50685080D01*
X260228540Y-50708972D01*
X260228540Y-51621472D01*
X260227366Y-51645364D01*
X260223856Y-51669025D01*
X260218044Y-51692229D01*
X260209986Y-51714751D01*
X260199758Y-51736375D01*
X260187461Y-51756892D01*
X260173211Y-51776105D01*
X260157147Y-51793829D01*
X260139423Y-51809893D01*
X260120210Y-51824143D01*
X260099693Y-51836440D01*
X260078069Y-51846668D01*
X260055547Y-51854726D01*
X260032343Y-51860538D01*
X260008682Y-51864048D01*
X259984790Y-51865222D01*
X259497290Y-51865222D01*
X259473398Y-51864048D01*
X259449737Y-51860538D01*
X259426533Y-51854726D01*
X259404011Y-51846668D01*
X259382387Y-51836440D01*
X259361870Y-51824143D01*
X259342657Y-51809893D01*
X259324933Y-51793829D01*
X259308869Y-51776105D01*
X259294619Y-51756892D01*
X259282322Y-51736375D01*
X259272094Y-51714751D01*
X259264036Y-51692229D01*
X259258224Y-51669025D01*
X259254714Y-51645364D01*
X259253540Y-51621472D01*
X259253540Y-50708972D01*
X259254714Y-50685080D01*
X259258224Y-50661419D01*
X259264036Y-50638215D01*
X259272094Y-50615693D01*
X259282322Y-50594069D01*
X259294619Y-50573552D01*
X259308869Y-50554339D01*
X259324933Y-50536615D01*
X259342657Y-50520551D01*
X259361870Y-50506301D01*
X259382387Y-50494004D01*
X259404011Y-50483776D01*
X259426533Y-50475718D01*
X259449737Y-50469906D01*
X259473398Y-50466396D01*
X259497290Y-50465222D01*
X259984790Y-50465222D01*
X260008682Y-50466396D01*
X260008682Y-50466396D01*
G37*
D14*
X259741040Y-51165222D03*
D13*
G36*
X261883682Y-50466396D02*
X261907343Y-50469906D01*
X261930547Y-50475718D01*
X261953069Y-50483776D01*
X261974693Y-50494004D01*
X261995210Y-50506301D01*
X262014423Y-50520551D01*
X262032147Y-50536615D01*
X262048211Y-50554339D01*
X262062461Y-50573552D01*
X262074758Y-50594069D01*
X262084986Y-50615693D01*
X262093044Y-50638215D01*
X262098856Y-50661419D01*
X262102366Y-50685080D01*
X262103540Y-50708972D01*
X262103540Y-51621472D01*
X262102366Y-51645364D01*
X262098856Y-51669025D01*
X262093044Y-51692229D01*
X262084986Y-51714751D01*
X262074758Y-51736375D01*
X262062461Y-51756892D01*
X262048211Y-51776105D01*
X262032147Y-51793829D01*
X262014423Y-51809893D01*
X261995210Y-51824143D01*
X261974693Y-51836440D01*
X261953069Y-51846668D01*
X261930547Y-51854726D01*
X261907343Y-51860538D01*
X261883682Y-51864048D01*
X261859790Y-51865222D01*
X261372290Y-51865222D01*
X261348398Y-51864048D01*
X261324737Y-51860538D01*
X261301533Y-51854726D01*
X261279011Y-51846668D01*
X261257387Y-51836440D01*
X261236870Y-51824143D01*
X261217657Y-51809893D01*
X261199933Y-51793829D01*
X261183869Y-51776105D01*
X261169619Y-51756892D01*
X261157322Y-51736375D01*
X261147094Y-51714751D01*
X261139036Y-51692229D01*
X261133224Y-51669025D01*
X261129714Y-51645364D01*
X261128540Y-51621472D01*
X261128540Y-50708972D01*
X261129714Y-50685080D01*
X261133224Y-50661419D01*
X261139036Y-50638215D01*
X261147094Y-50615693D01*
X261157322Y-50594069D01*
X261169619Y-50573552D01*
X261183869Y-50554339D01*
X261199933Y-50536615D01*
X261217657Y-50520551D01*
X261236870Y-50506301D01*
X261257387Y-50494004D01*
X261279011Y-50483776D01*
X261301533Y-50475718D01*
X261324737Y-50469906D01*
X261348398Y-50466396D01*
X261372290Y-50465222D01*
X261859790Y-50465222D01*
X261883682Y-50466396D01*
X261883682Y-50466396D01*
G37*
D14*
X261616040Y-51165222D03*
G04 #@! TD*
D13*
G04 #@! TO.C,R12*
G36*
X258210362Y-47042476D02*
X258234023Y-47045986D01*
X258257227Y-47051798D01*
X258279749Y-47059856D01*
X258301373Y-47070084D01*
X258321890Y-47082381D01*
X258341103Y-47096631D01*
X258358827Y-47112695D01*
X258374891Y-47130419D01*
X258389141Y-47149632D01*
X258401438Y-47170149D01*
X258411666Y-47191773D01*
X258419724Y-47214295D01*
X258425536Y-47237499D01*
X258429046Y-47261160D01*
X258430220Y-47285052D01*
X258430220Y-48197552D01*
X258429046Y-48221444D01*
X258425536Y-48245105D01*
X258419724Y-48268309D01*
X258411666Y-48290831D01*
X258401438Y-48312455D01*
X258389141Y-48332972D01*
X258374891Y-48352185D01*
X258358827Y-48369909D01*
X258341103Y-48385973D01*
X258321890Y-48400223D01*
X258301373Y-48412520D01*
X258279749Y-48422748D01*
X258257227Y-48430806D01*
X258234023Y-48436618D01*
X258210362Y-48440128D01*
X258186470Y-48441302D01*
X257698970Y-48441302D01*
X257675078Y-48440128D01*
X257651417Y-48436618D01*
X257628213Y-48430806D01*
X257605691Y-48422748D01*
X257584067Y-48412520D01*
X257563550Y-48400223D01*
X257544337Y-48385973D01*
X257526613Y-48369909D01*
X257510549Y-48352185D01*
X257496299Y-48332972D01*
X257484002Y-48312455D01*
X257473774Y-48290831D01*
X257465716Y-48268309D01*
X257459904Y-48245105D01*
X257456394Y-48221444D01*
X257455220Y-48197552D01*
X257455220Y-47285052D01*
X257456394Y-47261160D01*
X257459904Y-47237499D01*
X257465716Y-47214295D01*
X257473774Y-47191773D01*
X257484002Y-47170149D01*
X257496299Y-47149632D01*
X257510549Y-47130419D01*
X257526613Y-47112695D01*
X257544337Y-47096631D01*
X257563550Y-47082381D01*
X257584067Y-47070084D01*
X257605691Y-47059856D01*
X257628213Y-47051798D01*
X257651417Y-47045986D01*
X257675078Y-47042476D01*
X257698970Y-47041302D01*
X258186470Y-47041302D01*
X258210362Y-47042476D01*
X258210362Y-47042476D01*
G37*
D14*
X257942720Y-47741302D03*
D13*
G36*
X260085362Y-47042476D02*
X260109023Y-47045986D01*
X260132227Y-47051798D01*
X260154749Y-47059856D01*
X260176373Y-47070084D01*
X260196890Y-47082381D01*
X260216103Y-47096631D01*
X260233827Y-47112695D01*
X260249891Y-47130419D01*
X260264141Y-47149632D01*
X260276438Y-47170149D01*
X260286666Y-47191773D01*
X260294724Y-47214295D01*
X260300536Y-47237499D01*
X260304046Y-47261160D01*
X260305220Y-47285052D01*
X260305220Y-48197552D01*
X260304046Y-48221444D01*
X260300536Y-48245105D01*
X260294724Y-48268309D01*
X260286666Y-48290831D01*
X260276438Y-48312455D01*
X260264141Y-48332972D01*
X260249891Y-48352185D01*
X260233827Y-48369909D01*
X260216103Y-48385973D01*
X260196890Y-48400223D01*
X260176373Y-48412520D01*
X260154749Y-48422748D01*
X260132227Y-48430806D01*
X260109023Y-48436618D01*
X260085362Y-48440128D01*
X260061470Y-48441302D01*
X259573970Y-48441302D01*
X259550078Y-48440128D01*
X259526417Y-48436618D01*
X259503213Y-48430806D01*
X259480691Y-48422748D01*
X259459067Y-48412520D01*
X259438550Y-48400223D01*
X259419337Y-48385973D01*
X259401613Y-48369909D01*
X259385549Y-48352185D01*
X259371299Y-48332972D01*
X259359002Y-48312455D01*
X259348774Y-48290831D01*
X259340716Y-48268309D01*
X259334904Y-48245105D01*
X259331394Y-48221444D01*
X259330220Y-48197552D01*
X259330220Y-47285052D01*
X259331394Y-47261160D01*
X259334904Y-47237499D01*
X259340716Y-47214295D01*
X259348774Y-47191773D01*
X259359002Y-47170149D01*
X259371299Y-47149632D01*
X259385549Y-47130419D01*
X259401613Y-47112695D01*
X259419337Y-47096631D01*
X259438550Y-47082381D01*
X259459067Y-47070084D01*
X259480691Y-47059856D01*
X259503213Y-47051798D01*
X259526417Y-47045986D01*
X259550078Y-47042476D01*
X259573970Y-47041302D01*
X260061470Y-47041302D01*
X260085362Y-47042476D01*
X260085362Y-47042476D01*
G37*
D14*
X259817720Y-47741302D03*
G04 #@! TD*
D13*
G04 #@! TO.C,R13*
G36*
X268545002Y-29066276D02*
X268568663Y-29069786D01*
X268591867Y-29075598D01*
X268614389Y-29083656D01*
X268636013Y-29093884D01*
X268656530Y-29106181D01*
X268675743Y-29120431D01*
X268693467Y-29136495D01*
X268709531Y-29154219D01*
X268723781Y-29173432D01*
X268736078Y-29193949D01*
X268746306Y-29215573D01*
X268754364Y-29238095D01*
X268760176Y-29261299D01*
X268763686Y-29284960D01*
X268764860Y-29308852D01*
X268764860Y-29796352D01*
X268763686Y-29820244D01*
X268760176Y-29843905D01*
X268754364Y-29867109D01*
X268746306Y-29889631D01*
X268736078Y-29911255D01*
X268723781Y-29931772D01*
X268709531Y-29950985D01*
X268693467Y-29968709D01*
X268675743Y-29984773D01*
X268656530Y-29999023D01*
X268636013Y-30011320D01*
X268614389Y-30021548D01*
X268591867Y-30029606D01*
X268568663Y-30035418D01*
X268545002Y-30038928D01*
X268521110Y-30040102D01*
X267608610Y-30040102D01*
X267584718Y-30038928D01*
X267561057Y-30035418D01*
X267537853Y-30029606D01*
X267515331Y-30021548D01*
X267493707Y-30011320D01*
X267473190Y-29999023D01*
X267453977Y-29984773D01*
X267436253Y-29968709D01*
X267420189Y-29950985D01*
X267405939Y-29931772D01*
X267393642Y-29911255D01*
X267383414Y-29889631D01*
X267375356Y-29867109D01*
X267369544Y-29843905D01*
X267366034Y-29820244D01*
X267364860Y-29796352D01*
X267364860Y-29308852D01*
X267366034Y-29284960D01*
X267369544Y-29261299D01*
X267375356Y-29238095D01*
X267383414Y-29215573D01*
X267393642Y-29193949D01*
X267405939Y-29173432D01*
X267420189Y-29154219D01*
X267436253Y-29136495D01*
X267453977Y-29120431D01*
X267473190Y-29106181D01*
X267493707Y-29093884D01*
X267515331Y-29083656D01*
X267537853Y-29075598D01*
X267561057Y-29069786D01*
X267584718Y-29066276D01*
X267608610Y-29065102D01*
X268521110Y-29065102D01*
X268545002Y-29066276D01*
X268545002Y-29066276D01*
G37*
D14*
X268064860Y-29552602D03*
D13*
G36*
X268545002Y-27191276D02*
X268568663Y-27194786D01*
X268591867Y-27200598D01*
X268614389Y-27208656D01*
X268636013Y-27218884D01*
X268656530Y-27231181D01*
X268675743Y-27245431D01*
X268693467Y-27261495D01*
X268709531Y-27279219D01*
X268723781Y-27298432D01*
X268736078Y-27318949D01*
X268746306Y-27340573D01*
X268754364Y-27363095D01*
X268760176Y-27386299D01*
X268763686Y-27409960D01*
X268764860Y-27433852D01*
X268764860Y-27921352D01*
X268763686Y-27945244D01*
X268760176Y-27968905D01*
X268754364Y-27992109D01*
X268746306Y-28014631D01*
X268736078Y-28036255D01*
X268723781Y-28056772D01*
X268709531Y-28075985D01*
X268693467Y-28093709D01*
X268675743Y-28109773D01*
X268656530Y-28124023D01*
X268636013Y-28136320D01*
X268614389Y-28146548D01*
X268591867Y-28154606D01*
X268568663Y-28160418D01*
X268545002Y-28163928D01*
X268521110Y-28165102D01*
X267608610Y-28165102D01*
X267584718Y-28163928D01*
X267561057Y-28160418D01*
X267537853Y-28154606D01*
X267515331Y-28146548D01*
X267493707Y-28136320D01*
X267473190Y-28124023D01*
X267453977Y-28109773D01*
X267436253Y-28093709D01*
X267420189Y-28075985D01*
X267405939Y-28056772D01*
X267393642Y-28036255D01*
X267383414Y-28014631D01*
X267375356Y-27992109D01*
X267369544Y-27968905D01*
X267366034Y-27945244D01*
X267364860Y-27921352D01*
X267364860Y-27433852D01*
X267366034Y-27409960D01*
X267369544Y-27386299D01*
X267375356Y-27363095D01*
X267383414Y-27340573D01*
X267393642Y-27318949D01*
X267405939Y-27298432D01*
X267420189Y-27279219D01*
X267436253Y-27261495D01*
X267453977Y-27245431D01*
X267473190Y-27231181D01*
X267493707Y-27218884D01*
X267515331Y-27208656D01*
X267537853Y-27200598D01*
X267561057Y-27194786D01*
X267584718Y-27191276D01*
X267608610Y-27190102D01*
X268521110Y-27190102D01*
X268545002Y-27191276D01*
X268545002Y-27191276D01*
G37*
D14*
X268064860Y-27677602D03*
G04 #@! TD*
D13*
G04 #@! TO.C,R14*
G36*
X262896042Y-34517116D02*
X262919703Y-34520626D01*
X262942907Y-34526438D01*
X262965429Y-34534496D01*
X262987053Y-34544724D01*
X263007570Y-34557021D01*
X263026783Y-34571271D01*
X263044507Y-34587335D01*
X263060571Y-34605059D01*
X263074821Y-34624272D01*
X263087118Y-34644789D01*
X263097346Y-34666413D01*
X263105404Y-34688935D01*
X263111216Y-34712139D01*
X263114726Y-34735800D01*
X263115900Y-34759692D01*
X263115900Y-35247192D01*
X263114726Y-35271084D01*
X263111216Y-35294745D01*
X263105404Y-35317949D01*
X263097346Y-35340471D01*
X263087118Y-35362095D01*
X263074821Y-35382612D01*
X263060571Y-35401825D01*
X263044507Y-35419549D01*
X263026783Y-35435613D01*
X263007570Y-35449863D01*
X262987053Y-35462160D01*
X262965429Y-35472388D01*
X262942907Y-35480446D01*
X262919703Y-35486258D01*
X262896042Y-35489768D01*
X262872150Y-35490942D01*
X261959650Y-35490942D01*
X261935758Y-35489768D01*
X261912097Y-35486258D01*
X261888893Y-35480446D01*
X261866371Y-35472388D01*
X261844747Y-35462160D01*
X261824230Y-35449863D01*
X261805017Y-35435613D01*
X261787293Y-35419549D01*
X261771229Y-35401825D01*
X261756979Y-35382612D01*
X261744682Y-35362095D01*
X261734454Y-35340471D01*
X261726396Y-35317949D01*
X261720584Y-35294745D01*
X261717074Y-35271084D01*
X261715900Y-35247192D01*
X261715900Y-34759692D01*
X261717074Y-34735800D01*
X261720584Y-34712139D01*
X261726396Y-34688935D01*
X261734454Y-34666413D01*
X261744682Y-34644789D01*
X261756979Y-34624272D01*
X261771229Y-34605059D01*
X261787293Y-34587335D01*
X261805017Y-34571271D01*
X261824230Y-34557021D01*
X261844747Y-34544724D01*
X261866371Y-34534496D01*
X261888893Y-34526438D01*
X261912097Y-34520626D01*
X261935758Y-34517116D01*
X261959650Y-34515942D01*
X262872150Y-34515942D01*
X262896042Y-34517116D01*
X262896042Y-34517116D01*
G37*
D14*
X262415900Y-35003442D03*
D13*
G36*
X262896042Y-32642116D02*
X262919703Y-32645626D01*
X262942907Y-32651438D01*
X262965429Y-32659496D01*
X262987053Y-32669724D01*
X263007570Y-32682021D01*
X263026783Y-32696271D01*
X263044507Y-32712335D01*
X263060571Y-32730059D01*
X263074821Y-32749272D01*
X263087118Y-32769789D01*
X263097346Y-32791413D01*
X263105404Y-32813935D01*
X263111216Y-32837139D01*
X263114726Y-32860800D01*
X263115900Y-32884692D01*
X263115900Y-33372192D01*
X263114726Y-33396084D01*
X263111216Y-33419745D01*
X263105404Y-33442949D01*
X263097346Y-33465471D01*
X263087118Y-33487095D01*
X263074821Y-33507612D01*
X263060571Y-33526825D01*
X263044507Y-33544549D01*
X263026783Y-33560613D01*
X263007570Y-33574863D01*
X262987053Y-33587160D01*
X262965429Y-33597388D01*
X262942907Y-33605446D01*
X262919703Y-33611258D01*
X262896042Y-33614768D01*
X262872150Y-33615942D01*
X261959650Y-33615942D01*
X261935758Y-33614768D01*
X261912097Y-33611258D01*
X261888893Y-33605446D01*
X261866371Y-33597388D01*
X261844747Y-33587160D01*
X261824230Y-33574863D01*
X261805017Y-33560613D01*
X261787293Y-33544549D01*
X261771229Y-33526825D01*
X261756979Y-33507612D01*
X261744682Y-33487095D01*
X261734454Y-33465471D01*
X261726396Y-33442949D01*
X261720584Y-33419745D01*
X261717074Y-33396084D01*
X261715900Y-33372192D01*
X261715900Y-32884692D01*
X261717074Y-32860800D01*
X261720584Y-32837139D01*
X261726396Y-32813935D01*
X261734454Y-32791413D01*
X261744682Y-32769789D01*
X261756979Y-32749272D01*
X261771229Y-32730059D01*
X261787293Y-32712335D01*
X261805017Y-32696271D01*
X261824230Y-32682021D01*
X261844747Y-32669724D01*
X261866371Y-32659496D01*
X261888893Y-32651438D01*
X261912097Y-32645626D01*
X261935758Y-32642116D01*
X261959650Y-32640942D01*
X262872150Y-32640942D01*
X262896042Y-32642116D01*
X262896042Y-32642116D01*
G37*
D14*
X262415900Y-33128442D03*
G04 #@! TD*
D13*
G04 #@! TO.C,R15*
G36*
X262855402Y-30448036D02*
X262879063Y-30451546D01*
X262902267Y-30457358D01*
X262924789Y-30465416D01*
X262946413Y-30475644D01*
X262966930Y-30487941D01*
X262986143Y-30502191D01*
X263003867Y-30518255D01*
X263019931Y-30535979D01*
X263034181Y-30555192D01*
X263046478Y-30575709D01*
X263056706Y-30597333D01*
X263064764Y-30619855D01*
X263070576Y-30643059D01*
X263074086Y-30666720D01*
X263075260Y-30690612D01*
X263075260Y-31178112D01*
X263074086Y-31202004D01*
X263070576Y-31225665D01*
X263064764Y-31248869D01*
X263056706Y-31271391D01*
X263046478Y-31293015D01*
X263034181Y-31313532D01*
X263019931Y-31332745D01*
X263003867Y-31350469D01*
X262986143Y-31366533D01*
X262966930Y-31380783D01*
X262946413Y-31393080D01*
X262924789Y-31403308D01*
X262902267Y-31411366D01*
X262879063Y-31417178D01*
X262855402Y-31420688D01*
X262831510Y-31421862D01*
X261919010Y-31421862D01*
X261895118Y-31420688D01*
X261871457Y-31417178D01*
X261848253Y-31411366D01*
X261825731Y-31403308D01*
X261804107Y-31393080D01*
X261783590Y-31380783D01*
X261764377Y-31366533D01*
X261746653Y-31350469D01*
X261730589Y-31332745D01*
X261716339Y-31313532D01*
X261704042Y-31293015D01*
X261693814Y-31271391D01*
X261685756Y-31248869D01*
X261679944Y-31225665D01*
X261676434Y-31202004D01*
X261675260Y-31178112D01*
X261675260Y-30690612D01*
X261676434Y-30666720D01*
X261679944Y-30643059D01*
X261685756Y-30619855D01*
X261693814Y-30597333D01*
X261704042Y-30575709D01*
X261716339Y-30555192D01*
X261730589Y-30535979D01*
X261746653Y-30518255D01*
X261764377Y-30502191D01*
X261783590Y-30487941D01*
X261804107Y-30475644D01*
X261825731Y-30465416D01*
X261848253Y-30457358D01*
X261871457Y-30451546D01*
X261895118Y-30448036D01*
X261919010Y-30446862D01*
X262831510Y-30446862D01*
X262855402Y-30448036D01*
X262855402Y-30448036D01*
G37*
D14*
X262375260Y-30934362D03*
D13*
G36*
X262855402Y-28573036D02*
X262879063Y-28576546D01*
X262902267Y-28582358D01*
X262924789Y-28590416D01*
X262946413Y-28600644D01*
X262966930Y-28612941D01*
X262986143Y-28627191D01*
X263003867Y-28643255D01*
X263019931Y-28660979D01*
X263034181Y-28680192D01*
X263046478Y-28700709D01*
X263056706Y-28722333D01*
X263064764Y-28744855D01*
X263070576Y-28768059D01*
X263074086Y-28791720D01*
X263075260Y-28815612D01*
X263075260Y-29303112D01*
X263074086Y-29327004D01*
X263070576Y-29350665D01*
X263064764Y-29373869D01*
X263056706Y-29396391D01*
X263046478Y-29418015D01*
X263034181Y-29438532D01*
X263019931Y-29457745D01*
X263003867Y-29475469D01*
X262986143Y-29491533D01*
X262966930Y-29505783D01*
X262946413Y-29518080D01*
X262924789Y-29528308D01*
X262902267Y-29536366D01*
X262879063Y-29542178D01*
X262855402Y-29545688D01*
X262831510Y-29546862D01*
X261919010Y-29546862D01*
X261895118Y-29545688D01*
X261871457Y-29542178D01*
X261848253Y-29536366D01*
X261825731Y-29528308D01*
X261804107Y-29518080D01*
X261783590Y-29505783D01*
X261764377Y-29491533D01*
X261746653Y-29475469D01*
X261730589Y-29457745D01*
X261716339Y-29438532D01*
X261704042Y-29418015D01*
X261693814Y-29396391D01*
X261685756Y-29373869D01*
X261679944Y-29350665D01*
X261676434Y-29327004D01*
X261675260Y-29303112D01*
X261675260Y-28815612D01*
X261676434Y-28791720D01*
X261679944Y-28768059D01*
X261685756Y-28744855D01*
X261693814Y-28722333D01*
X261704042Y-28700709D01*
X261716339Y-28680192D01*
X261730589Y-28660979D01*
X261746653Y-28643255D01*
X261764377Y-28627191D01*
X261783590Y-28612941D01*
X261804107Y-28600644D01*
X261825731Y-28590416D01*
X261848253Y-28582358D01*
X261871457Y-28576546D01*
X261895118Y-28573036D01*
X261919010Y-28571862D01*
X262831510Y-28571862D01*
X262855402Y-28573036D01*
X262855402Y-28573036D01*
G37*
D14*
X262375260Y-29059362D03*
G04 #@! TD*
D13*
G04 #@! TO.C,RA1*
G36*
X247686416Y-95678045D02*
X247710077Y-95681555D01*
X247733281Y-95687367D01*
X247755803Y-95695425D01*
X247777427Y-95705653D01*
X247797944Y-95717950D01*
X247817157Y-95732200D01*
X247834881Y-95748264D01*
X247850945Y-95765988D01*
X247865195Y-95785201D01*
X247877492Y-95805718D01*
X247887720Y-95827342D01*
X247895778Y-95849864D01*
X247901590Y-95873068D01*
X247905100Y-95896729D01*
X247906274Y-95920621D01*
X247906274Y-96833121D01*
X247905100Y-96857013D01*
X247901590Y-96880674D01*
X247895778Y-96903878D01*
X247887720Y-96926400D01*
X247877492Y-96948024D01*
X247865195Y-96968541D01*
X247850945Y-96987754D01*
X247834881Y-97005478D01*
X247817157Y-97021542D01*
X247797944Y-97035792D01*
X247777427Y-97048089D01*
X247755803Y-97058317D01*
X247733281Y-97066375D01*
X247710077Y-97072187D01*
X247686416Y-97075697D01*
X247662524Y-97076871D01*
X247175024Y-97076871D01*
X247151132Y-97075697D01*
X247127471Y-97072187D01*
X247104267Y-97066375D01*
X247081745Y-97058317D01*
X247060121Y-97048089D01*
X247039604Y-97035792D01*
X247020391Y-97021542D01*
X247002667Y-97005478D01*
X246986603Y-96987754D01*
X246972353Y-96968541D01*
X246960056Y-96948024D01*
X246949828Y-96926400D01*
X246941770Y-96903878D01*
X246935958Y-96880674D01*
X246932448Y-96857013D01*
X246931274Y-96833121D01*
X246931274Y-95920621D01*
X246932448Y-95896729D01*
X246935958Y-95873068D01*
X246941770Y-95849864D01*
X246949828Y-95827342D01*
X246960056Y-95805718D01*
X246972353Y-95785201D01*
X246986603Y-95765988D01*
X247002667Y-95748264D01*
X247020391Y-95732200D01*
X247039604Y-95717950D01*
X247060121Y-95705653D01*
X247081745Y-95695425D01*
X247104267Y-95687367D01*
X247127471Y-95681555D01*
X247151132Y-95678045D01*
X247175024Y-95676871D01*
X247662524Y-95676871D01*
X247686416Y-95678045D01*
X247686416Y-95678045D01*
G37*
D14*
X247418774Y-96376871D03*
D13*
G36*
X249561416Y-95678045D02*
X249585077Y-95681555D01*
X249608281Y-95687367D01*
X249630803Y-95695425D01*
X249652427Y-95705653D01*
X249672944Y-95717950D01*
X249692157Y-95732200D01*
X249709881Y-95748264D01*
X249725945Y-95765988D01*
X249740195Y-95785201D01*
X249752492Y-95805718D01*
X249762720Y-95827342D01*
X249770778Y-95849864D01*
X249776590Y-95873068D01*
X249780100Y-95896729D01*
X249781274Y-95920621D01*
X249781274Y-96833121D01*
X249780100Y-96857013D01*
X249776590Y-96880674D01*
X249770778Y-96903878D01*
X249762720Y-96926400D01*
X249752492Y-96948024D01*
X249740195Y-96968541D01*
X249725945Y-96987754D01*
X249709881Y-97005478D01*
X249692157Y-97021542D01*
X249672944Y-97035792D01*
X249652427Y-97048089D01*
X249630803Y-97058317D01*
X249608281Y-97066375D01*
X249585077Y-97072187D01*
X249561416Y-97075697D01*
X249537524Y-97076871D01*
X249050024Y-97076871D01*
X249026132Y-97075697D01*
X249002471Y-97072187D01*
X248979267Y-97066375D01*
X248956745Y-97058317D01*
X248935121Y-97048089D01*
X248914604Y-97035792D01*
X248895391Y-97021542D01*
X248877667Y-97005478D01*
X248861603Y-96987754D01*
X248847353Y-96968541D01*
X248835056Y-96948024D01*
X248824828Y-96926400D01*
X248816770Y-96903878D01*
X248810958Y-96880674D01*
X248807448Y-96857013D01*
X248806274Y-96833121D01*
X248806274Y-95920621D01*
X248807448Y-95896729D01*
X248810958Y-95873068D01*
X248816770Y-95849864D01*
X248824828Y-95827342D01*
X248835056Y-95805718D01*
X248847353Y-95785201D01*
X248861603Y-95765988D01*
X248877667Y-95748264D01*
X248895391Y-95732200D01*
X248914604Y-95717950D01*
X248935121Y-95705653D01*
X248956745Y-95695425D01*
X248979267Y-95687367D01*
X249002471Y-95681555D01*
X249026132Y-95678045D01*
X249050024Y-95676871D01*
X249537524Y-95676871D01*
X249561416Y-95678045D01*
X249561416Y-95678045D01*
G37*
D14*
X249293774Y-96376871D03*
G04 #@! TD*
D13*
G04 #@! TO.C,RA2*
G36*
X226409272Y-97609607D02*
X226432933Y-97613117D01*
X226456137Y-97618929D01*
X226478659Y-97626987D01*
X226500283Y-97637215D01*
X226520800Y-97649512D01*
X226540013Y-97663762D01*
X226557737Y-97679826D01*
X226573801Y-97697550D01*
X226588051Y-97716763D01*
X226600348Y-97737280D01*
X226610576Y-97758904D01*
X226618634Y-97781426D01*
X226624446Y-97804630D01*
X226627956Y-97828291D01*
X226629130Y-97852183D01*
X226629130Y-98339683D01*
X226627956Y-98363575D01*
X226624446Y-98387236D01*
X226618634Y-98410440D01*
X226610576Y-98432962D01*
X226600348Y-98454586D01*
X226588051Y-98475103D01*
X226573801Y-98494316D01*
X226557737Y-98512040D01*
X226540013Y-98528104D01*
X226520800Y-98542354D01*
X226500283Y-98554651D01*
X226478659Y-98564879D01*
X226456137Y-98572937D01*
X226432933Y-98578749D01*
X226409272Y-98582259D01*
X226385380Y-98583433D01*
X225472880Y-98583433D01*
X225448988Y-98582259D01*
X225425327Y-98578749D01*
X225402123Y-98572937D01*
X225379601Y-98564879D01*
X225357977Y-98554651D01*
X225337460Y-98542354D01*
X225318247Y-98528104D01*
X225300523Y-98512040D01*
X225284459Y-98494316D01*
X225270209Y-98475103D01*
X225257912Y-98454586D01*
X225247684Y-98432962D01*
X225239626Y-98410440D01*
X225233814Y-98387236D01*
X225230304Y-98363575D01*
X225229130Y-98339683D01*
X225229130Y-97852183D01*
X225230304Y-97828291D01*
X225233814Y-97804630D01*
X225239626Y-97781426D01*
X225247684Y-97758904D01*
X225257912Y-97737280D01*
X225270209Y-97716763D01*
X225284459Y-97697550D01*
X225300523Y-97679826D01*
X225318247Y-97663762D01*
X225337460Y-97649512D01*
X225357977Y-97637215D01*
X225379601Y-97626987D01*
X225402123Y-97618929D01*
X225425327Y-97613117D01*
X225448988Y-97609607D01*
X225472880Y-97608433D01*
X226385380Y-97608433D01*
X226409272Y-97609607D01*
X226409272Y-97609607D01*
G37*
D14*
X225929130Y-98095933D03*
D13*
G36*
X226409272Y-99484607D02*
X226432933Y-99488117D01*
X226456137Y-99493929D01*
X226478659Y-99501987D01*
X226500283Y-99512215D01*
X226520800Y-99524512D01*
X226540013Y-99538762D01*
X226557737Y-99554826D01*
X226573801Y-99572550D01*
X226588051Y-99591763D01*
X226600348Y-99612280D01*
X226610576Y-99633904D01*
X226618634Y-99656426D01*
X226624446Y-99679630D01*
X226627956Y-99703291D01*
X226629130Y-99727183D01*
X226629130Y-100214683D01*
X226627956Y-100238575D01*
X226624446Y-100262236D01*
X226618634Y-100285440D01*
X226610576Y-100307962D01*
X226600348Y-100329586D01*
X226588051Y-100350103D01*
X226573801Y-100369316D01*
X226557737Y-100387040D01*
X226540013Y-100403104D01*
X226520800Y-100417354D01*
X226500283Y-100429651D01*
X226478659Y-100439879D01*
X226456137Y-100447937D01*
X226432933Y-100453749D01*
X226409272Y-100457259D01*
X226385380Y-100458433D01*
X225472880Y-100458433D01*
X225448988Y-100457259D01*
X225425327Y-100453749D01*
X225402123Y-100447937D01*
X225379601Y-100439879D01*
X225357977Y-100429651D01*
X225337460Y-100417354D01*
X225318247Y-100403104D01*
X225300523Y-100387040D01*
X225284459Y-100369316D01*
X225270209Y-100350103D01*
X225257912Y-100329586D01*
X225247684Y-100307962D01*
X225239626Y-100285440D01*
X225233814Y-100262236D01*
X225230304Y-100238575D01*
X225229130Y-100214683D01*
X225229130Y-99727183D01*
X225230304Y-99703291D01*
X225233814Y-99679630D01*
X225239626Y-99656426D01*
X225247684Y-99633904D01*
X225257912Y-99612280D01*
X225270209Y-99591763D01*
X225284459Y-99572550D01*
X225300523Y-99554826D01*
X225318247Y-99538762D01*
X225337460Y-99524512D01*
X225357977Y-99512215D01*
X225379601Y-99501987D01*
X225402123Y-99493929D01*
X225425327Y-99488117D01*
X225448988Y-99484607D01*
X225472880Y-99483433D01*
X226385380Y-99483433D01*
X226409272Y-99484607D01*
X226409272Y-99484607D01*
G37*
D14*
X225929130Y-99970933D03*
G04 #@! TD*
D13*
G04 #@! TO.C,RA3*
G36*
X247906837Y-106500175D02*
X247930498Y-106503685D01*
X247953702Y-106509497D01*
X247976224Y-106517555D01*
X247997848Y-106527783D01*
X248018365Y-106540080D01*
X248037578Y-106554330D01*
X248055302Y-106570394D01*
X248071366Y-106588118D01*
X248085616Y-106607331D01*
X248097913Y-106627848D01*
X248108141Y-106649472D01*
X248116199Y-106671994D01*
X248122011Y-106695198D01*
X248125521Y-106718859D01*
X248126695Y-106742751D01*
X248126695Y-107655251D01*
X248125521Y-107679143D01*
X248122011Y-107702804D01*
X248116199Y-107726008D01*
X248108141Y-107748530D01*
X248097913Y-107770154D01*
X248085616Y-107790671D01*
X248071366Y-107809884D01*
X248055302Y-107827608D01*
X248037578Y-107843672D01*
X248018365Y-107857922D01*
X247997848Y-107870219D01*
X247976224Y-107880447D01*
X247953702Y-107888505D01*
X247930498Y-107894317D01*
X247906837Y-107897827D01*
X247882945Y-107899001D01*
X247395445Y-107899001D01*
X247371553Y-107897827D01*
X247347892Y-107894317D01*
X247324688Y-107888505D01*
X247302166Y-107880447D01*
X247280542Y-107870219D01*
X247260025Y-107857922D01*
X247240812Y-107843672D01*
X247223088Y-107827608D01*
X247207024Y-107809884D01*
X247192774Y-107790671D01*
X247180477Y-107770154D01*
X247170249Y-107748530D01*
X247162191Y-107726008D01*
X247156379Y-107702804D01*
X247152869Y-107679143D01*
X247151695Y-107655251D01*
X247151695Y-106742751D01*
X247152869Y-106718859D01*
X247156379Y-106695198D01*
X247162191Y-106671994D01*
X247170249Y-106649472D01*
X247180477Y-106627848D01*
X247192774Y-106607331D01*
X247207024Y-106588118D01*
X247223088Y-106570394D01*
X247240812Y-106554330D01*
X247260025Y-106540080D01*
X247280542Y-106527783D01*
X247302166Y-106517555D01*
X247324688Y-106509497D01*
X247347892Y-106503685D01*
X247371553Y-106500175D01*
X247395445Y-106499001D01*
X247882945Y-106499001D01*
X247906837Y-106500175D01*
X247906837Y-106500175D01*
G37*
D14*
X247639195Y-107199001D03*
D13*
G36*
X249781837Y-106500175D02*
X249805498Y-106503685D01*
X249828702Y-106509497D01*
X249851224Y-106517555D01*
X249872848Y-106527783D01*
X249893365Y-106540080D01*
X249912578Y-106554330D01*
X249930302Y-106570394D01*
X249946366Y-106588118D01*
X249960616Y-106607331D01*
X249972913Y-106627848D01*
X249983141Y-106649472D01*
X249991199Y-106671994D01*
X249997011Y-106695198D01*
X250000521Y-106718859D01*
X250001695Y-106742751D01*
X250001695Y-107655251D01*
X250000521Y-107679143D01*
X249997011Y-107702804D01*
X249991199Y-107726008D01*
X249983141Y-107748530D01*
X249972913Y-107770154D01*
X249960616Y-107790671D01*
X249946366Y-107809884D01*
X249930302Y-107827608D01*
X249912578Y-107843672D01*
X249893365Y-107857922D01*
X249872848Y-107870219D01*
X249851224Y-107880447D01*
X249828702Y-107888505D01*
X249805498Y-107894317D01*
X249781837Y-107897827D01*
X249757945Y-107899001D01*
X249270445Y-107899001D01*
X249246553Y-107897827D01*
X249222892Y-107894317D01*
X249199688Y-107888505D01*
X249177166Y-107880447D01*
X249155542Y-107870219D01*
X249135025Y-107857922D01*
X249115812Y-107843672D01*
X249098088Y-107827608D01*
X249082024Y-107809884D01*
X249067774Y-107790671D01*
X249055477Y-107770154D01*
X249045249Y-107748530D01*
X249037191Y-107726008D01*
X249031379Y-107702804D01*
X249027869Y-107679143D01*
X249026695Y-107655251D01*
X249026695Y-106742751D01*
X249027869Y-106718859D01*
X249031379Y-106695198D01*
X249037191Y-106671994D01*
X249045249Y-106649472D01*
X249055477Y-106627848D01*
X249067774Y-106607331D01*
X249082024Y-106588118D01*
X249098088Y-106570394D01*
X249115812Y-106554330D01*
X249135025Y-106540080D01*
X249155542Y-106527783D01*
X249177166Y-106517555D01*
X249199688Y-106509497D01*
X249222892Y-106503685D01*
X249246553Y-106500175D01*
X249270445Y-106499001D01*
X249757945Y-106499001D01*
X249781837Y-106500175D01*
X249781837Y-106500175D01*
G37*
D14*
X249514195Y-107199001D03*
G04 #@! TD*
D13*
G04 #@! TO.C,RA4*
G36*
X280504982Y-92294794D02*
X280528643Y-92298304D01*
X280551847Y-92304116D01*
X280574369Y-92312174D01*
X280595993Y-92322402D01*
X280616510Y-92334699D01*
X280635723Y-92348949D01*
X280653447Y-92365013D01*
X280669511Y-92382737D01*
X280683761Y-92401950D01*
X280696058Y-92422467D01*
X280706286Y-92444091D01*
X280714344Y-92466613D01*
X280720156Y-92489817D01*
X280723666Y-92513478D01*
X280724840Y-92537370D01*
X280724840Y-93024870D01*
X280723666Y-93048762D01*
X280720156Y-93072423D01*
X280714344Y-93095627D01*
X280706286Y-93118149D01*
X280696058Y-93139773D01*
X280683761Y-93160290D01*
X280669511Y-93179503D01*
X280653447Y-93197227D01*
X280635723Y-93213291D01*
X280616510Y-93227541D01*
X280595993Y-93239838D01*
X280574369Y-93250066D01*
X280551847Y-93258124D01*
X280528643Y-93263936D01*
X280504982Y-93267446D01*
X280481090Y-93268620D01*
X279568590Y-93268620D01*
X279544698Y-93267446D01*
X279521037Y-93263936D01*
X279497833Y-93258124D01*
X279475311Y-93250066D01*
X279453687Y-93239838D01*
X279433170Y-93227541D01*
X279413957Y-93213291D01*
X279396233Y-93197227D01*
X279380169Y-93179503D01*
X279365919Y-93160290D01*
X279353622Y-93139773D01*
X279343394Y-93118149D01*
X279335336Y-93095627D01*
X279329524Y-93072423D01*
X279326014Y-93048762D01*
X279324840Y-93024870D01*
X279324840Y-92537370D01*
X279326014Y-92513478D01*
X279329524Y-92489817D01*
X279335336Y-92466613D01*
X279343394Y-92444091D01*
X279353622Y-92422467D01*
X279365919Y-92401950D01*
X279380169Y-92382737D01*
X279396233Y-92365013D01*
X279413957Y-92348949D01*
X279433170Y-92334699D01*
X279453687Y-92322402D01*
X279475311Y-92312174D01*
X279497833Y-92304116D01*
X279521037Y-92298304D01*
X279544698Y-92294794D01*
X279568590Y-92293620D01*
X280481090Y-92293620D01*
X280504982Y-92294794D01*
X280504982Y-92294794D01*
G37*
D14*
X280024840Y-92781120D03*
D13*
G36*
X280504982Y-94169794D02*
X280528643Y-94173304D01*
X280551847Y-94179116D01*
X280574369Y-94187174D01*
X280595993Y-94197402D01*
X280616510Y-94209699D01*
X280635723Y-94223949D01*
X280653447Y-94240013D01*
X280669511Y-94257737D01*
X280683761Y-94276950D01*
X280696058Y-94297467D01*
X280706286Y-94319091D01*
X280714344Y-94341613D01*
X280720156Y-94364817D01*
X280723666Y-94388478D01*
X280724840Y-94412370D01*
X280724840Y-94899870D01*
X280723666Y-94923762D01*
X280720156Y-94947423D01*
X280714344Y-94970627D01*
X280706286Y-94993149D01*
X280696058Y-95014773D01*
X280683761Y-95035290D01*
X280669511Y-95054503D01*
X280653447Y-95072227D01*
X280635723Y-95088291D01*
X280616510Y-95102541D01*
X280595993Y-95114838D01*
X280574369Y-95125066D01*
X280551847Y-95133124D01*
X280528643Y-95138936D01*
X280504982Y-95142446D01*
X280481090Y-95143620D01*
X279568590Y-95143620D01*
X279544698Y-95142446D01*
X279521037Y-95138936D01*
X279497833Y-95133124D01*
X279475311Y-95125066D01*
X279453687Y-95114838D01*
X279433170Y-95102541D01*
X279413957Y-95088291D01*
X279396233Y-95072227D01*
X279380169Y-95054503D01*
X279365919Y-95035290D01*
X279353622Y-95014773D01*
X279343394Y-94993149D01*
X279335336Y-94970627D01*
X279329524Y-94947423D01*
X279326014Y-94923762D01*
X279324840Y-94899870D01*
X279324840Y-94412370D01*
X279326014Y-94388478D01*
X279329524Y-94364817D01*
X279335336Y-94341613D01*
X279343394Y-94319091D01*
X279353622Y-94297467D01*
X279365919Y-94276950D01*
X279380169Y-94257737D01*
X279396233Y-94240013D01*
X279413957Y-94223949D01*
X279433170Y-94209699D01*
X279453687Y-94197402D01*
X279475311Y-94187174D01*
X279497833Y-94179116D01*
X279521037Y-94173304D01*
X279544698Y-94169794D01*
X279568590Y-94168620D01*
X280481090Y-94168620D01*
X280504982Y-94169794D01*
X280504982Y-94169794D01*
G37*
D14*
X280024840Y-94656120D03*
G04 #@! TD*
D13*
G04 #@! TO.C,RA5*
G36*
X275917883Y-109181871D02*
X275941544Y-109185381D01*
X275964748Y-109191193D01*
X275987270Y-109199251D01*
X276008894Y-109209479D01*
X276029411Y-109221776D01*
X276048624Y-109236026D01*
X276066348Y-109252090D01*
X276082412Y-109269814D01*
X276096662Y-109289027D01*
X276108959Y-109309544D01*
X276119187Y-109331168D01*
X276127245Y-109353690D01*
X276133057Y-109376894D01*
X276136567Y-109400555D01*
X276137741Y-109424447D01*
X276137741Y-110336947D01*
X276136567Y-110360839D01*
X276133057Y-110384500D01*
X276127245Y-110407704D01*
X276119187Y-110430226D01*
X276108959Y-110451850D01*
X276096662Y-110472367D01*
X276082412Y-110491580D01*
X276066348Y-110509304D01*
X276048624Y-110525368D01*
X276029411Y-110539618D01*
X276008894Y-110551915D01*
X275987270Y-110562143D01*
X275964748Y-110570201D01*
X275941544Y-110576013D01*
X275917883Y-110579523D01*
X275893991Y-110580697D01*
X275406491Y-110580697D01*
X275382599Y-110579523D01*
X275358938Y-110576013D01*
X275335734Y-110570201D01*
X275313212Y-110562143D01*
X275291588Y-110551915D01*
X275271071Y-110539618D01*
X275251858Y-110525368D01*
X275234134Y-110509304D01*
X275218070Y-110491580D01*
X275203820Y-110472367D01*
X275191523Y-110451850D01*
X275181295Y-110430226D01*
X275173237Y-110407704D01*
X275167425Y-110384500D01*
X275163915Y-110360839D01*
X275162741Y-110336947D01*
X275162741Y-109424447D01*
X275163915Y-109400555D01*
X275167425Y-109376894D01*
X275173237Y-109353690D01*
X275181295Y-109331168D01*
X275191523Y-109309544D01*
X275203820Y-109289027D01*
X275218070Y-109269814D01*
X275234134Y-109252090D01*
X275251858Y-109236026D01*
X275271071Y-109221776D01*
X275291588Y-109209479D01*
X275313212Y-109199251D01*
X275335734Y-109191193D01*
X275358938Y-109185381D01*
X275382599Y-109181871D01*
X275406491Y-109180697D01*
X275893991Y-109180697D01*
X275917883Y-109181871D01*
X275917883Y-109181871D01*
G37*
D14*
X275650241Y-109880697D03*
D13*
G36*
X274042883Y-109181871D02*
X274066544Y-109185381D01*
X274089748Y-109191193D01*
X274112270Y-109199251D01*
X274133894Y-109209479D01*
X274154411Y-109221776D01*
X274173624Y-109236026D01*
X274191348Y-109252090D01*
X274207412Y-109269814D01*
X274221662Y-109289027D01*
X274233959Y-109309544D01*
X274244187Y-109331168D01*
X274252245Y-109353690D01*
X274258057Y-109376894D01*
X274261567Y-109400555D01*
X274262741Y-109424447D01*
X274262741Y-110336947D01*
X274261567Y-110360839D01*
X274258057Y-110384500D01*
X274252245Y-110407704D01*
X274244187Y-110430226D01*
X274233959Y-110451850D01*
X274221662Y-110472367D01*
X274207412Y-110491580D01*
X274191348Y-110509304D01*
X274173624Y-110525368D01*
X274154411Y-110539618D01*
X274133894Y-110551915D01*
X274112270Y-110562143D01*
X274089748Y-110570201D01*
X274066544Y-110576013D01*
X274042883Y-110579523D01*
X274018991Y-110580697D01*
X273531491Y-110580697D01*
X273507599Y-110579523D01*
X273483938Y-110576013D01*
X273460734Y-110570201D01*
X273438212Y-110562143D01*
X273416588Y-110551915D01*
X273396071Y-110539618D01*
X273376858Y-110525368D01*
X273359134Y-110509304D01*
X273343070Y-110491580D01*
X273328820Y-110472367D01*
X273316523Y-110451850D01*
X273306295Y-110430226D01*
X273298237Y-110407704D01*
X273292425Y-110384500D01*
X273288915Y-110360839D01*
X273287741Y-110336947D01*
X273287741Y-109424447D01*
X273288915Y-109400555D01*
X273292425Y-109376894D01*
X273298237Y-109353690D01*
X273306295Y-109331168D01*
X273316523Y-109309544D01*
X273328820Y-109289027D01*
X273343070Y-109269814D01*
X273359134Y-109252090D01*
X273376858Y-109236026D01*
X273396071Y-109221776D01*
X273416588Y-109209479D01*
X273438212Y-109199251D01*
X273460734Y-109191193D01*
X273483938Y-109185381D01*
X273507599Y-109181871D01*
X273531491Y-109180697D01*
X274018991Y-109180697D01*
X274042883Y-109181871D01*
X274042883Y-109181871D01*
G37*
D14*
X273775241Y-109880697D03*
G04 #@! TD*
D13*
G04 #@! TO.C,RA6*
G36*
X243142442Y-102592814D02*
X243166103Y-102596324D01*
X243189307Y-102602136D01*
X243211829Y-102610194D01*
X243233453Y-102620422D01*
X243253970Y-102632719D01*
X243273183Y-102646969D01*
X243290907Y-102663033D01*
X243306971Y-102680757D01*
X243321221Y-102699970D01*
X243333518Y-102720487D01*
X243343746Y-102742111D01*
X243351804Y-102764633D01*
X243357616Y-102787837D01*
X243361126Y-102811498D01*
X243362300Y-102835390D01*
X243362300Y-103747890D01*
X243361126Y-103771782D01*
X243357616Y-103795443D01*
X243351804Y-103818647D01*
X243343746Y-103841169D01*
X243333518Y-103862793D01*
X243321221Y-103883310D01*
X243306971Y-103902523D01*
X243290907Y-103920247D01*
X243273183Y-103936311D01*
X243253970Y-103950561D01*
X243233453Y-103962858D01*
X243211829Y-103973086D01*
X243189307Y-103981144D01*
X243166103Y-103986956D01*
X243142442Y-103990466D01*
X243118550Y-103991640D01*
X242631050Y-103991640D01*
X242607158Y-103990466D01*
X242583497Y-103986956D01*
X242560293Y-103981144D01*
X242537771Y-103973086D01*
X242516147Y-103962858D01*
X242495630Y-103950561D01*
X242476417Y-103936311D01*
X242458693Y-103920247D01*
X242442629Y-103902523D01*
X242428379Y-103883310D01*
X242416082Y-103862793D01*
X242405854Y-103841169D01*
X242397796Y-103818647D01*
X242391984Y-103795443D01*
X242388474Y-103771782D01*
X242387300Y-103747890D01*
X242387300Y-102835390D01*
X242388474Y-102811498D01*
X242391984Y-102787837D01*
X242397796Y-102764633D01*
X242405854Y-102742111D01*
X242416082Y-102720487D01*
X242428379Y-102699970D01*
X242442629Y-102680757D01*
X242458693Y-102663033D01*
X242476417Y-102646969D01*
X242495630Y-102632719D01*
X242516147Y-102620422D01*
X242537771Y-102610194D01*
X242560293Y-102602136D01*
X242583497Y-102596324D01*
X242607158Y-102592814D01*
X242631050Y-102591640D01*
X243118550Y-102591640D01*
X243142442Y-102592814D01*
X243142442Y-102592814D01*
G37*
D14*
X242874800Y-103291640D03*
D13*
G36*
X241267442Y-102592814D02*
X241291103Y-102596324D01*
X241314307Y-102602136D01*
X241336829Y-102610194D01*
X241358453Y-102620422D01*
X241378970Y-102632719D01*
X241398183Y-102646969D01*
X241415907Y-102663033D01*
X241431971Y-102680757D01*
X241446221Y-102699970D01*
X241458518Y-102720487D01*
X241468746Y-102742111D01*
X241476804Y-102764633D01*
X241482616Y-102787837D01*
X241486126Y-102811498D01*
X241487300Y-102835390D01*
X241487300Y-103747890D01*
X241486126Y-103771782D01*
X241482616Y-103795443D01*
X241476804Y-103818647D01*
X241468746Y-103841169D01*
X241458518Y-103862793D01*
X241446221Y-103883310D01*
X241431971Y-103902523D01*
X241415907Y-103920247D01*
X241398183Y-103936311D01*
X241378970Y-103950561D01*
X241358453Y-103962858D01*
X241336829Y-103973086D01*
X241314307Y-103981144D01*
X241291103Y-103986956D01*
X241267442Y-103990466D01*
X241243550Y-103991640D01*
X240756050Y-103991640D01*
X240732158Y-103990466D01*
X240708497Y-103986956D01*
X240685293Y-103981144D01*
X240662771Y-103973086D01*
X240641147Y-103962858D01*
X240620630Y-103950561D01*
X240601417Y-103936311D01*
X240583693Y-103920247D01*
X240567629Y-103902523D01*
X240553379Y-103883310D01*
X240541082Y-103862793D01*
X240530854Y-103841169D01*
X240522796Y-103818647D01*
X240516984Y-103795443D01*
X240513474Y-103771782D01*
X240512300Y-103747890D01*
X240512300Y-102835390D01*
X240513474Y-102811498D01*
X240516984Y-102787837D01*
X240522796Y-102764633D01*
X240530854Y-102742111D01*
X240541082Y-102720487D01*
X240553379Y-102699970D01*
X240567629Y-102680757D01*
X240583693Y-102663033D01*
X240601417Y-102646969D01*
X240620630Y-102632719D01*
X240641147Y-102620422D01*
X240662771Y-102610194D01*
X240685293Y-102602136D01*
X240708497Y-102596324D01*
X240732158Y-102592814D01*
X240756050Y-102591640D01*
X241243550Y-102591640D01*
X241267442Y-102592814D01*
X241267442Y-102592814D01*
G37*
D14*
X240999800Y-103291640D03*
G04 #@! TD*
D13*
G04 #@! TO.C,RA7*
G36*
X223467750Y-90808948D02*
X223491411Y-90812458D01*
X223514615Y-90818270D01*
X223537137Y-90826328D01*
X223558761Y-90836556D01*
X223579278Y-90848853D01*
X223598491Y-90863103D01*
X223616215Y-90879167D01*
X223632279Y-90896891D01*
X223646529Y-90916104D01*
X223658826Y-90936621D01*
X223669054Y-90958245D01*
X223677112Y-90980767D01*
X223682924Y-91003971D01*
X223686434Y-91027632D01*
X223687608Y-91051524D01*
X223687608Y-91539024D01*
X223686434Y-91562916D01*
X223682924Y-91586577D01*
X223677112Y-91609781D01*
X223669054Y-91632303D01*
X223658826Y-91653927D01*
X223646529Y-91674444D01*
X223632279Y-91693657D01*
X223616215Y-91711381D01*
X223598491Y-91727445D01*
X223579278Y-91741695D01*
X223558761Y-91753992D01*
X223537137Y-91764220D01*
X223514615Y-91772278D01*
X223491411Y-91778090D01*
X223467750Y-91781600D01*
X223443858Y-91782774D01*
X222531358Y-91782774D01*
X222507466Y-91781600D01*
X222483805Y-91778090D01*
X222460601Y-91772278D01*
X222438079Y-91764220D01*
X222416455Y-91753992D01*
X222395938Y-91741695D01*
X222376725Y-91727445D01*
X222359001Y-91711381D01*
X222342937Y-91693657D01*
X222328687Y-91674444D01*
X222316390Y-91653927D01*
X222306162Y-91632303D01*
X222298104Y-91609781D01*
X222292292Y-91586577D01*
X222288782Y-91562916D01*
X222287608Y-91539024D01*
X222287608Y-91051524D01*
X222288782Y-91027632D01*
X222292292Y-91003971D01*
X222298104Y-90980767D01*
X222306162Y-90958245D01*
X222316390Y-90936621D01*
X222328687Y-90916104D01*
X222342937Y-90896891D01*
X222359001Y-90879167D01*
X222376725Y-90863103D01*
X222395938Y-90848853D01*
X222416455Y-90836556D01*
X222438079Y-90826328D01*
X222460601Y-90818270D01*
X222483805Y-90812458D01*
X222507466Y-90808948D01*
X222531358Y-90807774D01*
X223443858Y-90807774D01*
X223467750Y-90808948D01*
X223467750Y-90808948D01*
G37*
D14*
X222987608Y-91295274D03*
D13*
G36*
X223467750Y-88933948D02*
X223491411Y-88937458D01*
X223514615Y-88943270D01*
X223537137Y-88951328D01*
X223558761Y-88961556D01*
X223579278Y-88973853D01*
X223598491Y-88988103D01*
X223616215Y-89004167D01*
X223632279Y-89021891D01*
X223646529Y-89041104D01*
X223658826Y-89061621D01*
X223669054Y-89083245D01*
X223677112Y-89105767D01*
X223682924Y-89128971D01*
X223686434Y-89152632D01*
X223687608Y-89176524D01*
X223687608Y-89664024D01*
X223686434Y-89687916D01*
X223682924Y-89711577D01*
X223677112Y-89734781D01*
X223669054Y-89757303D01*
X223658826Y-89778927D01*
X223646529Y-89799444D01*
X223632279Y-89818657D01*
X223616215Y-89836381D01*
X223598491Y-89852445D01*
X223579278Y-89866695D01*
X223558761Y-89878992D01*
X223537137Y-89889220D01*
X223514615Y-89897278D01*
X223491411Y-89903090D01*
X223467750Y-89906600D01*
X223443858Y-89907774D01*
X222531358Y-89907774D01*
X222507466Y-89906600D01*
X222483805Y-89903090D01*
X222460601Y-89897278D01*
X222438079Y-89889220D01*
X222416455Y-89878992D01*
X222395938Y-89866695D01*
X222376725Y-89852445D01*
X222359001Y-89836381D01*
X222342937Y-89818657D01*
X222328687Y-89799444D01*
X222316390Y-89778927D01*
X222306162Y-89757303D01*
X222298104Y-89734781D01*
X222292292Y-89711577D01*
X222288782Y-89687916D01*
X222287608Y-89664024D01*
X222287608Y-89176524D01*
X222288782Y-89152632D01*
X222292292Y-89128971D01*
X222298104Y-89105767D01*
X222306162Y-89083245D01*
X222316390Y-89061621D01*
X222328687Y-89041104D01*
X222342937Y-89021891D01*
X222359001Y-89004167D01*
X222376725Y-88988103D01*
X222395938Y-88973853D01*
X222416455Y-88961556D01*
X222438079Y-88951328D01*
X222460601Y-88943270D01*
X222483805Y-88937458D01*
X222507466Y-88933948D01*
X222531358Y-88932774D01*
X223443858Y-88932774D01*
X223467750Y-88933948D01*
X223467750Y-88933948D01*
G37*
D14*
X222987608Y-89420274D03*
G04 #@! TD*
D13*
G04 #@! TO.C,RB1*
G36*
X249632536Y-93366645D02*
X249656197Y-93370155D01*
X249679401Y-93375967D01*
X249701923Y-93384025D01*
X249723547Y-93394253D01*
X249744064Y-93406550D01*
X249763277Y-93420800D01*
X249781001Y-93436864D01*
X249797065Y-93454588D01*
X249811315Y-93473801D01*
X249823612Y-93494318D01*
X249833840Y-93515942D01*
X249841898Y-93538464D01*
X249847710Y-93561668D01*
X249851220Y-93585329D01*
X249852394Y-93609221D01*
X249852394Y-94521721D01*
X249851220Y-94545613D01*
X249847710Y-94569274D01*
X249841898Y-94592478D01*
X249833840Y-94615000D01*
X249823612Y-94636624D01*
X249811315Y-94657141D01*
X249797065Y-94676354D01*
X249781001Y-94694078D01*
X249763277Y-94710142D01*
X249744064Y-94724392D01*
X249723547Y-94736689D01*
X249701923Y-94746917D01*
X249679401Y-94754975D01*
X249656197Y-94760787D01*
X249632536Y-94764297D01*
X249608644Y-94765471D01*
X249121144Y-94765471D01*
X249097252Y-94764297D01*
X249073591Y-94760787D01*
X249050387Y-94754975D01*
X249027865Y-94746917D01*
X249006241Y-94736689D01*
X248985724Y-94724392D01*
X248966511Y-94710142D01*
X248948787Y-94694078D01*
X248932723Y-94676354D01*
X248918473Y-94657141D01*
X248906176Y-94636624D01*
X248895948Y-94615000D01*
X248887890Y-94592478D01*
X248882078Y-94569274D01*
X248878568Y-94545613D01*
X248877394Y-94521721D01*
X248877394Y-93609221D01*
X248878568Y-93585329D01*
X248882078Y-93561668D01*
X248887890Y-93538464D01*
X248895948Y-93515942D01*
X248906176Y-93494318D01*
X248918473Y-93473801D01*
X248932723Y-93454588D01*
X248948787Y-93436864D01*
X248966511Y-93420800D01*
X248985724Y-93406550D01*
X249006241Y-93394253D01*
X249027865Y-93384025D01*
X249050387Y-93375967D01*
X249073591Y-93370155D01*
X249097252Y-93366645D01*
X249121144Y-93365471D01*
X249608644Y-93365471D01*
X249632536Y-93366645D01*
X249632536Y-93366645D01*
G37*
D14*
X249364894Y-94065471D03*
D13*
G36*
X247757536Y-93366645D02*
X247781197Y-93370155D01*
X247804401Y-93375967D01*
X247826923Y-93384025D01*
X247848547Y-93394253D01*
X247869064Y-93406550D01*
X247888277Y-93420800D01*
X247906001Y-93436864D01*
X247922065Y-93454588D01*
X247936315Y-93473801D01*
X247948612Y-93494318D01*
X247958840Y-93515942D01*
X247966898Y-93538464D01*
X247972710Y-93561668D01*
X247976220Y-93585329D01*
X247977394Y-93609221D01*
X247977394Y-94521721D01*
X247976220Y-94545613D01*
X247972710Y-94569274D01*
X247966898Y-94592478D01*
X247958840Y-94615000D01*
X247948612Y-94636624D01*
X247936315Y-94657141D01*
X247922065Y-94676354D01*
X247906001Y-94694078D01*
X247888277Y-94710142D01*
X247869064Y-94724392D01*
X247848547Y-94736689D01*
X247826923Y-94746917D01*
X247804401Y-94754975D01*
X247781197Y-94760787D01*
X247757536Y-94764297D01*
X247733644Y-94765471D01*
X247246144Y-94765471D01*
X247222252Y-94764297D01*
X247198591Y-94760787D01*
X247175387Y-94754975D01*
X247152865Y-94746917D01*
X247131241Y-94736689D01*
X247110724Y-94724392D01*
X247091511Y-94710142D01*
X247073787Y-94694078D01*
X247057723Y-94676354D01*
X247043473Y-94657141D01*
X247031176Y-94636624D01*
X247020948Y-94615000D01*
X247012890Y-94592478D01*
X247007078Y-94569274D01*
X247003568Y-94545613D01*
X247002394Y-94521721D01*
X247002394Y-93609221D01*
X247003568Y-93585329D01*
X247007078Y-93561668D01*
X247012890Y-93538464D01*
X247020948Y-93515942D01*
X247031176Y-93494318D01*
X247043473Y-93473801D01*
X247057723Y-93454588D01*
X247073787Y-93436864D01*
X247091511Y-93420800D01*
X247110724Y-93406550D01*
X247131241Y-93394253D01*
X247152865Y-93384025D01*
X247175387Y-93375967D01*
X247198591Y-93370155D01*
X247222252Y-93366645D01*
X247246144Y-93365471D01*
X247733644Y-93365471D01*
X247757536Y-93366645D01*
X247757536Y-93366645D01*
G37*
D14*
X247489894Y-94065471D03*
G04 #@! TD*
D13*
G04 #@! TO.C,RB2*
G36*
X226387512Y-95367887D02*
X226411173Y-95371397D01*
X226434377Y-95377209D01*
X226456899Y-95385267D01*
X226478523Y-95395495D01*
X226499040Y-95407792D01*
X226518253Y-95422042D01*
X226535977Y-95438106D01*
X226552041Y-95455830D01*
X226566291Y-95475043D01*
X226578588Y-95495560D01*
X226588816Y-95517184D01*
X226596874Y-95539706D01*
X226602686Y-95562910D01*
X226606196Y-95586571D01*
X226607370Y-95610463D01*
X226607370Y-96522963D01*
X226606196Y-96546855D01*
X226602686Y-96570516D01*
X226596874Y-96593720D01*
X226588816Y-96616242D01*
X226578588Y-96637866D01*
X226566291Y-96658383D01*
X226552041Y-96677596D01*
X226535977Y-96695320D01*
X226518253Y-96711384D01*
X226499040Y-96725634D01*
X226478523Y-96737931D01*
X226456899Y-96748159D01*
X226434377Y-96756217D01*
X226411173Y-96762029D01*
X226387512Y-96765539D01*
X226363620Y-96766713D01*
X225876120Y-96766713D01*
X225852228Y-96765539D01*
X225828567Y-96762029D01*
X225805363Y-96756217D01*
X225782841Y-96748159D01*
X225761217Y-96737931D01*
X225740700Y-96725634D01*
X225721487Y-96711384D01*
X225703763Y-96695320D01*
X225687699Y-96677596D01*
X225673449Y-96658383D01*
X225661152Y-96637866D01*
X225650924Y-96616242D01*
X225642866Y-96593720D01*
X225637054Y-96570516D01*
X225633544Y-96546855D01*
X225632370Y-96522963D01*
X225632370Y-95610463D01*
X225633544Y-95586571D01*
X225637054Y-95562910D01*
X225642866Y-95539706D01*
X225650924Y-95517184D01*
X225661152Y-95495560D01*
X225673449Y-95475043D01*
X225687699Y-95455830D01*
X225703763Y-95438106D01*
X225721487Y-95422042D01*
X225740700Y-95407792D01*
X225761217Y-95395495D01*
X225782841Y-95385267D01*
X225805363Y-95377209D01*
X225828567Y-95371397D01*
X225852228Y-95367887D01*
X225876120Y-95366713D01*
X226363620Y-95366713D01*
X226387512Y-95367887D01*
X226387512Y-95367887D01*
G37*
D14*
X226119870Y-96066713D03*
D13*
G36*
X224512512Y-95367887D02*
X224536173Y-95371397D01*
X224559377Y-95377209D01*
X224581899Y-95385267D01*
X224603523Y-95395495D01*
X224624040Y-95407792D01*
X224643253Y-95422042D01*
X224660977Y-95438106D01*
X224677041Y-95455830D01*
X224691291Y-95475043D01*
X224703588Y-95495560D01*
X224713816Y-95517184D01*
X224721874Y-95539706D01*
X224727686Y-95562910D01*
X224731196Y-95586571D01*
X224732370Y-95610463D01*
X224732370Y-96522963D01*
X224731196Y-96546855D01*
X224727686Y-96570516D01*
X224721874Y-96593720D01*
X224713816Y-96616242D01*
X224703588Y-96637866D01*
X224691291Y-96658383D01*
X224677041Y-96677596D01*
X224660977Y-96695320D01*
X224643253Y-96711384D01*
X224624040Y-96725634D01*
X224603523Y-96737931D01*
X224581899Y-96748159D01*
X224559377Y-96756217D01*
X224536173Y-96762029D01*
X224512512Y-96765539D01*
X224488620Y-96766713D01*
X224001120Y-96766713D01*
X223977228Y-96765539D01*
X223953567Y-96762029D01*
X223930363Y-96756217D01*
X223907841Y-96748159D01*
X223886217Y-96737931D01*
X223865700Y-96725634D01*
X223846487Y-96711384D01*
X223828763Y-96695320D01*
X223812699Y-96677596D01*
X223798449Y-96658383D01*
X223786152Y-96637866D01*
X223775924Y-96616242D01*
X223767866Y-96593720D01*
X223762054Y-96570516D01*
X223758544Y-96546855D01*
X223757370Y-96522963D01*
X223757370Y-95610463D01*
X223758544Y-95586571D01*
X223762054Y-95562910D01*
X223767866Y-95539706D01*
X223775924Y-95517184D01*
X223786152Y-95495560D01*
X223798449Y-95475043D01*
X223812699Y-95455830D01*
X223828763Y-95438106D01*
X223846487Y-95422042D01*
X223865700Y-95407792D01*
X223886217Y-95395495D01*
X223907841Y-95385267D01*
X223930363Y-95377209D01*
X223953567Y-95371397D01*
X223977228Y-95367887D01*
X224001120Y-95366713D01*
X224488620Y-95366713D01*
X224512512Y-95367887D01*
X224512512Y-95367887D01*
G37*
D14*
X224244870Y-96066713D03*
G04 #@! TD*
D13*
G04 #@! TO.C,RB3*
G36*
X249789697Y-104249735D02*
X249813358Y-104253245D01*
X249836562Y-104259057D01*
X249859084Y-104267115D01*
X249880708Y-104277343D01*
X249901225Y-104289640D01*
X249920438Y-104303890D01*
X249938162Y-104319954D01*
X249954226Y-104337678D01*
X249968476Y-104356891D01*
X249980773Y-104377408D01*
X249991001Y-104399032D01*
X249999059Y-104421554D01*
X250004871Y-104444758D01*
X250008381Y-104468419D01*
X250009555Y-104492311D01*
X250009555Y-105404811D01*
X250008381Y-105428703D01*
X250004871Y-105452364D01*
X249999059Y-105475568D01*
X249991001Y-105498090D01*
X249980773Y-105519714D01*
X249968476Y-105540231D01*
X249954226Y-105559444D01*
X249938162Y-105577168D01*
X249920438Y-105593232D01*
X249901225Y-105607482D01*
X249880708Y-105619779D01*
X249859084Y-105630007D01*
X249836562Y-105638065D01*
X249813358Y-105643877D01*
X249789697Y-105647387D01*
X249765805Y-105648561D01*
X249278305Y-105648561D01*
X249254413Y-105647387D01*
X249230752Y-105643877D01*
X249207548Y-105638065D01*
X249185026Y-105630007D01*
X249163402Y-105619779D01*
X249142885Y-105607482D01*
X249123672Y-105593232D01*
X249105948Y-105577168D01*
X249089884Y-105559444D01*
X249075634Y-105540231D01*
X249063337Y-105519714D01*
X249053109Y-105498090D01*
X249045051Y-105475568D01*
X249039239Y-105452364D01*
X249035729Y-105428703D01*
X249034555Y-105404811D01*
X249034555Y-104492311D01*
X249035729Y-104468419D01*
X249039239Y-104444758D01*
X249045051Y-104421554D01*
X249053109Y-104399032D01*
X249063337Y-104377408D01*
X249075634Y-104356891D01*
X249089884Y-104337678D01*
X249105948Y-104319954D01*
X249123672Y-104303890D01*
X249142885Y-104289640D01*
X249163402Y-104277343D01*
X249185026Y-104267115D01*
X249207548Y-104259057D01*
X249230752Y-104253245D01*
X249254413Y-104249735D01*
X249278305Y-104248561D01*
X249765805Y-104248561D01*
X249789697Y-104249735D01*
X249789697Y-104249735D01*
G37*
D14*
X249522055Y-104948561D03*
D13*
G36*
X247914697Y-104249735D02*
X247938358Y-104253245D01*
X247961562Y-104259057D01*
X247984084Y-104267115D01*
X248005708Y-104277343D01*
X248026225Y-104289640D01*
X248045438Y-104303890D01*
X248063162Y-104319954D01*
X248079226Y-104337678D01*
X248093476Y-104356891D01*
X248105773Y-104377408D01*
X248116001Y-104399032D01*
X248124059Y-104421554D01*
X248129871Y-104444758D01*
X248133381Y-104468419D01*
X248134555Y-104492311D01*
X248134555Y-105404811D01*
X248133381Y-105428703D01*
X248129871Y-105452364D01*
X248124059Y-105475568D01*
X248116001Y-105498090D01*
X248105773Y-105519714D01*
X248093476Y-105540231D01*
X248079226Y-105559444D01*
X248063162Y-105577168D01*
X248045438Y-105593232D01*
X248026225Y-105607482D01*
X248005708Y-105619779D01*
X247984084Y-105630007D01*
X247961562Y-105638065D01*
X247938358Y-105643877D01*
X247914697Y-105647387D01*
X247890805Y-105648561D01*
X247403305Y-105648561D01*
X247379413Y-105647387D01*
X247355752Y-105643877D01*
X247332548Y-105638065D01*
X247310026Y-105630007D01*
X247288402Y-105619779D01*
X247267885Y-105607482D01*
X247248672Y-105593232D01*
X247230948Y-105577168D01*
X247214884Y-105559444D01*
X247200634Y-105540231D01*
X247188337Y-105519714D01*
X247178109Y-105498090D01*
X247170051Y-105475568D01*
X247164239Y-105452364D01*
X247160729Y-105428703D01*
X247159555Y-105404811D01*
X247159555Y-104492311D01*
X247160729Y-104468419D01*
X247164239Y-104444758D01*
X247170051Y-104421554D01*
X247178109Y-104399032D01*
X247188337Y-104377408D01*
X247200634Y-104356891D01*
X247214884Y-104337678D01*
X247230948Y-104319954D01*
X247248672Y-104303890D01*
X247267885Y-104289640D01*
X247288402Y-104277343D01*
X247310026Y-104267115D01*
X247332548Y-104259057D01*
X247355752Y-104253245D01*
X247379413Y-104249735D01*
X247403305Y-104248561D01*
X247890805Y-104248561D01*
X247914697Y-104249735D01*
X247914697Y-104249735D01*
G37*
D14*
X247647055Y-104948561D03*
G04 #@! TD*
D13*
G04 #@! TO.C,RB4*
G36*
X280068962Y-96161534D02*
X280092623Y-96165044D01*
X280115827Y-96170856D01*
X280138349Y-96178914D01*
X280159973Y-96189142D01*
X280180490Y-96201439D01*
X280199703Y-96215689D01*
X280217427Y-96231753D01*
X280233491Y-96249477D01*
X280247741Y-96268690D01*
X280260038Y-96289207D01*
X280270266Y-96310831D01*
X280278324Y-96333353D01*
X280284136Y-96356557D01*
X280287646Y-96380218D01*
X280288820Y-96404110D01*
X280288820Y-97316610D01*
X280287646Y-97340502D01*
X280284136Y-97364163D01*
X280278324Y-97387367D01*
X280270266Y-97409889D01*
X280260038Y-97431513D01*
X280247741Y-97452030D01*
X280233491Y-97471243D01*
X280217427Y-97488967D01*
X280199703Y-97505031D01*
X280180490Y-97519281D01*
X280159973Y-97531578D01*
X280138349Y-97541806D01*
X280115827Y-97549864D01*
X280092623Y-97555676D01*
X280068962Y-97559186D01*
X280045070Y-97560360D01*
X279557570Y-97560360D01*
X279533678Y-97559186D01*
X279510017Y-97555676D01*
X279486813Y-97549864D01*
X279464291Y-97541806D01*
X279442667Y-97531578D01*
X279422150Y-97519281D01*
X279402937Y-97505031D01*
X279385213Y-97488967D01*
X279369149Y-97471243D01*
X279354899Y-97452030D01*
X279342602Y-97431513D01*
X279332374Y-97409889D01*
X279324316Y-97387367D01*
X279318504Y-97364163D01*
X279314994Y-97340502D01*
X279313820Y-97316610D01*
X279313820Y-96404110D01*
X279314994Y-96380218D01*
X279318504Y-96356557D01*
X279324316Y-96333353D01*
X279332374Y-96310831D01*
X279342602Y-96289207D01*
X279354899Y-96268690D01*
X279369149Y-96249477D01*
X279385213Y-96231753D01*
X279402937Y-96215689D01*
X279422150Y-96201439D01*
X279442667Y-96189142D01*
X279464291Y-96178914D01*
X279486813Y-96170856D01*
X279510017Y-96165044D01*
X279533678Y-96161534D01*
X279557570Y-96160360D01*
X280045070Y-96160360D01*
X280068962Y-96161534D01*
X280068962Y-96161534D01*
G37*
D14*
X279801320Y-96860360D03*
D13*
G36*
X281943962Y-96161534D02*
X281967623Y-96165044D01*
X281990827Y-96170856D01*
X282013349Y-96178914D01*
X282034973Y-96189142D01*
X282055490Y-96201439D01*
X282074703Y-96215689D01*
X282092427Y-96231753D01*
X282108491Y-96249477D01*
X282122741Y-96268690D01*
X282135038Y-96289207D01*
X282145266Y-96310831D01*
X282153324Y-96333353D01*
X282159136Y-96356557D01*
X282162646Y-96380218D01*
X282163820Y-96404110D01*
X282163820Y-97316610D01*
X282162646Y-97340502D01*
X282159136Y-97364163D01*
X282153324Y-97387367D01*
X282145266Y-97409889D01*
X282135038Y-97431513D01*
X282122741Y-97452030D01*
X282108491Y-97471243D01*
X282092427Y-97488967D01*
X282074703Y-97505031D01*
X282055490Y-97519281D01*
X282034973Y-97531578D01*
X282013349Y-97541806D01*
X281990827Y-97549864D01*
X281967623Y-97555676D01*
X281943962Y-97559186D01*
X281920070Y-97560360D01*
X281432570Y-97560360D01*
X281408678Y-97559186D01*
X281385017Y-97555676D01*
X281361813Y-97549864D01*
X281339291Y-97541806D01*
X281317667Y-97531578D01*
X281297150Y-97519281D01*
X281277937Y-97505031D01*
X281260213Y-97488967D01*
X281244149Y-97471243D01*
X281229899Y-97452030D01*
X281217602Y-97431513D01*
X281207374Y-97409889D01*
X281199316Y-97387367D01*
X281193504Y-97364163D01*
X281189994Y-97340502D01*
X281188820Y-97316610D01*
X281188820Y-96404110D01*
X281189994Y-96380218D01*
X281193504Y-96356557D01*
X281199316Y-96333353D01*
X281207374Y-96310831D01*
X281217602Y-96289207D01*
X281229899Y-96268690D01*
X281244149Y-96249477D01*
X281260213Y-96231753D01*
X281277937Y-96215689D01*
X281297150Y-96201439D01*
X281317667Y-96189142D01*
X281339291Y-96178914D01*
X281361813Y-96170856D01*
X281385017Y-96165044D01*
X281408678Y-96161534D01*
X281432570Y-96160360D01*
X281920070Y-96160360D01*
X281943962Y-96161534D01*
X281943962Y-96161534D01*
G37*
D14*
X281676320Y-96860360D03*
G04 #@! TD*
D13*
G04 #@! TO.C,RB5*
G36*
X272326182Y-109188094D02*
X272349843Y-109191604D01*
X272373047Y-109197416D01*
X272395569Y-109205474D01*
X272417193Y-109215702D01*
X272437710Y-109227999D01*
X272456923Y-109242249D01*
X272474647Y-109258313D01*
X272490711Y-109276037D01*
X272504961Y-109295250D01*
X272517258Y-109315767D01*
X272527486Y-109337391D01*
X272535544Y-109359913D01*
X272541356Y-109383117D01*
X272544866Y-109406778D01*
X272546040Y-109430670D01*
X272546040Y-109918170D01*
X272544866Y-109942062D01*
X272541356Y-109965723D01*
X272535544Y-109988927D01*
X272527486Y-110011449D01*
X272517258Y-110033073D01*
X272504961Y-110053590D01*
X272490711Y-110072803D01*
X272474647Y-110090527D01*
X272456923Y-110106591D01*
X272437710Y-110120841D01*
X272417193Y-110133138D01*
X272395569Y-110143366D01*
X272373047Y-110151424D01*
X272349843Y-110157236D01*
X272326182Y-110160746D01*
X272302290Y-110161920D01*
X271389790Y-110161920D01*
X271365898Y-110160746D01*
X271342237Y-110157236D01*
X271319033Y-110151424D01*
X271296511Y-110143366D01*
X271274887Y-110133138D01*
X271254370Y-110120841D01*
X271235157Y-110106591D01*
X271217433Y-110090527D01*
X271201369Y-110072803D01*
X271187119Y-110053590D01*
X271174822Y-110033073D01*
X271164594Y-110011449D01*
X271156536Y-109988927D01*
X271150724Y-109965723D01*
X271147214Y-109942062D01*
X271146040Y-109918170D01*
X271146040Y-109430670D01*
X271147214Y-109406778D01*
X271150724Y-109383117D01*
X271156536Y-109359913D01*
X271164594Y-109337391D01*
X271174822Y-109315767D01*
X271187119Y-109295250D01*
X271201369Y-109276037D01*
X271217433Y-109258313D01*
X271235157Y-109242249D01*
X271254370Y-109227999D01*
X271274887Y-109215702D01*
X271296511Y-109205474D01*
X271319033Y-109197416D01*
X271342237Y-109191604D01*
X271365898Y-109188094D01*
X271389790Y-109186920D01*
X272302290Y-109186920D01*
X272326182Y-109188094D01*
X272326182Y-109188094D01*
G37*
D14*
X271846040Y-109674420D03*
D13*
G36*
X272326182Y-111063094D02*
X272349843Y-111066604D01*
X272373047Y-111072416D01*
X272395569Y-111080474D01*
X272417193Y-111090702D01*
X272437710Y-111102999D01*
X272456923Y-111117249D01*
X272474647Y-111133313D01*
X272490711Y-111151037D01*
X272504961Y-111170250D01*
X272517258Y-111190767D01*
X272527486Y-111212391D01*
X272535544Y-111234913D01*
X272541356Y-111258117D01*
X272544866Y-111281778D01*
X272546040Y-111305670D01*
X272546040Y-111793170D01*
X272544866Y-111817062D01*
X272541356Y-111840723D01*
X272535544Y-111863927D01*
X272527486Y-111886449D01*
X272517258Y-111908073D01*
X272504961Y-111928590D01*
X272490711Y-111947803D01*
X272474647Y-111965527D01*
X272456923Y-111981591D01*
X272437710Y-111995841D01*
X272417193Y-112008138D01*
X272395569Y-112018366D01*
X272373047Y-112026424D01*
X272349843Y-112032236D01*
X272326182Y-112035746D01*
X272302290Y-112036920D01*
X271389790Y-112036920D01*
X271365898Y-112035746D01*
X271342237Y-112032236D01*
X271319033Y-112026424D01*
X271296511Y-112018366D01*
X271274887Y-112008138D01*
X271254370Y-111995841D01*
X271235157Y-111981591D01*
X271217433Y-111965527D01*
X271201369Y-111947803D01*
X271187119Y-111928590D01*
X271174822Y-111908073D01*
X271164594Y-111886449D01*
X271156536Y-111863927D01*
X271150724Y-111840723D01*
X271147214Y-111817062D01*
X271146040Y-111793170D01*
X271146040Y-111305670D01*
X271147214Y-111281778D01*
X271150724Y-111258117D01*
X271156536Y-111234913D01*
X271164594Y-111212391D01*
X271174822Y-111190767D01*
X271187119Y-111170250D01*
X271201369Y-111151037D01*
X271217433Y-111133313D01*
X271235157Y-111117249D01*
X271254370Y-111102999D01*
X271274887Y-111090702D01*
X271296511Y-111080474D01*
X271319033Y-111072416D01*
X271342237Y-111066604D01*
X271365898Y-111063094D01*
X271389790Y-111061920D01*
X272302290Y-111061920D01*
X272326182Y-111063094D01*
X272326182Y-111063094D01*
G37*
D14*
X271846040Y-111549420D03*
G04 #@! TD*
D13*
G04 #@! TO.C,RB6*
G36*
X239336662Y-102599334D02*
X239360323Y-102602844D01*
X239383527Y-102608656D01*
X239406049Y-102616714D01*
X239427673Y-102626942D01*
X239448190Y-102639239D01*
X239467403Y-102653489D01*
X239485127Y-102669553D01*
X239501191Y-102687277D01*
X239515441Y-102706490D01*
X239527738Y-102727007D01*
X239537966Y-102748631D01*
X239546024Y-102771153D01*
X239551836Y-102794357D01*
X239555346Y-102818018D01*
X239556520Y-102841910D01*
X239556520Y-103329410D01*
X239555346Y-103353302D01*
X239551836Y-103376963D01*
X239546024Y-103400167D01*
X239537966Y-103422689D01*
X239527738Y-103444313D01*
X239515441Y-103464830D01*
X239501191Y-103484043D01*
X239485127Y-103501767D01*
X239467403Y-103517831D01*
X239448190Y-103532081D01*
X239427673Y-103544378D01*
X239406049Y-103554606D01*
X239383527Y-103562664D01*
X239360323Y-103568476D01*
X239336662Y-103571986D01*
X239312770Y-103573160D01*
X238400270Y-103573160D01*
X238376378Y-103571986D01*
X238352717Y-103568476D01*
X238329513Y-103562664D01*
X238306991Y-103554606D01*
X238285367Y-103544378D01*
X238264850Y-103532081D01*
X238245637Y-103517831D01*
X238227913Y-103501767D01*
X238211849Y-103484043D01*
X238197599Y-103464830D01*
X238185302Y-103444313D01*
X238175074Y-103422689D01*
X238167016Y-103400167D01*
X238161204Y-103376963D01*
X238157694Y-103353302D01*
X238156520Y-103329410D01*
X238156520Y-102841910D01*
X238157694Y-102818018D01*
X238161204Y-102794357D01*
X238167016Y-102771153D01*
X238175074Y-102748631D01*
X238185302Y-102727007D01*
X238197599Y-102706490D01*
X238211849Y-102687277D01*
X238227913Y-102669553D01*
X238245637Y-102653489D01*
X238264850Y-102639239D01*
X238285367Y-102626942D01*
X238306991Y-102616714D01*
X238329513Y-102608656D01*
X238352717Y-102602844D01*
X238376378Y-102599334D01*
X238400270Y-102598160D01*
X239312770Y-102598160D01*
X239336662Y-102599334D01*
X239336662Y-102599334D01*
G37*
D14*
X238856520Y-103085660D03*
D13*
G36*
X239336662Y-104474334D02*
X239360323Y-104477844D01*
X239383527Y-104483656D01*
X239406049Y-104491714D01*
X239427673Y-104501942D01*
X239448190Y-104514239D01*
X239467403Y-104528489D01*
X239485127Y-104544553D01*
X239501191Y-104562277D01*
X239515441Y-104581490D01*
X239527738Y-104602007D01*
X239537966Y-104623631D01*
X239546024Y-104646153D01*
X239551836Y-104669357D01*
X239555346Y-104693018D01*
X239556520Y-104716910D01*
X239556520Y-105204410D01*
X239555346Y-105228302D01*
X239551836Y-105251963D01*
X239546024Y-105275167D01*
X239537966Y-105297689D01*
X239527738Y-105319313D01*
X239515441Y-105339830D01*
X239501191Y-105359043D01*
X239485127Y-105376767D01*
X239467403Y-105392831D01*
X239448190Y-105407081D01*
X239427673Y-105419378D01*
X239406049Y-105429606D01*
X239383527Y-105437664D01*
X239360323Y-105443476D01*
X239336662Y-105446986D01*
X239312770Y-105448160D01*
X238400270Y-105448160D01*
X238376378Y-105446986D01*
X238352717Y-105443476D01*
X238329513Y-105437664D01*
X238306991Y-105429606D01*
X238285367Y-105419378D01*
X238264850Y-105407081D01*
X238245637Y-105392831D01*
X238227913Y-105376767D01*
X238211849Y-105359043D01*
X238197599Y-105339830D01*
X238185302Y-105319313D01*
X238175074Y-105297689D01*
X238167016Y-105275167D01*
X238161204Y-105251963D01*
X238157694Y-105228302D01*
X238156520Y-105204410D01*
X238156520Y-104716910D01*
X238157694Y-104693018D01*
X238161204Y-104669357D01*
X238167016Y-104646153D01*
X238175074Y-104623631D01*
X238185302Y-104602007D01*
X238197599Y-104581490D01*
X238211849Y-104562277D01*
X238227913Y-104544553D01*
X238245637Y-104528489D01*
X238264850Y-104514239D01*
X238285367Y-104501942D01*
X238306991Y-104491714D01*
X238329513Y-104483656D01*
X238352717Y-104477844D01*
X238376378Y-104474334D01*
X238400270Y-104473160D01*
X239312770Y-104473160D01*
X239336662Y-104474334D01*
X239336662Y-104474334D01*
G37*
D14*
X238856520Y-104960660D03*
G04 #@! TD*
D13*
G04 #@! TO.C,RB7*
G36*
X223535130Y-86692228D02*
X223558791Y-86695738D01*
X223581995Y-86701550D01*
X223604517Y-86709608D01*
X223626141Y-86719836D01*
X223646658Y-86732133D01*
X223665871Y-86746383D01*
X223683595Y-86762447D01*
X223699659Y-86780171D01*
X223713909Y-86799384D01*
X223726206Y-86819901D01*
X223736434Y-86841525D01*
X223744492Y-86864047D01*
X223750304Y-86887251D01*
X223753814Y-86910912D01*
X223754988Y-86934804D01*
X223754988Y-87847304D01*
X223753814Y-87871196D01*
X223750304Y-87894857D01*
X223744492Y-87918061D01*
X223736434Y-87940583D01*
X223726206Y-87962207D01*
X223713909Y-87982724D01*
X223699659Y-88001937D01*
X223683595Y-88019661D01*
X223665871Y-88035725D01*
X223646658Y-88049975D01*
X223626141Y-88062272D01*
X223604517Y-88072500D01*
X223581995Y-88080558D01*
X223558791Y-88086370D01*
X223535130Y-88089880D01*
X223511238Y-88091054D01*
X223023738Y-88091054D01*
X222999846Y-88089880D01*
X222976185Y-88086370D01*
X222952981Y-88080558D01*
X222930459Y-88072500D01*
X222908835Y-88062272D01*
X222888318Y-88049975D01*
X222869105Y-88035725D01*
X222851381Y-88019661D01*
X222835317Y-88001937D01*
X222821067Y-87982724D01*
X222808770Y-87962207D01*
X222798542Y-87940583D01*
X222790484Y-87918061D01*
X222784672Y-87894857D01*
X222781162Y-87871196D01*
X222779988Y-87847304D01*
X222779988Y-86934804D01*
X222781162Y-86910912D01*
X222784672Y-86887251D01*
X222790484Y-86864047D01*
X222798542Y-86841525D01*
X222808770Y-86819901D01*
X222821067Y-86799384D01*
X222835317Y-86780171D01*
X222851381Y-86762447D01*
X222869105Y-86746383D01*
X222888318Y-86732133D01*
X222908835Y-86719836D01*
X222930459Y-86709608D01*
X222952981Y-86701550D01*
X222976185Y-86695738D01*
X222999846Y-86692228D01*
X223023738Y-86691054D01*
X223511238Y-86691054D01*
X223535130Y-86692228D01*
X223535130Y-86692228D01*
G37*
D14*
X223267488Y-87391054D03*
D13*
G36*
X221660130Y-86692228D02*
X221683791Y-86695738D01*
X221706995Y-86701550D01*
X221729517Y-86709608D01*
X221751141Y-86719836D01*
X221771658Y-86732133D01*
X221790871Y-86746383D01*
X221808595Y-86762447D01*
X221824659Y-86780171D01*
X221838909Y-86799384D01*
X221851206Y-86819901D01*
X221861434Y-86841525D01*
X221869492Y-86864047D01*
X221875304Y-86887251D01*
X221878814Y-86910912D01*
X221879988Y-86934804D01*
X221879988Y-87847304D01*
X221878814Y-87871196D01*
X221875304Y-87894857D01*
X221869492Y-87918061D01*
X221861434Y-87940583D01*
X221851206Y-87962207D01*
X221838909Y-87982724D01*
X221824659Y-88001937D01*
X221808595Y-88019661D01*
X221790871Y-88035725D01*
X221771658Y-88049975D01*
X221751141Y-88062272D01*
X221729517Y-88072500D01*
X221706995Y-88080558D01*
X221683791Y-88086370D01*
X221660130Y-88089880D01*
X221636238Y-88091054D01*
X221148738Y-88091054D01*
X221124846Y-88089880D01*
X221101185Y-88086370D01*
X221077981Y-88080558D01*
X221055459Y-88072500D01*
X221033835Y-88062272D01*
X221013318Y-88049975D01*
X220994105Y-88035725D01*
X220976381Y-88019661D01*
X220960317Y-88001937D01*
X220946067Y-87982724D01*
X220933770Y-87962207D01*
X220923542Y-87940583D01*
X220915484Y-87918061D01*
X220909672Y-87894857D01*
X220906162Y-87871196D01*
X220904988Y-87847304D01*
X220904988Y-86934804D01*
X220906162Y-86910912D01*
X220909672Y-86887251D01*
X220915484Y-86864047D01*
X220923542Y-86841525D01*
X220933770Y-86819901D01*
X220946067Y-86799384D01*
X220960317Y-86780171D01*
X220976381Y-86762447D01*
X220994105Y-86746383D01*
X221013318Y-86732133D01*
X221033835Y-86719836D01*
X221055459Y-86709608D01*
X221077981Y-86701550D01*
X221101185Y-86695738D01*
X221124846Y-86692228D01*
X221148738Y-86691054D01*
X221636238Y-86691054D01*
X221660130Y-86692228D01*
X221660130Y-86692228D01*
G37*
D14*
X221392488Y-87391054D03*
G04 #@! TD*
D18*
G04 #@! TO.C,U1*
X267513840Y-93812360D03*
X267513840Y-95082360D03*
X267513840Y-96352360D03*
X267513840Y-97622360D03*
X267513840Y-98892360D03*
X267513840Y-100162360D03*
X267513840Y-101432360D03*
X262563840Y-101432360D03*
X262563840Y-100162360D03*
X262563840Y-98892360D03*
X262563840Y-97622360D03*
X262563840Y-96352360D03*
X262563840Y-95082360D03*
X262563840Y-93812360D03*
G04 #@! TD*
D10*
G04 #@! TO.C,U2*
X234685840Y-91405480D03*
X235955840Y-91405480D03*
X237225840Y-91405480D03*
X238495840Y-91405480D03*
X239765840Y-91405480D03*
X241035840Y-91405480D03*
X242305840Y-91405480D03*
X242305840Y-86455480D03*
X241035840Y-86455480D03*
X239765840Y-86455480D03*
X238495840Y-86455480D03*
X237225840Y-86455480D03*
X235955840Y-86455480D03*
X234685840Y-86455480D03*
G04 #@! TD*
D11*
G04 #@! TO.C,U3*
X253027832Y-93359968D03*
X253027832Y-94629968D03*
X253027832Y-97169968D03*
X258227832Y-93359968D03*
X258227832Y-94629968D03*
X258227832Y-97169968D03*
X253027832Y-95899968D03*
X258227832Y-95899968D03*
G04 #@! TD*
G04 #@! TO.C,U5*
X258339612Y-102022780D03*
X253139612Y-102022780D03*
X258339612Y-103292780D03*
X258339612Y-100752780D03*
X258339612Y-99482780D03*
X253139612Y-103292780D03*
X253139612Y-100752780D03*
X253139612Y-99482780D03*
G04 #@! TD*
D19*
G04 #@! TO.C,U7*
X274204741Y-100829097D03*
X274204741Y-106029097D03*
X275474741Y-100829097D03*
X272934741Y-100829097D03*
X271664741Y-100829097D03*
X275474741Y-106029097D03*
X272934741Y-106029097D03*
X271664741Y-106029097D03*
G04 #@! TD*
G04 #@! TO.C,U9*
X238490760Y-100517000D03*
X239760760Y-100517000D03*
X242300760Y-100517000D03*
X238490760Y-95317000D03*
X239760760Y-95317000D03*
X242300760Y-95317000D03*
X241030760Y-100517000D03*
X241030760Y-95317000D03*
G04 #@! TD*
M02*
