%TF.GenerationSoftware,KiCad,Pcbnew,(5.0.1)-4*%
%TF.CreationDate,2019-11-27T13:35:36-06:00*%
%TF.ProjectId,new_synth_transistor,6E65775F73796E74685F7472616E7369,rev?*%
%TF.SameCoordinates,Original*%
%TF.FileFunction,Copper,L6,Bot,Signal*%
%TF.FilePolarity,Positive*%
%FSLAX46Y46*%
G04 Gerber Fmt 4.6, Leading zero omitted, Abs format (unit mm)*
G04 Created by KiCad (PCBNEW (5.0.1)-4) date 11/27/2019 1:35:36 PM*
%MOMM*%
%LPD*%
G01*
G04 APERTURE LIST*
%ADD10C,1.600000*%
%ADD11R,1.600000X1.600000*%
%ADD12O,1.700000X1.700000*%
%ADD13R,1.700000X1.700000*%
%ADD14C,0.609600*%
%ADD15C,0.152400*%
%ADD16C,0.304800*%
%ADD17C,0.254000*%
G04 APERTURE END LIST*
D10*
X237154720Y-60258960D03*
X234614720Y-60258960D03*
X232074720Y-60258960D03*
X229534720Y-60258960D03*
X239694720Y-60258960D03*
X242234720Y-60258960D03*
X244774720Y-60258960D03*
X226994720Y-60258960D03*
X224454720Y-60258960D03*
X221914720Y-60258960D03*
X219374720Y-60258960D03*
X232074720Y-62798960D03*
X232074720Y-65338960D03*
X232074720Y-67878960D03*
X232074720Y-70418960D03*
X232074720Y-72958960D03*
X219374720Y-75498960D03*
X221914720Y-75498960D03*
X224454720Y-75498960D03*
X226994720Y-75498960D03*
X229534720Y-75498960D03*
X232074720Y-75498960D03*
X234614720Y-75498960D03*
X237154720Y-75498960D03*
X247314720Y-60258960D03*
X249854720Y-60258960D03*
X252394720Y-60258960D03*
X254934720Y-60258960D03*
X257474720Y-60258960D03*
X260014720Y-60258960D03*
X262554720Y-60258960D03*
X265094720Y-60258960D03*
X267634720Y-60258960D03*
X270174720Y-60258960D03*
X272714720Y-60258960D03*
X275254720Y-60258960D03*
D11*
X277794720Y-60258960D03*
D10*
X239694720Y-75498960D03*
X242234720Y-75498960D03*
X244774720Y-75498960D03*
X247314720Y-75498960D03*
X249854720Y-75498960D03*
X252394720Y-75498960D03*
X254934720Y-75498960D03*
X257474720Y-75498960D03*
X260014720Y-75498960D03*
X262554720Y-75498960D03*
X265094720Y-75498960D03*
X267634720Y-75498960D03*
X270174720Y-75498960D03*
X272714720Y-75498960D03*
X275254720Y-75498960D03*
X277794720Y-75498960D03*
X275254720Y-72958960D03*
X270174720Y-72958960D03*
X267634720Y-72958960D03*
X265094720Y-72958960D03*
X271444720Y-63258960D03*
X268904720Y-63258960D03*
X266364720Y-63258960D03*
X263824720Y-63258960D03*
X261284720Y-63258960D03*
D12*
X227116640Y-121452640D03*
X229656640Y-121452640D03*
X232196640Y-121452640D03*
X234736640Y-121452640D03*
X237276640Y-121452640D03*
X239816640Y-121452640D03*
D13*
X242356640Y-121452640D03*
D14*
X272189820Y-43367422D03*
X262492100Y-22453062D03*
X262512420Y-21213542D03*
X277794720Y-56728360D03*
X229052120Y-67868800D03*
X242234720Y-79349600D03*
X270149320Y-69682360D03*
X275315680Y-78943200D03*
X269956280Y-91683840D03*
X269483840Y-97586800D03*
X276717760Y-98806000D03*
X281731720Y-101244400D03*
X267258800Y-111566960D03*
X261609840Y-103362760D03*
X260446520Y-97195640D03*
X247489894Y-89227574D03*
X243819680Y-92989400D03*
X231536240Y-91937840D03*
X236357160Y-98907600D03*
X238511080Y-83479640D03*
X218851480Y-85135720D03*
X222016320Y-93832680D03*
X246761000Y-121371360D03*
X247599200Y-100568760D03*
X228142800Y-52039520D03*
X236651800Y-107589320D03*
X272709640Y-79100680D03*
X242214400Y-57089040D03*
X220024960Y-55290720D03*
X250484640Y-19431000D03*
X264464800Y-29067760D03*
X223850200Y-54655720D03*
X260883400Y-37500560D03*
X270576040Y-43789600D03*
X277809960Y-78958440D03*
X280035000Y-90190320D03*
X271414240Y-98663760D03*
X269529560Y-100832920D03*
X245125240Y-96398080D03*
X236870240Y-96641920D03*
X236321600Y-93944440D03*
X225938080Y-101909880D03*
X221020640Y-93278960D03*
X255483360Y-98308160D03*
X244942360Y-107223560D03*
X231566720Y-83093560D03*
X258221480Y-91399360D03*
X277428960Y-105984040D03*
X262371840Y-36555680D03*
X268386560Y-36997640D03*
X270210280Y-46283880D03*
X249101152Y-27738262D03*
X271813020Y-31455360D03*
X255209040Y-39654480D03*
X253344680Y-39644320D03*
X266009120Y-22402800D03*
X259616590Y-23540720D03*
X261680960Y-24988520D03*
D15*
X271444720Y-44112522D02*
X271444720Y-63258960D01*
X272189820Y-43367422D02*
X271444720Y-44112522D01*
X262416090Y-63258960D02*
X263824720Y-63258960D01*
X261284720Y-63258960D02*
X262416090Y-63258960D01*
X264956090Y-63258960D02*
X266364720Y-63258960D01*
X263824720Y-63258960D02*
X264956090Y-63258960D01*
X262492100Y-22453062D02*
X262492100Y-22022010D01*
X262492100Y-21233862D02*
X262512420Y-21213542D01*
X262492100Y-22022010D02*
X262492100Y-21233862D01*
D16*
X242234720Y-121330720D02*
X242356640Y-121452640D01*
D15*
X277794720Y-60258960D02*
X277794720Y-56728360D01*
X232074720Y-67878960D02*
X229062280Y-67878960D01*
X229062280Y-67878960D02*
X229052120Y-67868800D01*
X242234720Y-75498960D02*
X242234720Y-79349600D01*
D16*
X242234720Y-79349600D02*
X242234720Y-121330720D01*
D15*
X270174720Y-72958960D02*
X270174720Y-69707760D01*
X270174720Y-69707760D02*
X270149320Y-69682360D01*
X275254720Y-75498960D02*
X275254720Y-78882240D01*
X275254720Y-78882240D02*
X275315680Y-78943200D01*
X242356640Y-121452640D02*
X246679720Y-121452640D01*
X246679720Y-121452640D02*
X246761000Y-121371360D01*
X255209040Y-39654480D02*
X254777988Y-39654480D01*
X254777988Y-39654480D02*
X253354840Y-39654480D01*
X253354840Y-39654480D02*
X253344680Y-39644320D01*
X264871200Y-23540720D02*
X260047642Y-23540720D01*
X260047642Y-23540720D02*
X259616590Y-23540720D01*
X266009120Y-22402800D02*
X264871200Y-23540720D01*
X260233160Y-23540720D02*
X259616590Y-23540720D01*
X261680960Y-24988520D02*
X260233160Y-23540720D01*
D16*
X239816640Y-75620880D02*
X239694720Y-75498960D01*
X239816640Y-121452640D02*
X239816640Y-75620880D01*
D17*
G36*
X283707813Y-15884988D02*
X283682468Y-133688686D01*
X212963760Y-132762373D01*
X212963760Y-101722942D01*
X224998280Y-101722942D01*
X224998280Y-102096818D01*
X225141356Y-102442234D01*
X225405726Y-102706604D01*
X225751142Y-102849680D01*
X226125018Y-102849680D01*
X226470434Y-102706604D01*
X226734804Y-102442234D01*
X226877880Y-102096818D01*
X226877880Y-101722942D01*
X226734804Y-101377526D01*
X226470434Y-101113156D01*
X226125018Y-100970080D01*
X225751142Y-100970080D01*
X225405726Y-101113156D01*
X225141356Y-101377526D01*
X224998280Y-101722942D01*
X212963760Y-101722942D01*
X212963760Y-96454982D01*
X235930440Y-96454982D01*
X235930440Y-96828858D01*
X236073516Y-97174274D01*
X236337886Y-97438644D01*
X236683302Y-97581720D01*
X237057178Y-97581720D01*
X237402594Y-97438644D01*
X237666964Y-97174274D01*
X237810040Y-96828858D01*
X237810040Y-96454982D01*
X237666964Y-96109566D01*
X237402594Y-95845196D01*
X237057178Y-95702120D01*
X236683302Y-95702120D01*
X236337886Y-95845196D01*
X236073516Y-96109566D01*
X235930440Y-96454982D01*
X212963760Y-96454982D01*
X212963760Y-93092022D01*
X220080840Y-93092022D01*
X220080840Y-93465898D01*
X220223916Y-93811314D01*
X220488286Y-94075684D01*
X220833702Y-94218760D01*
X221207578Y-94218760D01*
X221552994Y-94075684D01*
X221817364Y-93811314D01*
X221839653Y-93757502D01*
X235381800Y-93757502D01*
X235381800Y-94131378D01*
X235524876Y-94476794D01*
X235789246Y-94741164D01*
X236134662Y-94884240D01*
X236508538Y-94884240D01*
X236853954Y-94741164D01*
X237118324Y-94476794D01*
X237261400Y-94131378D01*
X237261400Y-93757502D01*
X237118324Y-93412086D01*
X236853954Y-93147716D01*
X236508538Y-93004640D01*
X236134662Y-93004640D01*
X235789246Y-93147716D01*
X235524876Y-93412086D01*
X235381800Y-93757502D01*
X221839653Y-93757502D01*
X221960440Y-93465898D01*
X221960440Y-93092022D01*
X221817364Y-92746606D01*
X221552994Y-92482236D01*
X221207578Y-92339160D01*
X220833702Y-92339160D01*
X220488286Y-92482236D01*
X220223916Y-92746606D01*
X220080840Y-93092022D01*
X212963760Y-93092022D01*
X212963760Y-82906622D01*
X230626920Y-82906622D01*
X230626920Y-83280498D01*
X230769996Y-83625914D01*
X231034366Y-83890284D01*
X231379782Y-84033360D01*
X231753658Y-84033360D01*
X232099074Y-83890284D01*
X232363444Y-83625914D01*
X232506520Y-83280498D01*
X232506520Y-82906622D01*
X232363444Y-82561206D01*
X232099074Y-82296836D01*
X231753658Y-82153760D01*
X231379782Y-82153760D01*
X231034366Y-82296836D01*
X230769996Y-82561206D01*
X230626920Y-82906622D01*
X212963760Y-82906622D01*
X212963760Y-75213521D01*
X217939720Y-75213521D01*
X217939720Y-75784399D01*
X218158186Y-76311822D01*
X218561858Y-76715494D01*
X219089281Y-76933960D01*
X219660159Y-76933960D01*
X220187582Y-76715494D01*
X220591254Y-76311822D01*
X220644720Y-76182744D01*
X220698186Y-76311822D01*
X221101858Y-76715494D01*
X221629281Y-76933960D01*
X222200159Y-76933960D01*
X222727582Y-76715494D01*
X223131254Y-76311822D01*
X223184720Y-76182744D01*
X223238186Y-76311822D01*
X223641858Y-76715494D01*
X224169281Y-76933960D01*
X224740159Y-76933960D01*
X225267582Y-76715494D01*
X225671254Y-76311822D01*
X225724720Y-76182744D01*
X225778186Y-76311822D01*
X226181858Y-76715494D01*
X226709281Y-76933960D01*
X227280159Y-76933960D01*
X227807582Y-76715494D01*
X228211254Y-76311822D01*
X228264720Y-76182744D01*
X228318186Y-76311822D01*
X228721858Y-76715494D01*
X229249281Y-76933960D01*
X229820159Y-76933960D01*
X230347582Y-76715494D01*
X230751254Y-76311822D01*
X230804720Y-76182744D01*
X230858186Y-76311822D01*
X231261858Y-76715494D01*
X231789281Y-76933960D01*
X232360159Y-76933960D01*
X232887582Y-76715494D01*
X233291254Y-76311822D01*
X233344720Y-76182744D01*
X233398186Y-76311822D01*
X233801858Y-76715494D01*
X234329281Y-76933960D01*
X234900159Y-76933960D01*
X235427582Y-76715494D01*
X235831254Y-76311822D01*
X235884720Y-76182744D01*
X235938186Y-76311822D01*
X236341858Y-76715494D01*
X236869281Y-76933960D01*
X237440159Y-76933960D01*
X237967582Y-76715494D01*
X238371254Y-76311822D01*
X238424720Y-76182744D01*
X238478186Y-76311822D01*
X238881858Y-76715494D01*
X239029241Y-76776542D01*
X239029240Y-120192770D01*
X238746015Y-120382015D01*
X238546640Y-120680401D01*
X238347265Y-120382015D01*
X237856058Y-120053801D01*
X237422896Y-119967640D01*
X237130384Y-119967640D01*
X236697222Y-120053801D01*
X236206015Y-120382015D01*
X236006640Y-120680401D01*
X235807265Y-120382015D01*
X235316058Y-120053801D01*
X234882896Y-119967640D01*
X234590384Y-119967640D01*
X234157222Y-120053801D01*
X233666015Y-120382015D01*
X233466640Y-120680401D01*
X233267265Y-120382015D01*
X232776058Y-120053801D01*
X232342896Y-119967640D01*
X232050384Y-119967640D01*
X231617222Y-120053801D01*
X231126015Y-120382015D01*
X230926640Y-120680401D01*
X230727265Y-120382015D01*
X230236058Y-120053801D01*
X229802896Y-119967640D01*
X229510384Y-119967640D01*
X229077222Y-120053801D01*
X228586015Y-120382015D01*
X228386640Y-120680401D01*
X228187265Y-120382015D01*
X227696058Y-120053801D01*
X227262896Y-119967640D01*
X226970384Y-119967640D01*
X226537222Y-120053801D01*
X226046015Y-120382015D01*
X225717801Y-120873222D01*
X225602548Y-121452640D01*
X225717801Y-122032058D01*
X226046015Y-122523265D01*
X226537222Y-122851479D01*
X226970384Y-122937640D01*
X227262896Y-122937640D01*
X227696058Y-122851479D01*
X228187265Y-122523265D01*
X228386640Y-122224879D01*
X228586015Y-122523265D01*
X229077222Y-122851479D01*
X229510384Y-122937640D01*
X229802896Y-122937640D01*
X230236058Y-122851479D01*
X230727265Y-122523265D01*
X230926640Y-122224879D01*
X231126015Y-122523265D01*
X231617222Y-122851479D01*
X232050384Y-122937640D01*
X232342896Y-122937640D01*
X232776058Y-122851479D01*
X233267265Y-122523265D01*
X233466640Y-122224879D01*
X233666015Y-122523265D01*
X234157222Y-122851479D01*
X234590384Y-122937640D01*
X234882896Y-122937640D01*
X235316058Y-122851479D01*
X235807265Y-122523265D01*
X236006640Y-122224879D01*
X236206015Y-122523265D01*
X236697222Y-122851479D01*
X237130384Y-122937640D01*
X237422896Y-122937640D01*
X237856058Y-122851479D01*
X238347265Y-122523265D01*
X238546640Y-122224879D01*
X238746015Y-122523265D01*
X239237222Y-122851479D01*
X239670384Y-122937640D01*
X239962896Y-122937640D01*
X240396058Y-122851479D01*
X240887265Y-122523265D01*
X240901736Y-122501607D01*
X240968313Y-122662338D01*
X241146941Y-122840967D01*
X241380330Y-122937640D01*
X242070890Y-122937640D01*
X242229640Y-122778890D01*
X242229640Y-121579640D01*
X242483640Y-121579640D01*
X242483640Y-122778890D01*
X242642390Y-122937640D01*
X243332950Y-122937640D01*
X243566339Y-122840967D01*
X243744967Y-122662338D01*
X243841640Y-122428949D01*
X243841640Y-121738390D01*
X243682890Y-121579640D01*
X242483640Y-121579640D01*
X242229640Y-121579640D01*
X242209640Y-121579640D01*
X242209640Y-121325640D01*
X242229640Y-121325640D01*
X242229640Y-120126390D01*
X242483640Y-120126390D01*
X242483640Y-121325640D01*
X243682890Y-121325640D01*
X243841640Y-121166890D01*
X243841640Y-120476331D01*
X243744967Y-120242942D01*
X243566339Y-120064313D01*
X243332950Y-119967640D01*
X242642390Y-119967640D01*
X242483640Y-120126390D01*
X242229640Y-120126390D01*
X242070890Y-119967640D01*
X241380330Y-119967640D01*
X241146941Y-120064313D01*
X240968313Y-120242942D01*
X240901736Y-120403673D01*
X240887265Y-120382015D01*
X240604040Y-120192770D01*
X240604040Y-107036622D01*
X244002560Y-107036622D01*
X244002560Y-107410498D01*
X244145636Y-107755914D01*
X244410006Y-108020284D01*
X244755422Y-108163360D01*
X245129298Y-108163360D01*
X245474714Y-108020284D01*
X245739084Y-107755914D01*
X245882160Y-107410498D01*
X245882160Y-107036622D01*
X245739084Y-106691206D01*
X245474714Y-106426836D01*
X245129298Y-106283760D01*
X244755422Y-106283760D01*
X244410006Y-106426836D01*
X244145636Y-106691206D01*
X244002560Y-107036622D01*
X240604040Y-107036622D01*
X240604040Y-105797102D01*
X276489160Y-105797102D01*
X276489160Y-106170978D01*
X276632236Y-106516394D01*
X276896606Y-106780764D01*
X277242022Y-106923840D01*
X277615898Y-106923840D01*
X277961314Y-106780764D01*
X278225684Y-106516394D01*
X278368760Y-106170978D01*
X278368760Y-105797102D01*
X278225684Y-105451686D01*
X277961314Y-105187316D01*
X277615898Y-105044240D01*
X277242022Y-105044240D01*
X276896606Y-105187316D01*
X276632236Y-105451686D01*
X276489160Y-105797102D01*
X240604040Y-105797102D01*
X240604040Y-100645982D01*
X268589760Y-100645982D01*
X268589760Y-101019858D01*
X268732836Y-101365274D01*
X268997206Y-101629644D01*
X269342622Y-101772720D01*
X269716498Y-101772720D01*
X270061914Y-101629644D01*
X270326284Y-101365274D01*
X270469360Y-101019858D01*
X270469360Y-100645982D01*
X270326284Y-100300566D01*
X270061914Y-100036196D01*
X269716498Y-99893120D01*
X269342622Y-99893120D01*
X268997206Y-100036196D01*
X268732836Y-100300566D01*
X268589760Y-100645982D01*
X240604040Y-100645982D01*
X240604040Y-98121222D01*
X254543560Y-98121222D01*
X254543560Y-98495098D01*
X254686636Y-98840514D01*
X254951006Y-99104884D01*
X255296422Y-99247960D01*
X255670298Y-99247960D01*
X256015714Y-99104884D01*
X256280084Y-98840514D01*
X256423160Y-98495098D01*
X256423160Y-98476822D01*
X270474440Y-98476822D01*
X270474440Y-98850698D01*
X270617516Y-99196114D01*
X270881886Y-99460484D01*
X271227302Y-99603560D01*
X271601178Y-99603560D01*
X271946594Y-99460484D01*
X272210964Y-99196114D01*
X272354040Y-98850698D01*
X272354040Y-98476822D01*
X272210964Y-98131406D01*
X271946594Y-97867036D01*
X271601178Y-97723960D01*
X271227302Y-97723960D01*
X270881886Y-97867036D01*
X270617516Y-98131406D01*
X270474440Y-98476822D01*
X256423160Y-98476822D01*
X256423160Y-98121222D01*
X256280084Y-97775806D01*
X256015714Y-97511436D01*
X255670298Y-97368360D01*
X255296422Y-97368360D01*
X254951006Y-97511436D01*
X254686636Y-97775806D01*
X254543560Y-98121222D01*
X240604040Y-98121222D01*
X240604040Y-96211142D01*
X244185440Y-96211142D01*
X244185440Y-96585018D01*
X244328516Y-96930434D01*
X244592886Y-97194804D01*
X244938302Y-97337880D01*
X245312178Y-97337880D01*
X245657594Y-97194804D01*
X245921964Y-96930434D01*
X246065040Y-96585018D01*
X246065040Y-96211142D01*
X245921964Y-95865726D01*
X245657594Y-95601356D01*
X245312178Y-95458280D01*
X244938302Y-95458280D01*
X244592886Y-95601356D01*
X244328516Y-95865726D01*
X244185440Y-96211142D01*
X240604040Y-96211142D01*
X240604040Y-91212422D01*
X257281680Y-91212422D01*
X257281680Y-91586298D01*
X257424756Y-91931714D01*
X257689126Y-92196084D01*
X258034542Y-92339160D01*
X258408418Y-92339160D01*
X258753834Y-92196084D01*
X259018204Y-91931714D01*
X259161280Y-91586298D01*
X259161280Y-91212422D01*
X259018204Y-90867006D01*
X258753834Y-90602636D01*
X258408418Y-90459560D01*
X258034542Y-90459560D01*
X257689126Y-90602636D01*
X257424756Y-90867006D01*
X257281680Y-91212422D01*
X240604040Y-91212422D01*
X240604040Y-90003382D01*
X279095200Y-90003382D01*
X279095200Y-90377258D01*
X279238276Y-90722674D01*
X279502646Y-90987044D01*
X279848062Y-91130120D01*
X280221938Y-91130120D01*
X280567354Y-90987044D01*
X280831724Y-90722674D01*
X280974800Y-90377258D01*
X280974800Y-90003382D01*
X280831724Y-89657966D01*
X280567354Y-89393596D01*
X280221938Y-89250520D01*
X279848062Y-89250520D01*
X279502646Y-89393596D01*
X279238276Y-89657966D01*
X279095200Y-90003382D01*
X240604040Y-90003382D01*
X240604040Y-78913742D01*
X271769840Y-78913742D01*
X271769840Y-79287618D01*
X271912916Y-79633034D01*
X272177286Y-79897404D01*
X272522702Y-80040480D01*
X272896578Y-80040480D01*
X273241994Y-79897404D01*
X273506364Y-79633034D01*
X273649440Y-79287618D01*
X273649440Y-78913742D01*
X273590523Y-78771502D01*
X276870160Y-78771502D01*
X276870160Y-79145378D01*
X277013236Y-79490794D01*
X277277606Y-79755164D01*
X277623022Y-79898240D01*
X277996898Y-79898240D01*
X278342314Y-79755164D01*
X278606684Y-79490794D01*
X278749760Y-79145378D01*
X278749760Y-78771502D01*
X278606684Y-78426086D01*
X278342314Y-78161716D01*
X277996898Y-78018640D01*
X277623022Y-78018640D01*
X277277606Y-78161716D01*
X277013236Y-78426086D01*
X276870160Y-78771502D01*
X273590523Y-78771502D01*
X273506364Y-78568326D01*
X273241994Y-78303956D01*
X272896578Y-78160880D01*
X272522702Y-78160880D01*
X272177286Y-78303956D01*
X271912916Y-78568326D01*
X271769840Y-78913742D01*
X240604040Y-78913742D01*
X240604040Y-76619036D01*
X240716371Y-76506705D01*
X241406581Y-76506705D01*
X241480715Y-76752824D01*
X242017943Y-76945925D01*
X242588174Y-76918738D01*
X242988725Y-76752824D01*
X243062859Y-76506705D01*
X242234720Y-75678565D01*
X241406581Y-76506705D01*
X240716371Y-76506705D01*
X240911254Y-76311822D01*
X240958245Y-76198377D01*
X240980856Y-76252965D01*
X241226975Y-76327099D01*
X242055115Y-75498960D01*
X242414325Y-75498960D01*
X243242465Y-76327099D01*
X243488584Y-76252965D01*
X243509594Y-76194512D01*
X243558186Y-76311822D01*
X243961858Y-76715494D01*
X244489281Y-76933960D01*
X245060159Y-76933960D01*
X245587582Y-76715494D01*
X245991254Y-76311822D01*
X246044720Y-76182744D01*
X246098186Y-76311822D01*
X246501858Y-76715494D01*
X247029281Y-76933960D01*
X247600159Y-76933960D01*
X248127582Y-76715494D01*
X248531254Y-76311822D01*
X248584720Y-76182744D01*
X248638186Y-76311822D01*
X249041858Y-76715494D01*
X249569281Y-76933960D01*
X250140159Y-76933960D01*
X250667582Y-76715494D01*
X251071254Y-76311822D01*
X251124720Y-76182744D01*
X251178186Y-76311822D01*
X251581858Y-76715494D01*
X252109281Y-76933960D01*
X252680159Y-76933960D01*
X253207582Y-76715494D01*
X253611254Y-76311822D01*
X253664720Y-76182744D01*
X253718186Y-76311822D01*
X254121858Y-76715494D01*
X254649281Y-76933960D01*
X255220159Y-76933960D01*
X255747582Y-76715494D01*
X256151254Y-76311822D01*
X256204720Y-76182744D01*
X256258186Y-76311822D01*
X256661858Y-76715494D01*
X257189281Y-76933960D01*
X257760159Y-76933960D01*
X258287582Y-76715494D01*
X258691254Y-76311822D01*
X258744720Y-76182744D01*
X258798186Y-76311822D01*
X259201858Y-76715494D01*
X259729281Y-76933960D01*
X260300159Y-76933960D01*
X260827582Y-76715494D01*
X261231254Y-76311822D01*
X261284720Y-76182744D01*
X261338186Y-76311822D01*
X261741858Y-76715494D01*
X262269281Y-76933960D01*
X262840159Y-76933960D01*
X263367582Y-76715494D01*
X263771254Y-76311822D01*
X263824720Y-76182744D01*
X263878186Y-76311822D01*
X264281858Y-76715494D01*
X264809281Y-76933960D01*
X265380159Y-76933960D01*
X265907582Y-76715494D01*
X266311254Y-76311822D01*
X266364720Y-76182744D01*
X266418186Y-76311822D01*
X266821858Y-76715494D01*
X267349281Y-76933960D01*
X267920159Y-76933960D01*
X268447582Y-76715494D01*
X268851254Y-76311822D01*
X268904720Y-76182744D01*
X268958186Y-76311822D01*
X269361858Y-76715494D01*
X269889281Y-76933960D01*
X270460159Y-76933960D01*
X270987582Y-76715494D01*
X271391254Y-76311822D01*
X271444720Y-76182744D01*
X271498186Y-76311822D01*
X271901858Y-76715494D01*
X272429281Y-76933960D01*
X273000159Y-76933960D01*
X273527582Y-76715494D01*
X273736371Y-76506705D01*
X274426581Y-76506705D01*
X274500715Y-76752824D01*
X275037943Y-76945925D01*
X275608174Y-76918738D01*
X276008725Y-76752824D01*
X276082859Y-76506705D01*
X275254720Y-75678565D01*
X274426581Y-76506705D01*
X273736371Y-76506705D01*
X273931254Y-76311822D01*
X273978245Y-76198377D01*
X274000856Y-76252965D01*
X274246975Y-76327099D01*
X275075115Y-75498960D01*
X275434325Y-75498960D01*
X276262465Y-76327099D01*
X276508584Y-76252965D01*
X276529594Y-76194512D01*
X276578186Y-76311822D01*
X276981858Y-76715494D01*
X277509281Y-76933960D01*
X278080159Y-76933960D01*
X278607582Y-76715494D01*
X279011254Y-76311822D01*
X279229720Y-75784399D01*
X279229720Y-75213521D01*
X279011254Y-74686098D01*
X278607582Y-74282426D01*
X278080159Y-74063960D01*
X277509281Y-74063960D01*
X276981858Y-74282426D01*
X276578186Y-74686098D01*
X276531195Y-74799543D01*
X276508584Y-74744955D01*
X276262465Y-74670821D01*
X275434325Y-75498960D01*
X275075115Y-75498960D01*
X274246975Y-74670821D01*
X274000856Y-74744955D01*
X273979846Y-74803408D01*
X273931254Y-74686098D01*
X273527582Y-74282426D01*
X273000159Y-74063960D01*
X272429281Y-74063960D01*
X271901858Y-74282426D01*
X271498186Y-74686098D01*
X271444720Y-74815176D01*
X271391254Y-74686098D01*
X270987582Y-74282426D01*
X270874137Y-74235435D01*
X270928725Y-74212824D01*
X271002859Y-73966705D01*
X270174720Y-73138565D01*
X269346581Y-73966705D01*
X269420715Y-74212824D01*
X269479168Y-74233834D01*
X269361858Y-74282426D01*
X268958186Y-74686098D01*
X268904720Y-74815176D01*
X268851254Y-74686098D01*
X268447582Y-74282426D01*
X268318504Y-74228960D01*
X268447582Y-74175494D01*
X268851254Y-73771822D01*
X268898245Y-73658377D01*
X268920856Y-73712965D01*
X269166975Y-73787099D01*
X269995115Y-72958960D01*
X270354325Y-72958960D01*
X271182465Y-73787099D01*
X271428584Y-73712965D01*
X271621685Y-73175737D01*
X271597741Y-72673521D01*
X273819720Y-72673521D01*
X273819720Y-73244399D01*
X274038186Y-73771822D01*
X274441858Y-74175494D01*
X274555303Y-74222485D01*
X274500715Y-74245096D01*
X274426581Y-74491215D01*
X275254720Y-75319355D01*
X276082859Y-74491215D01*
X276008725Y-74245096D01*
X275950272Y-74224086D01*
X276067582Y-74175494D01*
X276471254Y-73771822D01*
X276689720Y-73244399D01*
X276689720Y-72673521D01*
X276471254Y-72146098D01*
X276067582Y-71742426D01*
X275540159Y-71523960D01*
X274969281Y-71523960D01*
X274441858Y-71742426D01*
X274038186Y-72146098D01*
X273819720Y-72673521D01*
X271597741Y-72673521D01*
X271594498Y-72605506D01*
X271428584Y-72204955D01*
X271182465Y-72130821D01*
X270354325Y-72958960D01*
X269995115Y-72958960D01*
X269166975Y-72130821D01*
X268920856Y-72204955D01*
X268899846Y-72263408D01*
X268851254Y-72146098D01*
X268656371Y-71951215D01*
X269346581Y-71951215D01*
X270174720Y-72779355D01*
X271002859Y-71951215D01*
X270928725Y-71705096D01*
X270391497Y-71511995D01*
X269821266Y-71539182D01*
X269420715Y-71705096D01*
X269346581Y-71951215D01*
X268656371Y-71951215D01*
X268447582Y-71742426D01*
X267920159Y-71523960D01*
X267349281Y-71523960D01*
X266821858Y-71742426D01*
X266418186Y-72146098D01*
X266364720Y-72275176D01*
X266311254Y-72146098D01*
X265907582Y-71742426D01*
X265380159Y-71523960D01*
X264809281Y-71523960D01*
X264281858Y-71742426D01*
X263878186Y-72146098D01*
X263659720Y-72673521D01*
X263659720Y-73244399D01*
X263878186Y-73771822D01*
X264281858Y-74175494D01*
X264410936Y-74228960D01*
X264281858Y-74282426D01*
X263878186Y-74686098D01*
X263824720Y-74815176D01*
X263771254Y-74686098D01*
X263367582Y-74282426D01*
X262840159Y-74063960D01*
X262269281Y-74063960D01*
X261741858Y-74282426D01*
X261338186Y-74686098D01*
X261284720Y-74815176D01*
X261231254Y-74686098D01*
X260827582Y-74282426D01*
X260300159Y-74063960D01*
X259729281Y-74063960D01*
X259201858Y-74282426D01*
X258798186Y-74686098D01*
X258744720Y-74815176D01*
X258691254Y-74686098D01*
X258287582Y-74282426D01*
X257760159Y-74063960D01*
X257189281Y-74063960D01*
X256661858Y-74282426D01*
X256258186Y-74686098D01*
X256204720Y-74815176D01*
X256151254Y-74686098D01*
X255747582Y-74282426D01*
X255220159Y-74063960D01*
X254649281Y-74063960D01*
X254121858Y-74282426D01*
X253718186Y-74686098D01*
X253664720Y-74815176D01*
X253611254Y-74686098D01*
X253207582Y-74282426D01*
X252680159Y-74063960D01*
X252109281Y-74063960D01*
X251581858Y-74282426D01*
X251178186Y-74686098D01*
X251124720Y-74815176D01*
X251071254Y-74686098D01*
X250667582Y-74282426D01*
X250140159Y-74063960D01*
X249569281Y-74063960D01*
X249041858Y-74282426D01*
X248638186Y-74686098D01*
X248584720Y-74815176D01*
X248531254Y-74686098D01*
X248127582Y-74282426D01*
X247600159Y-74063960D01*
X247029281Y-74063960D01*
X246501858Y-74282426D01*
X246098186Y-74686098D01*
X246044720Y-74815176D01*
X245991254Y-74686098D01*
X245587582Y-74282426D01*
X245060159Y-74063960D01*
X244489281Y-74063960D01*
X243961858Y-74282426D01*
X243558186Y-74686098D01*
X243511195Y-74799543D01*
X243488584Y-74744955D01*
X243242465Y-74670821D01*
X242414325Y-75498960D01*
X242055115Y-75498960D01*
X241226975Y-74670821D01*
X240980856Y-74744955D01*
X240959846Y-74803408D01*
X240911254Y-74686098D01*
X240716371Y-74491215D01*
X241406581Y-74491215D01*
X242234720Y-75319355D01*
X243062859Y-74491215D01*
X242988725Y-74245096D01*
X242451497Y-74051995D01*
X241881266Y-74079182D01*
X241480715Y-74245096D01*
X241406581Y-74491215D01*
X240716371Y-74491215D01*
X240507582Y-74282426D01*
X239980159Y-74063960D01*
X239409281Y-74063960D01*
X238881858Y-74282426D01*
X238478186Y-74686098D01*
X238424720Y-74815176D01*
X238371254Y-74686098D01*
X237967582Y-74282426D01*
X237440159Y-74063960D01*
X236869281Y-74063960D01*
X236341858Y-74282426D01*
X235938186Y-74686098D01*
X235884720Y-74815176D01*
X235831254Y-74686098D01*
X235427582Y-74282426D01*
X234900159Y-74063960D01*
X234329281Y-74063960D01*
X233801858Y-74282426D01*
X233398186Y-74686098D01*
X233344720Y-74815176D01*
X233291254Y-74686098D01*
X232887582Y-74282426D01*
X232758504Y-74228960D01*
X232887582Y-74175494D01*
X233291254Y-73771822D01*
X233509720Y-73244399D01*
X233509720Y-72673521D01*
X233291254Y-72146098D01*
X232887582Y-71742426D01*
X232758504Y-71688960D01*
X232887582Y-71635494D01*
X233291254Y-71231822D01*
X233509720Y-70704399D01*
X233509720Y-70133521D01*
X233291254Y-69606098D01*
X232887582Y-69202426D01*
X232774137Y-69155435D01*
X232828725Y-69132824D01*
X232902859Y-68886705D01*
X232074720Y-68058565D01*
X231246581Y-68886705D01*
X231320715Y-69132824D01*
X231379168Y-69153834D01*
X231261858Y-69202426D01*
X230858186Y-69606098D01*
X230639720Y-70133521D01*
X230639720Y-70704399D01*
X230858186Y-71231822D01*
X231261858Y-71635494D01*
X231390936Y-71688960D01*
X231261858Y-71742426D01*
X230858186Y-72146098D01*
X230639720Y-72673521D01*
X230639720Y-73244399D01*
X230858186Y-73771822D01*
X231261858Y-74175494D01*
X231390936Y-74228960D01*
X231261858Y-74282426D01*
X230858186Y-74686098D01*
X230804720Y-74815176D01*
X230751254Y-74686098D01*
X230347582Y-74282426D01*
X229820159Y-74063960D01*
X229249281Y-74063960D01*
X228721858Y-74282426D01*
X228318186Y-74686098D01*
X228264720Y-74815176D01*
X228211254Y-74686098D01*
X227807582Y-74282426D01*
X227280159Y-74063960D01*
X226709281Y-74063960D01*
X226181858Y-74282426D01*
X225778186Y-74686098D01*
X225724720Y-74815176D01*
X225671254Y-74686098D01*
X225267582Y-74282426D01*
X224740159Y-74063960D01*
X224169281Y-74063960D01*
X223641858Y-74282426D01*
X223238186Y-74686098D01*
X223184720Y-74815176D01*
X223131254Y-74686098D01*
X222727582Y-74282426D01*
X222200159Y-74063960D01*
X221629281Y-74063960D01*
X221101858Y-74282426D01*
X220698186Y-74686098D01*
X220644720Y-74815176D01*
X220591254Y-74686098D01*
X220187582Y-74282426D01*
X219660159Y-74063960D01*
X219089281Y-74063960D01*
X218561858Y-74282426D01*
X218158186Y-74686098D01*
X217939720Y-75213521D01*
X212963760Y-75213521D01*
X212963760Y-67662183D01*
X230627755Y-67662183D01*
X230654942Y-68232414D01*
X230820856Y-68632965D01*
X231066975Y-68707099D01*
X231895115Y-67878960D01*
X232254325Y-67878960D01*
X233082465Y-68707099D01*
X233328584Y-68632965D01*
X233521685Y-68095737D01*
X233494498Y-67525506D01*
X233328584Y-67124955D01*
X233082465Y-67050821D01*
X232254325Y-67878960D01*
X231895115Y-67878960D01*
X231066975Y-67050821D01*
X230820856Y-67124955D01*
X230627755Y-67662183D01*
X212963760Y-67662183D01*
X212963760Y-59973521D01*
X217939720Y-59973521D01*
X217939720Y-60544399D01*
X218158186Y-61071822D01*
X218561858Y-61475494D01*
X219089281Y-61693960D01*
X219660159Y-61693960D01*
X220187582Y-61475494D01*
X220591254Y-61071822D01*
X220644720Y-60942744D01*
X220698186Y-61071822D01*
X221101858Y-61475494D01*
X221629281Y-61693960D01*
X222200159Y-61693960D01*
X222727582Y-61475494D01*
X223131254Y-61071822D01*
X223184720Y-60942744D01*
X223238186Y-61071822D01*
X223641858Y-61475494D01*
X224169281Y-61693960D01*
X224740159Y-61693960D01*
X225267582Y-61475494D01*
X225671254Y-61071822D01*
X225724720Y-60942744D01*
X225778186Y-61071822D01*
X226181858Y-61475494D01*
X226709281Y-61693960D01*
X227280159Y-61693960D01*
X227807582Y-61475494D01*
X228211254Y-61071822D01*
X228264720Y-60942744D01*
X228318186Y-61071822D01*
X228721858Y-61475494D01*
X229249281Y-61693960D01*
X229820159Y-61693960D01*
X230347582Y-61475494D01*
X230751254Y-61071822D01*
X230804720Y-60942744D01*
X230858186Y-61071822D01*
X231261858Y-61475494D01*
X231390936Y-61528960D01*
X231261858Y-61582426D01*
X230858186Y-61986098D01*
X230639720Y-62513521D01*
X230639720Y-63084399D01*
X230858186Y-63611822D01*
X231261858Y-64015494D01*
X231390936Y-64068960D01*
X231261858Y-64122426D01*
X230858186Y-64526098D01*
X230639720Y-65053521D01*
X230639720Y-65624399D01*
X230858186Y-66151822D01*
X231261858Y-66555494D01*
X231375303Y-66602485D01*
X231320715Y-66625096D01*
X231246581Y-66871215D01*
X232074720Y-67699355D01*
X232902859Y-66871215D01*
X232828725Y-66625096D01*
X232770272Y-66604086D01*
X232887582Y-66555494D01*
X233291254Y-66151822D01*
X233509720Y-65624399D01*
X233509720Y-65053521D01*
X233291254Y-64526098D01*
X232887582Y-64122426D01*
X232758504Y-64068960D01*
X232887582Y-64015494D01*
X233291254Y-63611822D01*
X233509720Y-63084399D01*
X233509720Y-62513521D01*
X233291254Y-61986098D01*
X232887582Y-61582426D01*
X232758504Y-61528960D01*
X232887582Y-61475494D01*
X233291254Y-61071822D01*
X233344720Y-60942744D01*
X233398186Y-61071822D01*
X233801858Y-61475494D01*
X234329281Y-61693960D01*
X234900159Y-61693960D01*
X235427582Y-61475494D01*
X235831254Y-61071822D01*
X235884720Y-60942744D01*
X235938186Y-61071822D01*
X236341858Y-61475494D01*
X236869281Y-61693960D01*
X237440159Y-61693960D01*
X237967582Y-61475494D01*
X238371254Y-61071822D01*
X238424720Y-60942744D01*
X238478186Y-61071822D01*
X238881858Y-61475494D01*
X239409281Y-61693960D01*
X239980159Y-61693960D01*
X240507582Y-61475494D01*
X240911254Y-61071822D01*
X240964720Y-60942744D01*
X241018186Y-61071822D01*
X241421858Y-61475494D01*
X241949281Y-61693960D01*
X242520159Y-61693960D01*
X243047582Y-61475494D01*
X243451254Y-61071822D01*
X243504720Y-60942744D01*
X243558186Y-61071822D01*
X243961858Y-61475494D01*
X244489281Y-61693960D01*
X245060159Y-61693960D01*
X245587582Y-61475494D01*
X245991254Y-61071822D01*
X246044720Y-60942744D01*
X246098186Y-61071822D01*
X246501858Y-61475494D01*
X247029281Y-61693960D01*
X247600159Y-61693960D01*
X248127582Y-61475494D01*
X248531254Y-61071822D01*
X248584720Y-60942744D01*
X248638186Y-61071822D01*
X249041858Y-61475494D01*
X249569281Y-61693960D01*
X250140159Y-61693960D01*
X250667582Y-61475494D01*
X251071254Y-61071822D01*
X251124720Y-60942744D01*
X251178186Y-61071822D01*
X251581858Y-61475494D01*
X252109281Y-61693960D01*
X252680159Y-61693960D01*
X253207582Y-61475494D01*
X253611254Y-61071822D01*
X253664720Y-60942744D01*
X253718186Y-61071822D01*
X254121858Y-61475494D01*
X254649281Y-61693960D01*
X255220159Y-61693960D01*
X255747582Y-61475494D01*
X256151254Y-61071822D01*
X256204720Y-60942744D01*
X256258186Y-61071822D01*
X256661858Y-61475494D01*
X257189281Y-61693960D01*
X257760159Y-61693960D01*
X258287582Y-61475494D01*
X258691254Y-61071822D01*
X258744720Y-60942744D01*
X258798186Y-61071822D01*
X259201858Y-61475494D01*
X259729281Y-61693960D01*
X260300159Y-61693960D01*
X260827582Y-61475494D01*
X261231254Y-61071822D01*
X261284720Y-60942744D01*
X261338186Y-61071822D01*
X261741858Y-61475494D01*
X262269281Y-61693960D01*
X262840159Y-61693960D01*
X263367582Y-61475494D01*
X263771254Y-61071822D01*
X263824720Y-60942744D01*
X263878186Y-61071822D01*
X264281858Y-61475494D01*
X264809281Y-61693960D01*
X265380159Y-61693960D01*
X265907582Y-61475494D01*
X266311254Y-61071822D01*
X266364720Y-60942744D01*
X266418186Y-61071822D01*
X266821858Y-61475494D01*
X267349281Y-61693960D01*
X267920159Y-61693960D01*
X268447582Y-61475494D01*
X268851254Y-61071822D01*
X268904720Y-60942744D01*
X268958186Y-61071822D01*
X269361858Y-61475494D01*
X269889281Y-61693960D01*
X270460159Y-61693960D01*
X270733521Y-61580730D01*
X270733521Y-62000316D01*
X270631858Y-62042426D01*
X270228186Y-62446098D01*
X270174720Y-62575176D01*
X270121254Y-62446098D01*
X269717582Y-62042426D01*
X269190159Y-61823960D01*
X268619281Y-61823960D01*
X268091858Y-62042426D01*
X267688186Y-62446098D01*
X267634720Y-62575176D01*
X267581254Y-62446098D01*
X267177582Y-62042426D01*
X266650159Y-61823960D01*
X266079281Y-61823960D01*
X265551858Y-62042426D01*
X265148186Y-62446098D01*
X265106076Y-62547760D01*
X265083364Y-62547760D01*
X265041254Y-62446098D01*
X264637582Y-62042426D01*
X264110159Y-61823960D01*
X263539281Y-61823960D01*
X263011858Y-62042426D01*
X262608186Y-62446098D01*
X262566076Y-62547760D01*
X262543364Y-62547760D01*
X262501254Y-62446098D01*
X262097582Y-62042426D01*
X261570159Y-61823960D01*
X260999281Y-61823960D01*
X260471858Y-62042426D01*
X260068186Y-62446098D01*
X259849720Y-62973521D01*
X259849720Y-63544399D01*
X260068186Y-64071822D01*
X260471858Y-64475494D01*
X260999281Y-64693960D01*
X261570159Y-64693960D01*
X262097582Y-64475494D01*
X262501254Y-64071822D01*
X262543364Y-63970160D01*
X262566076Y-63970160D01*
X262608186Y-64071822D01*
X263011858Y-64475494D01*
X263539281Y-64693960D01*
X264110159Y-64693960D01*
X264637582Y-64475494D01*
X265041254Y-64071822D01*
X265083364Y-63970160D01*
X265106076Y-63970160D01*
X265148186Y-64071822D01*
X265551858Y-64475494D01*
X266079281Y-64693960D01*
X266650159Y-64693960D01*
X267177582Y-64475494D01*
X267581254Y-64071822D01*
X267634720Y-63942744D01*
X267688186Y-64071822D01*
X268091858Y-64475494D01*
X268619281Y-64693960D01*
X269190159Y-64693960D01*
X269717582Y-64475494D01*
X270121254Y-64071822D01*
X270174720Y-63942744D01*
X270228186Y-64071822D01*
X270631858Y-64475494D01*
X271159281Y-64693960D01*
X271730159Y-64693960D01*
X272257582Y-64475494D01*
X272661254Y-64071822D01*
X272879720Y-63544399D01*
X272879720Y-62973521D01*
X272661254Y-62446098D01*
X272257582Y-62042426D01*
X272155920Y-62000316D01*
X272155920Y-61580730D01*
X272429281Y-61693960D01*
X273000159Y-61693960D01*
X273527582Y-61475494D01*
X273931254Y-61071822D01*
X273984720Y-60942744D01*
X274038186Y-61071822D01*
X274441858Y-61475494D01*
X274969281Y-61693960D01*
X275540159Y-61693960D01*
X276067582Y-61475494D01*
X276359720Y-61183356D01*
X276359720Y-61185270D01*
X276456393Y-61418659D01*
X276635022Y-61597287D01*
X276868411Y-61693960D01*
X277508970Y-61693960D01*
X277667720Y-61535210D01*
X277667720Y-60385960D01*
X277921720Y-60385960D01*
X277921720Y-61535210D01*
X278080470Y-61693960D01*
X278721029Y-61693960D01*
X278954418Y-61597287D01*
X279133047Y-61418659D01*
X279229720Y-61185270D01*
X279229720Y-60544710D01*
X279070970Y-60385960D01*
X277921720Y-60385960D01*
X277667720Y-60385960D01*
X277647720Y-60385960D01*
X277647720Y-60131960D01*
X277667720Y-60131960D01*
X277667720Y-58982710D01*
X277921720Y-58982710D01*
X277921720Y-60131960D01*
X279070970Y-60131960D01*
X279229720Y-59973210D01*
X279229720Y-59332650D01*
X279133047Y-59099261D01*
X278954418Y-58920633D01*
X278721029Y-58823960D01*
X278080470Y-58823960D01*
X277921720Y-58982710D01*
X277667720Y-58982710D01*
X277508970Y-58823960D01*
X276868411Y-58823960D01*
X276635022Y-58920633D01*
X276456393Y-59099261D01*
X276359720Y-59332650D01*
X276359720Y-59334564D01*
X276067582Y-59042426D01*
X275540159Y-58823960D01*
X274969281Y-58823960D01*
X274441858Y-59042426D01*
X274038186Y-59446098D01*
X273984720Y-59575176D01*
X273931254Y-59446098D01*
X273527582Y-59042426D01*
X273000159Y-58823960D01*
X272429281Y-58823960D01*
X272155920Y-58937190D01*
X272155920Y-44407110D01*
X272255808Y-44307222D01*
X272376758Y-44307222D01*
X272722174Y-44164146D01*
X272986544Y-43899776D01*
X273129620Y-43554360D01*
X273129620Y-43180484D01*
X272986544Y-42835068D01*
X272722174Y-42570698D01*
X272376758Y-42427622D01*
X272002882Y-42427622D01*
X271657466Y-42570698D01*
X271393096Y-42835068D01*
X271263488Y-43147970D01*
X271108394Y-42992876D01*
X270762978Y-42849800D01*
X270389102Y-42849800D01*
X270043686Y-42992876D01*
X269779316Y-43257246D01*
X269636240Y-43602662D01*
X269636240Y-43976538D01*
X269779316Y-44321954D01*
X270043686Y-44586324D01*
X270389102Y-44729400D01*
X270733520Y-44729400D01*
X270733520Y-45483381D01*
X270397218Y-45344080D01*
X270023342Y-45344080D01*
X269677926Y-45487156D01*
X269413556Y-45751526D01*
X269270480Y-46096942D01*
X269270480Y-46470818D01*
X269413556Y-46816234D01*
X269677926Y-47080604D01*
X270023342Y-47223680D01*
X270397218Y-47223680D01*
X270733520Y-47084379D01*
X270733521Y-58937190D01*
X270460159Y-58823960D01*
X269889281Y-58823960D01*
X269361858Y-59042426D01*
X268958186Y-59446098D01*
X268904720Y-59575176D01*
X268851254Y-59446098D01*
X268447582Y-59042426D01*
X267920159Y-58823960D01*
X267349281Y-58823960D01*
X266821858Y-59042426D01*
X266418186Y-59446098D01*
X266364720Y-59575176D01*
X266311254Y-59446098D01*
X265907582Y-59042426D01*
X265380159Y-58823960D01*
X264809281Y-58823960D01*
X264281858Y-59042426D01*
X263878186Y-59446098D01*
X263824720Y-59575176D01*
X263771254Y-59446098D01*
X263367582Y-59042426D01*
X262840159Y-58823960D01*
X262269281Y-58823960D01*
X261741858Y-59042426D01*
X261338186Y-59446098D01*
X261284720Y-59575176D01*
X261231254Y-59446098D01*
X260827582Y-59042426D01*
X260300159Y-58823960D01*
X259729281Y-58823960D01*
X259201858Y-59042426D01*
X258798186Y-59446098D01*
X258744720Y-59575176D01*
X258691254Y-59446098D01*
X258287582Y-59042426D01*
X257760159Y-58823960D01*
X257189281Y-58823960D01*
X256661858Y-59042426D01*
X256258186Y-59446098D01*
X256204720Y-59575176D01*
X256151254Y-59446098D01*
X255747582Y-59042426D01*
X255220159Y-58823960D01*
X254649281Y-58823960D01*
X254121858Y-59042426D01*
X253718186Y-59446098D01*
X253664720Y-59575176D01*
X253611254Y-59446098D01*
X253207582Y-59042426D01*
X252680159Y-58823960D01*
X252109281Y-58823960D01*
X251581858Y-59042426D01*
X251178186Y-59446098D01*
X251124720Y-59575176D01*
X251071254Y-59446098D01*
X250667582Y-59042426D01*
X250140159Y-58823960D01*
X249569281Y-58823960D01*
X249041858Y-59042426D01*
X248638186Y-59446098D01*
X248584720Y-59575176D01*
X248531254Y-59446098D01*
X248127582Y-59042426D01*
X247600159Y-58823960D01*
X247029281Y-58823960D01*
X246501858Y-59042426D01*
X246098186Y-59446098D01*
X246044720Y-59575176D01*
X245991254Y-59446098D01*
X245587582Y-59042426D01*
X245060159Y-58823960D01*
X244489281Y-58823960D01*
X243961858Y-59042426D01*
X243558186Y-59446098D01*
X243504720Y-59575176D01*
X243451254Y-59446098D01*
X243047582Y-59042426D01*
X242520159Y-58823960D01*
X241949281Y-58823960D01*
X241421858Y-59042426D01*
X241018186Y-59446098D01*
X240964720Y-59575176D01*
X240911254Y-59446098D01*
X240507582Y-59042426D01*
X239980159Y-58823960D01*
X239409281Y-58823960D01*
X238881858Y-59042426D01*
X238478186Y-59446098D01*
X238424720Y-59575176D01*
X238371254Y-59446098D01*
X237967582Y-59042426D01*
X237440159Y-58823960D01*
X236869281Y-58823960D01*
X236341858Y-59042426D01*
X235938186Y-59446098D01*
X235884720Y-59575176D01*
X235831254Y-59446098D01*
X235427582Y-59042426D01*
X234900159Y-58823960D01*
X234329281Y-58823960D01*
X233801858Y-59042426D01*
X233398186Y-59446098D01*
X233344720Y-59575176D01*
X233291254Y-59446098D01*
X232887582Y-59042426D01*
X232360159Y-58823960D01*
X231789281Y-58823960D01*
X231261858Y-59042426D01*
X230858186Y-59446098D01*
X230804720Y-59575176D01*
X230751254Y-59446098D01*
X230347582Y-59042426D01*
X229820159Y-58823960D01*
X229249281Y-58823960D01*
X228721858Y-59042426D01*
X228318186Y-59446098D01*
X228264720Y-59575176D01*
X228211254Y-59446098D01*
X227807582Y-59042426D01*
X227280159Y-58823960D01*
X226709281Y-58823960D01*
X226181858Y-59042426D01*
X225778186Y-59446098D01*
X225724720Y-59575176D01*
X225671254Y-59446098D01*
X225267582Y-59042426D01*
X224740159Y-58823960D01*
X224169281Y-58823960D01*
X223641858Y-59042426D01*
X223238186Y-59446098D01*
X223184720Y-59575176D01*
X223131254Y-59446098D01*
X222727582Y-59042426D01*
X222200159Y-58823960D01*
X221629281Y-58823960D01*
X221101858Y-59042426D01*
X220698186Y-59446098D01*
X220644720Y-59575176D01*
X220591254Y-59446098D01*
X220187582Y-59042426D01*
X219660159Y-58823960D01*
X219089281Y-58823960D01*
X218561858Y-59042426D01*
X218158186Y-59446098D01*
X217939720Y-59973521D01*
X212963760Y-59973521D01*
X212963760Y-56902102D01*
X241274600Y-56902102D01*
X241274600Y-57275978D01*
X241417676Y-57621394D01*
X241682046Y-57885764D01*
X242027462Y-58028840D01*
X242401338Y-58028840D01*
X242746754Y-57885764D01*
X243011124Y-57621394D01*
X243154200Y-57275978D01*
X243154200Y-56902102D01*
X243011124Y-56556686D01*
X242746754Y-56292316D01*
X242401338Y-56149240D01*
X242027462Y-56149240D01*
X241682046Y-56292316D01*
X241417676Y-56556686D01*
X241274600Y-56902102D01*
X212963760Y-56902102D01*
X212963760Y-55103782D01*
X219085160Y-55103782D01*
X219085160Y-55477658D01*
X219228236Y-55823074D01*
X219492606Y-56087444D01*
X219838022Y-56230520D01*
X220211898Y-56230520D01*
X220557314Y-56087444D01*
X220821684Y-55823074D01*
X220964760Y-55477658D01*
X220964760Y-55103782D01*
X220821684Y-54758366D01*
X220557314Y-54493996D01*
X220496443Y-54468782D01*
X222910400Y-54468782D01*
X222910400Y-54842658D01*
X223053476Y-55188074D01*
X223317846Y-55452444D01*
X223663262Y-55595520D01*
X224037138Y-55595520D01*
X224382554Y-55452444D01*
X224646924Y-55188074D01*
X224790000Y-54842658D01*
X224790000Y-54468782D01*
X224646924Y-54123366D01*
X224382554Y-53858996D01*
X224037138Y-53715920D01*
X223663262Y-53715920D01*
X223317846Y-53858996D01*
X223053476Y-54123366D01*
X222910400Y-54468782D01*
X220496443Y-54468782D01*
X220211898Y-54350920D01*
X219838022Y-54350920D01*
X219492606Y-54493996D01*
X219228236Y-54758366D01*
X219085160Y-55103782D01*
X212963760Y-55103782D01*
X212963760Y-39457382D01*
X252404880Y-39457382D01*
X252404880Y-39831258D01*
X252547956Y-40176674D01*
X252812326Y-40441044D01*
X253157742Y-40584120D01*
X253531618Y-40584120D01*
X253877034Y-40441044D01*
X253952398Y-40365680D01*
X254591162Y-40365680D01*
X254676686Y-40451204D01*
X255022102Y-40594280D01*
X255395978Y-40594280D01*
X255741394Y-40451204D01*
X256005764Y-40186834D01*
X256148840Y-39841418D01*
X256148840Y-39467542D01*
X256005764Y-39122126D01*
X255741394Y-38857756D01*
X255395978Y-38714680D01*
X255022102Y-38714680D01*
X254676686Y-38857756D01*
X254591162Y-38943280D01*
X253972718Y-38943280D01*
X253877034Y-38847596D01*
X253531618Y-38704520D01*
X253157742Y-38704520D01*
X252812326Y-38847596D01*
X252547956Y-39111966D01*
X252404880Y-39457382D01*
X212963760Y-39457382D01*
X212963760Y-37313622D01*
X259943600Y-37313622D01*
X259943600Y-37687498D01*
X260086676Y-38032914D01*
X260351046Y-38297284D01*
X260696462Y-38440360D01*
X261070338Y-38440360D01*
X261415754Y-38297284D01*
X261680124Y-38032914D01*
X261823200Y-37687498D01*
X261823200Y-37336118D01*
X261839486Y-37352404D01*
X262184902Y-37495480D01*
X262558778Y-37495480D01*
X262904194Y-37352404D01*
X263168564Y-37088034D01*
X263283438Y-36810702D01*
X267446760Y-36810702D01*
X267446760Y-37184578D01*
X267589836Y-37529994D01*
X267854206Y-37794364D01*
X268199622Y-37937440D01*
X268573498Y-37937440D01*
X268918914Y-37794364D01*
X269183284Y-37529994D01*
X269326360Y-37184578D01*
X269326360Y-36810702D01*
X269183284Y-36465286D01*
X268918914Y-36200916D01*
X268573498Y-36057840D01*
X268199622Y-36057840D01*
X267854206Y-36200916D01*
X267589836Y-36465286D01*
X267446760Y-36810702D01*
X263283438Y-36810702D01*
X263311640Y-36742618D01*
X263311640Y-36368742D01*
X263168564Y-36023326D01*
X262904194Y-35758956D01*
X262558778Y-35615880D01*
X262184902Y-35615880D01*
X261839486Y-35758956D01*
X261575116Y-36023326D01*
X261432040Y-36368742D01*
X261432040Y-36720122D01*
X261415754Y-36703836D01*
X261070338Y-36560760D01*
X260696462Y-36560760D01*
X260351046Y-36703836D01*
X260086676Y-36968206D01*
X259943600Y-37313622D01*
X212963760Y-37313622D01*
X212963760Y-31268422D01*
X270873220Y-31268422D01*
X270873220Y-31642298D01*
X271016296Y-31987714D01*
X271280666Y-32252084D01*
X271626082Y-32395160D01*
X271999958Y-32395160D01*
X272345374Y-32252084D01*
X272609744Y-31987714D01*
X272752820Y-31642298D01*
X272752820Y-31268422D01*
X272609744Y-30923006D01*
X272345374Y-30658636D01*
X271999958Y-30515560D01*
X271626082Y-30515560D01*
X271280666Y-30658636D01*
X271016296Y-30923006D01*
X270873220Y-31268422D01*
X212963760Y-31268422D01*
X212963760Y-28880822D01*
X263525000Y-28880822D01*
X263525000Y-29254698D01*
X263668076Y-29600114D01*
X263932446Y-29864484D01*
X264277862Y-30007560D01*
X264651738Y-30007560D01*
X264997154Y-29864484D01*
X265261524Y-29600114D01*
X265404600Y-29254698D01*
X265404600Y-28880822D01*
X265261524Y-28535406D01*
X264997154Y-28271036D01*
X264651738Y-28127960D01*
X264277862Y-28127960D01*
X263932446Y-28271036D01*
X263668076Y-28535406D01*
X263525000Y-28880822D01*
X212963760Y-28880822D01*
X212963760Y-27551324D01*
X248161352Y-27551324D01*
X248161352Y-27925200D01*
X248304428Y-28270616D01*
X248568798Y-28534986D01*
X248914214Y-28678062D01*
X249288090Y-28678062D01*
X249633506Y-28534986D01*
X249897876Y-28270616D01*
X250040952Y-27925200D01*
X250040952Y-27551324D01*
X249897876Y-27205908D01*
X249633506Y-26941538D01*
X249288090Y-26798462D01*
X248914214Y-26798462D01*
X248568798Y-26941538D01*
X248304428Y-27205908D01*
X248161352Y-27551324D01*
X212963760Y-27551324D01*
X212963760Y-23353782D01*
X258676790Y-23353782D01*
X258676790Y-23727658D01*
X258819866Y-24073074D01*
X259084236Y-24337444D01*
X259429652Y-24480520D01*
X259803528Y-24480520D01*
X260060663Y-24374011D01*
X260741160Y-25054509D01*
X260741160Y-25175458D01*
X260884236Y-25520874D01*
X261148606Y-25785244D01*
X261494022Y-25928320D01*
X261867898Y-25928320D01*
X262213314Y-25785244D01*
X262477684Y-25520874D01*
X262620760Y-25175458D01*
X262620760Y-24801582D01*
X262477684Y-24456166D01*
X262273438Y-24251920D01*
X264801159Y-24251920D01*
X264871200Y-24265852D01*
X264941241Y-24251920D01*
X264941246Y-24251920D01*
X265148696Y-24210656D01*
X265383946Y-24053466D01*
X265423624Y-23994084D01*
X266075109Y-23342600D01*
X266196058Y-23342600D01*
X266541474Y-23199524D01*
X266805844Y-22935154D01*
X266948920Y-22589738D01*
X266948920Y-22215862D01*
X266805844Y-21870446D01*
X266541474Y-21606076D01*
X266196058Y-21463000D01*
X265822182Y-21463000D01*
X265476766Y-21606076D01*
X265212396Y-21870446D01*
X265069320Y-22215862D01*
X265069320Y-22336811D01*
X264576612Y-22829520D01*
X263353398Y-22829520D01*
X263431900Y-22640000D01*
X263431900Y-22266124D01*
X263288824Y-21920708D01*
X263211578Y-21843462D01*
X263309144Y-21745896D01*
X263452220Y-21400480D01*
X263452220Y-21026604D01*
X263309144Y-20681188D01*
X263044774Y-20416818D01*
X262699358Y-20273742D01*
X262325482Y-20273742D01*
X261980066Y-20416818D01*
X261715696Y-20681188D01*
X261572620Y-21026604D01*
X261572620Y-21400480D01*
X261715696Y-21745896D01*
X261780900Y-21811100D01*
X261780900Y-21835184D01*
X261695376Y-21920708D01*
X261552300Y-22266124D01*
X261552300Y-22640000D01*
X261630802Y-22829520D01*
X260303201Y-22829520D01*
X260233160Y-22815588D01*
X260222630Y-22817682D01*
X260148944Y-22743996D01*
X259803528Y-22600920D01*
X259429652Y-22600920D01*
X259084236Y-22743996D01*
X258819866Y-23008366D01*
X258676790Y-23353782D01*
X212963760Y-23353782D01*
X212963760Y-19244062D01*
X249544840Y-19244062D01*
X249544840Y-19617938D01*
X249687916Y-19963354D01*
X249952286Y-20227724D01*
X250297702Y-20370800D01*
X250671578Y-20370800D01*
X251016994Y-20227724D01*
X251281364Y-19963354D01*
X251424440Y-19617938D01*
X251424440Y-19244062D01*
X251281364Y-18898646D01*
X251016994Y-18634276D01*
X250671578Y-18491200D01*
X250297702Y-18491200D01*
X249952286Y-18634276D01*
X249687916Y-18898646D01*
X249544840Y-19244062D01*
X212963760Y-19244062D01*
X212963760Y-15788813D01*
X283707813Y-15884988D01*
X283707813Y-15884988D01*
G37*
X283707813Y-15884988D02*
X283682468Y-133688686D01*
X212963760Y-132762373D01*
X212963760Y-101722942D01*
X224998280Y-101722942D01*
X224998280Y-102096818D01*
X225141356Y-102442234D01*
X225405726Y-102706604D01*
X225751142Y-102849680D01*
X226125018Y-102849680D01*
X226470434Y-102706604D01*
X226734804Y-102442234D01*
X226877880Y-102096818D01*
X226877880Y-101722942D01*
X226734804Y-101377526D01*
X226470434Y-101113156D01*
X226125018Y-100970080D01*
X225751142Y-100970080D01*
X225405726Y-101113156D01*
X225141356Y-101377526D01*
X224998280Y-101722942D01*
X212963760Y-101722942D01*
X212963760Y-96454982D01*
X235930440Y-96454982D01*
X235930440Y-96828858D01*
X236073516Y-97174274D01*
X236337886Y-97438644D01*
X236683302Y-97581720D01*
X237057178Y-97581720D01*
X237402594Y-97438644D01*
X237666964Y-97174274D01*
X237810040Y-96828858D01*
X237810040Y-96454982D01*
X237666964Y-96109566D01*
X237402594Y-95845196D01*
X237057178Y-95702120D01*
X236683302Y-95702120D01*
X236337886Y-95845196D01*
X236073516Y-96109566D01*
X235930440Y-96454982D01*
X212963760Y-96454982D01*
X212963760Y-93092022D01*
X220080840Y-93092022D01*
X220080840Y-93465898D01*
X220223916Y-93811314D01*
X220488286Y-94075684D01*
X220833702Y-94218760D01*
X221207578Y-94218760D01*
X221552994Y-94075684D01*
X221817364Y-93811314D01*
X221839653Y-93757502D01*
X235381800Y-93757502D01*
X235381800Y-94131378D01*
X235524876Y-94476794D01*
X235789246Y-94741164D01*
X236134662Y-94884240D01*
X236508538Y-94884240D01*
X236853954Y-94741164D01*
X237118324Y-94476794D01*
X237261400Y-94131378D01*
X237261400Y-93757502D01*
X237118324Y-93412086D01*
X236853954Y-93147716D01*
X236508538Y-93004640D01*
X236134662Y-93004640D01*
X235789246Y-93147716D01*
X235524876Y-93412086D01*
X235381800Y-93757502D01*
X221839653Y-93757502D01*
X221960440Y-93465898D01*
X221960440Y-93092022D01*
X221817364Y-92746606D01*
X221552994Y-92482236D01*
X221207578Y-92339160D01*
X220833702Y-92339160D01*
X220488286Y-92482236D01*
X220223916Y-92746606D01*
X220080840Y-93092022D01*
X212963760Y-93092022D01*
X212963760Y-82906622D01*
X230626920Y-82906622D01*
X230626920Y-83280498D01*
X230769996Y-83625914D01*
X231034366Y-83890284D01*
X231379782Y-84033360D01*
X231753658Y-84033360D01*
X232099074Y-83890284D01*
X232363444Y-83625914D01*
X232506520Y-83280498D01*
X232506520Y-82906622D01*
X232363444Y-82561206D01*
X232099074Y-82296836D01*
X231753658Y-82153760D01*
X231379782Y-82153760D01*
X231034366Y-82296836D01*
X230769996Y-82561206D01*
X230626920Y-82906622D01*
X212963760Y-82906622D01*
X212963760Y-75213521D01*
X217939720Y-75213521D01*
X217939720Y-75784399D01*
X218158186Y-76311822D01*
X218561858Y-76715494D01*
X219089281Y-76933960D01*
X219660159Y-76933960D01*
X220187582Y-76715494D01*
X220591254Y-76311822D01*
X220644720Y-76182744D01*
X220698186Y-76311822D01*
X221101858Y-76715494D01*
X221629281Y-76933960D01*
X222200159Y-76933960D01*
X222727582Y-76715494D01*
X223131254Y-76311822D01*
X223184720Y-76182744D01*
X223238186Y-76311822D01*
X223641858Y-76715494D01*
X224169281Y-76933960D01*
X224740159Y-76933960D01*
X225267582Y-76715494D01*
X225671254Y-76311822D01*
X225724720Y-76182744D01*
X225778186Y-76311822D01*
X226181858Y-76715494D01*
X226709281Y-76933960D01*
X227280159Y-76933960D01*
X227807582Y-76715494D01*
X228211254Y-76311822D01*
X228264720Y-76182744D01*
X228318186Y-76311822D01*
X228721858Y-76715494D01*
X229249281Y-76933960D01*
X229820159Y-76933960D01*
X230347582Y-76715494D01*
X230751254Y-76311822D01*
X230804720Y-76182744D01*
X230858186Y-76311822D01*
X231261858Y-76715494D01*
X231789281Y-76933960D01*
X232360159Y-76933960D01*
X232887582Y-76715494D01*
X233291254Y-76311822D01*
X233344720Y-76182744D01*
X233398186Y-76311822D01*
X233801858Y-76715494D01*
X234329281Y-76933960D01*
X234900159Y-76933960D01*
X235427582Y-76715494D01*
X235831254Y-76311822D01*
X235884720Y-76182744D01*
X235938186Y-76311822D01*
X236341858Y-76715494D01*
X236869281Y-76933960D01*
X237440159Y-76933960D01*
X237967582Y-76715494D01*
X238371254Y-76311822D01*
X238424720Y-76182744D01*
X238478186Y-76311822D01*
X238881858Y-76715494D01*
X239029241Y-76776542D01*
X239029240Y-120192770D01*
X238746015Y-120382015D01*
X238546640Y-120680401D01*
X238347265Y-120382015D01*
X237856058Y-120053801D01*
X237422896Y-119967640D01*
X237130384Y-119967640D01*
X236697222Y-120053801D01*
X236206015Y-120382015D01*
X236006640Y-120680401D01*
X235807265Y-120382015D01*
X235316058Y-120053801D01*
X234882896Y-119967640D01*
X234590384Y-119967640D01*
X234157222Y-120053801D01*
X233666015Y-120382015D01*
X233466640Y-120680401D01*
X233267265Y-120382015D01*
X232776058Y-120053801D01*
X232342896Y-119967640D01*
X232050384Y-119967640D01*
X231617222Y-120053801D01*
X231126015Y-120382015D01*
X230926640Y-120680401D01*
X230727265Y-120382015D01*
X230236058Y-120053801D01*
X229802896Y-119967640D01*
X229510384Y-119967640D01*
X229077222Y-120053801D01*
X228586015Y-120382015D01*
X228386640Y-120680401D01*
X228187265Y-120382015D01*
X227696058Y-120053801D01*
X227262896Y-119967640D01*
X226970384Y-119967640D01*
X226537222Y-120053801D01*
X226046015Y-120382015D01*
X225717801Y-120873222D01*
X225602548Y-121452640D01*
X225717801Y-122032058D01*
X226046015Y-122523265D01*
X226537222Y-122851479D01*
X226970384Y-122937640D01*
X227262896Y-122937640D01*
X227696058Y-122851479D01*
X228187265Y-122523265D01*
X228386640Y-122224879D01*
X228586015Y-122523265D01*
X229077222Y-122851479D01*
X229510384Y-122937640D01*
X229802896Y-122937640D01*
X230236058Y-122851479D01*
X230727265Y-122523265D01*
X230926640Y-122224879D01*
X231126015Y-122523265D01*
X231617222Y-122851479D01*
X232050384Y-122937640D01*
X232342896Y-122937640D01*
X232776058Y-122851479D01*
X233267265Y-122523265D01*
X233466640Y-122224879D01*
X233666015Y-122523265D01*
X234157222Y-122851479D01*
X234590384Y-122937640D01*
X234882896Y-122937640D01*
X235316058Y-122851479D01*
X235807265Y-122523265D01*
X236006640Y-122224879D01*
X236206015Y-122523265D01*
X236697222Y-122851479D01*
X237130384Y-122937640D01*
X237422896Y-122937640D01*
X237856058Y-122851479D01*
X238347265Y-122523265D01*
X238546640Y-122224879D01*
X238746015Y-122523265D01*
X239237222Y-122851479D01*
X239670384Y-122937640D01*
X239962896Y-122937640D01*
X240396058Y-122851479D01*
X240887265Y-122523265D01*
X240901736Y-122501607D01*
X240968313Y-122662338D01*
X241146941Y-122840967D01*
X241380330Y-122937640D01*
X242070890Y-122937640D01*
X242229640Y-122778890D01*
X242229640Y-121579640D01*
X242483640Y-121579640D01*
X242483640Y-122778890D01*
X242642390Y-122937640D01*
X243332950Y-122937640D01*
X243566339Y-122840967D01*
X243744967Y-122662338D01*
X243841640Y-122428949D01*
X243841640Y-121738390D01*
X243682890Y-121579640D01*
X242483640Y-121579640D01*
X242229640Y-121579640D01*
X242209640Y-121579640D01*
X242209640Y-121325640D01*
X242229640Y-121325640D01*
X242229640Y-120126390D01*
X242483640Y-120126390D01*
X242483640Y-121325640D01*
X243682890Y-121325640D01*
X243841640Y-121166890D01*
X243841640Y-120476331D01*
X243744967Y-120242942D01*
X243566339Y-120064313D01*
X243332950Y-119967640D01*
X242642390Y-119967640D01*
X242483640Y-120126390D01*
X242229640Y-120126390D01*
X242070890Y-119967640D01*
X241380330Y-119967640D01*
X241146941Y-120064313D01*
X240968313Y-120242942D01*
X240901736Y-120403673D01*
X240887265Y-120382015D01*
X240604040Y-120192770D01*
X240604040Y-107036622D01*
X244002560Y-107036622D01*
X244002560Y-107410498D01*
X244145636Y-107755914D01*
X244410006Y-108020284D01*
X244755422Y-108163360D01*
X245129298Y-108163360D01*
X245474714Y-108020284D01*
X245739084Y-107755914D01*
X245882160Y-107410498D01*
X245882160Y-107036622D01*
X245739084Y-106691206D01*
X245474714Y-106426836D01*
X245129298Y-106283760D01*
X244755422Y-106283760D01*
X244410006Y-106426836D01*
X244145636Y-106691206D01*
X244002560Y-107036622D01*
X240604040Y-107036622D01*
X240604040Y-105797102D01*
X276489160Y-105797102D01*
X276489160Y-106170978D01*
X276632236Y-106516394D01*
X276896606Y-106780764D01*
X277242022Y-106923840D01*
X277615898Y-106923840D01*
X277961314Y-106780764D01*
X278225684Y-106516394D01*
X278368760Y-106170978D01*
X278368760Y-105797102D01*
X278225684Y-105451686D01*
X277961314Y-105187316D01*
X277615898Y-105044240D01*
X277242022Y-105044240D01*
X276896606Y-105187316D01*
X276632236Y-105451686D01*
X276489160Y-105797102D01*
X240604040Y-105797102D01*
X240604040Y-100645982D01*
X268589760Y-100645982D01*
X268589760Y-101019858D01*
X268732836Y-101365274D01*
X268997206Y-101629644D01*
X269342622Y-101772720D01*
X269716498Y-101772720D01*
X270061914Y-101629644D01*
X270326284Y-101365274D01*
X270469360Y-101019858D01*
X270469360Y-100645982D01*
X270326284Y-100300566D01*
X270061914Y-100036196D01*
X269716498Y-99893120D01*
X269342622Y-99893120D01*
X268997206Y-100036196D01*
X268732836Y-100300566D01*
X268589760Y-100645982D01*
X240604040Y-100645982D01*
X240604040Y-98121222D01*
X254543560Y-98121222D01*
X254543560Y-98495098D01*
X254686636Y-98840514D01*
X254951006Y-99104884D01*
X255296422Y-99247960D01*
X255670298Y-99247960D01*
X256015714Y-99104884D01*
X256280084Y-98840514D01*
X256423160Y-98495098D01*
X256423160Y-98476822D01*
X270474440Y-98476822D01*
X270474440Y-98850698D01*
X270617516Y-99196114D01*
X270881886Y-99460484D01*
X271227302Y-99603560D01*
X271601178Y-99603560D01*
X271946594Y-99460484D01*
X272210964Y-99196114D01*
X272354040Y-98850698D01*
X272354040Y-98476822D01*
X272210964Y-98131406D01*
X271946594Y-97867036D01*
X271601178Y-97723960D01*
X271227302Y-97723960D01*
X270881886Y-97867036D01*
X270617516Y-98131406D01*
X270474440Y-98476822D01*
X256423160Y-98476822D01*
X256423160Y-98121222D01*
X256280084Y-97775806D01*
X256015714Y-97511436D01*
X255670298Y-97368360D01*
X255296422Y-97368360D01*
X254951006Y-97511436D01*
X254686636Y-97775806D01*
X254543560Y-98121222D01*
X240604040Y-98121222D01*
X240604040Y-96211142D01*
X244185440Y-96211142D01*
X244185440Y-96585018D01*
X244328516Y-96930434D01*
X244592886Y-97194804D01*
X244938302Y-97337880D01*
X245312178Y-97337880D01*
X245657594Y-97194804D01*
X245921964Y-96930434D01*
X246065040Y-96585018D01*
X246065040Y-96211142D01*
X245921964Y-95865726D01*
X245657594Y-95601356D01*
X245312178Y-95458280D01*
X244938302Y-95458280D01*
X244592886Y-95601356D01*
X244328516Y-95865726D01*
X244185440Y-96211142D01*
X240604040Y-96211142D01*
X240604040Y-91212422D01*
X257281680Y-91212422D01*
X257281680Y-91586298D01*
X257424756Y-91931714D01*
X257689126Y-92196084D01*
X258034542Y-92339160D01*
X258408418Y-92339160D01*
X258753834Y-92196084D01*
X259018204Y-91931714D01*
X259161280Y-91586298D01*
X259161280Y-91212422D01*
X259018204Y-90867006D01*
X258753834Y-90602636D01*
X258408418Y-90459560D01*
X258034542Y-90459560D01*
X257689126Y-90602636D01*
X257424756Y-90867006D01*
X257281680Y-91212422D01*
X240604040Y-91212422D01*
X240604040Y-90003382D01*
X279095200Y-90003382D01*
X279095200Y-90377258D01*
X279238276Y-90722674D01*
X279502646Y-90987044D01*
X279848062Y-91130120D01*
X280221938Y-91130120D01*
X280567354Y-90987044D01*
X280831724Y-90722674D01*
X280974800Y-90377258D01*
X280974800Y-90003382D01*
X280831724Y-89657966D01*
X280567354Y-89393596D01*
X280221938Y-89250520D01*
X279848062Y-89250520D01*
X279502646Y-89393596D01*
X279238276Y-89657966D01*
X279095200Y-90003382D01*
X240604040Y-90003382D01*
X240604040Y-78913742D01*
X271769840Y-78913742D01*
X271769840Y-79287618D01*
X271912916Y-79633034D01*
X272177286Y-79897404D01*
X272522702Y-80040480D01*
X272896578Y-80040480D01*
X273241994Y-79897404D01*
X273506364Y-79633034D01*
X273649440Y-79287618D01*
X273649440Y-78913742D01*
X273590523Y-78771502D01*
X276870160Y-78771502D01*
X276870160Y-79145378D01*
X277013236Y-79490794D01*
X277277606Y-79755164D01*
X277623022Y-79898240D01*
X277996898Y-79898240D01*
X278342314Y-79755164D01*
X278606684Y-79490794D01*
X278749760Y-79145378D01*
X278749760Y-78771502D01*
X278606684Y-78426086D01*
X278342314Y-78161716D01*
X277996898Y-78018640D01*
X277623022Y-78018640D01*
X277277606Y-78161716D01*
X277013236Y-78426086D01*
X276870160Y-78771502D01*
X273590523Y-78771502D01*
X273506364Y-78568326D01*
X273241994Y-78303956D01*
X272896578Y-78160880D01*
X272522702Y-78160880D01*
X272177286Y-78303956D01*
X271912916Y-78568326D01*
X271769840Y-78913742D01*
X240604040Y-78913742D01*
X240604040Y-76619036D01*
X240716371Y-76506705D01*
X241406581Y-76506705D01*
X241480715Y-76752824D01*
X242017943Y-76945925D01*
X242588174Y-76918738D01*
X242988725Y-76752824D01*
X243062859Y-76506705D01*
X242234720Y-75678565D01*
X241406581Y-76506705D01*
X240716371Y-76506705D01*
X240911254Y-76311822D01*
X240958245Y-76198377D01*
X240980856Y-76252965D01*
X241226975Y-76327099D01*
X242055115Y-75498960D01*
X242414325Y-75498960D01*
X243242465Y-76327099D01*
X243488584Y-76252965D01*
X243509594Y-76194512D01*
X243558186Y-76311822D01*
X243961858Y-76715494D01*
X244489281Y-76933960D01*
X245060159Y-76933960D01*
X245587582Y-76715494D01*
X245991254Y-76311822D01*
X246044720Y-76182744D01*
X246098186Y-76311822D01*
X246501858Y-76715494D01*
X247029281Y-76933960D01*
X247600159Y-76933960D01*
X248127582Y-76715494D01*
X248531254Y-76311822D01*
X248584720Y-76182744D01*
X248638186Y-76311822D01*
X249041858Y-76715494D01*
X249569281Y-76933960D01*
X250140159Y-76933960D01*
X250667582Y-76715494D01*
X251071254Y-76311822D01*
X251124720Y-76182744D01*
X251178186Y-76311822D01*
X251581858Y-76715494D01*
X252109281Y-76933960D01*
X252680159Y-76933960D01*
X253207582Y-76715494D01*
X253611254Y-76311822D01*
X253664720Y-76182744D01*
X253718186Y-76311822D01*
X254121858Y-76715494D01*
X254649281Y-76933960D01*
X255220159Y-76933960D01*
X255747582Y-76715494D01*
X256151254Y-76311822D01*
X256204720Y-76182744D01*
X256258186Y-76311822D01*
X256661858Y-76715494D01*
X257189281Y-76933960D01*
X257760159Y-76933960D01*
X258287582Y-76715494D01*
X258691254Y-76311822D01*
X258744720Y-76182744D01*
X258798186Y-76311822D01*
X259201858Y-76715494D01*
X259729281Y-76933960D01*
X260300159Y-76933960D01*
X260827582Y-76715494D01*
X261231254Y-76311822D01*
X261284720Y-76182744D01*
X261338186Y-76311822D01*
X261741858Y-76715494D01*
X262269281Y-76933960D01*
X262840159Y-76933960D01*
X263367582Y-76715494D01*
X263771254Y-76311822D01*
X263824720Y-76182744D01*
X263878186Y-76311822D01*
X264281858Y-76715494D01*
X264809281Y-76933960D01*
X265380159Y-76933960D01*
X265907582Y-76715494D01*
X266311254Y-76311822D01*
X266364720Y-76182744D01*
X266418186Y-76311822D01*
X266821858Y-76715494D01*
X267349281Y-76933960D01*
X267920159Y-76933960D01*
X268447582Y-76715494D01*
X268851254Y-76311822D01*
X268904720Y-76182744D01*
X268958186Y-76311822D01*
X269361858Y-76715494D01*
X269889281Y-76933960D01*
X270460159Y-76933960D01*
X270987582Y-76715494D01*
X271391254Y-76311822D01*
X271444720Y-76182744D01*
X271498186Y-76311822D01*
X271901858Y-76715494D01*
X272429281Y-76933960D01*
X273000159Y-76933960D01*
X273527582Y-76715494D01*
X273736371Y-76506705D01*
X274426581Y-76506705D01*
X274500715Y-76752824D01*
X275037943Y-76945925D01*
X275608174Y-76918738D01*
X276008725Y-76752824D01*
X276082859Y-76506705D01*
X275254720Y-75678565D01*
X274426581Y-76506705D01*
X273736371Y-76506705D01*
X273931254Y-76311822D01*
X273978245Y-76198377D01*
X274000856Y-76252965D01*
X274246975Y-76327099D01*
X275075115Y-75498960D01*
X275434325Y-75498960D01*
X276262465Y-76327099D01*
X276508584Y-76252965D01*
X276529594Y-76194512D01*
X276578186Y-76311822D01*
X276981858Y-76715494D01*
X277509281Y-76933960D01*
X278080159Y-76933960D01*
X278607582Y-76715494D01*
X279011254Y-76311822D01*
X279229720Y-75784399D01*
X279229720Y-75213521D01*
X279011254Y-74686098D01*
X278607582Y-74282426D01*
X278080159Y-74063960D01*
X277509281Y-74063960D01*
X276981858Y-74282426D01*
X276578186Y-74686098D01*
X276531195Y-74799543D01*
X276508584Y-74744955D01*
X276262465Y-74670821D01*
X275434325Y-75498960D01*
X275075115Y-75498960D01*
X274246975Y-74670821D01*
X274000856Y-74744955D01*
X273979846Y-74803408D01*
X273931254Y-74686098D01*
X273527582Y-74282426D01*
X273000159Y-74063960D01*
X272429281Y-74063960D01*
X271901858Y-74282426D01*
X271498186Y-74686098D01*
X271444720Y-74815176D01*
X271391254Y-74686098D01*
X270987582Y-74282426D01*
X270874137Y-74235435D01*
X270928725Y-74212824D01*
X271002859Y-73966705D01*
X270174720Y-73138565D01*
X269346581Y-73966705D01*
X269420715Y-74212824D01*
X269479168Y-74233834D01*
X269361858Y-74282426D01*
X268958186Y-74686098D01*
X268904720Y-74815176D01*
X268851254Y-74686098D01*
X268447582Y-74282426D01*
X268318504Y-74228960D01*
X268447582Y-74175494D01*
X268851254Y-73771822D01*
X268898245Y-73658377D01*
X268920856Y-73712965D01*
X269166975Y-73787099D01*
X269995115Y-72958960D01*
X270354325Y-72958960D01*
X271182465Y-73787099D01*
X271428584Y-73712965D01*
X271621685Y-73175737D01*
X271597741Y-72673521D01*
X273819720Y-72673521D01*
X273819720Y-73244399D01*
X274038186Y-73771822D01*
X274441858Y-74175494D01*
X274555303Y-74222485D01*
X274500715Y-74245096D01*
X274426581Y-74491215D01*
X275254720Y-75319355D01*
X276082859Y-74491215D01*
X276008725Y-74245096D01*
X275950272Y-74224086D01*
X276067582Y-74175494D01*
X276471254Y-73771822D01*
X276689720Y-73244399D01*
X276689720Y-72673521D01*
X276471254Y-72146098D01*
X276067582Y-71742426D01*
X275540159Y-71523960D01*
X274969281Y-71523960D01*
X274441858Y-71742426D01*
X274038186Y-72146098D01*
X273819720Y-72673521D01*
X271597741Y-72673521D01*
X271594498Y-72605506D01*
X271428584Y-72204955D01*
X271182465Y-72130821D01*
X270354325Y-72958960D01*
X269995115Y-72958960D01*
X269166975Y-72130821D01*
X268920856Y-72204955D01*
X268899846Y-72263408D01*
X268851254Y-72146098D01*
X268656371Y-71951215D01*
X269346581Y-71951215D01*
X270174720Y-72779355D01*
X271002859Y-71951215D01*
X270928725Y-71705096D01*
X270391497Y-71511995D01*
X269821266Y-71539182D01*
X269420715Y-71705096D01*
X269346581Y-71951215D01*
X268656371Y-71951215D01*
X268447582Y-71742426D01*
X267920159Y-71523960D01*
X267349281Y-71523960D01*
X266821858Y-71742426D01*
X266418186Y-72146098D01*
X266364720Y-72275176D01*
X266311254Y-72146098D01*
X265907582Y-71742426D01*
X265380159Y-71523960D01*
X264809281Y-71523960D01*
X264281858Y-71742426D01*
X263878186Y-72146098D01*
X263659720Y-72673521D01*
X263659720Y-73244399D01*
X263878186Y-73771822D01*
X264281858Y-74175494D01*
X264410936Y-74228960D01*
X264281858Y-74282426D01*
X263878186Y-74686098D01*
X263824720Y-74815176D01*
X263771254Y-74686098D01*
X263367582Y-74282426D01*
X262840159Y-74063960D01*
X262269281Y-74063960D01*
X261741858Y-74282426D01*
X261338186Y-74686098D01*
X261284720Y-74815176D01*
X261231254Y-74686098D01*
X260827582Y-74282426D01*
X260300159Y-74063960D01*
X259729281Y-74063960D01*
X259201858Y-74282426D01*
X258798186Y-74686098D01*
X258744720Y-74815176D01*
X258691254Y-74686098D01*
X258287582Y-74282426D01*
X257760159Y-74063960D01*
X257189281Y-74063960D01*
X256661858Y-74282426D01*
X256258186Y-74686098D01*
X256204720Y-74815176D01*
X256151254Y-74686098D01*
X255747582Y-74282426D01*
X255220159Y-74063960D01*
X254649281Y-74063960D01*
X254121858Y-74282426D01*
X253718186Y-74686098D01*
X253664720Y-74815176D01*
X253611254Y-74686098D01*
X253207582Y-74282426D01*
X252680159Y-74063960D01*
X252109281Y-74063960D01*
X251581858Y-74282426D01*
X251178186Y-74686098D01*
X251124720Y-74815176D01*
X251071254Y-74686098D01*
X250667582Y-74282426D01*
X250140159Y-74063960D01*
X249569281Y-74063960D01*
X249041858Y-74282426D01*
X248638186Y-74686098D01*
X248584720Y-74815176D01*
X248531254Y-74686098D01*
X248127582Y-74282426D01*
X247600159Y-74063960D01*
X247029281Y-74063960D01*
X246501858Y-74282426D01*
X246098186Y-74686098D01*
X246044720Y-74815176D01*
X245991254Y-74686098D01*
X245587582Y-74282426D01*
X245060159Y-74063960D01*
X244489281Y-74063960D01*
X243961858Y-74282426D01*
X243558186Y-74686098D01*
X243511195Y-74799543D01*
X243488584Y-74744955D01*
X243242465Y-74670821D01*
X242414325Y-75498960D01*
X242055115Y-75498960D01*
X241226975Y-74670821D01*
X240980856Y-74744955D01*
X240959846Y-74803408D01*
X240911254Y-74686098D01*
X240716371Y-74491215D01*
X241406581Y-74491215D01*
X242234720Y-75319355D01*
X243062859Y-74491215D01*
X242988725Y-74245096D01*
X242451497Y-74051995D01*
X241881266Y-74079182D01*
X241480715Y-74245096D01*
X241406581Y-74491215D01*
X240716371Y-74491215D01*
X240507582Y-74282426D01*
X239980159Y-74063960D01*
X239409281Y-74063960D01*
X238881858Y-74282426D01*
X238478186Y-74686098D01*
X238424720Y-74815176D01*
X238371254Y-74686098D01*
X237967582Y-74282426D01*
X237440159Y-74063960D01*
X236869281Y-74063960D01*
X236341858Y-74282426D01*
X235938186Y-74686098D01*
X235884720Y-74815176D01*
X235831254Y-74686098D01*
X235427582Y-74282426D01*
X234900159Y-74063960D01*
X234329281Y-74063960D01*
X233801858Y-74282426D01*
X233398186Y-74686098D01*
X233344720Y-74815176D01*
X233291254Y-74686098D01*
X232887582Y-74282426D01*
X232758504Y-74228960D01*
X232887582Y-74175494D01*
X233291254Y-73771822D01*
X233509720Y-73244399D01*
X233509720Y-72673521D01*
X233291254Y-72146098D01*
X232887582Y-71742426D01*
X232758504Y-71688960D01*
X232887582Y-71635494D01*
X233291254Y-71231822D01*
X233509720Y-70704399D01*
X233509720Y-70133521D01*
X233291254Y-69606098D01*
X232887582Y-69202426D01*
X232774137Y-69155435D01*
X232828725Y-69132824D01*
X232902859Y-68886705D01*
X232074720Y-68058565D01*
X231246581Y-68886705D01*
X231320715Y-69132824D01*
X231379168Y-69153834D01*
X231261858Y-69202426D01*
X230858186Y-69606098D01*
X230639720Y-70133521D01*
X230639720Y-70704399D01*
X230858186Y-71231822D01*
X231261858Y-71635494D01*
X231390936Y-71688960D01*
X231261858Y-71742426D01*
X230858186Y-72146098D01*
X230639720Y-72673521D01*
X230639720Y-73244399D01*
X230858186Y-73771822D01*
X231261858Y-74175494D01*
X231390936Y-74228960D01*
X231261858Y-74282426D01*
X230858186Y-74686098D01*
X230804720Y-74815176D01*
X230751254Y-74686098D01*
X230347582Y-74282426D01*
X229820159Y-74063960D01*
X229249281Y-74063960D01*
X228721858Y-74282426D01*
X228318186Y-74686098D01*
X228264720Y-74815176D01*
X228211254Y-74686098D01*
X227807582Y-74282426D01*
X227280159Y-74063960D01*
X226709281Y-74063960D01*
X226181858Y-74282426D01*
X225778186Y-74686098D01*
X225724720Y-74815176D01*
X225671254Y-74686098D01*
X225267582Y-74282426D01*
X224740159Y-74063960D01*
X224169281Y-74063960D01*
X223641858Y-74282426D01*
X223238186Y-74686098D01*
X223184720Y-74815176D01*
X223131254Y-74686098D01*
X222727582Y-74282426D01*
X222200159Y-74063960D01*
X221629281Y-74063960D01*
X221101858Y-74282426D01*
X220698186Y-74686098D01*
X220644720Y-74815176D01*
X220591254Y-74686098D01*
X220187582Y-74282426D01*
X219660159Y-74063960D01*
X219089281Y-74063960D01*
X218561858Y-74282426D01*
X218158186Y-74686098D01*
X217939720Y-75213521D01*
X212963760Y-75213521D01*
X212963760Y-67662183D01*
X230627755Y-67662183D01*
X230654942Y-68232414D01*
X230820856Y-68632965D01*
X231066975Y-68707099D01*
X231895115Y-67878960D01*
X232254325Y-67878960D01*
X233082465Y-68707099D01*
X233328584Y-68632965D01*
X233521685Y-68095737D01*
X233494498Y-67525506D01*
X233328584Y-67124955D01*
X233082465Y-67050821D01*
X232254325Y-67878960D01*
X231895115Y-67878960D01*
X231066975Y-67050821D01*
X230820856Y-67124955D01*
X230627755Y-67662183D01*
X212963760Y-67662183D01*
X212963760Y-59973521D01*
X217939720Y-59973521D01*
X217939720Y-60544399D01*
X218158186Y-61071822D01*
X218561858Y-61475494D01*
X219089281Y-61693960D01*
X219660159Y-61693960D01*
X220187582Y-61475494D01*
X220591254Y-61071822D01*
X220644720Y-60942744D01*
X220698186Y-61071822D01*
X221101858Y-61475494D01*
X221629281Y-61693960D01*
X222200159Y-61693960D01*
X222727582Y-61475494D01*
X223131254Y-61071822D01*
X223184720Y-60942744D01*
X223238186Y-61071822D01*
X223641858Y-61475494D01*
X224169281Y-61693960D01*
X224740159Y-61693960D01*
X225267582Y-61475494D01*
X225671254Y-61071822D01*
X225724720Y-60942744D01*
X225778186Y-61071822D01*
X226181858Y-61475494D01*
X226709281Y-61693960D01*
X227280159Y-61693960D01*
X227807582Y-61475494D01*
X228211254Y-61071822D01*
X228264720Y-60942744D01*
X228318186Y-61071822D01*
X228721858Y-61475494D01*
X229249281Y-61693960D01*
X229820159Y-61693960D01*
X230347582Y-61475494D01*
X230751254Y-61071822D01*
X230804720Y-60942744D01*
X230858186Y-61071822D01*
X231261858Y-61475494D01*
X231390936Y-61528960D01*
X231261858Y-61582426D01*
X230858186Y-61986098D01*
X230639720Y-62513521D01*
X230639720Y-63084399D01*
X230858186Y-63611822D01*
X231261858Y-64015494D01*
X231390936Y-64068960D01*
X231261858Y-64122426D01*
X230858186Y-64526098D01*
X230639720Y-65053521D01*
X230639720Y-65624399D01*
X230858186Y-66151822D01*
X231261858Y-66555494D01*
X231375303Y-66602485D01*
X231320715Y-66625096D01*
X231246581Y-66871215D01*
X232074720Y-67699355D01*
X232902859Y-66871215D01*
X232828725Y-66625096D01*
X232770272Y-66604086D01*
X232887582Y-66555494D01*
X233291254Y-66151822D01*
X233509720Y-65624399D01*
X233509720Y-65053521D01*
X233291254Y-64526098D01*
X232887582Y-64122426D01*
X232758504Y-64068960D01*
X232887582Y-64015494D01*
X233291254Y-63611822D01*
X233509720Y-63084399D01*
X233509720Y-62513521D01*
X233291254Y-61986098D01*
X232887582Y-61582426D01*
X232758504Y-61528960D01*
X232887582Y-61475494D01*
X233291254Y-61071822D01*
X233344720Y-60942744D01*
X233398186Y-61071822D01*
X233801858Y-61475494D01*
X234329281Y-61693960D01*
X234900159Y-61693960D01*
X235427582Y-61475494D01*
X235831254Y-61071822D01*
X235884720Y-60942744D01*
X235938186Y-61071822D01*
X236341858Y-61475494D01*
X236869281Y-61693960D01*
X237440159Y-61693960D01*
X237967582Y-61475494D01*
X238371254Y-61071822D01*
X238424720Y-60942744D01*
X238478186Y-61071822D01*
X238881858Y-61475494D01*
X239409281Y-61693960D01*
X239980159Y-61693960D01*
X240507582Y-61475494D01*
X240911254Y-61071822D01*
X240964720Y-60942744D01*
X241018186Y-61071822D01*
X241421858Y-61475494D01*
X241949281Y-61693960D01*
X242520159Y-61693960D01*
X243047582Y-61475494D01*
X243451254Y-61071822D01*
X243504720Y-60942744D01*
X243558186Y-61071822D01*
X243961858Y-61475494D01*
X244489281Y-61693960D01*
X245060159Y-61693960D01*
X245587582Y-61475494D01*
X245991254Y-61071822D01*
X246044720Y-60942744D01*
X246098186Y-61071822D01*
X246501858Y-61475494D01*
X247029281Y-61693960D01*
X247600159Y-61693960D01*
X248127582Y-61475494D01*
X248531254Y-61071822D01*
X248584720Y-60942744D01*
X248638186Y-61071822D01*
X249041858Y-61475494D01*
X249569281Y-61693960D01*
X250140159Y-61693960D01*
X250667582Y-61475494D01*
X251071254Y-61071822D01*
X251124720Y-60942744D01*
X251178186Y-61071822D01*
X251581858Y-61475494D01*
X252109281Y-61693960D01*
X252680159Y-61693960D01*
X253207582Y-61475494D01*
X253611254Y-61071822D01*
X253664720Y-60942744D01*
X253718186Y-61071822D01*
X254121858Y-61475494D01*
X254649281Y-61693960D01*
X255220159Y-61693960D01*
X255747582Y-61475494D01*
X256151254Y-61071822D01*
X256204720Y-60942744D01*
X256258186Y-61071822D01*
X256661858Y-61475494D01*
X257189281Y-61693960D01*
X257760159Y-61693960D01*
X258287582Y-61475494D01*
X258691254Y-61071822D01*
X258744720Y-60942744D01*
X258798186Y-61071822D01*
X259201858Y-61475494D01*
X259729281Y-61693960D01*
X260300159Y-61693960D01*
X260827582Y-61475494D01*
X261231254Y-61071822D01*
X261284720Y-60942744D01*
X261338186Y-61071822D01*
X261741858Y-61475494D01*
X262269281Y-61693960D01*
X262840159Y-61693960D01*
X263367582Y-61475494D01*
X263771254Y-61071822D01*
X263824720Y-60942744D01*
X263878186Y-61071822D01*
X264281858Y-61475494D01*
X264809281Y-61693960D01*
X265380159Y-61693960D01*
X265907582Y-61475494D01*
X266311254Y-61071822D01*
X266364720Y-60942744D01*
X266418186Y-61071822D01*
X266821858Y-61475494D01*
X267349281Y-61693960D01*
X267920159Y-61693960D01*
X268447582Y-61475494D01*
X268851254Y-61071822D01*
X268904720Y-60942744D01*
X268958186Y-61071822D01*
X269361858Y-61475494D01*
X269889281Y-61693960D01*
X270460159Y-61693960D01*
X270733521Y-61580730D01*
X270733521Y-62000316D01*
X270631858Y-62042426D01*
X270228186Y-62446098D01*
X270174720Y-62575176D01*
X270121254Y-62446098D01*
X269717582Y-62042426D01*
X269190159Y-61823960D01*
X268619281Y-61823960D01*
X268091858Y-62042426D01*
X267688186Y-62446098D01*
X267634720Y-62575176D01*
X267581254Y-62446098D01*
X267177582Y-62042426D01*
X266650159Y-61823960D01*
X266079281Y-61823960D01*
X265551858Y-62042426D01*
X265148186Y-62446098D01*
X265106076Y-62547760D01*
X265083364Y-62547760D01*
X265041254Y-62446098D01*
X264637582Y-62042426D01*
X264110159Y-61823960D01*
X263539281Y-61823960D01*
X263011858Y-62042426D01*
X262608186Y-62446098D01*
X262566076Y-62547760D01*
X262543364Y-62547760D01*
X262501254Y-62446098D01*
X262097582Y-62042426D01*
X261570159Y-61823960D01*
X260999281Y-61823960D01*
X260471858Y-62042426D01*
X260068186Y-62446098D01*
X259849720Y-62973521D01*
X259849720Y-63544399D01*
X260068186Y-64071822D01*
X260471858Y-64475494D01*
X260999281Y-64693960D01*
X261570159Y-64693960D01*
X262097582Y-64475494D01*
X262501254Y-64071822D01*
X262543364Y-63970160D01*
X262566076Y-63970160D01*
X262608186Y-64071822D01*
X263011858Y-64475494D01*
X263539281Y-64693960D01*
X264110159Y-64693960D01*
X264637582Y-64475494D01*
X265041254Y-64071822D01*
X265083364Y-63970160D01*
X265106076Y-63970160D01*
X265148186Y-64071822D01*
X265551858Y-64475494D01*
X266079281Y-64693960D01*
X266650159Y-64693960D01*
X267177582Y-64475494D01*
X267581254Y-64071822D01*
X267634720Y-63942744D01*
X267688186Y-64071822D01*
X268091858Y-64475494D01*
X268619281Y-64693960D01*
X269190159Y-64693960D01*
X269717582Y-64475494D01*
X270121254Y-64071822D01*
X270174720Y-63942744D01*
X270228186Y-64071822D01*
X270631858Y-64475494D01*
X271159281Y-64693960D01*
X271730159Y-64693960D01*
X272257582Y-64475494D01*
X272661254Y-64071822D01*
X272879720Y-63544399D01*
X272879720Y-62973521D01*
X272661254Y-62446098D01*
X272257582Y-62042426D01*
X272155920Y-62000316D01*
X272155920Y-61580730D01*
X272429281Y-61693960D01*
X273000159Y-61693960D01*
X273527582Y-61475494D01*
X273931254Y-61071822D01*
X273984720Y-60942744D01*
X274038186Y-61071822D01*
X274441858Y-61475494D01*
X274969281Y-61693960D01*
X275540159Y-61693960D01*
X276067582Y-61475494D01*
X276359720Y-61183356D01*
X276359720Y-61185270D01*
X276456393Y-61418659D01*
X276635022Y-61597287D01*
X276868411Y-61693960D01*
X277508970Y-61693960D01*
X277667720Y-61535210D01*
X277667720Y-60385960D01*
X277921720Y-60385960D01*
X277921720Y-61535210D01*
X278080470Y-61693960D01*
X278721029Y-61693960D01*
X278954418Y-61597287D01*
X279133047Y-61418659D01*
X279229720Y-61185270D01*
X279229720Y-60544710D01*
X279070970Y-60385960D01*
X277921720Y-60385960D01*
X277667720Y-60385960D01*
X277647720Y-60385960D01*
X277647720Y-60131960D01*
X277667720Y-60131960D01*
X277667720Y-58982710D01*
X277921720Y-58982710D01*
X277921720Y-60131960D01*
X279070970Y-60131960D01*
X279229720Y-59973210D01*
X279229720Y-59332650D01*
X279133047Y-59099261D01*
X278954418Y-58920633D01*
X278721029Y-58823960D01*
X278080470Y-58823960D01*
X277921720Y-58982710D01*
X277667720Y-58982710D01*
X277508970Y-58823960D01*
X276868411Y-58823960D01*
X276635022Y-58920633D01*
X276456393Y-59099261D01*
X276359720Y-59332650D01*
X276359720Y-59334564D01*
X276067582Y-59042426D01*
X275540159Y-58823960D01*
X274969281Y-58823960D01*
X274441858Y-59042426D01*
X274038186Y-59446098D01*
X273984720Y-59575176D01*
X273931254Y-59446098D01*
X273527582Y-59042426D01*
X273000159Y-58823960D01*
X272429281Y-58823960D01*
X272155920Y-58937190D01*
X272155920Y-44407110D01*
X272255808Y-44307222D01*
X272376758Y-44307222D01*
X272722174Y-44164146D01*
X272986544Y-43899776D01*
X273129620Y-43554360D01*
X273129620Y-43180484D01*
X272986544Y-42835068D01*
X272722174Y-42570698D01*
X272376758Y-42427622D01*
X272002882Y-42427622D01*
X271657466Y-42570698D01*
X271393096Y-42835068D01*
X271263488Y-43147970D01*
X271108394Y-42992876D01*
X270762978Y-42849800D01*
X270389102Y-42849800D01*
X270043686Y-42992876D01*
X269779316Y-43257246D01*
X269636240Y-43602662D01*
X269636240Y-43976538D01*
X269779316Y-44321954D01*
X270043686Y-44586324D01*
X270389102Y-44729400D01*
X270733520Y-44729400D01*
X270733520Y-45483381D01*
X270397218Y-45344080D01*
X270023342Y-45344080D01*
X269677926Y-45487156D01*
X269413556Y-45751526D01*
X269270480Y-46096942D01*
X269270480Y-46470818D01*
X269413556Y-46816234D01*
X269677926Y-47080604D01*
X270023342Y-47223680D01*
X270397218Y-47223680D01*
X270733520Y-47084379D01*
X270733521Y-58937190D01*
X270460159Y-58823960D01*
X269889281Y-58823960D01*
X269361858Y-59042426D01*
X268958186Y-59446098D01*
X268904720Y-59575176D01*
X268851254Y-59446098D01*
X268447582Y-59042426D01*
X267920159Y-58823960D01*
X267349281Y-58823960D01*
X266821858Y-59042426D01*
X266418186Y-59446098D01*
X266364720Y-59575176D01*
X266311254Y-59446098D01*
X265907582Y-59042426D01*
X265380159Y-58823960D01*
X264809281Y-58823960D01*
X264281858Y-59042426D01*
X263878186Y-59446098D01*
X263824720Y-59575176D01*
X263771254Y-59446098D01*
X263367582Y-59042426D01*
X262840159Y-58823960D01*
X262269281Y-58823960D01*
X261741858Y-59042426D01*
X261338186Y-59446098D01*
X261284720Y-59575176D01*
X261231254Y-59446098D01*
X260827582Y-59042426D01*
X260300159Y-58823960D01*
X259729281Y-58823960D01*
X259201858Y-59042426D01*
X258798186Y-59446098D01*
X258744720Y-59575176D01*
X258691254Y-59446098D01*
X258287582Y-59042426D01*
X257760159Y-58823960D01*
X257189281Y-58823960D01*
X256661858Y-59042426D01*
X256258186Y-59446098D01*
X256204720Y-59575176D01*
X256151254Y-59446098D01*
X255747582Y-59042426D01*
X255220159Y-58823960D01*
X254649281Y-58823960D01*
X254121858Y-59042426D01*
X253718186Y-59446098D01*
X253664720Y-59575176D01*
X253611254Y-59446098D01*
X253207582Y-59042426D01*
X252680159Y-58823960D01*
X252109281Y-58823960D01*
X251581858Y-59042426D01*
X251178186Y-59446098D01*
X251124720Y-59575176D01*
X251071254Y-59446098D01*
X250667582Y-59042426D01*
X250140159Y-58823960D01*
X249569281Y-58823960D01*
X249041858Y-59042426D01*
X248638186Y-59446098D01*
X248584720Y-59575176D01*
X248531254Y-59446098D01*
X248127582Y-59042426D01*
X247600159Y-58823960D01*
X247029281Y-58823960D01*
X246501858Y-59042426D01*
X246098186Y-59446098D01*
X246044720Y-59575176D01*
X245991254Y-59446098D01*
X245587582Y-59042426D01*
X245060159Y-58823960D01*
X244489281Y-58823960D01*
X243961858Y-59042426D01*
X243558186Y-59446098D01*
X243504720Y-59575176D01*
X243451254Y-59446098D01*
X243047582Y-59042426D01*
X242520159Y-58823960D01*
X241949281Y-58823960D01*
X241421858Y-59042426D01*
X241018186Y-59446098D01*
X240964720Y-59575176D01*
X240911254Y-59446098D01*
X240507582Y-59042426D01*
X239980159Y-58823960D01*
X239409281Y-58823960D01*
X238881858Y-59042426D01*
X238478186Y-59446098D01*
X238424720Y-59575176D01*
X238371254Y-59446098D01*
X237967582Y-59042426D01*
X237440159Y-58823960D01*
X236869281Y-58823960D01*
X236341858Y-59042426D01*
X235938186Y-59446098D01*
X235884720Y-59575176D01*
X235831254Y-59446098D01*
X235427582Y-59042426D01*
X234900159Y-58823960D01*
X234329281Y-58823960D01*
X233801858Y-59042426D01*
X233398186Y-59446098D01*
X233344720Y-59575176D01*
X233291254Y-59446098D01*
X232887582Y-59042426D01*
X232360159Y-58823960D01*
X231789281Y-58823960D01*
X231261858Y-59042426D01*
X230858186Y-59446098D01*
X230804720Y-59575176D01*
X230751254Y-59446098D01*
X230347582Y-59042426D01*
X229820159Y-58823960D01*
X229249281Y-58823960D01*
X228721858Y-59042426D01*
X228318186Y-59446098D01*
X228264720Y-59575176D01*
X228211254Y-59446098D01*
X227807582Y-59042426D01*
X227280159Y-58823960D01*
X226709281Y-58823960D01*
X226181858Y-59042426D01*
X225778186Y-59446098D01*
X225724720Y-59575176D01*
X225671254Y-59446098D01*
X225267582Y-59042426D01*
X224740159Y-58823960D01*
X224169281Y-58823960D01*
X223641858Y-59042426D01*
X223238186Y-59446098D01*
X223184720Y-59575176D01*
X223131254Y-59446098D01*
X222727582Y-59042426D01*
X222200159Y-58823960D01*
X221629281Y-58823960D01*
X221101858Y-59042426D01*
X220698186Y-59446098D01*
X220644720Y-59575176D01*
X220591254Y-59446098D01*
X220187582Y-59042426D01*
X219660159Y-58823960D01*
X219089281Y-58823960D01*
X218561858Y-59042426D01*
X218158186Y-59446098D01*
X217939720Y-59973521D01*
X212963760Y-59973521D01*
X212963760Y-56902102D01*
X241274600Y-56902102D01*
X241274600Y-57275978D01*
X241417676Y-57621394D01*
X241682046Y-57885764D01*
X242027462Y-58028840D01*
X242401338Y-58028840D01*
X242746754Y-57885764D01*
X243011124Y-57621394D01*
X243154200Y-57275978D01*
X243154200Y-56902102D01*
X243011124Y-56556686D01*
X242746754Y-56292316D01*
X242401338Y-56149240D01*
X242027462Y-56149240D01*
X241682046Y-56292316D01*
X241417676Y-56556686D01*
X241274600Y-56902102D01*
X212963760Y-56902102D01*
X212963760Y-55103782D01*
X219085160Y-55103782D01*
X219085160Y-55477658D01*
X219228236Y-55823074D01*
X219492606Y-56087444D01*
X219838022Y-56230520D01*
X220211898Y-56230520D01*
X220557314Y-56087444D01*
X220821684Y-55823074D01*
X220964760Y-55477658D01*
X220964760Y-55103782D01*
X220821684Y-54758366D01*
X220557314Y-54493996D01*
X220496443Y-54468782D01*
X222910400Y-54468782D01*
X222910400Y-54842658D01*
X223053476Y-55188074D01*
X223317846Y-55452444D01*
X223663262Y-55595520D01*
X224037138Y-55595520D01*
X224382554Y-55452444D01*
X224646924Y-55188074D01*
X224790000Y-54842658D01*
X224790000Y-54468782D01*
X224646924Y-54123366D01*
X224382554Y-53858996D01*
X224037138Y-53715920D01*
X223663262Y-53715920D01*
X223317846Y-53858996D01*
X223053476Y-54123366D01*
X222910400Y-54468782D01*
X220496443Y-54468782D01*
X220211898Y-54350920D01*
X219838022Y-54350920D01*
X219492606Y-54493996D01*
X219228236Y-54758366D01*
X219085160Y-55103782D01*
X212963760Y-55103782D01*
X212963760Y-39457382D01*
X252404880Y-39457382D01*
X252404880Y-39831258D01*
X252547956Y-40176674D01*
X252812326Y-40441044D01*
X253157742Y-40584120D01*
X253531618Y-40584120D01*
X253877034Y-40441044D01*
X253952398Y-40365680D01*
X254591162Y-40365680D01*
X254676686Y-40451204D01*
X255022102Y-40594280D01*
X255395978Y-40594280D01*
X255741394Y-40451204D01*
X256005764Y-40186834D01*
X256148840Y-39841418D01*
X256148840Y-39467542D01*
X256005764Y-39122126D01*
X255741394Y-38857756D01*
X255395978Y-38714680D01*
X255022102Y-38714680D01*
X254676686Y-38857756D01*
X254591162Y-38943280D01*
X253972718Y-38943280D01*
X253877034Y-38847596D01*
X253531618Y-38704520D01*
X253157742Y-38704520D01*
X252812326Y-38847596D01*
X252547956Y-39111966D01*
X252404880Y-39457382D01*
X212963760Y-39457382D01*
X212963760Y-37313622D01*
X259943600Y-37313622D01*
X259943600Y-37687498D01*
X260086676Y-38032914D01*
X260351046Y-38297284D01*
X260696462Y-38440360D01*
X261070338Y-38440360D01*
X261415754Y-38297284D01*
X261680124Y-38032914D01*
X261823200Y-37687498D01*
X261823200Y-37336118D01*
X261839486Y-37352404D01*
X262184902Y-37495480D01*
X262558778Y-37495480D01*
X262904194Y-37352404D01*
X263168564Y-37088034D01*
X263283438Y-36810702D01*
X267446760Y-36810702D01*
X267446760Y-37184578D01*
X267589836Y-37529994D01*
X267854206Y-37794364D01*
X268199622Y-37937440D01*
X268573498Y-37937440D01*
X268918914Y-37794364D01*
X269183284Y-37529994D01*
X269326360Y-37184578D01*
X269326360Y-36810702D01*
X269183284Y-36465286D01*
X268918914Y-36200916D01*
X268573498Y-36057840D01*
X268199622Y-36057840D01*
X267854206Y-36200916D01*
X267589836Y-36465286D01*
X267446760Y-36810702D01*
X263283438Y-36810702D01*
X263311640Y-36742618D01*
X263311640Y-36368742D01*
X263168564Y-36023326D01*
X262904194Y-35758956D01*
X262558778Y-35615880D01*
X262184902Y-35615880D01*
X261839486Y-35758956D01*
X261575116Y-36023326D01*
X261432040Y-36368742D01*
X261432040Y-36720122D01*
X261415754Y-36703836D01*
X261070338Y-36560760D01*
X260696462Y-36560760D01*
X260351046Y-36703836D01*
X260086676Y-36968206D01*
X259943600Y-37313622D01*
X212963760Y-37313622D01*
X212963760Y-31268422D01*
X270873220Y-31268422D01*
X270873220Y-31642298D01*
X271016296Y-31987714D01*
X271280666Y-32252084D01*
X271626082Y-32395160D01*
X271999958Y-32395160D01*
X272345374Y-32252084D01*
X272609744Y-31987714D01*
X272752820Y-31642298D01*
X272752820Y-31268422D01*
X272609744Y-30923006D01*
X272345374Y-30658636D01*
X271999958Y-30515560D01*
X271626082Y-30515560D01*
X271280666Y-30658636D01*
X271016296Y-30923006D01*
X270873220Y-31268422D01*
X212963760Y-31268422D01*
X212963760Y-28880822D01*
X263525000Y-28880822D01*
X263525000Y-29254698D01*
X263668076Y-29600114D01*
X263932446Y-29864484D01*
X264277862Y-30007560D01*
X264651738Y-30007560D01*
X264997154Y-29864484D01*
X265261524Y-29600114D01*
X265404600Y-29254698D01*
X265404600Y-28880822D01*
X265261524Y-28535406D01*
X264997154Y-28271036D01*
X264651738Y-28127960D01*
X264277862Y-28127960D01*
X263932446Y-28271036D01*
X263668076Y-28535406D01*
X263525000Y-28880822D01*
X212963760Y-28880822D01*
X212963760Y-27551324D01*
X248161352Y-27551324D01*
X248161352Y-27925200D01*
X248304428Y-28270616D01*
X248568798Y-28534986D01*
X248914214Y-28678062D01*
X249288090Y-28678062D01*
X249633506Y-28534986D01*
X249897876Y-28270616D01*
X250040952Y-27925200D01*
X250040952Y-27551324D01*
X249897876Y-27205908D01*
X249633506Y-26941538D01*
X249288090Y-26798462D01*
X248914214Y-26798462D01*
X248568798Y-26941538D01*
X248304428Y-27205908D01*
X248161352Y-27551324D01*
X212963760Y-27551324D01*
X212963760Y-23353782D01*
X258676790Y-23353782D01*
X258676790Y-23727658D01*
X258819866Y-24073074D01*
X259084236Y-24337444D01*
X259429652Y-24480520D01*
X259803528Y-24480520D01*
X260060663Y-24374011D01*
X260741160Y-25054509D01*
X260741160Y-25175458D01*
X260884236Y-25520874D01*
X261148606Y-25785244D01*
X261494022Y-25928320D01*
X261867898Y-25928320D01*
X262213314Y-25785244D01*
X262477684Y-25520874D01*
X262620760Y-25175458D01*
X262620760Y-24801582D01*
X262477684Y-24456166D01*
X262273438Y-24251920D01*
X264801159Y-24251920D01*
X264871200Y-24265852D01*
X264941241Y-24251920D01*
X264941246Y-24251920D01*
X265148696Y-24210656D01*
X265383946Y-24053466D01*
X265423624Y-23994084D01*
X266075109Y-23342600D01*
X266196058Y-23342600D01*
X266541474Y-23199524D01*
X266805844Y-22935154D01*
X266948920Y-22589738D01*
X266948920Y-22215862D01*
X266805844Y-21870446D01*
X266541474Y-21606076D01*
X266196058Y-21463000D01*
X265822182Y-21463000D01*
X265476766Y-21606076D01*
X265212396Y-21870446D01*
X265069320Y-22215862D01*
X265069320Y-22336811D01*
X264576612Y-22829520D01*
X263353398Y-22829520D01*
X263431900Y-22640000D01*
X263431900Y-22266124D01*
X263288824Y-21920708D01*
X263211578Y-21843462D01*
X263309144Y-21745896D01*
X263452220Y-21400480D01*
X263452220Y-21026604D01*
X263309144Y-20681188D01*
X263044774Y-20416818D01*
X262699358Y-20273742D01*
X262325482Y-20273742D01*
X261980066Y-20416818D01*
X261715696Y-20681188D01*
X261572620Y-21026604D01*
X261572620Y-21400480D01*
X261715696Y-21745896D01*
X261780900Y-21811100D01*
X261780900Y-21835184D01*
X261695376Y-21920708D01*
X261552300Y-22266124D01*
X261552300Y-22640000D01*
X261630802Y-22829520D01*
X260303201Y-22829520D01*
X260233160Y-22815588D01*
X260222630Y-22817682D01*
X260148944Y-22743996D01*
X259803528Y-22600920D01*
X259429652Y-22600920D01*
X259084236Y-22743996D01*
X258819866Y-23008366D01*
X258676790Y-23353782D01*
X212963760Y-23353782D01*
X212963760Y-19244062D01*
X249544840Y-19244062D01*
X249544840Y-19617938D01*
X249687916Y-19963354D01*
X249952286Y-20227724D01*
X250297702Y-20370800D01*
X250671578Y-20370800D01*
X251016994Y-20227724D01*
X251281364Y-19963354D01*
X251424440Y-19617938D01*
X251424440Y-19244062D01*
X251281364Y-18898646D01*
X251016994Y-18634276D01*
X250671578Y-18491200D01*
X250297702Y-18491200D01*
X249952286Y-18634276D01*
X249687916Y-18898646D01*
X249544840Y-19244062D01*
X212963760Y-19244062D01*
X212963760Y-15788813D01*
X283707813Y-15884988D01*
M02*
