M48
INCH,TZ
T1C0.0120
T2C0.0394
T3C0.0433
%
G90
G05
T1
X86162Y-33518
X87016Y-36724
X87408Y-36942
X88952Y-40122
X90178Y-26720
X91156Y-36196
X91168Y-32714
X93040Y-36986
X93054Y-38940
X93170Y-42358
X93256Y-38048
X93902Y-32866
X95368Y-31240
X95680Y-16552
X95992Y-36610
X96434Y-42214
X96506Y-37952
X97150Y-47784
X97230Y-32332
X97437Y-35129
X97480Y-39594
X97492Y-25360
X97548Y-10760
X99164Y-11942
X99284Y-6846
X99742Y-15608
X100476Y-15612
X100584Y-38704
X101662Y-35984
X102211Y-9268
X102538Y-38266
X102872Y-14594
X102996Y-40694
X103024Y-9838
X103343Y-8840
X103351Y-8352
X104262Y-11434
X104728Y-8820
X105220Y-43924
X106096Y-38420
X106114Y-39698
X106282Y-36096
X106358Y-27434
X106440Y-17562
X106654Y-16680
X107161Y-17074
X107596Y-37644
X107910Y-13704
X108371Y-31059
X108558Y-13742
X108944Y-38900
X109224Y-41726
X109366Y-22396
X110918Y-39860
T2
X89416Y-47816
X90416Y-47816
X91416Y-47816
X92416Y-47816
X93416Y-47816
X94416Y-47816
X95416Y-47816
T3
X86368Y-23724
X86368Y-29724
X87368Y-23724
X87368Y-29724
X88368Y-23724
X88368Y-29724
X89368Y-23724
X89368Y-29724
X90368Y-23724
X90368Y-29724
X91368Y-23724
X91368Y-24724
X91368Y-25724
X91368Y-26724
X91368Y-27724
X91368Y-28724
X91368Y-29724
X92368Y-23724
X92368Y-29724
X93368Y-23724
X93368Y-29724
X94368Y-23724
X94368Y-29724
X95368Y-23724
X95368Y-29724
X96368Y-23724
X96368Y-29724
X97368Y-23724
X97368Y-29724
X98368Y-23724
X98368Y-29724
X99368Y-23724
X99368Y-29724
X100368Y-23724
X100368Y-29724
X101368Y-23724
X101368Y-29724
X102368Y-23724
X102368Y-29724
X102868Y-24905
X103368Y-23724
X103368Y-29724
X103868Y-24905
X104368Y-23724
X104368Y-28724
X104368Y-29724
X104868Y-24905
X105368Y-23724
X105368Y-28724
X105368Y-29724
X105868Y-24905
X106368Y-23724
X106368Y-28724
X106368Y-29724
X106868Y-24905
X107368Y-23724
X107368Y-29724
X108368Y-23724
X108368Y-28724
X108368Y-29724
X109368Y-23724
X109368Y-29724
T0
M30
