G04 #@! TF.GenerationSoftware,KiCad,Pcbnew,(5.0.1)-4*
G04 #@! TF.CreationDate,2019-11-27T18:02:01-06:00*
G04 #@! TF.ProjectId,new_synth_transistor,6E65775F73796E74685F7472616E7369,rev?*
G04 #@! TF.SameCoordinates,Original*
G04 #@! TF.FileFunction,Copper,L2,Bot,Signal*
G04 #@! TF.FilePolarity,Positive*
%FSLAX46Y46*%
G04 Gerber Fmt 4.6, Leading zero omitted, Abs format (unit mm)*
G04 Created by KiCad (PCBNEW (5.0.1)-4) date 11/27/2019 6:02:01 PM*
%MOMM*%
%LPD*%
G01*
G04 APERTURE LIST*
G04 #@! TA.AperFunction,ComponentPad*
%ADD10C,1.600000*%
G04 #@! TD*
G04 #@! TA.AperFunction,ComponentPad*
%ADD11R,1.600000X1.600000*%
G04 #@! TD*
G04 #@! TA.AperFunction,ComponentPad*
%ADD12O,1.700000X1.700000*%
G04 #@! TD*
G04 #@! TA.AperFunction,ComponentPad*
%ADD13R,1.700000X1.700000*%
G04 #@! TD*
G04 #@! TA.AperFunction,ViaPad*
%ADD14C,0.609600*%
G04 #@! TD*
G04 #@! TA.AperFunction,Conductor*
%ADD15C,0.152400*%
G04 #@! TD*
G04 #@! TA.AperFunction,Conductor*
%ADD16C,0.304800*%
G04 #@! TD*
G04 #@! TA.AperFunction,Conductor*
%ADD17C,0.254000*%
G04 #@! TD*
G04 APERTURE END LIST*
D10*
G04 #@! TO.P,U8,17*
G04 #@! TO.N,Net-(U8-Pad17)*
X237154720Y-60258960D03*
G04 #@! TO.P,U8,18*
G04 #@! TO.N,Net-(U8-Pad18)*
X234614720Y-60258960D03*
G04 #@! TO.P,U8,19*
G04 #@! TO.N,Net-(U8-Pad19)*
X232074720Y-60258960D03*
G04 #@! TO.P,U8,20*
G04 #@! TO.N,Net-(U8-Pad20)*
X229534720Y-60258960D03*
G04 #@! TO.P,U8,16*
G04 #@! TO.N,Net-(U8-Pad16)*
X239694720Y-60258960D03*
G04 #@! TO.P,U8,15*
G04 #@! TO.N,+3V3*
X242234720Y-60258960D03*
G04 #@! TO.P,U8,14*
G04 #@! TO.N,Net-(U8-Pad14)*
X244774720Y-60258960D03*
G04 #@! TO.P,U8,21*
G04 #@! TO.N,Net-(U8-Pad21)*
X226994720Y-60258960D03*
G04 #@! TO.P,U8,22*
G04 #@! TO.N,Net-(U8-Pad22)*
X224454720Y-60258960D03*
G04 #@! TO.P,U8,23*
G04 #@! TO.N,Net-(U8-Pad23)*
X221914720Y-60258960D03*
G04 #@! TO.P,U8,24*
G04 #@! TO.N,Net-(U8-Pad24)*
X219374720Y-60258960D03*
G04 #@! TO.P,U8,25*
G04 #@! TO.N,Net-(U8-Pad25)*
X232074720Y-62798960D03*
G04 #@! TO.P,U8,26*
G04 #@! TO.N,+3V3*
X232074720Y-65338960D03*
G04 #@! TO.P,U8,27*
G04 #@! TO.N,GND*
X232074720Y-67878960D03*
G04 #@! TO.P,U8,28*
G04 #@! TO.N,Net-(U8-Pad28)*
X232074720Y-70418960D03*
G04 #@! TO.P,U8,29*
G04 #@! TO.N,Net-(U8-Pad29)*
X232074720Y-72958960D03*
G04 #@! TO.P,U8,30*
G04 #@! TO.N,/L1*
X219374720Y-75498960D03*
G04 #@! TO.P,U8,31*
G04 #@! TO.N,/L2*
X221914720Y-75498960D03*
G04 #@! TO.P,U8,32*
G04 #@! TO.N,/L3*
X224454720Y-75498960D03*
G04 #@! TO.P,U8,33*
G04 #@! TO.N,/L4*
X226994720Y-75498960D03*
G04 #@! TO.P,U8,34*
G04 #@! TO.N,/L5*
X229534720Y-75498960D03*
G04 #@! TO.P,U8,35*
G04 #@! TO.N,/L6*
X232074720Y-75498960D03*
G04 #@! TO.P,U8,36*
G04 #@! TO.N,/L7*
X234614720Y-75498960D03*
G04 #@! TO.P,U8,37*
G04 #@! TO.N,/SIGNAL*
X237154720Y-75498960D03*
G04 #@! TO.P,U8,13*
G04 #@! TO.N,Net-(U8-Pad13)*
X247314720Y-60258960D03*
G04 #@! TO.P,U8,12*
G04 #@! TO.N,Net-(U8-Pad12)*
X249854720Y-60258960D03*
G04 #@! TO.P,U8,11*
G04 #@! TO.N,Net-(U8-Pad11)*
X252394720Y-60258960D03*
G04 #@! TO.P,U8,10*
G04 #@! TO.N,Net-(U8-Pad10)*
X254934720Y-60258960D03*
G04 #@! TO.P,U8,9*
G04 #@! TO.N,Net-(U8-Pad9)*
X257474720Y-60258960D03*
G04 #@! TO.P,U8,8*
G04 #@! TO.N,Net-(U8-Pad8)*
X260014720Y-60258960D03*
G04 #@! TO.P,U8,7*
G04 #@! TO.N,Net-(U8-Pad7)*
X262554720Y-60258960D03*
G04 #@! TO.P,U8,6*
G04 #@! TO.N,Net-(U8-Pad6)*
X265094720Y-60258960D03*
G04 #@! TO.P,U8,5*
G04 #@! TO.N,Net-(U8-Pad5)*
X267634720Y-60258960D03*
G04 #@! TO.P,U8,4*
G04 #@! TO.N,Net-(U8-Pad4)*
X270174720Y-60258960D03*
G04 #@! TO.P,U8,3*
G04 #@! TO.N,Net-(U8-Pad3)*
X272714720Y-60258960D03*
G04 #@! TO.P,U8,2*
G04 #@! TO.N,Net-(U8-Pad2)*
X275254720Y-60258960D03*
D11*
G04 #@! TO.P,U8,1*
G04 #@! TO.N,GND*
X277794720Y-60258960D03*
D10*
G04 #@! TO.P,U8,38*
G04 #@! TO.N,/TONE*
X239694720Y-75498960D03*
G04 #@! TO.P,U8,39*
G04 #@! TO.N,GND*
X242234720Y-75498960D03*
G04 #@! TO.P,U8,40*
G04 #@! TO.N,Net-(U8-Pad40)*
X244774720Y-75498960D03*
G04 #@! TO.P,U8,41*
G04 #@! TO.N,/ADSR_OUT*
X247314720Y-75498960D03*
G04 #@! TO.P,U8,42*
G04 #@! TO.N,Net-(U8-Pad42)*
X249854720Y-75498960D03*
G04 #@! TO.P,U8,43*
G04 #@! TO.N,Net-(U8-Pad43)*
X252394720Y-75498960D03*
G04 #@! TO.P,U8,44*
G04 #@! TO.N,/T7*
X254934720Y-75498960D03*
G04 #@! TO.P,U8,45*
G04 #@! TO.N,/T6*
X257474720Y-75498960D03*
G04 #@! TO.P,U8,46*
G04 #@! TO.N,/T5*
X260014720Y-75498960D03*
G04 #@! TO.P,U8,47*
G04 #@! TO.N,/T4*
X262554720Y-75498960D03*
G04 #@! TO.P,U8,48*
G04 #@! TO.N,/T3*
X265094720Y-75498960D03*
G04 #@! TO.P,U8,49*
G04 #@! TO.N,/T2*
X267634720Y-75498960D03*
G04 #@! TO.P,U8,50*
G04 #@! TO.N,/T1*
X270174720Y-75498960D03*
G04 #@! TO.P,U8,51*
G04 #@! TO.N,+3V3*
X272714720Y-75498960D03*
G04 #@! TO.P,U8,52*
G04 #@! TO.N,GND*
X275254720Y-75498960D03*
G04 #@! TO.P,U8,53*
G04 #@! TO.N,+5V*
X277794720Y-75498960D03*
G04 #@! TO.P,U8,54*
G04 #@! TO.N,Net-(U8-Pad54)*
X275254720Y-72958960D03*
G04 #@! TO.P,U8,55*
G04 #@! TO.N,GND*
X270174720Y-72958960D03*
G04 #@! TO.P,U8,56*
G04 #@! TO.N,Net-(U8-Pad56)*
X267634720Y-72958960D03*
G04 #@! TO.P,U8,57*
G04 #@! TO.N,Net-(U8-Pad57)*
X265094720Y-72958960D03*
G04 #@! TO.P,U8,58*
G04 #@! TO.N,N/C*
X271444720Y-63258960D03*
G04 #@! TO.P,U8,59*
X268904720Y-63258960D03*
G04 #@! TO.P,U8,60*
X266364720Y-63258960D03*
G04 #@! TO.P,U8,61*
X263824720Y-63258960D03*
G04 #@! TO.P,U8,62*
X261284720Y-63258960D03*
G04 #@! TD*
D12*
G04 #@! TO.P,J1,7*
G04 #@! TO.N,Net-(J1-Pad7)*
X227116640Y-121452640D03*
G04 #@! TO.P,J1,6*
G04 #@! TO.N,Net-(J1-Pad6)*
X229656640Y-121452640D03*
G04 #@! TO.P,J1,5*
G04 #@! TO.N,Net-(J1-Pad5)*
X232196640Y-121452640D03*
G04 #@! TO.P,J1,4*
G04 #@! TO.N,Net-(J1-Pad4)*
X234736640Y-121452640D03*
G04 #@! TO.P,J1,3*
G04 #@! TO.N,Net-(J1-Pad3)*
X237276640Y-121452640D03*
G04 #@! TO.P,J1,2*
G04 #@! TO.N,/TONE*
X239816640Y-121452640D03*
D13*
G04 #@! TO.P,J1,1*
G04 #@! TO.N,GND*
X242356640Y-121452640D03*
G04 #@! TD*
D14*
G04 #@! TO.N,GND*
X269110460Y-65128140D03*
X270301720Y-56522620D03*
G04 #@! TO.N,Net-(Q1-Pad3)*
X262512420Y-21213542D03*
X262492100Y-22453062D03*
G04 #@! TO.N,GND*
X236651800Y-107589320D03*
X247599200Y-100568760D03*
X246761000Y-121371360D03*
X222016320Y-93832680D03*
X218851480Y-85135720D03*
X238511080Y-83479640D03*
X236357160Y-98907600D03*
X231536240Y-91937840D03*
X243819680Y-92989400D03*
X247489894Y-89227574D03*
X260446520Y-97195640D03*
X261609840Y-103362760D03*
X267258800Y-111566960D03*
X281731720Y-101244400D03*
X276717760Y-98806000D03*
X269483840Y-97586800D03*
X269956280Y-91683840D03*
X270149320Y-69682360D03*
X242234720Y-79349600D03*
X229052120Y-67868800D03*
X243027200Y-42042080D03*
X275263021Y-78890541D03*
X266959080Y-56588660D03*
G04 #@! TO.N,+3V3*
X247629680Y-64414400D03*
G04 #@! TO.N,GNDREF*
X252181360Y-17388840D03*
X264825480Y-29042360D03*
X270901160Y-42367200D03*
G04 #@! TO.N,+5V*
X277428960Y-105984040D03*
X258221480Y-91399360D03*
X231566720Y-83093560D03*
X244942360Y-107223560D03*
X255483360Y-98308160D03*
X221020640Y-93278960D03*
X225938080Y-101909880D03*
X236321600Y-93944440D03*
X236870240Y-96641920D03*
X245125240Y-96398080D03*
X270357600Y-44607480D03*
X261294880Y-37068760D03*
X247771920Y-27330400D03*
X269529560Y-100832920D03*
X273293840Y-95615760D03*
X246964200Y-82123280D03*
G04 #@! TO.N,/SIGNAL*
X251876560Y-30332680D03*
G04 #@! TO.N,/ADSR_OUT*
X275737320Y-34904680D03*
X274091400Y-34808160D03*
G04 #@! TO.N,Net-(Q4-Pad3)*
X253344680Y-39644320D03*
X255209040Y-39654480D03*
G04 #@! TO.N,/2B*
X261680960Y-24988520D03*
X259616590Y-23540720D03*
X266009120Y-22402800D03*
G04 #@! TD*
D15*
G04 #@! TO.N,*
X262416090Y-63258960D02*
X263824720Y-63258960D01*
X261284720Y-63258960D02*
X262416090Y-63258960D01*
X264956090Y-63258960D02*
X266364720Y-63258960D01*
X263824720Y-63258960D02*
X264956090Y-63258960D01*
G04 #@! TO.N,Net-(Q1-Pad3)*
X262492100Y-22453062D02*
X262492100Y-22022010D01*
X262492100Y-21233862D02*
X262512420Y-21213542D01*
X262492100Y-22022010D02*
X262492100Y-21233862D01*
D16*
G04 #@! TO.N,GND*
X242234720Y-121330720D02*
X242356640Y-121452640D01*
D15*
X277794720Y-60258960D02*
X277794720Y-56728360D01*
X232074720Y-67878960D02*
X229062280Y-67878960D01*
X229062280Y-67878960D02*
X229052120Y-67868800D01*
X242234720Y-75498960D02*
X242234720Y-79349600D01*
D16*
X242234720Y-79349600D02*
X242234720Y-121330720D01*
D15*
X270174720Y-72958960D02*
X270174720Y-69707760D01*
X270174720Y-69707760D02*
X270149320Y-69682360D01*
X242356640Y-121452640D02*
X246679720Y-121452640D01*
X246679720Y-121452640D02*
X246761000Y-121371360D01*
X275254720Y-78882240D02*
X275263021Y-78890541D01*
X275254720Y-75498960D02*
X275254720Y-78882240D01*
G04 #@! TO.N,+3V3*
X272714720Y-75498960D02*
X272714720Y-70317360D01*
X266732521Y-64335161D02*
X247820679Y-64335161D01*
X272714720Y-70317360D02*
X266732521Y-64335161D01*
X247820679Y-64335161D02*
X247741440Y-64414400D01*
X247741440Y-64414400D02*
X247629680Y-64414400D01*
G04 #@! TO.N,GNDREF*
X263530081Y-28737561D02*
X252486159Y-17693639D01*
X264520681Y-28737561D02*
X263530081Y-28737561D01*
X252486159Y-17693639D02*
X252181360Y-17388840D01*
X264825480Y-29042360D02*
X264520681Y-28737561D01*
X265130279Y-29347159D02*
X264825480Y-29042360D01*
X271205959Y-42062401D02*
X271205959Y-35422839D01*
X271205959Y-35422839D02*
X265130279Y-29347159D01*
X270901160Y-42367200D02*
X271205959Y-42062401D01*
G04 #@! TO.N,+5V*
X251556520Y-27330400D02*
X261294880Y-37068760D01*
X247771920Y-27330400D02*
X251556520Y-27330400D01*
X268833600Y-44607480D02*
X270357600Y-44607480D01*
X261294880Y-37068760D02*
X268833600Y-44607480D01*
X270368519Y-63129981D02*
X270368519Y-66223639D01*
X269098519Y-61859981D02*
X270368519Y-63129981D01*
X270357600Y-44607480D02*
X269098519Y-45866561D01*
X269098519Y-45866561D02*
X269098519Y-61859981D01*
X277794720Y-73649840D02*
X277794720Y-75498960D01*
X270368519Y-66223639D02*
X277794720Y-73649840D01*
X269529560Y-100832920D02*
X269529560Y-99380040D01*
X277794720Y-91114880D02*
X277794720Y-75498960D01*
X269529560Y-99380040D02*
X273293840Y-95615760D01*
X273293840Y-95615760D02*
X277794720Y-91114880D01*
X258221480Y-95570040D02*
X258221480Y-91399360D01*
X255483360Y-98308160D02*
X258221480Y-95570040D01*
X277794720Y-76630330D02*
X277794720Y-75498960D01*
X258221480Y-91399360D02*
X263575876Y-91399360D01*
X277794720Y-77180516D02*
X277794720Y-76630330D01*
X253573280Y-96398080D02*
X255483360Y-98308160D01*
X245125240Y-96398080D02*
X253573280Y-96398080D01*
X236321600Y-96093280D02*
X236870240Y-96641920D01*
X236321600Y-93944440D02*
X236321600Y-96093280D01*
X228356160Y-101909880D02*
X236321600Y-93944440D01*
X225938080Y-101909880D02*
X228356160Y-101909880D01*
X221020640Y-96992440D02*
X225938080Y-101909880D01*
X221020640Y-93278960D02*
X221020640Y-96992440D01*
X231206040Y-83093560D02*
X231566720Y-83093560D01*
X221020640Y-93278960D02*
X231206040Y-83093560D01*
X272851956Y-82123280D02*
X272948400Y-82026836D01*
X246964200Y-82123280D02*
X272851956Y-82123280D01*
X263575876Y-91399360D02*
X272948400Y-82026836D01*
X272948400Y-82026836D02*
X277794720Y-77180516D01*
X272277840Y-100832920D02*
X277428960Y-105984040D01*
X269529560Y-100832920D02*
X272277840Y-100832920D01*
G04 #@! TO.N,/SIGNAL*
X237954719Y-74698961D02*
X237154720Y-75498960D01*
X245850921Y-36358319D02*
X245850921Y-66802759D01*
X245850921Y-66802759D02*
X237954719Y-74698961D01*
X251876560Y-30332680D02*
X245850921Y-36358319D01*
G04 #@! TO.N,/ADSR_OUT*
X275640800Y-34808160D02*
X275737320Y-34904680D01*
X274091400Y-34808160D02*
X275640800Y-34808160D01*
G04 #@! TO.N,Net-(Q4-Pad3)*
X255209040Y-39654480D02*
X254777988Y-39654480D01*
X254777988Y-39654480D02*
X253354840Y-39654480D01*
X253354840Y-39654480D02*
X253344680Y-39644320D01*
G04 #@! TO.N,/2B*
X264871200Y-23540720D02*
X260047642Y-23540720D01*
X260047642Y-23540720D02*
X259616590Y-23540720D01*
X266009120Y-22402800D02*
X264871200Y-23540720D01*
X260233160Y-23540720D02*
X259616590Y-23540720D01*
X261680960Y-24988520D02*
X260233160Y-23540720D01*
D16*
G04 #@! TO.N,/TONE*
X239816640Y-75620880D02*
X239694720Y-75498960D01*
X239816640Y-121452640D02*
X239816640Y-75620880D01*
G04 #@! TD*
D17*
G04 #@! TO.N,GND*
G36*
X283092005Y-15542990D02*
X283255719Y-15634154D01*
X283378378Y-15775811D01*
X283453752Y-15973311D01*
X283465539Y-16121798D01*
X283399675Y-123065490D01*
X283383027Y-123108455D01*
X283324351Y-123405344D01*
X283234770Y-123553380D01*
X283099957Y-123661852D01*
X282901633Y-123729446D01*
X282802414Y-123737050D01*
X282789546Y-123740350D01*
X213558776Y-123795949D01*
X213258844Y-123746192D01*
X213107987Y-123657262D01*
X212999256Y-123519983D01*
X212936708Y-123318926D01*
X212922414Y-93092022D01*
X220080840Y-93092022D01*
X220080840Y-93465898D01*
X220223916Y-93811314D01*
X220309440Y-93896838D01*
X220309441Y-96922394D01*
X220295508Y-96992440D01*
X220350705Y-97269936D01*
X220468216Y-97445804D01*
X220468219Y-97445807D01*
X220507895Y-97505186D01*
X220567274Y-97544862D01*
X224998280Y-101975869D01*
X224998280Y-102096818D01*
X225141356Y-102442234D01*
X225405726Y-102706604D01*
X225751142Y-102849680D01*
X226125018Y-102849680D01*
X226470434Y-102706604D01*
X226555958Y-102621080D01*
X228286119Y-102621080D01*
X228356160Y-102635012D01*
X228426201Y-102621080D01*
X228426206Y-102621080D01*
X228633656Y-102579816D01*
X228868906Y-102422626D01*
X228908584Y-102363244D01*
X235610401Y-95661428D01*
X235610401Y-96023234D01*
X235596468Y-96093280D01*
X235651665Y-96370776D01*
X235769176Y-96546644D01*
X235769179Y-96546647D01*
X235808855Y-96606026D01*
X235868234Y-96645702D01*
X235930440Y-96707908D01*
X235930440Y-96828858D01*
X236073516Y-97174274D01*
X236337886Y-97438644D01*
X236683302Y-97581720D01*
X237057178Y-97581720D01*
X237402594Y-97438644D01*
X237666964Y-97174274D01*
X237810040Y-96828858D01*
X237810040Y-96454982D01*
X237666964Y-96109566D01*
X237402594Y-95845196D01*
X237057178Y-95702120D01*
X237032800Y-95702120D01*
X237032800Y-94562318D01*
X237118324Y-94476794D01*
X237261400Y-94131378D01*
X237261400Y-93757502D01*
X237118324Y-93412086D01*
X236853954Y-93147716D01*
X236508538Y-93004640D01*
X236134662Y-93004640D01*
X235789246Y-93147716D01*
X235524876Y-93412086D01*
X235381800Y-93757502D01*
X235381800Y-93878451D01*
X228061572Y-101198680D01*
X226555958Y-101198680D01*
X226470434Y-101113156D01*
X226125018Y-100970080D01*
X226004069Y-100970080D01*
X221731840Y-96697852D01*
X221731840Y-93896838D01*
X221817364Y-93811314D01*
X221960440Y-93465898D01*
X221960440Y-93344948D01*
X231303589Y-84001800D01*
X231379782Y-84033360D01*
X231753658Y-84033360D01*
X232099074Y-83890284D01*
X232363444Y-83625914D01*
X232506520Y-83280498D01*
X232506520Y-82906622D01*
X232363444Y-82561206D01*
X232099074Y-82296836D01*
X231753658Y-82153760D01*
X231379782Y-82153760D01*
X231034366Y-82296836D01*
X230865359Y-82465843D01*
X230752675Y-82541136D01*
X230752673Y-82541138D01*
X230693294Y-82580814D01*
X230653618Y-82640193D01*
X220954652Y-92339160D01*
X220833702Y-92339160D01*
X220488286Y-92482236D01*
X220223916Y-92746606D01*
X220080840Y-93092022D01*
X212922414Y-93092022D01*
X212910388Y-67662183D01*
X230627755Y-67662183D01*
X230654942Y-68232414D01*
X230820856Y-68632965D01*
X231066975Y-68707099D01*
X231895115Y-67878960D01*
X232254325Y-67878960D01*
X233082465Y-68707099D01*
X233328584Y-68632965D01*
X233521685Y-68095737D01*
X233494498Y-67525506D01*
X233328584Y-67124955D01*
X233082465Y-67050821D01*
X232254325Y-67878960D01*
X231895115Y-67878960D01*
X231066975Y-67050821D01*
X230820856Y-67124955D01*
X230627755Y-67662183D01*
X212910388Y-67662183D01*
X212906751Y-59973521D01*
X217939720Y-59973521D01*
X217939720Y-60544399D01*
X218158186Y-61071822D01*
X218561858Y-61475494D01*
X219089281Y-61693960D01*
X219660159Y-61693960D01*
X220187582Y-61475494D01*
X220591254Y-61071822D01*
X220644720Y-60942744D01*
X220698186Y-61071822D01*
X221101858Y-61475494D01*
X221629281Y-61693960D01*
X222200159Y-61693960D01*
X222727582Y-61475494D01*
X223131254Y-61071822D01*
X223184720Y-60942744D01*
X223238186Y-61071822D01*
X223641858Y-61475494D01*
X224169281Y-61693960D01*
X224740159Y-61693960D01*
X225267582Y-61475494D01*
X225671254Y-61071822D01*
X225724720Y-60942744D01*
X225778186Y-61071822D01*
X226181858Y-61475494D01*
X226709281Y-61693960D01*
X227280159Y-61693960D01*
X227807582Y-61475494D01*
X228211254Y-61071822D01*
X228264720Y-60942744D01*
X228318186Y-61071822D01*
X228721858Y-61475494D01*
X229249281Y-61693960D01*
X229820159Y-61693960D01*
X230347582Y-61475494D01*
X230751254Y-61071822D01*
X230804720Y-60942744D01*
X230858186Y-61071822D01*
X231261858Y-61475494D01*
X231390936Y-61528960D01*
X231261858Y-61582426D01*
X230858186Y-61986098D01*
X230639720Y-62513521D01*
X230639720Y-63084399D01*
X230858186Y-63611822D01*
X231261858Y-64015494D01*
X231390936Y-64068960D01*
X231261858Y-64122426D01*
X230858186Y-64526098D01*
X230639720Y-65053521D01*
X230639720Y-65624399D01*
X230858186Y-66151822D01*
X231261858Y-66555494D01*
X231375303Y-66602485D01*
X231320715Y-66625096D01*
X231246581Y-66871215D01*
X232074720Y-67699355D01*
X232902859Y-66871215D01*
X232828725Y-66625096D01*
X232770272Y-66604086D01*
X232887582Y-66555494D01*
X233291254Y-66151822D01*
X233509720Y-65624399D01*
X233509720Y-65053521D01*
X233291254Y-64526098D01*
X232887582Y-64122426D01*
X232758504Y-64068960D01*
X232887582Y-64015494D01*
X233291254Y-63611822D01*
X233509720Y-63084399D01*
X233509720Y-62513521D01*
X233291254Y-61986098D01*
X232887582Y-61582426D01*
X232758504Y-61528960D01*
X232887582Y-61475494D01*
X233291254Y-61071822D01*
X233344720Y-60942744D01*
X233398186Y-61071822D01*
X233801858Y-61475494D01*
X234329281Y-61693960D01*
X234900159Y-61693960D01*
X235427582Y-61475494D01*
X235831254Y-61071822D01*
X235884720Y-60942744D01*
X235938186Y-61071822D01*
X236341858Y-61475494D01*
X236869281Y-61693960D01*
X237440159Y-61693960D01*
X237967582Y-61475494D01*
X238371254Y-61071822D01*
X238424720Y-60942744D01*
X238478186Y-61071822D01*
X238881858Y-61475494D01*
X239409281Y-61693960D01*
X239980159Y-61693960D01*
X240507582Y-61475494D01*
X240911254Y-61071822D01*
X240964720Y-60942744D01*
X241018186Y-61071822D01*
X241421858Y-61475494D01*
X241949281Y-61693960D01*
X242520159Y-61693960D01*
X243047582Y-61475494D01*
X243451254Y-61071822D01*
X243504720Y-60942744D01*
X243558186Y-61071822D01*
X243961858Y-61475494D01*
X244489281Y-61693960D01*
X245060159Y-61693960D01*
X245139722Y-61661004D01*
X245139722Y-66508169D01*
X237541822Y-74106070D01*
X237440159Y-74063960D01*
X236869281Y-74063960D01*
X236341858Y-74282426D01*
X235938186Y-74686098D01*
X235884720Y-74815176D01*
X235831254Y-74686098D01*
X235427582Y-74282426D01*
X234900159Y-74063960D01*
X234329281Y-74063960D01*
X233801858Y-74282426D01*
X233398186Y-74686098D01*
X233344720Y-74815176D01*
X233291254Y-74686098D01*
X232887582Y-74282426D01*
X232758504Y-74228960D01*
X232887582Y-74175494D01*
X233291254Y-73771822D01*
X233509720Y-73244399D01*
X233509720Y-72673521D01*
X233291254Y-72146098D01*
X232887582Y-71742426D01*
X232758504Y-71688960D01*
X232887582Y-71635494D01*
X233291254Y-71231822D01*
X233509720Y-70704399D01*
X233509720Y-70133521D01*
X233291254Y-69606098D01*
X232887582Y-69202426D01*
X232774137Y-69155435D01*
X232828725Y-69132824D01*
X232902859Y-68886705D01*
X232074720Y-68058565D01*
X231246581Y-68886705D01*
X231320715Y-69132824D01*
X231379168Y-69153834D01*
X231261858Y-69202426D01*
X230858186Y-69606098D01*
X230639720Y-70133521D01*
X230639720Y-70704399D01*
X230858186Y-71231822D01*
X231261858Y-71635494D01*
X231390936Y-71688960D01*
X231261858Y-71742426D01*
X230858186Y-72146098D01*
X230639720Y-72673521D01*
X230639720Y-73244399D01*
X230858186Y-73771822D01*
X231261858Y-74175494D01*
X231390936Y-74228960D01*
X231261858Y-74282426D01*
X230858186Y-74686098D01*
X230804720Y-74815176D01*
X230751254Y-74686098D01*
X230347582Y-74282426D01*
X229820159Y-74063960D01*
X229249281Y-74063960D01*
X228721858Y-74282426D01*
X228318186Y-74686098D01*
X228264720Y-74815176D01*
X228211254Y-74686098D01*
X227807582Y-74282426D01*
X227280159Y-74063960D01*
X226709281Y-74063960D01*
X226181858Y-74282426D01*
X225778186Y-74686098D01*
X225724720Y-74815176D01*
X225671254Y-74686098D01*
X225267582Y-74282426D01*
X224740159Y-74063960D01*
X224169281Y-74063960D01*
X223641858Y-74282426D01*
X223238186Y-74686098D01*
X223184720Y-74815176D01*
X223131254Y-74686098D01*
X222727582Y-74282426D01*
X222200159Y-74063960D01*
X221629281Y-74063960D01*
X221101858Y-74282426D01*
X220698186Y-74686098D01*
X220644720Y-74815176D01*
X220591254Y-74686098D01*
X220187582Y-74282426D01*
X219660159Y-74063960D01*
X219089281Y-74063960D01*
X218561858Y-74282426D01*
X218158186Y-74686098D01*
X217939720Y-75213521D01*
X217939720Y-75784399D01*
X218158186Y-76311822D01*
X218561858Y-76715494D01*
X219089281Y-76933960D01*
X219660159Y-76933960D01*
X220187582Y-76715494D01*
X220591254Y-76311822D01*
X220644720Y-76182744D01*
X220698186Y-76311822D01*
X221101858Y-76715494D01*
X221629281Y-76933960D01*
X222200159Y-76933960D01*
X222727582Y-76715494D01*
X223131254Y-76311822D01*
X223184720Y-76182744D01*
X223238186Y-76311822D01*
X223641858Y-76715494D01*
X224169281Y-76933960D01*
X224740159Y-76933960D01*
X225267582Y-76715494D01*
X225671254Y-76311822D01*
X225724720Y-76182744D01*
X225778186Y-76311822D01*
X226181858Y-76715494D01*
X226709281Y-76933960D01*
X227280159Y-76933960D01*
X227807582Y-76715494D01*
X228211254Y-76311822D01*
X228264720Y-76182744D01*
X228318186Y-76311822D01*
X228721858Y-76715494D01*
X229249281Y-76933960D01*
X229820159Y-76933960D01*
X230347582Y-76715494D01*
X230751254Y-76311822D01*
X230804720Y-76182744D01*
X230858186Y-76311822D01*
X231261858Y-76715494D01*
X231789281Y-76933960D01*
X232360159Y-76933960D01*
X232887582Y-76715494D01*
X233291254Y-76311822D01*
X233344720Y-76182744D01*
X233398186Y-76311822D01*
X233801858Y-76715494D01*
X234329281Y-76933960D01*
X234900159Y-76933960D01*
X235427582Y-76715494D01*
X235831254Y-76311822D01*
X235884720Y-76182744D01*
X235938186Y-76311822D01*
X236341858Y-76715494D01*
X236869281Y-76933960D01*
X237440159Y-76933960D01*
X237967582Y-76715494D01*
X238371254Y-76311822D01*
X238424720Y-76182744D01*
X238478186Y-76311822D01*
X238881858Y-76715494D01*
X239029241Y-76776542D01*
X239029240Y-120192770D01*
X238746015Y-120382015D01*
X238546640Y-120680401D01*
X238347265Y-120382015D01*
X237856058Y-120053801D01*
X237422896Y-119967640D01*
X237130384Y-119967640D01*
X236697222Y-120053801D01*
X236206015Y-120382015D01*
X236006640Y-120680401D01*
X235807265Y-120382015D01*
X235316058Y-120053801D01*
X234882896Y-119967640D01*
X234590384Y-119967640D01*
X234157222Y-120053801D01*
X233666015Y-120382015D01*
X233466640Y-120680401D01*
X233267265Y-120382015D01*
X232776058Y-120053801D01*
X232342896Y-119967640D01*
X232050384Y-119967640D01*
X231617222Y-120053801D01*
X231126015Y-120382015D01*
X230926640Y-120680401D01*
X230727265Y-120382015D01*
X230236058Y-120053801D01*
X229802896Y-119967640D01*
X229510384Y-119967640D01*
X229077222Y-120053801D01*
X228586015Y-120382015D01*
X228386640Y-120680401D01*
X228187265Y-120382015D01*
X227696058Y-120053801D01*
X227262896Y-119967640D01*
X226970384Y-119967640D01*
X226537222Y-120053801D01*
X226046015Y-120382015D01*
X225717801Y-120873222D01*
X225602548Y-121452640D01*
X225717801Y-122032058D01*
X226046015Y-122523265D01*
X226537222Y-122851479D01*
X226970384Y-122937640D01*
X227262896Y-122937640D01*
X227696058Y-122851479D01*
X228187265Y-122523265D01*
X228386640Y-122224879D01*
X228586015Y-122523265D01*
X229077222Y-122851479D01*
X229510384Y-122937640D01*
X229802896Y-122937640D01*
X230236058Y-122851479D01*
X230727265Y-122523265D01*
X230926640Y-122224879D01*
X231126015Y-122523265D01*
X231617222Y-122851479D01*
X232050384Y-122937640D01*
X232342896Y-122937640D01*
X232776058Y-122851479D01*
X233267265Y-122523265D01*
X233466640Y-122224879D01*
X233666015Y-122523265D01*
X234157222Y-122851479D01*
X234590384Y-122937640D01*
X234882896Y-122937640D01*
X235316058Y-122851479D01*
X235807265Y-122523265D01*
X236006640Y-122224879D01*
X236206015Y-122523265D01*
X236697222Y-122851479D01*
X237130384Y-122937640D01*
X237422896Y-122937640D01*
X237856058Y-122851479D01*
X238347265Y-122523265D01*
X238546640Y-122224879D01*
X238746015Y-122523265D01*
X239237222Y-122851479D01*
X239670384Y-122937640D01*
X239962896Y-122937640D01*
X240396058Y-122851479D01*
X240887265Y-122523265D01*
X240901736Y-122501607D01*
X240968313Y-122662338D01*
X241146941Y-122840967D01*
X241380330Y-122937640D01*
X242070890Y-122937640D01*
X242229640Y-122778890D01*
X242229640Y-121579640D01*
X242483640Y-121579640D01*
X242483640Y-122778890D01*
X242642390Y-122937640D01*
X243332950Y-122937640D01*
X243566339Y-122840967D01*
X243744967Y-122662338D01*
X243841640Y-122428949D01*
X243841640Y-121738390D01*
X243682890Y-121579640D01*
X242483640Y-121579640D01*
X242229640Y-121579640D01*
X242209640Y-121579640D01*
X242209640Y-121325640D01*
X242229640Y-121325640D01*
X242229640Y-120126390D01*
X242483640Y-120126390D01*
X242483640Y-121325640D01*
X243682890Y-121325640D01*
X243841640Y-121166890D01*
X243841640Y-120476331D01*
X243744967Y-120242942D01*
X243566339Y-120064313D01*
X243332950Y-119967640D01*
X242642390Y-119967640D01*
X242483640Y-120126390D01*
X242229640Y-120126390D01*
X242070890Y-119967640D01*
X241380330Y-119967640D01*
X241146941Y-120064313D01*
X240968313Y-120242942D01*
X240901736Y-120403673D01*
X240887265Y-120382015D01*
X240604040Y-120192770D01*
X240604040Y-107036622D01*
X244002560Y-107036622D01*
X244002560Y-107410498D01*
X244145636Y-107755914D01*
X244410006Y-108020284D01*
X244755422Y-108163360D01*
X245129298Y-108163360D01*
X245474714Y-108020284D01*
X245739084Y-107755914D01*
X245882160Y-107410498D01*
X245882160Y-107036622D01*
X245739084Y-106691206D01*
X245474714Y-106426836D01*
X245129298Y-106283760D01*
X244755422Y-106283760D01*
X244410006Y-106426836D01*
X244145636Y-106691206D01*
X244002560Y-107036622D01*
X240604040Y-107036622D01*
X240604040Y-76619036D01*
X240716371Y-76506705D01*
X241406581Y-76506705D01*
X241480715Y-76752824D01*
X242017943Y-76945925D01*
X242588174Y-76918738D01*
X242988725Y-76752824D01*
X243062859Y-76506705D01*
X242234720Y-75678565D01*
X241406581Y-76506705D01*
X240716371Y-76506705D01*
X240911254Y-76311822D01*
X240958245Y-76198377D01*
X240980856Y-76252965D01*
X241226975Y-76327099D01*
X242055115Y-75498960D01*
X241226975Y-74670821D01*
X240980856Y-74744955D01*
X240959846Y-74803408D01*
X240911254Y-74686098D01*
X240716371Y-74491215D01*
X241406581Y-74491215D01*
X242234720Y-75319355D01*
X243062859Y-74491215D01*
X242988725Y-74245096D01*
X242451497Y-74051995D01*
X241881266Y-74079182D01*
X241480715Y-74245096D01*
X241406581Y-74491215D01*
X240716371Y-74491215D01*
X240507582Y-74282426D01*
X239980159Y-74063960D01*
X239595508Y-74063960D01*
X246304288Y-67355181D01*
X246363667Y-67315505D01*
X246403343Y-67256126D01*
X246403345Y-67256124D01*
X246520856Y-67080256D01*
X246520857Y-67080255D01*
X246562121Y-66872805D01*
X246562121Y-66872801D01*
X246576053Y-66802759D01*
X246562121Y-66732717D01*
X246562121Y-61500456D01*
X247029281Y-61693960D01*
X247600159Y-61693960D01*
X248127582Y-61475494D01*
X248531254Y-61071822D01*
X248584720Y-60942744D01*
X248638186Y-61071822D01*
X249041858Y-61475494D01*
X249569281Y-61693960D01*
X250140159Y-61693960D01*
X250667582Y-61475494D01*
X251071254Y-61071822D01*
X251124720Y-60942744D01*
X251178186Y-61071822D01*
X251581858Y-61475494D01*
X252109281Y-61693960D01*
X252680159Y-61693960D01*
X253207582Y-61475494D01*
X253611254Y-61071822D01*
X253664720Y-60942744D01*
X253718186Y-61071822D01*
X254121858Y-61475494D01*
X254649281Y-61693960D01*
X255220159Y-61693960D01*
X255747582Y-61475494D01*
X256151254Y-61071822D01*
X256204720Y-60942744D01*
X256258186Y-61071822D01*
X256661858Y-61475494D01*
X257189281Y-61693960D01*
X257760159Y-61693960D01*
X258287582Y-61475494D01*
X258691254Y-61071822D01*
X258744720Y-60942744D01*
X258798186Y-61071822D01*
X259201858Y-61475494D01*
X259729281Y-61693960D01*
X260300159Y-61693960D01*
X260827582Y-61475494D01*
X261231254Y-61071822D01*
X261284720Y-60942744D01*
X261338186Y-61071822D01*
X261741858Y-61475494D01*
X262269281Y-61693960D01*
X262840159Y-61693960D01*
X263367582Y-61475494D01*
X263771254Y-61071822D01*
X263824720Y-60942744D01*
X263878186Y-61071822D01*
X264281858Y-61475494D01*
X264809281Y-61693960D01*
X265380159Y-61693960D01*
X265907582Y-61475494D01*
X266311254Y-61071822D01*
X266364720Y-60942744D01*
X266418186Y-61071822D01*
X266821858Y-61475494D01*
X267349281Y-61693960D01*
X267920159Y-61693960D01*
X268387320Y-61500455D01*
X268387320Y-61789935D01*
X268373387Y-61859981D01*
X268385485Y-61920802D01*
X268091858Y-62042426D01*
X267688186Y-62446098D01*
X267634720Y-62575176D01*
X267581254Y-62446098D01*
X267177582Y-62042426D01*
X266650159Y-61823960D01*
X266079281Y-61823960D01*
X265551858Y-62042426D01*
X265148186Y-62446098D01*
X265106076Y-62547760D01*
X265083364Y-62547760D01*
X265041254Y-62446098D01*
X264637582Y-62042426D01*
X264110159Y-61823960D01*
X263539281Y-61823960D01*
X263011858Y-62042426D01*
X262608186Y-62446098D01*
X262566076Y-62547760D01*
X262543364Y-62547760D01*
X262501254Y-62446098D01*
X262097582Y-62042426D01*
X261570159Y-61823960D01*
X260999281Y-61823960D01*
X260471858Y-62042426D01*
X260068186Y-62446098D01*
X259849720Y-62973521D01*
X259849720Y-63544399D01*
X259882676Y-63623961D01*
X248168319Y-63623961D01*
X248162034Y-63617676D01*
X247816618Y-63474600D01*
X247442742Y-63474600D01*
X247097326Y-63617676D01*
X246832956Y-63882046D01*
X246689880Y-64227462D01*
X246689880Y-64601338D01*
X246832956Y-64946754D01*
X247097326Y-65211124D01*
X247442742Y-65354200D01*
X247816618Y-65354200D01*
X248162034Y-65211124D01*
X248326797Y-65046361D01*
X266437933Y-65046361D01*
X272003521Y-70611950D01*
X272003520Y-74240316D01*
X271901858Y-74282426D01*
X271498186Y-74686098D01*
X271444720Y-74815176D01*
X271391254Y-74686098D01*
X270987582Y-74282426D01*
X270874137Y-74235435D01*
X270928725Y-74212824D01*
X271002859Y-73966705D01*
X270174720Y-73138565D01*
X269346581Y-73966705D01*
X269420715Y-74212824D01*
X269479168Y-74233834D01*
X269361858Y-74282426D01*
X268958186Y-74686098D01*
X268904720Y-74815176D01*
X268851254Y-74686098D01*
X268447582Y-74282426D01*
X268318504Y-74228960D01*
X268447582Y-74175494D01*
X268851254Y-73771822D01*
X268898245Y-73658377D01*
X268920856Y-73712965D01*
X269166975Y-73787099D01*
X269995115Y-72958960D01*
X270354325Y-72958960D01*
X271182465Y-73787099D01*
X271428584Y-73712965D01*
X271621685Y-73175737D01*
X271594498Y-72605506D01*
X271428584Y-72204955D01*
X271182465Y-72130821D01*
X270354325Y-72958960D01*
X269995115Y-72958960D01*
X269166975Y-72130821D01*
X268920856Y-72204955D01*
X268899846Y-72263408D01*
X268851254Y-72146098D01*
X268656371Y-71951215D01*
X269346581Y-71951215D01*
X270174720Y-72779355D01*
X271002859Y-71951215D01*
X270928725Y-71705096D01*
X270391497Y-71511995D01*
X269821266Y-71539182D01*
X269420715Y-71705096D01*
X269346581Y-71951215D01*
X268656371Y-71951215D01*
X268447582Y-71742426D01*
X267920159Y-71523960D01*
X267349281Y-71523960D01*
X266821858Y-71742426D01*
X266418186Y-72146098D01*
X266364720Y-72275176D01*
X266311254Y-72146098D01*
X265907582Y-71742426D01*
X265380159Y-71523960D01*
X264809281Y-71523960D01*
X264281858Y-71742426D01*
X263878186Y-72146098D01*
X263659720Y-72673521D01*
X263659720Y-73244399D01*
X263878186Y-73771822D01*
X264281858Y-74175494D01*
X264410936Y-74228960D01*
X264281858Y-74282426D01*
X263878186Y-74686098D01*
X263824720Y-74815176D01*
X263771254Y-74686098D01*
X263367582Y-74282426D01*
X262840159Y-74063960D01*
X262269281Y-74063960D01*
X261741858Y-74282426D01*
X261338186Y-74686098D01*
X261284720Y-74815176D01*
X261231254Y-74686098D01*
X260827582Y-74282426D01*
X260300159Y-74063960D01*
X259729281Y-74063960D01*
X259201858Y-74282426D01*
X258798186Y-74686098D01*
X258744720Y-74815176D01*
X258691254Y-74686098D01*
X258287582Y-74282426D01*
X257760159Y-74063960D01*
X257189281Y-74063960D01*
X256661858Y-74282426D01*
X256258186Y-74686098D01*
X256204720Y-74815176D01*
X256151254Y-74686098D01*
X255747582Y-74282426D01*
X255220159Y-74063960D01*
X254649281Y-74063960D01*
X254121858Y-74282426D01*
X253718186Y-74686098D01*
X253664720Y-74815176D01*
X253611254Y-74686098D01*
X253207582Y-74282426D01*
X252680159Y-74063960D01*
X252109281Y-74063960D01*
X251581858Y-74282426D01*
X251178186Y-74686098D01*
X251124720Y-74815176D01*
X251071254Y-74686098D01*
X250667582Y-74282426D01*
X250140159Y-74063960D01*
X249569281Y-74063960D01*
X249041858Y-74282426D01*
X248638186Y-74686098D01*
X248584720Y-74815176D01*
X248531254Y-74686098D01*
X248127582Y-74282426D01*
X247600159Y-74063960D01*
X247029281Y-74063960D01*
X246501858Y-74282426D01*
X246098186Y-74686098D01*
X246044720Y-74815176D01*
X245991254Y-74686098D01*
X245587582Y-74282426D01*
X245060159Y-74063960D01*
X244489281Y-74063960D01*
X243961858Y-74282426D01*
X243558186Y-74686098D01*
X243511195Y-74799543D01*
X243488584Y-74744955D01*
X243242465Y-74670821D01*
X242414325Y-75498960D01*
X243242465Y-76327099D01*
X243488584Y-76252965D01*
X243509594Y-76194512D01*
X243558186Y-76311822D01*
X243961858Y-76715494D01*
X244489281Y-76933960D01*
X245060159Y-76933960D01*
X245587582Y-76715494D01*
X245991254Y-76311822D01*
X246044720Y-76182744D01*
X246098186Y-76311822D01*
X246501858Y-76715494D01*
X247029281Y-76933960D01*
X247600159Y-76933960D01*
X248127582Y-76715494D01*
X248531254Y-76311822D01*
X248584720Y-76182744D01*
X248638186Y-76311822D01*
X249041858Y-76715494D01*
X249569281Y-76933960D01*
X250140159Y-76933960D01*
X250667582Y-76715494D01*
X251071254Y-76311822D01*
X251124720Y-76182744D01*
X251178186Y-76311822D01*
X251581858Y-76715494D01*
X252109281Y-76933960D01*
X252680159Y-76933960D01*
X253207582Y-76715494D01*
X253611254Y-76311822D01*
X253664720Y-76182744D01*
X253718186Y-76311822D01*
X254121858Y-76715494D01*
X254649281Y-76933960D01*
X255220159Y-76933960D01*
X255747582Y-76715494D01*
X256151254Y-76311822D01*
X256204720Y-76182744D01*
X256258186Y-76311822D01*
X256661858Y-76715494D01*
X257189281Y-76933960D01*
X257760159Y-76933960D01*
X258287582Y-76715494D01*
X258691254Y-76311822D01*
X258744720Y-76182744D01*
X258798186Y-76311822D01*
X259201858Y-76715494D01*
X259729281Y-76933960D01*
X260300159Y-76933960D01*
X260827582Y-76715494D01*
X261231254Y-76311822D01*
X261284720Y-76182744D01*
X261338186Y-76311822D01*
X261741858Y-76715494D01*
X262269281Y-76933960D01*
X262840159Y-76933960D01*
X263367582Y-76715494D01*
X263771254Y-76311822D01*
X263824720Y-76182744D01*
X263878186Y-76311822D01*
X264281858Y-76715494D01*
X264809281Y-76933960D01*
X265380159Y-76933960D01*
X265907582Y-76715494D01*
X266311254Y-76311822D01*
X266364720Y-76182744D01*
X266418186Y-76311822D01*
X266821858Y-76715494D01*
X267349281Y-76933960D01*
X267920159Y-76933960D01*
X268447582Y-76715494D01*
X268851254Y-76311822D01*
X268904720Y-76182744D01*
X268958186Y-76311822D01*
X269361858Y-76715494D01*
X269889281Y-76933960D01*
X270460159Y-76933960D01*
X270987582Y-76715494D01*
X271391254Y-76311822D01*
X271444720Y-76182744D01*
X271498186Y-76311822D01*
X271901858Y-76715494D01*
X272429281Y-76933960D01*
X273000159Y-76933960D01*
X273527582Y-76715494D01*
X273736371Y-76506705D01*
X274426581Y-76506705D01*
X274500715Y-76752824D01*
X275037943Y-76945925D01*
X275608174Y-76918738D01*
X276008725Y-76752824D01*
X276082859Y-76506705D01*
X275254720Y-75678565D01*
X274426581Y-76506705D01*
X273736371Y-76506705D01*
X273931254Y-76311822D01*
X273978245Y-76198377D01*
X274000856Y-76252965D01*
X274246975Y-76327099D01*
X275075115Y-75498960D01*
X274246975Y-74670821D01*
X274000856Y-74744955D01*
X273979846Y-74803408D01*
X273931254Y-74686098D01*
X273527582Y-74282426D01*
X273425920Y-74240316D01*
X273425920Y-70387402D01*
X273439852Y-70317360D01*
X273435730Y-70296639D01*
X274752744Y-71613653D01*
X274441858Y-71742426D01*
X274038186Y-72146098D01*
X273819720Y-72673521D01*
X273819720Y-73244399D01*
X274038186Y-73771822D01*
X274441858Y-74175494D01*
X274555303Y-74222485D01*
X274500715Y-74245096D01*
X274426581Y-74491215D01*
X275254720Y-75319355D01*
X276082859Y-74491215D01*
X276008725Y-74245096D01*
X275950272Y-74224086D01*
X276067582Y-74175494D01*
X276471254Y-73771822D01*
X276600027Y-73460936D01*
X277083520Y-73944429D01*
X277083520Y-74240316D01*
X276981858Y-74282426D01*
X276578186Y-74686098D01*
X276531195Y-74799543D01*
X276508584Y-74744955D01*
X276262465Y-74670821D01*
X275434325Y-75498960D01*
X276262465Y-76327099D01*
X276508584Y-76252965D01*
X276529594Y-76194512D01*
X276578186Y-76311822D01*
X276981858Y-76715494D01*
X277083520Y-76757604D01*
X277083520Y-76885927D01*
X272557368Y-81412080D01*
X247582078Y-81412080D01*
X247496554Y-81326556D01*
X247151138Y-81183480D01*
X246777262Y-81183480D01*
X246431846Y-81326556D01*
X246167476Y-81590926D01*
X246024400Y-81936342D01*
X246024400Y-82310218D01*
X246167476Y-82655634D01*
X246431846Y-82920004D01*
X246777262Y-83063080D01*
X247151138Y-83063080D01*
X247496554Y-82920004D01*
X247582078Y-82834480D01*
X271134967Y-82834480D01*
X263281288Y-90688160D01*
X258839358Y-90688160D01*
X258753834Y-90602636D01*
X258408418Y-90459560D01*
X258034542Y-90459560D01*
X257689126Y-90602636D01*
X257424756Y-90867006D01*
X257281680Y-91212422D01*
X257281680Y-91586298D01*
X257424756Y-91931714D01*
X257510281Y-92017239D01*
X257510280Y-95275451D01*
X255483360Y-97302372D01*
X254125704Y-95944716D01*
X254086026Y-95885334D01*
X253850776Y-95728144D01*
X253643326Y-95686880D01*
X253643321Y-95686880D01*
X253573280Y-95672948D01*
X253503239Y-95686880D01*
X245743118Y-95686880D01*
X245657594Y-95601356D01*
X245312178Y-95458280D01*
X244938302Y-95458280D01*
X244592886Y-95601356D01*
X244328516Y-95865726D01*
X244185440Y-96211142D01*
X244185440Y-96585018D01*
X244328516Y-96930434D01*
X244592886Y-97194804D01*
X244938302Y-97337880D01*
X245312178Y-97337880D01*
X245657594Y-97194804D01*
X245743118Y-97109280D01*
X253278692Y-97109280D01*
X254543560Y-98374149D01*
X254543560Y-98495098D01*
X254686636Y-98840514D01*
X254951006Y-99104884D01*
X255296422Y-99247960D01*
X255670298Y-99247960D01*
X256015714Y-99104884D01*
X256280084Y-98840514D01*
X256423160Y-98495098D01*
X256423160Y-98374148D01*
X258674849Y-96122460D01*
X258734225Y-96082786D01*
X258773900Y-96023409D01*
X258773904Y-96023405D01*
X258891415Y-95847538D01*
X258891415Y-95847537D01*
X258891416Y-95847536D01*
X258932680Y-95640086D01*
X258932680Y-95640083D01*
X258946612Y-95570041D01*
X258932680Y-95499999D01*
X258932680Y-92110560D01*
X263505835Y-92110560D01*
X263575876Y-92124492D01*
X263645917Y-92110560D01*
X263645922Y-92110560D01*
X263853372Y-92069296D01*
X264088622Y-91912106D01*
X264128300Y-91852724D01*
X273305323Y-82675702D01*
X273364702Y-82636026D01*
X273404378Y-82576647D01*
X273500824Y-82480201D01*
X273500826Y-82480198D01*
X277083521Y-78897504D01*
X277083520Y-90820291D01*
X273227852Y-94675960D01*
X273106902Y-94675960D01*
X272761486Y-94819036D01*
X272497116Y-95083406D01*
X272354040Y-95428822D01*
X272354040Y-95549771D01*
X269076194Y-98827618D01*
X269016815Y-98867294D01*
X268977139Y-98926673D01*
X268977136Y-98926676D01*
X268859625Y-99102544D01*
X268804428Y-99380040D01*
X268818361Y-99450086D01*
X268818360Y-100215042D01*
X268732836Y-100300566D01*
X268589760Y-100645982D01*
X268589760Y-101019858D01*
X268732836Y-101365274D01*
X268997206Y-101629644D01*
X269342622Y-101772720D01*
X269716498Y-101772720D01*
X270061914Y-101629644D01*
X270147438Y-101544120D01*
X271983252Y-101544120D01*
X276489160Y-106050029D01*
X276489160Y-106170978D01*
X276632236Y-106516394D01*
X276896606Y-106780764D01*
X277242022Y-106923840D01*
X277615898Y-106923840D01*
X277961314Y-106780764D01*
X278225684Y-106516394D01*
X278368760Y-106170978D01*
X278368760Y-105797102D01*
X278225684Y-105451686D01*
X277961314Y-105187316D01*
X277615898Y-105044240D01*
X277494949Y-105044240D01*
X272830264Y-100379556D01*
X272790586Y-100320174D01*
X272555336Y-100162984D01*
X272347886Y-100121720D01*
X272347881Y-100121720D01*
X272277840Y-100107788D01*
X272207799Y-100121720D01*
X270240760Y-100121720D01*
X270240760Y-99674628D01*
X273359829Y-96555560D01*
X273480778Y-96555560D01*
X273826194Y-96412484D01*
X274090564Y-96148114D01*
X274233640Y-95802698D01*
X274233640Y-95681748D01*
X278248089Y-91667300D01*
X278307465Y-91627626D01*
X278347140Y-91568249D01*
X278347144Y-91568245D01*
X278464655Y-91392377D01*
X278464656Y-91392376D01*
X278505920Y-91184926D01*
X278505920Y-91184922D01*
X278519852Y-91114880D01*
X278505920Y-91044838D01*
X278505920Y-77250559D01*
X278519852Y-77180517D01*
X278505920Y-77110475D01*
X278505920Y-76757604D01*
X278607582Y-76715494D01*
X279011254Y-76311822D01*
X279229720Y-75784399D01*
X279229720Y-75213521D01*
X279011254Y-74686098D01*
X278607582Y-74282426D01*
X278505920Y-74240316D01*
X278505920Y-73719881D01*
X278519852Y-73649839D01*
X278505920Y-73579795D01*
X278505920Y-73579794D01*
X278464656Y-73372344D01*
X278424612Y-73312414D01*
X278347144Y-73196475D01*
X278347140Y-73196471D01*
X278307465Y-73137094D01*
X278248089Y-73097420D01*
X271079719Y-65929051D01*
X271079719Y-64661004D01*
X271159281Y-64693960D01*
X271730159Y-64693960D01*
X272257582Y-64475494D01*
X272661254Y-64071822D01*
X272879720Y-63544399D01*
X272879720Y-62973521D01*
X272661254Y-62446098D01*
X272257582Y-62042426D01*
X271730159Y-61823960D01*
X271159281Y-61823960D01*
X270631858Y-62042426D01*
X270459305Y-62214979D01*
X269938286Y-61693960D01*
X270460159Y-61693960D01*
X270987582Y-61475494D01*
X271391254Y-61071822D01*
X271444720Y-60942744D01*
X271498186Y-61071822D01*
X271901858Y-61475494D01*
X272429281Y-61693960D01*
X273000159Y-61693960D01*
X273527582Y-61475494D01*
X273931254Y-61071822D01*
X273984720Y-60942744D01*
X274038186Y-61071822D01*
X274441858Y-61475494D01*
X274969281Y-61693960D01*
X275540159Y-61693960D01*
X276067582Y-61475494D01*
X276359720Y-61183356D01*
X276359720Y-61185270D01*
X276456393Y-61418659D01*
X276635022Y-61597287D01*
X276868411Y-61693960D01*
X277508970Y-61693960D01*
X277667720Y-61535210D01*
X277667720Y-60385960D01*
X277921720Y-60385960D01*
X277921720Y-61535210D01*
X278080470Y-61693960D01*
X278721029Y-61693960D01*
X278954418Y-61597287D01*
X279133047Y-61418659D01*
X279229720Y-61185270D01*
X279229720Y-60544710D01*
X279070970Y-60385960D01*
X277921720Y-60385960D01*
X277667720Y-60385960D01*
X277647720Y-60385960D01*
X277647720Y-60131960D01*
X277667720Y-60131960D01*
X277667720Y-58982710D01*
X277921720Y-58982710D01*
X277921720Y-60131960D01*
X279070970Y-60131960D01*
X279229720Y-59973210D01*
X279229720Y-59332650D01*
X279133047Y-59099261D01*
X278954418Y-58920633D01*
X278721029Y-58823960D01*
X278080470Y-58823960D01*
X277921720Y-58982710D01*
X277667720Y-58982710D01*
X277508970Y-58823960D01*
X276868411Y-58823960D01*
X276635022Y-58920633D01*
X276456393Y-59099261D01*
X276359720Y-59332650D01*
X276359720Y-59334564D01*
X276067582Y-59042426D01*
X275540159Y-58823960D01*
X274969281Y-58823960D01*
X274441858Y-59042426D01*
X274038186Y-59446098D01*
X273984720Y-59575176D01*
X273931254Y-59446098D01*
X273527582Y-59042426D01*
X273000159Y-58823960D01*
X272429281Y-58823960D01*
X271901858Y-59042426D01*
X271498186Y-59446098D01*
X271444720Y-59575176D01*
X271391254Y-59446098D01*
X270987582Y-59042426D01*
X270460159Y-58823960D01*
X269889281Y-58823960D01*
X269809719Y-58856916D01*
X269809719Y-46161149D01*
X270423589Y-45547280D01*
X270544538Y-45547280D01*
X270889954Y-45404204D01*
X271154324Y-45139834D01*
X271297400Y-44794418D01*
X271297400Y-44420542D01*
X271154324Y-44075126D01*
X270889954Y-43810756D01*
X270544538Y-43667680D01*
X270170662Y-43667680D01*
X269825246Y-43810756D01*
X269739722Y-43896280D01*
X269128189Y-43896280D01*
X262234680Y-37002772D01*
X262234680Y-36881822D01*
X262091604Y-36536406D01*
X261827234Y-36272036D01*
X261481818Y-36128960D01*
X261360869Y-36128960D01*
X252108944Y-26877036D01*
X252069266Y-26817654D01*
X251834016Y-26660464D01*
X251626566Y-26619200D01*
X251626561Y-26619200D01*
X251556520Y-26605268D01*
X251486479Y-26619200D01*
X248389798Y-26619200D01*
X248304274Y-26533676D01*
X247958858Y-26390600D01*
X247584982Y-26390600D01*
X247239566Y-26533676D01*
X246975196Y-26798046D01*
X246832120Y-27143462D01*
X246832120Y-27517338D01*
X246975196Y-27862754D01*
X247239566Y-28127124D01*
X247584982Y-28270200D01*
X247958858Y-28270200D01*
X248304274Y-28127124D01*
X248389798Y-28041600D01*
X251261932Y-28041600D01*
X260355080Y-37134749D01*
X260355080Y-37255698D01*
X260498156Y-37601114D01*
X260762526Y-37865484D01*
X261107942Y-38008560D01*
X261228892Y-38008560D01*
X268281178Y-45060847D01*
X268320854Y-45120226D01*
X268380233Y-45159902D01*
X268380235Y-45159904D01*
X268556102Y-45277415D01*
X268556103Y-45277415D01*
X268556104Y-45277416D01*
X268661009Y-45298283D01*
X268645153Y-45314139D01*
X268585773Y-45353816D01*
X268546097Y-45413195D01*
X268546095Y-45413197D01*
X268468786Y-45528898D01*
X268428583Y-45589066D01*
X268387319Y-45796516D01*
X268387319Y-45796520D01*
X268373387Y-45866561D01*
X268387319Y-45936602D01*
X268387320Y-59017465D01*
X267920159Y-58823960D01*
X267349281Y-58823960D01*
X266821858Y-59042426D01*
X266418186Y-59446098D01*
X266364720Y-59575176D01*
X266311254Y-59446098D01*
X265907582Y-59042426D01*
X265380159Y-58823960D01*
X264809281Y-58823960D01*
X264281858Y-59042426D01*
X263878186Y-59446098D01*
X263824720Y-59575176D01*
X263771254Y-59446098D01*
X263367582Y-59042426D01*
X262840159Y-58823960D01*
X262269281Y-58823960D01*
X261741858Y-59042426D01*
X261338186Y-59446098D01*
X261284720Y-59575176D01*
X261231254Y-59446098D01*
X260827582Y-59042426D01*
X260300159Y-58823960D01*
X259729281Y-58823960D01*
X259201858Y-59042426D01*
X258798186Y-59446098D01*
X258744720Y-59575176D01*
X258691254Y-59446098D01*
X258287582Y-59042426D01*
X257760159Y-58823960D01*
X257189281Y-58823960D01*
X256661858Y-59042426D01*
X256258186Y-59446098D01*
X256204720Y-59575176D01*
X256151254Y-59446098D01*
X255747582Y-59042426D01*
X255220159Y-58823960D01*
X254649281Y-58823960D01*
X254121858Y-59042426D01*
X253718186Y-59446098D01*
X253664720Y-59575176D01*
X253611254Y-59446098D01*
X253207582Y-59042426D01*
X252680159Y-58823960D01*
X252109281Y-58823960D01*
X251581858Y-59042426D01*
X251178186Y-59446098D01*
X251124720Y-59575176D01*
X251071254Y-59446098D01*
X250667582Y-59042426D01*
X250140159Y-58823960D01*
X249569281Y-58823960D01*
X249041858Y-59042426D01*
X248638186Y-59446098D01*
X248584720Y-59575176D01*
X248531254Y-59446098D01*
X248127582Y-59042426D01*
X247600159Y-58823960D01*
X247029281Y-58823960D01*
X246562121Y-59017464D01*
X246562121Y-39457382D01*
X252404880Y-39457382D01*
X252404880Y-39831258D01*
X252547956Y-40176674D01*
X252812326Y-40441044D01*
X253157742Y-40584120D01*
X253531618Y-40584120D01*
X253877034Y-40441044D01*
X253952398Y-40365680D01*
X254591162Y-40365680D01*
X254676686Y-40451204D01*
X255022102Y-40594280D01*
X255395978Y-40594280D01*
X255741394Y-40451204D01*
X256005764Y-40186834D01*
X256148840Y-39841418D01*
X256148840Y-39467542D01*
X256005764Y-39122126D01*
X255741394Y-38857756D01*
X255395978Y-38714680D01*
X255022102Y-38714680D01*
X254676686Y-38857756D01*
X254591162Y-38943280D01*
X253972718Y-38943280D01*
X253877034Y-38847596D01*
X253531618Y-38704520D01*
X253157742Y-38704520D01*
X252812326Y-38847596D01*
X252547956Y-39111966D01*
X252404880Y-39457382D01*
X246562121Y-39457382D01*
X246562121Y-36652907D01*
X251942549Y-31272480D01*
X252063498Y-31272480D01*
X252408914Y-31129404D01*
X252673284Y-30865034D01*
X252816360Y-30519618D01*
X252816360Y-30145742D01*
X252673284Y-29800326D01*
X252408914Y-29535956D01*
X252063498Y-29392880D01*
X251689622Y-29392880D01*
X251344206Y-29535956D01*
X251079836Y-29800326D01*
X250936760Y-30145742D01*
X250936760Y-30266691D01*
X245397555Y-35805897D01*
X245338175Y-35845574D01*
X245298499Y-35904953D01*
X245298497Y-35904955D01*
X245278031Y-35935585D01*
X245180985Y-36080824D01*
X245139721Y-36288274D01*
X245139721Y-36288278D01*
X245125789Y-36358319D01*
X245139721Y-36428360D01*
X245139722Y-58856916D01*
X245060159Y-58823960D01*
X244489281Y-58823960D01*
X243961858Y-59042426D01*
X243558186Y-59446098D01*
X243504720Y-59575176D01*
X243451254Y-59446098D01*
X243047582Y-59042426D01*
X242520159Y-58823960D01*
X241949281Y-58823960D01*
X241421858Y-59042426D01*
X241018186Y-59446098D01*
X240964720Y-59575176D01*
X240911254Y-59446098D01*
X240507582Y-59042426D01*
X239980159Y-58823960D01*
X239409281Y-58823960D01*
X238881858Y-59042426D01*
X238478186Y-59446098D01*
X238424720Y-59575176D01*
X238371254Y-59446098D01*
X237967582Y-59042426D01*
X237440159Y-58823960D01*
X236869281Y-58823960D01*
X236341858Y-59042426D01*
X235938186Y-59446098D01*
X235884720Y-59575176D01*
X235831254Y-59446098D01*
X235427582Y-59042426D01*
X234900159Y-58823960D01*
X234329281Y-58823960D01*
X233801858Y-59042426D01*
X233398186Y-59446098D01*
X233344720Y-59575176D01*
X233291254Y-59446098D01*
X232887582Y-59042426D01*
X232360159Y-58823960D01*
X231789281Y-58823960D01*
X231261858Y-59042426D01*
X230858186Y-59446098D01*
X230804720Y-59575176D01*
X230751254Y-59446098D01*
X230347582Y-59042426D01*
X229820159Y-58823960D01*
X229249281Y-58823960D01*
X228721858Y-59042426D01*
X228318186Y-59446098D01*
X228264720Y-59575176D01*
X228211254Y-59446098D01*
X227807582Y-59042426D01*
X227280159Y-58823960D01*
X226709281Y-58823960D01*
X226181858Y-59042426D01*
X225778186Y-59446098D01*
X225724720Y-59575176D01*
X225671254Y-59446098D01*
X225267582Y-59042426D01*
X224740159Y-58823960D01*
X224169281Y-58823960D01*
X223641858Y-59042426D01*
X223238186Y-59446098D01*
X223184720Y-59575176D01*
X223131254Y-59446098D01*
X222727582Y-59042426D01*
X222200159Y-58823960D01*
X221629281Y-58823960D01*
X221101858Y-59042426D01*
X220698186Y-59446098D01*
X220644720Y-59575176D01*
X220591254Y-59446098D01*
X220187582Y-59042426D01*
X219660159Y-58823960D01*
X219089281Y-58823960D01*
X218561858Y-59042426D01*
X218158186Y-59446098D01*
X217939720Y-59973521D01*
X212906751Y-59973521D01*
X212886523Y-17201902D01*
X251241560Y-17201902D01*
X251241560Y-17575778D01*
X251384636Y-17921194D01*
X251649006Y-18185564D01*
X251994422Y-18328640D01*
X252115372Y-18328640D01*
X262977659Y-29190928D01*
X263017335Y-29250307D01*
X263076714Y-29289983D01*
X263076716Y-29289985D01*
X263252583Y-29407496D01*
X263252584Y-29407496D01*
X263252585Y-29407497D01*
X263460035Y-29448761D01*
X263460038Y-29448761D01*
X263530080Y-29462693D01*
X263600122Y-29448761D01*
X263976585Y-29448761D01*
X264028756Y-29574714D01*
X264293126Y-29839084D01*
X264638542Y-29982160D01*
X264759492Y-29982160D01*
X270494760Y-35717429D01*
X270494759Y-41518305D01*
X270368806Y-41570476D01*
X270104436Y-41834846D01*
X269961360Y-42180262D01*
X269961360Y-42554138D01*
X270104436Y-42899554D01*
X270368806Y-43163924D01*
X270714222Y-43307000D01*
X271088098Y-43307000D01*
X271433514Y-43163924D01*
X271697884Y-42899554D01*
X271840960Y-42554138D01*
X271840960Y-42392180D01*
X271875894Y-42339898D01*
X271875895Y-42339897D01*
X271917159Y-42132447D01*
X271917159Y-42132443D01*
X271931091Y-42062401D01*
X271917159Y-41992359D01*
X271917159Y-35492880D01*
X271931091Y-35422838D01*
X271917159Y-35352796D01*
X271917159Y-35352793D01*
X271875895Y-35145343D01*
X271839997Y-35091618D01*
X271758383Y-34969474D01*
X271758381Y-34969472D01*
X271718705Y-34910093D01*
X271659326Y-34870417D01*
X271410131Y-34621222D01*
X273151600Y-34621222D01*
X273151600Y-34995098D01*
X273294676Y-35340514D01*
X273559046Y-35604884D01*
X273904462Y-35747960D01*
X274278338Y-35747960D01*
X274623754Y-35604884D01*
X274709278Y-35519360D01*
X275022922Y-35519360D01*
X275204966Y-35701404D01*
X275550382Y-35844480D01*
X275924258Y-35844480D01*
X276269674Y-35701404D01*
X276534044Y-35437034D01*
X276677120Y-35091618D01*
X276677120Y-34717742D01*
X276534044Y-34372326D01*
X276269674Y-34107956D01*
X275924258Y-33964880D01*
X275550382Y-33964880D01*
X275231513Y-34096960D01*
X274709278Y-34096960D01*
X274623754Y-34011436D01*
X274278338Y-33868360D01*
X273904462Y-33868360D01*
X273559046Y-34011436D01*
X273294676Y-34275806D01*
X273151600Y-34621222D01*
X271410131Y-34621222D01*
X265765280Y-28976372D01*
X265765280Y-28855422D01*
X265622204Y-28510006D01*
X265357834Y-28245636D01*
X265012418Y-28102560D01*
X264850461Y-28102560D01*
X264798177Y-28067625D01*
X264590727Y-28026361D01*
X264590722Y-28026361D01*
X264520681Y-28012429D01*
X264450640Y-28026361D01*
X263824670Y-28026361D01*
X261726629Y-25928320D01*
X261867898Y-25928320D01*
X262213314Y-25785244D01*
X262477684Y-25520874D01*
X262620760Y-25175458D01*
X262620760Y-24801582D01*
X262477684Y-24456166D01*
X262273438Y-24251920D01*
X264801159Y-24251920D01*
X264871200Y-24265852D01*
X264941241Y-24251920D01*
X264941246Y-24251920D01*
X265148696Y-24210656D01*
X265383946Y-24053466D01*
X265423624Y-23994084D01*
X266075109Y-23342600D01*
X266196058Y-23342600D01*
X266541474Y-23199524D01*
X266805844Y-22935154D01*
X266948920Y-22589738D01*
X266948920Y-22215862D01*
X266805844Y-21870446D01*
X266541474Y-21606076D01*
X266196058Y-21463000D01*
X265822182Y-21463000D01*
X265476766Y-21606076D01*
X265212396Y-21870446D01*
X265069320Y-22215862D01*
X265069320Y-22336811D01*
X264576612Y-22829520D01*
X263353398Y-22829520D01*
X263431900Y-22640000D01*
X263431900Y-22266124D01*
X263288824Y-21920708D01*
X263211578Y-21843462D01*
X263309144Y-21745896D01*
X263452220Y-21400480D01*
X263452220Y-21026604D01*
X263309144Y-20681188D01*
X263044774Y-20416818D01*
X262699358Y-20273742D01*
X262325482Y-20273742D01*
X261980066Y-20416818D01*
X261715696Y-20681188D01*
X261572620Y-21026604D01*
X261572620Y-21400480D01*
X261715696Y-21745896D01*
X261780900Y-21811100D01*
X261780900Y-21835184D01*
X261695376Y-21920708D01*
X261552300Y-22266124D01*
X261552300Y-22640000D01*
X261630802Y-22829520D01*
X260303201Y-22829520D01*
X260233160Y-22815588D01*
X260222630Y-22817682D01*
X260148944Y-22743996D01*
X259803528Y-22600920D01*
X259429652Y-22600920D01*
X259084236Y-22743996D01*
X258819866Y-23008366D01*
X258816002Y-23017694D01*
X253121160Y-17322852D01*
X253121160Y-17201902D01*
X252978084Y-16856486D01*
X252713714Y-16592116D01*
X252368298Y-16449040D01*
X251994422Y-16449040D01*
X251649006Y-16592116D01*
X251384636Y-16856486D01*
X251241560Y-17201902D01*
X212886523Y-17201902D01*
X212886004Y-16106098D01*
X212928880Y-15863477D01*
X213022634Y-15701232D01*
X213166226Y-15580838D01*
X213370435Y-15506599D01*
X213485583Y-15497480D01*
X282808231Y-15497480D01*
X283092005Y-15542990D01*
X283092005Y-15542990D01*
G37*
X283092005Y-15542990D02*
X283255719Y-15634154D01*
X283378378Y-15775811D01*
X283453752Y-15973311D01*
X283465539Y-16121798D01*
X283399675Y-123065490D01*
X283383027Y-123108455D01*
X283324351Y-123405344D01*
X283234770Y-123553380D01*
X283099957Y-123661852D01*
X282901633Y-123729446D01*
X282802414Y-123737050D01*
X282789546Y-123740350D01*
X213558776Y-123795949D01*
X213258844Y-123746192D01*
X213107987Y-123657262D01*
X212999256Y-123519983D01*
X212936708Y-123318926D01*
X212922414Y-93092022D01*
X220080840Y-93092022D01*
X220080840Y-93465898D01*
X220223916Y-93811314D01*
X220309440Y-93896838D01*
X220309441Y-96922394D01*
X220295508Y-96992440D01*
X220350705Y-97269936D01*
X220468216Y-97445804D01*
X220468219Y-97445807D01*
X220507895Y-97505186D01*
X220567274Y-97544862D01*
X224998280Y-101975869D01*
X224998280Y-102096818D01*
X225141356Y-102442234D01*
X225405726Y-102706604D01*
X225751142Y-102849680D01*
X226125018Y-102849680D01*
X226470434Y-102706604D01*
X226555958Y-102621080D01*
X228286119Y-102621080D01*
X228356160Y-102635012D01*
X228426201Y-102621080D01*
X228426206Y-102621080D01*
X228633656Y-102579816D01*
X228868906Y-102422626D01*
X228908584Y-102363244D01*
X235610401Y-95661428D01*
X235610401Y-96023234D01*
X235596468Y-96093280D01*
X235651665Y-96370776D01*
X235769176Y-96546644D01*
X235769179Y-96546647D01*
X235808855Y-96606026D01*
X235868234Y-96645702D01*
X235930440Y-96707908D01*
X235930440Y-96828858D01*
X236073516Y-97174274D01*
X236337886Y-97438644D01*
X236683302Y-97581720D01*
X237057178Y-97581720D01*
X237402594Y-97438644D01*
X237666964Y-97174274D01*
X237810040Y-96828858D01*
X237810040Y-96454982D01*
X237666964Y-96109566D01*
X237402594Y-95845196D01*
X237057178Y-95702120D01*
X237032800Y-95702120D01*
X237032800Y-94562318D01*
X237118324Y-94476794D01*
X237261400Y-94131378D01*
X237261400Y-93757502D01*
X237118324Y-93412086D01*
X236853954Y-93147716D01*
X236508538Y-93004640D01*
X236134662Y-93004640D01*
X235789246Y-93147716D01*
X235524876Y-93412086D01*
X235381800Y-93757502D01*
X235381800Y-93878451D01*
X228061572Y-101198680D01*
X226555958Y-101198680D01*
X226470434Y-101113156D01*
X226125018Y-100970080D01*
X226004069Y-100970080D01*
X221731840Y-96697852D01*
X221731840Y-93896838D01*
X221817364Y-93811314D01*
X221960440Y-93465898D01*
X221960440Y-93344948D01*
X231303589Y-84001800D01*
X231379782Y-84033360D01*
X231753658Y-84033360D01*
X232099074Y-83890284D01*
X232363444Y-83625914D01*
X232506520Y-83280498D01*
X232506520Y-82906622D01*
X232363444Y-82561206D01*
X232099074Y-82296836D01*
X231753658Y-82153760D01*
X231379782Y-82153760D01*
X231034366Y-82296836D01*
X230865359Y-82465843D01*
X230752675Y-82541136D01*
X230752673Y-82541138D01*
X230693294Y-82580814D01*
X230653618Y-82640193D01*
X220954652Y-92339160D01*
X220833702Y-92339160D01*
X220488286Y-92482236D01*
X220223916Y-92746606D01*
X220080840Y-93092022D01*
X212922414Y-93092022D01*
X212910388Y-67662183D01*
X230627755Y-67662183D01*
X230654942Y-68232414D01*
X230820856Y-68632965D01*
X231066975Y-68707099D01*
X231895115Y-67878960D01*
X232254325Y-67878960D01*
X233082465Y-68707099D01*
X233328584Y-68632965D01*
X233521685Y-68095737D01*
X233494498Y-67525506D01*
X233328584Y-67124955D01*
X233082465Y-67050821D01*
X232254325Y-67878960D01*
X231895115Y-67878960D01*
X231066975Y-67050821D01*
X230820856Y-67124955D01*
X230627755Y-67662183D01*
X212910388Y-67662183D01*
X212906751Y-59973521D01*
X217939720Y-59973521D01*
X217939720Y-60544399D01*
X218158186Y-61071822D01*
X218561858Y-61475494D01*
X219089281Y-61693960D01*
X219660159Y-61693960D01*
X220187582Y-61475494D01*
X220591254Y-61071822D01*
X220644720Y-60942744D01*
X220698186Y-61071822D01*
X221101858Y-61475494D01*
X221629281Y-61693960D01*
X222200159Y-61693960D01*
X222727582Y-61475494D01*
X223131254Y-61071822D01*
X223184720Y-60942744D01*
X223238186Y-61071822D01*
X223641858Y-61475494D01*
X224169281Y-61693960D01*
X224740159Y-61693960D01*
X225267582Y-61475494D01*
X225671254Y-61071822D01*
X225724720Y-60942744D01*
X225778186Y-61071822D01*
X226181858Y-61475494D01*
X226709281Y-61693960D01*
X227280159Y-61693960D01*
X227807582Y-61475494D01*
X228211254Y-61071822D01*
X228264720Y-60942744D01*
X228318186Y-61071822D01*
X228721858Y-61475494D01*
X229249281Y-61693960D01*
X229820159Y-61693960D01*
X230347582Y-61475494D01*
X230751254Y-61071822D01*
X230804720Y-60942744D01*
X230858186Y-61071822D01*
X231261858Y-61475494D01*
X231390936Y-61528960D01*
X231261858Y-61582426D01*
X230858186Y-61986098D01*
X230639720Y-62513521D01*
X230639720Y-63084399D01*
X230858186Y-63611822D01*
X231261858Y-64015494D01*
X231390936Y-64068960D01*
X231261858Y-64122426D01*
X230858186Y-64526098D01*
X230639720Y-65053521D01*
X230639720Y-65624399D01*
X230858186Y-66151822D01*
X231261858Y-66555494D01*
X231375303Y-66602485D01*
X231320715Y-66625096D01*
X231246581Y-66871215D01*
X232074720Y-67699355D01*
X232902859Y-66871215D01*
X232828725Y-66625096D01*
X232770272Y-66604086D01*
X232887582Y-66555494D01*
X233291254Y-66151822D01*
X233509720Y-65624399D01*
X233509720Y-65053521D01*
X233291254Y-64526098D01*
X232887582Y-64122426D01*
X232758504Y-64068960D01*
X232887582Y-64015494D01*
X233291254Y-63611822D01*
X233509720Y-63084399D01*
X233509720Y-62513521D01*
X233291254Y-61986098D01*
X232887582Y-61582426D01*
X232758504Y-61528960D01*
X232887582Y-61475494D01*
X233291254Y-61071822D01*
X233344720Y-60942744D01*
X233398186Y-61071822D01*
X233801858Y-61475494D01*
X234329281Y-61693960D01*
X234900159Y-61693960D01*
X235427582Y-61475494D01*
X235831254Y-61071822D01*
X235884720Y-60942744D01*
X235938186Y-61071822D01*
X236341858Y-61475494D01*
X236869281Y-61693960D01*
X237440159Y-61693960D01*
X237967582Y-61475494D01*
X238371254Y-61071822D01*
X238424720Y-60942744D01*
X238478186Y-61071822D01*
X238881858Y-61475494D01*
X239409281Y-61693960D01*
X239980159Y-61693960D01*
X240507582Y-61475494D01*
X240911254Y-61071822D01*
X240964720Y-60942744D01*
X241018186Y-61071822D01*
X241421858Y-61475494D01*
X241949281Y-61693960D01*
X242520159Y-61693960D01*
X243047582Y-61475494D01*
X243451254Y-61071822D01*
X243504720Y-60942744D01*
X243558186Y-61071822D01*
X243961858Y-61475494D01*
X244489281Y-61693960D01*
X245060159Y-61693960D01*
X245139722Y-61661004D01*
X245139722Y-66508169D01*
X237541822Y-74106070D01*
X237440159Y-74063960D01*
X236869281Y-74063960D01*
X236341858Y-74282426D01*
X235938186Y-74686098D01*
X235884720Y-74815176D01*
X235831254Y-74686098D01*
X235427582Y-74282426D01*
X234900159Y-74063960D01*
X234329281Y-74063960D01*
X233801858Y-74282426D01*
X233398186Y-74686098D01*
X233344720Y-74815176D01*
X233291254Y-74686098D01*
X232887582Y-74282426D01*
X232758504Y-74228960D01*
X232887582Y-74175494D01*
X233291254Y-73771822D01*
X233509720Y-73244399D01*
X233509720Y-72673521D01*
X233291254Y-72146098D01*
X232887582Y-71742426D01*
X232758504Y-71688960D01*
X232887582Y-71635494D01*
X233291254Y-71231822D01*
X233509720Y-70704399D01*
X233509720Y-70133521D01*
X233291254Y-69606098D01*
X232887582Y-69202426D01*
X232774137Y-69155435D01*
X232828725Y-69132824D01*
X232902859Y-68886705D01*
X232074720Y-68058565D01*
X231246581Y-68886705D01*
X231320715Y-69132824D01*
X231379168Y-69153834D01*
X231261858Y-69202426D01*
X230858186Y-69606098D01*
X230639720Y-70133521D01*
X230639720Y-70704399D01*
X230858186Y-71231822D01*
X231261858Y-71635494D01*
X231390936Y-71688960D01*
X231261858Y-71742426D01*
X230858186Y-72146098D01*
X230639720Y-72673521D01*
X230639720Y-73244399D01*
X230858186Y-73771822D01*
X231261858Y-74175494D01*
X231390936Y-74228960D01*
X231261858Y-74282426D01*
X230858186Y-74686098D01*
X230804720Y-74815176D01*
X230751254Y-74686098D01*
X230347582Y-74282426D01*
X229820159Y-74063960D01*
X229249281Y-74063960D01*
X228721858Y-74282426D01*
X228318186Y-74686098D01*
X228264720Y-74815176D01*
X228211254Y-74686098D01*
X227807582Y-74282426D01*
X227280159Y-74063960D01*
X226709281Y-74063960D01*
X226181858Y-74282426D01*
X225778186Y-74686098D01*
X225724720Y-74815176D01*
X225671254Y-74686098D01*
X225267582Y-74282426D01*
X224740159Y-74063960D01*
X224169281Y-74063960D01*
X223641858Y-74282426D01*
X223238186Y-74686098D01*
X223184720Y-74815176D01*
X223131254Y-74686098D01*
X222727582Y-74282426D01*
X222200159Y-74063960D01*
X221629281Y-74063960D01*
X221101858Y-74282426D01*
X220698186Y-74686098D01*
X220644720Y-74815176D01*
X220591254Y-74686098D01*
X220187582Y-74282426D01*
X219660159Y-74063960D01*
X219089281Y-74063960D01*
X218561858Y-74282426D01*
X218158186Y-74686098D01*
X217939720Y-75213521D01*
X217939720Y-75784399D01*
X218158186Y-76311822D01*
X218561858Y-76715494D01*
X219089281Y-76933960D01*
X219660159Y-76933960D01*
X220187582Y-76715494D01*
X220591254Y-76311822D01*
X220644720Y-76182744D01*
X220698186Y-76311822D01*
X221101858Y-76715494D01*
X221629281Y-76933960D01*
X222200159Y-76933960D01*
X222727582Y-76715494D01*
X223131254Y-76311822D01*
X223184720Y-76182744D01*
X223238186Y-76311822D01*
X223641858Y-76715494D01*
X224169281Y-76933960D01*
X224740159Y-76933960D01*
X225267582Y-76715494D01*
X225671254Y-76311822D01*
X225724720Y-76182744D01*
X225778186Y-76311822D01*
X226181858Y-76715494D01*
X226709281Y-76933960D01*
X227280159Y-76933960D01*
X227807582Y-76715494D01*
X228211254Y-76311822D01*
X228264720Y-76182744D01*
X228318186Y-76311822D01*
X228721858Y-76715494D01*
X229249281Y-76933960D01*
X229820159Y-76933960D01*
X230347582Y-76715494D01*
X230751254Y-76311822D01*
X230804720Y-76182744D01*
X230858186Y-76311822D01*
X231261858Y-76715494D01*
X231789281Y-76933960D01*
X232360159Y-76933960D01*
X232887582Y-76715494D01*
X233291254Y-76311822D01*
X233344720Y-76182744D01*
X233398186Y-76311822D01*
X233801858Y-76715494D01*
X234329281Y-76933960D01*
X234900159Y-76933960D01*
X235427582Y-76715494D01*
X235831254Y-76311822D01*
X235884720Y-76182744D01*
X235938186Y-76311822D01*
X236341858Y-76715494D01*
X236869281Y-76933960D01*
X237440159Y-76933960D01*
X237967582Y-76715494D01*
X238371254Y-76311822D01*
X238424720Y-76182744D01*
X238478186Y-76311822D01*
X238881858Y-76715494D01*
X239029241Y-76776542D01*
X239029240Y-120192770D01*
X238746015Y-120382015D01*
X238546640Y-120680401D01*
X238347265Y-120382015D01*
X237856058Y-120053801D01*
X237422896Y-119967640D01*
X237130384Y-119967640D01*
X236697222Y-120053801D01*
X236206015Y-120382015D01*
X236006640Y-120680401D01*
X235807265Y-120382015D01*
X235316058Y-120053801D01*
X234882896Y-119967640D01*
X234590384Y-119967640D01*
X234157222Y-120053801D01*
X233666015Y-120382015D01*
X233466640Y-120680401D01*
X233267265Y-120382015D01*
X232776058Y-120053801D01*
X232342896Y-119967640D01*
X232050384Y-119967640D01*
X231617222Y-120053801D01*
X231126015Y-120382015D01*
X230926640Y-120680401D01*
X230727265Y-120382015D01*
X230236058Y-120053801D01*
X229802896Y-119967640D01*
X229510384Y-119967640D01*
X229077222Y-120053801D01*
X228586015Y-120382015D01*
X228386640Y-120680401D01*
X228187265Y-120382015D01*
X227696058Y-120053801D01*
X227262896Y-119967640D01*
X226970384Y-119967640D01*
X226537222Y-120053801D01*
X226046015Y-120382015D01*
X225717801Y-120873222D01*
X225602548Y-121452640D01*
X225717801Y-122032058D01*
X226046015Y-122523265D01*
X226537222Y-122851479D01*
X226970384Y-122937640D01*
X227262896Y-122937640D01*
X227696058Y-122851479D01*
X228187265Y-122523265D01*
X228386640Y-122224879D01*
X228586015Y-122523265D01*
X229077222Y-122851479D01*
X229510384Y-122937640D01*
X229802896Y-122937640D01*
X230236058Y-122851479D01*
X230727265Y-122523265D01*
X230926640Y-122224879D01*
X231126015Y-122523265D01*
X231617222Y-122851479D01*
X232050384Y-122937640D01*
X232342896Y-122937640D01*
X232776058Y-122851479D01*
X233267265Y-122523265D01*
X233466640Y-122224879D01*
X233666015Y-122523265D01*
X234157222Y-122851479D01*
X234590384Y-122937640D01*
X234882896Y-122937640D01*
X235316058Y-122851479D01*
X235807265Y-122523265D01*
X236006640Y-122224879D01*
X236206015Y-122523265D01*
X236697222Y-122851479D01*
X237130384Y-122937640D01*
X237422896Y-122937640D01*
X237856058Y-122851479D01*
X238347265Y-122523265D01*
X238546640Y-122224879D01*
X238746015Y-122523265D01*
X239237222Y-122851479D01*
X239670384Y-122937640D01*
X239962896Y-122937640D01*
X240396058Y-122851479D01*
X240887265Y-122523265D01*
X240901736Y-122501607D01*
X240968313Y-122662338D01*
X241146941Y-122840967D01*
X241380330Y-122937640D01*
X242070890Y-122937640D01*
X242229640Y-122778890D01*
X242229640Y-121579640D01*
X242483640Y-121579640D01*
X242483640Y-122778890D01*
X242642390Y-122937640D01*
X243332950Y-122937640D01*
X243566339Y-122840967D01*
X243744967Y-122662338D01*
X243841640Y-122428949D01*
X243841640Y-121738390D01*
X243682890Y-121579640D01*
X242483640Y-121579640D01*
X242229640Y-121579640D01*
X242209640Y-121579640D01*
X242209640Y-121325640D01*
X242229640Y-121325640D01*
X242229640Y-120126390D01*
X242483640Y-120126390D01*
X242483640Y-121325640D01*
X243682890Y-121325640D01*
X243841640Y-121166890D01*
X243841640Y-120476331D01*
X243744967Y-120242942D01*
X243566339Y-120064313D01*
X243332950Y-119967640D01*
X242642390Y-119967640D01*
X242483640Y-120126390D01*
X242229640Y-120126390D01*
X242070890Y-119967640D01*
X241380330Y-119967640D01*
X241146941Y-120064313D01*
X240968313Y-120242942D01*
X240901736Y-120403673D01*
X240887265Y-120382015D01*
X240604040Y-120192770D01*
X240604040Y-107036622D01*
X244002560Y-107036622D01*
X244002560Y-107410498D01*
X244145636Y-107755914D01*
X244410006Y-108020284D01*
X244755422Y-108163360D01*
X245129298Y-108163360D01*
X245474714Y-108020284D01*
X245739084Y-107755914D01*
X245882160Y-107410498D01*
X245882160Y-107036622D01*
X245739084Y-106691206D01*
X245474714Y-106426836D01*
X245129298Y-106283760D01*
X244755422Y-106283760D01*
X244410006Y-106426836D01*
X244145636Y-106691206D01*
X244002560Y-107036622D01*
X240604040Y-107036622D01*
X240604040Y-76619036D01*
X240716371Y-76506705D01*
X241406581Y-76506705D01*
X241480715Y-76752824D01*
X242017943Y-76945925D01*
X242588174Y-76918738D01*
X242988725Y-76752824D01*
X243062859Y-76506705D01*
X242234720Y-75678565D01*
X241406581Y-76506705D01*
X240716371Y-76506705D01*
X240911254Y-76311822D01*
X240958245Y-76198377D01*
X240980856Y-76252965D01*
X241226975Y-76327099D01*
X242055115Y-75498960D01*
X241226975Y-74670821D01*
X240980856Y-74744955D01*
X240959846Y-74803408D01*
X240911254Y-74686098D01*
X240716371Y-74491215D01*
X241406581Y-74491215D01*
X242234720Y-75319355D01*
X243062859Y-74491215D01*
X242988725Y-74245096D01*
X242451497Y-74051995D01*
X241881266Y-74079182D01*
X241480715Y-74245096D01*
X241406581Y-74491215D01*
X240716371Y-74491215D01*
X240507582Y-74282426D01*
X239980159Y-74063960D01*
X239595508Y-74063960D01*
X246304288Y-67355181D01*
X246363667Y-67315505D01*
X246403343Y-67256126D01*
X246403345Y-67256124D01*
X246520856Y-67080256D01*
X246520857Y-67080255D01*
X246562121Y-66872805D01*
X246562121Y-66872801D01*
X246576053Y-66802759D01*
X246562121Y-66732717D01*
X246562121Y-61500456D01*
X247029281Y-61693960D01*
X247600159Y-61693960D01*
X248127582Y-61475494D01*
X248531254Y-61071822D01*
X248584720Y-60942744D01*
X248638186Y-61071822D01*
X249041858Y-61475494D01*
X249569281Y-61693960D01*
X250140159Y-61693960D01*
X250667582Y-61475494D01*
X251071254Y-61071822D01*
X251124720Y-60942744D01*
X251178186Y-61071822D01*
X251581858Y-61475494D01*
X252109281Y-61693960D01*
X252680159Y-61693960D01*
X253207582Y-61475494D01*
X253611254Y-61071822D01*
X253664720Y-60942744D01*
X253718186Y-61071822D01*
X254121858Y-61475494D01*
X254649281Y-61693960D01*
X255220159Y-61693960D01*
X255747582Y-61475494D01*
X256151254Y-61071822D01*
X256204720Y-60942744D01*
X256258186Y-61071822D01*
X256661858Y-61475494D01*
X257189281Y-61693960D01*
X257760159Y-61693960D01*
X258287582Y-61475494D01*
X258691254Y-61071822D01*
X258744720Y-60942744D01*
X258798186Y-61071822D01*
X259201858Y-61475494D01*
X259729281Y-61693960D01*
X260300159Y-61693960D01*
X260827582Y-61475494D01*
X261231254Y-61071822D01*
X261284720Y-60942744D01*
X261338186Y-61071822D01*
X261741858Y-61475494D01*
X262269281Y-61693960D01*
X262840159Y-61693960D01*
X263367582Y-61475494D01*
X263771254Y-61071822D01*
X263824720Y-60942744D01*
X263878186Y-61071822D01*
X264281858Y-61475494D01*
X264809281Y-61693960D01*
X265380159Y-61693960D01*
X265907582Y-61475494D01*
X266311254Y-61071822D01*
X266364720Y-60942744D01*
X266418186Y-61071822D01*
X266821858Y-61475494D01*
X267349281Y-61693960D01*
X267920159Y-61693960D01*
X268387320Y-61500455D01*
X268387320Y-61789935D01*
X268373387Y-61859981D01*
X268385485Y-61920802D01*
X268091858Y-62042426D01*
X267688186Y-62446098D01*
X267634720Y-62575176D01*
X267581254Y-62446098D01*
X267177582Y-62042426D01*
X266650159Y-61823960D01*
X266079281Y-61823960D01*
X265551858Y-62042426D01*
X265148186Y-62446098D01*
X265106076Y-62547760D01*
X265083364Y-62547760D01*
X265041254Y-62446098D01*
X264637582Y-62042426D01*
X264110159Y-61823960D01*
X263539281Y-61823960D01*
X263011858Y-62042426D01*
X262608186Y-62446098D01*
X262566076Y-62547760D01*
X262543364Y-62547760D01*
X262501254Y-62446098D01*
X262097582Y-62042426D01*
X261570159Y-61823960D01*
X260999281Y-61823960D01*
X260471858Y-62042426D01*
X260068186Y-62446098D01*
X259849720Y-62973521D01*
X259849720Y-63544399D01*
X259882676Y-63623961D01*
X248168319Y-63623961D01*
X248162034Y-63617676D01*
X247816618Y-63474600D01*
X247442742Y-63474600D01*
X247097326Y-63617676D01*
X246832956Y-63882046D01*
X246689880Y-64227462D01*
X246689880Y-64601338D01*
X246832956Y-64946754D01*
X247097326Y-65211124D01*
X247442742Y-65354200D01*
X247816618Y-65354200D01*
X248162034Y-65211124D01*
X248326797Y-65046361D01*
X266437933Y-65046361D01*
X272003521Y-70611950D01*
X272003520Y-74240316D01*
X271901858Y-74282426D01*
X271498186Y-74686098D01*
X271444720Y-74815176D01*
X271391254Y-74686098D01*
X270987582Y-74282426D01*
X270874137Y-74235435D01*
X270928725Y-74212824D01*
X271002859Y-73966705D01*
X270174720Y-73138565D01*
X269346581Y-73966705D01*
X269420715Y-74212824D01*
X269479168Y-74233834D01*
X269361858Y-74282426D01*
X268958186Y-74686098D01*
X268904720Y-74815176D01*
X268851254Y-74686098D01*
X268447582Y-74282426D01*
X268318504Y-74228960D01*
X268447582Y-74175494D01*
X268851254Y-73771822D01*
X268898245Y-73658377D01*
X268920856Y-73712965D01*
X269166975Y-73787099D01*
X269995115Y-72958960D01*
X270354325Y-72958960D01*
X271182465Y-73787099D01*
X271428584Y-73712965D01*
X271621685Y-73175737D01*
X271594498Y-72605506D01*
X271428584Y-72204955D01*
X271182465Y-72130821D01*
X270354325Y-72958960D01*
X269995115Y-72958960D01*
X269166975Y-72130821D01*
X268920856Y-72204955D01*
X268899846Y-72263408D01*
X268851254Y-72146098D01*
X268656371Y-71951215D01*
X269346581Y-71951215D01*
X270174720Y-72779355D01*
X271002859Y-71951215D01*
X270928725Y-71705096D01*
X270391497Y-71511995D01*
X269821266Y-71539182D01*
X269420715Y-71705096D01*
X269346581Y-71951215D01*
X268656371Y-71951215D01*
X268447582Y-71742426D01*
X267920159Y-71523960D01*
X267349281Y-71523960D01*
X266821858Y-71742426D01*
X266418186Y-72146098D01*
X266364720Y-72275176D01*
X266311254Y-72146098D01*
X265907582Y-71742426D01*
X265380159Y-71523960D01*
X264809281Y-71523960D01*
X264281858Y-71742426D01*
X263878186Y-72146098D01*
X263659720Y-72673521D01*
X263659720Y-73244399D01*
X263878186Y-73771822D01*
X264281858Y-74175494D01*
X264410936Y-74228960D01*
X264281858Y-74282426D01*
X263878186Y-74686098D01*
X263824720Y-74815176D01*
X263771254Y-74686098D01*
X263367582Y-74282426D01*
X262840159Y-74063960D01*
X262269281Y-74063960D01*
X261741858Y-74282426D01*
X261338186Y-74686098D01*
X261284720Y-74815176D01*
X261231254Y-74686098D01*
X260827582Y-74282426D01*
X260300159Y-74063960D01*
X259729281Y-74063960D01*
X259201858Y-74282426D01*
X258798186Y-74686098D01*
X258744720Y-74815176D01*
X258691254Y-74686098D01*
X258287582Y-74282426D01*
X257760159Y-74063960D01*
X257189281Y-74063960D01*
X256661858Y-74282426D01*
X256258186Y-74686098D01*
X256204720Y-74815176D01*
X256151254Y-74686098D01*
X255747582Y-74282426D01*
X255220159Y-74063960D01*
X254649281Y-74063960D01*
X254121858Y-74282426D01*
X253718186Y-74686098D01*
X253664720Y-74815176D01*
X253611254Y-74686098D01*
X253207582Y-74282426D01*
X252680159Y-74063960D01*
X252109281Y-74063960D01*
X251581858Y-74282426D01*
X251178186Y-74686098D01*
X251124720Y-74815176D01*
X251071254Y-74686098D01*
X250667582Y-74282426D01*
X250140159Y-74063960D01*
X249569281Y-74063960D01*
X249041858Y-74282426D01*
X248638186Y-74686098D01*
X248584720Y-74815176D01*
X248531254Y-74686098D01*
X248127582Y-74282426D01*
X247600159Y-74063960D01*
X247029281Y-74063960D01*
X246501858Y-74282426D01*
X246098186Y-74686098D01*
X246044720Y-74815176D01*
X245991254Y-74686098D01*
X245587582Y-74282426D01*
X245060159Y-74063960D01*
X244489281Y-74063960D01*
X243961858Y-74282426D01*
X243558186Y-74686098D01*
X243511195Y-74799543D01*
X243488584Y-74744955D01*
X243242465Y-74670821D01*
X242414325Y-75498960D01*
X243242465Y-76327099D01*
X243488584Y-76252965D01*
X243509594Y-76194512D01*
X243558186Y-76311822D01*
X243961858Y-76715494D01*
X244489281Y-76933960D01*
X245060159Y-76933960D01*
X245587582Y-76715494D01*
X245991254Y-76311822D01*
X246044720Y-76182744D01*
X246098186Y-76311822D01*
X246501858Y-76715494D01*
X247029281Y-76933960D01*
X247600159Y-76933960D01*
X248127582Y-76715494D01*
X248531254Y-76311822D01*
X248584720Y-76182744D01*
X248638186Y-76311822D01*
X249041858Y-76715494D01*
X249569281Y-76933960D01*
X250140159Y-76933960D01*
X250667582Y-76715494D01*
X251071254Y-76311822D01*
X251124720Y-76182744D01*
X251178186Y-76311822D01*
X251581858Y-76715494D01*
X252109281Y-76933960D01*
X252680159Y-76933960D01*
X253207582Y-76715494D01*
X253611254Y-76311822D01*
X253664720Y-76182744D01*
X253718186Y-76311822D01*
X254121858Y-76715494D01*
X254649281Y-76933960D01*
X255220159Y-76933960D01*
X255747582Y-76715494D01*
X256151254Y-76311822D01*
X256204720Y-76182744D01*
X256258186Y-76311822D01*
X256661858Y-76715494D01*
X257189281Y-76933960D01*
X257760159Y-76933960D01*
X258287582Y-76715494D01*
X258691254Y-76311822D01*
X258744720Y-76182744D01*
X258798186Y-76311822D01*
X259201858Y-76715494D01*
X259729281Y-76933960D01*
X260300159Y-76933960D01*
X260827582Y-76715494D01*
X261231254Y-76311822D01*
X261284720Y-76182744D01*
X261338186Y-76311822D01*
X261741858Y-76715494D01*
X262269281Y-76933960D01*
X262840159Y-76933960D01*
X263367582Y-76715494D01*
X263771254Y-76311822D01*
X263824720Y-76182744D01*
X263878186Y-76311822D01*
X264281858Y-76715494D01*
X264809281Y-76933960D01*
X265380159Y-76933960D01*
X265907582Y-76715494D01*
X266311254Y-76311822D01*
X266364720Y-76182744D01*
X266418186Y-76311822D01*
X266821858Y-76715494D01*
X267349281Y-76933960D01*
X267920159Y-76933960D01*
X268447582Y-76715494D01*
X268851254Y-76311822D01*
X268904720Y-76182744D01*
X268958186Y-76311822D01*
X269361858Y-76715494D01*
X269889281Y-76933960D01*
X270460159Y-76933960D01*
X270987582Y-76715494D01*
X271391254Y-76311822D01*
X271444720Y-76182744D01*
X271498186Y-76311822D01*
X271901858Y-76715494D01*
X272429281Y-76933960D01*
X273000159Y-76933960D01*
X273527582Y-76715494D01*
X273736371Y-76506705D01*
X274426581Y-76506705D01*
X274500715Y-76752824D01*
X275037943Y-76945925D01*
X275608174Y-76918738D01*
X276008725Y-76752824D01*
X276082859Y-76506705D01*
X275254720Y-75678565D01*
X274426581Y-76506705D01*
X273736371Y-76506705D01*
X273931254Y-76311822D01*
X273978245Y-76198377D01*
X274000856Y-76252965D01*
X274246975Y-76327099D01*
X275075115Y-75498960D01*
X274246975Y-74670821D01*
X274000856Y-74744955D01*
X273979846Y-74803408D01*
X273931254Y-74686098D01*
X273527582Y-74282426D01*
X273425920Y-74240316D01*
X273425920Y-70387402D01*
X273439852Y-70317360D01*
X273435730Y-70296639D01*
X274752744Y-71613653D01*
X274441858Y-71742426D01*
X274038186Y-72146098D01*
X273819720Y-72673521D01*
X273819720Y-73244399D01*
X274038186Y-73771822D01*
X274441858Y-74175494D01*
X274555303Y-74222485D01*
X274500715Y-74245096D01*
X274426581Y-74491215D01*
X275254720Y-75319355D01*
X276082859Y-74491215D01*
X276008725Y-74245096D01*
X275950272Y-74224086D01*
X276067582Y-74175494D01*
X276471254Y-73771822D01*
X276600027Y-73460936D01*
X277083520Y-73944429D01*
X277083520Y-74240316D01*
X276981858Y-74282426D01*
X276578186Y-74686098D01*
X276531195Y-74799543D01*
X276508584Y-74744955D01*
X276262465Y-74670821D01*
X275434325Y-75498960D01*
X276262465Y-76327099D01*
X276508584Y-76252965D01*
X276529594Y-76194512D01*
X276578186Y-76311822D01*
X276981858Y-76715494D01*
X277083520Y-76757604D01*
X277083520Y-76885927D01*
X272557368Y-81412080D01*
X247582078Y-81412080D01*
X247496554Y-81326556D01*
X247151138Y-81183480D01*
X246777262Y-81183480D01*
X246431846Y-81326556D01*
X246167476Y-81590926D01*
X246024400Y-81936342D01*
X246024400Y-82310218D01*
X246167476Y-82655634D01*
X246431846Y-82920004D01*
X246777262Y-83063080D01*
X247151138Y-83063080D01*
X247496554Y-82920004D01*
X247582078Y-82834480D01*
X271134967Y-82834480D01*
X263281288Y-90688160D01*
X258839358Y-90688160D01*
X258753834Y-90602636D01*
X258408418Y-90459560D01*
X258034542Y-90459560D01*
X257689126Y-90602636D01*
X257424756Y-90867006D01*
X257281680Y-91212422D01*
X257281680Y-91586298D01*
X257424756Y-91931714D01*
X257510281Y-92017239D01*
X257510280Y-95275451D01*
X255483360Y-97302372D01*
X254125704Y-95944716D01*
X254086026Y-95885334D01*
X253850776Y-95728144D01*
X253643326Y-95686880D01*
X253643321Y-95686880D01*
X253573280Y-95672948D01*
X253503239Y-95686880D01*
X245743118Y-95686880D01*
X245657594Y-95601356D01*
X245312178Y-95458280D01*
X244938302Y-95458280D01*
X244592886Y-95601356D01*
X244328516Y-95865726D01*
X244185440Y-96211142D01*
X244185440Y-96585018D01*
X244328516Y-96930434D01*
X244592886Y-97194804D01*
X244938302Y-97337880D01*
X245312178Y-97337880D01*
X245657594Y-97194804D01*
X245743118Y-97109280D01*
X253278692Y-97109280D01*
X254543560Y-98374149D01*
X254543560Y-98495098D01*
X254686636Y-98840514D01*
X254951006Y-99104884D01*
X255296422Y-99247960D01*
X255670298Y-99247960D01*
X256015714Y-99104884D01*
X256280084Y-98840514D01*
X256423160Y-98495098D01*
X256423160Y-98374148D01*
X258674849Y-96122460D01*
X258734225Y-96082786D01*
X258773900Y-96023409D01*
X258773904Y-96023405D01*
X258891415Y-95847538D01*
X258891415Y-95847537D01*
X258891416Y-95847536D01*
X258932680Y-95640086D01*
X258932680Y-95640083D01*
X258946612Y-95570041D01*
X258932680Y-95499999D01*
X258932680Y-92110560D01*
X263505835Y-92110560D01*
X263575876Y-92124492D01*
X263645917Y-92110560D01*
X263645922Y-92110560D01*
X263853372Y-92069296D01*
X264088622Y-91912106D01*
X264128300Y-91852724D01*
X273305323Y-82675702D01*
X273364702Y-82636026D01*
X273404378Y-82576647D01*
X273500824Y-82480201D01*
X273500826Y-82480198D01*
X277083521Y-78897504D01*
X277083520Y-90820291D01*
X273227852Y-94675960D01*
X273106902Y-94675960D01*
X272761486Y-94819036D01*
X272497116Y-95083406D01*
X272354040Y-95428822D01*
X272354040Y-95549771D01*
X269076194Y-98827618D01*
X269016815Y-98867294D01*
X268977139Y-98926673D01*
X268977136Y-98926676D01*
X268859625Y-99102544D01*
X268804428Y-99380040D01*
X268818361Y-99450086D01*
X268818360Y-100215042D01*
X268732836Y-100300566D01*
X268589760Y-100645982D01*
X268589760Y-101019858D01*
X268732836Y-101365274D01*
X268997206Y-101629644D01*
X269342622Y-101772720D01*
X269716498Y-101772720D01*
X270061914Y-101629644D01*
X270147438Y-101544120D01*
X271983252Y-101544120D01*
X276489160Y-106050029D01*
X276489160Y-106170978D01*
X276632236Y-106516394D01*
X276896606Y-106780764D01*
X277242022Y-106923840D01*
X277615898Y-106923840D01*
X277961314Y-106780764D01*
X278225684Y-106516394D01*
X278368760Y-106170978D01*
X278368760Y-105797102D01*
X278225684Y-105451686D01*
X277961314Y-105187316D01*
X277615898Y-105044240D01*
X277494949Y-105044240D01*
X272830264Y-100379556D01*
X272790586Y-100320174D01*
X272555336Y-100162984D01*
X272347886Y-100121720D01*
X272347881Y-100121720D01*
X272277840Y-100107788D01*
X272207799Y-100121720D01*
X270240760Y-100121720D01*
X270240760Y-99674628D01*
X273359829Y-96555560D01*
X273480778Y-96555560D01*
X273826194Y-96412484D01*
X274090564Y-96148114D01*
X274233640Y-95802698D01*
X274233640Y-95681748D01*
X278248089Y-91667300D01*
X278307465Y-91627626D01*
X278347140Y-91568249D01*
X278347144Y-91568245D01*
X278464655Y-91392377D01*
X278464656Y-91392376D01*
X278505920Y-91184926D01*
X278505920Y-91184922D01*
X278519852Y-91114880D01*
X278505920Y-91044838D01*
X278505920Y-77250559D01*
X278519852Y-77180517D01*
X278505920Y-77110475D01*
X278505920Y-76757604D01*
X278607582Y-76715494D01*
X279011254Y-76311822D01*
X279229720Y-75784399D01*
X279229720Y-75213521D01*
X279011254Y-74686098D01*
X278607582Y-74282426D01*
X278505920Y-74240316D01*
X278505920Y-73719881D01*
X278519852Y-73649839D01*
X278505920Y-73579795D01*
X278505920Y-73579794D01*
X278464656Y-73372344D01*
X278424612Y-73312414D01*
X278347144Y-73196475D01*
X278347140Y-73196471D01*
X278307465Y-73137094D01*
X278248089Y-73097420D01*
X271079719Y-65929051D01*
X271079719Y-64661004D01*
X271159281Y-64693960D01*
X271730159Y-64693960D01*
X272257582Y-64475494D01*
X272661254Y-64071822D01*
X272879720Y-63544399D01*
X272879720Y-62973521D01*
X272661254Y-62446098D01*
X272257582Y-62042426D01*
X271730159Y-61823960D01*
X271159281Y-61823960D01*
X270631858Y-62042426D01*
X270459305Y-62214979D01*
X269938286Y-61693960D01*
X270460159Y-61693960D01*
X270987582Y-61475494D01*
X271391254Y-61071822D01*
X271444720Y-60942744D01*
X271498186Y-61071822D01*
X271901858Y-61475494D01*
X272429281Y-61693960D01*
X273000159Y-61693960D01*
X273527582Y-61475494D01*
X273931254Y-61071822D01*
X273984720Y-60942744D01*
X274038186Y-61071822D01*
X274441858Y-61475494D01*
X274969281Y-61693960D01*
X275540159Y-61693960D01*
X276067582Y-61475494D01*
X276359720Y-61183356D01*
X276359720Y-61185270D01*
X276456393Y-61418659D01*
X276635022Y-61597287D01*
X276868411Y-61693960D01*
X277508970Y-61693960D01*
X277667720Y-61535210D01*
X277667720Y-60385960D01*
X277921720Y-60385960D01*
X277921720Y-61535210D01*
X278080470Y-61693960D01*
X278721029Y-61693960D01*
X278954418Y-61597287D01*
X279133047Y-61418659D01*
X279229720Y-61185270D01*
X279229720Y-60544710D01*
X279070970Y-60385960D01*
X277921720Y-60385960D01*
X277667720Y-60385960D01*
X277647720Y-60385960D01*
X277647720Y-60131960D01*
X277667720Y-60131960D01*
X277667720Y-58982710D01*
X277921720Y-58982710D01*
X277921720Y-60131960D01*
X279070970Y-60131960D01*
X279229720Y-59973210D01*
X279229720Y-59332650D01*
X279133047Y-59099261D01*
X278954418Y-58920633D01*
X278721029Y-58823960D01*
X278080470Y-58823960D01*
X277921720Y-58982710D01*
X277667720Y-58982710D01*
X277508970Y-58823960D01*
X276868411Y-58823960D01*
X276635022Y-58920633D01*
X276456393Y-59099261D01*
X276359720Y-59332650D01*
X276359720Y-59334564D01*
X276067582Y-59042426D01*
X275540159Y-58823960D01*
X274969281Y-58823960D01*
X274441858Y-59042426D01*
X274038186Y-59446098D01*
X273984720Y-59575176D01*
X273931254Y-59446098D01*
X273527582Y-59042426D01*
X273000159Y-58823960D01*
X272429281Y-58823960D01*
X271901858Y-59042426D01*
X271498186Y-59446098D01*
X271444720Y-59575176D01*
X271391254Y-59446098D01*
X270987582Y-59042426D01*
X270460159Y-58823960D01*
X269889281Y-58823960D01*
X269809719Y-58856916D01*
X269809719Y-46161149D01*
X270423589Y-45547280D01*
X270544538Y-45547280D01*
X270889954Y-45404204D01*
X271154324Y-45139834D01*
X271297400Y-44794418D01*
X271297400Y-44420542D01*
X271154324Y-44075126D01*
X270889954Y-43810756D01*
X270544538Y-43667680D01*
X270170662Y-43667680D01*
X269825246Y-43810756D01*
X269739722Y-43896280D01*
X269128189Y-43896280D01*
X262234680Y-37002772D01*
X262234680Y-36881822D01*
X262091604Y-36536406D01*
X261827234Y-36272036D01*
X261481818Y-36128960D01*
X261360869Y-36128960D01*
X252108944Y-26877036D01*
X252069266Y-26817654D01*
X251834016Y-26660464D01*
X251626566Y-26619200D01*
X251626561Y-26619200D01*
X251556520Y-26605268D01*
X251486479Y-26619200D01*
X248389798Y-26619200D01*
X248304274Y-26533676D01*
X247958858Y-26390600D01*
X247584982Y-26390600D01*
X247239566Y-26533676D01*
X246975196Y-26798046D01*
X246832120Y-27143462D01*
X246832120Y-27517338D01*
X246975196Y-27862754D01*
X247239566Y-28127124D01*
X247584982Y-28270200D01*
X247958858Y-28270200D01*
X248304274Y-28127124D01*
X248389798Y-28041600D01*
X251261932Y-28041600D01*
X260355080Y-37134749D01*
X260355080Y-37255698D01*
X260498156Y-37601114D01*
X260762526Y-37865484D01*
X261107942Y-38008560D01*
X261228892Y-38008560D01*
X268281178Y-45060847D01*
X268320854Y-45120226D01*
X268380233Y-45159902D01*
X268380235Y-45159904D01*
X268556102Y-45277415D01*
X268556103Y-45277415D01*
X268556104Y-45277416D01*
X268661009Y-45298283D01*
X268645153Y-45314139D01*
X268585773Y-45353816D01*
X268546097Y-45413195D01*
X268546095Y-45413197D01*
X268468786Y-45528898D01*
X268428583Y-45589066D01*
X268387319Y-45796516D01*
X268387319Y-45796520D01*
X268373387Y-45866561D01*
X268387319Y-45936602D01*
X268387320Y-59017465D01*
X267920159Y-58823960D01*
X267349281Y-58823960D01*
X266821858Y-59042426D01*
X266418186Y-59446098D01*
X266364720Y-59575176D01*
X266311254Y-59446098D01*
X265907582Y-59042426D01*
X265380159Y-58823960D01*
X264809281Y-58823960D01*
X264281858Y-59042426D01*
X263878186Y-59446098D01*
X263824720Y-59575176D01*
X263771254Y-59446098D01*
X263367582Y-59042426D01*
X262840159Y-58823960D01*
X262269281Y-58823960D01*
X261741858Y-59042426D01*
X261338186Y-59446098D01*
X261284720Y-59575176D01*
X261231254Y-59446098D01*
X260827582Y-59042426D01*
X260300159Y-58823960D01*
X259729281Y-58823960D01*
X259201858Y-59042426D01*
X258798186Y-59446098D01*
X258744720Y-59575176D01*
X258691254Y-59446098D01*
X258287582Y-59042426D01*
X257760159Y-58823960D01*
X257189281Y-58823960D01*
X256661858Y-59042426D01*
X256258186Y-59446098D01*
X256204720Y-59575176D01*
X256151254Y-59446098D01*
X255747582Y-59042426D01*
X255220159Y-58823960D01*
X254649281Y-58823960D01*
X254121858Y-59042426D01*
X253718186Y-59446098D01*
X253664720Y-59575176D01*
X253611254Y-59446098D01*
X253207582Y-59042426D01*
X252680159Y-58823960D01*
X252109281Y-58823960D01*
X251581858Y-59042426D01*
X251178186Y-59446098D01*
X251124720Y-59575176D01*
X251071254Y-59446098D01*
X250667582Y-59042426D01*
X250140159Y-58823960D01*
X249569281Y-58823960D01*
X249041858Y-59042426D01*
X248638186Y-59446098D01*
X248584720Y-59575176D01*
X248531254Y-59446098D01*
X248127582Y-59042426D01*
X247600159Y-58823960D01*
X247029281Y-58823960D01*
X246562121Y-59017464D01*
X246562121Y-39457382D01*
X252404880Y-39457382D01*
X252404880Y-39831258D01*
X252547956Y-40176674D01*
X252812326Y-40441044D01*
X253157742Y-40584120D01*
X253531618Y-40584120D01*
X253877034Y-40441044D01*
X253952398Y-40365680D01*
X254591162Y-40365680D01*
X254676686Y-40451204D01*
X255022102Y-40594280D01*
X255395978Y-40594280D01*
X255741394Y-40451204D01*
X256005764Y-40186834D01*
X256148840Y-39841418D01*
X256148840Y-39467542D01*
X256005764Y-39122126D01*
X255741394Y-38857756D01*
X255395978Y-38714680D01*
X255022102Y-38714680D01*
X254676686Y-38857756D01*
X254591162Y-38943280D01*
X253972718Y-38943280D01*
X253877034Y-38847596D01*
X253531618Y-38704520D01*
X253157742Y-38704520D01*
X252812326Y-38847596D01*
X252547956Y-39111966D01*
X252404880Y-39457382D01*
X246562121Y-39457382D01*
X246562121Y-36652907D01*
X251942549Y-31272480D01*
X252063498Y-31272480D01*
X252408914Y-31129404D01*
X252673284Y-30865034D01*
X252816360Y-30519618D01*
X252816360Y-30145742D01*
X252673284Y-29800326D01*
X252408914Y-29535956D01*
X252063498Y-29392880D01*
X251689622Y-29392880D01*
X251344206Y-29535956D01*
X251079836Y-29800326D01*
X250936760Y-30145742D01*
X250936760Y-30266691D01*
X245397555Y-35805897D01*
X245338175Y-35845574D01*
X245298499Y-35904953D01*
X245298497Y-35904955D01*
X245278031Y-35935585D01*
X245180985Y-36080824D01*
X245139721Y-36288274D01*
X245139721Y-36288278D01*
X245125789Y-36358319D01*
X245139721Y-36428360D01*
X245139722Y-58856916D01*
X245060159Y-58823960D01*
X244489281Y-58823960D01*
X243961858Y-59042426D01*
X243558186Y-59446098D01*
X243504720Y-59575176D01*
X243451254Y-59446098D01*
X243047582Y-59042426D01*
X242520159Y-58823960D01*
X241949281Y-58823960D01*
X241421858Y-59042426D01*
X241018186Y-59446098D01*
X240964720Y-59575176D01*
X240911254Y-59446098D01*
X240507582Y-59042426D01*
X239980159Y-58823960D01*
X239409281Y-58823960D01*
X238881858Y-59042426D01*
X238478186Y-59446098D01*
X238424720Y-59575176D01*
X238371254Y-59446098D01*
X237967582Y-59042426D01*
X237440159Y-58823960D01*
X236869281Y-58823960D01*
X236341858Y-59042426D01*
X235938186Y-59446098D01*
X235884720Y-59575176D01*
X235831254Y-59446098D01*
X235427582Y-59042426D01*
X234900159Y-58823960D01*
X234329281Y-58823960D01*
X233801858Y-59042426D01*
X233398186Y-59446098D01*
X233344720Y-59575176D01*
X233291254Y-59446098D01*
X232887582Y-59042426D01*
X232360159Y-58823960D01*
X231789281Y-58823960D01*
X231261858Y-59042426D01*
X230858186Y-59446098D01*
X230804720Y-59575176D01*
X230751254Y-59446098D01*
X230347582Y-59042426D01*
X229820159Y-58823960D01*
X229249281Y-58823960D01*
X228721858Y-59042426D01*
X228318186Y-59446098D01*
X228264720Y-59575176D01*
X228211254Y-59446098D01*
X227807582Y-59042426D01*
X227280159Y-58823960D01*
X226709281Y-58823960D01*
X226181858Y-59042426D01*
X225778186Y-59446098D01*
X225724720Y-59575176D01*
X225671254Y-59446098D01*
X225267582Y-59042426D01*
X224740159Y-58823960D01*
X224169281Y-58823960D01*
X223641858Y-59042426D01*
X223238186Y-59446098D01*
X223184720Y-59575176D01*
X223131254Y-59446098D01*
X222727582Y-59042426D01*
X222200159Y-58823960D01*
X221629281Y-58823960D01*
X221101858Y-59042426D01*
X220698186Y-59446098D01*
X220644720Y-59575176D01*
X220591254Y-59446098D01*
X220187582Y-59042426D01*
X219660159Y-58823960D01*
X219089281Y-58823960D01*
X218561858Y-59042426D01*
X218158186Y-59446098D01*
X217939720Y-59973521D01*
X212906751Y-59973521D01*
X212886523Y-17201902D01*
X251241560Y-17201902D01*
X251241560Y-17575778D01*
X251384636Y-17921194D01*
X251649006Y-18185564D01*
X251994422Y-18328640D01*
X252115372Y-18328640D01*
X262977659Y-29190928D01*
X263017335Y-29250307D01*
X263076714Y-29289983D01*
X263076716Y-29289985D01*
X263252583Y-29407496D01*
X263252584Y-29407496D01*
X263252585Y-29407497D01*
X263460035Y-29448761D01*
X263460038Y-29448761D01*
X263530080Y-29462693D01*
X263600122Y-29448761D01*
X263976585Y-29448761D01*
X264028756Y-29574714D01*
X264293126Y-29839084D01*
X264638542Y-29982160D01*
X264759492Y-29982160D01*
X270494760Y-35717429D01*
X270494759Y-41518305D01*
X270368806Y-41570476D01*
X270104436Y-41834846D01*
X269961360Y-42180262D01*
X269961360Y-42554138D01*
X270104436Y-42899554D01*
X270368806Y-43163924D01*
X270714222Y-43307000D01*
X271088098Y-43307000D01*
X271433514Y-43163924D01*
X271697884Y-42899554D01*
X271840960Y-42554138D01*
X271840960Y-42392180D01*
X271875894Y-42339898D01*
X271875895Y-42339897D01*
X271917159Y-42132447D01*
X271917159Y-42132443D01*
X271931091Y-42062401D01*
X271917159Y-41992359D01*
X271917159Y-35492880D01*
X271931091Y-35422838D01*
X271917159Y-35352796D01*
X271917159Y-35352793D01*
X271875895Y-35145343D01*
X271839997Y-35091618D01*
X271758383Y-34969474D01*
X271758381Y-34969472D01*
X271718705Y-34910093D01*
X271659326Y-34870417D01*
X271410131Y-34621222D01*
X273151600Y-34621222D01*
X273151600Y-34995098D01*
X273294676Y-35340514D01*
X273559046Y-35604884D01*
X273904462Y-35747960D01*
X274278338Y-35747960D01*
X274623754Y-35604884D01*
X274709278Y-35519360D01*
X275022922Y-35519360D01*
X275204966Y-35701404D01*
X275550382Y-35844480D01*
X275924258Y-35844480D01*
X276269674Y-35701404D01*
X276534044Y-35437034D01*
X276677120Y-35091618D01*
X276677120Y-34717742D01*
X276534044Y-34372326D01*
X276269674Y-34107956D01*
X275924258Y-33964880D01*
X275550382Y-33964880D01*
X275231513Y-34096960D01*
X274709278Y-34096960D01*
X274623754Y-34011436D01*
X274278338Y-33868360D01*
X273904462Y-33868360D01*
X273559046Y-34011436D01*
X273294676Y-34275806D01*
X273151600Y-34621222D01*
X271410131Y-34621222D01*
X265765280Y-28976372D01*
X265765280Y-28855422D01*
X265622204Y-28510006D01*
X265357834Y-28245636D01*
X265012418Y-28102560D01*
X264850461Y-28102560D01*
X264798177Y-28067625D01*
X264590727Y-28026361D01*
X264590722Y-28026361D01*
X264520681Y-28012429D01*
X264450640Y-28026361D01*
X263824670Y-28026361D01*
X261726629Y-25928320D01*
X261867898Y-25928320D01*
X262213314Y-25785244D01*
X262477684Y-25520874D01*
X262620760Y-25175458D01*
X262620760Y-24801582D01*
X262477684Y-24456166D01*
X262273438Y-24251920D01*
X264801159Y-24251920D01*
X264871200Y-24265852D01*
X264941241Y-24251920D01*
X264941246Y-24251920D01*
X265148696Y-24210656D01*
X265383946Y-24053466D01*
X265423624Y-23994084D01*
X266075109Y-23342600D01*
X266196058Y-23342600D01*
X266541474Y-23199524D01*
X266805844Y-22935154D01*
X266948920Y-22589738D01*
X266948920Y-22215862D01*
X266805844Y-21870446D01*
X266541474Y-21606076D01*
X266196058Y-21463000D01*
X265822182Y-21463000D01*
X265476766Y-21606076D01*
X265212396Y-21870446D01*
X265069320Y-22215862D01*
X265069320Y-22336811D01*
X264576612Y-22829520D01*
X263353398Y-22829520D01*
X263431900Y-22640000D01*
X263431900Y-22266124D01*
X263288824Y-21920708D01*
X263211578Y-21843462D01*
X263309144Y-21745896D01*
X263452220Y-21400480D01*
X263452220Y-21026604D01*
X263309144Y-20681188D01*
X263044774Y-20416818D01*
X262699358Y-20273742D01*
X262325482Y-20273742D01*
X261980066Y-20416818D01*
X261715696Y-20681188D01*
X261572620Y-21026604D01*
X261572620Y-21400480D01*
X261715696Y-21745896D01*
X261780900Y-21811100D01*
X261780900Y-21835184D01*
X261695376Y-21920708D01*
X261552300Y-22266124D01*
X261552300Y-22640000D01*
X261630802Y-22829520D01*
X260303201Y-22829520D01*
X260233160Y-22815588D01*
X260222630Y-22817682D01*
X260148944Y-22743996D01*
X259803528Y-22600920D01*
X259429652Y-22600920D01*
X259084236Y-22743996D01*
X258819866Y-23008366D01*
X258816002Y-23017694D01*
X253121160Y-17322852D01*
X253121160Y-17201902D01*
X252978084Y-16856486D01*
X252713714Y-16592116D01*
X252368298Y-16449040D01*
X251994422Y-16449040D01*
X251649006Y-16592116D01*
X251384636Y-16856486D01*
X251241560Y-17201902D01*
X212886523Y-17201902D01*
X212886004Y-16106098D01*
X212928880Y-15863477D01*
X213022634Y-15701232D01*
X213166226Y-15580838D01*
X213370435Y-15506599D01*
X213485583Y-15497480D01*
X282808231Y-15497480D01*
X283092005Y-15542990D01*
G36*
X267688186Y-64071822D02*
X268091858Y-64475494D01*
X268619281Y-64693960D01*
X269190159Y-64693960D01*
X269657319Y-64500456D01*
X269657320Y-66153593D01*
X269643387Y-66223639D01*
X269647509Y-66244360D01*
X267528112Y-64124964D01*
X267581254Y-64071822D01*
X267634720Y-63942744D01*
X267688186Y-64071822D01*
X267688186Y-64071822D01*
G37*
X267688186Y-64071822D02*
X268091858Y-64475494D01*
X268619281Y-64693960D01*
X269190159Y-64693960D01*
X269657319Y-64500456D01*
X269657320Y-66153593D01*
X269643387Y-66223639D01*
X269647509Y-66244360D01*
X267528112Y-64124964D01*
X267581254Y-64071822D01*
X267634720Y-63942744D01*
X267688186Y-64071822D01*
G04 #@! TD*
M02*
