G04 #@! TF.GenerationSoftware,KiCad,Pcbnew,5.0.1-33cea8e~68~ubuntu18.04.1*
G04 #@! TF.CreationDate,2019-11-27T16:09:25-05:00*
G04 #@! TF.ProjectId,new_synth_transistor,6E65775F73796E74685F7472616E7369,rev?*
G04 #@! TF.SameCoordinates,Original*
G04 #@! TF.FileFunction,Legend,Top*
G04 #@! TF.FilePolarity,Positive*
%FSLAX46Y46*%
G04 Gerber Fmt 4.6, Leading zero omitted, Abs format (unit mm)*
G04 Created by KiCad (PCBNEW 5.0.1-33cea8e~68~ubuntu18.04.1) date Wed 27 Nov 2019 04:09:25 PM EST*
%MOMM*%
%LPD*%
G01*
G04 APERTURE LIST*
%ADD10C,0.200000*%
%ADD11C,0.127000*%
%ADD12C,0.152400*%
%ADD13C,0.150000*%
%ADD14C,0.100000*%
%ADD15C,0.120000*%
%ADD16C,0.050000*%
G04 APERTURE END LIST*
D10*
G04 #@! TO.C,U12*
X272691529Y-33233212D02*
G75*
G03X272691529Y-33233212I-100000J0D01*
G01*
D11*
X272811529Y-35278212D02*
X272811529Y-39278212D01*
X263951529Y-35278212D02*
X263951529Y-39278212D01*
G04 #@! TO.C,U10*
X231613448Y-90657494D02*
G75*
G03X231613448Y-90657494I-127000J0D01*
G01*
G04 #@! TO.C,U6*
X271607280Y-92435680D02*
G75*
G03X271607280Y-92435680I-127000J0D01*
G01*
G04 #@! TO.C,U4*
X233919970Y-100095153D02*
G75*
G03X233919970Y-100095153I-127000J0D01*
G01*
D12*
G04 #@! TO.C,U11*
X259609200Y-33745902D02*
X259609200Y-27903902D01*
X259609200Y-27903902D02*
X258659240Y-27903902D01*
X248865000Y-27903902D02*
X248865000Y-33745902D01*
X248865000Y-33745902D02*
X249814960Y-33745902D01*
X258659240Y-33745902D02*
X259609200Y-33745902D01*
X249814960Y-27903902D02*
X248865000Y-27903902D01*
X255316600Y-25859202D02*
X255697600Y-25859202D01*
X255697600Y-25859202D02*
X255697600Y-26113202D01*
X255697600Y-26113202D02*
X255316600Y-26113202D01*
X255316600Y-26113202D02*
X255316600Y-25859202D01*
D13*
G04 #@! TO.C,U8*
X262554720Y-71688960D02*
X262554720Y-69148960D01*
X262554720Y-69148960D02*
X260014720Y-69148960D01*
X260014720Y-69148960D02*
X260014720Y-71688960D01*
X260014720Y-71688960D02*
X262554720Y-71688960D01*
X254934720Y-62798960D02*
X258744720Y-62798960D01*
X258744720Y-62798960D02*
X258744720Y-65338960D01*
X258744720Y-65338960D02*
X254934720Y-65338960D01*
X254934720Y-65338960D02*
X254934720Y-62798960D01*
X240964720Y-61528960D02*
X240964720Y-74228960D01*
X253664720Y-74228960D02*
X253664720Y-61528960D01*
X253664720Y-61528960D02*
X240964720Y-61528960D01*
X253664720Y-74228960D02*
X240964720Y-74228960D01*
X219374720Y-62798960D02*
X218104720Y-62798960D01*
X219374720Y-64068960D02*
X218104720Y-64068960D01*
X219374720Y-65338960D02*
X218104720Y-65338960D01*
X219374720Y-66608960D02*
X218104720Y-66608960D01*
X219374720Y-67878960D02*
X218104720Y-67878960D01*
X219374720Y-69148960D02*
X218104720Y-69148960D01*
X219374720Y-70418960D02*
X218104720Y-70418960D01*
X219374720Y-71688960D02*
X218104720Y-71688960D01*
X219374720Y-72958960D02*
X218104720Y-72958960D01*
X218104720Y-61528960D02*
X219374720Y-62798960D01*
X219374720Y-62798960D02*
X219374720Y-72958960D01*
X219374720Y-72958960D02*
X218104720Y-74228960D01*
X218104720Y-74228960D02*
X230804720Y-74228960D01*
X230804720Y-74228960D02*
X230804720Y-61528960D01*
X230804720Y-61528960D02*
X218104720Y-61528960D01*
X218104720Y-76768960D02*
X279064720Y-76768960D01*
X279064720Y-58988960D02*
X218104720Y-58988960D01*
X279064720Y-64068960D02*
X280334720Y-64068960D01*
X280334720Y-64068960D02*
X280334720Y-71688960D01*
X280334720Y-71688960D02*
X279064720Y-71688960D01*
X273984720Y-64068960D02*
X273984720Y-71688960D01*
X273984720Y-71688960D02*
X279064720Y-71688960D01*
X273984720Y-64068960D02*
X279064720Y-64068960D01*
X234614720Y-70418960D02*
X234614720Y-65338960D01*
X234614720Y-65338960D02*
X237154720Y-65338960D01*
X237154720Y-65338960D02*
X237154720Y-70418960D01*
X237154720Y-70418960D02*
X234614720Y-70418960D01*
X218104720Y-76768960D02*
X218104720Y-58988960D01*
X279064720Y-58988960D02*
X279064720Y-76768960D01*
D14*
G36*
X247568720Y-72831960D02*
X247314720Y-72577960D01*
X247695720Y-72323960D01*
X247949720Y-72577960D01*
X247568720Y-72831960D01*
G37*
X247568720Y-72831960D02*
X247314720Y-72577960D01*
X247695720Y-72323960D01*
X247949720Y-72577960D01*
X247568720Y-72831960D01*
G36*
X247822720Y-71307960D02*
X247568720Y-71053960D01*
X247949720Y-70799960D01*
X248203720Y-71053960D01*
X247822720Y-71307960D01*
G37*
X247822720Y-71307960D02*
X247568720Y-71053960D01*
X247949720Y-70799960D01*
X248203720Y-71053960D01*
X247822720Y-71307960D01*
G36*
X247949720Y-70545960D02*
X247695720Y-70291960D01*
X248076720Y-70037960D01*
X248330720Y-70291960D01*
X247949720Y-70545960D01*
G37*
X247949720Y-70545960D02*
X247695720Y-70291960D01*
X248076720Y-70037960D01*
X248330720Y-70291960D01*
X247949720Y-70545960D01*
G36*
X246806720Y-72069960D02*
X246552720Y-71815960D01*
X246933720Y-71561960D01*
X247187720Y-71815960D01*
X246806720Y-72069960D01*
G37*
X246806720Y-72069960D02*
X246552720Y-71815960D01*
X246933720Y-71561960D01*
X247187720Y-71815960D01*
X246806720Y-72069960D01*
G36*
X247441720Y-70926960D02*
X247187720Y-70672960D01*
X247568720Y-70418960D01*
X247822720Y-70672960D01*
X247441720Y-70926960D01*
G37*
X247441720Y-70926960D02*
X247187720Y-70672960D01*
X247568720Y-70418960D01*
X247822720Y-70672960D01*
X247441720Y-70926960D01*
G36*
X246933720Y-71307960D02*
X246679720Y-71053960D01*
X247060720Y-70799960D01*
X247314720Y-71053960D01*
X246933720Y-71307960D01*
G37*
X246933720Y-71307960D02*
X246679720Y-71053960D01*
X247060720Y-70799960D01*
X247314720Y-71053960D01*
X246933720Y-71307960D01*
G36*
X247187720Y-72450960D02*
X246933720Y-72196960D01*
X247314720Y-71942960D01*
X247568720Y-72196960D01*
X247187720Y-72450960D01*
G37*
X247187720Y-72450960D02*
X246933720Y-72196960D01*
X247314720Y-71942960D01*
X247568720Y-72196960D01*
X247187720Y-72450960D01*
G36*
X247314720Y-71688960D02*
X247060720Y-71434960D01*
X247441720Y-71180960D01*
X247695720Y-71434960D01*
X247314720Y-71688960D01*
G37*
X247314720Y-71688960D02*
X247060720Y-71434960D01*
X247441720Y-71180960D01*
X247695720Y-71434960D01*
X247314720Y-71688960D01*
D15*
G04 #@! TO.C,C1*
X248168816Y-91084711D02*
X248685972Y-91084711D01*
X248168816Y-92504711D02*
X248685972Y-92504711D01*
G04 #@! TO.C,C2*
X224901172Y-93111353D02*
X225418328Y-93111353D01*
X224901172Y-94531353D02*
X225418328Y-94531353D01*
G04 #@! TO.C,C3*
X248292717Y-103458921D02*
X248809873Y-103458921D01*
X248292717Y-102038921D02*
X248809873Y-102038921D01*
G04 #@! TO.C,C4*
X281040338Y-98400800D02*
X280523182Y-98400800D01*
X281040338Y-99820800D02*
X280523182Y-99820800D01*
G04 #@! TO.C,C5*
X268804320Y-110875578D02*
X268804320Y-110358422D01*
X270224320Y-110875578D02*
X270224320Y-110358422D01*
G04 #@! TO.C,C6*
X237341480Y-104312218D02*
X237341480Y-103795062D01*
X235921480Y-104312218D02*
X235921480Y-103795062D01*
G04 #@! TO.C,C7*
X222043230Y-84456014D02*
X222560386Y-84456014D01*
X222043230Y-85876014D02*
X222560386Y-85876014D01*
G04 #@! TO.C,C8*
X267596998Y-32347702D02*
X267079842Y-32347702D01*
X267596998Y-30927702D02*
X267079842Y-30927702D01*
D12*
G04 #@! TO.C,CR1*
X245723020Y-41218582D02*
X244453020Y-41218582D01*
X244707020Y-40583582D02*
X244707020Y-41853582D01*
X244707020Y-41218582D02*
X245469020Y-40583582D01*
X244707020Y-41218582D02*
X245469020Y-40710582D01*
X244707020Y-41218582D02*
X245469020Y-40837582D01*
X244707020Y-41218582D02*
X245469020Y-40964582D01*
X244707020Y-41218582D02*
X245469020Y-41091582D01*
X244707020Y-41218582D02*
X245469020Y-41853582D01*
X244707020Y-41218582D02*
X245469020Y-41726582D01*
X244707020Y-41218582D02*
X245469020Y-41599582D01*
X244707020Y-41218582D02*
X245469020Y-41472582D01*
X244707020Y-41218582D02*
X245469020Y-41345582D01*
X245469020Y-40583582D02*
X245469020Y-41853582D01*
X247031120Y-42069482D02*
X249088520Y-42069482D01*
X249088520Y-42069482D02*
X249088520Y-41792622D01*
X249088520Y-40367682D02*
X247031120Y-40367682D01*
X247031120Y-40367682D02*
X247031120Y-40644542D01*
X247031120Y-41792622D02*
X247031120Y-42069482D01*
X249088520Y-40644542D02*
X249088520Y-40367682D01*
G04 #@! TO.C,CR2*
X263347249Y-43783152D02*
X263624109Y-43783152D01*
X262199169Y-41725752D02*
X261922309Y-41725752D01*
X263624109Y-41725752D02*
X263347249Y-41725752D01*
X263624109Y-43783152D02*
X263624109Y-41725752D01*
X261922309Y-43783152D02*
X262199169Y-43783152D01*
X261922309Y-41725752D02*
X261922309Y-43783152D01*
X263408209Y-40163652D02*
X262138209Y-40163652D01*
X262773209Y-39401652D02*
X262646209Y-40163652D01*
X262773209Y-39401652D02*
X262519209Y-40163652D01*
X262773209Y-39401652D02*
X262392209Y-40163652D01*
X262773209Y-39401652D02*
X262265209Y-40163652D01*
X262773209Y-39401652D02*
X262138209Y-40163652D01*
X262773209Y-39401652D02*
X262900209Y-40163652D01*
X262773209Y-39401652D02*
X263027209Y-40163652D01*
X262773209Y-39401652D02*
X263154209Y-40163652D01*
X262773209Y-39401652D02*
X263281209Y-40163652D01*
X262773209Y-39401652D02*
X263408209Y-40163652D01*
X263408209Y-39401652D02*
X262138209Y-39401652D01*
X262773209Y-40417652D02*
X262773209Y-39147652D01*
G04 #@! TO.C,CR3*
X254145660Y-43293762D02*
X254422520Y-43293762D01*
X252997580Y-41236362D02*
X252720720Y-41236362D01*
X254422520Y-41236362D02*
X254145660Y-41236362D01*
X254422520Y-43293762D02*
X254422520Y-41236362D01*
X252720720Y-43293762D02*
X252997580Y-43293762D01*
X252720720Y-41236362D02*
X252720720Y-43293762D01*
X254206620Y-39674262D02*
X252936620Y-39674262D01*
X253571620Y-38912262D02*
X253444620Y-39674262D01*
X253571620Y-38912262D02*
X253317620Y-39674262D01*
X253571620Y-38912262D02*
X253190620Y-39674262D01*
X253571620Y-38912262D02*
X253063620Y-39674262D01*
X253571620Y-38912262D02*
X252936620Y-39674262D01*
X253571620Y-38912262D02*
X253698620Y-39674262D01*
X253571620Y-38912262D02*
X253825620Y-39674262D01*
X253571620Y-38912262D02*
X253952620Y-39674262D01*
X253571620Y-38912262D02*
X254079620Y-39674262D01*
X253571620Y-38912262D02*
X254206620Y-39674262D01*
X254206620Y-38912262D02*
X252936620Y-38912262D01*
X253571620Y-39928262D02*
X253571620Y-38658262D01*
G04 #@! TO.C,CR4*
X256258940Y-39913022D02*
X254988940Y-39913022D01*
X255242940Y-39278022D02*
X255242940Y-40548022D01*
X255242940Y-39913022D02*
X256004940Y-39278022D01*
X255242940Y-39913022D02*
X256004940Y-39405022D01*
X255242940Y-39913022D02*
X256004940Y-39532022D01*
X255242940Y-39913022D02*
X256004940Y-39659022D01*
X255242940Y-39913022D02*
X256004940Y-39786022D01*
X255242940Y-39913022D02*
X256004940Y-40548022D01*
X255242940Y-39913022D02*
X256004940Y-40421022D01*
X255242940Y-39913022D02*
X256004940Y-40294022D01*
X255242940Y-39913022D02*
X256004940Y-40167022D01*
X255242940Y-39913022D02*
X256004940Y-40040022D01*
X256004940Y-39278022D02*
X256004940Y-40548022D01*
X257567040Y-40763922D02*
X259624440Y-40763922D01*
X259624440Y-40763922D02*
X259624440Y-40487062D01*
X259624440Y-39062122D02*
X257567040Y-39062122D01*
X257567040Y-39062122D02*
X257567040Y-39338982D01*
X257567040Y-40487062D02*
X257567040Y-40763922D01*
X259624440Y-39338982D02*
X259624440Y-39062122D01*
D15*
G04 #@! TO.C,J1*
X243686640Y-120122640D02*
X243686640Y-121452640D01*
X242356640Y-120122640D02*
X243686640Y-120122640D01*
X241086640Y-120122640D02*
X241086640Y-122782640D01*
X241086640Y-122782640D02*
X225786640Y-122782640D01*
X241086640Y-120122640D02*
X225786640Y-120122640D01*
X225786640Y-120122640D02*
X225786640Y-122782640D01*
G04 #@! TO.C,Q1*
X275381840Y-22516560D02*
X274451840Y-22516560D01*
X272221840Y-22516560D02*
X273151840Y-22516560D01*
X272221840Y-22516560D02*
X272221840Y-24676560D01*
X275381840Y-22516560D02*
X275381840Y-23976560D01*
G04 #@! TO.C,Q2*
X253327700Y-47753782D02*
X253327700Y-46293782D01*
X256487700Y-47753782D02*
X256487700Y-45593782D01*
X256487700Y-47753782D02*
X255557700Y-47753782D01*
X253327700Y-47753782D02*
X254257700Y-47753782D01*
G04 #@! TO.C,Q3*
X263706100Y-25463502D02*
X263706100Y-24003502D01*
X266866100Y-25463502D02*
X266866100Y-23303502D01*
X266866100Y-25463502D02*
X265936100Y-25463502D01*
X263706100Y-25463502D02*
X264636100Y-25463502D01*
G04 #@! TO.C,Q4*
X251681740Y-21170902D02*
X252611740Y-21170902D01*
X254841740Y-21170902D02*
X253911740Y-21170902D01*
X254841740Y-21170902D02*
X254841740Y-19010902D01*
X251681740Y-21170902D02*
X251681740Y-19710902D01*
G04 #@! TO.C,R1*
X243698913Y-49374745D02*
X243698913Y-48857589D01*
X242278913Y-49374745D02*
X242278913Y-48857589D01*
G04 #@! TO.C,R2*
X242304313Y-45519025D02*
X242304313Y-45001869D01*
X243724313Y-45519025D02*
X243724313Y-45001869D01*
G04 #@! TO.C,R3*
X270143738Y-23168680D02*
X269626582Y-23168680D01*
X270143738Y-21748680D02*
X269626582Y-21748680D01*
G04 #@! TO.C,R4*
X256615042Y-38210022D02*
X257132198Y-38210022D01*
X256615042Y-36790022D02*
X257132198Y-36790022D01*
G04 #@! TO.C,R5*
X255272918Y-51981902D02*
X254755762Y-51981902D01*
X255272918Y-50561902D02*
X254755762Y-50561902D01*
G04 #@! TO.C,R6*
X259492098Y-25606542D02*
X258974942Y-25606542D01*
X259492098Y-24186542D02*
X258974942Y-24186542D01*
G04 #@! TO.C,R7*
X259098158Y-44664022D02*
X258581002Y-44664022D01*
X259098158Y-46084022D02*
X258581002Y-46084022D01*
G04 #@! TO.C,R8*
X267725707Y-45313572D02*
X267208551Y-45313572D01*
X267725707Y-43893572D02*
X267208551Y-43893572D01*
G04 #@! TO.C,R9*
X268006111Y-43139332D02*
X268523267Y-43139332D01*
X268006111Y-41719332D02*
X268523267Y-41719332D01*
G04 #@! TO.C,R10*
X254085202Y-24295902D02*
X254602358Y-24295902D01*
X254085202Y-22875902D02*
X254602358Y-22875902D01*
G04 #@! TO.C,R11*
X260937118Y-50455222D02*
X260419962Y-50455222D01*
X260937118Y-51875222D02*
X260419962Y-51875222D01*
G04 #@! TO.C,R12*
X259138798Y-47031302D02*
X258621642Y-47031302D01*
X259138798Y-48451302D02*
X258621642Y-48451302D01*
G04 #@! TO.C,R13*
X267354860Y-28873680D02*
X267354860Y-28356524D01*
X268774860Y-28873680D02*
X268774860Y-28356524D01*
G04 #@! TO.C,R14*
X261705900Y-34324520D02*
X261705900Y-33807364D01*
X263125900Y-34324520D02*
X263125900Y-33807364D01*
G04 #@! TO.C,R15*
X261665260Y-30255440D02*
X261665260Y-29738284D01*
X263085260Y-30255440D02*
X263085260Y-29738284D01*
G04 #@! TO.C,RA1*
X248614852Y-95666871D02*
X248097696Y-95666871D01*
X248614852Y-97086871D02*
X248097696Y-97086871D01*
G04 #@! TO.C,RA2*
X226639130Y-98774855D02*
X226639130Y-99292011D01*
X225219130Y-98774855D02*
X225219130Y-99292011D01*
G04 #@! TO.C,RA3*
X248835273Y-106489001D02*
X248318117Y-106489001D01*
X248835273Y-107909001D02*
X248318117Y-107909001D01*
G04 #@! TO.C,RA4*
X280734840Y-93977198D02*
X280734840Y-93460042D01*
X279314840Y-93977198D02*
X279314840Y-93460042D01*
G04 #@! TO.C,RA5*
X274454163Y-110590697D02*
X274971319Y-110590697D01*
X274454163Y-109170697D02*
X274971319Y-109170697D01*
G04 #@! TO.C,RA6*
X241678722Y-104001640D02*
X242195878Y-104001640D01*
X241678722Y-102581640D02*
X242195878Y-102581640D01*
G04 #@! TO.C,RA7*
X222277608Y-90099196D02*
X222277608Y-90616352D01*
X223697608Y-90099196D02*
X223697608Y-90616352D01*
G04 #@! TO.C,RB1*
X248685972Y-94775471D02*
X248168816Y-94775471D01*
X248685972Y-93355471D02*
X248168816Y-93355471D01*
G04 #@! TO.C,RB2*
X225440948Y-96776713D02*
X224923792Y-96776713D01*
X225440948Y-95356713D02*
X224923792Y-95356713D01*
G04 #@! TO.C,RB3*
X248843133Y-105658561D02*
X248325977Y-105658561D01*
X248843133Y-104238561D02*
X248325977Y-104238561D01*
G04 #@! TO.C,RB4*
X280480242Y-96150360D02*
X280997398Y-96150360D01*
X280480242Y-97570360D02*
X280997398Y-97570360D01*
G04 #@! TO.C,RB5*
X272556040Y-110353342D02*
X272556040Y-110870498D01*
X271136040Y-110353342D02*
X271136040Y-110870498D01*
G04 #@! TO.C,RB6*
X239566520Y-103764582D02*
X239566520Y-104281738D01*
X238146520Y-103764582D02*
X238146520Y-104281738D01*
G04 #@! TO.C,RB7*
X222588566Y-88101054D02*
X222071410Y-88101054D01*
X222588566Y-86681054D02*
X222071410Y-86681054D01*
D11*
G04 #@! TO.C,U1*
X263038840Y-102052360D02*
X267038840Y-102052360D01*
X263038840Y-93192360D02*
X267038840Y-93192360D01*
D10*
X261093840Y-93412360D02*
G75*
G03X261093840Y-93412360I-100000J0D01*
G01*
G04 #@! TO.C,U2*
X234385840Y-92975480D02*
G75*
G03X234385840Y-92975480I-100000J0D01*
G01*
D11*
X234065840Y-90930480D02*
X234065840Y-86930480D01*
X242925840Y-90930480D02*
X242925840Y-86930480D01*
G04 #@! TO.C,U3*
X258294832Y-98312968D02*
G75*
G03X258294832Y-98312968I-127000J0D01*
G01*
G04 #@! TO.C,U5*
X258406612Y-104435780D02*
G75*
G03X258406612Y-104435780I-127000J0D01*
G01*
G04 #@! TO.C,U7*
X276744741Y-100889097D02*
G75*
G03X276744741Y-100889097I-127000J0D01*
G01*
G04 #@! TO.C,U9*
X243570760Y-95377000D02*
G75*
G03X243570760Y-95377000I-127000J0D01*
G01*
G04 #@! TO.C,U12*
D16*
X273075909Y-37086307D02*
X273885433Y-37086307D01*
X273980671Y-37038688D01*
X274028290Y-36991069D01*
X274075909Y-36895831D01*
X274075909Y-36705354D01*
X274028290Y-36610116D01*
X273980671Y-36562497D01*
X273885433Y-36514878D01*
X273075909Y-36514878D01*
X274075909Y-35514878D02*
X274075909Y-36086307D01*
X274075909Y-35800592D02*
X273075909Y-35800592D01*
X273218767Y-35895831D01*
X273314005Y-35991069D01*
X273361624Y-36086307D01*
X273171148Y-35133926D02*
X273123529Y-35086307D01*
X273075909Y-34991069D01*
X273075909Y-34752973D01*
X273123529Y-34657735D01*
X273171148Y-34610116D01*
X273266386Y-34562497D01*
X273361624Y-34562497D01*
X273504481Y-34610116D01*
X274075909Y-35181545D01*
X274075909Y-34562497D01*
G04 #@! TO.C,U10*
X228136251Y-90499831D02*
X228136251Y-91310837D01*
X228183957Y-91406249D01*
X228231663Y-91453955D01*
X228327075Y-91501661D01*
X228517900Y-91501661D01*
X228613312Y-91453955D01*
X228661019Y-91406249D01*
X228708725Y-91310837D01*
X228708725Y-90499831D01*
X229710555Y-91501661D02*
X229138081Y-91501661D01*
X229424318Y-91501661D02*
X229424318Y-90499831D01*
X229328905Y-90642950D01*
X229233493Y-90738362D01*
X229138081Y-90786068D01*
X230330735Y-90499831D02*
X230426148Y-90499831D01*
X230521560Y-90547538D01*
X230569266Y-90595244D01*
X230616972Y-90690656D01*
X230664679Y-90881481D01*
X230664679Y-91120012D01*
X230616972Y-91310837D01*
X230569266Y-91406249D01*
X230521560Y-91453955D01*
X230426148Y-91501661D01*
X230330735Y-91501661D01*
X230235323Y-91453955D01*
X230187617Y-91406249D01*
X230139911Y-91310837D01*
X230092204Y-91120012D01*
X230092204Y-90881481D01*
X230139911Y-90690656D01*
X230187617Y-90595244D01*
X230235323Y-90547538D01*
X230330735Y-90499831D01*
G04 #@! TO.C,U6*
X272210500Y-91602578D02*
X272210500Y-92413584D01*
X272258207Y-92508996D01*
X272305913Y-92556702D01*
X272401325Y-92604408D01*
X272592150Y-92604408D01*
X272687562Y-92556702D01*
X272735269Y-92508996D01*
X272782975Y-92413584D01*
X272782975Y-91602578D01*
X273689392Y-91602578D02*
X273498568Y-91602578D01*
X273403155Y-91650285D01*
X273355449Y-91697991D01*
X273260037Y-91841109D01*
X273212330Y-92031934D01*
X273212330Y-92413584D01*
X273260037Y-92508996D01*
X273307743Y-92556702D01*
X273403155Y-92604408D01*
X273593980Y-92604408D01*
X273689392Y-92556702D01*
X273737099Y-92508996D01*
X273784805Y-92413584D01*
X273784805Y-92175053D01*
X273737099Y-92079640D01*
X273689392Y-92031934D01*
X273593980Y-91984228D01*
X273403155Y-91984228D01*
X273307743Y-92031934D01*
X273260037Y-92079640D01*
X273212330Y-92175053D01*
G04 #@! TO.C,U4*
X229853500Y-99806551D02*
X229853500Y-100617557D01*
X229901207Y-100712969D01*
X229948913Y-100760675D01*
X230044325Y-100808381D01*
X230235150Y-100808381D01*
X230330562Y-100760675D01*
X230378269Y-100712969D01*
X230425975Y-100617557D01*
X230425975Y-99806551D01*
X231332392Y-100140495D02*
X231332392Y-100808381D01*
X231093861Y-99758845D02*
X230855330Y-100474438D01*
X231475511Y-100474438D01*
X228290185Y-94195306D02*
X227813623Y-94195306D01*
X227813623Y-93194526D01*
X228623778Y-94195306D02*
X228623778Y-93194526D01*
X228957371Y-93909369D01*
X229290965Y-93194526D01*
X229290965Y-94195306D01*
X230244089Y-93194526D02*
X229767527Y-93194526D01*
X229719870Y-93671088D01*
X229767527Y-93623432D01*
X229862839Y-93575776D01*
X230101120Y-93575776D01*
X230196432Y-93623432D01*
X230244089Y-93671088D01*
X230291745Y-93766401D01*
X230291745Y-94004682D01*
X230244089Y-94099994D01*
X230196432Y-94147650D01*
X230101120Y-94195306D01*
X229862839Y-94195306D01*
X229767527Y-94147650D01*
X229719870Y-94099994D01*
X231197212Y-93194526D02*
X230720650Y-93194526D01*
X230672994Y-93671088D01*
X230720650Y-93623432D01*
X230815963Y-93575776D01*
X231054244Y-93575776D01*
X231149556Y-93623432D01*
X231197212Y-93671088D01*
X231244869Y-93766401D01*
X231244869Y-94004682D01*
X231197212Y-94099994D01*
X231149556Y-94147650D01*
X231054244Y-94195306D01*
X230815963Y-94195306D01*
X230720650Y-94147650D01*
X230672994Y-94099994D01*
X232150336Y-93194526D02*
X231673774Y-93194526D01*
X231626118Y-93671088D01*
X231673774Y-93623432D01*
X231769087Y-93575776D01*
X232007368Y-93575776D01*
X232102680Y-93623432D01*
X232150336Y-93671088D01*
X232197992Y-93766401D01*
X232197992Y-94004682D01*
X232150336Y-94099994D01*
X232102680Y-94147650D01*
X232007368Y-94195306D01*
X231769087Y-94195306D01*
X231673774Y-94147650D01*
X231626118Y-94099994D01*
G04 #@! TO.C,U11*
D13*
X246882280Y-33617477D02*
X247691804Y-33617477D01*
X247787042Y-33569858D01*
X247834661Y-33522239D01*
X247882280Y-33427001D01*
X247882280Y-33236524D01*
X247834661Y-33141286D01*
X247787042Y-33093667D01*
X247691804Y-33046048D01*
X246882280Y-33046048D01*
X247882280Y-32046048D02*
X247882280Y-32617477D01*
X247882280Y-32331762D02*
X246882280Y-32331762D01*
X247025138Y-32427001D01*
X247120376Y-32522239D01*
X247167995Y-32617477D01*
X247882280Y-31093667D02*
X247882280Y-31665096D01*
X247882280Y-31379382D02*
X246882280Y-31379382D01*
X247025138Y-31474620D01*
X247120376Y-31569858D01*
X247167995Y-31665096D01*
X248177680Y-34457102D02*
X248415776Y-34457102D01*
X248320538Y-34695197D02*
X248415776Y-34457102D01*
X248320538Y-34219006D01*
X248606252Y-34599959D02*
X248415776Y-34457102D01*
X248606252Y-34314244D01*
G04 #@! TO.C,U8*
X247822815Y-77491340D02*
X247822815Y-78300864D01*
X247870434Y-78396102D01*
X247918053Y-78443721D01*
X248013291Y-78491340D01*
X248203767Y-78491340D01*
X248299005Y-78443721D01*
X248346624Y-78396102D01*
X248394243Y-78300864D01*
X248394243Y-77491340D01*
X249013291Y-77919912D02*
X248918053Y-77872293D01*
X248870434Y-77824674D01*
X248822815Y-77729436D01*
X248822815Y-77681817D01*
X248870434Y-77586579D01*
X248918053Y-77538960D01*
X249013291Y-77491340D01*
X249203767Y-77491340D01*
X249299005Y-77538960D01*
X249346624Y-77586579D01*
X249394243Y-77681817D01*
X249394243Y-77729436D01*
X249346624Y-77824674D01*
X249299005Y-77872293D01*
X249203767Y-77919912D01*
X249013291Y-77919912D01*
X248918053Y-77967531D01*
X248870434Y-78015150D01*
X248822815Y-78110388D01*
X248822815Y-78300864D01*
X248870434Y-78396102D01*
X248918053Y-78443721D01*
X249013291Y-78491340D01*
X249203767Y-78491340D01*
X249299005Y-78443721D01*
X249346624Y-78396102D01*
X249394243Y-78300864D01*
X249394243Y-78110388D01*
X249346624Y-78015150D01*
X249299005Y-77967531D01*
X249203767Y-77919912D01*
X242264720Y-68195626D02*
X242264720Y-67495626D01*
X242498053Y-67995626D01*
X242731386Y-67495626D01*
X242731386Y-68195626D01*
X243064720Y-68195626D02*
X243064720Y-67495626D01*
X243464720Y-68195626D02*
X243164720Y-67795626D01*
X243464720Y-67495626D02*
X243064720Y-67895626D01*
X244064720Y-67495626D02*
X243931386Y-67495626D01*
X243864720Y-67528960D01*
X243831386Y-67562293D01*
X243764720Y-67662293D01*
X243731386Y-67795626D01*
X243731386Y-68062293D01*
X243764720Y-68128960D01*
X243798053Y-68162293D01*
X243864720Y-68195626D01*
X243998053Y-68195626D01*
X244064720Y-68162293D01*
X244098053Y-68128960D01*
X244131386Y-68062293D01*
X244131386Y-67895626D01*
X244098053Y-67828960D01*
X244064720Y-67795626D01*
X243998053Y-67762293D01*
X243864720Y-67762293D01*
X243798053Y-67795626D01*
X243764720Y-67828960D01*
X243731386Y-67895626D01*
X244731386Y-67495626D02*
X244598053Y-67495626D01*
X244531386Y-67528960D01*
X244498053Y-67562293D01*
X244431386Y-67662293D01*
X244398053Y-67795626D01*
X244398053Y-68062293D01*
X244431386Y-68128960D01*
X244464720Y-68162293D01*
X244531386Y-68195626D01*
X244664720Y-68195626D01*
X244731386Y-68162293D01*
X244764720Y-68128960D01*
X244798053Y-68062293D01*
X244798053Y-67895626D01*
X244764720Y-67828960D01*
X244731386Y-67795626D01*
X244664720Y-67762293D01*
X244531386Y-67762293D01*
X244464720Y-67795626D01*
X244431386Y-67828960D01*
X244398053Y-67895626D01*
X245331386Y-67828960D02*
X245098053Y-67828960D01*
X245098053Y-68195626D02*
X245098053Y-67495626D01*
X245431386Y-67495626D01*
X245631386Y-67495626D02*
X246098053Y-68195626D01*
X246098053Y-67495626D02*
X245631386Y-68195626D01*
X246731386Y-68195626D02*
X246331386Y-68195626D01*
X246531386Y-68195626D02*
X246531386Y-67495626D01*
X246464720Y-67595626D01*
X246398053Y-67662293D01*
X246331386Y-67695626D01*
X247031386Y-68195626D02*
X247031386Y-67495626D01*
X247264720Y-67995626D01*
X247498053Y-67495626D01*
X247498053Y-68195626D01*
X248064720Y-67828960D02*
X248164720Y-67862293D01*
X248198053Y-67895626D01*
X248231386Y-67962293D01*
X248231386Y-68062293D01*
X248198053Y-68128960D01*
X248164720Y-68162293D01*
X248098053Y-68195626D01*
X247831386Y-68195626D01*
X247831386Y-67495626D01*
X248064720Y-67495626D01*
X248131386Y-67528960D01*
X248164720Y-67562293D01*
X248198053Y-67628960D01*
X248198053Y-67695626D01*
X248164720Y-67762293D01*
X248131386Y-67795626D01*
X248064720Y-67828960D01*
X247831386Y-67828960D01*
X248431386Y-67495626D02*
X248664720Y-68195626D01*
X248898053Y-67495626D01*
X249131386Y-68195626D02*
X249131386Y-67495626D01*
X249364720Y-67995626D01*
X249598053Y-67495626D01*
X249598053Y-68195626D01*
X249931386Y-68195626D02*
X249931386Y-67495626D01*
X250098053Y-67495626D01*
X250198053Y-67528960D01*
X250264720Y-67595626D01*
X250298053Y-67662293D01*
X250331386Y-67795626D01*
X250331386Y-67895626D01*
X250298053Y-68028960D01*
X250264720Y-68095626D01*
X250198053Y-68162293D01*
X250098053Y-68195626D01*
X249931386Y-68195626D01*
X250998053Y-68195626D02*
X250598053Y-68195626D01*
X250798053Y-68195626D02*
X250798053Y-67495626D01*
X250731386Y-67595626D01*
X250664720Y-67662293D01*
X250598053Y-67695626D01*
X251398053Y-67795626D02*
X251331386Y-67762293D01*
X251298053Y-67728960D01*
X251264720Y-67662293D01*
X251264720Y-67628960D01*
X251298053Y-67562293D01*
X251331386Y-67528960D01*
X251398053Y-67495626D01*
X251531386Y-67495626D01*
X251598053Y-67528960D01*
X251631386Y-67562293D01*
X251664720Y-67628960D01*
X251664720Y-67662293D01*
X251631386Y-67728960D01*
X251598053Y-67762293D01*
X251531386Y-67795626D01*
X251398053Y-67795626D01*
X251331386Y-67828960D01*
X251298053Y-67862293D01*
X251264720Y-67928960D01*
X251264720Y-68062293D01*
X251298053Y-68128960D01*
X251331386Y-68162293D01*
X251398053Y-68195626D01*
X251531386Y-68195626D01*
X251598053Y-68162293D01*
X251631386Y-68128960D01*
X251664720Y-68062293D01*
X251664720Y-67928960D01*
X251631386Y-67862293D01*
X251598053Y-67828960D01*
X251531386Y-67795626D01*
X252464720Y-67462293D02*
X251864720Y-68362293D01*
X242714720Y-67052626D02*
X242714720Y-66352626D01*
X242948053Y-66852626D01*
X243181386Y-66352626D01*
X243181386Y-67052626D01*
X243514720Y-67052626D02*
X243514720Y-66352626D01*
X243914720Y-67052626D02*
X243614720Y-66652626D01*
X243914720Y-66352626D02*
X243514720Y-66752626D01*
X244514720Y-66352626D02*
X244381386Y-66352626D01*
X244314720Y-66385960D01*
X244281386Y-66419293D01*
X244214720Y-66519293D01*
X244181386Y-66652626D01*
X244181386Y-66919293D01*
X244214720Y-66985960D01*
X244248053Y-67019293D01*
X244314720Y-67052626D01*
X244448053Y-67052626D01*
X244514720Y-67019293D01*
X244548053Y-66985960D01*
X244581386Y-66919293D01*
X244581386Y-66752626D01*
X244548053Y-66685960D01*
X244514720Y-66652626D01*
X244448053Y-66619293D01*
X244314720Y-66619293D01*
X244248053Y-66652626D01*
X244214720Y-66685960D01*
X244181386Y-66752626D01*
X245181386Y-66585960D02*
X245181386Y-67052626D01*
X245014720Y-66319293D02*
X244848053Y-66819293D01*
X245281386Y-66819293D01*
X245781386Y-66685960D02*
X245548053Y-66685960D01*
X245548053Y-67052626D02*
X245548053Y-66352626D01*
X245881386Y-66352626D01*
X246081386Y-66352626D02*
X246548053Y-67052626D01*
X246548053Y-66352626D02*
X246081386Y-67052626D01*
X247148053Y-66352626D02*
X246814720Y-66352626D01*
X246781386Y-66685960D01*
X246814720Y-66652626D01*
X246881386Y-66619293D01*
X247048053Y-66619293D01*
X247114720Y-66652626D01*
X247148053Y-66685960D01*
X247181386Y-66752626D01*
X247181386Y-66919293D01*
X247148053Y-66985960D01*
X247114720Y-67019293D01*
X247048053Y-67052626D01*
X246881386Y-67052626D01*
X246814720Y-67019293D01*
X246781386Y-66985960D01*
X247848053Y-67052626D02*
X247448053Y-67052626D01*
X247648053Y-67052626D02*
X247648053Y-66352626D01*
X247581386Y-66452626D01*
X247514720Y-66519293D01*
X247448053Y-66552626D01*
X248114720Y-66419293D02*
X248148053Y-66385960D01*
X248214720Y-66352626D01*
X248381386Y-66352626D01*
X248448053Y-66385960D01*
X248481386Y-66419293D01*
X248514720Y-66485960D01*
X248514720Y-66552626D01*
X248481386Y-66652626D01*
X248081386Y-67052626D01*
X248514720Y-67052626D01*
X248714720Y-66352626D02*
X248948053Y-67052626D01*
X249181386Y-66352626D01*
X249414720Y-67052626D02*
X249414720Y-66352626D01*
X249648053Y-66852626D01*
X249881386Y-66352626D01*
X249881386Y-67052626D01*
X250214720Y-67052626D02*
X250214720Y-66352626D01*
X250381386Y-66352626D01*
X250481386Y-66385960D01*
X250548053Y-66452626D01*
X250581386Y-66519293D01*
X250614720Y-66652626D01*
X250614720Y-66752626D01*
X250581386Y-66885960D01*
X250548053Y-66952626D01*
X250481386Y-67019293D01*
X250381386Y-67052626D01*
X250214720Y-67052626D01*
X251281386Y-67052626D02*
X250881386Y-67052626D01*
X251081386Y-67052626D02*
X251081386Y-66352626D01*
X251014720Y-66452626D01*
X250948053Y-66519293D01*
X250881386Y-66552626D01*
X251548053Y-66419293D02*
X251581386Y-66385960D01*
X251648053Y-66352626D01*
X251814720Y-66352626D01*
X251881386Y-66385960D01*
X251914720Y-66419293D01*
X251948053Y-66485960D01*
X251948053Y-66552626D01*
X251914720Y-66652626D01*
X251514720Y-67052626D01*
X251948053Y-67052626D01*
G04 #@! TO.C,C1*
X246122462Y-91865746D02*
X246170081Y-91913365D01*
X246217700Y-92056222D01*
X246217700Y-92151460D01*
X246170081Y-92294318D01*
X246074843Y-92389556D01*
X245979605Y-92437175D01*
X245789129Y-92484794D01*
X245646272Y-92484794D01*
X245455796Y-92437175D01*
X245360558Y-92389556D01*
X245265320Y-92294318D01*
X245217700Y-92151460D01*
X245217700Y-92056222D01*
X245265320Y-91913365D01*
X245312939Y-91865746D01*
X246217700Y-90913365D02*
X246217700Y-91484794D01*
X246217700Y-91199080D02*
X245217700Y-91199080D01*
X245360558Y-91294318D01*
X245455796Y-91389556D01*
X245503415Y-91484794D01*
G04 #@! TO.C,C2*
X224993083Y-92528495D02*
X224945464Y-92576114D01*
X224802607Y-92623733D01*
X224707369Y-92623733D01*
X224564511Y-92576114D01*
X224469273Y-92480876D01*
X224421654Y-92385638D01*
X224374035Y-92195162D01*
X224374035Y-92052305D01*
X224421654Y-91861829D01*
X224469273Y-91766591D01*
X224564511Y-91671353D01*
X224707369Y-91623733D01*
X224802607Y-91623733D01*
X224945464Y-91671353D01*
X224993083Y-91718972D01*
X225374035Y-91718972D02*
X225421654Y-91671353D01*
X225516892Y-91623733D01*
X225754988Y-91623733D01*
X225850226Y-91671353D01*
X225897845Y-91718972D01*
X225945464Y-91814210D01*
X225945464Y-91909448D01*
X225897845Y-92052305D01*
X225326416Y-92623733D01*
X225945464Y-92623733D01*
G04 #@! TO.C,C3*
X246207017Y-102937775D02*
X246254636Y-102985394D01*
X246302255Y-103128251D01*
X246302255Y-103223489D01*
X246254636Y-103366347D01*
X246159398Y-103461585D01*
X246064160Y-103509204D01*
X245873684Y-103556823D01*
X245730827Y-103556823D01*
X245540351Y-103509204D01*
X245445113Y-103461585D01*
X245349875Y-103366347D01*
X245302255Y-103223489D01*
X245302255Y-103128251D01*
X245349875Y-102985394D01*
X245397494Y-102937775D01*
X245302255Y-102604442D02*
X245302255Y-101985394D01*
X245683208Y-102318728D01*
X245683208Y-102175870D01*
X245730827Y-102080632D01*
X245778446Y-102033013D01*
X245873684Y-101985394D01*
X246111779Y-101985394D01*
X246207017Y-102033013D01*
X246254636Y-102080632D01*
X246302255Y-102175870D01*
X246302255Y-102461585D01*
X246254636Y-102556823D01*
X246207017Y-102604442D01*
G04 #@! TO.C,C4*
X281465753Y-97613742D02*
X281418134Y-97661361D01*
X281275277Y-97708980D01*
X281180039Y-97708980D01*
X281037181Y-97661361D01*
X280941943Y-97566123D01*
X280894324Y-97470885D01*
X280846705Y-97280409D01*
X280846705Y-97137552D01*
X280894324Y-96947076D01*
X280941943Y-96851838D01*
X281037181Y-96756600D01*
X281180039Y-96708980D01*
X281275277Y-96708980D01*
X281418134Y-96756600D01*
X281465753Y-96804219D01*
X282322896Y-97042314D02*
X282322896Y-97708980D01*
X282084800Y-96661361D02*
X281846705Y-97375647D01*
X282465753Y-97375647D01*
G04 #@! TO.C,C5*
X269423853Y-113549702D02*
X269376234Y-113597321D01*
X269233377Y-113644940D01*
X269138139Y-113644940D01*
X268995281Y-113597321D01*
X268900043Y-113502083D01*
X268852424Y-113406845D01*
X268804805Y-113216369D01*
X268804805Y-113073512D01*
X268852424Y-112883036D01*
X268900043Y-112787798D01*
X268995281Y-112692560D01*
X269138139Y-112644940D01*
X269233377Y-112644940D01*
X269376234Y-112692560D01*
X269423853Y-112740179D01*
X270328615Y-112644940D02*
X269852424Y-112644940D01*
X269804805Y-113121131D01*
X269852424Y-113073512D01*
X269947662Y-113025893D01*
X270185758Y-113025893D01*
X270280996Y-113073512D01*
X270328615Y-113121131D01*
X270376234Y-113216369D01*
X270376234Y-113454464D01*
X270328615Y-113549702D01*
X270280996Y-113597321D01*
X270185758Y-113644940D01*
X269947662Y-113644940D01*
X269852424Y-113597321D01*
X269804805Y-113549702D01*
G04 #@! TO.C,C6*
X235169982Y-103925666D02*
X235217601Y-103973285D01*
X235265220Y-104116142D01*
X235265220Y-104211380D01*
X235217601Y-104354238D01*
X235122363Y-104449476D01*
X235027125Y-104497095D01*
X234836649Y-104544714D01*
X234693792Y-104544714D01*
X234503316Y-104497095D01*
X234408078Y-104449476D01*
X234312840Y-104354238D01*
X234265220Y-104211380D01*
X234265220Y-104116142D01*
X234312840Y-103973285D01*
X234360459Y-103925666D01*
X234265220Y-103068523D02*
X234265220Y-103259000D01*
X234312840Y-103354238D01*
X234360459Y-103401857D01*
X234503316Y-103497095D01*
X234693792Y-103544714D01*
X235074744Y-103544714D01*
X235169982Y-103497095D01*
X235217601Y-103449476D01*
X235265220Y-103354238D01*
X235265220Y-103163761D01*
X235217601Y-103068523D01*
X235169982Y-103020904D01*
X235074744Y-102973285D01*
X234836649Y-102973285D01*
X234741411Y-103020904D01*
X234693792Y-103068523D01*
X234646173Y-103163761D01*
X234646173Y-103354238D01*
X234693792Y-103449476D01*
X234741411Y-103497095D01*
X234836649Y-103544714D01*
G04 #@! TO.C,C7*
X221148613Y-83770742D02*
X221100994Y-83818361D01*
X220958137Y-83865980D01*
X220862899Y-83865980D01*
X220720041Y-83818361D01*
X220624803Y-83723123D01*
X220577184Y-83627885D01*
X220529565Y-83437409D01*
X220529565Y-83294552D01*
X220577184Y-83104076D01*
X220624803Y-83008838D01*
X220720041Y-82913600D01*
X220862899Y-82865980D01*
X220958137Y-82865980D01*
X221100994Y-82913600D01*
X221148613Y-82961219D01*
X221481946Y-82865980D02*
X222148613Y-82865980D01*
X221720041Y-83865980D01*
G04 #@! TO.C,C8*
X265328282Y-31469088D02*
X265375901Y-31516707D01*
X265423520Y-31659564D01*
X265423520Y-31754802D01*
X265375901Y-31897660D01*
X265280663Y-31992898D01*
X265185425Y-32040517D01*
X264994949Y-32088136D01*
X264852092Y-32088136D01*
X264661616Y-32040517D01*
X264566378Y-31992898D01*
X264471140Y-31897660D01*
X264423520Y-31754802D01*
X264423520Y-31659564D01*
X264471140Y-31516707D01*
X264518759Y-31469088D01*
X264852092Y-30897660D02*
X264804473Y-30992898D01*
X264756854Y-31040517D01*
X264661616Y-31088136D01*
X264613997Y-31088136D01*
X264518759Y-31040517D01*
X264471140Y-30992898D01*
X264423520Y-30897660D01*
X264423520Y-30707183D01*
X264471140Y-30611945D01*
X264518759Y-30564326D01*
X264613997Y-30516707D01*
X264661616Y-30516707D01*
X264756854Y-30564326D01*
X264804473Y-30611945D01*
X264852092Y-30707183D01*
X264852092Y-30897660D01*
X264899711Y-30992898D01*
X264947330Y-31040517D01*
X265042568Y-31088136D01*
X265233044Y-31088136D01*
X265328282Y-31040517D01*
X265375901Y-30992898D01*
X265423520Y-30897660D01*
X265423520Y-30707183D01*
X265375901Y-30611945D01*
X265328282Y-30564326D01*
X265233044Y-30516707D01*
X265042568Y-30516707D01*
X264947330Y-30564326D01*
X264899711Y-30611945D01*
X264852092Y-30707183D01*
G04 #@! TO.C,CR1*
X247337273Y-39675804D02*
X247289654Y-39723423D01*
X247146797Y-39771042D01*
X247051559Y-39771042D01*
X246908701Y-39723423D01*
X246813463Y-39628185D01*
X246765844Y-39532947D01*
X246718225Y-39342471D01*
X246718225Y-39199614D01*
X246765844Y-39009138D01*
X246813463Y-38913900D01*
X246908701Y-38818662D01*
X247051559Y-38771042D01*
X247146797Y-38771042D01*
X247289654Y-38818662D01*
X247337273Y-38866281D01*
X248337273Y-39771042D02*
X248003940Y-39294852D01*
X247765844Y-39771042D02*
X247765844Y-38771042D01*
X248146797Y-38771042D01*
X248242035Y-38818662D01*
X248289654Y-38866281D01*
X248337273Y-38961519D01*
X248337273Y-39104376D01*
X248289654Y-39199614D01*
X248242035Y-39247233D01*
X248146797Y-39294852D01*
X247765844Y-39294852D01*
X249289654Y-39771042D02*
X248718225Y-39771042D01*
X249003940Y-39771042D02*
X249003940Y-38771042D01*
X248908701Y-38913900D01*
X248813463Y-39009138D01*
X248718225Y-39056757D01*
G04 #@! TO.C,CR2*
X264903271Y-43349998D02*
X264950890Y-43397617D01*
X264998509Y-43540474D01*
X264998509Y-43635712D01*
X264950890Y-43778570D01*
X264855652Y-43873808D01*
X264760414Y-43921427D01*
X264569938Y-43969046D01*
X264427081Y-43969046D01*
X264236605Y-43921427D01*
X264141367Y-43873808D01*
X264046129Y-43778570D01*
X263998509Y-43635712D01*
X263998509Y-43540474D01*
X264046129Y-43397617D01*
X264093748Y-43349998D01*
X264998509Y-42349998D02*
X264522319Y-42683332D01*
X264998509Y-42921427D02*
X263998509Y-42921427D01*
X263998509Y-42540474D01*
X264046129Y-42445236D01*
X264093748Y-42397617D01*
X264188986Y-42349998D01*
X264331843Y-42349998D01*
X264427081Y-42397617D01*
X264474700Y-42445236D01*
X264522319Y-42540474D01*
X264522319Y-42921427D01*
X264093748Y-41969046D02*
X264046129Y-41921427D01*
X263998509Y-41826189D01*
X263998509Y-41588093D01*
X264046129Y-41492855D01*
X264093748Y-41445236D01*
X264188986Y-41397617D01*
X264284224Y-41397617D01*
X264427081Y-41445236D01*
X264998509Y-42016665D01*
X264998509Y-41397617D01*
G04 #@! TO.C,CR3*
X252140602Y-43373688D02*
X252188221Y-43421307D01*
X252235840Y-43564164D01*
X252235840Y-43659402D01*
X252188221Y-43802260D01*
X252092983Y-43897498D01*
X251997745Y-43945117D01*
X251807269Y-43992736D01*
X251664412Y-43992736D01*
X251473936Y-43945117D01*
X251378698Y-43897498D01*
X251283460Y-43802260D01*
X251235840Y-43659402D01*
X251235840Y-43564164D01*
X251283460Y-43421307D01*
X251331079Y-43373688D01*
X252235840Y-42373688D02*
X251759650Y-42707022D01*
X252235840Y-42945117D02*
X251235840Y-42945117D01*
X251235840Y-42564164D01*
X251283460Y-42468926D01*
X251331079Y-42421307D01*
X251426317Y-42373688D01*
X251569174Y-42373688D01*
X251664412Y-42421307D01*
X251712031Y-42468926D01*
X251759650Y-42564164D01*
X251759650Y-42945117D01*
X251235840Y-42040355D02*
X251235840Y-41421307D01*
X251616793Y-41754641D01*
X251616793Y-41611783D01*
X251664412Y-41516545D01*
X251712031Y-41468926D01*
X251807269Y-41421307D01*
X252045364Y-41421307D01*
X252140602Y-41468926D01*
X252188221Y-41516545D01*
X252235840Y-41611783D01*
X252235840Y-41897498D01*
X252188221Y-41992736D01*
X252140602Y-42040355D01*
G04 #@! TO.C,CR4*
X256887673Y-42210724D02*
X256840054Y-42258343D01*
X256697197Y-42305962D01*
X256601959Y-42305962D01*
X256459101Y-42258343D01*
X256363863Y-42163105D01*
X256316244Y-42067867D01*
X256268625Y-41877391D01*
X256268625Y-41734534D01*
X256316244Y-41544058D01*
X256363863Y-41448820D01*
X256459101Y-41353582D01*
X256601959Y-41305962D01*
X256697197Y-41305962D01*
X256840054Y-41353582D01*
X256887673Y-41401201D01*
X257887673Y-42305962D02*
X257554340Y-41829772D01*
X257316244Y-42305962D02*
X257316244Y-41305962D01*
X257697197Y-41305962D01*
X257792435Y-41353582D01*
X257840054Y-41401201D01*
X257887673Y-41496439D01*
X257887673Y-41639296D01*
X257840054Y-41734534D01*
X257792435Y-41782153D01*
X257697197Y-41829772D01*
X257316244Y-41829772D01*
X258744816Y-41639296D02*
X258744816Y-42305962D01*
X258506720Y-41258343D02*
X258268625Y-41972629D01*
X258887673Y-41972629D01*
G04 #@! TO.C,J1*
X244139020Y-121785973D02*
X244853306Y-121785973D01*
X244996163Y-121833592D01*
X245091401Y-121928830D01*
X245139020Y-122071687D01*
X245139020Y-122166925D01*
X245139020Y-120785973D02*
X245139020Y-121357401D01*
X245139020Y-121071687D02*
X244139020Y-121071687D01*
X244281878Y-121166925D01*
X244377116Y-121262163D01*
X244424735Y-121357401D01*
G04 #@! TO.C,Q1*
X277006299Y-24225238D02*
X276958680Y-24320476D01*
X276863441Y-24415714D01*
X276720584Y-24558571D01*
X276672965Y-24653809D01*
X276672965Y-24749047D01*
X276911060Y-24701428D02*
X276863441Y-24796666D01*
X276768203Y-24891904D01*
X276577727Y-24939523D01*
X276244394Y-24939523D01*
X276053918Y-24891904D01*
X275958680Y-24796666D01*
X275911060Y-24701428D01*
X275911060Y-24510952D01*
X275958680Y-24415714D01*
X276053918Y-24320476D01*
X276244394Y-24272857D01*
X276577727Y-24272857D01*
X276768203Y-24320476D01*
X276863441Y-24415714D01*
X276911060Y-24510952D01*
X276911060Y-24701428D01*
X276911060Y-23320476D02*
X276911060Y-23891904D01*
X276911060Y-23606190D02*
X275911060Y-23606190D01*
X276053918Y-23701428D01*
X276149156Y-23796666D01*
X276196775Y-23891904D01*
G04 #@! TO.C,Q2*
X252788279Y-46282060D02*
X252740660Y-46377298D01*
X252645421Y-46472536D01*
X252502564Y-46615393D01*
X252454945Y-46710631D01*
X252454945Y-46805869D01*
X252693040Y-46758250D02*
X252645421Y-46853488D01*
X252550183Y-46948726D01*
X252359707Y-46996345D01*
X252026374Y-46996345D01*
X251835898Y-46948726D01*
X251740660Y-46853488D01*
X251693040Y-46758250D01*
X251693040Y-46567774D01*
X251740660Y-46472536D01*
X251835898Y-46377298D01*
X252026374Y-46329679D01*
X252359707Y-46329679D01*
X252550183Y-46377298D01*
X252645421Y-46472536D01*
X252693040Y-46567774D01*
X252693040Y-46758250D01*
X251788279Y-45948726D02*
X251740660Y-45901107D01*
X251693040Y-45805869D01*
X251693040Y-45567774D01*
X251740660Y-45472536D01*
X251788279Y-45424917D01*
X251883517Y-45377298D01*
X251978755Y-45377298D01*
X252121612Y-45424917D01*
X252693040Y-45996345D01*
X252693040Y-45377298D01*
G04 #@! TO.C,Q3*
X268333719Y-24798740D02*
X268286100Y-24893978D01*
X268190861Y-24989216D01*
X268048004Y-25132073D01*
X268000385Y-25227311D01*
X268000385Y-25322549D01*
X268238480Y-25274930D02*
X268190861Y-25370168D01*
X268095623Y-25465406D01*
X267905147Y-25513025D01*
X267571814Y-25513025D01*
X267381338Y-25465406D01*
X267286100Y-25370168D01*
X267238480Y-25274930D01*
X267238480Y-25084454D01*
X267286100Y-24989216D01*
X267381338Y-24893978D01*
X267571814Y-24846359D01*
X267905147Y-24846359D01*
X268095623Y-24893978D01*
X268190861Y-24989216D01*
X268238480Y-25084454D01*
X268238480Y-25274930D01*
X267238480Y-24513025D02*
X267238480Y-23893978D01*
X267619433Y-24227311D01*
X267619433Y-24084454D01*
X267667052Y-23989216D01*
X267714671Y-23941597D01*
X267809909Y-23893978D01*
X268048004Y-23893978D01*
X268143242Y-23941597D01*
X268190861Y-23989216D01*
X268238480Y-24084454D01*
X268238480Y-24370168D01*
X268190861Y-24465406D01*
X268143242Y-24513025D01*
G04 #@! TO.C,Q4*
X256450959Y-21369740D02*
X256403340Y-21464978D01*
X256308101Y-21560216D01*
X256165244Y-21703073D01*
X256117625Y-21798311D01*
X256117625Y-21893549D01*
X256355720Y-21845930D02*
X256308101Y-21941168D01*
X256212863Y-22036406D01*
X256022387Y-22084025D01*
X255689054Y-22084025D01*
X255498578Y-22036406D01*
X255403340Y-21941168D01*
X255355720Y-21845930D01*
X255355720Y-21655454D01*
X255403340Y-21560216D01*
X255498578Y-21464978D01*
X255689054Y-21417359D01*
X256022387Y-21417359D01*
X256212863Y-21464978D01*
X256308101Y-21560216D01*
X256355720Y-21655454D01*
X256355720Y-21845930D01*
X255689054Y-20560216D02*
X256355720Y-20560216D01*
X255308101Y-20798311D02*
X256022387Y-21036406D01*
X256022387Y-20417359D01*
G04 #@! TO.C,R1*
X241791293Y-49282833D02*
X241315103Y-49616167D01*
X241791293Y-49854262D02*
X240791293Y-49854262D01*
X240791293Y-49473309D01*
X240838913Y-49378071D01*
X240886532Y-49330452D01*
X240981770Y-49282833D01*
X241124627Y-49282833D01*
X241219865Y-49330452D01*
X241267484Y-49378071D01*
X241315103Y-49473309D01*
X241315103Y-49854262D01*
X241791293Y-48330452D02*
X241791293Y-48901881D01*
X241791293Y-48616167D02*
X240791293Y-48616167D01*
X240934151Y-48711405D01*
X241029389Y-48806643D01*
X241077008Y-48901881D01*
G04 #@! TO.C,R2*
X241816693Y-45427113D02*
X241340503Y-45760447D01*
X241816693Y-45998542D02*
X240816693Y-45998542D01*
X240816693Y-45617589D01*
X240864313Y-45522351D01*
X240911932Y-45474732D01*
X241007170Y-45427113D01*
X241150027Y-45427113D01*
X241245265Y-45474732D01*
X241292884Y-45522351D01*
X241340503Y-45617589D01*
X241340503Y-45998542D01*
X240911932Y-45046161D02*
X240864313Y-44998542D01*
X240816693Y-44903304D01*
X240816693Y-44665208D01*
X240864313Y-44569970D01*
X240911932Y-44522351D01*
X241007170Y-44474732D01*
X241102408Y-44474732D01*
X241245265Y-44522351D01*
X241816693Y-45093780D01*
X241816693Y-44474732D01*
G04 #@! TO.C,R3*
X269718493Y-24561060D02*
X269385160Y-24084870D01*
X269147064Y-24561060D02*
X269147064Y-23561060D01*
X269528017Y-23561060D01*
X269623255Y-23608680D01*
X269670874Y-23656299D01*
X269718493Y-23751537D01*
X269718493Y-23894394D01*
X269670874Y-23989632D01*
X269623255Y-24037251D01*
X269528017Y-24084870D01*
X269147064Y-24084870D01*
X270051826Y-23561060D02*
X270670874Y-23561060D01*
X270337540Y-23942013D01*
X270480398Y-23942013D01*
X270575636Y-23989632D01*
X270623255Y-24037251D01*
X270670874Y-24132489D01*
X270670874Y-24370584D01*
X270623255Y-24465822D01*
X270575636Y-24513441D01*
X270480398Y-24561060D01*
X270194683Y-24561060D01*
X270099445Y-24513441D01*
X270051826Y-24465822D01*
G04 #@! TO.C,R4*
X260008240Y-37895288D02*
X259532050Y-38228622D01*
X260008240Y-38466717D02*
X259008240Y-38466717D01*
X259008240Y-38085764D01*
X259055860Y-37990526D01*
X259103479Y-37942907D01*
X259198717Y-37895288D01*
X259341574Y-37895288D01*
X259436812Y-37942907D01*
X259484431Y-37990526D01*
X259532050Y-38085764D01*
X259532050Y-38466717D01*
X259341574Y-37038145D02*
X260008240Y-37038145D01*
X258960621Y-37276241D02*
X259674907Y-37514336D01*
X259674907Y-36895288D01*
G04 #@! TO.C,R5*
X254847673Y-53374282D02*
X254514340Y-52898092D01*
X254276244Y-53374282D02*
X254276244Y-52374282D01*
X254657197Y-52374282D01*
X254752435Y-52421902D01*
X254800054Y-52469521D01*
X254847673Y-52564759D01*
X254847673Y-52707616D01*
X254800054Y-52802854D01*
X254752435Y-52850473D01*
X254657197Y-52898092D01*
X254276244Y-52898092D01*
X255752435Y-52374282D02*
X255276244Y-52374282D01*
X255228625Y-52850473D01*
X255276244Y-52802854D01*
X255371482Y-52755235D01*
X255609578Y-52755235D01*
X255704816Y-52802854D01*
X255752435Y-52850473D01*
X255800054Y-52945711D01*
X255800054Y-53183806D01*
X255752435Y-53279044D01*
X255704816Y-53326663D01*
X255609578Y-53374282D01*
X255371482Y-53374282D01*
X255276244Y-53326663D01*
X255228625Y-53279044D01*
G04 #@! TO.C,R6*
X259917513Y-27055802D02*
X259584180Y-26579612D01*
X259346084Y-27055802D02*
X259346084Y-26055802D01*
X259727037Y-26055802D01*
X259822275Y-26103422D01*
X259869894Y-26151041D01*
X259917513Y-26246279D01*
X259917513Y-26389136D01*
X259869894Y-26484374D01*
X259822275Y-26531993D01*
X259727037Y-26579612D01*
X259346084Y-26579612D01*
X260774656Y-26055802D02*
X260584180Y-26055802D01*
X260488941Y-26103422D01*
X260441322Y-26151041D01*
X260346084Y-26293898D01*
X260298465Y-26484374D01*
X260298465Y-26865326D01*
X260346084Y-26960564D01*
X260393703Y-27008183D01*
X260488941Y-27055802D01*
X260679418Y-27055802D01*
X260774656Y-27008183D01*
X260822275Y-26960564D01*
X260869894Y-26865326D01*
X260869894Y-26627231D01*
X260822275Y-26531993D01*
X260774656Y-26484374D01*
X260679418Y-26436755D01*
X260488941Y-26436755D01*
X260393703Y-26484374D01*
X260346084Y-26531993D01*
X260298465Y-26627231D01*
G04 #@! TO.C,R7*
X260490840Y-43523928D02*
X260014650Y-43857262D01*
X260490840Y-44095357D02*
X259490840Y-44095357D01*
X259490840Y-43714404D01*
X259538460Y-43619166D01*
X259586079Y-43571547D01*
X259681317Y-43523928D01*
X259824174Y-43523928D01*
X259919412Y-43571547D01*
X259967031Y-43619166D01*
X260014650Y-43714404D01*
X260014650Y-44095357D01*
X259490840Y-43190595D02*
X259490840Y-42523928D01*
X260490840Y-42952500D01*
G04 #@! TO.C,R8*
X267300462Y-46705952D02*
X266967129Y-46229762D01*
X266729033Y-46705952D02*
X266729033Y-45705952D01*
X267109986Y-45705952D01*
X267205224Y-45753572D01*
X267252843Y-45801191D01*
X267300462Y-45896429D01*
X267300462Y-46039286D01*
X267252843Y-46134524D01*
X267205224Y-46182143D01*
X267109986Y-46229762D01*
X266729033Y-46229762D01*
X267871890Y-46134524D02*
X267776652Y-46086905D01*
X267729033Y-46039286D01*
X267681414Y-45944048D01*
X267681414Y-45896429D01*
X267729033Y-45801191D01*
X267776652Y-45753572D01*
X267871890Y-45705952D01*
X268062367Y-45705952D01*
X268157605Y-45753572D01*
X268205224Y-45801191D01*
X268252843Y-45896429D01*
X268252843Y-45944048D01*
X268205224Y-46039286D01*
X268157605Y-46086905D01*
X268062367Y-46134524D01*
X267871890Y-46134524D01*
X267776652Y-46182143D01*
X267729033Y-46229762D01*
X267681414Y-46325000D01*
X267681414Y-46515476D01*
X267729033Y-46610714D01*
X267776652Y-46658333D01*
X267871890Y-46705952D01*
X268062367Y-46705952D01*
X268157605Y-46658333D01*
X268205224Y-46610714D01*
X268252843Y-46515476D01*
X268252843Y-46325000D01*
X268205224Y-46229762D01*
X268157605Y-46182143D01*
X268062367Y-46134524D01*
G04 #@! TO.C,R9*
X271272309Y-42463918D02*
X270796119Y-42797252D01*
X271272309Y-43035347D02*
X270272309Y-43035347D01*
X270272309Y-42654394D01*
X270319929Y-42559156D01*
X270367548Y-42511537D01*
X270462786Y-42463918D01*
X270605643Y-42463918D01*
X270700881Y-42511537D01*
X270748500Y-42559156D01*
X270796119Y-42654394D01*
X270796119Y-43035347D01*
X271272309Y-41987728D02*
X271272309Y-41797252D01*
X271224690Y-41702013D01*
X271177071Y-41654394D01*
X271034214Y-41559156D01*
X270843738Y-41511537D01*
X270462786Y-41511537D01*
X270367548Y-41559156D01*
X270319929Y-41606775D01*
X270272309Y-41702013D01*
X270272309Y-41892490D01*
X270319929Y-41987728D01*
X270367548Y-42035347D01*
X270462786Y-42082966D01*
X270700881Y-42082966D01*
X270796119Y-42035347D01*
X270843738Y-41987728D01*
X270891357Y-41892490D01*
X270891357Y-41702013D01*
X270843738Y-41606775D01*
X270796119Y-41559156D01*
X270700881Y-41511537D01*
G04 #@! TO.C,R10*
X252428880Y-24228759D02*
X251952690Y-24562092D01*
X252428880Y-24800187D02*
X251428880Y-24800187D01*
X251428880Y-24419235D01*
X251476500Y-24323997D01*
X251524119Y-24276378D01*
X251619357Y-24228759D01*
X251762214Y-24228759D01*
X251857452Y-24276378D01*
X251905071Y-24323997D01*
X251952690Y-24419235D01*
X251952690Y-24800187D01*
X252428880Y-23276378D02*
X252428880Y-23847806D01*
X252428880Y-23562092D02*
X251428880Y-23562092D01*
X251571738Y-23657330D01*
X251666976Y-23752568D01*
X251714595Y-23847806D01*
X251428880Y-22657330D02*
X251428880Y-22562092D01*
X251476500Y-22466854D01*
X251524119Y-22419235D01*
X251619357Y-22371616D01*
X251809833Y-22323997D01*
X252047928Y-22323997D01*
X252238404Y-22371616D01*
X252333642Y-22419235D01*
X252381261Y-22466854D01*
X252428880Y-22562092D01*
X252428880Y-22657330D01*
X252381261Y-22752568D01*
X252333642Y-22800187D01*
X252238404Y-22847806D01*
X252047928Y-22895425D01*
X251809833Y-22895425D01*
X251619357Y-22847806D01*
X251524119Y-22800187D01*
X251476500Y-22752568D01*
X251428880Y-22657330D01*
G04 #@! TO.C,R11*
X260035682Y-53267602D02*
X259702349Y-52791412D01*
X259464254Y-53267602D02*
X259464254Y-52267602D01*
X259845206Y-52267602D01*
X259940444Y-52315222D01*
X259988063Y-52362841D01*
X260035682Y-52458079D01*
X260035682Y-52600936D01*
X259988063Y-52696174D01*
X259940444Y-52743793D01*
X259845206Y-52791412D01*
X259464254Y-52791412D01*
X260988063Y-53267602D02*
X260416635Y-53267602D01*
X260702349Y-53267602D02*
X260702349Y-52267602D01*
X260607111Y-52410460D01*
X260511873Y-52505698D01*
X260416635Y-52553317D01*
X261940444Y-53267602D02*
X261369016Y-53267602D01*
X261654730Y-53267602D02*
X261654730Y-52267602D01*
X261559492Y-52410460D01*
X261464254Y-52505698D01*
X261369016Y-52553317D01*
G04 #@! TO.C,R12*
X258237362Y-49843682D02*
X257904029Y-49367492D01*
X257665934Y-49843682D02*
X257665934Y-48843682D01*
X258046886Y-48843682D01*
X258142124Y-48891302D01*
X258189743Y-48938921D01*
X258237362Y-49034159D01*
X258237362Y-49177016D01*
X258189743Y-49272254D01*
X258142124Y-49319873D01*
X258046886Y-49367492D01*
X257665934Y-49367492D01*
X259189743Y-49843682D02*
X258618315Y-49843682D01*
X258904029Y-49843682D02*
X258904029Y-48843682D01*
X258808791Y-48986540D01*
X258713553Y-49081778D01*
X258618315Y-49129397D01*
X259570696Y-48938921D02*
X259618315Y-48891302D01*
X259713553Y-48843682D01*
X259951648Y-48843682D01*
X260046886Y-48891302D01*
X260094505Y-48938921D01*
X260142124Y-49034159D01*
X260142124Y-49129397D01*
X260094505Y-49272254D01*
X259523077Y-49843682D01*
X260142124Y-49843682D01*
G04 #@! TO.C,R13*
X266867240Y-29257959D02*
X266391050Y-29591292D01*
X266867240Y-29829387D02*
X265867240Y-29829387D01*
X265867240Y-29448435D01*
X265914860Y-29353197D01*
X265962479Y-29305578D01*
X266057717Y-29257959D01*
X266200574Y-29257959D01*
X266295812Y-29305578D01*
X266343431Y-29353197D01*
X266391050Y-29448435D01*
X266391050Y-29829387D01*
X266867240Y-28305578D02*
X266867240Y-28877006D01*
X266867240Y-28591292D02*
X265867240Y-28591292D01*
X266010098Y-28686530D01*
X266105336Y-28781768D01*
X266152955Y-28877006D01*
X265867240Y-27972244D02*
X265867240Y-27353197D01*
X266248193Y-27686530D01*
X266248193Y-27543673D01*
X266295812Y-27448435D01*
X266343431Y-27400816D01*
X266438669Y-27353197D01*
X266676764Y-27353197D01*
X266772002Y-27400816D01*
X266819621Y-27448435D01*
X266867240Y-27543673D01*
X266867240Y-27829387D01*
X266819621Y-27924625D01*
X266772002Y-27972244D01*
G04 #@! TO.C,R14*
X261218280Y-34708799D02*
X260742090Y-35042132D01*
X261218280Y-35280227D02*
X260218280Y-35280227D01*
X260218280Y-34899275D01*
X260265900Y-34804037D01*
X260313519Y-34756418D01*
X260408757Y-34708799D01*
X260551614Y-34708799D01*
X260646852Y-34756418D01*
X260694471Y-34804037D01*
X260742090Y-34899275D01*
X260742090Y-35280227D01*
X261218280Y-33756418D02*
X261218280Y-34327846D01*
X261218280Y-34042132D02*
X260218280Y-34042132D01*
X260361138Y-34137370D01*
X260456376Y-34232608D01*
X260503995Y-34327846D01*
X260551614Y-32899275D02*
X261218280Y-32899275D01*
X260170661Y-33137370D02*
X260884947Y-33375465D01*
X260884947Y-32756418D01*
G04 #@! TO.C,R15*
X262949560Y-27525679D02*
X262473370Y-27859012D01*
X262949560Y-28097107D02*
X261949560Y-28097107D01*
X261949560Y-27716155D01*
X261997180Y-27620917D01*
X262044799Y-27573298D01*
X262140037Y-27525679D01*
X262282894Y-27525679D01*
X262378132Y-27573298D01*
X262425751Y-27620917D01*
X262473370Y-27716155D01*
X262473370Y-28097107D01*
X262949560Y-26573298D02*
X262949560Y-27144726D01*
X262949560Y-26859012D02*
X261949560Y-26859012D01*
X262092418Y-26954250D01*
X262187656Y-27049488D01*
X262235275Y-27144726D01*
X261949560Y-25668536D02*
X261949560Y-26144726D01*
X262425751Y-26192345D01*
X262378132Y-26144726D01*
X262330513Y-26049488D01*
X262330513Y-25811393D01*
X262378132Y-25716155D01*
X262425751Y-25668536D01*
X262520989Y-25620917D01*
X262759084Y-25620917D01*
X262854322Y-25668536D01*
X262901941Y-25716155D01*
X262949560Y-25811393D01*
X262949560Y-26049488D01*
X262901941Y-26144726D01*
X262854322Y-26192345D01*
G04 #@! TO.C,RA1*
X247308761Y-98618300D02*
X246975428Y-98142110D01*
X246737333Y-98618300D02*
X246737333Y-97618300D01*
X247118285Y-97618300D01*
X247213523Y-97665920D01*
X247261142Y-97713539D01*
X247308761Y-97808777D01*
X247308761Y-97951634D01*
X247261142Y-98046872D01*
X247213523Y-98094491D01*
X247118285Y-98142110D01*
X246737333Y-98142110D01*
X247689714Y-98332586D02*
X248165904Y-98332586D01*
X247594476Y-98618300D02*
X247927809Y-97618300D01*
X248261142Y-98618300D01*
X249118285Y-98618300D02*
X248546857Y-98618300D01*
X248832571Y-98618300D02*
X248832571Y-97618300D01*
X248737333Y-97761158D01*
X248642095Y-97856396D01*
X248546857Y-97904015D01*
G04 #@! TO.C,RA2*
X224633990Y-100040151D02*
X224157800Y-100373484D01*
X224633990Y-100611579D02*
X223633990Y-100611579D01*
X223633990Y-100230627D01*
X223681610Y-100135389D01*
X223729229Y-100087770D01*
X223824467Y-100040151D01*
X223967324Y-100040151D01*
X224062562Y-100087770D01*
X224110181Y-100135389D01*
X224157800Y-100230627D01*
X224157800Y-100611579D01*
X224348276Y-99659198D02*
X224348276Y-99183008D01*
X224633990Y-99754436D02*
X223633990Y-99421103D01*
X224633990Y-99087770D01*
X223729229Y-98802055D02*
X223681610Y-98754436D01*
X223633990Y-98659198D01*
X223633990Y-98421103D01*
X223681610Y-98325865D01*
X223729229Y-98278246D01*
X223824467Y-98230627D01*
X223919705Y-98230627D01*
X224062562Y-98278246D01*
X224633990Y-98849674D01*
X224633990Y-98230627D01*
G04 #@! TO.C,RA3*
X247547356Y-109510661D02*
X247214023Y-109034471D01*
X246975928Y-109510661D02*
X246975928Y-108510661D01*
X247356880Y-108510661D01*
X247452118Y-108558281D01*
X247499737Y-108605900D01*
X247547356Y-108701138D01*
X247547356Y-108843995D01*
X247499737Y-108939233D01*
X247452118Y-108986852D01*
X247356880Y-109034471D01*
X246975928Y-109034471D01*
X247928309Y-109224947D02*
X248404499Y-109224947D01*
X247833071Y-109510661D02*
X248166404Y-108510661D01*
X248499737Y-109510661D01*
X248737833Y-108510661D02*
X249356880Y-108510661D01*
X249023547Y-108891614D01*
X249166404Y-108891614D01*
X249261642Y-108939233D01*
X249309261Y-108986852D01*
X249356880Y-109082090D01*
X249356880Y-109320185D01*
X249309261Y-109415423D01*
X249261642Y-109463042D01*
X249166404Y-109510661D01*
X248880690Y-109510661D01*
X248785452Y-109463042D01*
X248737833Y-109415423D01*
G04 #@! TO.C,RA4*
X282189180Y-93823398D02*
X281712990Y-94156731D01*
X282189180Y-94394826D02*
X281189180Y-94394826D01*
X281189180Y-94013874D01*
X281236800Y-93918636D01*
X281284419Y-93871017D01*
X281379657Y-93823398D01*
X281522514Y-93823398D01*
X281617752Y-93871017D01*
X281665371Y-93918636D01*
X281712990Y-94013874D01*
X281712990Y-94394826D01*
X281903466Y-93442445D02*
X281903466Y-92966255D01*
X282189180Y-93537683D02*
X281189180Y-93204350D01*
X282189180Y-92871017D01*
X281522514Y-92109112D02*
X282189180Y-92109112D01*
X281141561Y-92347207D02*
X281855847Y-92585302D01*
X281855847Y-91966255D01*
G04 #@! TO.C,RA5*
X274669641Y-112049820D02*
X274336308Y-111573630D01*
X274098213Y-112049820D02*
X274098213Y-111049820D01*
X274479165Y-111049820D01*
X274574403Y-111097440D01*
X274622022Y-111145059D01*
X274669641Y-111240297D01*
X274669641Y-111383154D01*
X274622022Y-111478392D01*
X274574403Y-111526011D01*
X274479165Y-111573630D01*
X274098213Y-111573630D01*
X275050594Y-111764106D02*
X275526784Y-111764106D01*
X274955356Y-112049820D02*
X275288689Y-111049820D01*
X275622022Y-112049820D01*
X276431546Y-111049820D02*
X275955356Y-111049820D01*
X275907737Y-111526011D01*
X275955356Y-111478392D01*
X276050594Y-111430773D01*
X276288689Y-111430773D01*
X276383927Y-111478392D01*
X276431546Y-111526011D01*
X276479165Y-111621249D01*
X276479165Y-111859344D01*
X276431546Y-111954582D01*
X276383927Y-112002201D01*
X276288689Y-112049820D01*
X276050594Y-112049820D01*
X275955356Y-112002201D01*
X275907737Y-111954582D01*
G04 #@! TO.C,RA6*
X240940741Y-105735380D02*
X240607408Y-105259190D01*
X240369313Y-105735380D02*
X240369313Y-104735380D01*
X240750265Y-104735380D01*
X240845503Y-104783000D01*
X240893122Y-104830619D01*
X240940741Y-104925857D01*
X240940741Y-105068714D01*
X240893122Y-105163952D01*
X240845503Y-105211571D01*
X240750265Y-105259190D01*
X240369313Y-105259190D01*
X241321694Y-105449666D02*
X241797884Y-105449666D01*
X241226456Y-105735380D02*
X241559789Y-104735380D01*
X241893122Y-105735380D01*
X242655027Y-104735380D02*
X242464551Y-104735380D01*
X242369313Y-104783000D01*
X242321694Y-104830619D01*
X242226456Y-104973476D01*
X242178837Y-105163952D01*
X242178837Y-105544904D01*
X242226456Y-105640142D01*
X242274075Y-105687761D01*
X242369313Y-105735380D01*
X242559789Y-105735380D01*
X242655027Y-105687761D01*
X242702646Y-105640142D01*
X242750265Y-105544904D01*
X242750265Y-105306809D01*
X242702646Y-105211571D01*
X242655027Y-105163952D01*
X242559789Y-105116333D01*
X242369313Y-105116333D01*
X242274075Y-105163952D01*
X242226456Y-105211571D01*
X242178837Y-105306809D01*
G04 #@! TO.C,RA7*
X221410768Y-91201932D02*
X220934578Y-91535265D01*
X221410768Y-91773360D02*
X220410768Y-91773360D01*
X220410768Y-91392408D01*
X220458388Y-91297170D01*
X220506007Y-91249551D01*
X220601245Y-91201932D01*
X220744102Y-91201932D01*
X220839340Y-91249551D01*
X220886959Y-91297170D01*
X220934578Y-91392408D01*
X220934578Y-91773360D01*
X221125054Y-90820979D02*
X221125054Y-90344789D01*
X221410768Y-90916217D02*
X220410768Y-90582884D01*
X221410768Y-90249551D01*
X220410768Y-90011455D02*
X220410768Y-89344789D01*
X221410768Y-89773360D01*
G04 #@! TO.C,RB1*
X246202614Y-94920097D02*
X245726424Y-95253431D01*
X246202614Y-95491526D02*
X245202614Y-95491526D01*
X245202614Y-95110573D01*
X245250234Y-95015335D01*
X245297853Y-94967716D01*
X245393091Y-94920097D01*
X245535948Y-94920097D01*
X245631186Y-94967716D01*
X245678805Y-95015335D01*
X245726424Y-95110573D01*
X245726424Y-95491526D01*
X245678805Y-94158192D02*
X245726424Y-94015335D01*
X245774043Y-93967716D01*
X245869281Y-93920097D01*
X246012138Y-93920097D01*
X246107376Y-93967716D01*
X246154995Y-94015335D01*
X246202614Y-94110573D01*
X246202614Y-94491526D01*
X245202614Y-94491526D01*
X245202614Y-94158192D01*
X245250234Y-94062954D01*
X245297853Y-94015335D01*
X245393091Y-93967716D01*
X245488329Y-93967716D01*
X245583567Y-94015335D01*
X245631186Y-94062954D01*
X245678805Y-94158192D01*
X245678805Y-94491526D01*
X246202614Y-92967716D02*
X246202614Y-93539145D01*
X246202614Y-93253431D02*
X245202614Y-93253431D01*
X245345472Y-93348669D01*
X245440710Y-93443907D01*
X245488329Y-93539145D01*
G04 #@! TO.C,RB2*
X223115070Y-96911179D02*
X222638880Y-97244513D01*
X223115070Y-97482608D02*
X222115070Y-97482608D01*
X222115070Y-97101655D01*
X222162690Y-97006417D01*
X222210309Y-96958798D01*
X222305547Y-96911179D01*
X222448404Y-96911179D01*
X222543642Y-96958798D01*
X222591261Y-97006417D01*
X222638880Y-97101655D01*
X222638880Y-97482608D01*
X222591261Y-96149274D02*
X222638880Y-96006417D01*
X222686499Y-95958798D01*
X222781737Y-95911179D01*
X222924594Y-95911179D01*
X223019832Y-95958798D01*
X223067451Y-96006417D01*
X223115070Y-96101655D01*
X223115070Y-96482608D01*
X222115070Y-96482608D01*
X222115070Y-96149274D01*
X222162690Y-96054036D01*
X222210309Y-96006417D01*
X222305547Y-95958798D01*
X222400785Y-95958798D01*
X222496023Y-96006417D01*
X222543642Y-96054036D01*
X222591261Y-96149274D01*
X222591261Y-96482608D01*
X222210309Y-95530227D02*
X222162690Y-95482608D01*
X222115070Y-95387370D01*
X222115070Y-95149274D01*
X222162690Y-95054036D01*
X222210309Y-95006417D01*
X222305547Y-94958798D01*
X222400785Y-94958798D01*
X222543642Y-95006417D01*
X223115070Y-95577846D01*
X223115070Y-94958798D01*
G04 #@! TO.C,RB3*
X246512175Y-105935267D02*
X246035985Y-106268601D01*
X246512175Y-106506696D02*
X245512175Y-106506696D01*
X245512175Y-106125743D01*
X245559795Y-106030505D01*
X245607414Y-105982886D01*
X245702652Y-105935267D01*
X245845509Y-105935267D01*
X245940747Y-105982886D01*
X245988366Y-106030505D01*
X246035985Y-106125743D01*
X246035985Y-106506696D01*
X245988366Y-105173362D02*
X246035985Y-105030505D01*
X246083604Y-104982886D01*
X246178842Y-104935267D01*
X246321699Y-104935267D01*
X246416937Y-104982886D01*
X246464556Y-105030505D01*
X246512175Y-105125743D01*
X246512175Y-105506696D01*
X245512175Y-105506696D01*
X245512175Y-105173362D01*
X245559795Y-105078124D01*
X245607414Y-105030505D01*
X245702652Y-104982886D01*
X245797890Y-104982886D01*
X245893128Y-105030505D01*
X245940747Y-105078124D01*
X245988366Y-105173362D01*
X245988366Y-105506696D01*
X245512175Y-104601934D02*
X245512175Y-103982886D01*
X245893128Y-104316220D01*
X245893128Y-104173362D01*
X245940747Y-104078124D01*
X245988366Y-104030505D01*
X246083604Y-103982886D01*
X246321699Y-103982886D01*
X246416937Y-104030505D01*
X246464556Y-104078124D01*
X246512175Y-104173362D01*
X246512175Y-104459077D01*
X246464556Y-104554315D01*
X246416937Y-104601934D01*
G04 #@! TO.C,RB4*
X283723340Y-97481306D02*
X283247150Y-97814640D01*
X283723340Y-98052735D02*
X282723340Y-98052735D01*
X282723340Y-97671782D01*
X282770960Y-97576544D01*
X282818579Y-97528925D01*
X282913817Y-97481306D01*
X283056674Y-97481306D01*
X283151912Y-97528925D01*
X283199531Y-97576544D01*
X283247150Y-97671782D01*
X283247150Y-98052735D01*
X283199531Y-96719401D02*
X283247150Y-96576544D01*
X283294769Y-96528925D01*
X283390007Y-96481306D01*
X283532864Y-96481306D01*
X283628102Y-96528925D01*
X283675721Y-96576544D01*
X283723340Y-96671782D01*
X283723340Y-97052735D01*
X282723340Y-97052735D01*
X282723340Y-96719401D01*
X282770960Y-96624163D01*
X282818579Y-96576544D01*
X282913817Y-96528925D01*
X283009055Y-96528925D01*
X283104293Y-96576544D01*
X283151912Y-96624163D01*
X283199531Y-96719401D01*
X283199531Y-97052735D01*
X283056674Y-95624163D02*
X283723340Y-95624163D01*
X282675721Y-95862259D02*
X283390007Y-96100354D01*
X283390007Y-95481306D01*
G04 #@! TO.C,RB5*
X271529893Y-108605580D02*
X271196560Y-108129390D01*
X270958464Y-108605580D02*
X270958464Y-107605580D01*
X271339417Y-107605580D01*
X271434655Y-107653200D01*
X271482274Y-107700819D01*
X271529893Y-107796057D01*
X271529893Y-107938914D01*
X271482274Y-108034152D01*
X271434655Y-108081771D01*
X271339417Y-108129390D01*
X270958464Y-108129390D01*
X272291798Y-108081771D02*
X272434655Y-108129390D01*
X272482274Y-108177009D01*
X272529893Y-108272247D01*
X272529893Y-108415104D01*
X272482274Y-108510342D01*
X272434655Y-108557961D01*
X272339417Y-108605580D01*
X271958464Y-108605580D01*
X271958464Y-107605580D01*
X272291798Y-107605580D01*
X272387036Y-107653200D01*
X272434655Y-107700819D01*
X272482274Y-107796057D01*
X272482274Y-107891295D01*
X272434655Y-107986533D01*
X272387036Y-108034152D01*
X272291798Y-108081771D01*
X271958464Y-108081771D01*
X273434655Y-107605580D02*
X272958464Y-107605580D01*
X272910845Y-108081771D01*
X272958464Y-108034152D01*
X273053702Y-107986533D01*
X273291798Y-107986533D01*
X273387036Y-108034152D01*
X273434655Y-108081771D01*
X273482274Y-108177009D01*
X273482274Y-108415104D01*
X273434655Y-108510342D01*
X273387036Y-108557961D01*
X273291798Y-108605580D01*
X273053702Y-108605580D01*
X272958464Y-108557961D01*
X272910845Y-108510342D01*
G04 #@! TO.C,RB6*
X237839333Y-107142540D02*
X237506000Y-106666350D01*
X237267904Y-107142540D02*
X237267904Y-106142540D01*
X237648857Y-106142540D01*
X237744095Y-106190160D01*
X237791714Y-106237779D01*
X237839333Y-106333017D01*
X237839333Y-106475874D01*
X237791714Y-106571112D01*
X237744095Y-106618731D01*
X237648857Y-106666350D01*
X237267904Y-106666350D01*
X238601238Y-106618731D02*
X238744095Y-106666350D01*
X238791714Y-106713969D01*
X238839333Y-106809207D01*
X238839333Y-106952064D01*
X238791714Y-107047302D01*
X238744095Y-107094921D01*
X238648857Y-107142540D01*
X238267904Y-107142540D01*
X238267904Y-106142540D01*
X238601238Y-106142540D01*
X238696476Y-106190160D01*
X238744095Y-106237779D01*
X238791714Y-106333017D01*
X238791714Y-106428255D01*
X238744095Y-106523493D01*
X238696476Y-106571112D01*
X238601238Y-106618731D01*
X238267904Y-106618731D01*
X239696476Y-106142540D02*
X239506000Y-106142540D01*
X239410761Y-106190160D01*
X239363142Y-106237779D01*
X239267904Y-106380636D01*
X239220285Y-106571112D01*
X239220285Y-106952064D01*
X239267904Y-107047302D01*
X239315523Y-107094921D01*
X239410761Y-107142540D01*
X239601238Y-107142540D01*
X239696476Y-107094921D01*
X239744095Y-107047302D01*
X239791714Y-106952064D01*
X239791714Y-106713969D01*
X239744095Y-106618731D01*
X239696476Y-106571112D01*
X239601238Y-106523493D01*
X239410761Y-106523493D01*
X239315523Y-106571112D01*
X239267904Y-106618731D01*
X239220285Y-106713969D01*
G04 #@! TO.C,RB7*
X220110952Y-87727319D02*
X219634762Y-88060653D01*
X220110952Y-88298748D02*
X219110952Y-88298748D01*
X219110952Y-87917795D01*
X219158572Y-87822557D01*
X219206191Y-87774938D01*
X219301429Y-87727319D01*
X219444286Y-87727319D01*
X219539524Y-87774938D01*
X219587143Y-87822557D01*
X219634762Y-87917795D01*
X219634762Y-88298748D01*
X219587143Y-86965414D02*
X219634762Y-86822557D01*
X219682381Y-86774938D01*
X219777619Y-86727319D01*
X219920476Y-86727319D01*
X220015714Y-86774938D01*
X220063333Y-86822557D01*
X220110952Y-86917795D01*
X220110952Y-87298748D01*
X219110952Y-87298748D01*
X219110952Y-86965414D01*
X219158572Y-86870176D01*
X219206191Y-86822557D01*
X219301429Y-86774938D01*
X219396667Y-86774938D01*
X219491905Y-86822557D01*
X219539524Y-86870176D01*
X219587143Y-86965414D01*
X219587143Y-87298748D01*
X219110952Y-86393986D02*
X219110952Y-85727319D01*
X220110952Y-86155891D01*
G04 #@! TO.C,U1*
D16*
X261320375Y-91603580D02*
X261320375Y-92413104D01*
X261367994Y-92508342D01*
X261415613Y-92555961D01*
X261510851Y-92603580D01*
X261701327Y-92603580D01*
X261796565Y-92555961D01*
X261844184Y-92508342D01*
X261891803Y-92413104D01*
X261891803Y-91603580D01*
X262891803Y-92603580D02*
X262320375Y-92603580D01*
X262606089Y-92603580D02*
X262606089Y-91603580D01*
X262510851Y-91746438D01*
X262415613Y-91841676D01*
X262320375Y-91889295D01*
G04 #@! TO.C,U2*
X232706220Y-91122384D02*
X233515744Y-91122384D01*
X233610982Y-91074765D01*
X233658601Y-91027146D01*
X233706220Y-90931908D01*
X233706220Y-90741432D01*
X233658601Y-90646194D01*
X233610982Y-90598575D01*
X233515744Y-90550956D01*
X232706220Y-90550956D01*
X232801459Y-90122384D02*
X232753840Y-90074765D01*
X232706220Y-89979527D01*
X232706220Y-89741432D01*
X232753840Y-89646194D01*
X232801459Y-89598575D01*
X232896697Y-89550956D01*
X232991935Y-89550956D01*
X233134792Y-89598575D01*
X233706220Y-90170003D01*
X233706220Y-89550956D01*
X244190220Y-91415956D02*
X244190220Y-91892146D01*
X243190220Y-91892146D01*
X244190220Y-91082622D02*
X243190220Y-91082622D01*
X243904506Y-90749289D01*
X243190220Y-90415956D01*
X244190220Y-90415956D01*
X243190220Y-90035003D02*
X243190220Y-89415956D01*
X243571173Y-89749289D01*
X243571173Y-89606432D01*
X243618792Y-89511194D01*
X243666411Y-89463575D01*
X243761649Y-89415956D01*
X243999744Y-89415956D01*
X244094982Y-89463575D01*
X244142601Y-89511194D01*
X244190220Y-89606432D01*
X244190220Y-89892146D01*
X244142601Y-89987384D01*
X244094982Y-90035003D01*
X243285459Y-89035003D02*
X243237840Y-88987384D01*
X243190220Y-88892146D01*
X243190220Y-88654051D01*
X243237840Y-88558813D01*
X243285459Y-88511194D01*
X243380697Y-88463575D01*
X243475935Y-88463575D01*
X243618792Y-88511194D01*
X244190220Y-89082622D01*
X244190220Y-88463575D01*
X243523554Y-87606432D02*
X244190220Y-87606432D01*
X243142601Y-87844527D02*
X243856887Y-88082622D01*
X243856887Y-87463575D01*
G04 #@! TO.C,U3*
X252940172Y-91272106D02*
X252940172Y-92083112D01*
X252987879Y-92178524D01*
X253035585Y-92226230D01*
X253130997Y-92273936D01*
X253321822Y-92273936D01*
X253417234Y-92226230D01*
X253464941Y-92178524D01*
X253512647Y-92083112D01*
X253512647Y-91272106D01*
X253894296Y-91272106D02*
X254514477Y-91272106D01*
X254180533Y-91653756D01*
X254323652Y-91653756D01*
X254419064Y-91701462D01*
X254466771Y-91749168D01*
X254514477Y-91844581D01*
X254514477Y-92083112D01*
X254466771Y-92178524D01*
X254419064Y-92226230D01*
X254323652Y-92273936D01*
X254037415Y-92273936D01*
X253942002Y-92226230D01*
X253894296Y-92178524D01*
G04 #@! TO.C,U5*
X254340142Y-104147178D02*
X254340142Y-104958184D01*
X254387849Y-105053596D01*
X254435555Y-105101302D01*
X254530967Y-105149008D01*
X254721792Y-105149008D01*
X254817204Y-105101302D01*
X254864911Y-105053596D01*
X254912617Y-104958184D01*
X254912617Y-104147178D01*
X255866741Y-104147178D02*
X255389679Y-104147178D01*
X255341972Y-104624240D01*
X255389679Y-104576534D01*
X255485091Y-104528828D01*
X255723622Y-104528828D01*
X255819034Y-104576534D01*
X255866741Y-104624240D01*
X255914447Y-104719653D01*
X255914447Y-104958184D01*
X255866741Y-105053596D01*
X255819034Y-105101302D01*
X255723622Y-105149008D01*
X255485091Y-105149008D01*
X255389679Y-105101302D01*
X255341972Y-105053596D01*
G04 #@! TO.C,U7*
X276329139Y-104828566D02*
X277140145Y-104828566D01*
X277235557Y-104780859D01*
X277283263Y-104733153D01*
X277330969Y-104637741D01*
X277330969Y-104446916D01*
X277283263Y-104351504D01*
X277235557Y-104303797D01*
X277140145Y-104256091D01*
X276329139Y-104256091D01*
X276329139Y-103874442D02*
X276329139Y-103206555D01*
X277330969Y-103635911D01*
G04 #@! TO.C,U9*
X243155158Y-99316469D02*
X243966164Y-99316469D01*
X244061576Y-99268762D01*
X244109282Y-99221056D01*
X244156988Y-99125644D01*
X244156988Y-98934819D01*
X244109282Y-98839407D01*
X244061576Y-98791700D01*
X243966164Y-98743994D01*
X243155158Y-98743994D01*
X244156988Y-98219226D02*
X244156988Y-98028401D01*
X244109282Y-97932989D01*
X244061576Y-97885283D01*
X243918457Y-97789870D01*
X243727633Y-97742164D01*
X243345983Y-97742164D01*
X243250571Y-97789870D01*
X243202865Y-97837577D01*
X243155158Y-97932989D01*
X243155158Y-98123814D01*
X243202865Y-98219226D01*
X243250571Y-98266932D01*
X243345983Y-98314639D01*
X243584514Y-98314639D01*
X243679926Y-98266932D01*
X243727633Y-98219226D01*
X243775339Y-98123814D01*
X243775339Y-97932989D01*
X243727633Y-97837577D01*
X243679926Y-97789870D01*
X243584514Y-97742164D01*
G04 #@! TD*
M02*
