%TF.GenerationSoftware,KiCad,Pcbnew,(5.0.1)-4*%
%TF.CreationDate,2019-11-11T16:36:49-05:00*%
%TF.ProjectId,new_synth_transistor,6E65775F73796E74685F7472616E7369,rev?*%
%TF.SameCoordinates,Original*%
%TF.FileFunction,Soldermask,Top*%
%TF.FilePolarity,Negative*%
%FSLAX46Y46*%
G04 Gerber Fmt 4.6, Leading zero omitted, Abs format (unit mm)*
G04 Created by KiCad (PCBNEW (5.0.1)-4) date 11/11/2019 4:36:49 PM*
%MOMM*%
%LPD*%
G01*
G04 APERTURE LIST*
%ADD10C,0.100000*%
G04 APERTURE END LIST*
D10*
G36*
X214521440Y-101195798D02*
X214681601Y-101227656D01*
X214806584Y-101279426D01*
X214983336Y-101352639D01*
X215254896Y-101534090D01*
X215485830Y-101765024D01*
X215667281Y-102036584D01*
X215792264Y-102338320D01*
X215855980Y-102658640D01*
X215855980Y-102985240D01*
X215792264Y-103305560D01*
X215667281Y-103607296D01*
X215485830Y-103878856D01*
X215254896Y-104109790D01*
X214983336Y-104291241D01*
X214806584Y-104364454D01*
X214681601Y-104416224D01*
X214521440Y-104448082D01*
X214361280Y-104479940D01*
X214034680Y-104479940D01*
X213874520Y-104448082D01*
X213714359Y-104416224D01*
X213589376Y-104364454D01*
X213412624Y-104291241D01*
X213141064Y-104109790D01*
X212910130Y-103878856D01*
X212728679Y-103607296D01*
X212603696Y-103305560D01*
X212539980Y-102985240D01*
X212539980Y-102658640D01*
X212603696Y-102338320D01*
X212728679Y-102036584D01*
X212910130Y-101765024D01*
X213141064Y-101534090D01*
X213412624Y-101352639D01*
X213589376Y-101279426D01*
X213714359Y-101227656D01*
X213874520Y-101195798D01*
X214034680Y-101163940D01*
X214361280Y-101163940D01*
X214521440Y-101195798D01*
X214521440Y-101195798D01*
G37*
G36*
X154344630Y-97968299D02*
X154504855Y-98016903D01*
X154652520Y-98095831D01*
X154781949Y-98202051D01*
X154888169Y-98331480D01*
X154967097Y-98479145D01*
X155015701Y-98639370D01*
X155032112Y-98806000D01*
X155015701Y-98972630D01*
X154967097Y-99132855D01*
X154888169Y-99280520D01*
X154781949Y-99409949D01*
X154652520Y-99516169D01*
X154504855Y-99595097D01*
X154344630Y-99643701D01*
X154219752Y-99656000D01*
X154136248Y-99656000D01*
X154011370Y-99643701D01*
X153851145Y-99595097D01*
X153703480Y-99516169D01*
X153574051Y-99409949D01*
X153467831Y-99280520D01*
X153388903Y-99132855D01*
X153340299Y-98972630D01*
X153323888Y-98806000D01*
X153340299Y-98639370D01*
X153388903Y-98479145D01*
X153467831Y-98331480D01*
X153574051Y-98202051D01*
X153703480Y-98095831D01*
X153851145Y-98016903D01*
X154011370Y-97968299D01*
X154136248Y-97956000D01*
X154219752Y-97956000D01*
X154344630Y-97968299D01*
X154344630Y-97968299D01*
G37*
G36*
X139788000Y-99656000D02*
X138088000Y-99656000D01*
X138088000Y-97956000D01*
X139788000Y-97956000D01*
X139788000Y-99656000D01*
X139788000Y-99656000D01*
G37*
G36*
X141644630Y-97968299D02*
X141804855Y-98016903D01*
X141952520Y-98095831D01*
X142081949Y-98202051D01*
X142188169Y-98331480D01*
X142267097Y-98479145D01*
X142315701Y-98639370D01*
X142332112Y-98806000D01*
X142315701Y-98972630D01*
X142267097Y-99132855D01*
X142188169Y-99280520D01*
X142081949Y-99409949D01*
X141952520Y-99516169D01*
X141804855Y-99595097D01*
X141644630Y-99643701D01*
X141519752Y-99656000D01*
X141436248Y-99656000D01*
X141311370Y-99643701D01*
X141151145Y-99595097D01*
X141003480Y-99516169D01*
X140874051Y-99409949D01*
X140767831Y-99280520D01*
X140688903Y-99132855D01*
X140640299Y-98972630D01*
X140623888Y-98806000D01*
X140640299Y-98639370D01*
X140688903Y-98479145D01*
X140767831Y-98331480D01*
X140874051Y-98202051D01*
X141003480Y-98095831D01*
X141151145Y-98016903D01*
X141311370Y-97968299D01*
X141436248Y-97956000D01*
X141519752Y-97956000D01*
X141644630Y-97968299D01*
X141644630Y-97968299D01*
G37*
G36*
X144184630Y-97968299D02*
X144344855Y-98016903D01*
X144492520Y-98095831D01*
X144621949Y-98202051D01*
X144728169Y-98331480D01*
X144807097Y-98479145D01*
X144855701Y-98639370D01*
X144872112Y-98806000D01*
X144855701Y-98972630D01*
X144807097Y-99132855D01*
X144728169Y-99280520D01*
X144621949Y-99409949D01*
X144492520Y-99516169D01*
X144344855Y-99595097D01*
X144184630Y-99643701D01*
X144059752Y-99656000D01*
X143976248Y-99656000D01*
X143851370Y-99643701D01*
X143691145Y-99595097D01*
X143543480Y-99516169D01*
X143414051Y-99409949D01*
X143307831Y-99280520D01*
X143228903Y-99132855D01*
X143180299Y-98972630D01*
X143163888Y-98806000D01*
X143180299Y-98639370D01*
X143228903Y-98479145D01*
X143307831Y-98331480D01*
X143414051Y-98202051D01*
X143543480Y-98095831D01*
X143691145Y-98016903D01*
X143851370Y-97968299D01*
X143976248Y-97956000D01*
X144059752Y-97956000D01*
X144184630Y-97968299D01*
X144184630Y-97968299D01*
G37*
G36*
X149264630Y-97968299D02*
X149424855Y-98016903D01*
X149572520Y-98095831D01*
X149701949Y-98202051D01*
X149808169Y-98331480D01*
X149887097Y-98479145D01*
X149935701Y-98639370D01*
X149952112Y-98806000D01*
X149935701Y-98972630D01*
X149887097Y-99132855D01*
X149808169Y-99280520D01*
X149701949Y-99409949D01*
X149572520Y-99516169D01*
X149424855Y-99595097D01*
X149264630Y-99643701D01*
X149139752Y-99656000D01*
X149056248Y-99656000D01*
X148931370Y-99643701D01*
X148771145Y-99595097D01*
X148623480Y-99516169D01*
X148494051Y-99409949D01*
X148387831Y-99280520D01*
X148308903Y-99132855D01*
X148260299Y-98972630D01*
X148243888Y-98806000D01*
X148260299Y-98639370D01*
X148308903Y-98479145D01*
X148387831Y-98331480D01*
X148494051Y-98202051D01*
X148623480Y-98095831D01*
X148771145Y-98016903D01*
X148931370Y-97968299D01*
X149056248Y-97956000D01*
X149139752Y-97956000D01*
X149264630Y-97968299D01*
X149264630Y-97968299D01*
G37*
G36*
X146724630Y-97968299D02*
X146884855Y-98016903D01*
X147032520Y-98095831D01*
X147161949Y-98202051D01*
X147268169Y-98331480D01*
X147347097Y-98479145D01*
X147395701Y-98639370D01*
X147412112Y-98806000D01*
X147395701Y-98972630D01*
X147347097Y-99132855D01*
X147268169Y-99280520D01*
X147161949Y-99409949D01*
X147032520Y-99516169D01*
X146884855Y-99595097D01*
X146724630Y-99643701D01*
X146599752Y-99656000D01*
X146516248Y-99656000D01*
X146391370Y-99643701D01*
X146231145Y-99595097D01*
X146083480Y-99516169D01*
X145954051Y-99409949D01*
X145847831Y-99280520D01*
X145768903Y-99132855D01*
X145720299Y-98972630D01*
X145703888Y-98806000D01*
X145720299Y-98639370D01*
X145768903Y-98479145D01*
X145847831Y-98331480D01*
X145954051Y-98202051D01*
X146083480Y-98095831D01*
X146231145Y-98016903D01*
X146391370Y-97968299D01*
X146516248Y-97956000D01*
X146599752Y-97956000D01*
X146724630Y-97968299D01*
X146724630Y-97968299D01*
G37*
G36*
X151804630Y-97968299D02*
X151964855Y-98016903D01*
X152112520Y-98095831D01*
X152241949Y-98202051D01*
X152348169Y-98331480D01*
X152427097Y-98479145D01*
X152475701Y-98639370D01*
X152492112Y-98806000D01*
X152475701Y-98972630D01*
X152427097Y-99132855D01*
X152348169Y-99280520D01*
X152241949Y-99409949D01*
X152112520Y-99516169D01*
X151964855Y-99595097D01*
X151804630Y-99643701D01*
X151679752Y-99656000D01*
X151596248Y-99656000D01*
X151471370Y-99643701D01*
X151311145Y-99595097D01*
X151163480Y-99516169D01*
X151034051Y-99409949D01*
X150927831Y-99280520D01*
X150848903Y-99132855D01*
X150800299Y-98972630D01*
X150783888Y-98806000D01*
X150800299Y-98639370D01*
X150848903Y-98479145D01*
X150927831Y-98331480D01*
X151034051Y-98202051D01*
X151163480Y-98095831D01*
X151311145Y-98016903D01*
X151471370Y-97968299D01*
X151596248Y-97956000D01*
X151679752Y-97956000D01*
X151804630Y-97968299D01*
X151804630Y-97968299D01*
G37*
G36*
X202795130Y-97363779D02*
X202955355Y-97412383D01*
X203103020Y-97491311D01*
X203232449Y-97597531D01*
X203338669Y-97726960D01*
X203417597Y-97874625D01*
X203466201Y-98034850D01*
X203482612Y-98201480D01*
X203466201Y-98368110D01*
X203417597Y-98528335D01*
X203338669Y-98676000D01*
X203232449Y-98805429D01*
X203103020Y-98911649D01*
X202955355Y-98990577D01*
X202795130Y-99039181D01*
X202670252Y-99051480D01*
X202586748Y-99051480D01*
X202461870Y-99039181D01*
X202301645Y-98990577D01*
X202153980Y-98911649D01*
X202024551Y-98805429D01*
X201918331Y-98676000D01*
X201839403Y-98528335D01*
X201790799Y-98368110D01*
X201774388Y-98201480D01*
X201790799Y-98034850D01*
X201839403Y-97874625D01*
X201918331Y-97726960D01*
X202024551Y-97597531D01*
X202153980Y-97491311D01*
X202301645Y-97412383D01*
X202461870Y-97363779D01*
X202586748Y-97351480D01*
X202670252Y-97351480D01*
X202795130Y-97363779D01*
X202795130Y-97363779D01*
G37*
G36*
X209696246Y-97325378D02*
X209826183Y-97379199D01*
X209943133Y-97457343D01*
X210042577Y-97556787D01*
X210042579Y-97556790D01*
X210042580Y-97556791D01*
X210069802Y-97597532D01*
X210120721Y-97673737D01*
X210174542Y-97803674D01*
X210201980Y-97941616D01*
X210201980Y-98082264D01*
X210174542Y-98220206D01*
X210120721Y-98350143D01*
X210120719Y-98350146D01*
X210064345Y-98434516D01*
X210042577Y-98467093D01*
X209943133Y-98566537D01*
X209826183Y-98644681D01*
X209696246Y-98698502D01*
X209558304Y-98725940D01*
X209417656Y-98725940D01*
X209279714Y-98698502D01*
X209149777Y-98644681D01*
X209032827Y-98566537D01*
X208933383Y-98467093D01*
X208911616Y-98434516D01*
X208855241Y-98350146D01*
X208855239Y-98350143D01*
X208801418Y-98220206D01*
X208773980Y-98082264D01*
X208773980Y-97941616D01*
X208801418Y-97803674D01*
X208855239Y-97673737D01*
X208906158Y-97597532D01*
X208933380Y-97556791D01*
X208933381Y-97556790D01*
X208933383Y-97556787D01*
X209032827Y-97457343D01*
X209149777Y-97379199D01*
X209279714Y-97325378D01*
X209417656Y-97297940D01*
X209558304Y-97297940D01*
X209696246Y-97325378D01*
X209696246Y-97325378D01*
G37*
G36*
X211696246Y-97325378D02*
X211826183Y-97379199D01*
X211943133Y-97457343D01*
X212042577Y-97556787D01*
X212042579Y-97556790D01*
X212042580Y-97556791D01*
X212069802Y-97597532D01*
X212120721Y-97673737D01*
X212174542Y-97803674D01*
X212201980Y-97941616D01*
X212201980Y-98082264D01*
X212174542Y-98220206D01*
X212120721Y-98350143D01*
X212120719Y-98350146D01*
X212064345Y-98434516D01*
X212042577Y-98467093D01*
X211943133Y-98566537D01*
X211826183Y-98644681D01*
X211696246Y-98698502D01*
X211558304Y-98725940D01*
X211417656Y-98725940D01*
X211279714Y-98698502D01*
X211149777Y-98644681D01*
X211032827Y-98566537D01*
X210933383Y-98467093D01*
X210911616Y-98434516D01*
X210855241Y-98350146D01*
X210855239Y-98350143D01*
X210801418Y-98220206D01*
X210773980Y-98082264D01*
X210773980Y-97941616D01*
X210801418Y-97803674D01*
X210855239Y-97673737D01*
X210906158Y-97597532D01*
X210933380Y-97556791D01*
X210933381Y-97556790D01*
X210933383Y-97556787D01*
X211032827Y-97457343D01*
X211149777Y-97379199D01*
X211279714Y-97325378D01*
X211417656Y-97297940D01*
X211558304Y-97297940D01*
X211696246Y-97325378D01*
X211696246Y-97325378D01*
G37*
G36*
X173190792Y-97043276D02*
X173224683Y-97053557D01*
X173255911Y-97070248D01*
X173283285Y-97092715D01*
X173305752Y-97120089D01*
X173322443Y-97151317D01*
X173332724Y-97185208D01*
X173336800Y-97226591D01*
X173336800Y-98251809D01*
X173332724Y-98293192D01*
X173322443Y-98327083D01*
X173305752Y-98358311D01*
X173283285Y-98385685D01*
X173255911Y-98408152D01*
X173224683Y-98424843D01*
X173190792Y-98435124D01*
X173149409Y-98439200D01*
X172549191Y-98439200D01*
X172507808Y-98435124D01*
X172473917Y-98424843D01*
X172442689Y-98408152D01*
X172415315Y-98385685D01*
X172392848Y-98358311D01*
X172376157Y-98327083D01*
X172365876Y-98293192D01*
X172361800Y-98251809D01*
X172361800Y-97226591D01*
X172365876Y-97185208D01*
X172376157Y-97151317D01*
X172392848Y-97120089D01*
X172415315Y-97092715D01*
X172442689Y-97070248D01*
X172473917Y-97053557D01*
X172507808Y-97043276D01*
X172549191Y-97039200D01*
X173149409Y-97039200D01*
X173190792Y-97043276D01*
X173190792Y-97043276D01*
G37*
G36*
X175065792Y-97043276D02*
X175099683Y-97053557D01*
X175130911Y-97070248D01*
X175158285Y-97092715D01*
X175180752Y-97120089D01*
X175197443Y-97151317D01*
X175207724Y-97185208D01*
X175211800Y-97226591D01*
X175211800Y-98251809D01*
X175207724Y-98293192D01*
X175197443Y-98327083D01*
X175180752Y-98358311D01*
X175158285Y-98385685D01*
X175130911Y-98408152D01*
X175099683Y-98424843D01*
X175065792Y-98435124D01*
X175024409Y-98439200D01*
X174424191Y-98439200D01*
X174382808Y-98435124D01*
X174348917Y-98424843D01*
X174317689Y-98408152D01*
X174290315Y-98385685D01*
X174267848Y-98358311D01*
X174251157Y-98327083D01*
X174240876Y-98293192D01*
X174236800Y-98251809D01*
X174236800Y-97226591D01*
X174240876Y-97185208D01*
X174251157Y-97151317D01*
X174267848Y-97120089D01*
X174290315Y-97092715D01*
X174317689Y-97070248D01*
X174348917Y-97053557D01*
X174382808Y-97043276D01*
X174424191Y-97039200D01*
X175024409Y-97039200D01*
X175065792Y-97043276D01*
X175065792Y-97043276D01*
G37*
G36*
X203478500Y-96511480D02*
X201778500Y-96511480D01*
X201778500Y-94811480D01*
X203478500Y-94811480D01*
X203478500Y-96511480D01*
X203478500Y-96511480D01*
G37*
G36*
X165566192Y-95062076D02*
X165600083Y-95072357D01*
X165631311Y-95089048D01*
X165658685Y-95111515D01*
X165681152Y-95138889D01*
X165697843Y-95170117D01*
X165708124Y-95204008D01*
X165712200Y-95245391D01*
X165712200Y-96270609D01*
X165708124Y-96311992D01*
X165697843Y-96345883D01*
X165681152Y-96377111D01*
X165658685Y-96404485D01*
X165631311Y-96426952D01*
X165600083Y-96443643D01*
X165566192Y-96453924D01*
X165524809Y-96458000D01*
X164924591Y-96458000D01*
X164883208Y-96453924D01*
X164849317Y-96443643D01*
X164818089Y-96426952D01*
X164790715Y-96404485D01*
X164768248Y-96377111D01*
X164751557Y-96345883D01*
X164741276Y-96311992D01*
X164737200Y-96270609D01*
X164737200Y-95245391D01*
X164741276Y-95204008D01*
X164751557Y-95170117D01*
X164768248Y-95138889D01*
X164790715Y-95111515D01*
X164818089Y-95089048D01*
X164849317Y-95072357D01*
X164883208Y-95062076D01*
X164924591Y-95058000D01*
X165524809Y-95058000D01*
X165566192Y-95062076D01*
X165566192Y-95062076D01*
G37*
G36*
X163691192Y-95062076D02*
X163725083Y-95072357D01*
X163756311Y-95089048D01*
X163783685Y-95111515D01*
X163806152Y-95138889D01*
X163822843Y-95170117D01*
X163833124Y-95204008D01*
X163837200Y-95245391D01*
X163837200Y-96270609D01*
X163833124Y-96311992D01*
X163822843Y-96345883D01*
X163806152Y-96377111D01*
X163783685Y-96404485D01*
X163756311Y-96426952D01*
X163725083Y-96443643D01*
X163691192Y-96453924D01*
X163649809Y-96458000D01*
X163049591Y-96458000D01*
X163008208Y-96453924D01*
X162974317Y-96443643D01*
X162943089Y-96426952D01*
X162915715Y-96404485D01*
X162893248Y-96377111D01*
X162876557Y-96345883D01*
X162866276Y-96311992D01*
X162862200Y-96270609D01*
X162862200Y-95245391D01*
X162866276Y-95204008D01*
X162876557Y-95170117D01*
X162893248Y-95138889D01*
X162915715Y-95111515D01*
X162943089Y-95089048D01*
X162974317Y-95072357D01*
X163008208Y-95062076D01*
X163049591Y-95058000D01*
X163649809Y-95058000D01*
X163691192Y-95062076D01*
X163691192Y-95062076D01*
G37*
G36*
X211696246Y-94825378D02*
X211826183Y-94879199D01*
X211826186Y-94879201D01*
X211922747Y-94943721D01*
X211943133Y-94957343D01*
X212042577Y-95056787D01*
X212042579Y-95056790D01*
X212042580Y-95056791D01*
X212052981Y-95072357D01*
X212120721Y-95173737D01*
X212174542Y-95303674D01*
X212201980Y-95441616D01*
X212201980Y-95582264D01*
X212174542Y-95720206D01*
X212120721Y-95850143D01*
X212042577Y-95967093D01*
X211943133Y-96066537D01*
X211826183Y-96144681D01*
X211696246Y-96198502D01*
X211558304Y-96225940D01*
X211417656Y-96225940D01*
X211279714Y-96198502D01*
X211149777Y-96144681D01*
X211032827Y-96066537D01*
X210933383Y-95967093D01*
X210855239Y-95850143D01*
X210801418Y-95720206D01*
X210773980Y-95582264D01*
X210773980Y-95441616D01*
X210801418Y-95303674D01*
X210855239Y-95173737D01*
X210922979Y-95072357D01*
X210933380Y-95056791D01*
X210933381Y-95056790D01*
X210933383Y-95056787D01*
X211032827Y-94957343D01*
X211053214Y-94943721D01*
X211149774Y-94879201D01*
X211149777Y-94879199D01*
X211279714Y-94825378D01*
X211417656Y-94797940D01*
X211558304Y-94797940D01*
X211696246Y-94825378D01*
X211696246Y-94825378D01*
G37*
G36*
X210201980Y-96225940D02*
X208773980Y-96225940D01*
X208773980Y-94797940D01*
X210201980Y-94797940D01*
X210201980Y-96225940D01*
X210201980Y-96225940D01*
G37*
G36*
X170508800Y-96134200D02*
X168308800Y-96134200D01*
X168308800Y-95534200D01*
X170508800Y-95534200D01*
X170508800Y-96134200D01*
X170508800Y-96134200D01*
G37*
G36*
X175708800Y-96134200D02*
X173508800Y-96134200D01*
X173508800Y-95534200D01*
X175708800Y-95534200D01*
X175708800Y-96134200D01*
X175708800Y-96134200D01*
G37*
G36*
X152188400Y-95778600D02*
X149988400Y-95778600D01*
X149988400Y-95178600D01*
X152188400Y-95178600D01*
X152188400Y-95778600D01*
X152188400Y-95778600D01*
G37*
G36*
X146988400Y-95778600D02*
X144788400Y-95778600D01*
X144788400Y-95178600D01*
X146988400Y-95178600D01*
X146988400Y-95778600D01*
X146988400Y-95778600D01*
G37*
G36*
X177490392Y-94434076D02*
X177524283Y-94444357D01*
X177555511Y-94461048D01*
X177582885Y-94483515D01*
X177605352Y-94510889D01*
X177622043Y-94542117D01*
X177632324Y-94576008D01*
X177636400Y-94617391D01*
X177636400Y-95217609D01*
X177632324Y-95258992D01*
X177622043Y-95292883D01*
X177605352Y-95324111D01*
X177582885Y-95351485D01*
X177555511Y-95373952D01*
X177524283Y-95390643D01*
X177490392Y-95400924D01*
X177449009Y-95405000D01*
X176423791Y-95405000D01*
X176382408Y-95400924D01*
X176348517Y-95390643D01*
X176317289Y-95373952D01*
X176289915Y-95351485D01*
X176267448Y-95324111D01*
X176250757Y-95292883D01*
X176240476Y-95258992D01*
X176236400Y-95217609D01*
X176236400Y-94617391D01*
X176240476Y-94576008D01*
X176250757Y-94542117D01*
X176267448Y-94510889D01*
X176289915Y-94483515D01*
X176317289Y-94461048D01*
X176348517Y-94444357D01*
X176382408Y-94434076D01*
X176423791Y-94430000D01*
X177449009Y-94430000D01*
X177490392Y-94434076D01*
X177490392Y-94434076D01*
G37*
G36*
X154528792Y-94360176D02*
X154562683Y-94370457D01*
X154593911Y-94387148D01*
X154621285Y-94409615D01*
X154643752Y-94436989D01*
X154660443Y-94468217D01*
X154670724Y-94502108D01*
X154674800Y-94543491D01*
X154674800Y-95143709D01*
X154670724Y-95185092D01*
X154660443Y-95218983D01*
X154643752Y-95250211D01*
X154621285Y-95277585D01*
X154593911Y-95300052D01*
X154562683Y-95316743D01*
X154528792Y-95327024D01*
X154487409Y-95331100D01*
X153462191Y-95331100D01*
X153420808Y-95327024D01*
X153386917Y-95316743D01*
X153355689Y-95300052D01*
X153328315Y-95277585D01*
X153305848Y-95250211D01*
X153289157Y-95218983D01*
X153278876Y-95185092D01*
X153274800Y-95143709D01*
X153274800Y-94543491D01*
X153278876Y-94502108D01*
X153289157Y-94468217D01*
X153305848Y-94436989D01*
X153328315Y-94409615D01*
X153355689Y-94387148D01*
X153386917Y-94370457D01*
X153420808Y-94360176D01*
X153462191Y-94356100D01*
X154487409Y-94356100D01*
X154528792Y-94360176D01*
X154528792Y-94360176D01*
G37*
G36*
X180607592Y-93588876D02*
X180641483Y-93599157D01*
X180672711Y-93615848D01*
X180700085Y-93638315D01*
X180722552Y-93665689D01*
X180739243Y-93696917D01*
X180749524Y-93730808D01*
X180753600Y-93772191D01*
X180753600Y-94797409D01*
X180749524Y-94838792D01*
X180739243Y-94872683D01*
X180722552Y-94903911D01*
X180700085Y-94931285D01*
X180672711Y-94953752D01*
X180641483Y-94970443D01*
X180607592Y-94980724D01*
X180566209Y-94984800D01*
X179965991Y-94984800D01*
X179924608Y-94980724D01*
X179890717Y-94970443D01*
X179859489Y-94953752D01*
X179832115Y-94931285D01*
X179809648Y-94903911D01*
X179792957Y-94872683D01*
X179782676Y-94838792D01*
X179778600Y-94797409D01*
X179778600Y-93772191D01*
X179782676Y-93730808D01*
X179792957Y-93696917D01*
X179809648Y-93665689D01*
X179832115Y-93638315D01*
X179859489Y-93615848D01*
X179890717Y-93599157D01*
X179924608Y-93588876D01*
X179965991Y-93584800D01*
X180566209Y-93584800D01*
X180607592Y-93588876D01*
X180607592Y-93588876D01*
G37*
G36*
X189950192Y-93588876D02*
X189984083Y-93599157D01*
X190015311Y-93615848D01*
X190042685Y-93638315D01*
X190065152Y-93665689D01*
X190081843Y-93696917D01*
X190092124Y-93730808D01*
X190096200Y-93772191D01*
X190096200Y-94797409D01*
X190092124Y-94838792D01*
X190081843Y-94872683D01*
X190065152Y-94903911D01*
X190042685Y-94931285D01*
X190015311Y-94953752D01*
X189984083Y-94970443D01*
X189950192Y-94980724D01*
X189908809Y-94984800D01*
X189308591Y-94984800D01*
X189267208Y-94980724D01*
X189233317Y-94970443D01*
X189202089Y-94953752D01*
X189174715Y-94931285D01*
X189152248Y-94903911D01*
X189135557Y-94872683D01*
X189125276Y-94838792D01*
X189121200Y-94797409D01*
X189121200Y-93772191D01*
X189125276Y-93730808D01*
X189135557Y-93696917D01*
X189152248Y-93665689D01*
X189174715Y-93638315D01*
X189202089Y-93615848D01*
X189233317Y-93599157D01*
X189267208Y-93588876D01*
X189308591Y-93584800D01*
X189908809Y-93584800D01*
X189950192Y-93588876D01*
X189950192Y-93588876D01*
G37*
G36*
X182482592Y-93588876D02*
X182516483Y-93599157D01*
X182547711Y-93615848D01*
X182575085Y-93638315D01*
X182597552Y-93665689D01*
X182614243Y-93696917D01*
X182624524Y-93730808D01*
X182628600Y-93772191D01*
X182628600Y-94797409D01*
X182624524Y-94838792D01*
X182614243Y-94872683D01*
X182597552Y-94903911D01*
X182575085Y-94931285D01*
X182547711Y-94953752D01*
X182516483Y-94970443D01*
X182482592Y-94980724D01*
X182441209Y-94984800D01*
X181840991Y-94984800D01*
X181799608Y-94980724D01*
X181765717Y-94970443D01*
X181734489Y-94953752D01*
X181707115Y-94931285D01*
X181684648Y-94903911D01*
X181667957Y-94872683D01*
X181657676Y-94838792D01*
X181653600Y-94797409D01*
X181653600Y-93772191D01*
X181657676Y-93730808D01*
X181667957Y-93696917D01*
X181684648Y-93665689D01*
X181707115Y-93638315D01*
X181734489Y-93615848D01*
X181765717Y-93599157D01*
X181799608Y-93588876D01*
X181840991Y-93584800D01*
X182441209Y-93584800D01*
X182482592Y-93588876D01*
X182482592Y-93588876D01*
G37*
G36*
X188075192Y-93588876D02*
X188109083Y-93599157D01*
X188140311Y-93615848D01*
X188167685Y-93638315D01*
X188190152Y-93665689D01*
X188206843Y-93696917D01*
X188217124Y-93730808D01*
X188221200Y-93772191D01*
X188221200Y-94797409D01*
X188217124Y-94838792D01*
X188206843Y-94872683D01*
X188190152Y-94903911D01*
X188167685Y-94931285D01*
X188140311Y-94953752D01*
X188109083Y-94970443D01*
X188075192Y-94980724D01*
X188033809Y-94984800D01*
X187433591Y-94984800D01*
X187392208Y-94980724D01*
X187358317Y-94970443D01*
X187327089Y-94953752D01*
X187299715Y-94931285D01*
X187277248Y-94903911D01*
X187260557Y-94872683D01*
X187250276Y-94838792D01*
X187246200Y-94797409D01*
X187246200Y-93772191D01*
X187250276Y-93730808D01*
X187260557Y-93696917D01*
X187277248Y-93665689D01*
X187299715Y-93638315D01*
X187327089Y-93615848D01*
X187358317Y-93599157D01*
X187392208Y-93588876D01*
X187433591Y-93584800D01*
X188033809Y-93584800D01*
X188075192Y-93588876D01*
X188075192Y-93588876D01*
G37*
G36*
X175708800Y-94864200D02*
X173508800Y-94864200D01*
X173508800Y-94264200D01*
X175708800Y-94264200D01*
X175708800Y-94864200D01*
X175708800Y-94864200D01*
G37*
G36*
X170508800Y-94864200D02*
X168308800Y-94864200D01*
X168308800Y-94264200D01*
X170508800Y-94264200D01*
X170508800Y-94864200D01*
X170508800Y-94864200D01*
G37*
G36*
X146988400Y-94508600D02*
X144788400Y-94508600D01*
X144788400Y-93908600D01*
X146988400Y-93908600D01*
X146988400Y-94508600D01*
X146988400Y-94508600D01*
G37*
G36*
X152188400Y-94508600D02*
X149988400Y-94508600D01*
X149988400Y-93908600D01*
X152188400Y-93908600D01*
X152188400Y-94508600D01*
X152188400Y-94508600D01*
G37*
G36*
X164380400Y-94356200D02*
X162180400Y-94356200D01*
X162180400Y-93756200D01*
X164380400Y-93756200D01*
X164380400Y-94356200D01*
X164380400Y-94356200D01*
G37*
G36*
X159180400Y-94356200D02*
X156980400Y-94356200D01*
X156980400Y-93756200D01*
X159180400Y-93756200D01*
X159180400Y-94356200D01*
X159180400Y-94356200D01*
G37*
G36*
X138726400Y-94254600D02*
X136526400Y-94254600D01*
X136526400Y-93654600D01*
X138726400Y-93654600D01*
X138726400Y-94254600D01*
X138726400Y-94254600D01*
G37*
G36*
X133526400Y-94254600D02*
X131326400Y-94254600D01*
X131326400Y-93654600D01*
X133526400Y-93654600D01*
X133526400Y-94254600D01*
X133526400Y-94254600D01*
G37*
G36*
X170508800Y-93594200D02*
X168308800Y-93594200D01*
X168308800Y-92994200D01*
X170508800Y-92994200D01*
X170508800Y-93594200D01*
X170508800Y-93594200D01*
G37*
G36*
X175708800Y-93594200D02*
X173508800Y-93594200D01*
X173508800Y-92994200D01*
X175708800Y-92994200D01*
X175708800Y-93594200D01*
X175708800Y-93594200D01*
G37*
G36*
X177490392Y-92559076D02*
X177524283Y-92569357D01*
X177555511Y-92586048D01*
X177582885Y-92608515D01*
X177605352Y-92635889D01*
X177622043Y-92667117D01*
X177632324Y-92701008D01*
X177636400Y-92742391D01*
X177636400Y-93342609D01*
X177632324Y-93383992D01*
X177622043Y-93417883D01*
X177605352Y-93449111D01*
X177582885Y-93476485D01*
X177555511Y-93498952D01*
X177524283Y-93515643D01*
X177490392Y-93525924D01*
X177449009Y-93530000D01*
X176423791Y-93530000D01*
X176382408Y-93525924D01*
X176348517Y-93515643D01*
X176317289Y-93498952D01*
X176289915Y-93476485D01*
X176267448Y-93449111D01*
X176250757Y-93417883D01*
X176240476Y-93383992D01*
X176236400Y-93342609D01*
X176236400Y-92742391D01*
X176240476Y-92701008D01*
X176250757Y-92667117D01*
X176267448Y-92635889D01*
X176289915Y-92608515D01*
X176317289Y-92586048D01*
X176348517Y-92569357D01*
X176382408Y-92559076D01*
X176423791Y-92555000D01*
X177449009Y-92555000D01*
X177490392Y-92559076D01*
X177490392Y-92559076D01*
G37*
G36*
X140711192Y-92554476D02*
X140745083Y-92564757D01*
X140776311Y-92581448D01*
X140803685Y-92603915D01*
X140826152Y-92631289D01*
X140842843Y-92662517D01*
X140853124Y-92696408D01*
X140857200Y-92737791D01*
X140857200Y-93338009D01*
X140853124Y-93379392D01*
X140842843Y-93413283D01*
X140826152Y-93444511D01*
X140803685Y-93471885D01*
X140776311Y-93494352D01*
X140745083Y-93511043D01*
X140711192Y-93521324D01*
X140669809Y-93525400D01*
X139644591Y-93525400D01*
X139603208Y-93521324D01*
X139569317Y-93511043D01*
X139538089Y-93494352D01*
X139510715Y-93471885D01*
X139488248Y-93444511D01*
X139471557Y-93413283D01*
X139461276Y-93379392D01*
X139457200Y-93338009D01*
X139457200Y-92737791D01*
X139461276Y-92696408D01*
X139471557Y-92662517D01*
X139488248Y-92631289D01*
X139510715Y-92603915D01*
X139538089Y-92581448D01*
X139569317Y-92564757D01*
X139603208Y-92554476D01*
X139644591Y-92550400D01*
X140669809Y-92550400D01*
X140711192Y-92554476D01*
X140711192Y-92554476D01*
G37*
G36*
X143454392Y-92503676D02*
X143488283Y-92513957D01*
X143519511Y-92530648D01*
X143546885Y-92553115D01*
X143569352Y-92580489D01*
X143586043Y-92611717D01*
X143596324Y-92645608D01*
X143600400Y-92686991D01*
X143600400Y-93287209D01*
X143596324Y-93328592D01*
X143586043Y-93362483D01*
X143569352Y-93393711D01*
X143546885Y-93421085D01*
X143519511Y-93443552D01*
X143488283Y-93460243D01*
X143454392Y-93470524D01*
X143413009Y-93474600D01*
X142387791Y-93474600D01*
X142346408Y-93470524D01*
X142312517Y-93460243D01*
X142281289Y-93443552D01*
X142253915Y-93421085D01*
X142231448Y-93393711D01*
X142214757Y-93362483D01*
X142204476Y-93328592D01*
X142200400Y-93287209D01*
X142200400Y-92686991D01*
X142204476Y-92645608D01*
X142214757Y-92611717D01*
X142231448Y-92580489D01*
X142253915Y-92553115D01*
X142281289Y-92530648D01*
X142312517Y-92513957D01*
X142346408Y-92503676D01*
X142387791Y-92499600D01*
X143413009Y-92499600D01*
X143454392Y-92503676D01*
X143454392Y-92503676D01*
G37*
G36*
X154528792Y-92485176D02*
X154562683Y-92495457D01*
X154593911Y-92512148D01*
X154621285Y-92534615D01*
X154643752Y-92561989D01*
X154660443Y-92593217D01*
X154670724Y-92627108D01*
X154674800Y-92668491D01*
X154674800Y-93268709D01*
X154670724Y-93310092D01*
X154660443Y-93343983D01*
X154643752Y-93375211D01*
X154621285Y-93402585D01*
X154593911Y-93425052D01*
X154562683Y-93441743D01*
X154528792Y-93452024D01*
X154487409Y-93456100D01*
X153462191Y-93456100D01*
X153420808Y-93452024D01*
X153386917Y-93441743D01*
X153355689Y-93425052D01*
X153328315Y-93402585D01*
X153305848Y-93375211D01*
X153289157Y-93343983D01*
X153278876Y-93310092D01*
X153274800Y-93268709D01*
X153274800Y-92668491D01*
X153278876Y-92627108D01*
X153289157Y-92593217D01*
X153305848Y-92561989D01*
X153328315Y-92534615D01*
X153355689Y-92512148D01*
X153386917Y-92495457D01*
X153420808Y-92485176D01*
X153462191Y-92481100D01*
X154487409Y-92481100D01*
X154528792Y-92485176D01*
X154528792Y-92485176D01*
G37*
G36*
X146988400Y-93238600D02*
X144788400Y-93238600D01*
X144788400Y-92638600D01*
X146988400Y-92638600D01*
X146988400Y-93238600D01*
X146988400Y-93238600D01*
G37*
G36*
X152188400Y-93238600D02*
X149988400Y-93238600D01*
X149988400Y-92638600D01*
X152188400Y-92638600D01*
X152188400Y-93238600D01*
X152188400Y-93238600D01*
G37*
G36*
X159180400Y-93086200D02*
X156980400Y-93086200D01*
X156980400Y-92486200D01*
X159180400Y-92486200D01*
X159180400Y-93086200D01*
X159180400Y-93086200D01*
G37*
G36*
X164380400Y-93086200D02*
X162180400Y-93086200D01*
X162180400Y-92486200D01*
X164380400Y-92486200D01*
X164380400Y-93086200D01*
X164380400Y-93086200D01*
G37*
G36*
X138726400Y-92984600D02*
X136526400Y-92984600D01*
X136526400Y-92384600D01*
X138726400Y-92384600D01*
X138726400Y-92984600D01*
X138726400Y-92984600D01*
G37*
G36*
X133526400Y-92984600D02*
X131326400Y-92984600D01*
X131326400Y-92384600D01*
X133526400Y-92384600D01*
X133526400Y-92984600D01*
X133526400Y-92984600D01*
G37*
G36*
X214440998Y-89139797D02*
X214681601Y-89187656D01*
X214806584Y-89239426D01*
X214983336Y-89312639D01*
X215254896Y-89494090D01*
X215485830Y-89725024D01*
X215667281Y-89996584D01*
X215700809Y-90077529D01*
X215792264Y-90298319D01*
X215855980Y-90618641D01*
X215855980Y-90945239D01*
X215792264Y-91265561D01*
X215748279Y-91371750D01*
X215667281Y-91567296D01*
X215485830Y-91838856D01*
X215254896Y-92069790D01*
X214983336Y-92251241D01*
X214807197Y-92324200D01*
X214681601Y-92376224D01*
X214578158Y-92396800D01*
X214361280Y-92439940D01*
X214034680Y-92439940D01*
X213817802Y-92396800D01*
X213714359Y-92376224D01*
X213588763Y-92324200D01*
X213412624Y-92251241D01*
X213141064Y-92069790D01*
X212910130Y-91838856D01*
X212728679Y-91567296D01*
X212647681Y-91371750D01*
X212603696Y-91265561D01*
X212539980Y-90945239D01*
X212539980Y-90618641D01*
X212603696Y-90298319D01*
X212695151Y-90077529D01*
X212728679Y-89996584D01*
X212910130Y-89725024D01*
X213141064Y-89494090D01*
X213412624Y-89312639D01*
X213589376Y-89239426D01*
X213714359Y-89187656D01*
X213954962Y-89139797D01*
X214034680Y-89123940D01*
X214361280Y-89123940D01*
X214440998Y-89139797D01*
X214440998Y-89139797D01*
G37*
G36*
X189606200Y-92396800D02*
X189006200Y-92396800D01*
X189006200Y-90196800D01*
X189606200Y-90196800D01*
X189606200Y-92396800D01*
X189606200Y-92396800D01*
G37*
G36*
X188336200Y-92396800D02*
X187736200Y-92396800D01*
X187736200Y-90196800D01*
X188336200Y-90196800D01*
X188336200Y-92396800D01*
X188336200Y-92396800D01*
G37*
G36*
X190876200Y-92396800D02*
X190276200Y-92396800D01*
X190276200Y-90196800D01*
X190876200Y-90196800D01*
X190876200Y-92396800D01*
X190876200Y-92396800D01*
G37*
G36*
X192146200Y-92396800D02*
X191546200Y-92396800D01*
X191546200Y-90196800D01*
X192146200Y-90196800D01*
X192146200Y-92396800D01*
X192146200Y-92396800D01*
G37*
G36*
X175708800Y-92324200D02*
X173508800Y-92324200D01*
X173508800Y-91724200D01*
X175708800Y-91724200D01*
X175708800Y-92324200D01*
X175708800Y-92324200D01*
G37*
G36*
X170508800Y-92324200D02*
X168308800Y-92324200D01*
X168308800Y-91724200D01*
X170508800Y-91724200D01*
X170508800Y-92324200D01*
X170508800Y-92324200D01*
G37*
G36*
X184678600Y-92142800D02*
X184078600Y-92142800D01*
X184078600Y-89942800D01*
X184678600Y-89942800D01*
X184678600Y-92142800D01*
X184678600Y-92142800D01*
G37*
G36*
X183408600Y-92142800D02*
X182808600Y-92142800D01*
X182808600Y-89942800D01*
X183408600Y-89942800D01*
X183408600Y-92142800D01*
X183408600Y-92142800D01*
G37*
G36*
X180868600Y-92142800D02*
X180268600Y-92142800D01*
X180268600Y-89942800D01*
X180868600Y-89942800D01*
X180868600Y-92142800D01*
X180868600Y-92142800D01*
G37*
G36*
X182138600Y-92142800D02*
X181538600Y-92142800D01*
X181538600Y-89942800D01*
X182138600Y-89942800D01*
X182138600Y-92142800D01*
X182138600Y-92142800D01*
G37*
G36*
X130347992Y-91132076D02*
X130381883Y-91142357D01*
X130413111Y-91159048D01*
X130440485Y-91181515D01*
X130462952Y-91208889D01*
X130479643Y-91240117D01*
X130489924Y-91274008D01*
X130494000Y-91315391D01*
X130494000Y-91915609D01*
X130489924Y-91956992D01*
X130479643Y-91990883D01*
X130462952Y-92022111D01*
X130440485Y-92049485D01*
X130413111Y-92071952D01*
X130381883Y-92088643D01*
X130347992Y-92098924D01*
X130306609Y-92103000D01*
X129281391Y-92103000D01*
X129240008Y-92098924D01*
X129206117Y-92088643D01*
X129174889Y-92071952D01*
X129147515Y-92049485D01*
X129125048Y-92022111D01*
X129108357Y-91990883D01*
X129098076Y-91956992D01*
X129094000Y-91915609D01*
X129094000Y-91315391D01*
X129098076Y-91274008D01*
X129108357Y-91240117D01*
X129125048Y-91208889D01*
X129147515Y-91181515D01*
X129174889Y-91159048D01*
X129206117Y-91142357D01*
X129240008Y-91132076D01*
X129281391Y-91128000D01*
X130306609Y-91128000D01*
X130347992Y-91132076D01*
X130347992Y-91132076D01*
G37*
G36*
X152188400Y-91968600D02*
X149988400Y-91968600D01*
X149988400Y-91368600D01*
X152188400Y-91368600D01*
X152188400Y-91968600D01*
X152188400Y-91968600D01*
G37*
G36*
X146988400Y-91968600D02*
X144788400Y-91968600D01*
X144788400Y-91368600D01*
X146988400Y-91368600D01*
X146988400Y-91968600D01*
X146988400Y-91968600D01*
G37*
G36*
X164380400Y-91816200D02*
X162180400Y-91816200D01*
X162180400Y-91216200D01*
X164380400Y-91216200D01*
X164380400Y-91816200D01*
X164380400Y-91816200D01*
G37*
G36*
X159180400Y-91816200D02*
X156980400Y-91816200D01*
X156980400Y-91216200D01*
X159180400Y-91216200D01*
X159180400Y-91816200D01*
X159180400Y-91816200D01*
G37*
G36*
X133526400Y-91714600D02*
X131326400Y-91714600D01*
X131326400Y-91114600D01*
X133526400Y-91114600D01*
X133526400Y-91714600D01*
X133526400Y-91714600D01*
G37*
G36*
X138726400Y-91714600D02*
X136526400Y-91714600D01*
X136526400Y-91114600D01*
X138726400Y-91114600D01*
X138726400Y-91714600D01*
X138726400Y-91714600D01*
G37*
G36*
X140711192Y-90679476D02*
X140745083Y-90689757D01*
X140776311Y-90706448D01*
X140803685Y-90728915D01*
X140826152Y-90756289D01*
X140842843Y-90787517D01*
X140853124Y-90821408D01*
X140857200Y-90862791D01*
X140857200Y-91463009D01*
X140853124Y-91504392D01*
X140842843Y-91538283D01*
X140826152Y-91569511D01*
X140803685Y-91596885D01*
X140776311Y-91619352D01*
X140745083Y-91636043D01*
X140711192Y-91646324D01*
X140669809Y-91650400D01*
X139644591Y-91650400D01*
X139603208Y-91646324D01*
X139569317Y-91636043D01*
X139538089Y-91619352D01*
X139510715Y-91596885D01*
X139488248Y-91569511D01*
X139471557Y-91538283D01*
X139461276Y-91504392D01*
X139457200Y-91463009D01*
X139457200Y-90862791D01*
X139461276Y-90821408D01*
X139471557Y-90787517D01*
X139488248Y-90756289D01*
X139510715Y-90728915D01*
X139538089Y-90706448D01*
X139569317Y-90689757D01*
X139603208Y-90679476D01*
X139644591Y-90675400D01*
X140669809Y-90675400D01*
X140711192Y-90679476D01*
X140711192Y-90679476D01*
G37*
G36*
X154477992Y-90674876D02*
X154511883Y-90685157D01*
X154543111Y-90701848D01*
X154570485Y-90724315D01*
X154592952Y-90751689D01*
X154609643Y-90782917D01*
X154619924Y-90816808D01*
X154624000Y-90858191D01*
X154624000Y-91458409D01*
X154619924Y-91499792D01*
X154609643Y-91533683D01*
X154592952Y-91564911D01*
X154570485Y-91592285D01*
X154543111Y-91614752D01*
X154511883Y-91631443D01*
X154477992Y-91641724D01*
X154436609Y-91645800D01*
X153411391Y-91645800D01*
X153370008Y-91641724D01*
X153336117Y-91631443D01*
X153304889Y-91614752D01*
X153277515Y-91592285D01*
X153255048Y-91564911D01*
X153238357Y-91533683D01*
X153228076Y-91499792D01*
X153224000Y-91458409D01*
X153224000Y-90858191D01*
X153228076Y-90816808D01*
X153238357Y-90782917D01*
X153255048Y-90751689D01*
X153277515Y-90724315D01*
X153304889Y-90701848D01*
X153336117Y-90685157D01*
X153370008Y-90674876D01*
X153411391Y-90670800D01*
X154436609Y-90670800D01*
X154477992Y-90674876D01*
X154477992Y-90674876D01*
G37*
G36*
X143454392Y-90628676D02*
X143488283Y-90638957D01*
X143519511Y-90655648D01*
X143546885Y-90678115D01*
X143569352Y-90705489D01*
X143586043Y-90736717D01*
X143596324Y-90770608D01*
X143600400Y-90811991D01*
X143600400Y-91412209D01*
X143596324Y-91453592D01*
X143586043Y-91487483D01*
X143569352Y-91518711D01*
X143546885Y-91546085D01*
X143519511Y-91568552D01*
X143488283Y-91585243D01*
X143454392Y-91595524D01*
X143413009Y-91599600D01*
X142387791Y-91599600D01*
X142346408Y-91595524D01*
X142312517Y-91585243D01*
X142281289Y-91568552D01*
X142253915Y-91546085D01*
X142231448Y-91518711D01*
X142214757Y-91487483D01*
X142204476Y-91453592D01*
X142200400Y-91412209D01*
X142200400Y-90811991D01*
X142204476Y-90770608D01*
X142214757Y-90736717D01*
X142231448Y-90705489D01*
X142253915Y-90678115D01*
X142281289Y-90655648D01*
X142312517Y-90638957D01*
X142346408Y-90628676D01*
X142387791Y-90624600D01*
X143413009Y-90624600D01*
X143454392Y-90628676D01*
X143454392Y-90628676D01*
G37*
G36*
X159180400Y-90546200D02*
X156980400Y-90546200D01*
X156980400Y-89946200D01*
X159180400Y-89946200D01*
X159180400Y-90546200D01*
X159180400Y-90546200D01*
G37*
G36*
X164380400Y-90546200D02*
X162180400Y-90546200D01*
X162180400Y-89946200D01*
X164380400Y-89946200D01*
X164380400Y-90546200D01*
X164380400Y-90546200D01*
G37*
G36*
X133526400Y-90444600D02*
X131326400Y-90444600D01*
X131326400Y-89844600D01*
X133526400Y-89844600D01*
X133526400Y-90444600D01*
X133526400Y-90444600D01*
G37*
G36*
X138726400Y-90444600D02*
X136526400Y-90444600D01*
X136526400Y-89844600D01*
X138726400Y-89844600D01*
X138726400Y-90444600D01*
X138726400Y-90444600D01*
G37*
G36*
X130347992Y-89257076D02*
X130381883Y-89267357D01*
X130413111Y-89284048D01*
X130440485Y-89306515D01*
X130462952Y-89333889D01*
X130479643Y-89365117D01*
X130489924Y-89399008D01*
X130494000Y-89440391D01*
X130494000Y-90040609D01*
X130489924Y-90081992D01*
X130479643Y-90115883D01*
X130462952Y-90147111D01*
X130440485Y-90174485D01*
X130413111Y-90196952D01*
X130381883Y-90213643D01*
X130347992Y-90223924D01*
X130306609Y-90228000D01*
X129281391Y-90228000D01*
X129240008Y-90223924D01*
X129206117Y-90213643D01*
X129174889Y-90196952D01*
X129147515Y-90174485D01*
X129125048Y-90147111D01*
X129108357Y-90115883D01*
X129098076Y-90081992D01*
X129094000Y-90040609D01*
X129094000Y-89440391D01*
X129098076Y-89399008D01*
X129108357Y-89365117D01*
X129125048Y-89333889D01*
X129147515Y-89306515D01*
X129174889Y-89284048D01*
X129206117Y-89267357D01*
X129240008Y-89257076D01*
X129281391Y-89253000D01*
X130306609Y-89253000D01*
X130347992Y-89257076D01*
X130347992Y-89257076D01*
G37*
G36*
X140761992Y-88947676D02*
X140795883Y-88957957D01*
X140827111Y-88974648D01*
X140854485Y-88997115D01*
X140876952Y-89024489D01*
X140893643Y-89055717D01*
X140903924Y-89089608D01*
X140908000Y-89130991D01*
X140908000Y-89731209D01*
X140903924Y-89772592D01*
X140893643Y-89806483D01*
X140876952Y-89837711D01*
X140854485Y-89865085D01*
X140827111Y-89887552D01*
X140795883Y-89904243D01*
X140761992Y-89914524D01*
X140720609Y-89918600D01*
X139695391Y-89918600D01*
X139654008Y-89914524D01*
X139620117Y-89904243D01*
X139588889Y-89887552D01*
X139561515Y-89865085D01*
X139539048Y-89837711D01*
X139522357Y-89806483D01*
X139512076Y-89772592D01*
X139508000Y-89731209D01*
X139508000Y-89130991D01*
X139512076Y-89089608D01*
X139522357Y-89055717D01*
X139539048Y-89024489D01*
X139561515Y-88997115D01*
X139588889Y-88974648D01*
X139620117Y-88957957D01*
X139654008Y-88947676D01*
X139695391Y-88943600D01*
X140720609Y-88943600D01*
X140761992Y-88947676D01*
X140761992Y-88947676D01*
G37*
G36*
X154477992Y-88799876D02*
X154511883Y-88810157D01*
X154543111Y-88826848D01*
X154570485Y-88849315D01*
X154592952Y-88876689D01*
X154609643Y-88907917D01*
X154619924Y-88941808D01*
X154624000Y-88983191D01*
X154624000Y-89583409D01*
X154619924Y-89624792D01*
X154609643Y-89658683D01*
X154592952Y-89689911D01*
X154570485Y-89717285D01*
X154543111Y-89739752D01*
X154511883Y-89756443D01*
X154477992Y-89766724D01*
X154436609Y-89770800D01*
X153411391Y-89770800D01*
X153370008Y-89766724D01*
X153336117Y-89756443D01*
X153304889Y-89739752D01*
X153277515Y-89717285D01*
X153255048Y-89689911D01*
X153238357Y-89658683D01*
X153228076Y-89624792D01*
X153224000Y-89583409D01*
X153224000Y-88983191D01*
X153228076Y-88941808D01*
X153238357Y-88907917D01*
X153255048Y-88876689D01*
X153277515Y-88849315D01*
X153304889Y-88826848D01*
X153336117Y-88810157D01*
X153370008Y-88799876D01*
X153411391Y-88795800D01*
X154436609Y-88795800D01*
X154477992Y-88799876D01*
X154477992Y-88799876D01*
G37*
G36*
X171027669Y-87430776D02*
X171061560Y-87441057D01*
X171092788Y-87457748D01*
X171124932Y-87484129D01*
X171849871Y-88209068D01*
X171876252Y-88241212D01*
X171892943Y-88272440D01*
X171903224Y-88306331D01*
X171906695Y-88341573D01*
X171903224Y-88376815D01*
X171892943Y-88410706D01*
X171876252Y-88441934D01*
X171849871Y-88474078D01*
X171425452Y-88898497D01*
X171393308Y-88924878D01*
X171362080Y-88941569D01*
X171328189Y-88951850D01*
X171292947Y-88955321D01*
X171257705Y-88951850D01*
X171223814Y-88941569D01*
X171192586Y-88924878D01*
X171160442Y-88898497D01*
X170435503Y-88173558D01*
X170409122Y-88141414D01*
X170392431Y-88110186D01*
X170382150Y-88076295D01*
X170378679Y-88041053D01*
X170382150Y-88005811D01*
X170392431Y-87971920D01*
X170409122Y-87940692D01*
X170435503Y-87908548D01*
X170859922Y-87484129D01*
X170892066Y-87457748D01*
X170923294Y-87441057D01*
X170957185Y-87430776D01*
X170992427Y-87427305D01*
X171027669Y-87430776D01*
X171027669Y-87430776D01*
G37*
G36*
X140761992Y-87072676D02*
X140795883Y-87082957D01*
X140827111Y-87099648D01*
X140854485Y-87122115D01*
X140876952Y-87149489D01*
X140893643Y-87180717D01*
X140903924Y-87214608D01*
X140908000Y-87255991D01*
X140908000Y-87856209D01*
X140903924Y-87897592D01*
X140893643Y-87931483D01*
X140876952Y-87962711D01*
X140854485Y-87990085D01*
X140827111Y-88012552D01*
X140795883Y-88029243D01*
X140761992Y-88039524D01*
X140720609Y-88043600D01*
X139695391Y-88043600D01*
X139654008Y-88039524D01*
X139620117Y-88029243D01*
X139588889Y-88012552D01*
X139561515Y-87990085D01*
X139539048Y-87962711D01*
X139522357Y-87931483D01*
X139512076Y-87897592D01*
X139508000Y-87856209D01*
X139508000Y-87255991D01*
X139512076Y-87214608D01*
X139522357Y-87180717D01*
X139539048Y-87149489D01*
X139561515Y-87122115D01*
X139588889Y-87099648D01*
X139620117Y-87082957D01*
X139654008Y-87072676D01*
X139695391Y-87068600D01*
X140720609Y-87068600D01*
X140761992Y-87072676D01*
X140761992Y-87072676D01*
G37*
G36*
X172353495Y-86104950D02*
X172387386Y-86115231D01*
X172418614Y-86131922D01*
X172450758Y-86158303D01*
X173175697Y-86883242D01*
X173202078Y-86915386D01*
X173218769Y-86946614D01*
X173229050Y-86980505D01*
X173232521Y-87015747D01*
X173229050Y-87050989D01*
X173218769Y-87084880D01*
X173202078Y-87116108D01*
X173175697Y-87148252D01*
X172751278Y-87572671D01*
X172719134Y-87599052D01*
X172687906Y-87615743D01*
X172654015Y-87626024D01*
X172618773Y-87629495D01*
X172583531Y-87626024D01*
X172549640Y-87615743D01*
X172518412Y-87599052D01*
X172486268Y-87572671D01*
X171761329Y-86847732D01*
X171734948Y-86815588D01*
X171718257Y-86784360D01*
X171707976Y-86750469D01*
X171704505Y-86715227D01*
X171707976Y-86679985D01*
X171718257Y-86646094D01*
X171734948Y-86614866D01*
X171761329Y-86582722D01*
X172185748Y-86158303D01*
X172217892Y-86131922D01*
X172249120Y-86115231D01*
X172283011Y-86104950D01*
X172318253Y-86101479D01*
X172353495Y-86104950D01*
X172353495Y-86104950D01*
G37*
G36*
X190876200Y-87196800D02*
X190276200Y-87196800D01*
X190276200Y-84996800D01*
X190876200Y-84996800D01*
X190876200Y-87196800D01*
X190876200Y-87196800D01*
G37*
G36*
X189606200Y-87196800D02*
X189006200Y-87196800D01*
X189006200Y-84996800D01*
X189606200Y-84996800D01*
X189606200Y-87196800D01*
X189606200Y-87196800D01*
G37*
G36*
X192146200Y-87196800D02*
X191546200Y-87196800D01*
X191546200Y-84996800D01*
X192146200Y-84996800D01*
X192146200Y-87196800D01*
X192146200Y-87196800D01*
G37*
G36*
X188336200Y-87196800D02*
X187736200Y-87196800D01*
X187736200Y-84996800D01*
X188336200Y-84996800D01*
X188336200Y-87196800D01*
X188336200Y-87196800D01*
G37*
G36*
X184678600Y-86942800D02*
X184078600Y-86942800D01*
X184078600Y-84742800D01*
X184678600Y-84742800D01*
X184678600Y-86942800D01*
X184678600Y-86942800D01*
G37*
G36*
X183408600Y-86942800D02*
X182808600Y-86942800D01*
X182808600Y-84742800D01*
X183408600Y-84742800D01*
X183408600Y-86942800D01*
X183408600Y-86942800D01*
G37*
G36*
X180868600Y-86942800D02*
X180268600Y-86942800D01*
X180268600Y-84742800D01*
X180868600Y-84742800D01*
X180868600Y-86942800D01*
X180868600Y-86942800D01*
G37*
G36*
X182138600Y-86942800D02*
X181538600Y-86942800D01*
X181538600Y-84742800D01*
X182138600Y-84742800D01*
X182138600Y-86942800D01*
X182138600Y-86942800D01*
G37*
G36*
X207583030Y-85014299D02*
X207743255Y-85062903D01*
X207890920Y-85141831D01*
X208020349Y-85248051D01*
X208126569Y-85377480D01*
X208205497Y-85525145D01*
X208254101Y-85685370D01*
X208270512Y-85852000D01*
X208254101Y-86018630D01*
X208205497Y-86178855D01*
X208126569Y-86326520D01*
X208020349Y-86455949D01*
X207890920Y-86562169D01*
X207743255Y-86641097D01*
X207583030Y-86689701D01*
X207458152Y-86702000D01*
X207374648Y-86702000D01*
X207249770Y-86689701D01*
X207089545Y-86641097D01*
X206941880Y-86562169D01*
X206812451Y-86455949D01*
X206706231Y-86326520D01*
X206627303Y-86178855D01*
X206578699Y-86018630D01*
X206562288Y-85852000D01*
X206578699Y-85685370D01*
X206627303Y-85525145D01*
X206706231Y-85377480D01*
X206812451Y-85248051D01*
X206941880Y-85141831D01*
X207089545Y-85062903D01*
X207249770Y-85014299D01*
X207374648Y-85002000D01*
X207458152Y-85002000D01*
X207583030Y-85014299D01*
X207583030Y-85014299D01*
G37*
G36*
X203186400Y-86702000D02*
X201486400Y-86702000D01*
X201486400Y-85002000D01*
X203186400Y-85002000D01*
X203186400Y-86702000D01*
X203186400Y-86702000D01*
G37*
G36*
X205043030Y-85014299D02*
X205203255Y-85062903D01*
X205350920Y-85141831D01*
X205480349Y-85248051D01*
X205586569Y-85377480D01*
X205665497Y-85525145D01*
X205714101Y-85685370D01*
X205730512Y-85852000D01*
X205714101Y-86018630D01*
X205665497Y-86178855D01*
X205586569Y-86326520D01*
X205480349Y-86455949D01*
X205350920Y-86562169D01*
X205203255Y-86641097D01*
X205043030Y-86689701D01*
X204918152Y-86702000D01*
X204834648Y-86702000D01*
X204709770Y-86689701D01*
X204549545Y-86641097D01*
X204401880Y-86562169D01*
X204272451Y-86455949D01*
X204166231Y-86326520D01*
X204087303Y-86178855D01*
X204038699Y-86018630D01*
X204022288Y-85852000D01*
X204038699Y-85685370D01*
X204087303Y-85525145D01*
X204166231Y-85377480D01*
X204272451Y-85248051D01*
X204401880Y-85141831D01*
X204549545Y-85062903D01*
X204709770Y-85014299D01*
X204834648Y-85002000D01*
X204918152Y-85002000D01*
X205043030Y-85014299D01*
X205043030Y-85014299D01*
G37*
G36*
X210123030Y-85014299D02*
X210283255Y-85062903D01*
X210430920Y-85141831D01*
X210560349Y-85248051D01*
X210666569Y-85377480D01*
X210745497Y-85525145D01*
X210794101Y-85685370D01*
X210810512Y-85852000D01*
X210794101Y-86018630D01*
X210745497Y-86178855D01*
X210666569Y-86326520D01*
X210560349Y-86455949D01*
X210430920Y-86562169D01*
X210283255Y-86641097D01*
X210123030Y-86689701D01*
X209998152Y-86702000D01*
X209914648Y-86702000D01*
X209789770Y-86689701D01*
X209629545Y-86641097D01*
X209481880Y-86562169D01*
X209352451Y-86455949D01*
X209246231Y-86326520D01*
X209167303Y-86178855D01*
X209118699Y-86018630D01*
X209102288Y-85852000D01*
X209118699Y-85685370D01*
X209167303Y-85525145D01*
X209246231Y-85377480D01*
X209352451Y-85248051D01*
X209481880Y-85141831D01*
X209629545Y-85062903D01*
X209789770Y-85014299D01*
X209914648Y-85002000D01*
X209998152Y-85002000D01*
X210123030Y-85014299D01*
X210123030Y-85014299D01*
G37*
G36*
X212663030Y-85014299D02*
X212823255Y-85062903D01*
X212970920Y-85141831D01*
X213100349Y-85248051D01*
X213206569Y-85377480D01*
X213285497Y-85525145D01*
X213334101Y-85685370D01*
X213350512Y-85852000D01*
X213334101Y-86018630D01*
X213285497Y-86178855D01*
X213206569Y-86326520D01*
X213100349Y-86455949D01*
X212970920Y-86562169D01*
X212823255Y-86641097D01*
X212663030Y-86689701D01*
X212538152Y-86702000D01*
X212454648Y-86702000D01*
X212329770Y-86689701D01*
X212169545Y-86641097D01*
X212021880Y-86562169D01*
X211892451Y-86455949D01*
X211786231Y-86326520D01*
X211707303Y-86178855D01*
X211658699Y-86018630D01*
X211642288Y-85852000D01*
X211658699Y-85685370D01*
X211707303Y-85525145D01*
X211786231Y-85377480D01*
X211892451Y-85248051D01*
X212021880Y-85141831D01*
X212169545Y-85062903D01*
X212329770Y-85014299D01*
X212454648Y-85002000D01*
X212538152Y-85002000D01*
X212663030Y-85014299D01*
X212663030Y-85014299D01*
G37*
G36*
X215203030Y-85014299D02*
X215363255Y-85062903D01*
X215510920Y-85141831D01*
X215640349Y-85248051D01*
X215746569Y-85377480D01*
X215825497Y-85525145D01*
X215874101Y-85685370D01*
X215890512Y-85852000D01*
X215874101Y-86018630D01*
X215825497Y-86178855D01*
X215746569Y-86326520D01*
X215640349Y-86455949D01*
X215510920Y-86562169D01*
X215363255Y-86641097D01*
X215203030Y-86689701D01*
X215078152Y-86702000D01*
X214994648Y-86702000D01*
X214869770Y-86689701D01*
X214709545Y-86641097D01*
X214561880Y-86562169D01*
X214432451Y-86455949D01*
X214326231Y-86326520D01*
X214247303Y-86178855D01*
X214198699Y-86018630D01*
X214182288Y-85852000D01*
X214198699Y-85685370D01*
X214247303Y-85525145D01*
X214326231Y-85377480D01*
X214432451Y-85248051D01*
X214561880Y-85141831D01*
X214709545Y-85062903D01*
X214869770Y-85014299D01*
X214994648Y-85002000D01*
X215078152Y-85002000D01*
X215203030Y-85014299D01*
X215203030Y-85014299D01*
G37*
G36*
X217743030Y-85014299D02*
X217903255Y-85062903D01*
X218050920Y-85141831D01*
X218180349Y-85248051D01*
X218286569Y-85377480D01*
X218365497Y-85525145D01*
X218414101Y-85685370D01*
X218430512Y-85852000D01*
X218414101Y-86018630D01*
X218365497Y-86178855D01*
X218286569Y-86326520D01*
X218180349Y-86455949D01*
X218050920Y-86562169D01*
X217903255Y-86641097D01*
X217743030Y-86689701D01*
X217618152Y-86702000D01*
X217534648Y-86702000D01*
X217409770Y-86689701D01*
X217249545Y-86641097D01*
X217101880Y-86562169D01*
X216972451Y-86455949D01*
X216866231Y-86326520D01*
X216787303Y-86178855D01*
X216738699Y-86018630D01*
X216722288Y-85852000D01*
X216738699Y-85685370D01*
X216787303Y-85525145D01*
X216866231Y-85377480D01*
X216972451Y-85248051D01*
X217101880Y-85141831D01*
X217249545Y-85062903D01*
X217409770Y-85014299D01*
X217534648Y-85002000D01*
X217618152Y-85002000D01*
X217743030Y-85014299D01*
X217743030Y-85014299D01*
G37*
G36*
X127313321Y-86672124D02*
X125113321Y-86672124D01*
X125113321Y-86072124D01*
X127313321Y-86072124D01*
X127313321Y-86672124D01*
X127313321Y-86672124D01*
G37*
G36*
X132513321Y-86672124D02*
X130313321Y-86672124D01*
X130313321Y-86072124D01*
X132513321Y-86072124D01*
X132513321Y-86672124D01*
X132513321Y-86672124D01*
G37*
G36*
X198115192Y-85645676D02*
X198149083Y-85655957D01*
X198180311Y-85672648D01*
X198207685Y-85695115D01*
X198230152Y-85722489D01*
X198246843Y-85753717D01*
X198257124Y-85787608D01*
X198261200Y-85828991D01*
X198261200Y-86429209D01*
X198257124Y-86470592D01*
X198246843Y-86504483D01*
X198230152Y-86535711D01*
X198207685Y-86563085D01*
X198180311Y-86585552D01*
X198149083Y-86602243D01*
X198115192Y-86612524D01*
X198073809Y-86616600D01*
X197048591Y-86616600D01*
X197007208Y-86612524D01*
X196973317Y-86602243D01*
X196942089Y-86585552D01*
X196914715Y-86563085D01*
X196892248Y-86535711D01*
X196875557Y-86504483D01*
X196865276Y-86470592D01*
X196861200Y-86429209D01*
X196861200Y-85828991D01*
X196865276Y-85787608D01*
X196875557Y-85753717D01*
X196892248Y-85722489D01*
X196914715Y-85695115D01*
X196942089Y-85672648D01*
X196973317Y-85655957D01*
X197007208Y-85645676D01*
X197048591Y-85641600D01*
X198073809Y-85641600D01*
X198115192Y-85645676D01*
X198115192Y-85645676D01*
G37*
G36*
X175832392Y-85105276D02*
X175866283Y-85115557D01*
X175897511Y-85132248D01*
X175924885Y-85154715D01*
X175947352Y-85182089D01*
X175964043Y-85213317D01*
X175974324Y-85247208D01*
X175978400Y-85288591D01*
X175978400Y-86313809D01*
X175974324Y-86355192D01*
X175964043Y-86389083D01*
X175947352Y-86420311D01*
X175924885Y-86447685D01*
X175897511Y-86470152D01*
X175866283Y-86486843D01*
X175832392Y-86497124D01*
X175791009Y-86501200D01*
X175190791Y-86501200D01*
X175149408Y-86497124D01*
X175115517Y-86486843D01*
X175084289Y-86470152D01*
X175056915Y-86447685D01*
X175034448Y-86420311D01*
X175017757Y-86389083D01*
X175007476Y-86355192D01*
X175003400Y-86313809D01*
X175003400Y-85288591D01*
X175007476Y-85247208D01*
X175017757Y-85213317D01*
X175034448Y-85182089D01*
X175056915Y-85154715D01*
X175084289Y-85132248D01*
X175115517Y-85115557D01*
X175149408Y-85105276D01*
X175190791Y-85101200D01*
X175791009Y-85101200D01*
X175832392Y-85105276D01*
X175832392Y-85105276D01*
G37*
G36*
X177707392Y-85105276D02*
X177741283Y-85115557D01*
X177772511Y-85132248D01*
X177799885Y-85154715D01*
X177822352Y-85182089D01*
X177839043Y-85213317D01*
X177849324Y-85247208D01*
X177853400Y-85288591D01*
X177853400Y-86313809D01*
X177849324Y-86355192D01*
X177839043Y-86389083D01*
X177822352Y-86420311D01*
X177799885Y-86447685D01*
X177772511Y-86470152D01*
X177741283Y-86486843D01*
X177707392Y-86497124D01*
X177666009Y-86501200D01*
X177065791Y-86501200D01*
X177024408Y-86497124D01*
X176990517Y-86486843D01*
X176959289Y-86470152D01*
X176931915Y-86447685D01*
X176909448Y-86420311D01*
X176892757Y-86389083D01*
X176882476Y-86355192D01*
X176878400Y-86313809D01*
X176878400Y-85288591D01*
X176882476Y-85247208D01*
X176892757Y-85213317D01*
X176909448Y-85182089D01*
X176931915Y-85154715D01*
X176959289Y-85132248D01*
X176990517Y-85115557D01*
X177024408Y-85105276D01*
X177065791Y-85101200D01*
X177666009Y-85101200D01*
X177707392Y-85105276D01*
X177707392Y-85105276D01*
G37*
G36*
X134345713Y-85022800D02*
X134379604Y-85033081D01*
X134410832Y-85049772D01*
X134438206Y-85072239D01*
X134460673Y-85099613D01*
X134477364Y-85130841D01*
X134487645Y-85164732D01*
X134491721Y-85206115D01*
X134491721Y-85806333D01*
X134487645Y-85847716D01*
X134477364Y-85881607D01*
X134460673Y-85912835D01*
X134438206Y-85940209D01*
X134410832Y-85962676D01*
X134379604Y-85979367D01*
X134345713Y-85989648D01*
X134304330Y-85993724D01*
X133279112Y-85993724D01*
X133237729Y-85989648D01*
X133203838Y-85979367D01*
X133172610Y-85962676D01*
X133145236Y-85940209D01*
X133122769Y-85912835D01*
X133106078Y-85881607D01*
X133095797Y-85847716D01*
X133091721Y-85806333D01*
X133091721Y-85206115D01*
X133095797Y-85164732D01*
X133106078Y-85130841D01*
X133122769Y-85099613D01*
X133145236Y-85072239D01*
X133172610Y-85049772D01*
X133203838Y-85033081D01*
X133237729Y-85022800D01*
X133279112Y-85018724D01*
X134304330Y-85018724D01*
X134345713Y-85022800D01*
X134345713Y-85022800D01*
G37*
G36*
X127313321Y-85402124D02*
X125113321Y-85402124D01*
X125113321Y-84802124D01*
X127313321Y-84802124D01*
X127313321Y-85402124D01*
X127313321Y-85402124D01*
G37*
G36*
X132513321Y-85402124D02*
X130313321Y-85402124D01*
X130313321Y-84802124D01*
X132513321Y-84802124D01*
X132513321Y-85402124D01*
X132513321Y-85402124D01*
G37*
G36*
X193815592Y-83733676D02*
X193849483Y-83743957D01*
X193880711Y-83760648D01*
X193908085Y-83783115D01*
X193930552Y-83810489D01*
X193947243Y-83841717D01*
X193957524Y-83875608D01*
X193961600Y-83916991D01*
X193961600Y-84942209D01*
X193957524Y-84983592D01*
X193947243Y-85017483D01*
X193930552Y-85048711D01*
X193908085Y-85076085D01*
X193880711Y-85098552D01*
X193849483Y-85115243D01*
X193815592Y-85125524D01*
X193774209Y-85129600D01*
X193173991Y-85129600D01*
X193132608Y-85125524D01*
X193098717Y-85115243D01*
X193067489Y-85098552D01*
X193040115Y-85076085D01*
X193017648Y-85048711D01*
X193000957Y-85017483D01*
X192990676Y-84983592D01*
X192986600Y-84942209D01*
X192986600Y-83916991D01*
X192990676Y-83875608D01*
X193000957Y-83841717D01*
X193017648Y-83810489D01*
X193040115Y-83783115D01*
X193067489Y-83760648D01*
X193098717Y-83743957D01*
X193132608Y-83733676D01*
X193173991Y-83729600D01*
X193774209Y-83729600D01*
X193815592Y-83733676D01*
X193815592Y-83733676D01*
G37*
G36*
X195690592Y-83733676D02*
X195724483Y-83743957D01*
X195755711Y-83760648D01*
X195783085Y-83783115D01*
X195805552Y-83810489D01*
X195822243Y-83841717D01*
X195832524Y-83875608D01*
X195836600Y-83916991D01*
X195836600Y-84942209D01*
X195832524Y-84983592D01*
X195822243Y-85017483D01*
X195805552Y-85048711D01*
X195783085Y-85076085D01*
X195755711Y-85098552D01*
X195724483Y-85115243D01*
X195690592Y-85125524D01*
X195649209Y-85129600D01*
X195048991Y-85129600D01*
X195007608Y-85125524D01*
X194973717Y-85115243D01*
X194942489Y-85098552D01*
X194915115Y-85076085D01*
X194892648Y-85048711D01*
X194875957Y-85017483D01*
X194865676Y-84983592D01*
X194861600Y-84942209D01*
X194861600Y-83916991D01*
X194865676Y-83875608D01*
X194875957Y-83841717D01*
X194892648Y-83810489D01*
X194915115Y-83783115D01*
X194942489Y-83760648D01*
X194973717Y-83743957D01*
X195007608Y-83733676D01*
X195048991Y-83729600D01*
X195649209Y-83729600D01*
X195690592Y-83733676D01*
X195690592Y-83733676D01*
G37*
G36*
X198115192Y-83770676D02*
X198149083Y-83780957D01*
X198180311Y-83797648D01*
X198207685Y-83820115D01*
X198230152Y-83847489D01*
X198246843Y-83878717D01*
X198257124Y-83912608D01*
X198261200Y-83953991D01*
X198261200Y-84554209D01*
X198257124Y-84595592D01*
X198246843Y-84629483D01*
X198230152Y-84660711D01*
X198207685Y-84688085D01*
X198180311Y-84710552D01*
X198149083Y-84727243D01*
X198115192Y-84737524D01*
X198073809Y-84741600D01*
X197048591Y-84741600D01*
X197007208Y-84737524D01*
X196973317Y-84727243D01*
X196942089Y-84710552D01*
X196914715Y-84688085D01*
X196892248Y-84660711D01*
X196875557Y-84629483D01*
X196865276Y-84595592D01*
X196861200Y-84554209D01*
X196861200Y-83953991D01*
X196865276Y-83912608D01*
X196875557Y-83878717D01*
X196892248Y-83847489D01*
X196914715Y-83820115D01*
X196942089Y-83797648D01*
X196973317Y-83780957D01*
X197007208Y-83770676D01*
X197048591Y-83766600D01*
X198073809Y-83766600D01*
X198115192Y-83770676D01*
X198115192Y-83770676D01*
G37*
G36*
X124338113Y-83702000D02*
X124372004Y-83712281D01*
X124403232Y-83728972D01*
X124430606Y-83751439D01*
X124453073Y-83778813D01*
X124469764Y-83810041D01*
X124480045Y-83843932D01*
X124484121Y-83885315D01*
X124484121Y-84485533D01*
X124480045Y-84526916D01*
X124469764Y-84560807D01*
X124453073Y-84592035D01*
X124430606Y-84619409D01*
X124403232Y-84641876D01*
X124372004Y-84658567D01*
X124338113Y-84668848D01*
X124296730Y-84672924D01*
X123271512Y-84672924D01*
X123230129Y-84668848D01*
X123196238Y-84658567D01*
X123165010Y-84641876D01*
X123137636Y-84619409D01*
X123115169Y-84592035D01*
X123098478Y-84560807D01*
X123088197Y-84526916D01*
X123084121Y-84485533D01*
X123084121Y-83885315D01*
X123088197Y-83843932D01*
X123098478Y-83810041D01*
X123115169Y-83778813D01*
X123137636Y-83751439D01*
X123165010Y-83728972D01*
X123196238Y-83712281D01*
X123230129Y-83702000D01*
X123271512Y-83697924D01*
X124296730Y-83697924D01*
X124338113Y-83702000D01*
X124338113Y-83702000D01*
G37*
G36*
X137981792Y-82920876D02*
X138015683Y-82931157D01*
X138046911Y-82947848D01*
X138074285Y-82970315D01*
X138096752Y-82997689D01*
X138113443Y-83028917D01*
X138123724Y-83062808D01*
X138127800Y-83104191D01*
X138127800Y-84129409D01*
X138123724Y-84170792D01*
X138113443Y-84204683D01*
X138096752Y-84235911D01*
X138074285Y-84263285D01*
X138046911Y-84285752D01*
X138015683Y-84302443D01*
X137981792Y-84312724D01*
X137940409Y-84316800D01*
X137340191Y-84316800D01*
X137298808Y-84312724D01*
X137264917Y-84302443D01*
X137233689Y-84285752D01*
X137206315Y-84263285D01*
X137183848Y-84235911D01*
X137167157Y-84204683D01*
X137156876Y-84170792D01*
X137152800Y-84129409D01*
X137152800Y-83104191D01*
X137156876Y-83062808D01*
X137167157Y-83028917D01*
X137183848Y-82997689D01*
X137206315Y-82970315D01*
X137233689Y-82947848D01*
X137264917Y-82931157D01*
X137298808Y-82920876D01*
X137340191Y-82916800D01*
X137940409Y-82916800D01*
X137981792Y-82920876D01*
X137981792Y-82920876D01*
G37*
G36*
X136106792Y-82920876D02*
X136140683Y-82931157D01*
X136171911Y-82947848D01*
X136199285Y-82970315D01*
X136221752Y-82997689D01*
X136238443Y-83028917D01*
X136248724Y-83062808D01*
X136252800Y-83104191D01*
X136252800Y-84129409D01*
X136248724Y-84170792D01*
X136238443Y-84204683D01*
X136221752Y-84235911D01*
X136199285Y-84263285D01*
X136171911Y-84285752D01*
X136140683Y-84302443D01*
X136106792Y-84312724D01*
X136065409Y-84316800D01*
X135465191Y-84316800D01*
X135423808Y-84312724D01*
X135389917Y-84302443D01*
X135358689Y-84285752D01*
X135331315Y-84263285D01*
X135308848Y-84235911D01*
X135292157Y-84204683D01*
X135281876Y-84170792D01*
X135277800Y-84129409D01*
X135277800Y-83104191D01*
X135281876Y-83062808D01*
X135292157Y-83028917D01*
X135308848Y-82997689D01*
X135331315Y-82970315D01*
X135358689Y-82947848D01*
X135389917Y-82931157D01*
X135423808Y-82920876D01*
X135465191Y-82916800D01*
X136065409Y-82916800D01*
X136106792Y-82920876D01*
X136106792Y-82920876D01*
G37*
G36*
X132513321Y-84132124D02*
X130313321Y-84132124D01*
X130313321Y-83532124D01*
X132513321Y-83532124D01*
X132513321Y-84132124D01*
X132513321Y-84132124D01*
G37*
G36*
X127313321Y-84132124D02*
X125113321Y-84132124D01*
X125113321Y-83532124D01*
X127313321Y-83532124D01*
X127313321Y-84132124D01*
X127313321Y-84132124D01*
G37*
G36*
X134345713Y-83147800D02*
X134379604Y-83158081D01*
X134410832Y-83174772D01*
X134438206Y-83197239D01*
X134460673Y-83224613D01*
X134477364Y-83255841D01*
X134487645Y-83289732D01*
X134491721Y-83331115D01*
X134491721Y-83931333D01*
X134487645Y-83972716D01*
X134477364Y-84006607D01*
X134460673Y-84037835D01*
X134438206Y-84065209D01*
X134410832Y-84087676D01*
X134379604Y-84104367D01*
X134345713Y-84114648D01*
X134304330Y-84118724D01*
X133279112Y-84118724D01*
X133237729Y-84114648D01*
X133203838Y-84104367D01*
X133172610Y-84087676D01*
X133145236Y-84065209D01*
X133122769Y-84037835D01*
X133106078Y-84006607D01*
X133095797Y-83972716D01*
X133091721Y-83931333D01*
X133091721Y-83331115D01*
X133095797Y-83289732D01*
X133106078Y-83255841D01*
X133122769Y-83224613D01*
X133145236Y-83197239D01*
X133172610Y-83174772D01*
X133203838Y-83158081D01*
X133237729Y-83147800D01*
X133279112Y-83143724D01*
X134304330Y-83143724D01*
X134345713Y-83147800D01*
X134345713Y-83147800D01*
G37*
G36*
X180436792Y-82546876D02*
X180470683Y-82557157D01*
X180501911Y-82573848D01*
X180529285Y-82596315D01*
X180551752Y-82623689D01*
X180568443Y-82654917D01*
X180578724Y-82688808D01*
X180582800Y-82730191D01*
X180582800Y-83330409D01*
X180578724Y-83371792D01*
X180568443Y-83405683D01*
X180551752Y-83436911D01*
X180529285Y-83464285D01*
X180501911Y-83486752D01*
X180470683Y-83503443D01*
X180436792Y-83513724D01*
X180395409Y-83517800D01*
X179370191Y-83517800D01*
X179328808Y-83513724D01*
X179294917Y-83503443D01*
X179263689Y-83486752D01*
X179236315Y-83464285D01*
X179213848Y-83436911D01*
X179197157Y-83405683D01*
X179186876Y-83371792D01*
X179182800Y-83330409D01*
X179182800Y-82730191D01*
X179186876Y-82688808D01*
X179197157Y-82654917D01*
X179213848Y-82623689D01*
X179236315Y-82596315D01*
X179263689Y-82573848D01*
X179294917Y-82557157D01*
X179328808Y-82546876D01*
X179370191Y-82542800D01*
X180395409Y-82542800D01*
X180436792Y-82546876D01*
X180436792Y-82546876D01*
G37*
G36*
X174359192Y-81955676D02*
X174393083Y-81965957D01*
X174424311Y-81982648D01*
X174451685Y-82005115D01*
X174474152Y-82032489D01*
X174490843Y-82063717D01*
X174501124Y-82097608D01*
X174505200Y-82138991D01*
X174505200Y-83164209D01*
X174501124Y-83205592D01*
X174490843Y-83239483D01*
X174474152Y-83270711D01*
X174451685Y-83298085D01*
X174424311Y-83320552D01*
X174393083Y-83337243D01*
X174359192Y-83347524D01*
X174317809Y-83351600D01*
X173717591Y-83351600D01*
X173676208Y-83347524D01*
X173642317Y-83337243D01*
X173611089Y-83320552D01*
X173583715Y-83298085D01*
X173561248Y-83270711D01*
X173544557Y-83239483D01*
X173534276Y-83205592D01*
X173530200Y-83164209D01*
X173530200Y-82138991D01*
X173534276Y-82097608D01*
X173544557Y-82063717D01*
X173561248Y-82032489D01*
X173583715Y-82005115D01*
X173611089Y-81982648D01*
X173642317Y-81965957D01*
X173676208Y-81955676D01*
X173717591Y-81951600D01*
X174317809Y-81951600D01*
X174359192Y-81955676D01*
X174359192Y-81955676D01*
G37*
G36*
X176234192Y-81955676D02*
X176268083Y-81965957D01*
X176299311Y-81982648D01*
X176326685Y-82005115D01*
X176349152Y-82032489D01*
X176365843Y-82063717D01*
X176376124Y-82097608D01*
X176380200Y-82138991D01*
X176380200Y-83164209D01*
X176376124Y-83205592D01*
X176365843Y-83239483D01*
X176349152Y-83270711D01*
X176326685Y-83298085D01*
X176299311Y-83320552D01*
X176268083Y-83337243D01*
X176234192Y-83347524D01*
X176192809Y-83351600D01*
X175592591Y-83351600D01*
X175551208Y-83347524D01*
X175517317Y-83337243D01*
X175486089Y-83320552D01*
X175458715Y-83298085D01*
X175436248Y-83270711D01*
X175419557Y-83239483D01*
X175409276Y-83205592D01*
X175405200Y-83164209D01*
X175405200Y-82138991D01*
X175409276Y-82097608D01*
X175419557Y-82063717D01*
X175436248Y-82032489D01*
X175458715Y-82005115D01*
X175486089Y-81982648D01*
X175517317Y-81965957D01*
X175551208Y-81955676D01*
X175592591Y-81951600D01*
X176192809Y-81951600D01*
X176234192Y-81955676D01*
X176234192Y-81955676D01*
G37*
G36*
X165418392Y-81904876D02*
X165452283Y-81915157D01*
X165483511Y-81931848D01*
X165510885Y-81954315D01*
X165533352Y-81981689D01*
X165550043Y-82012917D01*
X165560324Y-82046808D01*
X165564400Y-82088191D01*
X165564400Y-83113409D01*
X165560324Y-83154792D01*
X165550043Y-83188683D01*
X165533352Y-83219911D01*
X165510885Y-83247285D01*
X165483511Y-83269752D01*
X165452283Y-83286443D01*
X165418392Y-83296724D01*
X165377009Y-83300800D01*
X164776791Y-83300800D01*
X164735408Y-83296724D01*
X164701517Y-83286443D01*
X164670289Y-83269752D01*
X164642915Y-83247285D01*
X164620448Y-83219911D01*
X164603757Y-83188683D01*
X164593476Y-83154792D01*
X164589400Y-83113409D01*
X164589400Y-82088191D01*
X164593476Y-82046808D01*
X164603757Y-82012917D01*
X164620448Y-81981689D01*
X164642915Y-81954315D01*
X164670289Y-81931848D01*
X164701517Y-81915157D01*
X164735408Y-81904876D01*
X164776791Y-81900800D01*
X165377009Y-81900800D01*
X165418392Y-81904876D01*
X165418392Y-81904876D01*
G37*
G36*
X167293392Y-81904876D02*
X167327283Y-81915157D01*
X167358511Y-81931848D01*
X167385885Y-81954315D01*
X167408352Y-81981689D01*
X167425043Y-82012917D01*
X167435324Y-82046808D01*
X167439400Y-82088191D01*
X167439400Y-83113409D01*
X167435324Y-83154792D01*
X167425043Y-83188683D01*
X167408352Y-83219911D01*
X167385885Y-83247285D01*
X167358511Y-83269752D01*
X167327283Y-83286443D01*
X167293392Y-83296724D01*
X167252009Y-83300800D01*
X166651791Y-83300800D01*
X166610408Y-83296724D01*
X166576517Y-83286443D01*
X166545289Y-83269752D01*
X166517915Y-83247285D01*
X166495448Y-83219911D01*
X166478757Y-83188683D01*
X166468476Y-83154792D01*
X166464400Y-83113409D01*
X166464400Y-82088191D01*
X166468476Y-82046808D01*
X166478757Y-82012917D01*
X166495448Y-81981689D01*
X166517915Y-81954315D01*
X166545289Y-81931848D01*
X166576517Y-81915157D01*
X166610408Y-81904876D01*
X166651791Y-81900800D01*
X167252009Y-81900800D01*
X167293392Y-81904876D01*
X167293392Y-81904876D01*
G37*
G36*
X127313321Y-82862124D02*
X125113321Y-82862124D01*
X125113321Y-82262124D01*
X127313321Y-82262124D01*
X127313321Y-82862124D01*
X127313321Y-82862124D01*
G37*
G36*
X132513321Y-82862124D02*
X130313321Y-82862124D01*
X130313321Y-82262124D01*
X132513321Y-82262124D01*
X132513321Y-82862124D01*
X132513321Y-82862124D01*
G37*
G36*
X124338113Y-81827000D02*
X124372004Y-81837281D01*
X124403232Y-81853972D01*
X124430606Y-81876439D01*
X124453073Y-81903813D01*
X124469764Y-81935041D01*
X124480045Y-81968932D01*
X124484121Y-82010315D01*
X124484121Y-82610533D01*
X124480045Y-82651916D01*
X124469764Y-82685807D01*
X124453073Y-82717035D01*
X124430606Y-82744409D01*
X124403232Y-82766876D01*
X124372004Y-82783567D01*
X124338113Y-82793848D01*
X124296730Y-82797924D01*
X123271512Y-82797924D01*
X123230129Y-82793848D01*
X123196238Y-82783567D01*
X123165010Y-82766876D01*
X123137636Y-82744409D01*
X123115169Y-82717035D01*
X123098478Y-82685807D01*
X123088197Y-82651916D01*
X123084121Y-82610533D01*
X123084121Y-82010315D01*
X123088197Y-81968932D01*
X123098478Y-81935041D01*
X123115169Y-81903813D01*
X123137636Y-81876439D01*
X123165010Y-81853972D01*
X123196238Y-81837281D01*
X123230129Y-81827000D01*
X123271512Y-81822924D01*
X124296730Y-81822924D01*
X124338113Y-81827000D01*
X124338113Y-81827000D01*
G37*
G36*
X211646392Y-80838076D02*
X211680283Y-80848357D01*
X211711511Y-80865048D01*
X211738885Y-80887515D01*
X211761352Y-80914889D01*
X211778043Y-80946117D01*
X211788324Y-80980008D01*
X211792400Y-81021391D01*
X211792400Y-82046609D01*
X211788324Y-82087992D01*
X211778043Y-82121883D01*
X211761352Y-82153111D01*
X211738885Y-82180485D01*
X211711511Y-82202952D01*
X211680283Y-82219643D01*
X211646392Y-82229924D01*
X211605009Y-82234000D01*
X211004791Y-82234000D01*
X210963408Y-82229924D01*
X210929517Y-82219643D01*
X210898289Y-82202952D01*
X210870915Y-82180485D01*
X210848448Y-82153111D01*
X210831757Y-82121883D01*
X210821476Y-82087992D01*
X210817400Y-82046609D01*
X210817400Y-81021391D01*
X210821476Y-80980008D01*
X210831757Y-80946117D01*
X210848448Y-80914889D01*
X210870915Y-80887515D01*
X210898289Y-80865048D01*
X210929517Y-80848357D01*
X210963408Y-80838076D01*
X211004791Y-80834000D01*
X211605009Y-80834000D01*
X211646392Y-80838076D01*
X211646392Y-80838076D01*
G37*
G36*
X215354792Y-80838076D02*
X215388683Y-80848357D01*
X215419911Y-80865048D01*
X215447285Y-80887515D01*
X215469752Y-80914889D01*
X215486443Y-80946117D01*
X215496724Y-80980008D01*
X215500800Y-81021391D01*
X215500800Y-82046609D01*
X215496724Y-82087992D01*
X215486443Y-82121883D01*
X215469752Y-82153111D01*
X215447285Y-82180485D01*
X215419911Y-82202952D01*
X215388683Y-82219643D01*
X215354792Y-82229924D01*
X215313409Y-82234000D01*
X214713191Y-82234000D01*
X214671808Y-82229924D01*
X214637917Y-82219643D01*
X214606689Y-82202952D01*
X214579315Y-82180485D01*
X214556848Y-82153111D01*
X214540157Y-82121883D01*
X214529876Y-82087992D01*
X214525800Y-82046609D01*
X214525800Y-81021391D01*
X214529876Y-80980008D01*
X214540157Y-80946117D01*
X214556848Y-80914889D01*
X214579315Y-80887515D01*
X214606689Y-80865048D01*
X214637917Y-80848357D01*
X214671808Y-80838076D01*
X214713191Y-80834000D01*
X215313409Y-80834000D01*
X215354792Y-80838076D01*
X215354792Y-80838076D01*
G37*
G36*
X213521392Y-80838076D02*
X213555283Y-80848357D01*
X213586511Y-80865048D01*
X213613885Y-80887515D01*
X213636352Y-80914889D01*
X213653043Y-80946117D01*
X213663324Y-80980008D01*
X213667400Y-81021391D01*
X213667400Y-82046609D01*
X213663324Y-82087992D01*
X213653043Y-82121883D01*
X213636352Y-82153111D01*
X213613885Y-82180485D01*
X213586511Y-82202952D01*
X213555283Y-82219643D01*
X213521392Y-82229924D01*
X213480009Y-82234000D01*
X212879791Y-82234000D01*
X212838408Y-82229924D01*
X212804517Y-82219643D01*
X212773289Y-82202952D01*
X212745915Y-82180485D01*
X212723448Y-82153111D01*
X212706757Y-82121883D01*
X212696476Y-82087992D01*
X212692400Y-82046609D01*
X212692400Y-81021391D01*
X212696476Y-80980008D01*
X212706757Y-80946117D01*
X212723448Y-80914889D01*
X212745915Y-80887515D01*
X212773289Y-80865048D01*
X212804517Y-80848357D01*
X212838408Y-80838076D01*
X212879791Y-80834000D01*
X213480009Y-80834000D01*
X213521392Y-80838076D01*
X213521392Y-80838076D01*
G37*
G36*
X217229792Y-80838076D02*
X217263683Y-80848357D01*
X217294911Y-80865048D01*
X217322285Y-80887515D01*
X217344752Y-80914889D01*
X217361443Y-80946117D01*
X217371724Y-80980008D01*
X217375800Y-81021391D01*
X217375800Y-82046609D01*
X217371724Y-82087992D01*
X217361443Y-82121883D01*
X217344752Y-82153111D01*
X217322285Y-82180485D01*
X217294911Y-82202952D01*
X217263683Y-82219643D01*
X217229792Y-82229924D01*
X217188409Y-82234000D01*
X216588191Y-82234000D01*
X216546808Y-82229924D01*
X216512917Y-82219643D01*
X216481689Y-82202952D01*
X216454315Y-82180485D01*
X216431848Y-82153111D01*
X216415157Y-82121883D01*
X216404876Y-82087992D01*
X216400800Y-82046609D01*
X216400800Y-81021391D01*
X216404876Y-80980008D01*
X216415157Y-80946117D01*
X216431848Y-80914889D01*
X216454315Y-80887515D01*
X216481689Y-80865048D01*
X216512917Y-80848357D01*
X216546808Y-80838076D01*
X216588191Y-80834000D01*
X217188409Y-80834000D01*
X217229792Y-80838076D01*
X217229792Y-80838076D01*
G37*
G36*
X146055600Y-82138800D02*
X144085600Y-82138800D01*
X144085600Y-81538800D01*
X146055600Y-81538800D01*
X146055600Y-82138800D01*
X146055600Y-82138800D01*
G37*
G36*
X141105600Y-82138800D02*
X139135600Y-82138800D01*
X139135600Y-81538800D01*
X141105600Y-81538800D01*
X141105600Y-82138800D01*
X141105600Y-82138800D01*
G37*
G36*
X199893192Y-81124476D02*
X199927083Y-81134757D01*
X199958311Y-81151448D01*
X199985685Y-81173915D01*
X200008152Y-81201289D01*
X200024843Y-81232517D01*
X200035124Y-81266408D01*
X200039200Y-81307791D01*
X200039200Y-81908009D01*
X200035124Y-81949392D01*
X200024843Y-81983283D01*
X200008152Y-82014511D01*
X199985685Y-82041885D01*
X199958311Y-82064352D01*
X199927083Y-82081043D01*
X199893192Y-82091324D01*
X199851809Y-82095400D01*
X198826591Y-82095400D01*
X198785208Y-82091324D01*
X198751317Y-82081043D01*
X198720089Y-82064352D01*
X198692715Y-82041885D01*
X198670248Y-82014511D01*
X198653557Y-81983283D01*
X198643276Y-81949392D01*
X198639200Y-81908009D01*
X198639200Y-81307791D01*
X198643276Y-81266408D01*
X198653557Y-81232517D01*
X198670248Y-81201289D01*
X198692715Y-81173915D01*
X198720089Y-81151448D01*
X198751317Y-81134757D01*
X198785208Y-81124476D01*
X198826591Y-81120400D01*
X199851809Y-81120400D01*
X199893192Y-81124476D01*
X199893192Y-81124476D01*
G37*
G36*
X180436792Y-80671876D02*
X180470683Y-80682157D01*
X180501911Y-80698848D01*
X180529285Y-80721315D01*
X180551752Y-80748689D01*
X180568443Y-80779917D01*
X180578724Y-80813808D01*
X180582800Y-80855191D01*
X180582800Y-81455409D01*
X180578724Y-81496792D01*
X180568443Y-81530683D01*
X180551752Y-81561911D01*
X180529285Y-81589285D01*
X180501911Y-81611752D01*
X180470683Y-81628443D01*
X180436792Y-81638724D01*
X180395409Y-81642800D01*
X179370191Y-81642800D01*
X179328808Y-81638724D01*
X179294917Y-81628443D01*
X179263689Y-81611752D01*
X179236315Y-81589285D01*
X179213848Y-81561911D01*
X179197157Y-81530683D01*
X179186876Y-81496792D01*
X179182800Y-81455409D01*
X179182800Y-80855191D01*
X179186876Y-80813808D01*
X179197157Y-80779917D01*
X179213848Y-80748689D01*
X179236315Y-80721315D01*
X179263689Y-80698848D01*
X179294917Y-80682157D01*
X179328808Y-80671876D01*
X179370191Y-80667800D01*
X180395409Y-80667800D01*
X180436792Y-80671876D01*
X180436792Y-80671876D01*
G37*
G36*
X184399192Y-80667276D02*
X184433083Y-80677557D01*
X184464311Y-80694248D01*
X184491685Y-80716715D01*
X184514152Y-80744089D01*
X184530843Y-80775317D01*
X184541124Y-80809208D01*
X184545200Y-80850591D01*
X184545200Y-81450809D01*
X184541124Y-81492192D01*
X184530843Y-81526083D01*
X184514152Y-81557311D01*
X184491685Y-81584685D01*
X184464311Y-81607152D01*
X184433083Y-81623843D01*
X184399192Y-81634124D01*
X184357809Y-81638200D01*
X183332591Y-81638200D01*
X183291208Y-81634124D01*
X183257317Y-81623843D01*
X183226089Y-81607152D01*
X183198715Y-81584685D01*
X183176248Y-81557311D01*
X183159557Y-81526083D01*
X183149276Y-81492192D01*
X183145200Y-81450809D01*
X183145200Y-80850591D01*
X183149276Y-80809208D01*
X183159557Y-80775317D01*
X183176248Y-80744089D01*
X183198715Y-80716715D01*
X183226089Y-80694248D01*
X183257317Y-80677557D01*
X183291208Y-80667276D01*
X183332591Y-80663200D01*
X184357809Y-80663200D01*
X184399192Y-80667276D01*
X184399192Y-80667276D01*
G37*
G36*
X174055000Y-81130000D02*
X166305000Y-81130000D01*
X166305000Y-80130000D01*
X174055000Y-80130000D01*
X174055000Y-81130000D01*
X174055000Y-81130000D01*
G37*
G36*
X141105600Y-80868800D02*
X139135600Y-80868800D01*
X139135600Y-80268800D01*
X141105600Y-80268800D01*
X141105600Y-80868800D01*
X141105600Y-80868800D01*
G37*
G36*
X146055600Y-80868800D02*
X144085600Y-80868800D01*
X144085600Y-80268800D01*
X146055600Y-80268800D01*
X146055600Y-80868800D01*
X146055600Y-80868800D01*
G37*
G36*
X199893192Y-79249476D02*
X199927083Y-79259757D01*
X199958311Y-79276448D01*
X199985685Y-79298915D01*
X200008152Y-79326289D01*
X200024843Y-79357517D01*
X200035124Y-79391408D01*
X200039200Y-79432791D01*
X200039200Y-80033009D01*
X200035124Y-80074392D01*
X200024843Y-80108283D01*
X200008152Y-80139511D01*
X199985685Y-80166885D01*
X199958311Y-80189352D01*
X199927083Y-80206043D01*
X199893192Y-80216324D01*
X199851809Y-80220400D01*
X198826591Y-80220400D01*
X198785208Y-80216324D01*
X198751317Y-80206043D01*
X198720089Y-80189352D01*
X198692715Y-80166885D01*
X198670248Y-80139511D01*
X198653557Y-80108283D01*
X198643276Y-80074392D01*
X198639200Y-80033009D01*
X198639200Y-79432791D01*
X198643276Y-79391408D01*
X198653557Y-79357517D01*
X198670248Y-79326289D01*
X198692715Y-79298915D01*
X198720089Y-79276448D01*
X198751317Y-79259757D01*
X198785208Y-79249476D01*
X198826591Y-79245400D01*
X199851809Y-79245400D01*
X199893192Y-79249476D01*
X199893192Y-79249476D01*
G37*
G36*
X161589992Y-79244876D02*
X161623883Y-79255157D01*
X161655111Y-79271848D01*
X161682485Y-79294315D01*
X161704952Y-79321689D01*
X161721643Y-79352917D01*
X161731924Y-79386808D01*
X161736000Y-79428191D01*
X161736000Y-80028409D01*
X161731924Y-80069792D01*
X161721643Y-80103683D01*
X161704952Y-80134911D01*
X161682485Y-80162285D01*
X161655111Y-80184752D01*
X161623883Y-80201443D01*
X161589992Y-80211724D01*
X161548609Y-80215800D01*
X160523391Y-80215800D01*
X160482008Y-80211724D01*
X160448117Y-80201443D01*
X160416889Y-80184752D01*
X160389515Y-80162285D01*
X160367048Y-80134911D01*
X160350357Y-80103683D01*
X160340076Y-80069792D01*
X160336000Y-80028409D01*
X160336000Y-79428191D01*
X160340076Y-79386808D01*
X160350357Y-79352917D01*
X160367048Y-79321689D01*
X160389515Y-79294315D01*
X160416889Y-79271848D01*
X160448117Y-79255157D01*
X160482008Y-79244876D01*
X160523391Y-79240800D01*
X161548609Y-79240800D01*
X161589992Y-79244876D01*
X161589992Y-79244876D01*
G37*
G36*
X184399192Y-78792276D02*
X184433083Y-78802557D01*
X184464311Y-78819248D01*
X184491685Y-78841715D01*
X184514152Y-78869089D01*
X184530843Y-78900317D01*
X184541124Y-78934208D01*
X184545200Y-78975591D01*
X184545200Y-79575809D01*
X184541124Y-79617192D01*
X184530843Y-79651083D01*
X184514152Y-79682311D01*
X184491685Y-79709685D01*
X184464311Y-79732152D01*
X184433083Y-79748843D01*
X184399192Y-79759124D01*
X184357809Y-79763200D01*
X183332591Y-79763200D01*
X183291208Y-79759124D01*
X183257317Y-79748843D01*
X183226089Y-79732152D01*
X183198715Y-79709685D01*
X183176248Y-79682311D01*
X183159557Y-79651083D01*
X183149276Y-79617192D01*
X183145200Y-79575809D01*
X183145200Y-78975591D01*
X183149276Y-78934208D01*
X183159557Y-78900317D01*
X183176248Y-78869089D01*
X183198715Y-78841715D01*
X183226089Y-78819248D01*
X183257317Y-78802557D01*
X183291208Y-78792276D01*
X183332591Y-78788200D01*
X184357809Y-78788200D01*
X184399192Y-78792276D01*
X184399192Y-78792276D01*
G37*
G36*
X156622000Y-79700400D02*
X154652000Y-79700400D01*
X154652000Y-79100400D01*
X156622000Y-79100400D01*
X156622000Y-79700400D01*
X156622000Y-79700400D01*
G37*
G36*
X151672000Y-79700400D02*
X149702000Y-79700400D01*
X149702000Y-79100400D01*
X151672000Y-79100400D01*
X151672000Y-79700400D01*
X151672000Y-79700400D01*
G37*
G36*
X146055600Y-79598800D02*
X144085600Y-79598800D01*
X144085600Y-78998800D01*
X146055600Y-78998800D01*
X146055600Y-79598800D01*
X146055600Y-79598800D01*
G37*
G36*
X141105600Y-79598800D02*
X139135600Y-79598800D01*
X139135600Y-78998800D01*
X141105600Y-78998800D01*
X141105600Y-79598800D01*
X141105600Y-79598800D01*
G37*
G36*
X164980000Y-78805000D02*
X163980000Y-78805000D01*
X163980000Y-71055000D01*
X164980000Y-71055000D01*
X164980000Y-78805000D01*
X164980000Y-78805000D01*
G37*
G36*
X176380000Y-78805000D02*
X175380000Y-78805000D01*
X175380000Y-71055000D01*
X176380000Y-71055000D01*
X176380000Y-78805000D01*
X176380000Y-78805000D01*
G37*
G36*
X209076000Y-78532000D02*
X207106000Y-78532000D01*
X207106000Y-77932000D01*
X209076000Y-77932000D01*
X209076000Y-78532000D01*
X209076000Y-78532000D01*
G37*
G36*
X214026000Y-78532000D02*
X212056000Y-78532000D01*
X212056000Y-77932000D01*
X214026000Y-77932000D01*
X214026000Y-78532000D01*
X214026000Y-78532000D01*
G37*
G36*
X156622000Y-78430400D02*
X154652000Y-78430400D01*
X154652000Y-77830400D01*
X156622000Y-77830400D01*
X156622000Y-78430400D01*
X156622000Y-78430400D01*
G37*
G36*
X151672000Y-78430400D02*
X149702000Y-78430400D01*
X149702000Y-77830400D01*
X151672000Y-77830400D01*
X151672000Y-78430400D01*
X151672000Y-78430400D01*
G37*
G36*
X180907792Y-76977276D02*
X180941683Y-76987557D01*
X180972911Y-77004248D01*
X181000285Y-77026715D01*
X181022752Y-77054089D01*
X181039443Y-77085317D01*
X181049724Y-77119208D01*
X181053800Y-77160591D01*
X181053800Y-78185809D01*
X181049724Y-78227192D01*
X181039443Y-78261083D01*
X181022752Y-78292311D01*
X181000285Y-78319685D01*
X180972911Y-78342152D01*
X180941683Y-78358843D01*
X180907792Y-78369124D01*
X180866409Y-78373200D01*
X180266191Y-78373200D01*
X180224808Y-78369124D01*
X180190917Y-78358843D01*
X180159689Y-78342152D01*
X180132315Y-78319685D01*
X180109848Y-78292311D01*
X180093157Y-78261083D01*
X180082876Y-78227192D01*
X180078800Y-78185809D01*
X180078800Y-77160591D01*
X180082876Y-77119208D01*
X180093157Y-77085317D01*
X180109848Y-77054089D01*
X180132315Y-77026715D01*
X180159689Y-77004248D01*
X180190917Y-76987557D01*
X180224808Y-76977276D01*
X180266191Y-76973200D01*
X180866409Y-76973200D01*
X180907792Y-76977276D01*
X180907792Y-76977276D01*
G37*
G36*
X179032792Y-76977276D02*
X179066683Y-76987557D01*
X179097911Y-77004248D01*
X179125285Y-77026715D01*
X179147752Y-77054089D01*
X179164443Y-77085317D01*
X179174724Y-77119208D01*
X179178800Y-77160591D01*
X179178800Y-78185809D01*
X179174724Y-78227192D01*
X179164443Y-78261083D01*
X179147752Y-78292311D01*
X179125285Y-78319685D01*
X179097911Y-78342152D01*
X179066683Y-78358843D01*
X179032792Y-78369124D01*
X178991409Y-78373200D01*
X178391191Y-78373200D01*
X178349808Y-78369124D01*
X178315917Y-78358843D01*
X178284689Y-78342152D01*
X178257315Y-78319685D01*
X178234848Y-78292311D01*
X178218157Y-78261083D01*
X178207876Y-78227192D01*
X178203800Y-78185809D01*
X178203800Y-77160591D01*
X178207876Y-77119208D01*
X178218157Y-77085317D01*
X178234848Y-77054089D01*
X178257315Y-77026715D01*
X178284689Y-77004248D01*
X178315917Y-76987557D01*
X178349808Y-76977276D01*
X178391191Y-76973200D01*
X178991409Y-76973200D01*
X179032792Y-76977276D01*
X179032792Y-76977276D01*
G37*
G36*
X161589992Y-77369876D02*
X161623883Y-77380157D01*
X161655111Y-77396848D01*
X161682485Y-77419315D01*
X161704952Y-77446689D01*
X161721643Y-77477917D01*
X161731924Y-77511808D01*
X161736000Y-77553191D01*
X161736000Y-78153409D01*
X161731924Y-78194792D01*
X161721643Y-78228683D01*
X161704952Y-78259911D01*
X161682485Y-78287285D01*
X161655111Y-78309752D01*
X161623883Y-78326443D01*
X161589992Y-78336724D01*
X161548609Y-78340800D01*
X160523391Y-78340800D01*
X160482008Y-78336724D01*
X160448117Y-78326443D01*
X160416889Y-78309752D01*
X160389515Y-78287285D01*
X160367048Y-78259911D01*
X160350357Y-78228683D01*
X160340076Y-78194792D01*
X160336000Y-78153409D01*
X160336000Y-77553191D01*
X160340076Y-77511808D01*
X160350357Y-77477917D01*
X160367048Y-77446689D01*
X160389515Y-77419315D01*
X160416889Y-77396848D01*
X160448117Y-77380157D01*
X160482008Y-77369876D01*
X160523391Y-77365800D01*
X161548609Y-77365800D01*
X161589992Y-77369876D01*
X161589992Y-77369876D01*
G37*
G36*
X146055600Y-78328800D02*
X144085600Y-78328800D01*
X144085600Y-77728800D01*
X146055600Y-77728800D01*
X146055600Y-78328800D01*
X146055600Y-78328800D01*
G37*
G36*
X141105600Y-78328800D02*
X139135600Y-78328800D01*
X139135600Y-77728800D01*
X141105600Y-77728800D01*
X141105600Y-78328800D01*
X141105600Y-78328800D01*
G37*
G36*
X190334900Y-77851000D02*
X189852300Y-77851000D01*
X189852300Y-76682600D01*
X190334900Y-76682600D01*
X190334900Y-77851000D01*
X190334900Y-77851000D01*
G37*
G36*
X185669192Y-76501676D02*
X185703083Y-76511957D01*
X185734311Y-76528648D01*
X185761685Y-76551115D01*
X185784152Y-76578489D01*
X185800843Y-76609717D01*
X185811124Y-76643608D01*
X185815200Y-76684991D01*
X185815200Y-77285209D01*
X185811124Y-77326592D01*
X185800843Y-77360483D01*
X185784152Y-77391711D01*
X185761685Y-77419085D01*
X185734311Y-77441552D01*
X185703083Y-77458243D01*
X185669192Y-77468524D01*
X185627809Y-77472600D01*
X184602591Y-77472600D01*
X184561208Y-77468524D01*
X184527317Y-77458243D01*
X184496089Y-77441552D01*
X184468715Y-77419085D01*
X184446248Y-77391711D01*
X184429557Y-77360483D01*
X184419276Y-77326592D01*
X184415200Y-77285209D01*
X184415200Y-76684991D01*
X184419276Y-76643608D01*
X184429557Y-76609717D01*
X184446248Y-76578489D01*
X184468715Y-76551115D01*
X184496089Y-76528648D01*
X184527317Y-76511957D01*
X184561208Y-76501676D01*
X184602591Y-76497600D01*
X185627809Y-76497600D01*
X185669192Y-76501676D01*
X185669192Y-76501676D01*
G37*
G36*
X214026000Y-77262000D02*
X212056000Y-77262000D01*
X212056000Y-76662000D01*
X214026000Y-76662000D01*
X214026000Y-77262000D01*
X214026000Y-77262000D01*
G37*
G36*
X209076000Y-77262000D02*
X207106000Y-77262000D01*
X207106000Y-76662000D01*
X209076000Y-76662000D01*
X209076000Y-77262000D01*
X209076000Y-77262000D01*
G37*
G36*
X220416392Y-76196876D02*
X220450283Y-76207157D01*
X220481511Y-76223848D01*
X220508885Y-76246315D01*
X220531352Y-76273689D01*
X220548043Y-76304917D01*
X220558324Y-76338808D01*
X220562400Y-76380191D01*
X220562400Y-76980409D01*
X220558324Y-77021792D01*
X220548043Y-77055683D01*
X220531352Y-77086911D01*
X220508885Y-77114285D01*
X220481511Y-77136752D01*
X220450283Y-77153443D01*
X220416392Y-77163724D01*
X220375009Y-77167800D01*
X219349791Y-77167800D01*
X219308408Y-77163724D01*
X219274517Y-77153443D01*
X219243289Y-77136752D01*
X219215915Y-77114285D01*
X219193448Y-77086911D01*
X219176757Y-77055683D01*
X219166476Y-77021792D01*
X219162400Y-76980409D01*
X219162400Y-76380191D01*
X219166476Y-76338808D01*
X219176757Y-76304917D01*
X219193448Y-76273689D01*
X219215915Y-76246315D01*
X219243289Y-76223848D01*
X219274517Y-76207157D01*
X219308408Y-76196876D01*
X219349791Y-76192800D01*
X220375009Y-76192800D01*
X220416392Y-76196876D01*
X220416392Y-76196876D01*
G37*
G36*
X151672000Y-77160400D02*
X149702000Y-77160400D01*
X149702000Y-76560400D01*
X151672000Y-76560400D01*
X151672000Y-77160400D01*
X151672000Y-77160400D01*
G37*
G36*
X156622000Y-77160400D02*
X154652000Y-77160400D01*
X154652000Y-76560400D01*
X156622000Y-76560400D01*
X156622000Y-77160400D01*
X156622000Y-77160400D01*
G37*
G36*
X146055600Y-77058800D02*
X144085600Y-77058800D01*
X144085600Y-76458800D01*
X146055600Y-76458800D01*
X146055600Y-77058800D01*
X146055600Y-77058800D01*
G37*
G36*
X141105600Y-77058800D02*
X139135600Y-77058800D01*
X139135600Y-76458800D01*
X141105600Y-76458800D01*
X141105600Y-77058800D01*
X141105600Y-77058800D01*
G37*
G36*
X200825992Y-75300876D02*
X200859883Y-75311157D01*
X200891111Y-75327848D01*
X200918485Y-75350315D01*
X200940952Y-75377689D01*
X200957643Y-75408917D01*
X200967924Y-75442808D01*
X200972000Y-75484191D01*
X200972000Y-76509409D01*
X200967924Y-76550792D01*
X200957643Y-76584683D01*
X200940952Y-76615911D01*
X200918485Y-76643285D01*
X200891111Y-76665752D01*
X200859883Y-76682443D01*
X200825992Y-76692724D01*
X200784609Y-76696800D01*
X200184391Y-76696800D01*
X200143008Y-76692724D01*
X200109117Y-76682443D01*
X200077889Y-76665752D01*
X200050515Y-76643285D01*
X200028048Y-76615911D01*
X200011357Y-76584683D01*
X200001076Y-76550792D01*
X199997000Y-76509409D01*
X199997000Y-75484191D01*
X200001076Y-75442808D01*
X200011357Y-75408917D01*
X200028048Y-75377689D01*
X200050515Y-75350315D01*
X200077889Y-75327848D01*
X200109117Y-75311157D01*
X200143008Y-75300876D01*
X200184391Y-75296800D01*
X200784609Y-75296800D01*
X200825992Y-75300876D01*
X200825992Y-75300876D01*
G37*
G36*
X194826992Y-75300876D02*
X194860883Y-75311157D01*
X194892111Y-75327848D01*
X194919485Y-75350315D01*
X194941952Y-75377689D01*
X194958643Y-75408917D01*
X194968924Y-75442808D01*
X194973000Y-75484191D01*
X194973000Y-76509409D01*
X194968924Y-76550792D01*
X194958643Y-76584683D01*
X194941952Y-76615911D01*
X194919485Y-76643285D01*
X194892111Y-76665752D01*
X194860883Y-76682443D01*
X194826992Y-76692724D01*
X194785609Y-76696800D01*
X194185391Y-76696800D01*
X194144008Y-76692724D01*
X194110117Y-76682443D01*
X194078889Y-76665752D01*
X194051515Y-76643285D01*
X194029048Y-76615911D01*
X194012357Y-76584683D01*
X194002076Y-76550792D01*
X193998000Y-76509409D01*
X193998000Y-75484191D01*
X194002076Y-75442808D01*
X194012357Y-75408917D01*
X194029048Y-75377689D01*
X194051515Y-75350315D01*
X194078889Y-75327848D01*
X194110117Y-75311157D01*
X194144008Y-75300876D01*
X194185391Y-75296800D01*
X194785609Y-75296800D01*
X194826992Y-75300876D01*
X194826992Y-75300876D01*
G37*
G36*
X192951992Y-75300876D02*
X192985883Y-75311157D01*
X193017111Y-75327848D01*
X193044485Y-75350315D01*
X193066952Y-75377689D01*
X193083643Y-75408917D01*
X193093924Y-75442808D01*
X193098000Y-75484191D01*
X193098000Y-76509409D01*
X193093924Y-76550792D01*
X193083643Y-76584683D01*
X193066952Y-76615911D01*
X193044485Y-76643285D01*
X193017111Y-76665752D01*
X192985883Y-76682443D01*
X192951992Y-76692724D01*
X192910609Y-76696800D01*
X192310391Y-76696800D01*
X192269008Y-76692724D01*
X192235117Y-76682443D01*
X192203889Y-76665752D01*
X192176515Y-76643285D01*
X192154048Y-76615911D01*
X192137357Y-76584683D01*
X192127076Y-76550792D01*
X192123000Y-76509409D01*
X192123000Y-75484191D01*
X192127076Y-75442808D01*
X192137357Y-75408917D01*
X192154048Y-75377689D01*
X192176515Y-75350315D01*
X192203889Y-75327848D01*
X192235117Y-75311157D01*
X192269008Y-75300876D01*
X192310391Y-75296800D01*
X192910609Y-75296800D01*
X192951992Y-75300876D01*
X192951992Y-75300876D01*
G37*
G36*
X196863592Y-75300876D02*
X196897483Y-75311157D01*
X196928711Y-75327848D01*
X196956085Y-75350315D01*
X196978552Y-75377689D01*
X196995243Y-75408917D01*
X197005524Y-75442808D01*
X197009600Y-75484191D01*
X197009600Y-76509409D01*
X197005524Y-76550792D01*
X196995243Y-76584683D01*
X196978552Y-76615911D01*
X196956085Y-76643285D01*
X196928711Y-76665752D01*
X196897483Y-76682443D01*
X196863592Y-76692724D01*
X196822209Y-76696800D01*
X196221991Y-76696800D01*
X196180608Y-76692724D01*
X196146717Y-76682443D01*
X196115489Y-76665752D01*
X196088115Y-76643285D01*
X196065648Y-76615911D01*
X196048957Y-76584683D01*
X196038676Y-76550792D01*
X196034600Y-76509409D01*
X196034600Y-75484191D01*
X196038676Y-75442808D01*
X196048957Y-75408917D01*
X196065648Y-75377689D01*
X196088115Y-75350315D01*
X196115489Y-75327848D01*
X196146717Y-75311157D01*
X196180608Y-75300876D01*
X196221991Y-75296800D01*
X196822209Y-75296800D01*
X196863592Y-75300876D01*
X196863592Y-75300876D01*
G37*
G36*
X198738592Y-75300876D02*
X198772483Y-75311157D01*
X198803711Y-75327848D01*
X198831085Y-75350315D01*
X198853552Y-75377689D01*
X198870243Y-75408917D01*
X198880524Y-75442808D01*
X198884600Y-75484191D01*
X198884600Y-76509409D01*
X198880524Y-76550792D01*
X198870243Y-76584683D01*
X198853552Y-76615911D01*
X198831085Y-76643285D01*
X198803711Y-76665752D01*
X198772483Y-76682443D01*
X198738592Y-76692724D01*
X198697209Y-76696800D01*
X198096991Y-76696800D01*
X198055608Y-76692724D01*
X198021717Y-76682443D01*
X197990489Y-76665752D01*
X197963115Y-76643285D01*
X197940648Y-76615911D01*
X197923957Y-76584683D01*
X197913676Y-76550792D01*
X197909600Y-76509409D01*
X197909600Y-75484191D01*
X197913676Y-75442808D01*
X197923957Y-75408917D01*
X197940648Y-75377689D01*
X197963115Y-75350315D01*
X197990489Y-75327848D01*
X198021717Y-75311157D01*
X198055608Y-75300876D01*
X198096991Y-75296800D01*
X198697209Y-75296800D01*
X198738592Y-75300876D01*
X198738592Y-75300876D01*
G37*
G36*
X202700992Y-75300876D02*
X202734883Y-75311157D01*
X202766111Y-75327848D01*
X202793485Y-75350315D01*
X202815952Y-75377689D01*
X202832643Y-75408917D01*
X202842924Y-75442808D01*
X202847000Y-75484191D01*
X202847000Y-76509409D01*
X202842924Y-76550792D01*
X202832643Y-76584683D01*
X202815952Y-76615911D01*
X202793485Y-76643285D01*
X202766111Y-76665752D01*
X202734883Y-76682443D01*
X202700992Y-76692724D01*
X202659609Y-76696800D01*
X202059391Y-76696800D01*
X202018008Y-76692724D01*
X201984117Y-76682443D01*
X201952889Y-76665752D01*
X201925515Y-76643285D01*
X201903048Y-76615911D01*
X201886357Y-76584683D01*
X201876076Y-76550792D01*
X201872000Y-76509409D01*
X201872000Y-75484191D01*
X201876076Y-75442808D01*
X201886357Y-75408917D01*
X201903048Y-75377689D01*
X201925515Y-75350315D01*
X201952889Y-75327848D01*
X201984117Y-75311157D01*
X202018008Y-75300876D01*
X202059391Y-75296800D01*
X202659609Y-75296800D01*
X202700992Y-75300876D01*
X202700992Y-75300876D01*
G37*
G36*
X162264192Y-75250076D02*
X162298083Y-75260357D01*
X162329311Y-75277048D01*
X162356685Y-75299515D01*
X162379152Y-75326889D01*
X162395843Y-75358117D01*
X162406124Y-75392008D01*
X162410200Y-75433391D01*
X162410200Y-76458609D01*
X162406124Y-76499992D01*
X162395843Y-76533883D01*
X162379152Y-76565111D01*
X162356685Y-76592485D01*
X162329311Y-76614952D01*
X162298083Y-76631643D01*
X162264192Y-76641924D01*
X162222809Y-76646000D01*
X161622591Y-76646000D01*
X161581208Y-76641924D01*
X161547317Y-76631643D01*
X161516089Y-76614952D01*
X161488715Y-76592485D01*
X161466248Y-76565111D01*
X161449557Y-76533883D01*
X161439276Y-76499992D01*
X161435200Y-76458609D01*
X161435200Y-75433391D01*
X161439276Y-75392008D01*
X161449557Y-75358117D01*
X161466248Y-75326889D01*
X161488715Y-75299515D01*
X161516089Y-75277048D01*
X161547317Y-75260357D01*
X161581208Y-75250076D01*
X161622591Y-75246000D01*
X162222809Y-75246000D01*
X162264192Y-75250076D01*
X162264192Y-75250076D01*
G37*
G36*
X160389192Y-75250076D02*
X160423083Y-75260357D01*
X160454311Y-75277048D01*
X160481685Y-75299515D01*
X160504152Y-75326889D01*
X160520843Y-75358117D01*
X160531124Y-75392008D01*
X160535200Y-75433391D01*
X160535200Y-76458609D01*
X160531124Y-76499992D01*
X160520843Y-76533883D01*
X160504152Y-76565111D01*
X160481685Y-76592485D01*
X160454311Y-76614952D01*
X160423083Y-76631643D01*
X160389192Y-76641924D01*
X160347809Y-76646000D01*
X159747591Y-76646000D01*
X159706208Y-76641924D01*
X159672317Y-76631643D01*
X159641089Y-76614952D01*
X159613715Y-76592485D01*
X159591248Y-76565111D01*
X159574557Y-76533883D01*
X159564276Y-76499992D01*
X159560200Y-76458609D01*
X159560200Y-75433391D01*
X159564276Y-75392008D01*
X159574557Y-75358117D01*
X159591248Y-75326889D01*
X159613715Y-75299515D01*
X159641089Y-75277048D01*
X159672317Y-75260357D01*
X159706208Y-75250076D01*
X159747591Y-75246000D01*
X160347809Y-75246000D01*
X160389192Y-75250076D01*
X160389192Y-75250076D01*
G37*
G36*
X132726800Y-76643600D02*
X131026800Y-76643600D01*
X131026800Y-74943600D01*
X132726800Y-74943600D01*
X132726800Y-76643600D01*
X132726800Y-76643600D01*
G37*
G36*
X181872992Y-74742076D02*
X181906883Y-74752357D01*
X181938111Y-74769048D01*
X181965485Y-74791515D01*
X181987952Y-74818889D01*
X182004643Y-74850117D01*
X182014924Y-74884008D01*
X182019000Y-74925391D01*
X182019000Y-75950609D01*
X182014924Y-75991992D01*
X182004643Y-76025883D01*
X181987952Y-76057111D01*
X181965485Y-76084485D01*
X181938111Y-76106952D01*
X181906883Y-76123643D01*
X181872992Y-76133924D01*
X181831609Y-76138000D01*
X181231391Y-76138000D01*
X181190008Y-76133924D01*
X181156117Y-76123643D01*
X181124889Y-76106952D01*
X181097515Y-76084485D01*
X181075048Y-76057111D01*
X181058357Y-76025883D01*
X181048076Y-75991992D01*
X181044000Y-75950609D01*
X181044000Y-74925391D01*
X181048076Y-74884008D01*
X181058357Y-74850117D01*
X181075048Y-74818889D01*
X181097515Y-74791515D01*
X181124889Y-74769048D01*
X181156117Y-74752357D01*
X181190008Y-74742076D01*
X181231391Y-74738000D01*
X181831609Y-74738000D01*
X181872992Y-74742076D01*
X181872992Y-74742076D01*
G37*
G36*
X179997992Y-74742076D02*
X180031883Y-74752357D01*
X180063111Y-74769048D01*
X180090485Y-74791515D01*
X180112952Y-74818889D01*
X180129643Y-74850117D01*
X180139924Y-74884008D01*
X180144000Y-74925391D01*
X180144000Y-75950609D01*
X180139924Y-75991992D01*
X180129643Y-76025883D01*
X180112952Y-76057111D01*
X180090485Y-76084485D01*
X180063111Y-76106952D01*
X180031883Y-76123643D01*
X179997992Y-76133924D01*
X179956609Y-76138000D01*
X179356391Y-76138000D01*
X179315008Y-76133924D01*
X179281117Y-76123643D01*
X179249889Y-76106952D01*
X179222515Y-76084485D01*
X179200048Y-76057111D01*
X179183357Y-76025883D01*
X179173076Y-75991992D01*
X179169000Y-75950609D01*
X179169000Y-74925391D01*
X179173076Y-74884008D01*
X179183357Y-74850117D01*
X179200048Y-74818889D01*
X179222515Y-74791515D01*
X179249889Y-74769048D01*
X179281117Y-74752357D01*
X179315008Y-74742076D01*
X179356391Y-74738000D01*
X179956609Y-74738000D01*
X179997992Y-74742076D01*
X179997992Y-74742076D01*
G37*
G36*
X209076000Y-75992000D02*
X207106000Y-75992000D01*
X207106000Y-75392000D01*
X209076000Y-75392000D01*
X209076000Y-75992000D01*
X209076000Y-75992000D01*
G37*
G36*
X214026000Y-75992000D02*
X212056000Y-75992000D01*
X212056000Y-75392000D01*
X214026000Y-75392000D01*
X214026000Y-75992000D01*
X214026000Y-75992000D01*
G37*
G36*
X156622000Y-75890400D02*
X154652000Y-75890400D01*
X154652000Y-75290400D01*
X156622000Y-75290400D01*
X156622000Y-75890400D01*
X156622000Y-75890400D01*
G37*
G36*
X151672000Y-75890400D02*
X149702000Y-75890400D01*
X149702000Y-75290400D01*
X151672000Y-75290400D01*
X151672000Y-75890400D01*
X151672000Y-75890400D01*
G37*
G36*
X141105600Y-75788800D02*
X139135600Y-75788800D01*
X139135600Y-75188800D01*
X141105600Y-75188800D01*
X141105600Y-75788800D01*
X141105600Y-75788800D01*
G37*
G36*
X146055600Y-75788800D02*
X144085600Y-75788800D01*
X144085600Y-75188800D01*
X146055600Y-75188800D01*
X146055600Y-75788800D01*
X146055600Y-75788800D01*
G37*
G36*
X190334900Y-75615800D02*
X189852300Y-75615800D01*
X189852300Y-74447400D01*
X190334900Y-74447400D01*
X190334900Y-75615800D01*
X190334900Y-75615800D01*
G37*
G36*
X185669192Y-74626676D02*
X185703083Y-74636957D01*
X185734311Y-74653648D01*
X185761685Y-74676115D01*
X185784152Y-74703489D01*
X185800843Y-74734717D01*
X185811124Y-74768608D01*
X185815200Y-74809991D01*
X185815200Y-75410209D01*
X185811124Y-75451592D01*
X185800843Y-75485483D01*
X185784152Y-75516711D01*
X185761685Y-75544085D01*
X185734311Y-75566552D01*
X185703083Y-75583243D01*
X185669192Y-75593524D01*
X185627809Y-75597600D01*
X184602591Y-75597600D01*
X184561208Y-75593524D01*
X184527317Y-75583243D01*
X184496089Y-75566552D01*
X184468715Y-75544085D01*
X184446248Y-75516711D01*
X184429557Y-75485483D01*
X184419276Y-75451592D01*
X184415200Y-75410209D01*
X184415200Y-74809991D01*
X184419276Y-74768608D01*
X184429557Y-74734717D01*
X184446248Y-74703489D01*
X184468715Y-74676115D01*
X184496089Y-74653648D01*
X184527317Y-74636957D01*
X184561208Y-74626676D01*
X184602591Y-74622600D01*
X185627809Y-74622600D01*
X185669192Y-74626676D01*
X185669192Y-74626676D01*
G37*
G36*
X220416392Y-74321876D02*
X220450283Y-74332157D01*
X220481511Y-74348848D01*
X220508885Y-74371315D01*
X220531352Y-74398689D01*
X220548043Y-74429917D01*
X220558324Y-74463808D01*
X220562400Y-74505191D01*
X220562400Y-75105409D01*
X220558324Y-75146792D01*
X220548043Y-75180683D01*
X220531352Y-75211911D01*
X220508885Y-75239285D01*
X220481511Y-75261752D01*
X220450283Y-75278443D01*
X220416392Y-75288724D01*
X220375009Y-75292800D01*
X219349791Y-75292800D01*
X219308408Y-75288724D01*
X219274517Y-75278443D01*
X219243289Y-75261752D01*
X219215915Y-75239285D01*
X219193448Y-75211911D01*
X219176757Y-75180683D01*
X219166476Y-75146792D01*
X219162400Y-75105409D01*
X219162400Y-74505191D01*
X219166476Y-74463808D01*
X219176757Y-74429917D01*
X219193448Y-74398689D01*
X219215915Y-74371315D01*
X219243289Y-74348848D01*
X219274517Y-74332157D01*
X219308408Y-74321876D01*
X219349791Y-74317800D01*
X220375009Y-74317800D01*
X220416392Y-74321876D01*
X220416392Y-74321876D01*
G37*
G36*
X214026000Y-74722000D02*
X212056000Y-74722000D01*
X212056000Y-74122000D01*
X214026000Y-74122000D01*
X214026000Y-74722000D01*
X214026000Y-74722000D01*
G37*
G36*
X209076000Y-74722000D02*
X207106000Y-74722000D01*
X207106000Y-74122000D01*
X209076000Y-74122000D01*
X209076000Y-74722000D01*
X209076000Y-74722000D01*
G37*
G36*
X151672000Y-74620400D02*
X149702000Y-74620400D01*
X149702000Y-74020400D01*
X151672000Y-74020400D01*
X151672000Y-74620400D01*
X151672000Y-74620400D01*
G37*
G36*
X156622000Y-74620400D02*
X154652000Y-74620400D01*
X154652000Y-74020400D01*
X156622000Y-74020400D01*
X156622000Y-74620400D01*
X156622000Y-74620400D01*
G37*
G36*
X160964200Y-74615000D02*
X160084200Y-74615000D01*
X160084200Y-73835000D01*
X160964200Y-73835000D01*
X160964200Y-74615000D01*
X160964200Y-74615000D01*
G37*
G36*
X162394200Y-74615000D02*
X161514200Y-74615000D01*
X161514200Y-73835000D01*
X162394200Y-73835000D01*
X162394200Y-74615000D01*
X162394200Y-74615000D01*
G37*
G36*
X141105600Y-74518800D02*
X139135600Y-74518800D01*
X139135600Y-73918800D01*
X141105600Y-73918800D01*
X141105600Y-74518800D01*
X141105600Y-74518800D01*
G37*
G36*
X146055600Y-74518800D02*
X144085600Y-74518800D01*
X144085600Y-73918800D01*
X146055600Y-73918800D01*
X146055600Y-74518800D01*
X146055600Y-74518800D01*
G37*
G36*
X201634192Y-73116476D02*
X201668083Y-73126757D01*
X201699311Y-73143448D01*
X201726685Y-73165915D01*
X201749152Y-73193289D01*
X201765843Y-73224517D01*
X201776124Y-73258408D01*
X201780200Y-73299791D01*
X201780200Y-74325009D01*
X201776124Y-74366392D01*
X201765843Y-74400283D01*
X201749152Y-74431511D01*
X201726685Y-74458885D01*
X201699311Y-74481352D01*
X201668083Y-74498043D01*
X201634192Y-74508324D01*
X201592809Y-74512400D01*
X200992591Y-74512400D01*
X200951208Y-74508324D01*
X200917317Y-74498043D01*
X200886089Y-74481352D01*
X200858715Y-74458885D01*
X200836248Y-74431511D01*
X200819557Y-74400283D01*
X200809276Y-74366392D01*
X200805200Y-74325009D01*
X200805200Y-73299791D01*
X200809276Y-73258408D01*
X200819557Y-73224517D01*
X200836248Y-73193289D01*
X200858715Y-73165915D01*
X200886089Y-73143448D01*
X200917317Y-73126757D01*
X200951208Y-73116476D01*
X200992591Y-73112400D01*
X201592809Y-73112400D01*
X201634192Y-73116476D01*
X201634192Y-73116476D01*
G37*
G36*
X199759192Y-73116476D02*
X199793083Y-73126757D01*
X199824311Y-73143448D01*
X199851685Y-73165915D01*
X199874152Y-73193289D01*
X199890843Y-73224517D01*
X199901124Y-73258408D01*
X199905200Y-73299791D01*
X199905200Y-74325009D01*
X199901124Y-74366392D01*
X199890843Y-74400283D01*
X199874152Y-74431511D01*
X199851685Y-74458885D01*
X199824311Y-74481352D01*
X199793083Y-74498043D01*
X199759192Y-74508324D01*
X199717809Y-74512400D01*
X199117591Y-74512400D01*
X199076208Y-74508324D01*
X199042317Y-74498043D01*
X199011089Y-74481352D01*
X198983715Y-74458885D01*
X198961248Y-74431511D01*
X198944557Y-74400283D01*
X198934276Y-74366392D01*
X198930200Y-74325009D01*
X198930200Y-73299791D01*
X198934276Y-73258408D01*
X198944557Y-73224517D01*
X198961248Y-73193289D01*
X198983715Y-73165915D01*
X199011089Y-73143448D01*
X199042317Y-73126757D01*
X199076208Y-73116476D01*
X199117591Y-73112400D01*
X199717809Y-73112400D01*
X199759192Y-73116476D01*
X199759192Y-73116476D01*
G37*
G36*
X217673192Y-73453676D02*
X217707083Y-73463957D01*
X217738311Y-73480648D01*
X217765685Y-73503115D01*
X217788152Y-73530489D01*
X217804843Y-73561717D01*
X217815124Y-73595608D01*
X217819200Y-73636991D01*
X217819200Y-74237209D01*
X217815124Y-74278592D01*
X217804843Y-74312483D01*
X217788152Y-74343711D01*
X217765685Y-74371085D01*
X217738311Y-74393552D01*
X217707083Y-74410243D01*
X217673192Y-74420524D01*
X217631809Y-74424600D01*
X216606591Y-74424600D01*
X216565208Y-74420524D01*
X216531317Y-74410243D01*
X216500089Y-74393552D01*
X216472715Y-74371085D01*
X216450248Y-74343711D01*
X216433557Y-74312483D01*
X216423276Y-74278592D01*
X216419200Y-74237209D01*
X216419200Y-73636991D01*
X216423276Y-73595608D01*
X216433557Y-73561717D01*
X216450248Y-73530489D01*
X216472715Y-73503115D01*
X216500089Y-73480648D01*
X216531317Y-73463957D01*
X216565208Y-73453676D01*
X216606591Y-73449600D01*
X217631809Y-73449600D01*
X217673192Y-73453676D01*
X217673192Y-73453676D01*
G37*
G36*
X132043430Y-72415899D02*
X132203655Y-72464503D01*
X132351320Y-72543431D01*
X132480749Y-72649651D01*
X132586969Y-72779080D01*
X132665897Y-72926745D01*
X132714501Y-73086970D01*
X132730912Y-73253600D01*
X132714501Y-73420230D01*
X132665897Y-73580455D01*
X132586969Y-73728120D01*
X132480749Y-73857549D01*
X132351320Y-73963769D01*
X132203655Y-74042697D01*
X132043430Y-74091301D01*
X131918552Y-74103600D01*
X131835048Y-74103600D01*
X131710170Y-74091301D01*
X131549945Y-74042697D01*
X131402280Y-73963769D01*
X131272851Y-73857549D01*
X131166631Y-73728120D01*
X131087703Y-73580455D01*
X131039099Y-73420230D01*
X131022688Y-73253600D01*
X131039099Y-73086970D01*
X131087703Y-72926745D01*
X131166631Y-72779080D01*
X131272851Y-72649651D01*
X131402280Y-72543431D01*
X131549945Y-72464503D01*
X131710170Y-72415899D01*
X131835048Y-72403600D01*
X131918552Y-72403600D01*
X132043430Y-72415899D01*
X132043430Y-72415899D01*
G37*
G36*
X160964200Y-73485000D02*
X160084200Y-73485000D01*
X160084200Y-72705000D01*
X160964200Y-72705000D01*
X160964200Y-73485000D01*
X160964200Y-73485000D01*
G37*
G36*
X162394200Y-73485000D02*
X161514200Y-73485000D01*
X161514200Y-72705000D01*
X162394200Y-72705000D01*
X162394200Y-73485000D01*
X162394200Y-73485000D01*
G37*
G36*
X214026000Y-73452000D02*
X212056000Y-73452000D01*
X212056000Y-72852000D01*
X214026000Y-72852000D01*
X214026000Y-73452000D01*
X214026000Y-73452000D01*
G37*
G36*
X209076000Y-73452000D02*
X207106000Y-73452000D01*
X207106000Y-72852000D01*
X209076000Y-72852000D01*
X209076000Y-73452000D01*
X209076000Y-73452000D01*
G37*
G36*
X156622000Y-73350400D02*
X154652000Y-73350400D01*
X154652000Y-72750400D01*
X156622000Y-72750400D01*
X156622000Y-73350400D01*
X156622000Y-73350400D01*
G37*
G36*
X151672000Y-73350400D02*
X149702000Y-73350400D01*
X149702000Y-72750400D01*
X151672000Y-72750400D01*
X151672000Y-73350400D01*
X151672000Y-73350400D01*
G37*
G36*
X194183000Y-73037700D02*
X193014600Y-73037700D01*
X193014600Y-72555100D01*
X194183000Y-72555100D01*
X194183000Y-73037700D01*
X194183000Y-73037700D01*
G37*
G36*
X196418200Y-73037700D02*
X195249800Y-73037700D01*
X195249800Y-72555100D01*
X196418200Y-72555100D01*
X196418200Y-73037700D01*
X196418200Y-73037700D01*
G37*
G36*
X217673192Y-71578676D02*
X217707083Y-71588957D01*
X217738311Y-71605648D01*
X217765685Y-71628115D01*
X217788152Y-71655489D01*
X217804843Y-71686717D01*
X217815124Y-71720608D01*
X217819200Y-71761991D01*
X217819200Y-72362209D01*
X217815124Y-72403592D01*
X217804843Y-72437483D01*
X217788152Y-72468711D01*
X217765685Y-72496085D01*
X217738311Y-72518552D01*
X217707083Y-72535243D01*
X217673192Y-72545524D01*
X217631809Y-72549600D01*
X216606591Y-72549600D01*
X216565208Y-72545524D01*
X216531317Y-72535243D01*
X216500089Y-72518552D01*
X216472715Y-72496085D01*
X216450248Y-72468711D01*
X216433557Y-72437483D01*
X216423276Y-72403592D01*
X216419200Y-72362209D01*
X216419200Y-71761991D01*
X216423276Y-71720608D01*
X216433557Y-71686717D01*
X216450248Y-71655489D01*
X216472715Y-71628115D01*
X216500089Y-71605648D01*
X216531317Y-71588957D01*
X216565208Y-71578676D01*
X216606591Y-71574600D01*
X217631809Y-71574600D01*
X217673192Y-71578676D01*
X217673192Y-71578676D01*
G37*
G36*
X209076000Y-72182000D02*
X207106000Y-72182000D01*
X207106000Y-71582000D01*
X209076000Y-71582000D01*
X209076000Y-72182000D01*
X209076000Y-72182000D01*
G37*
G36*
X214026000Y-72182000D02*
X212056000Y-72182000D01*
X212056000Y-71582000D01*
X214026000Y-71582000D01*
X214026000Y-72182000D01*
X214026000Y-72182000D01*
G37*
G36*
X156622000Y-72080400D02*
X154652000Y-72080400D01*
X154652000Y-71480400D01*
X156622000Y-71480400D01*
X156622000Y-72080400D01*
X156622000Y-72080400D01*
G37*
G36*
X151672000Y-72080400D02*
X149702000Y-72080400D01*
X149702000Y-71480400D01*
X151672000Y-71480400D01*
X151672000Y-72080400D01*
X151672000Y-72080400D01*
G37*
G36*
X178404792Y-71015276D02*
X178438683Y-71025557D01*
X178469911Y-71042248D01*
X178497285Y-71064715D01*
X178519752Y-71092089D01*
X178536443Y-71123317D01*
X178546724Y-71157208D01*
X178550800Y-71198591D01*
X178550800Y-71798809D01*
X178546724Y-71840192D01*
X178536443Y-71874083D01*
X178519752Y-71905311D01*
X178497285Y-71932685D01*
X178469911Y-71955152D01*
X178438683Y-71971843D01*
X178404792Y-71982124D01*
X178363409Y-71986200D01*
X177338191Y-71986200D01*
X177296808Y-71982124D01*
X177262917Y-71971843D01*
X177231689Y-71955152D01*
X177204315Y-71932685D01*
X177181848Y-71905311D01*
X177165157Y-71874083D01*
X177154876Y-71840192D01*
X177150800Y-71798809D01*
X177150800Y-71198591D01*
X177154876Y-71157208D01*
X177165157Y-71123317D01*
X177181848Y-71092089D01*
X177204315Y-71064715D01*
X177231689Y-71042248D01*
X177262917Y-71025557D01*
X177296808Y-71015276D01*
X177338191Y-71011200D01*
X178363409Y-71011200D01*
X178404792Y-71015276D01*
X178404792Y-71015276D01*
G37*
G36*
X162391192Y-70551076D02*
X162425083Y-70561357D01*
X162456311Y-70578048D01*
X162483685Y-70600515D01*
X162506152Y-70627889D01*
X162522843Y-70659117D01*
X162533124Y-70693008D01*
X162537200Y-70734391D01*
X162537200Y-71759609D01*
X162533124Y-71800992D01*
X162522843Y-71834883D01*
X162506152Y-71866111D01*
X162483685Y-71893485D01*
X162456311Y-71915952D01*
X162425083Y-71932643D01*
X162391192Y-71942924D01*
X162349809Y-71947000D01*
X161749591Y-71947000D01*
X161708208Y-71942924D01*
X161674317Y-71932643D01*
X161643089Y-71915952D01*
X161615715Y-71893485D01*
X161593248Y-71866111D01*
X161576557Y-71834883D01*
X161566276Y-71800992D01*
X161562200Y-71759609D01*
X161562200Y-70734391D01*
X161566276Y-70693008D01*
X161576557Y-70659117D01*
X161593248Y-70627889D01*
X161615715Y-70600515D01*
X161643089Y-70578048D01*
X161674317Y-70561357D01*
X161708208Y-70551076D01*
X161749591Y-70547000D01*
X162349809Y-70547000D01*
X162391192Y-70551076D01*
X162391192Y-70551076D01*
G37*
G36*
X160516192Y-70551076D02*
X160550083Y-70561357D01*
X160581311Y-70578048D01*
X160608685Y-70600515D01*
X160631152Y-70627889D01*
X160647843Y-70659117D01*
X160658124Y-70693008D01*
X160662200Y-70734391D01*
X160662200Y-71759609D01*
X160658124Y-71800992D01*
X160647843Y-71834883D01*
X160631152Y-71866111D01*
X160608685Y-71893485D01*
X160581311Y-71915952D01*
X160550083Y-71932643D01*
X160516192Y-71942924D01*
X160474809Y-71947000D01*
X159874591Y-71947000D01*
X159833208Y-71942924D01*
X159799317Y-71932643D01*
X159768089Y-71915952D01*
X159740715Y-71893485D01*
X159718248Y-71866111D01*
X159701557Y-71834883D01*
X159691276Y-71800992D01*
X159687200Y-71759609D01*
X159687200Y-70734391D01*
X159691276Y-70693008D01*
X159701557Y-70659117D01*
X159718248Y-70627889D01*
X159740715Y-70600515D01*
X159768089Y-70578048D01*
X159799317Y-70561357D01*
X159833208Y-70551076D01*
X159874591Y-70547000D01*
X160474809Y-70547000D01*
X160516192Y-70551076D01*
X160516192Y-70551076D01*
G37*
G36*
X191147700Y-71704200D02*
X188988700Y-71704200D01*
X188988700Y-71145400D01*
X191147700Y-71145400D01*
X191147700Y-71704200D01*
X191147700Y-71704200D01*
G37*
G36*
X184391300Y-71704200D02*
X182232300Y-71704200D01*
X182232300Y-71145400D01*
X184391300Y-71145400D01*
X184391300Y-71704200D01*
X184391300Y-71704200D01*
G37*
G36*
X132043430Y-69875899D02*
X132203655Y-69924503D01*
X132351320Y-70003431D01*
X132480749Y-70109651D01*
X132586969Y-70239080D01*
X132665897Y-70386745D01*
X132714501Y-70546970D01*
X132730912Y-70713600D01*
X132714501Y-70880230D01*
X132665897Y-71040455D01*
X132586969Y-71188120D01*
X132480749Y-71317549D01*
X132351320Y-71423769D01*
X132203655Y-71502697D01*
X132043430Y-71551301D01*
X131918552Y-71563600D01*
X131835048Y-71563600D01*
X131710170Y-71551301D01*
X131549945Y-71502697D01*
X131402280Y-71423769D01*
X131272851Y-71317549D01*
X131166631Y-71188120D01*
X131087703Y-71040455D01*
X131039099Y-70880230D01*
X131022688Y-70713600D01*
X131039099Y-70546970D01*
X131087703Y-70386745D01*
X131166631Y-70239080D01*
X131272851Y-70109651D01*
X131402280Y-70003431D01*
X131549945Y-69924503D01*
X131710170Y-69875899D01*
X131835048Y-69863600D01*
X131918552Y-69863600D01*
X132043430Y-69875899D01*
X132043430Y-69875899D01*
G37*
G36*
X209076000Y-70912000D02*
X207106000Y-70912000D01*
X207106000Y-70312000D01*
X209076000Y-70312000D01*
X209076000Y-70912000D01*
X209076000Y-70912000D01*
G37*
G36*
X214026000Y-70912000D02*
X212056000Y-70912000D01*
X212056000Y-70312000D01*
X214026000Y-70312000D01*
X214026000Y-70912000D01*
X214026000Y-70912000D01*
G37*
G36*
X195182400Y-70793600D02*
X194282400Y-70793600D01*
X194282400Y-69993600D01*
X195182400Y-69993600D01*
X195182400Y-70793600D01*
X195182400Y-70793600D01*
G37*
G36*
X191147700Y-70434200D02*
X188988700Y-70434200D01*
X188988700Y-69875400D01*
X191147700Y-69875400D01*
X191147700Y-70434200D01*
X191147700Y-70434200D01*
G37*
G36*
X184391300Y-70434200D02*
X182232300Y-70434200D01*
X182232300Y-69875400D01*
X184391300Y-69875400D01*
X184391300Y-70434200D01*
X184391300Y-70434200D01*
G37*
G36*
X199906800Y-70234800D02*
X199006800Y-70234800D01*
X199006800Y-69434800D01*
X199906800Y-69434800D01*
X199906800Y-70234800D01*
X199906800Y-70234800D01*
G37*
G36*
X216293700Y-70180200D02*
X215811100Y-70180200D01*
X215811100Y-69011800D01*
X216293700Y-69011800D01*
X216293700Y-70180200D01*
X216293700Y-70180200D01*
G37*
G36*
X178404792Y-69140276D02*
X178438683Y-69150557D01*
X178469911Y-69167248D01*
X178497285Y-69189715D01*
X178519752Y-69217089D01*
X178536443Y-69248317D01*
X178546724Y-69282208D01*
X178550800Y-69323591D01*
X178550800Y-69923809D01*
X178546724Y-69965192D01*
X178536443Y-69999083D01*
X178519752Y-70030311D01*
X178497285Y-70057685D01*
X178469911Y-70080152D01*
X178438683Y-70096843D01*
X178404792Y-70107124D01*
X178363409Y-70111200D01*
X177338191Y-70111200D01*
X177296808Y-70107124D01*
X177262917Y-70096843D01*
X177231689Y-70080152D01*
X177204315Y-70057685D01*
X177181848Y-70030311D01*
X177165157Y-69999083D01*
X177154876Y-69965192D01*
X177150800Y-69923809D01*
X177150800Y-69323591D01*
X177154876Y-69282208D01*
X177165157Y-69248317D01*
X177181848Y-69217089D01*
X177204315Y-69189715D01*
X177231689Y-69167248D01*
X177262917Y-69150557D01*
X177296808Y-69140276D01*
X177338191Y-69136200D01*
X178363409Y-69136200D01*
X178404792Y-69140276D01*
X178404792Y-69140276D01*
G37*
G36*
X197182400Y-69843600D02*
X196282400Y-69843600D01*
X196282400Y-69043600D01*
X197182400Y-69043600D01*
X197182400Y-69843600D01*
X197182400Y-69843600D01*
G37*
G36*
X174055000Y-69730000D02*
X166305000Y-69730000D01*
X166305000Y-68730000D01*
X174055000Y-68730000D01*
X174055000Y-69730000D01*
X174055000Y-69730000D01*
G37*
G36*
X201906800Y-69284800D02*
X201006800Y-69284800D01*
X201006800Y-68484800D01*
X201906800Y-68484800D01*
X201906800Y-69284800D01*
X201906800Y-69284800D01*
G37*
G36*
X191147700Y-69164200D02*
X188988700Y-69164200D01*
X188988700Y-68605400D01*
X191147700Y-68605400D01*
X191147700Y-69164200D01*
X191147700Y-69164200D01*
G37*
G36*
X184391300Y-69164200D02*
X182232300Y-69164200D01*
X182232300Y-68605400D01*
X184391300Y-68605400D01*
X184391300Y-69164200D01*
X184391300Y-69164200D01*
G37*
G36*
X132043430Y-67335899D02*
X132203655Y-67384503D01*
X132351320Y-67463431D01*
X132480749Y-67569651D01*
X132586969Y-67699080D01*
X132665897Y-67846745D01*
X132714501Y-68006970D01*
X132730912Y-68173600D01*
X132714501Y-68340230D01*
X132665897Y-68500455D01*
X132586969Y-68648120D01*
X132480749Y-68777549D01*
X132351320Y-68883769D01*
X132203655Y-68962697D01*
X132043430Y-69011301D01*
X131918552Y-69023600D01*
X131835048Y-69023600D01*
X131710170Y-69011301D01*
X131549945Y-68962697D01*
X131402280Y-68883769D01*
X131272851Y-68777549D01*
X131166631Y-68648120D01*
X131087703Y-68500455D01*
X131039099Y-68340230D01*
X131022688Y-68173600D01*
X131039099Y-68006970D01*
X131087703Y-67846745D01*
X131166631Y-67699080D01*
X131272851Y-67569651D01*
X131402280Y-67463431D01*
X131549945Y-67384503D01*
X131710170Y-67335899D01*
X131835048Y-67323600D01*
X131918552Y-67323600D01*
X132043430Y-67335899D01*
X132043430Y-67335899D01*
G37*
G36*
X195182400Y-68893600D02*
X194282400Y-68893600D01*
X194282400Y-68093600D01*
X195182400Y-68093600D01*
X195182400Y-68893600D01*
X195182400Y-68893600D01*
G37*
G36*
X212962592Y-67325276D02*
X212996483Y-67335557D01*
X213027711Y-67352248D01*
X213055085Y-67374715D01*
X213077552Y-67402089D01*
X213094243Y-67433317D01*
X213104524Y-67467208D01*
X213108600Y-67508591D01*
X213108600Y-68533809D01*
X213104524Y-68575192D01*
X213094243Y-68609083D01*
X213077552Y-68640311D01*
X213055085Y-68667685D01*
X213027711Y-68690152D01*
X212996483Y-68706843D01*
X212962592Y-68717124D01*
X212921209Y-68721200D01*
X212320991Y-68721200D01*
X212279608Y-68717124D01*
X212245717Y-68706843D01*
X212214489Y-68690152D01*
X212187115Y-68667685D01*
X212164648Y-68640311D01*
X212147957Y-68609083D01*
X212137676Y-68575192D01*
X212133600Y-68533809D01*
X212133600Y-67508591D01*
X212137676Y-67467208D01*
X212147957Y-67433317D01*
X212164648Y-67402089D01*
X212187115Y-67374715D01*
X212214489Y-67352248D01*
X212245717Y-67335557D01*
X212279608Y-67325276D01*
X212320991Y-67321200D01*
X212921209Y-67321200D01*
X212962592Y-67325276D01*
X212962592Y-67325276D01*
G37*
G36*
X211087592Y-67325276D02*
X211121483Y-67335557D01*
X211152711Y-67352248D01*
X211180085Y-67374715D01*
X211202552Y-67402089D01*
X211219243Y-67433317D01*
X211229524Y-67467208D01*
X211233600Y-67508591D01*
X211233600Y-68533809D01*
X211229524Y-68575192D01*
X211219243Y-68609083D01*
X211202552Y-68640311D01*
X211180085Y-68667685D01*
X211152711Y-68690152D01*
X211121483Y-68706843D01*
X211087592Y-68717124D01*
X211046209Y-68721200D01*
X210445991Y-68721200D01*
X210404608Y-68717124D01*
X210370717Y-68706843D01*
X210339489Y-68690152D01*
X210312115Y-68667685D01*
X210289648Y-68640311D01*
X210272957Y-68609083D01*
X210262676Y-68575192D01*
X210258600Y-68533809D01*
X210258600Y-67508591D01*
X210262676Y-67467208D01*
X210272957Y-67433317D01*
X210289648Y-67402089D01*
X210312115Y-67374715D01*
X210339489Y-67352248D01*
X210370717Y-67335557D01*
X210404608Y-67325276D01*
X210445991Y-67321200D01*
X211046209Y-67321200D01*
X211087592Y-67325276D01*
X211087592Y-67325276D01*
G37*
G36*
X199906800Y-68334800D02*
X199006800Y-68334800D01*
X199006800Y-67534800D01*
X199906800Y-67534800D01*
X199906800Y-68334800D01*
X199906800Y-68334800D01*
G37*
G36*
X165367592Y-66664876D02*
X165401483Y-66675157D01*
X165432711Y-66691848D01*
X165460085Y-66714315D01*
X165482552Y-66741689D01*
X165499243Y-66772917D01*
X165509524Y-66806808D01*
X165513600Y-66848191D01*
X165513600Y-67873409D01*
X165509524Y-67914792D01*
X165499243Y-67948683D01*
X165482552Y-67979911D01*
X165460085Y-68007285D01*
X165432711Y-68029752D01*
X165401483Y-68046443D01*
X165367592Y-68056724D01*
X165326209Y-68060800D01*
X164725991Y-68060800D01*
X164684608Y-68056724D01*
X164650717Y-68046443D01*
X164619489Y-68029752D01*
X164592115Y-68007285D01*
X164569648Y-67979911D01*
X164552957Y-67948683D01*
X164542676Y-67914792D01*
X164538600Y-67873409D01*
X164538600Y-66848191D01*
X164542676Y-66806808D01*
X164552957Y-66772917D01*
X164569648Y-66741689D01*
X164592115Y-66714315D01*
X164619489Y-66691848D01*
X164650717Y-66675157D01*
X164684608Y-66664876D01*
X164725991Y-66660800D01*
X165326209Y-66660800D01*
X165367592Y-66664876D01*
X165367592Y-66664876D01*
G37*
G36*
X167242592Y-66664876D02*
X167276483Y-66675157D01*
X167307711Y-66691848D01*
X167335085Y-66714315D01*
X167357552Y-66741689D01*
X167374243Y-66772917D01*
X167384524Y-66806808D01*
X167388600Y-66848191D01*
X167388600Y-67873409D01*
X167384524Y-67914792D01*
X167374243Y-67948683D01*
X167357552Y-67979911D01*
X167335085Y-68007285D01*
X167307711Y-68029752D01*
X167276483Y-68046443D01*
X167242592Y-68056724D01*
X167201209Y-68060800D01*
X166600991Y-68060800D01*
X166559608Y-68056724D01*
X166525717Y-68046443D01*
X166494489Y-68029752D01*
X166467115Y-68007285D01*
X166444648Y-67979911D01*
X166427957Y-67948683D01*
X166417676Y-67914792D01*
X166413600Y-67873409D01*
X166413600Y-66848191D01*
X166417676Y-66806808D01*
X166427957Y-66772917D01*
X166444648Y-66741689D01*
X166467115Y-66714315D01*
X166494489Y-66691848D01*
X166525717Y-66675157D01*
X166559608Y-66664876D01*
X166600991Y-66660800D01*
X167201209Y-66660800D01*
X167242592Y-66664876D01*
X167242592Y-66664876D01*
G37*
G36*
X216293700Y-67945000D02*
X215811100Y-67945000D01*
X215811100Y-66776600D01*
X216293700Y-66776600D01*
X216293700Y-67945000D01*
X216293700Y-67945000D01*
G37*
G36*
X191147700Y-67894200D02*
X188988700Y-67894200D01*
X188988700Y-67335400D01*
X191147700Y-67335400D01*
X191147700Y-67894200D01*
X191147700Y-67894200D01*
G37*
G36*
X184391300Y-67894200D02*
X182232300Y-67894200D01*
X182232300Y-67335400D01*
X184391300Y-67335400D01*
X184391300Y-67894200D01*
X184391300Y-67894200D01*
G37*
G36*
X160536992Y-66461676D02*
X160570883Y-66471957D01*
X160602111Y-66488648D01*
X160629485Y-66511115D01*
X160651952Y-66538489D01*
X160668643Y-66569717D01*
X160678924Y-66603608D01*
X160683000Y-66644991D01*
X160683000Y-67670209D01*
X160678924Y-67711592D01*
X160668643Y-67745483D01*
X160651952Y-67776711D01*
X160629485Y-67804085D01*
X160602111Y-67826552D01*
X160570883Y-67843243D01*
X160536992Y-67853524D01*
X160495609Y-67857600D01*
X159895391Y-67857600D01*
X159854008Y-67853524D01*
X159820117Y-67843243D01*
X159788889Y-67826552D01*
X159761515Y-67804085D01*
X159739048Y-67776711D01*
X159722357Y-67745483D01*
X159712076Y-67711592D01*
X159708000Y-67670209D01*
X159708000Y-66644991D01*
X159712076Y-66603608D01*
X159722357Y-66569717D01*
X159739048Y-66538489D01*
X159761515Y-66511115D01*
X159788889Y-66488648D01*
X159820117Y-66471957D01*
X159854008Y-66461676D01*
X159895391Y-66457600D01*
X160495609Y-66457600D01*
X160536992Y-66461676D01*
X160536992Y-66461676D01*
G37*
G36*
X158661992Y-66461676D02*
X158695883Y-66471957D01*
X158727111Y-66488648D01*
X158754485Y-66511115D01*
X158776952Y-66538489D01*
X158793643Y-66569717D01*
X158803924Y-66603608D01*
X158808000Y-66644991D01*
X158808000Y-67670209D01*
X158803924Y-67711592D01*
X158793643Y-67745483D01*
X158776952Y-67776711D01*
X158754485Y-67804085D01*
X158727111Y-67826552D01*
X158695883Y-67843243D01*
X158661992Y-67853524D01*
X158620609Y-67857600D01*
X158020391Y-67857600D01*
X157979008Y-67853524D01*
X157945117Y-67843243D01*
X157913889Y-67826552D01*
X157886515Y-67804085D01*
X157864048Y-67776711D01*
X157847357Y-67745483D01*
X157837076Y-67711592D01*
X157833000Y-67670209D01*
X157833000Y-66644991D01*
X157837076Y-66603608D01*
X157847357Y-66569717D01*
X157864048Y-66538489D01*
X157886515Y-66511115D01*
X157913889Y-66488648D01*
X157945117Y-66471957D01*
X157979008Y-66461676D01*
X158020391Y-66457600D01*
X158620609Y-66457600D01*
X158661992Y-66461676D01*
X158661992Y-66461676D01*
G37*
G36*
X194559192Y-66036876D02*
X194593083Y-66047157D01*
X194624311Y-66063848D01*
X194651685Y-66086315D01*
X194674152Y-66113689D01*
X194690843Y-66144917D01*
X194701124Y-66178808D01*
X194705200Y-66220191D01*
X194705200Y-66820409D01*
X194701124Y-66861792D01*
X194690843Y-66895683D01*
X194674152Y-66926911D01*
X194651685Y-66954285D01*
X194624311Y-66976752D01*
X194593083Y-66993443D01*
X194559192Y-67003724D01*
X194517809Y-67007800D01*
X193492591Y-67007800D01*
X193451208Y-67003724D01*
X193417317Y-66993443D01*
X193386089Y-66976752D01*
X193358715Y-66954285D01*
X193336248Y-66926911D01*
X193319557Y-66895683D01*
X193309276Y-66861792D01*
X193305200Y-66820409D01*
X193305200Y-66220191D01*
X193309276Y-66178808D01*
X193319557Y-66144917D01*
X193336248Y-66113689D01*
X193358715Y-66086315D01*
X193386089Y-66063848D01*
X193417317Y-66047157D01*
X193451208Y-66036876D01*
X193492591Y-66032800D01*
X194517809Y-66032800D01*
X194559192Y-66036876D01*
X194559192Y-66036876D01*
G37*
G36*
X156042415Y-65434376D02*
X156076306Y-65444657D01*
X156107534Y-65461348D01*
X156139678Y-65487729D01*
X156564097Y-65912148D01*
X156590478Y-65944292D01*
X156607169Y-65975520D01*
X156617450Y-66009411D01*
X156620921Y-66044653D01*
X156617450Y-66079895D01*
X156607169Y-66113786D01*
X156590478Y-66145014D01*
X156564097Y-66177158D01*
X155839158Y-66902097D01*
X155807014Y-66928478D01*
X155775786Y-66945169D01*
X155741895Y-66955450D01*
X155706653Y-66958921D01*
X155671411Y-66955450D01*
X155637520Y-66945169D01*
X155606292Y-66928478D01*
X155574148Y-66902097D01*
X155149729Y-66477678D01*
X155123348Y-66445534D01*
X155106657Y-66414306D01*
X155096376Y-66380415D01*
X155092905Y-66345173D01*
X155096376Y-66309931D01*
X155106657Y-66276040D01*
X155123348Y-66244812D01*
X155149729Y-66212668D01*
X155874668Y-65487729D01*
X155906812Y-65461348D01*
X155938040Y-65444657D01*
X155971931Y-65434376D01*
X156007173Y-65430905D01*
X156042415Y-65434376D01*
X156042415Y-65434376D01*
G37*
G36*
X191147700Y-66624200D02*
X188988700Y-66624200D01*
X188988700Y-66065400D01*
X191147700Y-66065400D01*
X191147700Y-66624200D01*
X191147700Y-66624200D01*
G37*
G36*
X184391300Y-66624200D02*
X182232300Y-66624200D01*
X182232300Y-66065400D01*
X184391300Y-66065400D01*
X184391300Y-66624200D01*
X184391300Y-66624200D01*
G37*
G36*
X132043430Y-64795899D02*
X132203655Y-64844503D01*
X132351320Y-64923431D01*
X132480749Y-65029651D01*
X132586969Y-65159080D01*
X132665897Y-65306745D01*
X132714501Y-65466970D01*
X132730912Y-65633600D01*
X132714501Y-65800230D01*
X132665897Y-65960455D01*
X132586969Y-66108120D01*
X132480749Y-66237549D01*
X132351320Y-66343769D01*
X132203655Y-66422697D01*
X132043430Y-66471301D01*
X131918552Y-66483600D01*
X131835048Y-66483600D01*
X131710170Y-66471301D01*
X131549945Y-66422697D01*
X131402280Y-66343769D01*
X131272851Y-66237549D01*
X131166631Y-66108120D01*
X131087703Y-65960455D01*
X131039099Y-65800230D01*
X131022688Y-65633600D01*
X131039099Y-65466970D01*
X131087703Y-65306745D01*
X131166631Y-65159080D01*
X131272851Y-65029651D01*
X131402280Y-64923431D01*
X131549945Y-64844503D01*
X131710170Y-64795899D01*
X131835048Y-64783600D01*
X131918552Y-64783600D01*
X132043430Y-64795899D01*
X132043430Y-64795899D01*
G37*
G36*
X180225700Y-66167000D02*
X179743100Y-66167000D01*
X179743100Y-64998600D01*
X180225700Y-64998600D01*
X180225700Y-66167000D01*
X180225700Y-66167000D01*
G37*
G36*
X201684992Y-64632876D02*
X201718883Y-64643157D01*
X201750111Y-64659848D01*
X201777485Y-64682315D01*
X201799952Y-64709689D01*
X201816643Y-64740917D01*
X201826924Y-64774808D01*
X201831000Y-64816191D01*
X201831000Y-65841409D01*
X201826924Y-65882792D01*
X201816643Y-65916683D01*
X201799952Y-65947911D01*
X201777485Y-65975285D01*
X201750111Y-65997752D01*
X201718883Y-66014443D01*
X201684992Y-66024724D01*
X201643609Y-66028800D01*
X201043391Y-66028800D01*
X201002008Y-66024724D01*
X200968117Y-66014443D01*
X200936889Y-65997752D01*
X200909515Y-65975285D01*
X200887048Y-65947911D01*
X200870357Y-65916683D01*
X200860076Y-65882792D01*
X200856000Y-65841409D01*
X200856000Y-64816191D01*
X200860076Y-64774808D01*
X200870357Y-64740917D01*
X200887048Y-64709689D01*
X200909515Y-64682315D01*
X200936889Y-64659848D01*
X200968117Y-64643157D01*
X201002008Y-64632876D01*
X201043391Y-64628800D01*
X201643609Y-64628800D01*
X201684992Y-64632876D01*
X201684992Y-64632876D01*
G37*
G36*
X199809992Y-64632876D02*
X199843883Y-64643157D01*
X199875111Y-64659848D01*
X199902485Y-64682315D01*
X199924952Y-64709689D01*
X199941643Y-64740917D01*
X199951924Y-64774808D01*
X199956000Y-64816191D01*
X199956000Y-65841409D01*
X199951924Y-65882792D01*
X199941643Y-65916683D01*
X199924952Y-65947911D01*
X199902485Y-65975285D01*
X199875111Y-65997752D01*
X199843883Y-66014443D01*
X199809992Y-66024724D01*
X199768609Y-66028800D01*
X199168391Y-66028800D01*
X199127008Y-66024724D01*
X199093117Y-66014443D01*
X199061889Y-65997752D01*
X199034515Y-65975285D01*
X199012048Y-65947911D01*
X198995357Y-65916683D01*
X198985076Y-65882792D01*
X198981000Y-65841409D01*
X198981000Y-64816191D01*
X198985076Y-64774808D01*
X198995357Y-64740917D01*
X199012048Y-64709689D01*
X199034515Y-64682315D01*
X199061889Y-64659848D01*
X199093117Y-64643157D01*
X199127008Y-64632876D01*
X199168391Y-64628800D01*
X199768609Y-64628800D01*
X199809992Y-64632876D01*
X199809992Y-64632876D01*
G37*
G36*
X154716589Y-64108550D02*
X154750480Y-64118831D01*
X154781708Y-64135522D01*
X154813852Y-64161903D01*
X155238271Y-64586322D01*
X155264652Y-64618466D01*
X155281343Y-64649694D01*
X155291624Y-64683585D01*
X155295095Y-64718827D01*
X155291624Y-64754069D01*
X155281343Y-64787960D01*
X155264652Y-64819188D01*
X155238271Y-64851332D01*
X154513332Y-65576271D01*
X154481188Y-65602652D01*
X154449960Y-65619343D01*
X154416069Y-65629624D01*
X154380827Y-65633095D01*
X154345585Y-65629624D01*
X154311694Y-65619343D01*
X154280466Y-65602652D01*
X154248322Y-65576271D01*
X153823903Y-65151852D01*
X153797522Y-65119708D01*
X153780831Y-65088480D01*
X153770550Y-65054589D01*
X153767079Y-65019347D01*
X153770550Y-64984105D01*
X153780831Y-64950214D01*
X153797522Y-64918986D01*
X153823903Y-64886842D01*
X154548842Y-64161903D01*
X154580986Y-64135522D01*
X154612214Y-64118831D01*
X154646105Y-64108550D01*
X154681347Y-64105079D01*
X154716589Y-64108550D01*
X154716589Y-64108550D01*
G37*
G36*
X191147700Y-65354200D02*
X188988700Y-65354200D01*
X188988700Y-64795400D01*
X191147700Y-64795400D01*
X191147700Y-65354200D01*
X191147700Y-65354200D01*
G37*
G36*
X184391300Y-65354200D02*
X182232300Y-65354200D01*
X182232300Y-64795400D01*
X184391300Y-64795400D01*
X184391300Y-65354200D01*
X184391300Y-65354200D01*
G37*
G36*
X194559192Y-64161876D02*
X194593083Y-64172157D01*
X194624311Y-64188848D01*
X194651685Y-64211315D01*
X194674152Y-64238689D01*
X194690843Y-64269917D01*
X194701124Y-64303808D01*
X194705200Y-64345191D01*
X194705200Y-64945409D01*
X194701124Y-64986792D01*
X194690843Y-65020683D01*
X194674152Y-65051911D01*
X194651685Y-65079285D01*
X194624311Y-65101752D01*
X194593083Y-65118443D01*
X194559192Y-65128724D01*
X194517809Y-65132800D01*
X193492591Y-65132800D01*
X193451208Y-65128724D01*
X193417317Y-65118443D01*
X193386089Y-65101752D01*
X193358715Y-65079285D01*
X193336248Y-65051911D01*
X193319557Y-65020683D01*
X193309276Y-64986792D01*
X193305200Y-64945409D01*
X193305200Y-64345191D01*
X193309276Y-64303808D01*
X193319557Y-64269917D01*
X193336248Y-64238689D01*
X193358715Y-64211315D01*
X193386089Y-64188848D01*
X193417317Y-64172157D01*
X193451208Y-64161876D01*
X193492591Y-64157800D01*
X194517809Y-64157800D01*
X194559192Y-64161876D01*
X194559192Y-64161876D01*
G37*
G36*
X184391300Y-64084200D02*
X182232300Y-64084200D01*
X182232300Y-63525400D01*
X184391300Y-63525400D01*
X184391300Y-64084200D01*
X184391300Y-64084200D01*
G37*
G36*
X191147700Y-64084200D02*
X188988700Y-64084200D01*
X188988700Y-63525400D01*
X191147700Y-63525400D01*
X191147700Y-64084200D01*
X191147700Y-64084200D01*
G37*
G36*
X132043430Y-62255899D02*
X132203655Y-62304503D01*
X132351320Y-62383431D01*
X132480749Y-62489651D01*
X132586969Y-62619080D01*
X132665897Y-62766745D01*
X132714501Y-62926970D01*
X132730912Y-63093600D01*
X132714501Y-63260230D01*
X132665897Y-63420455D01*
X132586969Y-63568120D01*
X132480749Y-63697549D01*
X132351320Y-63803769D01*
X132203655Y-63882697D01*
X132043430Y-63931301D01*
X131918552Y-63943600D01*
X131835048Y-63943600D01*
X131710170Y-63931301D01*
X131549945Y-63882697D01*
X131402280Y-63803769D01*
X131272851Y-63697549D01*
X131166631Y-63568120D01*
X131087703Y-63420455D01*
X131039099Y-63260230D01*
X131022688Y-63093600D01*
X131039099Y-62926970D01*
X131087703Y-62766745D01*
X131166631Y-62619080D01*
X131272851Y-62489651D01*
X131402280Y-62383431D01*
X131549945Y-62304503D01*
X131710170Y-62255899D01*
X131835048Y-62243600D01*
X131918552Y-62243600D01*
X132043430Y-62255899D01*
X132043430Y-62255899D01*
G37*
G36*
X180225700Y-63931800D02*
X179743100Y-63931800D01*
X179743100Y-62763400D01*
X180225700Y-62763400D01*
X180225700Y-63931800D01*
X180225700Y-63931800D01*
G37*
G36*
X199398800Y-63121200D02*
X198598800Y-63121200D01*
X198598800Y-62221200D01*
X199398800Y-62221200D01*
X199398800Y-63121200D01*
X199398800Y-63121200D01*
G37*
G36*
X201298800Y-63121200D02*
X200498800Y-63121200D01*
X200498800Y-62221200D01*
X201298800Y-62221200D01*
X201298800Y-63121200D01*
X201298800Y-63121200D01*
G37*
G36*
X155112068Y-62086753D02*
X155145959Y-62097034D01*
X155177187Y-62113725D01*
X155204561Y-62136192D01*
X155227028Y-62163566D01*
X155243719Y-62194794D01*
X155254000Y-62228685D01*
X155258076Y-62270068D01*
X155258076Y-62870286D01*
X155254000Y-62911669D01*
X155243719Y-62945560D01*
X155227028Y-62976788D01*
X155204561Y-63004162D01*
X155177187Y-63026629D01*
X155145959Y-63043320D01*
X155112068Y-63053601D01*
X155070685Y-63057677D01*
X154045467Y-63057677D01*
X154004084Y-63053601D01*
X153970193Y-63043320D01*
X153938965Y-63026629D01*
X153911591Y-63004162D01*
X153889124Y-62976788D01*
X153872433Y-62945560D01*
X153862152Y-62911669D01*
X153858076Y-62870286D01*
X153858076Y-62270068D01*
X153862152Y-62228685D01*
X153872433Y-62194794D01*
X153889124Y-62163566D01*
X153911591Y-62136192D01*
X153938965Y-62113725D01*
X153970193Y-62097034D01*
X154004084Y-62086753D01*
X154045467Y-62082677D01*
X155070685Y-62082677D01*
X155112068Y-62086753D01*
X155112068Y-62086753D01*
G37*
G36*
X194559192Y-62074476D02*
X194593083Y-62084757D01*
X194624311Y-62101448D01*
X194651685Y-62123915D01*
X194674152Y-62151289D01*
X194690843Y-62182517D01*
X194701124Y-62216408D01*
X194705200Y-62257791D01*
X194705200Y-62858009D01*
X194701124Y-62899392D01*
X194690843Y-62933283D01*
X194674152Y-62964511D01*
X194651685Y-62991885D01*
X194624311Y-63014352D01*
X194593083Y-63031043D01*
X194559192Y-63041324D01*
X194517809Y-63045400D01*
X193492591Y-63045400D01*
X193451208Y-63041324D01*
X193417317Y-63031043D01*
X193386089Y-63014352D01*
X193358715Y-62991885D01*
X193336248Y-62964511D01*
X193319557Y-62933283D01*
X193309276Y-62899392D01*
X193305200Y-62858009D01*
X193305200Y-62257791D01*
X193309276Y-62216408D01*
X193319557Y-62182517D01*
X193336248Y-62151289D01*
X193358715Y-62123915D01*
X193386089Y-62101448D01*
X193417317Y-62084757D01*
X193451208Y-62074476D01*
X193492591Y-62070400D01*
X194517809Y-62070400D01*
X194559192Y-62074476D01*
X194559192Y-62074476D01*
G37*
G36*
X159228048Y-62034497D02*
X159261939Y-62044778D01*
X159293167Y-62061469D01*
X159320541Y-62083936D01*
X159343008Y-62111310D01*
X159359699Y-62142538D01*
X159369980Y-62176429D01*
X159374056Y-62217812D01*
X159374056Y-62818030D01*
X159369980Y-62859413D01*
X159359699Y-62893304D01*
X159343008Y-62924532D01*
X159320541Y-62951906D01*
X159293167Y-62974373D01*
X159261939Y-62991064D01*
X159228048Y-63001345D01*
X159186665Y-63005421D01*
X158161447Y-63005421D01*
X158120064Y-63001345D01*
X158086173Y-62991064D01*
X158054945Y-62974373D01*
X158027571Y-62951906D01*
X158005104Y-62924532D01*
X157988413Y-62893304D01*
X157978132Y-62859413D01*
X157974056Y-62818030D01*
X157974056Y-62217812D01*
X157978132Y-62176429D01*
X157988413Y-62142538D01*
X158005104Y-62111310D01*
X158027571Y-62083936D01*
X158054945Y-62061469D01*
X158086173Y-62044778D01*
X158120064Y-62034497D01*
X158161447Y-62030421D01*
X159186665Y-62030421D01*
X159228048Y-62034497D01*
X159228048Y-62034497D01*
G37*
G36*
X151582392Y-61972876D02*
X151616283Y-61983157D01*
X151647511Y-61999848D01*
X151674885Y-62022315D01*
X151697352Y-62049689D01*
X151714043Y-62080917D01*
X151724324Y-62114808D01*
X151728400Y-62156191D01*
X151728400Y-62756409D01*
X151724324Y-62797792D01*
X151714043Y-62831683D01*
X151697352Y-62862911D01*
X151674885Y-62890285D01*
X151647511Y-62912752D01*
X151616283Y-62929443D01*
X151582392Y-62939724D01*
X151541009Y-62943800D01*
X150515791Y-62943800D01*
X150474408Y-62939724D01*
X150440517Y-62929443D01*
X150409289Y-62912752D01*
X150381915Y-62890285D01*
X150359448Y-62862911D01*
X150342757Y-62831683D01*
X150332476Y-62797792D01*
X150328400Y-62756409D01*
X150328400Y-62156191D01*
X150332476Y-62114808D01*
X150342757Y-62080917D01*
X150359448Y-62049689D01*
X150381915Y-62022315D01*
X150409289Y-61999848D01*
X150440517Y-61983157D01*
X150474408Y-61972876D01*
X150515791Y-61968800D01*
X151541009Y-61968800D01*
X151582392Y-61972876D01*
X151582392Y-61972876D01*
G37*
G36*
X163354617Y-61971252D02*
X163388508Y-61981533D01*
X163419736Y-61998224D01*
X163447110Y-62020691D01*
X163469577Y-62048065D01*
X163486268Y-62079293D01*
X163496549Y-62113184D01*
X163500625Y-62154567D01*
X163500625Y-62754785D01*
X163496549Y-62796168D01*
X163486268Y-62830059D01*
X163469577Y-62861287D01*
X163447110Y-62888661D01*
X163419736Y-62911128D01*
X163388508Y-62927819D01*
X163354617Y-62938100D01*
X163313234Y-62942176D01*
X162288016Y-62942176D01*
X162246633Y-62938100D01*
X162212742Y-62927819D01*
X162181514Y-62911128D01*
X162154140Y-62888661D01*
X162131673Y-62861287D01*
X162114982Y-62830059D01*
X162104701Y-62796168D01*
X162100625Y-62754785D01*
X162100625Y-62154567D01*
X162104701Y-62113184D01*
X162114982Y-62079293D01*
X162131673Y-62048065D01*
X162154140Y-62020691D01*
X162181514Y-61998224D01*
X162212742Y-61981533D01*
X162246633Y-61971252D01*
X162288016Y-61967176D01*
X163313234Y-61967176D01*
X163354617Y-61971252D01*
X163354617Y-61971252D01*
G37*
G36*
X167610048Y-61882097D02*
X167643939Y-61892378D01*
X167675167Y-61909069D01*
X167702541Y-61931536D01*
X167725008Y-61958910D01*
X167741699Y-61990138D01*
X167751980Y-62024029D01*
X167756056Y-62065412D01*
X167756056Y-62665630D01*
X167751980Y-62707013D01*
X167741699Y-62740904D01*
X167725008Y-62772132D01*
X167702541Y-62799506D01*
X167675167Y-62821973D01*
X167643939Y-62838664D01*
X167610048Y-62848945D01*
X167568665Y-62853021D01*
X166543447Y-62853021D01*
X166502064Y-62848945D01*
X166468173Y-62838664D01*
X166436945Y-62821973D01*
X166409571Y-62799506D01*
X166387104Y-62772132D01*
X166370413Y-62740904D01*
X166360132Y-62707013D01*
X166356056Y-62665630D01*
X166356056Y-62065412D01*
X166360132Y-62024029D01*
X166370413Y-61990138D01*
X166387104Y-61958910D01*
X166409571Y-61931536D01*
X166436945Y-61909069D01*
X166468173Y-61892378D01*
X166502064Y-61882097D01*
X166543447Y-61878021D01*
X167568665Y-61878021D01*
X167610048Y-61882097D01*
X167610048Y-61882097D01*
G37*
G36*
X174664800Y-62840000D02*
X173924800Y-62840000D01*
X173924800Y-60440000D01*
X174664800Y-60440000D01*
X174664800Y-62840000D01*
X174664800Y-62840000D01*
G37*
G36*
X172124800Y-62840000D02*
X171384800Y-62840000D01*
X171384800Y-60440000D01*
X172124800Y-60440000D01*
X172124800Y-62840000D01*
X172124800Y-62840000D01*
G37*
G36*
X173394800Y-62840000D02*
X172654800Y-62840000D01*
X172654800Y-60440000D01*
X173394800Y-60440000D01*
X173394800Y-62840000D01*
X173394800Y-62840000D01*
G37*
G36*
X175934800Y-62840000D02*
X175194800Y-62840000D01*
X175194800Y-60440000D01*
X175934800Y-60440000D01*
X175934800Y-62840000D01*
X175934800Y-62840000D01*
G37*
G36*
X170854800Y-62840000D02*
X170114800Y-62840000D01*
X170114800Y-60440000D01*
X170854800Y-60440000D01*
X170854800Y-62840000D01*
X170854800Y-62840000D01*
G37*
G36*
X123191060Y-58893058D02*
X123351221Y-58924916D01*
X123447714Y-58964885D01*
X123652956Y-59049899D01*
X123924516Y-59231350D01*
X124155450Y-59462284D01*
X124336901Y-59733844D01*
X124349600Y-59764503D01*
X124461884Y-60035579D01*
X124475998Y-60106533D01*
X124522997Y-60342812D01*
X124525600Y-60355901D01*
X124525600Y-60682499D01*
X124461884Y-61002821D01*
X124420890Y-61101788D01*
X124336901Y-61304556D01*
X124155450Y-61576116D01*
X123924516Y-61807050D01*
X123652956Y-61988501D01*
X123505235Y-62049689D01*
X123351221Y-62113484D01*
X123237060Y-62136192D01*
X123030900Y-62177200D01*
X122704300Y-62177200D01*
X122498140Y-62136192D01*
X122383979Y-62113484D01*
X122229965Y-62049689D01*
X122082244Y-61988501D01*
X121810684Y-61807050D01*
X121579750Y-61576116D01*
X121398299Y-61304556D01*
X121314310Y-61101788D01*
X121273316Y-61002821D01*
X121209600Y-60682499D01*
X121209600Y-60355901D01*
X121212204Y-60342812D01*
X121259202Y-60106533D01*
X121273316Y-60035579D01*
X121385600Y-59764503D01*
X121398299Y-59733844D01*
X121579750Y-59462284D01*
X121810684Y-59231350D01*
X122082244Y-59049899D01*
X122287486Y-58964885D01*
X122383979Y-58924916D01*
X122544140Y-58893058D01*
X122704300Y-58861200D01*
X123030900Y-58861200D01*
X123191060Y-58893058D01*
X123191060Y-58893058D01*
G37*
G36*
X132043430Y-59715899D02*
X132203655Y-59764503D01*
X132351320Y-59843431D01*
X132480749Y-59949651D01*
X132586969Y-60079080D01*
X132665897Y-60226745D01*
X132714501Y-60386970D01*
X132730912Y-60553600D01*
X132714501Y-60720230D01*
X132665897Y-60880455D01*
X132586969Y-61028120D01*
X132480749Y-61157549D01*
X132351320Y-61263769D01*
X132203655Y-61342697D01*
X132043430Y-61391301D01*
X131918552Y-61403600D01*
X131835048Y-61403600D01*
X131710170Y-61391301D01*
X131549945Y-61342697D01*
X131402280Y-61263769D01*
X131272851Y-61157549D01*
X131166631Y-61028120D01*
X131087703Y-60880455D01*
X131039099Y-60720230D01*
X131022688Y-60553600D01*
X131039099Y-60386970D01*
X131087703Y-60226745D01*
X131166631Y-60079080D01*
X131272851Y-59949651D01*
X131402280Y-59843431D01*
X131549945Y-59764503D01*
X131710170Y-59715899D01*
X131835048Y-59703600D01*
X131918552Y-59703600D01*
X132043430Y-59715899D01*
X132043430Y-59715899D01*
G37*
G36*
X155112068Y-60211753D02*
X155145959Y-60222034D01*
X155177187Y-60238725D01*
X155204561Y-60261192D01*
X155227028Y-60288566D01*
X155243719Y-60319794D01*
X155254000Y-60353685D01*
X155258076Y-60395068D01*
X155258076Y-60995286D01*
X155254000Y-61036669D01*
X155243719Y-61070560D01*
X155227028Y-61101788D01*
X155204561Y-61129162D01*
X155177187Y-61151629D01*
X155145959Y-61168320D01*
X155112068Y-61178601D01*
X155070685Y-61182677D01*
X154045467Y-61182677D01*
X154004084Y-61178601D01*
X153970193Y-61168320D01*
X153938965Y-61151629D01*
X153911591Y-61129162D01*
X153889124Y-61101788D01*
X153872433Y-61070560D01*
X153862152Y-61036669D01*
X153858076Y-60995286D01*
X153858076Y-60395068D01*
X153862152Y-60353685D01*
X153872433Y-60319794D01*
X153889124Y-60288566D01*
X153911591Y-60261192D01*
X153938965Y-60238725D01*
X153970193Y-60222034D01*
X154004084Y-60211753D01*
X154045467Y-60207677D01*
X155070685Y-60207677D01*
X155112068Y-60211753D01*
X155112068Y-60211753D01*
G37*
G36*
X194559192Y-60199476D02*
X194593083Y-60209757D01*
X194624311Y-60226448D01*
X194651685Y-60248915D01*
X194674152Y-60276289D01*
X194690843Y-60307517D01*
X194701124Y-60341408D01*
X194705200Y-60382791D01*
X194705200Y-60983009D01*
X194701124Y-61024392D01*
X194690843Y-61058283D01*
X194674152Y-61089511D01*
X194651685Y-61116885D01*
X194624311Y-61139352D01*
X194593083Y-61156043D01*
X194559192Y-61166324D01*
X194517809Y-61170400D01*
X193492591Y-61170400D01*
X193451208Y-61166324D01*
X193417317Y-61156043D01*
X193386089Y-61139352D01*
X193358715Y-61116885D01*
X193336248Y-61089511D01*
X193319557Y-61058283D01*
X193309276Y-61024392D01*
X193305200Y-60983009D01*
X193305200Y-60382791D01*
X193309276Y-60341408D01*
X193319557Y-60307517D01*
X193336248Y-60276289D01*
X193358715Y-60248915D01*
X193386089Y-60226448D01*
X193417317Y-60209757D01*
X193451208Y-60199476D01*
X193492591Y-60195400D01*
X194517809Y-60195400D01*
X194559192Y-60199476D01*
X194559192Y-60199476D01*
G37*
G36*
X159228048Y-60159497D02*
X159261939Y-60169778D01*
X159293167Y-60186469D01*
X159320541Y-60208936D01*
X159343008Y-60236310D01*
X159359699Y-60267538D01*
X159369980Y-60301429D01*
X159374056Y-60342812D01*
X159374056Y-60943030D01*
X159369980Y-60984413D01*
X159359699Y-61018304D01*
X159343008Y-61049532D01*
X159320541Y-61076906D01*
X159293167Y-61099373D01*
X159261939Y-61116064D01*
X159228048Y-61126345D01*
X159186665Y-61130421D01*
X158161447Y-61130421D01*
X158120064Y-61126345D01*
X158086173Y-61116064D01*
X158054945Y-61099373D01*
X158027571Y-61076906D01*
X158005104Y-61049532D01*
X157988413Y-61018304D01*
X157978132Y-60984413D01*
X157974056Y-60943030D01*
X157974056Y-60342812D01*
X157978132Y-60301429D01*
X157988413Y-60267538D01*
X158005104Y-60236310D01*
X158027571Y-60208936D01*
X158054945Y-60186469D01*
X158086173Y-60169778D01*
X158120064Y-60159497D01*
X158161447Y-60155421D01*
X159186665Y-60155421D01*
X159228048Y-60159497D01*
X159228048Y-60159497D01*
G37*
G36*
X200348800Y-61121200D02*
X199548800Y-61121200D01*
X199548800Y-60221200D01*
X200348800Y-60221200D01*
X200348800Y-61121200D01*
X200348800Y-61121200D01*
G37*
G36*
X151582392Y-60097876D02*
X151616283Y-60108157D01*
X151647511Y-60124848D01*
X151674885Y-60147315D01*
X151697352Y-60174689D01*
X151714043Y-60205917D01*
X151724324Y-60239808D01*
X151728400Y-60281191D01*
X151728400Y-60881409D01*
X151724324Y-60922792D01*
X151714043Y-60956683D01*
X151697352Y-60987911D01*
X151674885Y-61015285D01*
X151647511Y-61037752D01*
X151616283Y-61054443D01*
X151582392Y-61064724D01*
X151541009Y-61068800D01*
X150515791Y-61068800D01*
X150474408Y-61064724D01*
X150440517Y-61054443D01*
X150409289Y-61037752D01*
X150381915Y-61015285D01*
X150359448Y-60987911D01*
X150342757Y-60956683D01*
X150332476Y-60922792D01*
X150328400Y-60881409D01*
X150328400Y-60281191D01*
X150332476Y-60239808D01*
X150342757Y-60205917D01*
X150359448Y-60174689D01*
X150381915Y-60147315D01*
X150409289Y-60124848D01*
X150440517Y-60108157D01*
X150474408Y-60097876D01*
X150515791Y-60093800D01*
X151541009Y-60093800D01*
X151582392Y-60097876D01*
X151582392Y-60097876D01*
G37*
G36*
X163354617Y-60096252D02*
X163388508Y-60106533D01*
X163419736Y-60123224D01*
X163447110Y-60145691D01*
X163469577Y-60173065D01*
X163486268Y-60204293D01*
X163496549Y-60238184D01*
X163500625Y-60279567D01*
X163500625Y-60879785D01*
X163496549Y-60921168D01*
X163486268Y-60955059D01*
X163469577Y-60986287D01*
X163447110Y-61013661D01*
X163419736Y-61036128D01*
X163388508Y-61052819D01*
X163354617Y-61063100D01*
X163313234Y-61067176D01*
X162288016Y-61067176D01*
X162246633Y-61063100D01*
X162212742Y-61052819D01*
X162181514Y-61036128D01*
X162154140Y-61013661D01*
X162131673Y-60986287D01*
X162114982Y-60955059D01*
X162104701Y-60921168D01*
X162100625Y-60879785D01*
X162100625Y-60279567D01*
X162104701Y-60238184D01*
X162114982Y-60204293D01*
X162131673Y-60173065D01*
X162154140Y-60145691D01*
X162181514Y-60123224D01*
X162212742Y-60106533D01*
X162246633Y-60096252D01*
X162288016Y-60092176D01*
X163313234Y-60092176D01*
X163354617Y-60096252D01*
X163354617Y-60096252D01*
G37*
G36*
X167610048Y-60007097D02*
X167643939Y-60017378D01*
X167675167Y-60034069D01*
X167702541Y-60056536D01*
X167725008Y-60083910D01*
X167741699Y-60115138D01*
X167751980Y-60149029D01*
X167756056Y-60190412D01*
X167756056Y-60790630D01*
X167751980Y-60832013D01*
X167741699Y-60865904D01*
X167725008Y-60897132D01*
X167702541Y-60924506D01*
X167675167Y-60946973D01*
X167643939Y-60963664D01*
X167610048Y-60973945D01*
X167568665Y-60978021D01*
X166543447Y-60978021D01*
X166502064Y-60973945D01*
X166468173Y-60963664D01*
X166436945Y-60946973D01*
X166409571Y-60924506D01*
X166387104Y-60897132D01*
X166370413Y-60865904D01*
X166360132Y-60832013D01*
X166356056Y-60790630D01*
X166356056Y-60190412D01*
X166360132Y-60149029D01*
X166370413Y-60115138D01*
X166387104Y-60083910D01*
X166409571Y-60056536D01*
X166436945Y-60034069D01*
X166468173Y-60017378D01*
X166502064Y-60007097D01*
X166543447Y-60003021D01*
X167568665Y-60003021D01*
X167610048Y-60007097D01*
X167610048Y-60007097D01*
G37*
G36*
X187140800Y-60530400D02*
X186340800Y-60530400D01*
X186340800Y-59630400D01*
X187140800Y-59630400D01*
X187140800Y-60530400D01*
X187140800Y-60530400D01*
G37*
G36*
X151582392Y-58416876D02*
X151616283Y-58427157D01*
X151647511Y-58443848D01*
X151674885Y-58466315D01*
X151697352Y-58493689D01*
X151714043Y-58524917D01*
X151724324Y-58558808D01*
X151728400Y-58600191D01*
X151728400Y-59200409D01*
X151724324Y-59241792D01*
X151714043Y-59275683D01*
X151697352Y-59306911D01*
X151674885Y-59334285D01*
X151647511Y-59356752D01*
X151616283Y-59373443D01*
X151582392Y-59383724D01*
X151541009Y-59387800D01*
X150515791Y-59387800D01*
X150474408Y-59383724D01*
X150440517Y-59373443D01*
X150409289Y-59356752D01*
X150381915Y-59334285D01*
X150359448Y-59306911D01*
X150342757Y-59275683D01*
X150332476Y-59241792D01*
X150328400Y-59200409D01*
X150328400Y-58600191D01*
X150332476Y-58558808D01*
X150342757Y-58524917D01*
X150359448Y-58493689D01*
X150381915Y-58466315D01*
X150409289Y-58443848D01*
X150440517Y-58427157D01*
X150474408Y-58416876D01*
X150515791Y-58412800D01*
X151541009Y-58412800D01*
X151582392Y-58416876D01*
X151582392Y-58416876D01*
G37*
G36*
X155113248Y-58326097D02*
X155147139Y-58336378D01*
X155178367Y-58353069D01*
X155205741Y-58375536D01*
X155228208Y-58402910D01*
X155244899Y-58434138D01*
X155255180Y-58468029D01*
X155259256Y-58509412D01*
X155259256Y-59109630D01*
X155255180Y-59151013D01*
X155244899Y-59184904D01*
X155228208Y-59216132D01*
X155205741Y-59243506D01*
X155178367Y-59265973D01*
X155147139Y-59282664D01*
X155113248Y-59292945D01*
X155071865Y-59297021D01*
X154046647Y-59297021D01*
X154005264Y-59292945D01*
X153971373Y-59282664D01*
X153940145Y-59265973D01*
X153912771Y-59243506D01*
X153890304Y-59216132D01*
X153873613Y-59184904D01*
X153863332Y-59151013D01*
X153859256Y-59109630D01*
X153859256Y-58509412D01*
X153863332Y-58468029D01*
X153873613Y-58434138D01*
X153890304Y-58402910D01*
X153912771Y-58375536D01*
X153940145Y-58353069D01*
X153971373Y-58336378D01*
X154005264Y-58326097D01*
X154046647Y-58322021D01*
X155071865Y-58322021D01*
X155113248Y-58326097D01*
X155113248Y-58326097D01*
G37*
G36*
X159228048Y-58326097D02*
X159261939Y-58336378D01*
X159293167Y-58353069D01*
X159320541Y-58375536D01*
X159343008Y-58402910D01*
X159359699Y-58434138D01*
X159369980Y-58468029D01*
X159374056Y-58509412D01*
X159374056Y-59109630D01*
X159369980Y-59151013D01*
X159359699Y-59184904D01*
X159343008Y-59216132D01*
X159320541Y-59243506D01*
X159293167Y-59265973D01*
X159261939Y-59282664D01*
X159228048Y-59292945D01*
X159186665Y-59297021D01*
X158161447Y-59297021D01*
X158120064Y-59292945D01*
X158086173Y-59282664D01*
X158054945Y-59265973D01*
X158027571Y-59243506D01*
X158005104Y-59216132D01*
X157988413Y-59184904D01*
X157978132Y-59151013D01*
X157974056Y-59109630D01*
X157974056Y-58509412D01*
X157978132Y-58468029D01*
X157988413Y-58434138D01*
X158005104Y-58402910D01*
X158027571Y-58375536D01*
X158054945Y-58353069D01*
X158086173Y-58336378D01*
X158120064Y-58326097D01*
X158161447Y-58322021D01*
X159186665Y-58322021D01*
X159228048Y-58326097D01*
X159228048Y-58326097D01*
G37*
G36*
X167610048Y-58326097D02*
X167643939Y-58336378D01*
X167675167Y-58353069D01*
X167702541Y-58375536D01*
X167725008Y-58402910D01*
X167741699Y-58434138D01*
X167751980Y-58468029D01*
X167756056Y-58509412D01*
X167756056Y-59109630D01*
X167751980Y-59151013D01*
X167741699Y-59184904D01*
X167725008Y-59216132D01*
X167702541Y-59243506D01*
X167675167Y-59265973D01*
X167643939Y-59282664D01*
X167610048Y-59292945D01*
X167568665Y-59297021D01*
X166543447Y-59297021D01*
X166502064Y-59292945D01*
X166468173Y-59282664D01*
X166436945Y-59265973D01*
X166409571Y-59243506D01*
X166387104Y-59216132D01*
X166370413Y-59184904D01*
X166360132Y-59151013D01*
X166356056Y-59109630D01*
X166356056Y-58509412D01*
X166360132Y-58468029D01*
X166370413Y-58434138D01*
X166387104Y-58402910D01*
X166409571Y-58375536D01*
X166436945Y-58353069D01*
X166468173Y-58336378D01*
X166502064Y-58326097D01*
X166543447Y-58322021D01*
X167568665Y-58322021D01*
X167610048Y-58326097D01*
X167610048Y-58326097D01*
G37*
G36*
X163354617Y-58313652D02*
X163388508Y-58323933D01*
X163419736Y-58340624D01*
X163447110Y-58363091D01*
X163469577Y-58390465D01*
X163486268Y-58421693D01*
X163496549Y-58455584D01*
X163500625Y-58496967D01*
X163500625Y-59097185D01*
X163496549Y-59138568D01*
X163486268Y-59172459D01*
X163469577Y-59203687D01*
X163447110Y-59231061D01*
X163419736Y-59253528D01*
X163388508Y-59270219D01*
X163354617Y-59280500D01*
X163313234Y-59284576D01*
X162288016Y-59284576D01*
X162246633Y-59280500D01*
X162212742Y-59270219D01*
X162181514Y-59253528D01*
X162154140Y-59231061D01*
X162131673Y-59203687D01*
X162114982Y-59172459D01*
X162104701Y-59138568D01*
X162100625Y-59097185D01*
X162100625Y-58496967D01*
X162104701Y-58455584D01*
X162114982Y-58421693D01*
X162131673Y-58390465D01*
X162154140Y-58363091D01*
X162181514Y-58340624D01*
X162212742Y-58323933D01*
X162246633Y-58313652D01*
X162288016Y-58309576D01*
X163313234Y-58309576D01*
X163354617Y-58313652D01*
X163354617Y-58313652D01*
G37*
G36*
X140069192Y-57622476D02*
X140103083Y-57632757D01*
X140134311Y-57649448D01*
X140161685Y-57671915D01*
X140184152Y-57699289D01*
X140200843Y-57730517D01*
X140211124Y-57764408D01*
X140215200Y-57805791D01*
X140215200Y-58831009D01*
X140211124Y-58872392D01*
X140200843Y-58906283D01*
X140184152Y-58937511D01*
X140161685Y-58964885D01*
X140134311Y-58987352D01*
X140103083Y-59004043D01*
X140069192Y-59014324D01*
X140027809Y-59018400D01*
X139427591Y-59018400D01*
X139386208Y-59014324D01*
X139352317Y-59004043D01*
X139321089Y-58987352D01*
X139293715Y-58964885D01*
X139271248Y-58937511D01*
X139254557Y-58906283D01*
X139244276Y-58872392D01*
X139240200Y-58831009D01*
X139240200Y-57805791D01*
X139244276Y-57764408D01*
X139254557Y-57730517D01*
X139271248Y-57699289D01*
X139293715Y-57671915D01*
X139321089Y-57649448D01*
X139352317Y-57632757D01*
X139386208Y-57622476D01*
X139427591Y-57618400D01*
X140027809Y-57618400D01*
X140069192Y-57622476D01*
X140069192Y-57622476D01*
G37*
G36*
X141944192Y-57622476D02*
X141978083Y-57632757D01*
X142009311Y-57649448D01*
X142036685Y-57671915D01*
X142059152Y-57699289D01*
X142075843Y-57730517D01*
X142086124Y-57764408D01*
X142090200Y-57805791D01*
X142090200Y-58831009D01*
X142086124Y-58872392D01*
X142075843Y-58906283D01*
X142059152Y-58937511D01*
X142036685Y-58964885D01*
X142009311Y-58987352D01*
X141978083Y-59004043D01*
X141944192Y-59014324D01*
X141902809Y-59018400D01*
X141302591Y-59018400D01*
X141261208Y-59014324D01*
X141227317Y-59004043D01*
X141196089Y-58987352D01*
X141168715Y-58964885D01*
X141146248Y-58937511D01*
X141129557Y-58906283D01*
X141119276Y-58872392D01*
X141115200Y-58831009D01*
X141115200Y-57805791D01*
X141119276Y-57764408D01*
X141129557Y-57730517D01*
X141146248Y-57699289D01*
X141168715Y-57671915D01*
X141196089Y-57649448D01*
X141227317Y-57632757D01*
X141261208Y-57622476D01*
X141302591Y-57618400D01*
X141902809Y-57618400D01*
X141944192Y-57622476D01*
X141944192Y-57622476D01*
G37*
G36*
X145652592Y-57622476D02*
X145686483Y-57632757D01*
X145717711Y-57649448D01*
X145745085Y-57671915D01*
X145767552Y-57699289D01*
X145784243Y-57730517D01*
X145794524Y-57764408D01*
X145798600Y-57805791D01*
X145798600Y-58831009D01*
X145794524Y-58872392D01*
X145784243Y-58906283D01*
X145767552Y-58937511D01*
X145745085Y-58964885D01*
X145717711Y-58987352D01*
X145686483Y-59004043D01*
X145652592Y-59014324D01*
X145611209Y-59018400D01*
X145010991Y-59018400D01*
X144969608Y-59014324D01*
X144935717Y-59004043D01*
X144904489Y-58987352D01*
X144877115Y-58964885D01*
X144854648Y-58937511D01*
X144837957Y-58906283D01*
X144827676Y-58872392D01*
X144823600Y-58831009D01*
X144823600Y-57805791D01*
X144827676Y-57764408D01*
X144837957Y-57730517D01*
X144854648Y-57699289D01*
X144877115Y-57671915D01*
X144904489Y-57649448D01*
X144935717Y-57632757D01*
X144969608Y-57622476D01*
X145010991Y-57618400D01*
X145611209Y-57618400D01*
X145652592Y-57622476D01*
X145652592Y-57622476D01*
G37*
G36*
X143777592Y-57622476D02*
X143811483Y-57632757D01*
X143842711Y-57649448D01*
X143870085Y-57671915D01*
X143892552Y-57699289D01*
X143909243Y-57730517D01*
X143919524Y-57764408D01*
X143923600Y-57805791D01*
X143923600Y-58831009D01*
X143919524Y-58872392D01*
X143909243Y-58906283D01*
X143892552Y-58937511D01*
X143870085Y-58964885D01*
X143842711Y-58987352D01*
X143811483Y-59004043D01*
X143777592Y-59014324D01*
X143736209Y-59018400D01*
X143135991Y-59018400D01*
X143094608Y-59014324D01*
X143060717Y-59004043D01*
X143029489Y-58987352D01*
X143002115Y-58964885D01*
X142979648Y-58937511D01*
X142962957Y-58906283D01*
X142952676Y-58872392D01*
X142948600Y-58831009D01*
X142948600Y-57805791D01*
X142952676Y-57764408D01*
X142962957Y-57730517D01*
X142979648Y-57699289D01*
X143002115Y-57671915D01*
X143029489Y-57649448D01*
X143060717Y-57632757D01*
X143094608Y-57622476D01*
X143135991Y-57618400D01*
X143736209Y-57618400D01*
X143777592Y-57622476D01*
X143777592Y-57622476D01*
G37*
G36*
X172124800Y-58940000D02*
X171384800Y-58940000D01*
X171384800Y-56540000D01*
X172124800Y-56540000D01*
X172124800Y-58940000D01*
X172124800Y-58940000D01*
G37*
G36*
X175934800Y-58940000D02*
X175194800Y-58940000D01*
X175194800Y-56540000D01*
X175934800Y-56540000D01*
X175934800Y-58940000D01*
X175934800Y-58940000D01*
G37*
G36*
X174664800Y-58940000D02*
X173924800Y-58940000D01*
X173924800Y-56540000D01*
X174664800Y-56540000D01*
X174664800Y-58940000D01*
X174664800Y-58940000D01*
G37*
G36*
X173394800Y-58940000D02*
X172654800Y-58940000D01*
X172654800Y-56540000D01*
X173394800Y-56540000D01*
X173394800Y-58940000D01*
X173394800Y-58940000D01*
G37*
G36*
X170854800Y-58940000D02*
X170114800Y-58940000D01*
X170114800Y-56540000D01*
X170854800Y-56540000D01*
X170854800Y-58940000D01*
X170854800Y-58940000D01*
G37*
G36*
X191829792Y-57165276D02*
X191863683Y-57175557D01*
X191894911Y-57192248D01*
X191922285Y-57214715D01*
X191944752Y-57242089D01*
X191961443Y-57273317D01*
X191971724Y-57307208D01*
X191975800Y-57348591D01*
X191975800Y-58373809D01*
X191971724Y-58415192D01*
X191961443Y-58449083D01*
X191944752Y-58480311D01*
X191922285Y-58507685D01*
X191894911Y-58530152D01*
X191863683Y-58546843D01*
X191829792Y-58557124D01*
X191788409Y-58561200D01*
X191188191Y-58561200D01*
X191146808Y-58557124D01*
X191112917Y-58546843D01*
X191081689Y-58530152D01*
X191054315Y-58507685D01*
X191031848Y-58480311D01*
X191015157Y-58449083D01*
X191004876Y-58415192D01*
X191000800Y-58373809D01*
X191000800Y-57348591D01*
X191004876Y-57307208D01*
X191015157Y-57273317D01*
X191031848Y-57242089D01*
X191054315Y-57214715D01*
X191081689Y-57192248D01*
X191112917Y-57175557D01*
X191146808Y-57165276D01*
X191188191Y-57161200D01*
X191788409Y-57161200D01*
X191829792Y-57165276D01*
X191829792Y-57165276D01*
G37*
G36*
X189954792Y-57165276D02*
X189988683Y-57175557D01*
X190019911Y-57192248D01*
X190047285Y-57214715D01*
X190069752Y-57242089D01*
X190086443Y-57273317D01*
X190096724Y-57307208D01*
X190100800Y-57348591D01*
X190100800Y-58373809D01*
X190096724Y-58415192D01*
X190086443Y-58449083D01*
X190069752Y-58480311D01*
X190047285Y-58507685D01*
X190019911Y-58530152D01*
X189988683Y-58546843D01*
X189954792Y-58557124D01*
X189913409Y-58561200D01*
X189313191Y-58561200D01*
X189271808Y-58557124D01*
X189237917Y-58546843D01*
X189206689Y-58530152D01*
X189179315Y-58507685D01*
X189156848Y-58480311D01*
X189140157Y-58449083D01*
X189129876Y-58415192D01*
X189125800Y-58373809D01*
X189125800Y-57348591D01*
X189129876Y-57307208D01*
X189140157Y-57273317D01*
X189156848Y-57242089D01*
X189179315Y-57214715D01*
X189206689Y-57192248D01*
X189237917Y-57175557D01*
X189271808Y-57165276D01*
X189313191Y-57161200D01*
X189913409Y-57161200D01*
X189954792Y-57165276D01*
X189954792Y-57165276D01*
G37*
G36*
X186190800Y-58530400D02*
X185390800Y-58530400D01*
X185390800Y-57630400D01*
X186190800Y-57630400D01*
X186190800Y-58530400D01*
X186190800Y-58530400D01*
G37*
G36*
X188090800Y-58530400D02*
X187290800Y-58530400D01*
X187290800Y-57630400D01*
X188090800Y-57630400D01*
X188090800Y-58530400D01*
X188090800Y-58530400D01*
G37*
G36*
X151582392Y-56541876D02*
X151616283Y-56552157D01*
X151647511Y-56568848D01*
X151674885Y-56591315D01*
X151697352Y-56618689D01*
X151714043Y-56649917D01*
X151724324Y-56683808D01*
X151728400Y-56725191D01*
X151728400Y-57325409D01*
X151724324Y-57366792D01*
X151714043Y-57400683D01*
X151697352Y-57431911D01*
X151674885Y-57459285D01*
X151647511Y-57481752D01*
X151616283Y-57498443D01*
X151582392Y-57508724D01*
X151541009Y-57512800D01*
X150515791Y-57512800D01*
X150474408Y-57508724D01*
X150440517Y-57498443D01*
X150409289Y-57481752D01*
X150381915Y-57459285D01*
X150359448Y-57431911D01*
X150342757Y-57400683D01*
X150332476Y-57366792D01*
X150328400Y-57325409D01*
X150328400Y-56725191D01*
X150332476Y-56683808D01*
X150342757Y-56649917D01*
X150359448Y-56618689D01*
X150381915Y-56591315D01*
X150409289Y-56568848D01*
X150440517Y-56552157D01*
X150474408Y-56541876D01*
X150515791Y-56537800D01*
X151541009Y-56537800D01*
X151582392Y-56541876D01*
X151582392Y-56541876D01*
G37*
G36*
X155113248Y-56451097D02*
X155147139Y-56461378D01*
X155178367Y-56478069D01*
X155205741Y-56500536D01*
X155228208Y-56527910D01*
X155244899Y-56559138D01*
X155255180Y-56593029D01*
X155259256Y-56634412D01*
X155259256Y-57234630D01*
X155255180Y-57276013D01*
X155244899Y-57309904D01*
X155228208Y-57341132D01*
X155205741Y-57368506D01*
X155178367Y-57390973D01*
X155147139Y-57407664D01*
X155113248Y-57417945D01*
X155071865Y-57422021D01*
X154046647Y-57422021D01*
X154005264Y-57417945D01*
X153971373Y-57407664D01*
X153940145Y-57390973D01*
X153912771Y-57368506D01*
X153890304Y-57341132D01*
X153873613Y-57309904D01*
X153863332Y-57276013D01*
X153859256Y-57234630D01*
X153859256Y-56634412D01*
X153863332Y-56593029D01*
X153873613Y-56559138D01*
X153890304Y-56527910D01*
X153912771Y-56500536D01*
X153940145Y-56478069D01*
X153971373Y-56461378D01*
X154005264Y-56451097D01*
X154046647Y-56447021D01*
X155071865Y-56447021D01*
X155113248Y-56451097D01*
X155113248Y-56451097D01*
G37*
G36*
X167610048Y-56451097D02*
X167643939Y-56461378D01*
X167675167Y-56478069D01*
X167702541Y-56500536D01*
X167725008Y-56527910D01*
X167741699Y-56559138D01*
X167751980Y-56593029D01*
X167756056Y-56634412D01*
X167756056Y-57234630D01*
X167751980Y-57276013D01*
X167741699Y-57309904D01*
X167725008Y-57341132D01*
X167702541Y-57368506D01*
X167675167Y-57390973D01*
X167643939Y-57407664D01*
X167610048Y-57417945D01*
X167568665Y-57422021D01*
X166543447Y-57422021D01*
X166502064Y-57417945D01*
X166468173Y-57407664D01*
X166436945Y-57390973D01*
X166409571Y-57368506D01*
X166387104Y-57341132D01*
X166370413Y-57309904D01*
X166360132Y-57276013D01*
X166356056Y-57234630D01*
X166356056Y-56634412D01*
X166360132Y-56593029D01*
X166370413Y-56559138D01*
X166387104Y-56527910D01*
X166409571Y-56500536D01*
X166436945Y-56478069D01*
X166468173Y-56461378D01*
X166502064Y-56451097D01*
X166543447Y-56447021D01*
X167568665Y-56447021D01*
X167610048Y-56451097D01*
X167610048Y-56451097D01*
G37*
G36*
X159228048Y-56451097D02*
X159261939Y-56461378D01*
X159293167Y-56478069D01*
X159320541Y-56500536D01*
X159343008Y-56527910D01*
X159359699Y-56559138D01*
X159369980Y-56593029D01*
X159374056Y-56634412D01*
X159374056Y-57234630D01*
X159369980Y-57276013D01*
X159359699Y-57309904D01*
X159343008Y-57341132D01*
X159320541Y-57368506D01*
X159293167Y-57390973D01*
X159261939Y-57407664D01*
X159228048Y-57417945D01*
X159186665Y-57422021D01*
X158161447Y-57422021D01*
X158120064Y-57417945D01*
X158086173Y-57407664D01*
X158054945Y-57390973D01*
X158027571Y-57368506D01*
X158005104Y-57341132D01*
X157988413Y-57309904D01*
X157978132Y-57276013D01*
X157974056Y-57234630D01*
X157974056Y-56634412D01*
X157978132Y-56593029D01*
X157988413Y-56559138D01*
X158005104Y-56527910D01*
X158027571Y-56500536D01*
X158054945Y-56478069D01*
X158086173Y-56461378D01*
X158120064Y-56451097D01*
X158161447Y-56447021D01*
X159186665Y-56447021D01*
X159228048Y-56451097D01*
X159228048Y-56451097D01*
G37*
G36*
X163354617Y-56438652D02*
X163388508Y-56448933D01*
X163419736Y-56465624D01*
X163447110Y-56488091D01*
X163469577Y-56515465D01*
X163486268Y-56546693D01*
X163496549Y-56580584D01*
X163500625Y-56621967D01*
X163500625Y-57222185D01*
X163496549Y-57263568D01*
X163486268Y-57297459D01*
X163469577Y-57328687D01*
X163447110Y-57356061D01*
X163419736Y-57378528D01*
X163388508Y-57395219D01*
X163354617Y-57405500D01*
X163313234Y-57409576D01*
X162288016Y-57409576D01*
X162246633Y-57405500D01*
X162212742Y-57395219D01*
X162181514Y-57378528D01*
X162154140Y-57356061D01*
X162131673Y-57328687D01*
X162114982Y-57297459D01*
X162104701Y-57263568D01*
X162100625Y-57222185D01*
X162100625Y-56621967D01*
X162104701Y-56580584D01*
X162114982Y-56546693D01*
X162131673Y-56515465D01*
X162154140Y-56488091D01*
X162181514Y-56465624D01*
X162212742Y-56448933D01*
X162246633Y-56438652D01*
X162288016Y-56434576D01*
X163313234Y-56434576D01*
X163354617Y-56438652D01*
X163354617Y-56438652D01*
G37*
G36*
X125785866Y-55102638D02*
X125915803Y-55156459D01*
X126032753Y-55234603D01*
X126132197Y-55334047D01*
X126210341Y-55450997D01*
X126264162Y-55580934D01*
X126291600Y-55718876D01*
X126291600Y-55859524D01*
X126264162Y-55997466D01*
X126210341Y-56127403D01*
X126132197Y-56244353D01*
X126032753Y-56343797D01*
X125915803Y-56421941D01*
X125785866Y-56475762D01*
X125647924Y-56503200D01*
X125507276Y-56503200D01*
X125369334Y-56475762D01*
X125239397Y-56421941D01*
X125122447Y-56343797D01*
X125023003Y-56244353D01*
X124944859Y-56127403D01*
X124891038Y-55997466D01*
X124863600Y-55859524D01*
X124863600Y-55718876D01*
X124891038Y-55580934D01*
X124944859Y-55450997D01*
X125023003Y-55334047D01*
X125122447Y-55234603D01*
X125239397Y-55156459D01*
X125369334Y-55102638D01*
X125507276Y-55075200D01*
X125647924Y-55075200D01*
X125785866Y-55102638D01*
X125785866Y-55102638D01*
G37*
G36*
X128291600Y-56503200D02*
X126863600Y-56503200D01*
X126863600Y-55075200D01*
X128291600Y-55075200D01*
X128291600Y-56503200D01*
X128291600Y-56503200D01*
G37*
G36*
X147332700Y-55511700D02*
X140398500Y-55511700D01*
X140398500Y-48729900D01*
X147332700Y-48729900D01*
X147332700Y-55511700D01*
X147332700Y-55511700D01*
G37*
G36*
X138696700Y-54880701D02*
X136207500Y-54880701D01*
X136207500Y-53940901D01*
X138696700Y-53940901D01*
X138696700Y-54880701D01*
X138696700Y-54880701D01*
G37*
G36*
X125785866Y-52602638D02*
X125915803Y-52656459D01*
X125915806Y-52656461D01*
X125971733Y-52693830D01*
X126032753Y-52734603D01*
X126132197Y-52834047D01*
X126210341Y-52950997D01*
X126264162Y-53080934D01*
X126291600Y-53218876D01*
X126291600Y-53359524D01*
X126264162Y-53497466D01*
X126210341Y-53627403D01*
X126132197Y-53744353D01*
X126032753Y-53843797D01*
X125915803Y-53921941D01*
X125785866Y-53975762D01*
X125647924Y-54003200D01*
X125507276Y-54003200D01*
X125369334Y-53975762D01*
X125239397Y-53921941D01*
X125122447Y-53843797D01*
X125023003Y-53744353D01*
X124944859Y-53627403D01*
X124891038Y-53497466D01*
X124863600Y-53359524D01*
X124863600Y-53218876D01*
X124891038Y-53080934D01*
X124944859Y-52950997D01*
X125023003Y-52834047D01*
X125122447Y-52734603D01*
X125183468Y-52693830D01*
X125239394Y-52656461D01*
X125239397Y-52656459D01*
X125369334Y-52602638D01*
X125507276Y-52575200D01*
X125647924Y-52575200D01*
X125785866Y-52602638D01*
X125785866Y-52602638D01*
G37*
G36*
X127785866Y-52602638D02*
X127915803Y-52656459D01*
X127915806Y-52656461D01*
X127971733Y-52693830D01*
X128032753Y-52734603D01*
X128132197Y-52834047D01*
X128210341Y-52950997D01*
X128264162Y-53080934D01*
X128291600Y-53218876D01*
X128291600Y-53359524D01*
X128264162Y-53497466D01*
X128210341Y-53627403D01*
X128132197Y-53744353D01*
X128032753Y-53843797D01*
X127915803Y-53921941D01*
X127785866Y-53975762D01*
X127647924Y-54003200D01*
X127507276Y-54003200D01*
X127369334Y-53975762D01*
X127239397Y-53921941D01*
X127122447Y-53843797D01*
X127023003Y-53744353D01*
X126944859Y-53627403D01*
X126891038Y-53497466D01*
X126863600Y-53359524D01*
X126863600Y-53218876D01*
X126891038Y-53080934D01*
X126944859Y-52950997D01*
X127023003Y-52834047D01*
X127122447Y-52734603D01*
X127183468Y-52693830D01*
X127239394Y-52656461D01*
X127239397Y-52656459D01*
X127369334Y-52602638D01*
X127507276Y-52575200D01*
X127647924Y-52575200D01*
X127785866Y-52602638D01*
X127785866Y-52602638D01*
G37*
G36*
X166993830Y-51689499D02*
X167154055Y-51738103D01*
X167301720Y-51817031D01*
X167431149Y-51923251D01*
X167537369Y-52052680D01*
X167616297Y-52200345D01*
X167664901Y-52360570D01*
X167681312Y-52527200D01*
X167664901Y-52693830D01*
X167616297Y-52854055D01*
X167537369Y-53001720D01*
X167431149Y-53131149D01*
X167301720Y-53237369D01*
X167154055Y-53316297D01*
X166993830Y-53364901D01*
X166868952Y-53377200D01*
X166785448Y-53377200D01*
X166660570Y-53364901D01*
X166500345Y-53316297D01*
X166352680Y-53237369D01*
X166223251Y-53131149D01*
X166117031Y-53001720D01*
X166038103Y-52854055D01*
X165989499Y-52693830D01*
X165973088Y-52527200D01*
X165989499Y-52360570D01*
X166038103Y-52200345D01*
X166117031Y-52052680D01*
X166223251Y-51923251D01*
X166352680Y-51817031D01*
X166500345Y-51738103D01*
X166660570Y-51689499D01*
X166785448Y-51677200D01*
X166868952Y-51677200D01*
X166993830Y-51689499D01*
X166993830Y-51689499D01*
G37*
G36*
X169533830Y-51689499D02*
X169694055Y-51738103D01*
X169841720Y-51817031D01*
X169971149Y-51923251D01*
X170077369Y-52052680D01*
X170156297Y-52200345D01*
X170204901Y-52360570D01*
X170221312Y-52527200D01*
X170204901Y-52693830D01*
X170156297Y-52854055D01*
X170077369Y-53001720D01*
X169971149Y-53131149D01*
X169841720Y-53237369D01*
X169694055Y-53316297D01*
X169533830Y-53364901D01*
X169408952Y-53377200D01*
X169325448Y-53377200D01*
X169200570Y-53364901D01*
X169040345Y-53316297D01*
X168892680Y-53237369D01*
X168763251Y-53131149D01*
X168657031Y-53001720D01*
X168578103Y-52854055D01*
X168529499Y-52693830D01*
X168513088Y-52527200D01*
X168529499Y-52360570D01*
X168578103Y-52200345D01*
X168657031Y-52052680D01*
X168763251Y-51923251D01*
X168892680Y-51817031D01*
X169040345Y-51738103D01*
X169200570Y-51689499D01*
X169325448Y-51677200D01*
X169408952Y-51677200D01*
X169533830Y-51689499D01*
X169533830Y-51689499D01*
G37*
G36*
X154977200Y-53377200D02*
X153277200Y-53377200D01*
X153277200Y-51677200D01*
X154977200Y-51677200D01*
X154977200Y-53377200D01*
X154977200Y-53377200D01*
G37*
G36*
X156833830Y-51689499D02*
X156994055Y-51738103D01*
X157141720Y-51817031D01*
X157271149Y-51923251D01*
X157377369Y-52052680D01*
X157456297Y-52200345D01*
X157504901Y-52360570D01*
X157521312Y-52527200D01*
X157504901Y-52693830D01*
X157456297Y-52854055D01*
X157377369Y-53001720D01*
X157271149Y-53131149D01*
X157141720Y-53237369D01*
X156994055Y-53316297D01*
X156833830Y-53364901D01*
X156708952Y-53377200D01*
X156625448Y-53377200D01*
X156500570Y-53364901D01*
X156340345Y-53316297D01*
X156192680Y-53237369D01*
X156063251Y-53131149D01*
X155957031Y-53001720D01*
X155878103Y-52854055D01*
X155829499Y-52693830D01*
X155813088Y-52527200D01*
X155829499Y-52360570D01*
X155878103Y-52200345D01*
X155957031Y-52052680D01*
X156063251Y-51923251D01*
X156192680Y-51817031D01*
X156340345Y-51738103D01*
X156500570Y-51689499D01*
X156625448Y-51677200D01*
X156708952Y-51677200D01*
X156833830Y-51689499D01*
X156833830Y-51689499D01*
G37*
G36*
X159373830Y-51689499D02*
X159534055Y-51738103D01*
X159681720Y-51817031D01*
X159811149Y-51923251D01*
X159917369Y-52052680D01*
X159996297Y-52200345D01*
X160044901Y-52360570D01*
X160061312Y-52527200D01*
X160044901Y-52693830D01*
X159996297Y-52854055D01*
X159917369Y-53001720D01*
X159811149Y-53131149D01*
X159681720Y-53237369D01*
X159534055Y-53316297D01*
X159373830Y-53364901D01*
X159248952Y-53377200D01*
X159165448Y-53377200D01*
X159040570Y-53364901D01*
X158880345Y-53316297D01*
X158732680Y-53237369D01*
X158603251Y-53131149D01*
X158497031Y-53001720D01*
X158418103Y-52854055D01*
X158369499Y-52693830D01*
X158353088Y-52527200D01*
X158369499Y-52360570D01*
X158418103Y-52200345D01*
X158497031Y-52052680D01*
X158603251Y-51923251D01*
X158732680Y-51817031D01*
X158880345Y-51738103D01*
X159040570Y-51689499D01*
X159165448Y-51677200D01*
X159248952Y-51677200D01*
X159373830Y-51689499D01*
X159373830Y-51689499D01*
G37*
G36*
X161913830Y-51689499D02*
X162074055Y-51738103D01*
X162221720Y-51817031D01*
X162351149Y-51923251D01*
X162457369Y-52052680D01*
X162536297Y-52200345D01*
X162584901Y-52360570D01*
X162601312Y-52527200D01*
X162584901Y-52693830D01*
X162536297Y-52854055D01*
X162457369Y-53001720D01*
X162351149Y-53131149D01*
X162221720Y-53237369D01*
X162074055Y-53316297D01*
X161913830Y-53364901D01*
X161788952Y-53377200D01*
X161705448Y-53377200D01*
X161580570Y-53364901D01*
X161420345Y-53316297D01*
X161272680Y-53237369D01*
X161143251Y-53131149D01*
X161037031Y-53001720D01*
X160958103Y-52854055D01*
X160909499Y-52693830D01*
X160893088Y-52527200D01*
X160909499Y-52360570D01*
X160958103Y-52200345D01*
X161037031Y-52052680D01*
X161143251Y-51923251D01*
X161272680Y-51817031D01*
X161420345Y-51738103D01*
X161580570Y-51689499D01*
X161705448Y-51677200D01*
X161788952Y-51677200D01*
X161913830Y-51689499D01*
X161913830Y-51689499D01*
G37*
G36*
X164453830Y-51689499D02*
X164614055Y-51738103D01*
X164761720Y-51817031D01*
X164891149Y-51923251D01*
X164997369Y-52052680D01*
X165076297Y-52200345D01*
X165124901Y-52360570D01*
X165141312Y-52527200D01*
X165124901Y-52693830D01*
X165076297Y-52854055D01*
X164997369Y-53001720D01*
X164891149Y-53131149D01*
X164761720Y-53237369D01*
X164614055Y-53316297D01*
X164453830Y-53364901D01*
X164328952Y-53377200D01*
X164245448Y-53377200D01*
X164120570Y-53364901D01*
X163960345Y-53316297D01*
X163812680Y-53237369D01*
X163683251Y-53131149D01*
X163577031Y-53001720D01*
X163498103Y-52854055D01*
X163449499Y-52693830D01*
X163433088Y-52527200D01*
X163449499Y-52360570D01*
X163498103Y-52200345D01*
X163577031Y-52052680D01*
X163683251Y-51923251D01*
X163812680Y-51817031D01*
X163960345Y-51738103D01*
X164120570Y-51689499D01*
X164245448Y-51677200D01*
X164328952Y-51677200D01*
X164453830Y-51689499D01*
X164453830Y-51689499D01*
G37*
G36*
X138696700Y-50300699D02*
X136207500Y-50300699D01*
X136207500Y-49360899D01*
X138696700Y-49360899D01*
X138696700Y-50300699D01*
X138696700Y-50300699D01*
G37*
G36*
X123191060Y-46853058D02*
X123351221Y-46884916D01*
X123476204Y-46936686D01*
X123652956Y-47009899D01*
X123924516Y-47191350D01*
X124155450Y-47422284D01*
X124336901Y-47693844D01*
X124461884Y-47995580D01*
X124525600Y-48315900D01*
X124525600Y-48642500D01*
X124461884Y-48962820D01*
X124336901Y-49264556D01*
X124155450Y-49536116D01*
X123924516Y-49767050D01*
X123652956Y-49948501D01*
X123476204Y-50021714D01*
X123351221Y-50073484D01*
X123191060Y-50105342D01*
X123030900Y-50137200D01*
X122704300Y-50137200D01*
X122544140Y-50105342D01*
X122383979Y-50073484D01*
X122258996Y-50021714D01*
X122082244Y-49948501D01*
X121810684Y-49767050D01*
X121579750Y-49536116D01*
X121398299Y-49264556D01*
X121273316Y-48962820D01*
X121209600Y-48642500D01*
X121209600Y-48315900D01*
X121273316Y-47995580D01*
X121398299Y-47693844D01*
X121579750Y-47422284D01*
X121810684Y-47191350D01*
X122082244Y-47009899D01*
X122258996Y-46936686D01*
X122383979Y-46884916D01*
X122544140Y-46853058D01*
X122704300Y-46821200D01*
X123030900Y-46821200D01*
X123191060Y-46853058D01*
X123191060Y-46853058D01*
G37*
M02*
